%TF.GenerationSoftware,KiCad,Pcbnew,(5.0.2)-1*%
%TF.CreationDate,2019-05-26T18:44:39-03:00*%
%TF.ProjectId,dragonmanh7,64726167-6f6e-46d6-916e-68372e6b6963,rev?*%
%TF.SameCoordinates,Original*%
%TF.FileFunction,Copper,L4,Bot*%
%TF.FilePolarity,Positive*%
%FSLAX46Y46*%
G04 Gerber Fmt 4.6, Leading zero omitted, Abs format (unit mm)*
G04 Created by KiCad (PCBNEW (5.0.2)-1) date 26/05/2019 18:44:39*
%MOMM*%
%LPD*%
G01*
G04 APERTURE LIST*
%ADD10C,0.150000*%
%ADD11R,1.800000X3.600000*%
%ADD12O,1.800000X3.600000*%
%ADD13C,2.100000*%
%ADD14C,1.750000*%
%ADD15C,2.000000*%
%ADD16C,0.500000*%
%ADD17R,1.700000X1.700000*%
%ADD18O,1.700000X1.700000*%
%ADD19O,1.000000X1.550000*%
%ADD20O,1.250000X0.950000*%
%ADD21R,1.900000X1.900000*%
%ADD22C,1.900000*%
%ADD23C,1.890000*%
%ADD24C,2.600000*%
%ADD25C,0.800000*%
%ADD26C,6.400000*%
%ADD27C,0.250000*%
%ADD28C,2.000000*%
%ADD29C,0.200000*%
%ADD30C,0.254000*%
G04 APERTURE END LIST*
D10*
G36*
X116844000Y-39070000D02*
X117344000Y-39070000D01*
X117344000Y-39670000D01*
X116844000Y-39670000D01*
X116844000Y-39070000D01*
G37*
D11*
X75681840Y-74591820D03*
D12*
X80761840Y-74591820D03*
D11*
X96105980Y-36019740D03*
D12*
X91025980Y-36019740D03*
X85945980Y-36019740D03*
X80865980Y-36019740D03*
X75785980Y-36019740D03*
X70705980Y-36019740D03*
D13*
X147810940Y-77657160D03*
D14*
X149070940Y-80147160D03*
X153570940Y-80147160D03*
D13*
X154820940Y-77657160D03*
X114101160Y-33457680D03*
D14*
X112841160Y-30967680D03*
X108341160Y-30967680D03*
D13*
X107091160Y-33457680D03*
D15*
X113713260Y-59067700D03*
D16*
X117744000Y-39370000D03*
D10*
G36*
X117244000Y-38620000D02*
X117744000Y-38620000D01*
X117744000Y-38620602D01*
X117768534Y-38620602D01*
X117817365Y-38625412D01*
X117865490Y-38634984D01*
X117912445Y-38649228D01*
X117957778Y-38668005D01*
X118001051Y-38691136D01*
X118041850Y-38718396D01*
X118079779Y-38749524D01*
X118114476Y-38784221D01*
X118145604Y-38822150D01*
X118172864Y-38862949D01*
X118195995Y-38906222D01*
X118214772Y-38951555D01*
X118229016Y-38998510D01*
X118238588Y-39046635D01*
X118243398Y-39095466D01*
X118243398Y-39120000D01*
X118244000Y-39120000D01*
X118244000Y-39620000D01*
X118243398Y-39620000D01*
X118243398Y-39644534D01*
X118238588Y-39693365D01*
X118229016Y-39741490D01*
X118214772Y-39788445D01*
X118195995Y-39833778D01*
X118172864Y-39877051D01*
X118145604Y-39917850D01*
X118114476Y-39955779D01*
X118079779Y-39990476D01*
X118041850Y-40021604D01*
X118001051Y-40048864D01*
X117957778Y-40071995D01*
X117912445Y-40090772D01*
X117865490Y-40105016D01*
X117817365Y-40114588D01*
X117768534Y-40119398D01*
X117744000Y-40119398D01*
X117744000Y-40120000D01*
X117244000Y-40120000D01*
X117244000Y-38620000D01*
X117244000Y-38620000D01*
G37*
D16*
X116444000Y-39370000D03*
D10*
G36*
X116444000Y-40119398D02*
X116419466Y-40119398D01*
X116370635Y-40114588D01*
X116322510Y-40105016D01*
X116275555Y-40090772D01*
X116230222Y-40071995D01*
X116186949Y-40048864D01*
X116146150Y-40021604D01*
X116108221Y-39990476D01*
X116073524Y-39955779D01*
X116042396Y-39917850D01*
X116015136Y-39877051D01*
X115992005Y-39833778D01*
X115973228Y-39788445D01*
X115958984Y-39741490D01*
X115949412Y-39693365D01*
X115944602Y-39644534D01*
X115944602Y-39620000D01*
X115944000Y-39620000D01*
X115944000Y-39120000D01*
X115944602Y-39120000D01*
X115944602Y-39095466D01*
X115949412Y-39046635D01*
X115958984Y-38998510D01*
X115973228Y-38951555D01*
X115992005Y-38906222D01*
X116015136Y-38862949D01*
X116042396Y-38822150D01*
X116073524Y-38784221D01*
X116108221Y-38749524D01*
X116146150Y-38718396D01*
X116186949Y-38691136D01*
X116230222Y-38668005D01*
X116275555Y-38649228D01*
X116322510Y-38634984D01*
X116370635Y-38625412D01*
X116419466Y-38620602D01*
X116444000Y-38620602D01*
X116444000Y-38620000D01*
X116944000Y-38620000D01*
X116944000Y-40120000D01*
X116444000Y-40120000D01*
X116444000Y-40119398D01*
X116444000Y-40119398D01*
G37*
D15*
X117304820Y-42224960D03*
D17*
X116840000Y-33020000D03*
D18*
X116840000Y-30480000D03*
X119380000Y-33020000D03*
X119380000Y-30480000D03*
X121920000Y-33020000D03*
X121920000Y-30480000D03*
X124460000Y-33020000D03*
X124460000Y-30480000D03*
X127000000Y-33020000D03*
X127000000Y-30480000D03*
X129540000Y-33020000D03*
X129540000Y-30480000D03*
X132080000Y-33020000D03*
X132080000Y-30480000D03*
X134620000Y-33020000D03*
X134620000Y-30480000D03*
X137160000Y-33020000D03*
X137160000Y-30480000D03*
X139700000Y-33020000D03*
X139700000Y-30480000D03*
X142240000Y-33020000D03*
X142240000Y-30480000D03*
X144780000Y-33020000D03*
X144780000Y-30480000D03*
D19*
X174503200Y-30091400D03*
X181503200Y-30091400D03*
D20*
X180503200Y-32791400D03*
X175503200Y-32791400D03*
D19*
X185491000Y-80424000D03*
X178491000Y-80424000D03*
D20*
X179491000Y-77724000D03*
X184491000Y-77724000D03*
D19*
X161346000Y-30066000D03*
X168346000Y-30066000D03*
D20*
X167346000Y-32766000D03*
X162346000Y-32766000D03*
D21*
X161112200Y-67170300D03*
D22*
X162382200Y-64630300D03*
X163652200Y-67170300D03*
X164922200Y-64630300D03*
X166192200Y-67170300D03*
X167462200Y-64630300D03*
X168732200Y-67170300D03*
X170002200Y-64630300D03*
D23*
X171882200Y-76890300D03*
X169342200Y-78410300D03*
X161772200Y-76890300D03*
X159232200Y-78410300D03*
D24*
X157782200Y-70460300D03*
X173332200Y-70460300D03*
D17*
X88900000Y-78740000D03*
D18*
X88900000Y-76200000D03*
X91440000Y-78740000D03*
X91440000Y-76200000D03*
X93980000Y-78740000D03*
X93980000Y-76200000D03*
X96520000Y-78740000D03*
X96520000Y-76200000D03*
X99060000Y-78740000D03*
X99060000Y-76200000D03*
X101600000Y-78740000D03*
X101600000Y-76200000D03*
X104140000Y-78740000D03*
X104140000Y-76200000D03*
X106680000Y-78740000D03*
X106680000Y-76200000D03*
X109220000Y-78740000D03*
X109220000Y-76200000D03*
X111760000Y-78740000D03*
X111760000Y-76200000D03*
D17*
X88900000Y-73660000D03*
D18*
X88900000Y-71120000D03*
X91440000Y-73660000D03*
X91440000Y-71120000D03*
X93980000Y-73660000D03*
X93980000Y-71120000D03*
X96520000Y-73660000D03*
X96520000Y-71120000D03*
X99060000Y-73660000D03*
X99060000Y-71120000D03*
X101600000Y-73660000D03*
X101600000Y-71120000D03*
X104140000Y-73660000D03*
X104140000Y-71120000D03*
X106680000Y-73660000D03*
X106680000Y-71120000D03*
X109220000Y-73660000D03*
X109220000Y-71120000D03*
X111760000Y-73660000D03*
X111760000Y-71120000D03*
D17*
X101942900Y-38658800D03*
D18*
X104482900Y-38658800D03*
D17*
X177302160Y-36695380D03*
D18*
X177302160Y-39235380D03*
X174762160Y-36695380D03*
X174762160Y-39235380D03*
D17*
X116840000Y-78740000D03*
D18*
X116840000Y-76200000D03*
X119380000Y-78740000D03*
X119380000Y-76200000D03*
X121920000Y-78740000D03*
X121920000Y-76200000D03*
X124460000Y-78740000D03*
X124460000Y-76200000D03*
X127000000Y-78740000D03*
X127000000Y-76200000D03*
X129540000Y-78740000D03*
X129540000Y-76200000D03*
X132080000Y-78740000D03*
X132080000Y-76200000D03*
X134620000Y-78740000D03*
X134620000Y-76200000D03*
X137160000Y-78740000D03*
X137160000Y-76200000D03*
X139700000Y-78740000D03*
X139700000Y-76200000D03*
X142240000Y-78740000D03*
X142240000Y-76200000D03*
X144780000Y-78740000D03*
X144780000Y-76200000D03*
X187960000Y-68580000D03*
X185420000Y-68580000D03*
X187960000Y-66040000D03*
X185420000Y-66040000D03*
X187960000Y-63500000D03*
X185420000Y-63500000D03*
X187960000Y-60960000D03*
X185420000Y-60960000D03*
X187960000Y-58420000D03*
X185420000Y-58420000D03*
X187960000Y-55880000D03*
X185420000Y-55880000D03*
X187960000Y-53340000D03*
X185420000Y-53340000D03*
X187960000Y-50800000D03*
X185420000Y-50800000D03*
X187960000Y-48260000D03*
X185420000Y-48260000D03*
X187960000Y-45720000D03*
X185420000Y-45720000D03*
X187960000Y-43180000D03*
X185420000Y-43180000D03*
X187960000Y-40640000D03*
D17*
X185420000Y-40640000D03*
D25*
X61294944Y-33955056D03*
X62992000Y-34658000D03*
X64689056Y-33955056D03*
X65392000Y-32258000D03*
X64689056Y-30560944D03*
X62992000Y-29858000D03*
X61294944Y-30560944D03*
X60592000Y-32258000D03*
D26*
X62992000Y-32258000D03*
X62992000Y-78232000D03*
D25*
X65392000Y-78232000D03*
X64689056Y-79929056D03*
X62992000Y-80632000D03*
X61294944Y-79929056D03*
X60592000Y-78232000D03*
X61294944Y-76534944D03*
X62992000Y-75832000D03*
X64689056Y-76534944D03*
X188294944Y-33955056D03*
X189992000Y-34658000D03*
X191689056Y-33955056D03*
X192392000Y-32258000D03*
X191689056Y-30560944D03*
X189992000Y-29858000D03*
X188294944Y-30560944D03*
X187592000Y-32258000D03*
D26*
X189992000Y-32258000D03*
X189992000Y-78232000D03*
D25*
X192392000Y-78232000D03*
X191689056Y-79929056D03*
X189992000Y-80632000D03*
X188294944Y-79929056D03*
X187592000Y-78232000D03*
X188294944Y-76534944D03*
X189992000Y-75832000D03*
X191689056Y-76534944D03*
X146080480Y-70073280D03*
X137967720Y-56436260D03*
X139629611Y-41456185D03*
X106293920Y-61153040D03*
X124741940Y-53964840D03*
X131993640Y-69565520D03*
X109166660Y-36558220D03*
X70520560Y-57914540D03*
X72425560Y-57937400D03*
X71120000Y-66116200D03*
X69761100Y-64693800D03*
X71132700Y-63271400D03*
X69697600Y-61620400D03*
X74422000Y-61976000D03*
X59349000Y-72898000D03*
X59436000Y-67056000D03*
X59436000Y-64516000D03*
X59436000Y-69850000D03*
X63246000Y-72898000D03*
X63497420Y-69085420D03*
X63497420Y-71117420D03*
X60960000Y-72898000D03*
X62230000Y-67564000D03*
X106845098Y-52438300D03*
X137831260Y-68569140D03*
X135582420Y-68582300D03*
X153451560Y-31074360D03*
X111770160Y-55316120D03*
X122547620Y-39024800D03*
X121513360Y-39024800D03*
X119220220Y-39032420D03*
X123766080Y-57190140D03*
X69761100Y-67386200D03*
X115189000Y-39370000D03*
X124124720Y-46682662D03*
X120629440Y-51516040D03*
X174086398Y-45151160D03*
X166030750Y-42384980D03*
X153629360Y-41287700D03*
X180670200Y-45189140D03*
X74549000Y-51943000D03*
X59436000Y-51943000D03*
X59436000Y-58166000D03*
X59436000Y-54991000D03*
X63528100Y-51914900D03*
X69116100Y-51914900D03*
X66392900Y-51914900D03*
X71910100Y-51914900D03*
X59436000Y-61341000D03*
X74018140Y-63847980D03*
X117302280Y-46548040D03*
X135590280Y-53901340D03*
X124035820Y-45587920D03*
X148778200Y-71015860D03*
X148778200Y-73019920D03*
X141183360Y-69319140D03*
X137021094Y-42568970D03*
X141607540Y-39616140D03*
X143809720Y-39601140D03*
X137190480Y-59174620D03*
X119265700Y-54477920D03*
X103359504Y-42679482D03*
X130136900Y-69598540D03*
X181838600Y-64231520D03*
X141043660Y-61882020D03*
X67818000Y-61976000D03*
X67830700Y-67297300D03*
X65405000Y-63982600D03*
X67840620Y-64747380D03*
X66506720Y-65065280D03*
X123451620Y-55694580D03*
X134414260Y-71645780D03*
X135600200Y-70457300D03*
X136624060Y-71513700D03*
X141433360Y-72728900D03*
X150746460Y-65173860D03*
X149563060Y-63200520D03*
X155646120Y-31074360D03*
X160957260Y-39540180D03*
X167640000Y-60764420D03*
X168750692Y-60811968D03*
X110454440Y-48780700D03*
X111749840Y-53022500D03*
X122512060Y-37149800D03*
X121531620Y-37149800D03*
X119204980Y-37157420D03*
X69189600Y-68707000D03*
X66522600Y-64058800D03*
X106849760Y-48378960D03*
X101269800Y-44729400D03*
X104835960Y-41221660D03*
X175921722Y-46134673D03*
X124180600Y-50990500D03*
X109743000Y-42911000D03*
X109093000Y-45085000D03*
X119413020Y-41744900D03*
X128135380Y-62501780D03*
X150749000Y-61386720D03*
X166032180Y-44404280D03*
X192529260Y-57061100D03*
X102943660Y-53533040D03*
X110185200Y-61023500D03*
X155501340Y-41292780D03*
X180710840Y-47155100D03*
X122384820Y-60111640D03*
X102704900Y-57685940D03*
X179120804Y-40259000D03*
X66776600Y-49961800D03*
X69088000Y-55753000D03*
X160416240Y-37721540D03*
X138653520Y-66146680D03*
X121032110Y-66174665D03*
X138709400Y-64160400D03*
X123058389Y-64231059D03*
X137937670Y-73484310D03*
X126329440Y-73553320D03*
X139174913Y-72377796D03*
X135041640Y-60078620D03*
X138176000Y-62611000D03*
X139603480Y-74033380D03*
X141287492Y-73787000D03*
X139776198Y-62382400D03*
X106941620Y-56073040D03*
X109141260Y-56062880D03*
X125737620Y-48107600D03*
X141038580Y-45633640D03*
X153723340Y-62478920D03*
X172819074Y-47751160D03*
X174752000Y-47650400D03*
X160294320Y-42092880D03*
X164495480Y-42097960D03*
X145806160Y-37203380D03*
X166141400Y-40411400D03*
X176735740Y-66438780D03*
X176735740Y-69347080D03*
X176735740Y-67497960D03*
X176735740Y-68473320D03*
X182753000Y-32131000D03*
X184658000Y-31115000D03*
X184658000Y-29337000D03*
X182880000Y-31115000D03*
X182880000Y-29337000D03*
X183769000Y-30226000D03*
X186055000Y-31115000D03*
X186055000Y-29337000D03*
X185293000Y-30226000D03*
X171173140Y-31635700D03*
X172509180Y-31635700D03*
X169857420Y-31658560D03*
X169903140Y-28829000D03*
X172509180Y-28806140D03*
X171084240Y-28829000D03*
X171173140Y-30299660D03*
X172486320Y-30276800D03*
X169857420Y-30276800D03*
X107155979Y-44450000D03*
X106056186Y-46084941D03*
X153055320Y-71264000D03*
X153055320Y-70214000D03*
X155755732Y-66182632D03*
X155013268Y-65440168D03*
X174876460Y-64190880D03*
X130822700Y-43402511D03*
X129443480Y-44127511D03*
X127835660Y-44594780D03*
X126682500Y-46073060D03*
X127370840Y-47645320D03*
X119171720Y-44091860D03*
X116476780Y-53784500D03*
X124218700Y-49055020D03*
X127351370Y-53952990D03*
X129313938Y-53662580D03*
X131307840Y-53710840D03*
X131135120Y-51925220D03*
X132341620Y-50787300D03*
X132417820Y-49095660D03*
X134495540Y-48280320D03*
X136032240Y-49096228D03*
X137388600Y-38227000D03*
X135518740Y-38210376D03*
X132483860Y-41502490D03*
X130900010Y-41471680D03*
X97403920Y-53540660D03*
X84879180Y-57967880D03*
X81922620Y-57937400D03*
X83365340Y-57937400D03*
X89916000Y-61087000D03*
X92146120Y-49425860D03*
X98191320Y-42169080D03*
X85217000Y-51434998D03*
X80645000Y-51435000D03*
X97309940Y-61153040D03*
X93451680Y-52392580D03*
X80601820Y-53266340D03*
X82931240Y-53284360D03*
X85298520Y-53276740D03*
X86144100Y-54122320D03*
X87049360Y-55027580D03*
X87039200Y-57629040D03*
X87039200Y-58497720D03*
X88767920Y-56164480D03*
X87068660Y-61188600D03*
X152976580Y-77896720D03*
D27*
X116444000Y-39370000D02*
X115189000Y-39370000D01*
X153451560Y-41109900D02*
X153629360Y-41287700D01*
X153451560Y-31074360D02*
X153451560Y-41109900D01*
X155646120Y-41148000D02*
X155501340Y-41292780D01*
X155646120Y-31074360D02*
X155646120Y-41148000D01*
X138653520Y-66146680D02*
X121060095Y-66146680D01*
X121060095Y-66146680D02*
X121032110Y-66174665D01*
X138709400Y-64160400D02*
X123129048Y-64160400D01*
X123129048Y-64160400D02*
X123058389Y-64231059D01*
X126398450Y-73484310D02*
X126329440Y-73553320D01*
X137937670Y-73484310D02*
X126398450Y-73484310D01*
X137821135Y-63423800D02*
X135041640Y-60644305D01*
X139115800Y-63423800D02*
X137821135Y-63423800D01*
X135041640Y-60644305D02*
X135041640Y-60078620D01*
X139467934Y-71519090D02*
X139467934Y-63775934D01*
X139174913Y-71812111D02*
X139467934Y-71519090D01*
X139467934Y-63775934D02*
X139115800Y-63423800D01*
X139174913Y-72377796D02*
X139174913Y-71812111D01*
X139918440Y-73152735D02*
X139603480Y-73467695D01*
X139603480Y-73467695D02*
X139603480Y-74033380D01*
X139918440Y-63590029D02*
X139918440Y-73152735D01*
X138939411Y-62611000D02*
X139918440Y-63590029D01*
X138176000Y-62611000D02*
X138939411Y-62611000D01*
X140383260Y-62989462D02*
X140176197Y-62782399D01*
X140176197Y-62782399D02*
X139776198Y-62382400D01*
X140383260Y-72838479D02*
X140383260Y-62989462D01*
X140887493Y-73342712D02*
X140383260Y-72838479D01*
X140887493Y-73387001D02*
X140887493Y-73342712D01*
X141287492Y-73787000D02*
X140887493Y-73387001D01*
X106941620Y-56073040D02*
X109131100Y-56073040D01*
X109131100Y-56073040D02*
X109141260Y-56062880D01*
X125053421Y-36153421D02*
X125053421Y-47423401D01*
X125337621Y-47707601D02*
X125737620Y-48107600D01*
X121920000Y-33020000D02*
X125053421Y-36153421D01*
X125053421Y-47423401D02*
X125337621Y-47707601D01*
X146514820Y-55270400D02*
X153323341Y-62078921D01*
X130309620Y-54477920D02*
X131102100Y-55270400D01*
X131102100Y-55270400D02*
X146514820Y-55270400D01*
X130309620Y-52679600D02*
X130309620Y-54477920D01*
X153323341Y-62078921D02*
X153723340Y-62478920D01*
X127001270Y-49371250D02*
X130309620Y-52679600D01*
X125737620Y-48107600D02*
X127001270Y-49371250D01*
X127487680Y-48884840D02*
X127001270Y-49371250D01*
X129237740Y-47134780D02*
X127487680Y-48884840D01*
X141038580Y-45633640D02*
X139537440Y-47134780D01*
X139537440Y-47134780D02*
X129237740Y-47134780D01*
X172830920Y-47751160D02*
X172819074Y-47751160D01*
X177054761Y-51975001D02*
X172830920Y-47751160D01*
X188334003Y-51975001D02*
X177054761Y-51975001D01*
X189135001Y-52775999D02*
X188334003Y-51975001D01*
X187960000Y-63500000D02*
X189135001Y-62324999D01*
X189135001Y-62324999D02*
X189135001Y-52775999D01*
X188524001Y-49624999D02*
X176726599Y-49624999D01*
X185420000Y-63500000D02*
X186595001Y-64675001D01*
X176726599Y-49624999D02*
X175151999Y-48050399D01*
X175151999Y-48050399D02*
X174752000Y-47650400D01*
X189598300Y-50699298D02*
X188524001Y-49624999D01*
X189598300Y-63600702D02*
X189598300Y-50699298D01*
X188524001Y-64675001D02*
X189598300Y-63600702D01*
X186595001Y-64675001D02*
X188524001Y-64675001D01*
X160294320Y-42092880D02*
X164490400Y-42092880D01*
X164490400Y-42092880D02*
X164495480Y-42097960D01*
X145806160Y-37203380D02*
X150837900Y-42235120D01*
X150837900Y-42235120D02*
X157914340Y-42235120D01*
X157914340Y-42235120D02*
X159738060Y-40411400D01*
X165575715Y-40411400D02*
X166141400Y-40411400D01*
X159738060Y-40411400D02*
X165575715Y-40411400D01*
X184658000Y-31115000D02*
X182880000Y-31115000D01*
X182880000Y-31115000D02*
X183769000Y-30226000D01*
X184658000Y-31115000D02*
X186055000Y-31115000D01*
X184658000Y-31115000D02*
X184658000Y-30861000D01*
X184658000Y-30861000D02*
X185293000Y-30226000D01*
X171173140Y-31635700D02*
X172509180Y-31635700D01*
X169857420Y-28874720D02*
X169903140Y-28829000D01*
X172509180Y-31635700D02*
X172509180Y-30299660D01*
X172509180Y-30299660D02*
X172486320Y-30276800D01*
X169857420Y-31658560D02*
X169857420Y-30276800D01*
X169857420Y-30276800D02*
X169857420Y-28874720D01*
D28*
X88900000Y-71120000D02*
X112712500Y-71120000D01*
X114305080Y-79890620D02*
X115534440Y-81119980D01*
X114305080Y-72712580D02*
X114305080Y-79890620D01*
X112712500Y-71120000D02*
X114305080Y-72712580D01*
X171610020Y-81119980D02*
X180340000Y-72390000D01*
X145434022Y-81119980D02*
X145461962Y-81147920D01*
X115534440Y-81119980D02*
X145434022Y-81119980D01*
X145461962Y-81147920D02*
X146679920Y-81147920D01*
X183769000Y-31958280D02*
X183769000Y-30226000D01*
X183769000Y-36522660D02*
X183769000Y-31958280D01*
X185127900Y-37881560D02*
X183769000Y-36522660D01*
X189969140Y-37881560D02*
X185127900Y-37881560D01*
X190929260Y-38841680D02*
X189969140Y-37881560D01*
X184774840Y-72293480D02*
X189293500Y-72293480D01*
X189293500Y-72293480D02*
X190929260Y-70657720D01*
X190929260Y-70657720D02*
X190929260Y-38841680D01*
D27*
X106056186Y-45549793D02*
X106056186Y-46084941D01*
X107155979Y-44450000D02*
X106056186Y-45549793D01*
D29*
X151854960Y-70063640D02*
X151854960Y-65664860D01*
X153055320Y-71264000D02*
X151854960Y-70063640D01*
X151854960Y-65664860D02*
X155344640Y-62175180D01*
X167462200Y-63792100D02*
X167462200Y-64630300D01*
X155344640Y-62175180D02*
X161515279Y-62175180D01*
X166339520Y-62669420D02*
X167462200Y-63792100D01*
X161515279Y-62175180D02*
X162009519Y-62669420D01*
X162009519Y-62669420D02*
X166339520Y-62669420D01*
X163652200Y-64948499D02*
X163652200Y-67170300D01*
X163632201Y-64928500D02*
X163652200Y-64948499D01*
X163632201Y-63678121D02*
X163632201Y-64928500D01*
X152641717Y-70214000D02*
X152304960Y-69877243D01*
X152304960Y-69877243D02*
X152304960Y-65851260D01*
X163052760Y-63098680D02*
X163632201Y-63678121D01*
X153055320Y-70214000D02*
X152641717Y-70214000D01*
X161328881Y-62625180D02*
X161802381Y-63098680D01*
X152304960Y-65851260D02*
X155531040Y-62625180D01*
X161802381Y-63098680D02*
X163052760Y-63098680D01*
X155531040Y-62625180D02*
X161328881Y-62625180D01*
X160657540Y-64630300D02*
X162382200Y-64630300D01*
X158977540Y-66310300D02*
X160657540Y-64630300D01*
X155463268Y-66475096D02*
X155463268Y-66928328D01*
X155755732Y-66182632D02*
X155463268Y-66475096D01*
X155463268Y-66928328D02*
X156125400Y-67590460D01*
X156125400Y-67590460D02*
X156645120Y-67590460D01*
X156645120Y-67590460D02*
X157925280Y-66310300D01*
X157925280Y-66310300D02*
X158977540Y-66310300D01*
X155013268Y-67114728D02*
X155939000Y-68040460D01*
X155013268Y-65440168D02*
X155013268Y-67114728D01*
X155939000Y-68040460D02*
X156831520Y-68040460D01*
X160702200Y-66760300D02*
X161112200Y-67170300D01*
X158111680Y-66760300D02*
X160702200Y-66760300D01*
X156831520Y-68040460D02*
X158111680Y-66760300D01*
D27*
X169396141Y-65947239D02*
X173120101Y-65947239D01*
X169173942Y-65725040D02*
X169396141Y-65947239D01*
X168254462Y-65725040D02*
X169173942Y-65725040D01*
X174476461Y-64590879D02*
X174876460Y-64190880D01*
X167759201Y-66220301D02*
X168254462Y-65725040D01*
X167142199Y-66220301D02*
X167759201Y-66220301D01*
X173120101Y-65947239D02*
X174476461Y-64590879D01*
X166192200Y-67170300D02*
X167142199Y-66220301D01*
X129540000Y-34222081D02*
X129540000Y-33020000D01*
X129599081Y-34222081D02*
X129540000Y-34222081D01*
X130175000Y-34798000D02*
X129599081Y-34222081D01*
X130822700Y-43402511D02*
X130175000Y-42754811D01*
X130175000Y-42754811D02*
X130175000Y-34798000D01*
X127849999Y-31329999D02*
X127000000Y-30480000D01*
X129443480Y-43350180D02*
X129667000Y-43126660D01*
X129667000Y-43126660D02*
X129667000Y-35643820D01*
X129443480Y-44127511D02*
X129443480Y-43350180D01*
X129667000Y-35643820D02*
X128259840Y-34236660D01*
X128259840Y-31739840D02*
X127849999Y-31329999D01*
X128259840Y-34236660D02*
X128259840Y-31739840D01*
X127835660Y-44594780D02*
X127835660Y-43573982D01*
X127835660Y-43573982D02*
X129170022Y-42239620D01*
X127000000Y-34222081D02*
X127000000Y-33020000D01*
X129170022Y-36392103D02*
X127000000Y-34222081D01*
X129170022Y-42239620D02*
X129170022Y-36392103D01*
X126682500Y-44090731D02*
X126682500Y-45507375D01*
X128720011Y-42053220D02*
X126682500Y-44090731D01*
X126682500Y-45507375D02*
X126682500Y-46073060D01*
X125760010Y-33683600D02*
X128720011Y-36643600D01*
X125760010Y-31780010D02*
X125760010Y-33683600D01*
X128720011Y-36643600D02*
X128720011Y-42053220D01*
X124460000Y-30480000D02*
X125760010Y-31780010D01*
X126805155Y-47645320D02*
X127370840Y-47645320D01*
X125835672Y-46675837D02*
X126805155Y-47645320D01*
X128270000Y-41866820D02*
X125835672Y-44301148D01*
X124460000Y-33020000D02*
X128270000Y-36830000D01*
X125835672Y-44301148D02*
X125835672Y-46675837D01*
X128270000Y-36830000D02*
X128270000Y-41866820D01*
X112841160Y-30967680D02*
X111966161Y-31842679D01*
X115846860Y-44091860D02*
X118606035Y-44091860D01*
X118606035Y-44091860D02*
X119171720Y-44091860D01*
X111966161Y-40211161D02*
X115846860Y-44091860D01*
X111966161Y-31842679D02*
X111966161Y-40211161D01*
X121206260Y-49055020D02*
X123653015Y-49055020D01*
X123653015Y-49055020D02*
X124218700Y-49055020D01*
X116476780Y-53784500D02*
X121206260Y-49055020D01*
X127351370Y-54518675D02*
X127351370Y-53952990D01*
X127351370Y-58090360D02*
X127351370Y-54518675D01*
X119979440Y-65462290D02*
X127351370Y-58090360D01*
X140942060Y-74902060D02*
X139170556Y-74902060D01*
X142240000Y-76200000D02*
X140942060Y-74902060D01*
X139170556Y-74902060D02*
X138662555Y-74394059D01*
X138662555Y-74394059D02*
X123695459Y-74394059D01*
X123695459Y-74394059D02*
X119979440Y-70678040D01*
X119979440Y-70678040D02*
X119979440Y-65462290D01*
X123509059Y-74844070D02*
X119529429Y-70864440D01*
X119529429Y-70864440D02*
X119529429Y-65275890D01*
X119529429Y-65275890D02*
X126606300Y-58199020D01*
X126606300Y-58199020D02*
X126606300Y-53672740D01*
X127081280Y-53197760D02*
X128849118Y-53197760D01*
X126606300Y-53672740D02*
X127081280Y-53197760D01*
X138344070Y-74844070D02*
X123509059Y-74844070D01*
X139700000Y-76200000D02*
X138344070Y-74844070D01*
X128913939Y-53262581D02*
X129313938Y-53662580D01*
X128849118Y-53197760D02*
X128913939Y-53262581D01*
X131994025Y-53024655D02*
X161988685Y-53024655D01*
X131307840Y-53710840D02*
X131994025Y-53024655D01*
X161988685Y-53024655D02*
X169924030Y-60960000D01*
X184217919Y-60960000D02*
X185420000Y-60960000D01*
X169924030Y-60960000D02*
X184217919Y-60960000D01*
X186784999Y-59784999D02*
X187110001Y-60110001D01*
X169385438Y-59784999D02*
X186784999Y-59784999D01*
X187110001Y-60110001D02*
X187960000Y-60960000D01*
X162175084Y-52574644D02*
X169385438Y-59784999D01*
X131784544Y-52574644D02*
X162175084Y-52574644D01*
X131135120Y-51925220D02*
X131784544Y-52574644D01*
X184217919Y-58420000D02*
X185420000Y-58420000D01*
X168656851Y-58420000D02*
X184217919Y-58420000D01*
X162361484Y-52124633D02*
X168656851Y-58420000D01*
X133678953Y-52124633D02*
X162361484Y-52124633D01*
X132341620Y-50787300D02*
X133678953Y-52124633D01*
X132417820Y-49095660D02*
X134996782Y-51674622D01*
X134996782Y-51674622D02*
X162547884Y-51674622D01*
X162547884Y-51674622D02*
X167928262Y-57055001D01*
X167928262Y-57055001D02*
X186595001Y-57055001D01*
X186595001Y-57055001D02*
X187110001Y-57570001D01*
X187110001Y-57570001D02*
X187960000Y-58420000D01*
X184217919Y-55880000D02*
X185420000Y-55880000D01*
X167389673Y-55880000D02*
X184217919Y-55880000D01*
X162734284Y-51224611D02*
X167389673Y-55880000D01*
X135908211Y-51224611D02*
X162734284Y-51224611D01*
X134495540Y-48280320D02*
X134495540Y-49811940D01*
X134495540Y-49811940D02*
X135908211Y-51224611D01*
X136032240Y-49951640D02*
X136032240Y-49096228D01*
X136855200Y-50774600D02*
X136032240Y-49951640D01*
X186595001Y-54515001D02*
X179096921Y-54515001D01*
X187960000Y-55880000D02*
X186595001Y-54515001D01*
X179096921Y-54515001D02*
X178970940Y-54389020D01*
X178970940Y-54389020D02*
X166535103Y-54389020D01*
X166535103Y-54389020D02*
X162920683Y-50774600D01*
X162920683Y-50774600D02*
X136855200Y-50774600D01*
X146103340Y-34129980D02*
X142006320Y-38227000D01*
X142006320Y-38227000D02*
X137954285Y-38227000D01*
X144780000Y-30480000D02*
X146103340Y-31803340D01*
X137954285Y-38227000D02*
X137388600Y-38227000D01*
X146103340Y-31803340D02*
X146103340Y-34129980D01*
X135481060Y-37373560D02*
X135481060Y-38172696D01*
X136481820Y-36372800D02*
X135481060Y-37373560D01*
X142902940Y-36372800D02*
X136481820Y-36372800D01*
X135481060Y-38172696D02*
X135518740Y-38210376D01*
X144780000Y-33020000D02*
X144780000Y-34495740D01*
X144780000Y-34495740D02*
X142902940Y-36372800D01*
X133339391Y-31760609D02*
X134620000Y-30480000D01*
X133339391Y-36039611D02*
X133339391Y-31760609D01*
X132483860Y-36895142D02*
X133339391Y-36039611D01*
X132483860Y-41502490D02*
X132483860Y-36895142D01*
X130900010Y-31659990D02*
X130900010Y-40905995D01*
X132080000Y-30480000D02*
X130900010Y-31659990D01*
X130900010Y-40905995D02*
X130900010Y-41471680D01*
X170771240Y-76890300D02*
X170157140Y-76276200D01*
X166938960Y-76276200D02*
X164338000Y-78877160D01*
X171882200Y-76890300D02*
X170771240Y-76890300D01*
X164338000Y-78877160D02*
X160723580Y-78877160D01*
X170157140Y-76276200D02*
X166938960Y-76276200D01*
X160256720Y-78410300D02*
X159232200Y-78410300D01*
X160723580Y-78877160D02*
X160256720Y-78410300D01*
X155480941Y-76282159D02*
X156329380Y-77130598D01*
X154025456Y-76282159D02*
X155480941Y-76282159D01*
X152976580Y-77896720D02*
X152976580Y-77331035D01*
X152976580Y-77331035D02*
X154025456Y-76282159D01*
X156329380Y-77130598D02*
X156329380Y-78056740D01*
X156682940Y-78410300D02*
X159232200Y-78410300D01*
X156329380Y-78056740D02*
X156682940Y-78410300D01*
X117729000Y-39385000D02*
X117744000Y-39370000D01*
X117744000Y-39370000D02*
X117744000Y-36180000D01*
X119380000Y-34544000D02*
X119380000Y-33020000D01*
X117744000Y-36180000D02*
X119380000Y-34544000D01*
X117744000Y-40371567D02*
X117744000Y-40157160D01*
X117304820Y-42224960D02*
X117304820Y-40810747D01*
X117304820Y-40810747D02*
X117744000Y-40371567D01*
X117744000Y-39370000D02*
X117744000Y-40157160D01*
D30*
G36*
X186021980Y-71454558D02*
X186021980Y-79444221D01*
X185834748Y-79319117D01*
X185491000Y-79250741D01*
X185147251Y-79319117D01*
X184855835Y-79513835D01*
X184661117Y-79805252D01*
X184610000Y-80062234D01*
X184610000Y-80785767D01*
X184661117Y-81042749D01*
X184855836Y-81334165D01*
X185147252Y-81528883D01*
X185491000Y-81597259D01*
X185834749Y-81528883D01*
X186021980Y-81403779D01*
X186021980Y-82094000D01*
X145972791Y-82094000D01*
X145971497Y-79897326D01*
X147814940Y-79897326D01*
X147814940Y-80396994D01*
X148006155Y-80858627D01*
X148359473Y-81211945D01*
X148821106Y-81403160D01*
X149320774Y-81403160D01*
X149782407Y-81211945D01*
X150135725Y-80858627D01*
X150326940Y-80396994D01*
X150326940Y-79897326D01*
X152314940Y-79897326D01*
X152314940Y-80396994D01*
X152506155Y-80858627D01*
X152859473Y-81211945D01*
X153321106Y-81403160D01*
X153820774Y-81403160D01*
X154282407Y-81211945D01*
X154635725Y-80858627D01*
X154826940Y-80396994D01*
X154826940Y-80062234D01*
X177610000Y-80062234D01*
X177610000Y-80785767D01*
X177661117Y-81042749D01*
X177855836Y-81334165D01*
X178147252Y-81528883D01*
X178491000Y-81597259D01*
X178834749Y-81528883D01*
X179126165Y-81334165D01*
X179320883Y-81042749D01*
X179372000Y-80785767D01*
X179372000Y-80062233D01*
X179320883Y-79805251D01*
X179126165Y-79513835D01*
X178834748Y-79319117D01*
X178491000Y-79250741D01*
X178147251Y-79319117D01*
X177855835Y-79513835D01*
X177661117Y-79805252D01*
X177610000Y-80062234D01*
X154826940Y-80062234D01*
X154826940Y-79897326D01*
X154635725Y-79435693D01*
X154282407Y-79082375D01*
X153820774Y-78891160D01*
X153321106Y-78891160D01*
X152859473Y-79082375D01*
X152506155Y-79435693D01*
X152314940Y-79897326D01*
X150326940Y-79897326D01*
X150135725Y-79435693D01*
X149782407Y-79082375D01*
X149320774Y-78891160D01*
X148821106Y-78891160D01*
X148359473Y-79082375D01*
X148006155Y-79435693D01*
X147814940Y-79897326D01*
X145971497Y-79897326D01*
X145971004Y-79062313D01*
X146035116Y-78740000D01*
X145970623Y-78415771D01*
X145970008Y-77372516D01*
X146379940Y-77372516D01*
X146379940Y-77941804D01*
X146597797Y-78467756D01*
X147000344Y-78870303D01*
X147526296Y-79088160D01*
X148095584Y-79088160D01*
X148621536Y-78870303D01*
X149024083Y-78467756D01*
X149241940Y-77941804D01*
X149241940Y-77741369D01*
X152195580Y-77741369D01*
X152195580Y-78052071D01*
X152314480Y-78339121D01*
X152534179Y-78558820D01*
X152821229Y-78677720D01*
X153131931Y-78677720D01*
X153418981Y-78558820D01*
X153579166Y-78398635D01*
X153607797Y-78467756D01*
X154010344Y-78870303D01*
X154536296Y-79088160D01*
X155105584Y-79088160D01*
X155631536Y-78870303D01*
X156029444Y-78472395D01*
X156289903Y-78732855D01*
X156318134Y-78775106D01*
X156485509Y-78886941D01*
X156633105Y-78916300D01*
X156682939Y-78926213D01*
X156732773Y-78916300D01*
X158006540Y-78916300D01*
X158108071Y-79161419D01*
X158481081Y-79534429D01*
X158968442Y-79736300D01*
X159495958Y-79736300D01*
X159983319Y-79534429D01*
X160324288Y-79193460D01*
X160330543Y-79199715D01*
X160358774Y-79241966D01*
X160439444Y-79295867D01*
X160526148Y-79353801D01*
X160723580Y-79393073D01*
X160773415Y-79383160D01*
X164288166Y-79383160D01*
X164338000Y-79393073D01*
X164387834Y-79383160D01*
X164387835Y-79383160D01*
X164535431Y-79353801D01*
X164702806Y-79241966D01*
X164731039Y-79199712D01*
X165784209Y-78146542D01*
X168016200Y-78146542D01*
X168016200Y-78674058D01*
X168218071Y-79161419D01*
X168591081Y-79534429D01*
X169078442Y-79736300D01*
X169605958Y-79736300D01*
X170093319Y-79534429D01*
X170466329Y-79161419D01*
X170668200Y-78674058D01*
X170668200Y-78146542D01*
X170466329Y-77659181D01*
X170093319Y-77286171D01*
X169605958Y-77084300D01*
X169078442Y-77084300D01*
X168591081Y-77286171D01*
X168218071Y-77659181D01*
X168016200Y-78146542D01*
X165784209Y-78146542D01*
X167148552Y-76782200D01*
X169947548Y-76782200D01*
X170378205Y-77212858D01*
X170406434Y-77255106D01*
X170448682Y-77283335D01*
X170573809Y-77366941D01*
X170650715Y-77382239D01*
X170758071Y-77641419D01*
X171131081Y-78014429D01*
X171618442Y-78216300D01*
X172145958Y-78216300D01*
X172633319Y-78014429D01*
X172923748Y-77724000D01*
X178468230Y-77724000D01*
X178534666Y-78057995D01*
X178723858Y-78341142D01*
X179007005Y-78530334D01*
X179256692Y-78580000D01*
X179725308Y-78580000D01*
X179974995Y-78530334D01*
X180258142Y-78341142D01*
X180447334Y-78057995D01*
X180513770Y-77724000D01*
X183468230Y-77724000D01*
X183534666Y-78057995D01*
X183723858Y-78341142D01*
X184007005Y-78530334D01*
X184256692Y-78580000D01*
X184725308Y-78580000D01*
X184974995Y-78530334D01*
X185258142Y-78341142D01*
X185447334Y-78057995D01*
X185513770Y-77724000D01*
X185447334Y-77390005D01*
X185258142Y-77106858D01*
X184974995Y-76917666D01*
X184725308Y-76868000D01*
X184256692Y-76868000D01*
X184007005Y-76917666D01*
X183723858Y-77106858D01*
X183534666Y-77390005D01*
X183468230Y-77724000D01*
X180513770Y-77724000D01*
X180447334Y-77390005D01*
X180258142Y-77106858D01*
X179974995Y-76917666D01*
X179725308Y-76868000D01*
X179256692Y-76868000D01*
X179007005Y-76917666D01*
X178723858Y-77106858D01*
X178534666Y-77390005D01*
X178468230Y-77724000D01*
X172923748Y-77724000D01*
X173006329Y-77641419D01*
X173208200Y-77154058D01*
X173208200Y-76626542D01*
X173006329Y-76139181D01*
X172633319Y-75766171D01*
X172145958Y-75564300D01*
X171618442Y-75564300D01*
X171131081Y-75766171D01*
X170758071Y-76139181D01*
X170751522Y-76154991D01*
X170550178Y-75953647D01*
X170521946Y-75911394D01*
X170354571Y-75799559D01*
X170206975Y-75770200D01*
X170206974Y-75770200D01*
X170157140Y-75760287D01*
X170107306Y-75770200D01*
X166988794Y-75770200D01*
X166938960Y-75760287D01*
X166889126Y-75770200D01*
X166889125Y-75770200D01*
X166741529Y-75799559D01*
X166574154Y-75911394D01*
X166545923Y-75953645D01*
X164128409Y-78371160D01*
X160933172Y-78371160D01*
X160649758Y-78087747D01*
X160621526Y-78045494D01*
X160476094Y-77948321D01*
X160356329Y-77659181D01*
X159983319Y-77286171D01*
X159495958Y-77084300D01*
X158968442Y-77084300D01*
X158481081Y-77286171D01*
X158108071Y-77659181D01*
X158006540Y-77904300D01*
X156892532Y-77904300D01*
X156835380Y-77847149D01*
X156835380Y-77180432D01*
X156845293Y-77130598D01*
X156821001Y-77008478D01*
X156806021Y-76933167D01*
X156694186Y-76765792D01*
X156651936Y-76737562D01*
X156540916Y-76626542D01*
X160446200Y-76626542D01*
X160446200Y-77154058D01*
X160648071Y-77641419D01*
X161021081Y-78014429D01*
X161508442Y-78216300D01*
X162035958Y-78216300D01*
X162523319Y-78014429D01*
X162896329Y-77641419D01*
X163098200Y-77154058D01*
X163098200Y-76626542D01*
X162896329Y-76139181D01*
X162523319Y-75766171D01*
X162035958Y-75564300D01*
X161508442Y-75564300D01*
X161021081Y-75766171D01*
X160648071Y-76139181D01*
X160446200Y-76626542D01*
X156540916Y-76626542D01*
X155873979Y-75959606D01*
X155845747Y-75917353D01*
X155678372Y-75805518D01*
X155530776Y-75776159D01*
X155530775Y-75776159D01*
X155480941Y-75766246D01*
X155431107Y-75776159D01*
X154075291Y-75776159D01*
X154025456Y-75766246D01*
X153828024Y-75805518D01*
X153773237Y-75842126D01*
X153660650Y-75917353D01*
X153632419Y-75959604D01*
X152654025Y-76937999D01*
X152611775Y-76966229D01*
X152530745Y-77087501D01*
X152499940Y-77133604D01*
X152466354Y-77302445D01*
X152314480Y-77454319D01*
X152195580Y-77741369D01*
X149241940Y-77741369D01*
X149241940Y-77372516D01*
X149024083Y-76846564D01*
X148621536Y-76444017D01*
X148095584Y-76226160D01*
X147526296Y-76226160D01*
X147000344Y-76444017D01*
X146597797Y-76846564D01*
X146379940Y-77372516D01*
X145970008Y-77372516D01*
X145969511Y-76529817D01*
X146035116Y-76200000D01*
X145969121Y-75868223D01*
X145968793Y-75311000D01*
X158947543Y-75311000D01*
X159443182Y-75516300D01*
X160241218Y-75516300D01*
X160736857Y-75311000D01*
X170377543Y-75311000D01*
X170873182Y-75516300D01*
X171671218Y-75516300D01*
X172166857Y-75311000D01*
X174981934Y-75311000D01*
X175030535Y-75301333D01*
X175071737Y-75273803D01*
X175099267Y-75232601D01*
X175108934Y-75184019D01*
X175110323Y-65761394D01*
X180325521Y-65759872D01*
X186021980Y-71454558D01*
X186021980Y-71454558D01*
G37*
X186021980Y-71454558D02*
X186021980Y-79444221D01*
X185834748Y-79319117D01*
X185491000Y-79250741D01*
X185147251Y-79319117D01*
X184855835Y-79513835D01*
X184661117Y-79805252D01*
X184610000Y-80062234D01*
X184610000Y-80785767D01*
X184661117Y-81042749D01*
X184855836Y-81334165D01*
X185147252Y-81528883D01*
X185491000Y-81597259D01*
X185834749Y-81528883D01*
X186021980Y-81403779D01*
X186021980Y-82094000D01*
X145972791Y-82094000D01*
X145971497Y-79897326D01*
X147814940Y-79897326D01*
X147814940Y-80396994D01*
X148006155Y-80858627D01*
X148359473Y-81211945D01*
X148821106Y-81403160D01*
X149320774Y-81403160D01*
X149782407Y-81211945D01*
X150135725Y-80858627D01*
X150326940Y-80396994D01*
X150326940Y-79897326D01*
X152314940Y-79897326D01*
X152314940Y-80396994D01*
X152506155Y-80858627D01*
X152859473Y-81211945D01*
X153321106Y-81403160D01*
X153820774Y-81403160D01*
X154282407Y-81211945D01*
X154635725Y-80858627D01*
X154826940Y-80396994D01*
X154826940Y-80062234D01*
X177610000Y-80062234D01*
X177610000Y-80785767D01*
X177661117Y-81042749D01*
X177855836Y-81334165D01*
X178147252Y-81528883D01*
X178491000Y-81597259D01*
X178834749Y-81528883D01*
X179126165Y-81334165D01*
X179320883Y-81042749D01*
X179372000Y-80785767D01*
X179372000Y-80062233D01*
X179320883Y-79805251D01*
X179126165Y-79513835D01*
X178834748Y-79319117D01*
X178491000Y-79250741D01*
X178147251Y-79319117D01*
X177855835Y-79513835D01*
X177661117Y-79805252D01*
X177610000Y-80062234D01*
X154826940Y-80062234D01*
X154826940Y-79897326D01*
X154635725Y-79435693D01*
X154282407Y-79082375D01*
X153820774Y-78891160D01*
X153321106Y-78891160D01*
X152859473Y-79082375D01*
X152506155Y-79435693D01*
X152314940Y-79897326D01*
X150326940Y-79897326D01*
X150135725Y-79435693D01*
X149782407Y-79082375D01*
X149320774Y-78891160D01*
X148821106Y-78891160D01*
X148359473Y-79082375D01*
X148006155Y-79435693D01*
X147814940Y-79897326D01*
X145971497Y-79897326D01*
X145971004Y-79062313D01*
X146035116Y-78740000D01*
X145970623Y-78415771D01*
X145970008Y-77372516D01*
X146379940Y-77372516D01*
X146379940Y-77941804D01*
X146597797Y-78467756D01*
X147000344Y-78870303D01*
X147526296Y-79088160D01*
X148095584Y-79088160D01*
X148621536Y-78870303D01*
X149024083Y-78467756D01*
X149241940Y-77941804D01*
X149241940Y-77741369D01*
X152195580Y-77741369D01*
X152195580Y-78052071D01*
X152314480Y-78339121D01*
X152534179Y-78558820D01*
X152821229Y-78677720D01*
X153131931Y-78677720D01*
X153418981Y-78558820D01*
X153579166Y-78398635D01*
X153607797Y-78467756D01*
X154010344Y-78870303D01*
X154536296Y-79088160D01*
X155105584Y-79088160D01*
X155631536Y-78870303D01*
X156029444Y-78472395D01*
X156289903Y-78732855D01*
X156318134Y-78775106D01*
X156485509Y-78886941D01*
X156633105Y-78916300D01*
X156682939Y-78926213D01*
X156732773Y-78916300D01*
X158006540Y-78916300D01*
X158108071Y-79161419D01*
X158481081Y-79534429D01*
X158968442Y-79736300D01*
X159495958Y-79736300D01*
X159983319Y-79534429D01*
X160324288Y-79193460D01*
X160330543Y-79199715D01*
X160358774Y-79241966D01*
X160439444Y-79295867D01*
X160526148Y-79353801D01*
X160723580Y-79393073D01*
X160773415Y-79383160D01*
X164288166Y-79383160D01*
X164338000Y-79393073D01*
X164387834Y-79383160D01*
X164387835Y-79383160D01*
X164535431Y-79353801D01*
X164702806Y-79241966D01*
X164731039Y-79199712D01*
X165784209Y-78146542D01*
X168016200Y-78146542D01*
X168016200Y-78674058D01*
X168218071Y-79161419D01*
X168591081Y-79534429D01*
X169078442Y-79736300D01*
X169605958Y-79736300D01*
X170093319Y-79534429D01*
X170466329Y-79161419D01*
X170668200Y-78674058D01*
X170668200Y-78146542D01*
X170466329Y-77659181D01*
X170093319Y-77286171D01*
X169605958Y-77084300D01*
X169078442Y-77084300D01*
X168591081Y-77286171D01*
X168218071Y-77659181D01*
X168016200Y-78146542D01*
X165784209Y-78146542D01*
X167148552Y-76782200D01*
X169947548Y-76782200D01*
X170378205Y-77212858D01*
X170406434Y-77255106D01*
X170448682Y-77283335D01*
X170573809Y-77366941D01*
X170650715Y-77382239D01*
X170758071Y-77641419D01*
X171131081Y-78014429D01*
X171618442Y-78216300D01*
X172145958Y-78216300D01*
X172633319Y-78014429D01*
X172923748Y-77724000D01*
X178468230Y-77724000D01*
X178534666Y-78057995D01*
X178723858Y-78341142D01*
X179007005Y-78530334D01*
X179256692Y-78580000D01*
X179725308Y-78580000D01*
X179974995Y-78530334D01*
X180258142Y-78341142D01*
X180447334Y-78057995D01*
X180513770Y-77724000D01*
X183468230Y-77724000D01*
X183534666Y-78057995D01*
X183723858Y-78341142D01*
X184007005Y-78530334D01*
X184256692Y-78580000D01*
X184725308Y-78580000D01*
X184974995Y-78530334D01*
X185258142Y-78341142D01*
X185447334Y-78057995D01*
X185513770Y-77724000D01*
X185447334Y-77390005D01*
X185258142Y-77106858D01*
X184974995Y-76917666D01*
X184725308Y-76868000D01*
X184256692Y-76868000D01*
X184007005Y-76917666D01*
X183723858Y-77106858D01*
X183534666Y-77390005D01*
X183468230Y-77724000D01*
X180513770Y-77724000D01*
X180447334Y-77390005D01*
X180258142Y-77106858D01*
X179974995Y-76917666D01*
X179725308Y-76868000D01*
X179256692Y-76868000D01*
X179007005Y-76917666D01*
X178723858Y-77106858D01*
X178534666Y-77390005D01*
X178468230Y-77724000D01*
X172923748Y-77724000D01*
X173006329Y-77641419D01*
X173208200Y-77154058D01*
X173208200Y-76626542D01*
X173006329Y-76139181D01*
X172633319Y-75766171D01*
X172145958Y-75564300D01*
X171618442Y-75564300D01*
X171131081Y-75766171D01*
X170758071Y-76139181D01*
X170751522Y-76154991D01*
X170550178Y-75953647D01*
X170521946Y-75911394D01*
X170354571Y-75799559D01*
X170206975Y-75770200D01*
X170206974Y-75770200D01*
X170157140Y-75760287D01*
X170107306Y-75770200D01*
X166988794Y-75770200D01*
X166938960Y-75760287D01*
X166889126Y-75770200D01*
X166889125Y-75770200D01*
X166741529Y-75799559D01*
X166574154Y-75911394D01*
X166545923Y-75953645D01*
X164128409Y-78371160D01*
X160933172Y-78371160D01*
X160649758Y-78087747D01*
X160621526Y-78045494D01*
X160476094Y-77948321D01*
X160356329Y-77659181D01*
X159983319Y-77286171D01*
X159495958Y-77084300D01*
X158968442Y-77084300D01*
X158481081Y-77286171D01*
X158108071Y-77659181D01*
X158006540Y-77904300D01*
X156892532Y-77904300D01*
X156835380Y-77847149D01*
X156835380Y-77180432D01*
X156845293Y-77130598D01*
X156821001Y-77008478D01*
X156806021Y-76933167D01*
X156694186Y-76765792D01*
X156651936Y-76737562D01*
X156540916Y-76626542D01*
X160446200Y-76626542D01*
X160446200Y-77154058D01*
X160648071Y-77641419D01*
X161021081Y-78014429D01*
X161508442Y-78216300D01*
X162035958Y-78216300D01*
X162523319Y-78014429D01*
X162896329Y-77641419D01*
X163098200Y-77154058D01*
X163098200Y-76626542D01*
X162896329Y-76139181D01*
X162523319Y-75766171D01*
X162035958Y-75564300D01*
X161508442Y-75564300D01*
X161021081Y-75766171D01*
X160648071Y-76139181D01*
X160446200Y-76626542D01*
X156540916Y-76626542D01*
X155873979Y-75959606D01*
X155845747Y-75917353D01*
X155678372Y-75805518D01*
X155530776Y-75776159D01*
X155530775Y-75776159D01*
X155480941Y-75766246D01*
X155431107Y-75776159D01*
X154075291Y-75776159D01*
X154025456Y-75766246D01*
X153828024Y-75805518D01*
X153773237Y-75842126D01*
X153660650Y-75917353D01*
X153632419Y-75959604D01*
X152654025Y-76937999D01*
X152611775Y-76966229D01*
X152530745Y-77087501D01*
X152499940Y-77133604D01*
X152466354Y-77302445D01*
X152314480Y-77454319D01*
X152195580Y-77741369D01*
X149241940Y-77741369D01*
X149241940Y-77372516D01*
X149024083Y-76846564D01*
X148621536Y-76444017D01*
X148095584Y-76226160D01*
X147526296Y-76226160D01*
X147000344Y-76444017D01*
X146597797Y-76846564D01*
X146379940Y-77372516D01*
X145970008Y-77372516D01*
X145969511Y-76529817D01*
X146035116Y-76200000D01*
X145969121Y-75868223D01*
X145968793Y-75311000D01*
X158947543Y-75311000D01*
X159443182Y-75516300D01*
X160241218Y-75516300D01*
X160736857Y-75311000D01*
X170377543Y-75311000D01*
X170873182Y-75516300D01*
X171671218Y-75516300D01*
X172166857Y-75311000D01*
X174981934Y-75311000D01*
X175030535Y-75301333D01*
X175071737Y-75273803D01*
X175099267Y-75232601D01*
X175108934Y-75184019D01*
X175110323Y-65761394D01*
X180325521Y-65759872D01*
X186021980Y-71454558D01*
G36*
X186436000Y-31543829D02*
X186365000Y-31900772D01*
X186365000Y-32615228D01*
X186436000Y-32972171D01*
X186436000Y-34671000D01*
X171756606Y-34671000D01*
X169877006Y-32791400D01*
X174446836Y-32791400D01*
X174464252Y-32968223D01*
X174515829Y-33138250D01*
X174599586Y-33294949D01*
X174712304Y-33432296D01*
X174849651Y-33545014D01*
X175006350Y-33628771D01*
X175176377Y-33680348D01*
X175308893Y-33693400D01*
X175697507Y-33693400D01*
X175830023Y-33680348D01*
X176000050Y-33628771D01*
X176156749Y-33545014D01*
X176294096Y-33432296D01*
X176406814Y-33294949D01*
X176490571Y-33138250D01*
X176542148Y-32968223D01*
X176559564Y-32791400D01*
X179446836Y-32791400D01*
X179464252Y-32968223D01*
X179515829Y-33138250D01*
X179599586Y-33294949D01*
X179712304Y-33432296D01*
X179849651Y-33545014D01*
X180006350Y-33628771D01*
X180176377Y-33680348D01*
X180308893Y-33693400D01*
X180697507Y-33693400D01*
X180830023Y-33680348D01*
X181000050Y-33628771D01*
X181156749Y-33545014D01*
X181294096Y-33432296D01*
X181406814Y-33294949D01*
X181490571Y-33138250D01*
X181542148Y-32968223D01*
X181559564Y-32791400D01*
X181542148Y-32614577D01*
X181490571Y-32444550D01*
X181406814Y-32287851D01*
X181294096Y-32150504D01*
X181156749Y-32037786D01*
X181000050Y-31954029D01*
X180830023Y-31902452D01*
X180697507Y-31889400D01*
X180308893Y-31889400D01*
X180176377Y-31902452D01*
X180006350Y-31954029D01*
X179849651Y-32037786D01*
X179712304Y-32150504D01*
X179599586Y-32287851D01*
X179515829Y-32444550D01*
X179464252Y-32614577D01*
X179446836Y-32791400D01*
X176559564Y-32791400D01*
X176542148Y-32614577D01*
X176490571Y-32444550D01*
X176406814Y-32287851D01*
X176294096Y-32150504D01*
X176156749Y-32037786D01*
X176000050Y-31954029D01*
X175830023Y-31902452D01*
X175697507Y-31889400D01*
X175308893Y-31889400D01*
X175176377Y-31902452D01*
X175006350Y-31954029D01*
X174849651Y-32037786D01*
X174712304Y-32150504D01*
X174599586Y-32287851D01*
X174515829Y-32444550D01*
X174464252Y-32614577D01*
X174446836Y-32791400D01*
X169877006Y-32791400D01*
X169545000Y-32459394D01*
X169545000Y-29770862D01*
X173576200Y-29770862D01*
X173576200Y-30411937D01*
X173589613Y-30548123D01*
X173642620Y-30722863D01*
X173728699Y-30883904D01*
X173844541Y-31025059D01*
X173985695Y-31140901D01*
X174146736Y-31226980D01*
X174321476Y-31279987D01*
X174503200Y-31297885D01*
X174684923Y-31279987D01*
X174859663Y-31226980D01*
X175020704Y-31140901D01*
X175161859Y-31025059D01*
X175277701Y-30883905D01*
X175363780Y-30722864D01*
X175416787Y-30548124D01*
X175430200Y-30411938D01*
X175430200Y-29770862D01*
X180576200Y-29770862D01*
X180576200Y-30411937D01*
X180589613Y-30548123D01*
X180642620Y-30722863D01*
X180728699Y-30883904D01*
X180844541Y-31025059D01*
X180985695Y-31140901D01*
X181146736Y-31226980D01*
X181321476Y-31279987D01*
X181503200Y-31297885D01*
X181684923Y-31279987D01*
X181859663Y-31226980D01*
X182020704Y-31140901D01*
X182161859Y-31025059D01*
X182277701Y-30883905D01*
X182363780Y-30722864D01*
X182416787Y-30548124D01*
X182430200Y-30411938D01*
X182430200Y-29770862D01*
X182416787Y-29634676D01*
X182363780Y-29459936D01*
X182277701Y-29298895D01*
X182161859Y-29157741D01*
X182020705Y-29041899D01*
X181859664Y-28955820D01*
X181684924Y-28902813D01*
X181503200Y-28884915D01*
X181321477Y-28902813D01*
X181146737Y-28955820D01*
X180985696Y-29041899D01*
X180844542Y-29157741D01*
X180728700Y-29298895D01*
X180642620Y-29459936D01*
X180589613Y-29634676D01*
X180576200Y-29770862D01*
X175430200Y-29770862D01*
X175416787Y-29634676D01*
X175363780Y-29459936D01*
X175277701Y-29298895D01*
X175161859Y-29157741D01*
X175020705Y-29041899D01*
X174859664Y-28955820D01*
X174684924Y-28902813D01*
X174503200Y-28884915D01*
X174321477Y-28902813D01*
X174146737Y-28955820D01*
X173985696Y-29041899D01*
X173844542Y-29157741D01*
X173728700Y-29298895D01*
X173642620Y-29459936D01*
X173589613Y-29634676D01*
X173576200Y-29770862D01*
X169545000Y-29770862D01*
X169545000Y-28442000D01*
X186436000Y-28442000D01*
X186436000Y-31543829D01*
X186436000Y-31543829D01*
G37*
X186436000Y-31543829D02*
X186365000Y-31900772D01*
X186365000Y-32615228D01*
X186436000Y-32972171D01*
X186436000Y-34671000D01*
X171756606Y-34671000D01*
X169877006Y-32791400D01*
X174446836Y-32791400D01*
X174464252Y-32968223D01*
X174515829Y-33138250D01*
X174599586Y-33294949D01*
X174712304Y-33432296D01*
X174849651Y-33545014D01*
X175006350Y-33628771D01*
X175176377Y-33680348D01*
X175308893Y-33693400D01*
X175697507Y-33693400D01*
X175830023Y-33680348D01*
X176000050Y-33628771D01*
X176156749Y-33545014D01*
X176294096Y-33432296D01*
X176406814Y-33294949D01*
X176490571Y-33138250D01*
X176542148Y-32968223D01*
X176559564Y-32791400D01*
X179446836Y-32791400D01*
X179464252Y-32968223D01*
X179515829Y-33138250D01*
X179599586Y-33294949D01*
X179712304Y-33432296D01*
X179849651Y-33545014D01*
X180006350Y-33628771D01*
X180176377Y-33680348D01*
X180308893Y-33693400D01*
X180697507Y-33693400D01*
X180830023Y-33680348D01*
X181000050Y-33628771D01*
X181156749Y-33545014D01*
X181294096Y-33432296D01*
X181406814Y-33294949D01*
X181490571Y-33138250D01*
X181542148Y-32968223D01*
X181559564Y-32791400D01*
X181542148Y-32614577D01*
X181490571Y-32444550D01*
X181406814Y-32287851D01*
X181294096Y-32150504D01*
X181156749Y-32037786D01*
X181000050Y-31954029D01*
X180830023Y-31902452D01*
X180697507Y-31889400D01*
X180308893Y-31889400D01*
X180176377Y-31902452D01*
X180006350Y-31954029D01*
X179849651Y-32037786D01*
X179712304Y-32150504D01*
X179599586Y-32287851D01*
X179515829Y-32444550D01*
X179464252Y-32614577D01*
X179446836Y-32791400D01*
X176559564Y-32791400D01*
X176542148Y-32614577D01*
X176490571Y-32444550D01*
X176406814Y-32287851D01*
X176294096Y-32150504D01*
X176156749Y-32037786D01*
X176000050Y-31954029D01*
X175830023Y-31902452D01*
X175697507Y-31889400D01*
X175308893Y-31889400D01*
X175176377Y-31902452D01*
X175006350Y-31954029D01*
X174849651Y-32037786D01*
X174712304Y-32150504D01*
X174599586Y-32287851D01*
X174515829Y-32444550D01*
X174464252Y-32614577D01*
X174446836Y-32791400D01*
X169877006Y-32791400D01*
X169545000Y-32459394D01*
X169545000Y-29770862D01*
X173576200Y-29770862D01*
X173576200Y-30411937D01*
X173589613Y-30548123D01*
X173642620Y-30722863D01*
X173728699Y-30883904D01*
X173844541Y-31025059D01*
X173985695Y-31140901D01*
X174146736Y-31226980D01*
X174321476Y-31279987D01*
X174503200Y-31297885D01*
X174684923Y-31279987D01*
X174859663Y-31226980D01*
X175020704Y-31140901D01*
X175161859Y-31025059D01*
X175277701Y-30883905D01*
X175363780Y-30722864D01*
X175416787Y-30548124D01*
X175430200Y-30411938D01*
X175430200Y-29770862D01*
X180576200Y-29770862D01*
X180576200Y-30411937D01*
X180589613Y-30548123D01*
X180642620Y-30722863D01*
X180728699Y-30883904D01*
X180844541Y-31025059D01*
X180985695Y-31140901D01*
X181146736Y-31226980D01*
X181321476Y-31279987D01*
X181503200Y-31297885D01*
X181684923Y-31279987D01*
X181859663Y-31226980D01*
X182020704Y-31140901D01*
X182161859Y-31025059D01*
X182277701Y-30883905D01*
X182363780Y-30722864D01*
X182416787Y-30548124D01*
X182430200Y-30411938D01*
X182430200Y-29770862D01*
X182416787Y-29634676D01*
X182363780Y-29459936D01*
X182277701Y-29298895D01*
X182161859Y-29157741D01*
X182020705Y-29041899D01*
X181859664Y-28955820D01*
X181684924Y-28902813D01*
X181503200Y-28884915D01*
X181321477Y-28902813D01*
X181146737Y-28955820D01*
X180985696Y-29041899D01*
X180844542Y-29157741D01*
X180728700Y-29298895D01*
X180642620Y-29459936D01*
X180589613Y-29634676D01*
X180576200Y-29770862D01*
X175430200Y-29770862D01*
X175416787Y-29634676D01*
X175363780Y-29459936D01*
X175277701Y-29298895D01*
X175161859Y-29157741D01*
X175020705Y-29041899D01*
X174859664Y-28955820D01*
X174684924Y-28902813D01*
X174503200Y-28884915D01*
X174321477Y-28902813D01*
X174146737Y-28955820D01*
X173985696Y-29041899D01*
X173844542Y-29157741D01*
X173728700Y-29298895D01*
X173642620Y-29459936D01*
X173589613Y-29634676D01*
X173576200Y-29770862D01*
X169545000Y-29770862D01*
X169545000Y-28442000D01*
X186436000Y-28442000D01*
X186436000Y-31543829D01*
M02*
