%FSLAX45Y45*%
G04 Gerber Fmt 4.5, Leading zero omitted, Abs format (unit mm)*
G04 Created by KiCad (PCBNEW (5.1.2)-1) date 2019-05-25 20:01:56*
%MOMM*%
%LPD*%
G04 APERTURE LIST*
%ADD10C,0.150000*%
%ADD11C,0.200000*%
%ADD12C,0.300000*%
G04 APERTURE END LIST*
D10*
X6299200Y-8255000D02*
G75*
G02X5867400Y-7823200I0J431800D01*
G01*
X5867400Y-3225800D02*
G75*
G02X6299200Y-2794000I431800J0D01*
G01*
X18999200Y-2794000D02*
G75*
G02X19431000Y-3225800I0J-431800D01*
G01*
X19431000Y-7823200D02*
G75*
G02X18999200Y-8255000I-431800J0D01*
G01*
X6299200Y-2794000D02*
X18999200Y-2794000D01*
X5867400Y-3225800D02*
X5867400Y-7823200D01*
X6299200Y-8255000D02*
X18999200Y-8255000D01*
X19431000Y-3225800D02*
X19431000Y-7823200D01*
D11*
X15821720Y-7188530D02*
X16146720Y-7513530D01*
X16146720Y-7188530D02*
X15821720Y-7513530D01*
X16964720Y-7188530D02*
X17289720Y-7513530D01*
X17289720Y-7188530D02*
X16964720Y-7513530D01*
D12*
X6146328Y-8728214D02*
X6146328Y-8428214D01*
X6217757Y-8428214D01*
X6260614Y-8442500D01*
X6289186Y-8471072D01*
X6303471Y-8499643D01*
X6317757Y-8556786D01*
X6317757Y-8599643D01*
X6303471Y-8656786D01*
X6289186Y-8685357D01*
X6260614Y-8713929D01*
X6217757Y-8728214D01*
X6146328Y-8728214D01*
X6446328Y-8728214D02*
X6446328Y-8528214D01*
X6446328Y-8585357D02*
X6460614Y-8556786D01*
X6474900Y-8542500D01*
X6503471Y-8528214D01*
X6532043Y-8528214D01*
X6632043Y-8728214D02*
X6632043Y-8528214D01*
X6632043Y-8428214D02*
X6617757Y-8442500D01*
X6632043Y-8456786D01*
X6646328Y-8442500D01*
X6632043Y-8428214D01*
X6632043Y-8456786D01*
X6817757Y-8728214D02*
X6789186Y-8713929D01*
X6774900Y-8685357D01*
X6774900Y-8428214D01*
X6974900Y-8728214D02*
X6946328Y-8713929D01*
X6932043Y-8685357D01*
X6932043Y-8428214D01*
X7317757Y-8728214D02*
X7317757Y-8428214D01*
X7417757Y-8642500D01*
X7517757Y-8428214D01*
X7517757Y-8728214D01*
X7789186Y-8728214D02*
X7789186Y-8571072D01*
X7774900Y-8542500D01*
X7746328Y-8528214D01*
X7689186Y-8528214D01*
X7660614Y-8542500D01*
X7789186Y-8713929D02*
X7760614Y-8728214D01*
X7689186Y-8728214D01*
X7660614Y-8713929D01*
X7646328Y-8685357D01*
X7646328Y-8656786D01*
X7660614Y-8628214D01*
X7689186Y-8613929D01*
X7760614Y-8613929D01*
X7789186Y-8599643D01*
X7932043Y-8528214D02*
X7932043Y-8828214D01*
X7932043Y-8542500D02*
X7960614Y-8528214D01*
X8017757Y-8528214D01*
X8046328Y-8542500D01*
X8060614Y-8556786D01*
X8074900Y-8585357D01*
X8074900Y-8671072D01*
X8060614Y-8699643D01*
X8046328Y-8713929D01*
X8017757Y-8728214D01*
X7960614Y-8728214D01*
X7932043Y-8713929D01*
X8203471Y-8699643D02*
X8217757Y-8713929D01*
X8203471Y-8728214D01*
X8189186Y-8713929D01*
X8203471Y-8699643D01*
X8203471Y-8728214D01*
X8203471Y-8542500D02*
X8217757Y-8556786D01*
X8203471Y-8571072D01*
X8189186Y-8556786D01*
X8203471Y-8542500D01*
X8203471Y-8571072D01*
X5534900Y-9060000D02*
X5859900Y-9385000D01*
X5859900Y-9060000D02*
X5534900Y-9385000D01*
X6117757Y-9058214D02*
X6303471Y-9058214D01*
X6203471Y-9172500D01*
X6246328Y-9172500D01*
X6274900Y-9186786D01*
X6289186Y-9201072D01*
X6303471Y-9229643D01*
X6303471Y-9301072D01*
X6289186Y-9329643D01*
X6274900Y-9343929D01*
X6246328Y-9358214D01*
X6160614Y-9358214D01*
X6132043Y-9343929D01*
X6117757Y-9329643D01*
X6432043Y-9329643D02*
X6446328Y-9343929D01*
X6432043Y-9358214D01*
X6417757Y-9343929D01*
X6432043Y-9329643D01*
X6432043Y-9358214D01*
X6560614Y-9086786D02*
X6574900Y-9072500D01*
X6603471Y-9058214D01*
X6674900Y-9058214D01*
X6703471Y-9072500D01*
X6717757Y-9086786D01*
X6732043Y-9115357D01*
X6732043Y-9143929D01*
X6717757Y-9186786D01*
X6546328Y-9358214D01*
X6732043Y-9358214D01*
X7003471Y-9058214D02*
X6860614Y-9058214D01*
X6846328Y-9201072D01*
X6860614Y-9186786D01*
X6889186Y-9172500D01*
X6960614Y-9172500D01*
X6989186Y-9186786D01*
X7003471Y-9201072D01*
X7017757Y-9229643D01*
X7017757Y-9301072D01*
X7003471Y-9329643D01*
X6989186Y-9343929D01*
X6960614Y-9358214D01*
X6889186Y-9358214D01*
X6860614Y-9343929D01*
X6846328Y-9329643D01*
X7146328Y-9358214D02*
X7146328Y-9158214D01*
X7146328Y-9186786D02*
X7160614Y-9172500D01*
X7189186Y-9158214D01*
X7232043Y-9158214D01*
X7260614Y-9172500D01*
X7274900Y-9201072D01*
X7274900Y-9358214D01*
X7274900Y-9201072D02*
X7289186Y-9172500D01*
X7317757Y-9158214D01*
X7360614Y-9158214D01*
X7389186Y-9172500D01*
X7403471Y-9201072D01*
X7403471Y-9358214D01*
X7546328Y-9358214D02*
X7546328Y-9158214D01*
X7546328Y-9186786D02*
X7560614Y-9172500D01*
X7589186Y-9158214D01*
X7632043Y-9158214D01*
X7660614Y-9172500D01*
X7674900Y-9201072D01*
X7674900Y-9358214D01*
X7674900Y-9201072D02*
X7689186Y-9172500D01*
X7717757Y-9158214D01*
X7760614Y-9158214D01*
X7789186Y-9172500D01*
X7803471Y-9201072D01*
X7803471Y-9358214D01*
X8389186Y-9043929D02*
X8132043Y-9429643D01*
X8774900Y-9058214D02*
X8803471Y-9058214D01*
X8832043Y-9072500D01*
X8846328Y-9086786D01*
X8860614Y-9115357D01*
X8874900Y-9172500D01*
X8874900Y-9243929D01*
X8860614Y-9301072D01*
X8846328Y-9329643D01*
X8832043Y-9343929D01*
X8803471Y-9358214D01*
X8774900Y-9358214D01*
X8746328Y-9343929D01*
X8732043Y-9329643D01*
X8717757Y-9301072D01*
X8703471Y-9243929D01*
X8703471Y-9172500D01*
X8717757Y-9115357D01*
X8732043Y-9086786D01*
X8746328Y-9072500D01*
X8774900Y-9058214D01*
X9003471Y-9329643D02*
X9017757Y-9343929D01*
X9003471Y-9358214D01*
X8989186Y-9343929D01*
X9003471Y-9329643D01*
X9003471Y-9358214D01*
X9303471Y-9358214D02*
X9132043Y-9358214D01*
X9217757Y-9358214D02*
X9217757Y-9058214D01*
X9189186Y-9101072D01*
X9160614Y-9129643D01*
X9132043Y-9143929D01*
X9417757Y-9086786D02*
X9432043Y-9072500D01*
X9460614Y-9058214D01*
X9532043Y-9058214D01*
X9560614Y-9072500D01*
X9574900Y-9086786D01*
X9589186Y-9115357D01*
X9589186Y-9143929D01*
X9574900Y-9186786D01*
X9403471Y-9358214D01*
X9589186Y-9358214D01*
X9760614Y-9186786D02*
X9732043Y-9172500D01*
X9717757Y-9158214D01*
X9703471Y-9129643D01*
X9703471Y-9115357D01*
X9717757Y-9086786D01*
X9732043Y-9072500D01*
X9760614Y-9058214D01*
X9817757Y-9058214D01*
X9846328Y-9072500D01*
X9860614Y-9086786D01*
X9874900Y-9115357D01*
X9874900Y-9129643D01*
X9860614Y-9158214D01*
X9846328Y-9172500D01*
X9817757Y-9186786D01*
X9760614Y-9186786D01*
X9732043Y-9201072D01*
X9717757Y-9215357D01*
X9703471Y-9243929D01*
X9703471Y-9301072D01*
X9717757Y-9329643D01*
X9732043Y-9343929D01*
X9760614Y-9358214D01*
X9817757Y-9358214D01*
X9846328Y-9343929D01*
X9860614Y-9329643D01*
X9874900Y-9301072D01*
X9874900Y-9243929D01*
X9860614Y-9215357D01*
X9846328Y-9201072D01*
X9817757Y-9186786D01*
X9989186Y-9058214D02*
X9989186Y-9115357D01*
X10103471Y-9058214D02*
X10103471Y-9115357D01*
X10546328Y-9472500D02*
X10532043Y-9458214D01*
X10503471Y-9415357D01*
X10489186Y-9386786D01*
X10474900Y-9343929D01*
X10460614Y-9272500D01*
X10460614Y-9215357D01*
X10474900Y-9143929D01*
X10489186Y-9101072D01*
X10503471Y-9072500D01*
X10532043Y-9029643D01*
X10546328Y-9015357D01*
X10646328Y-9086786D02*
X10660614Y-9072500D01*
X10689186Y-9058214D01*
X10760614Y-9058214D01*
X10789186Y-9072500D01*
X10803471Y-9086786D01*
X10817757Y-9115357D01*
X10817757Y-9143929D01*
X10803471Y-9186786D01*
X10632043Y-9358214D01*
X10817757Y-9358214D01*
X11174900Y-9358214D02*
X11174900Y-9058214D01*
X11303471Y-9358214D02*
X11303471Y-9201072D01*
X11289186Y-9172500D01*
X11260614Y-9158214D01*
X11217757Y-9158214D01*
X11189186Y-9172500D01*
X11174900Y-9186786D01*
X11489186Y-9358214D02*
X11460614Y-9343929D01*
X11446328Y-9329643D01*
X11432043Y-9301072D01*
X11432043Y-9215357D01*
X11446328Y-9186786D01*
X11460614Y-9172500D01*
X11489186Y-9158214D01*
X11532043Y-9158214D01*
X11560614Y-9172500D01*
X11574900Y-9186786D01*
X11589186Y-9215357D01*
X11589186Y-9301072D01*
X11574900Y-9329643D01*
X11560614Y-9343929D01*
X11532043Y-9358214D01*
X11489186Y-9358214D01*
X11760614Y-9358214D02*
X11732043Y-9343929D01*
X11717757Y-9315357D01*
X11717757Y-9058214D01*
X11989186Y-9343929D02*
X11960614Y-9358214D01*
X11903471Y-9358214D01*
X11874900Y-9343929D01*
X11860614Y-9315357D01*
X11860614Y-9201072D01*
X11874900Y-9172500D01*
X11903471Y-9158214D01*
X11960614Y-9158214D01*
X11989186Y-9172500D01*
X12003471Y-9201072D01*
X12003471Y-9229643D01*
X11860614Y-9258214D01*
X12117757Y-9343929D02*
X12146328Y-9358214D01*
X12203471Y-9358214D01*
X12232043Y-9343929D01*
X12246328Y-9315357D01*
X12246328Y-9301072D01*
X12232043Y-9272500D01*
X12203471Y-9258214D01*
X12160614Y-9258214D01*
X12132043Y-9243929D01*
X12117757Y-9215357D01*
X12117757Y-9201072D01*
X12132043Y-9172500D01*
X12160614Y-9158214D01*
X12203471Y-9158214D01*
X12232043Y-9172500D01*
X12346328Y-9472500D02*
X12360614Y-9458214D01*
X12389186Y-9415357D01*
X12403471Y-9386786D01*
X12417757Y-9343929D01*
X12432043Y-9272500D01*
X12432043Y-9215357D01*
X12417757Y-9143929D01*
X12403471Y-9101072D01*
X12389186Y-9072500D01*
X12360614Y-9029643D01*
X12346328Y-9015357D01*
X12889186Y-9472500D02*
X12874900Y-9458214D01*
X12846328Y-9415357D01*
X12832043Y-9386786D01*
X12817757Y-9343929D01*
X12803471Y-9272500D01*
X12803471Y-9215357D01*
X12817757Y-9143929D01*
X12832043Y-9101072D01*
X12846328Y-9072500D01*
X12874900Y-9029643D01*
X12889186Y-9015357D01*
X13003471Y-9158214D02*
X13003471Y-9358214D01*
X13003471Y-9186786D02*
X13017757Y-9172500D01*
X13046328Y-9158214D01*
X13089186Y-9158214D01*
X13117757Y-9172500D01*
X13132043Y-9201072D01*
X13132043Y-9358214D01*
X13317757Y-9358214D02*
X13289186Y-9343929D01*
X13274900Y-9329643D01*
X13260614Y-9301072D01*
X13260614Y-9215357D01*
X13274900Y-9186786D01*
X13289186Y-9172500D01*
X13317757Y-9158214D01*
X13360614Y-9158214D01*
X13389186Y-9172500D01*
X13403471Y-9186786D01*
X13417757Y-9215357D01*
X13417757Y-9301072D01*
X13403471Y-9329643D01*
X13389186Y-9343929D01*
X13360614Y-9358214D01*
X13317757Y-9358214D01*
X13503471Y-9158214D02*
X13617757Y-9158214D01*
X13546328Y-9058214D02*
X13546328Y-9315357D01*
X13560614Y-9343929D01*
X13589186Y-9358214D01*
X13617757Y-9358214D01*
X13946328Y-9158214D02*
X13946328Y-9458214D01*
X13946328Y-9172500D02*
X13974900Y-9158214D01*
X14032043Y-9158214D01*
X14060614Y-9172500D01*
X14074900Y-9186786D01*
X14089186Y-9215357D01*
X14089186Y-9301072D01*
X14074900Y-9329643D01*
X14060614Y-9343929D01*
X14032043Y-9358214D01*
X13974900Y-9358214D01*
X13946328Y-9343929D01*
X14260614Y-9358214D02*
X14232043Y-9343929D01*
X14217757Y-9315357D01*
X14217757Y-9058214D01*
X14503471Y-9358214D02*
X14503471Y-9201072D01*
X14489186Y-9172500D01*
X14460614Y-9158214D01*
X14403471Y-9158214D01*
X14374900Y-9172500D01*
X14503471Y-9343929D02*
X14474900Y-9358214D01*
X14403471Y-9358214D01*
X14374900Y-9343929D01*
X14360614Y-9315357D01*
X14360614Y-9286786D01*
X14374900Y-9258214D01*
X14403471Y-9243929D01*
X14474900Y-9243929D01*
X14503471Y-9229643D01*
X14603471Y-9158214D02*
X14717757Y-9158214D01*
X14646328Y-9058214D02*
X14646328Y-9315357D01*
X14660614Y-9343929D01*
X14689186Y-9358214D01*
X14717757Y-9358214D01*
X14932043Y-9343929D02*
X14903471Y-9358214D01*
X14846328Y-9358214D01*
X14817757Y-9343929D01*
X14803471Y-9315357D01*
X14803471Y-9201072D01*
X14817757Y-9172500D01*
X14846328Y-9158214D01*
X14903471Y-9158214D01*
X14932043Y-9172500D01*
X14946328Y-9201072D01*
X14946328Y-9229643D01*
X14803471Y-9258214D01*
X15203471Y-9358214D02*
X15203471Y-9058214D01*
X15203471Y-9343929D02*
X15174900Y-9358214D01*
X15117757Y-9358214D01*
X15089186Y-9343929D01*
X15074900Y-9329643D01*
X15060614Y-9301072D01*
X15060614Y-9215357D01*
X15074900Y-9186786D01*
X15089186Y-9172500D01*
X15117757Y-9158214D01*
X15174900Y-9158214D01*
X15203471Y-9172500D01*
X15317757Y-9472500D02*
X15332043Y-9458214D01*
X15360614Y-9415357D01*
X15374900Y-9386786D01*
X15389186Y-9343929D01*
X15403471Y-9272500D01*
X15403471Y-9215357D01*
X15389186Y-9143929D01*
X15374900Y-9101072D01*
X15360614Y-9072500D01*
X15332043Y-9029643D01*
X15317757Y-9015357D01*
M02*
