%TF.GenerationSoftware,KiCad,Pcbnew,5.1.6-c6e7f7d~87~ubuntu20.04.1*%
%TF.CreationDate,2020-09-03T14:23:15-03:00*%
%TF.ProjectId,dragonmanh7,64726167-6f6e-46d6-916e-68372e6b6963,rev?*%
%TF.SameCoordinates,Original*%
%TF.FileFunction,Soldermask,Bot*%
%TF.FilePolarity,Negative*%
%FSLAX46Y46*%
G04 Gerber Fmt 4.6, Leading zero omitted, Abs format (unit mm)*
G04 Created by KiCad (PCBNEW 5.1.6-c6e7f7d~87~ubuntu20.04.1) date 2020-09-03 14:23:15*
%MOMM*%
%LPD*%
G01*
G04 APERTURE LIST*
%TA.AperFunction,Profile*%
%ADD10C,0.150000*%
%TD*%
%ADD11C,0.150000*%
G04 APERTURE END LIST*
D10*
X62992000Y-82550000D02*
G75*
G02*
X58674000Y-78232000I0J4318000D01*
G01*
X58674000Y-32258000D02*
G75*
G02*
X62992000Y-27940000I4318000J0D01*
G01*
X189992000Y-27940000D02*
G75*
G02*
X194310000Y-32258000I0J-4318000D01*
G01*
X194310000Y-78232000D02*
G75*
G02*
X189992000Y-82550000I-4318000J0D01*
G01*
X62992000Y-27940000D02*
X189992000Y-27940000D01*
X58674000Y-32258000D02*
X58674000Y-78232000D01*
X62992000Y-82550000D02*
X189992000Y-82550000D01*
X194310000Y-32258000D02*
X194310000Y-78232000D01*
D11*
G36*
X190626239Y-75043467D02*
G01*
X190940282Y-75105934D01*
X191531926Y-75351001D01*
X191821523Y-75544504D01*
X192027940Y-75682427D01*
X192064392Y-75706784D01*
X192517216Y-76159608D01*
X192872999Y-76692074D01*
X193118066Y-77283718D01*
X193126447Y-77325851D01*
X193243000Y-77911803D01*
X193243000Y-78552197D01*
X193212468Y-78705689D01*
X193118066Y-79180282D01*
X192872999Y-79771926D01*
X192517216Y-80304392D01*
X192064392Y-80757216D01*
X191531926Y-81112999D01*
X190940282Y-81358066D01*
X190626239Y-81420533D01*
X190312197Y-81483000D01*
X189671803Y-81483000D01*
X189357761Y-81420533D01*
X189043718Y-81358066D01*
X188452074Y-81112999D01*
X187919608Y-80757216D01*
X187466784Y-80304392D01*
X187111001Y-79771926D01*
X186865934Y-79180282D01*
X186771532Y-78705689D01*
X186741000Y-78552197D01*
X186741000Y-77911803D01*
X186857553Y-77325851D01*
X186865934Y-77283718D01*
X187111001Y-76692074D01*
X187466784Y-76159608D01*
X187919608Y-75706784D01*
X187956061Y-75682427D01*
X188162477Y-75544504D01*
X188452074Y-75351001D01*
X189043718Y-75105934D01*
X189357761Y-75043467D01*
X189671803Y-74981000D01*
X190312197Y-74981000D01*
X190626239Y-75043467D01*
G37*
G36*
X63626239Y-75043467D02*
G01*
X63940282Y-75105934D01*
X64531926Y-75351001D01*
X64821523Y-75544504D01*
X65027940Y-75682427D01*
X65064392Y-75706784D01*
X65517216Y-76159608D01*
X65872999Y-76692074D01*
X66118066Y-77283718D01*
X66126447Y-77325851D01*
X66243000Y-77911803D01*
X66243000Y-78552197D01*
X66212468Y-78705689D01*
X66118066Y-79180282D01*
X65872999Y-79771926D01*
X65517216Y-80304392D01*
X65064392Y-80757216D01*
X64531926Y-81112999D01*
X63940282Y-81358066D01*
X63626239Y-81420533D01*
X63312197Y-81483000D01*
X62671803Y-81483000D01*
X62357761Y-81420533D01*
X62043718Y-81358066D01*
X61452074Y-81112999D01*
X60919608Y-80757216D01*
X60466784Y-80304392D01*
X60111001Y-79771926D01*
X59865934Y-79180282D01*
X59771532Y-78705689D01*
X59741000Y-78552197D01*
X59741000Y-77911803D01*
X59857553Y-77325851D01*
X59865934Y-77283718D01*
X60111001Y-76692074D01*
X60466784Y-76159608D01*
X60919608Y-75706784D01*
X60956061Y-75682427D01*
X61162477Y-75544504D01*
X61452074Y-75351001D01*
X62043718Y-75105934D01*
X62357761Y-75043467D01*
X62671803Y-74981000D01*
X63312197Y-74981000D01*
X63626239Y-75043467D01*
G37*
G36*
X152466904Y-79246585D02*
G01*
X152635426Y-79316389D01*
X152787091Y-79417728D01*
X152916072Y-79546709D01*
X153017411Y-79698374D01*
X153087215Y-79866896D01*
X153122800Y-80045797D01*
X153122800Y-80228203D01*
X153087215Y-80407104D01*
X153017411Y-80575626D01*
X152916072Y-80727291D01*
X152787091Y-80856272D01*
X152635426Y-80957611D01*
X152466904Y-81027415D01*
X152288003Y-81063000D01*
X152105597Y-81063000D01*
X151926696Y-81027415D01*
X151758174Y-80957611D01*
X151606509Y-80856272D01*
X151477528Y-80727291D01*
X151376189Y-80575626D01*
X151306385Y-80407104D01*
X151270800Y-80228203D01*
X151270800Y-80045797D01*
X151306385Y-79866896D01*
X151376189Y-79698374D01*
X151477528Y-79546709D01*
X151606509Y-79417728D01*
X151758174Y-79316389D01*
X151926696Y-79246585D01*
X152105597Y-79211000D01*
X152288003Y-79211000D01*
X152466904Y-79246585D01*
G37*
G36*
X147966904Y-79246585D02*
G01*
X148135426Y-79316389D01*
X148287091Y-79417728D01*
X148416072Y-79546709D01*
X148517411Y-79698374D01*
X148587215Y-79866896D01*
X148622800Y-80045797D01*
X148622800Y-80228203D01*
X148587215Y-80407104D01*
X148517411Y-80575626D01*
X148416072Y-80727291D01*
X148287091Y-80856272D01*
X148135426Y-80957611D01*
X147966904Y-81027415D01*
X147788003Y-81063000D01*
X147605597Y-81063000D01*
X147426696Y-81027415D01*
X147258174Y-80957611D01*
X147106509Y-80856272D01*
X146977528Y-80727291D01*
X146876189Y-80575626D01*
X146806385Y-80407104D01*
X146770800Y-80228203D01*
X146770800Y-80045797D01*
X146806385Y-79866896D01*
X146876189Y-79698374D01*
X146977528Y-79546709D01*
X147106509Y-79417728D01*
X147258174Y-79316389D01*
X147426696Y-79246585D01*
X147605597Y-79211000D01*
X147788003Y-79211000D01*
X147966904Y-79246585D01*
G37*
G36*
X101552604Y-79246585D02*
G01*
X101721126Y-79316389D01*
X101872791Y-79417728D01*
X102001772Y-79546709D01*
X102103111Y-79698374D01*
X102172915Y-79866896D01*
X102208500Y-80045797D01*
X102208500Y-80228203D01*
X102172915Y-80407104D01*
X102103111Y-80575626D01*
X102001772Y-80727291D01*
X101872791Y-80856272D01*
X101721126Y-80957611D01*
X101552604Y-81027415D01*
X101373703Y-81063000D01*
X101191297Y-81063000D01*
X101012396Y-81027415D01*
X100843874Y-80957611D01*
X100692209Y-80856272D01*
X100563228Y-80727291D01*
X100461889Y-80575626D01*
X100392085Y-80407104D01*
X100356500Y-80228203D01*
X100356500Y-80045797D01*
X100392085Y-79866896D01*
X100461889Y-79698374D01*
X100563228Y-79546709D01*
X100692209Y-79417728D01*
X100843874Y-79316389D01*
X101012396Y-79246585D01*
X101191297Y-79211000D01*
X101373703Y-79211000D01*
X101552604Y-79246585D01*
G37*
G36*
X97052604Y-79246585D02*
G01*
X97221126Y-79316389D01*
X97372791Y-79417728D01*
X97501772Y-79546709D01*
X97603111Y-79698374D01*
X97672915Y-79866896D01*
X97708500Y-80045797D01*
X97708500Y-80228203D01*
X97672915Y-80407104D01*
X97603111Y-80575626D01*
X97501772Y-80727291D01*
X97372791Y-80856272D01*
X97221126Y-80957611D01*
X97052604Y-81027415D01*
X96873703Y-81063000D01*
X96691297Y-81063000D01*
X96512396Y-81027415D01*
X96343874Y-80957611D01*
X96192209Y-80856272D01*
X96063228Y-80727291D01*
X95961889Y-80575626D01*
X95892085Y-80407104D01*
X95856500Y-80228203D01*
X95856500Y-80045797D01*
X95892085Y-79866896D01*
X95961889Y-79698374D01*
X96063228Y-79546709D01*
X96192209Y-79417728D01*
X96343874Y-79316389D01*
X96512396Y-79246585D01*
X96691297Y-79211000D01*
X96873703Y-79211000D01*
X97052604Y-79246585D01*
G37*
G36*
X92341000Y-79641000D02*
G01*
X90539000Y-79641000D01*
X90539000Y-77839000D01*
X92341000Y-77839000D01*
X92341000Y-79641000D01*
G37*
G36*
X89013512Y-77843927D02*
G01*
X89162812Y-77873624D01*
X89326784Y-77941544D01*
X89474354Y-78040147D01*
X89599853Y-78165646D01*
X89698456Y-78313216D01*
X89766376Y-78477188D01*
X89801000Y-78651259D01*
X89801000Y-78828741D01*
X89766376Y-79002812D01*
X89698456Y-79166784D01*
X89599853Y-79314354D01*
X89474354Y-79439853D01*
X89326784Y-79538456D01*
X89162812Y-79606376D01*
X89013512Y-79636073D01*
X88988742Y-79641000D01*
X88811258Y-79641000D01*
X88786488Y-79636073D01*
X88637188Y-79606376D01*
X88473216Y-79538456D01*
X88325646Y-79439853D01*
X88200147Y-79314354D01*
X88101544Y-79166784D01*
X88033624Y-79002812D01*
X87999000Y-78828741D01*
X87999000Y-78651259D01*
X88033624Y-78477188D01*
X88101544Y-78313216D01*
X88200147Y-78165646D01*
X88325646Y-78040147D01*
X88473216Y-77941544D01*
X88637188Y-77873624D01*
X88786488Y-77843927D01*
X88811258Y-77839000D01*
X88988742Y-77839000D01*
X89013512Y-77843927D01*
G37*
G36*
X86473512Y-77843927D02*
G01*
X86622812Y-77873624D01*
X86786784Y-77941544D01*
X86934354Y-78040147D01*
X87059853Y-78165646D01*
X87158456Y-78313216D01*
X87226376Y-78477188D01*
X87261000Y-78651259D01*
X87261000Y-78828741D01*
X87226376Y-79002812D01*
X87158456Y-79166784D01*
X87059853Y-79314354D01*
X86934354Y-79439853D01*
X86786784Y-79538456D01*
X86622812Y-79606376D01*
X86473512Y-79636073D01*
X86448742Y-79641000D01*
X86271258Y-79641000D01*
X86246488Y-79636073D01*
X86097188Y-79606376D01*
X85933216Y-79538456D01*
X85785646Y-79439853D01*
X85660147Y-79314354D01*
X85561544Y-79166784D01*
X85493624Y-79002812D01*
X85459000Y-78828741D01*
X85459000Y-78651259D01*
X85493624Y-78477188D01*
X85561544Y-78313216D01*
X85660147Y-78165646D01*
X85785646Y-78040147D01*
X85933216Y-77941544D01*
X86097188Y-77873624D01*
X86246488Y-77843927D01*
X86271258Y-77839000D01*
X86448742Y-77839000D01*
X86473512Y-77843927D01*
G37*
G36*
X83933512Y-77843927D02*
G01*
X84082812Y-77873624D01*
X84246784Y-77941544D01*
X84394354Y-78040147D01*
X84519853Y-78165646D01*
X84618456Y-78313216D01*
X84686376Y-78477188D01*
X84721000Y-78651259D01*
X84721000Y-78828741D01*
X84686376Y-79002812D01*
X84618456Y-79166784D01*
X84519853Y-79314354D01*
X84394354Y-79439853D01*
X84246784Y-79538456D01*
X84082812Y-79606376D01*
X83933512Y-79636073D01*
X83908742Y-79641000D01*
X83731258Y-79641000D01*
X83706488Y-79636073D01*
X83557188Y-79606376D01*
X83393216Y-79538456D01*
X83245646Y-79439853D01*
X83120147Y-79314354D01*
X83021544Y-79166784D01*
X82953624Y-79002812D01*
X82919000Y-78828741D01*
X82919000Y-78651259D01*
X82953624Y-78477188D01*
X83021544Y-78313216D01*
X83120147Y-78165646D01*
X83245646Y-78040147D01*
X83393216Y-77941544D01*
X83557188Y-77873624D01*
X83706488Y-77843927D01*
X83731258Y-77839000D01*
X83908742Y-77839000D01*
X83933512Y-77843927D01*
G37*
G36*
X81393512Y-77843927D02*
G01*
X81542812Y-77873624D01*
X81706784Y-77941544D01*
X81854354Y-78040147D01*
X81979853Y-78165646D01*
X82078456Y-78313216D01*
X82146376Y-78477188D01*
X82181000Y-78651259D01*
X82181000Y-78828741D01*
X82146376Y-79002812D01*
X82078456Y-79166784D01*
X81979853Y-79314354D01*
X81854354Y-79439853D01*
X81706784Y-79538456D01*
X81542812Y-79606376D01*
X81393512Y-79636073D01*
X81368742Y-79641000D01*
X81191258Y-79641000D01*
X81166488Y-79636073D01*
X81017188Y-79606376D01*
X80853216Y-79538456D01*
X80705646Y-79439853D01*
X80580147Y-79314354D01*
X80481544Y-79166784D01*
X80413624Y-79002812D01*
X80379000Y-78828741D01*
X80379000Y-78651259D01*
X80413624Y-78477188D01*
X80481544Y-78313216D01*
X80580147Y-78165646D01*
X80705646Y-78040147D01*
X80853216Y-77941544D01*
X81017188Y-77873624D01*
X81166488Y-77843927D01*
X81191258Y-77839000D01*
X81368742Y-77839000D01*
X81393512Y-77843927D01*
G37*
G36*
X119493512Y-77843927D02*
G01*
X119642812Y-77873624D01*
X119806784Y-77941544D01*
X119954354Y-78040147D01*
X120079853Y-78165646D01*
X120178456Y-78313216D01*
X120246376Y-78477188D01*
X120281000Y-78651259D01*
X120281000Y-78828741D01*
X120246376Y-79002812D01*
X120178456Y-79166784D01*
X120079853Y-79314354D01*
X119954354Y-79439853D01*
X119806784Y-79538456D01*
X119642812Y-79606376D01*
X119493512Y-79636073D01*
X119468742Y-79641000D01*
X119291258Y-79641000D01*
X119266488Y-79636073D01*
X119117188Y-79606376D01*
X118953216Y-79538456D01*
X118805646Y-79439853D01*
X118680147Y-79314354D01*
X118581544Y-79166784D01*
X118513624Y-79002812D01*
X118479000Y-78828741D01*
X118479000Y-78651259D01*
X118513624Y-78477188D01*
X118581544Y-78313216D01*
X118680147Y-78165646D01*
X118805646Y-78040147D01*
X118953216Y-77941544D01*
X119117188Y-77873624D01*
X119266488Y-77843927D01*
X119291258Y-77839000D01*
X119468742Y-77839000D01*
X119493512Y-77843927D01*
G37*
G36*
X137273512Y-77843927D02*
G01*
X137422812Y-77873624D01*
X137586784Y-77941544D01*
X137734354Y-78040147D01*
X137859853Y-78165646D01*
X137958456Y-78313216D01*
X138026376Y-78477188D01*
X138061000Y-78651259D01*
X138061000Y-78828741D01*
X138026376Y-79002812D01*
X137958456Y-79166784D01*
X137859853Y-79314354D01*
X137734354Y-79439853D01*
X137586784Y-79538456D01*
X137422812Y-79606376D01*
X137273512Y-79636073D01*
X137248742Y-79641000D01*
X137071258Y-79641000D01*
X137046488Y-79636073D01*
X136897188Y-79606376D01*
X136733216Y-79538456D01*
X136585646Y-79439853D01*
X136460147Y-79314354D01*
X136361544Y-79166784D01*
X136293624Y-79002812D01*
X136259000Y-78828741D01*
X136259000Y-78651259D01*
X136293624Y-78477188D01*
X136361544Y-78313216D01*
X136460147Y-78165646D01*
X136585646Y-78040147D01*
X136733216Y-77941544D01*
X136897188Y-77873624D01*
X137046488Y-77843927D01*
X137071258Y-77839000D01*
X137248742Y-77839000D01*
X137273512Y-77843927D01*
G37*
G36*
X127113512Y-77843927D02*
G01*
X127262812Y-77873624D01*
X127426784Y-77941544D01*
X127574354Y-78040147D01*
X127699853Y-78165646D01*
X127798456Y-78313216D01*
X127866376Y-78477188D01*
X127901000Y-78651259D01*
X127901000Y-78828741D01*
X127866376Y-79002812D01*
X127798456Y-79166784D01*
X127699853Y-79314354D01*
X127574354Y-79439853D01*
X127426784Y-79538456D01*
X127262812Y-79606376D01*
X127113512Y-79636073D01*
X127088742Y-79641000D01*
X126911258Y-79641000D01*
X126886488Y-79636073D01*
X126737188Y-79606376D01*
X126573216Y-79538456D01*
X126425646Y-79439853D01*
X126300147Y-79314354D01*
X126201544Y-79166784D01*
X126133624Y-79002812D01*
X126099000Y-78828741D01*
X126099000Y-78651259D01*
X126133624Y-78477188D01*
X126201544Y-78313216D01*
X126300147Y-78165646D01*
X126425646Y-78040147D01*
X126573216Y-77941544D01*
X126737188Y-77873624D01*
X126886488Y-77843927D01*
X126911258Y-77839000D01*
X127088742Y-77839000D01*
X127113512Y-77843927D01*
G37*
G36*
X132193512Y-77843927D02*
G01*
X132342812Y-77873624D01*
X132506784Y-77941544D01*
X132654354Y-78040147D01*
X132779853Y-78165646D01*
X132878456Y-78313216D01*
X132946376Y-78477188D01*
X132981000Y-78651259D01*
X132981000Y-78828741D01*
X132946376Y-79002812D01*
X132878456Y-79166784D01*
X132779853Y-79314354D01*
X132654354Y-79439853D01*
X132506784Y-79538456D01*
X132342812Y-79606376D01*
X132193512Y-79636073D01*
X132168742Y-79641000D01*
X131991258Y-79641000D01*
X131966488Y-79636073D01*
X131817188Y-79606376D01*
X131653216Y-79538456D01*
X131505646Y-79439853D01*
X131380147Y-79314354D01*
X131281544Y-79166784D01*
X131213624Y-79002812D01*
X131179000Y-78828741D01*
X131179000Y-78651259D01*
X131213624Y-78477188D01*
X131281544Y-78313216D01*
X131380147Y-78165646D01*
X131505646Y-78040147D01*
X131653216Y-77941544D01*
X131817188Y-77873624D01*
X131966488Y-77843927D01*
X131991258Y-77839000D01*
X132168742Y-77839000D01*
X132193512Y-77843927D01*
G37*
G36*
X129653512Y-77843927D02*
G01*
X129802812Y-77873624D01*
X129966784Y-77941544D01*
X130114354Y-78040147D01*
X130239853Y-78165646D01*
X130338456Y-78313216D01*
X130406376Y-78477188D01*
X130441000Y-78651259D01*
X130441000Y-78828741D01*
X130406376Y-79002812D01*
X130338456Y-79166784D01*
X130239853Y-79314354D01*
X130114354Y-79439853D01*
X129966784Y-79538456D01*
X129802812Y-79606376D01*
X129653512Y-79636073D01*
X129628742Y-79641000D01*
X129451258Y-79641000D01*
X129426488Y-79636073D01*
X129277188Y-79606376D01*
X129113216Y-79538456D01*
X128965646Y-79439853D01*
X128840147Y-79314354D01*
X128741544Y-79166784D01*
X128673624Y-79002812D01*
X128639000Y-78828741D01*
X128639000Y-78651259D01*
X128673624Y-78477188D01*
X128741544Y-78313216D01*
X128840147Y-78165646D01*
X128965646Y-78040147D01*
X129113216Y-77941544D01*
X129277188Y-77873624D01*
X129426488Y-77843927D01*
X129451258Y-77839000D01*
X129628742Y-77839000D01*
X129653512Y-77843927D01*
G37*
G36*
X116953512Y-77843927D02*
G01*
X117102812Y-77873624D01*
X117266784Y-77941544D01*
X117414354Y-78040147D01*
X117539853Y-78165646D01*
X117638456Y-78313216D01*
X117706376Y-78477188D01*
X117741000Y-78651259D01*
X117741000Y-78828741D01*
X117706376Y-79002812D01*
X117638456Y-79166784D01*
X117539853Y-79314354D01*
X117414354Y-79439853D01*
X117266784Y-79538456D01*
X117102812Y-79606376D01*
X116953512Y-79636073D01*
X116928742Y-79641000D01*
X116751258Y-79641000D01*
X116726488Y-79636073D01*
X116577188Y-79606376D01*
X116413216Y-79538456D01*
X116265646Y-79439853D01*
X116140147Y-79314354D01*
X116041544Y-79166784D01*
X115973624Y-79002812D01*
X115939000Y-78828741D01*
X115939000Y-78651259D01*
X115973624Y-78477188D01*
X116041544Y-78313216D01*
X116140147Y-78165646D01*
X116265646Y-78040147D01*
X116413216Y-77941544D01*
X116577188Y-77873624D01*
X116726488Y-77843927D01*
X116751258Y-77839000D01*
X116928742Y-77839000D01*
X116953512Y-77843927D01*
G37*
G36*
X111873512Y-77843927D02*
G01*
X112022812Y-77873624D01*
X112186784Y-77941544D01*
X112334354Y-78040147D01*
X112459853Y-78165646D01*
X112558456Y-78313216D01*
X112626376Y-78477188D01*
X112661000Y-78651259D01*
X112661000Y-78828741D01*
X112626376Y-79002812D01*
X112558456Y-79166784D01*
X112459853Y-79314354D01*
X112334354Y-79439853D01*
X112186784Y-79538456D01*
X112022812Y-79606376D01*
X111873512Y-79636073D01*
X111848742Y-79641000D01*
X111671258Y-79641000D01*
X111646488Y-79636073D01*
X111497188Y-79606376D01*
X111333216Y-79538456D01*
X111185646Y-79439853D01*
X111060147Y-79314354D01*
X110961544Y-79166784D01*
X110893624Y-79002812D01*
X110859000Y-78828741D01*
X110859000Y-78651259D01*
X110893624Y-78477188D01*
X110961544Y-78313216D01*
X111060147Y-78165646D01*
X111185646Y-78040147D01*
X111333216Y-77941544D01*
X111497188Y-77873624D01*
X111646488Y-77843927D01*
X111671258Y-77839000D01*
X111848742Y-77839000D01*
X111873512Y-77843927D01*
G37*
G36*
X134733512Y-77843927D02*
G01*
X134882812Y-77873624D01*
X135046784Y-77941544D01*
X135194354Y-78040147D01*
X135319853Y-78165646D01*
X135418456Y-78313216D01*
X135486376Y-78477188D01*
X135521000Y-78651259D01*
X135521000Y-78828741D01*
X135486376Y-79002812D01*
X135418456Y-79166784D01*
X135319853Y-79314354D01*
X135194354Y-79439853D01*
X135046784Y-79538456D01*
X134882812Y-79606376D01*
X134733512Y-79636073D01*
X134708742Y-79641000D01*
X134531258Y-79641000D01*
X134506488Y-79636073D01*
X134357188Y-79606376D01*
X134193216Y-79538456D01*
X134045646Y-79439853D01*
X133920147Y-79314354D01*
X133821544Y-79166784D01*
X133753624Y-79002812D01*
X133719000Y-78828741D01*
X133719000Y-78651259D01*
X133753624Y-78477188D01*
X133821544Y-78313216D01*
X133920147Y-78165646D01*
X134045646Y-78040147D01*
X134193216Y-77941544D01*
X134357188Y-77873624D01*
X134506488Y-77843927D01*
X134531258Y-77839000D01*
X134708742Y-77839000D01*
X134733512Y-77843927D01*
G37*
G36*
X110121000Y-79641000D02*
G01*
X108319000Y-79641000D01*
X108319000Y-77839000D01*
X110121000Y-77839000D01*
X110121000Y-79641000D01*
G37*
G36*
X124573512Y-77843927D02*
G01*
X124722812Y-77873624D01*
X124886784Y-77941544D01*
X125034354Y-78040147D01*
X125159853Y-78165646D01*
X125258456Y-78313216D01*
X125326376Y-78477188D01*
X125361000Y-78651259D01*
X125361000Y-78828741D01*
X125326376Y-79002812D01*
X125258456Y-79166784D01*
X125159853Y-79314354D01*
X125034354Y-79439853D01*
X124886784Y-79538456D01*
X124722812Y-79606376D01*
X124573512Y-79636073D01*
X124548742Y-79641000D01*
X124371258Y-79641000D01*
X124346488Y-79636073D01*
X124197188Y-79606376D01*
X124033216Y-79538456D01*
X123885646Y-79439853D01*
X123760147Y-79314354D01*
X123661544Y-79166784D01*
X123593624Y-79002812D01*
X123559000Y-78828741D01*
X123559000Y-78651259D01*
X123593624Y-78477188D01*
X123661544Y-78313216D01*
X123760147Y-78165646D01*
X123885646Y-78040147D01*
X124033216Y-77941544D01*
X124197188Y-77873624D01*
X124346488Y-77843927D01*
X124371258Y-77839000D01*
X124548742Y-77839000D01*
X124573512Y-77843927D01*
G37*
G36*
X122033512Y-77843927D02*
G01*
X122182812Y-77873624D01*
X122346784Y-77941544D01*
X122494354Y-78040147D01*
X122619853Y-78165646D01*
X122718456Y-78313216D01*
X122786376Y-78477188D01*
X122821000Y-78651259D01*
X122821000Y-78828741D01*
X122786376Y-79002812D01*
X122718456Y-79166784D01*
X122619853Y-79314354D01*
X122494354Y-79439853D01*
X122346784Y-79538456D01*
X122182812Y-79606376D01*
X122033512Y-79636073D01*
X122008742Y-79641000D01*
X121831258Y-79641000D01*
X121806488Y-79636073D01*
X121657188Y-79606376D01*
X121493216Y-79538456D01*
X121345646Y-79439853D01*
X121220147Y-79314354D01*
X121121544Y-79166784D01*
X121053624Y-79002812D01*
X121019000Y-78828741D01*
X121019000Y-78651259D01*
X121053624Y-78477188D01*
X121121544Y-78313216D01*
X121220147Y-78165646D01*
X121345646Y-78040147D01*
X121493216Y-77941544D01*
X121657188Y-77873624D01*
X121806488Y-77843927D01*
X121831258Y-77839000D01*
X122008742Y-77839000D01*
X122033512Y-77843927D01*
G37*
G36*
X114413512Y-77843927D02*
G01*
X114562812Y-77873624D01*
X114726784Y-77941544D01*
X114874354Y-78040147D01*
X114999853Y-78165646D01*
X115098456Y-78313216D01*
X115166376Y-78477188D01*
X115201000Y-78651259D01*
X115201000Y-78828741D01*
X115166376Y-79002812D01*
X115098456Y-79166784D01*
X114999853Y-79314354D01*
X114874354Y-79439853D01*
X114726784Y-79538456D01*
X114562812Y-79606376D01*
X114413512Y-79636073D01*
X114388742Y-79641000D01*
X114211258Y-79641000D01*
X114186488Y-79636073D01*
X114037188Y-79606376D01*
X113873216Y-79538456D01*
X113725646Y-79439853D01*
X113600147Y-79314354D01*
X113501544Y-79166784D01*
X113433624Y-79002812D01*
X113399000Y-78828741D01*
X113399000Y-78651259D01*
X113433624Y-78477188D01*
X113501544Y-78313216D01*
X113600147Y-78165646D01*
X113725646Y-78040147D01*
X113873216Y-77941544D01*
X114037188Y-77873624D01*
X114186488Y-77843927D01*
X114211258Y-77839000D01*
X114388742Y-77839000D01*
X114413512Y-77843927D01*
G37*
G36*
X146651594Y-76567155D02*
G01*
X146757950Y-76588311D01*
X146958320Y-76671307D01*
X147138644Y-76791795D01*
X147292005Y-76945156D01*
X147412493Y-77125480D01*
X147412493Y-77125481D01*
X147495489Y-77325850D01*
X147537800Y-77538561D01*
X147537800Y-77755439D01*
X147495489Y-77968150D01*
X147465667Y-78040147D01*
X147412493Y-78168520D01*
X147292005Y-78348844D01*
X147138644Y-78502205D01*
X146958320Y-78622693D01*
X146889355Y-78651259D01*
X146757950Y-78705689D01*
X146651594Y-78726845D01*
X146545240Y-78748000D01*
X146328360Y-78748000D01*
X146222005Y-78726844D01*
X146115650Y-78705689D01*
X145984245Y-78651259D01*
X145915280Y-78622693D01*
X145734956Y-78502205D01*
X145581595Y-78348844D01*
X145461107Y-78168520D01*
X145407933Y-78040147D01*
X145378111Y-77968150D01*
X145335800Y-77755439D01*
X145335800Y-77538561D01*
X145378111Y-77325850D01*
X145461107Y-77125481D01*
X145461107Y-77125480D01*
X145581595Y-76945156D01*
X145734956Y-76791795D01*
X145915280Y-76671307D01*
X146015466Y-76629809D01*
X146115650Y-76588311D01*
X146222006Y-76567155D01*
X146328360Y-76546000D01*
X146545240Y-76546000D01*
X146651594Y-76567155D01*
G37*
G36*
X102747294Y-76567155D02*
G01*
X102853650Y-76588311D01*
X103054020Y-76671307D01*
X103234344Y-76791795D01*
X103387705Y-76945156D01*
X103508193Y-77125480D01*
X103508193Y-77125481D01*
X103591189Y-77325850D01*
X103633500Y-77538561D01*
X103633500Y-77755439D01*
X103591189Y-77968150D01*
X103561367Y-78040147D01*
X103508193Y-78168520D01*
X103387705Y-78348844D01*
X103234344Y-78502205D01*
X103054020Y-78622693D01*
X102985055Y-78651259D01*
X102853650Y-78705689D01*
X102747295Y-78726844D01*
X102640940Y-78748000D01*
X102424060Y-78748000D01*
X102317705Y-78726844D01*
X102211350Y-78705689D01*
X102079945Y-78651259D01*
X102010980Y-78622693D01*
X101830656Y-78502205D01*
X101677295Y-78348844D01*
X101556807Y-78168520D01*
X101503633Y-78040147D01*
X101473811Y-77968150D01*
X101431500Y-77755439D01*
X101431500Y-77538561D01*
X101473811Y-77325850D01*
X101556807Y-77125481D01*
X101556807Y-77125480D01*
X101677295Y-76945156D01*
X101830656Y-76791795D01*
X102010980Y-76671307D01*
X102111166Y-76629809D01*
X102211350Y-76588311D01*
X102317706Y-76567155D01*
X102424060Y-76546000D01*
X102640940Y-76546000D01*
X102747294Y-76567155D01*
G37*
G36*
X153661594Y-76567155D02*
G01*
X153767950Y-76588311D01*
X153968320Y-76671307D01*
X154148644Y-76791795D01*
X154302005Y-76945156D01*
X154422493Y-77125480D01*
X154422493Y-77125481D01*
X154505489Y-77325850D01*
X154547800Y-77538561D01*
X154547800Y-77755439D01*
X154505489Y-77968150D01*
X154475667Y-78040147D01*
X154422493Y-78168520D01*
X154302005Y-78348844D01*
X154148644Y-78502205D01*
X153968320Y-78622693D01*
X153899355Y-78651259D01*
X153767950Y-78705689D01*
X153661594Y-78726845D01*
X153555240Y-78748000D01*
X153338360Y-78748000D01*
X153232005Y-78726844D01*
X153125650Y-78705689D01*
X152994245Y-78651259D01*
X152925280Y-78622693D01*
X152744956Y-78502205D01*
X152591595Y-78348844D01*
X152471107Y-78168520D01*
X152417933Y-78040147D01*
X152388111Y-77968150D01*
X152345800Y-77755439D01*
X152345800Y-77538561D01*
X152388111Y-77325850D01*
X152471107Y-77125481D01*
X152471107Y-77125480D01*
X152591595Y-76945156D01*
X152744956Y-76791795D01*
X152925280Y-76671307D01*
X153025466Y-76629809D01*
X153125650Y-76588311D01*
X153232006Y-76567155D01*
X153338360Y-76546000D01*
X153555240Y-76546000D01*
X153661594Y-76567155D01*
G37*
G36*
X95737294Y-76567155D02*
G01*
X95843650Y-76588311D01*
X96044020Y-76671307D01*
X96224344Y-76791795D01*
X96377705Y-76945156D01*
X96498193Y-77125480D01*
X96498193Y-77125481D01*
X96581189Y-77325850D01*
X96623500Y-77538561D01*
X96623500Y-77755439D01*
X96581189Y-77968150D01*
X96551367Y-78040147D01*
X96498193Y-78168520D01*
X96377705Y-78348844D01*
X96224344Y-78502205D01*
X96044020Y-78622693D01*
X95975055Y-78651259D01*
X95843650Y-78705689D01*
X95737295Y-78726844D01*
X95630940Y-78748000D01*
X95414060Y-78748000D01*
X95307705Y-78726844D01*
X95201350Y-78705689D01*
X95069945Y-78651259D01*
X95000980Y-78622693D01*
X94820656Y-78502205D01*
X94667295Y-78348844D01*
X94546807Y-78168520D01*
X94493633Y-78040147D01*
X94463811Y-77968150D01*
X94421500Y-77755439D01*
X94421500Y-77538561D01*
X94463811Y-77325850D01*
X94546807Y-77125481D01*
X94546807Y-77125480D01*
X94667295Y-76945156D01*
X94820656Y-76791795D01*
X95000980Y-76671307D01*
X95101166Y-76629809D01*
X95201350Y-76588311D01*
X95307706Y-76567155D01*
X95414060Y-76546000D01*
X95630940Y-76546000D01*
X95737294Y-76567155D01*
G37*
G36*
X169627641Y-75359615D02*
G01*
X169718273Y-75397156D01*
X169808903Y-75434696D01*
X169972033Y-75543696D01*
X170110764Y-75682427D01*
X170219764Y-75845557D01*
X170257304Y-75936188D01*
X170294845Y-76026819D01*
X170333120Y-76219241D01*
X170333120Y-76415439D01*
X170294845Y-76607861D01*
X170259963Y-76692074D01*
X170219764Y-76789123D01*
X170110764Y-76952253D01*
X169972033Y-77090984D01*
X169808903Y-77199984D01*
X169718272Y-77237524D01*
X169627641Y-77275065D01*
X169435219Y-77313340D01*
X169239021Y-77313340D01*
X169046599Y-77275065D01*
X168955967Y-77237524D01*
X168865337Y-77199984D01*
X168702207Y-77090984D01*
X168563476Y-76952253D01*
X168454476Y-76789123D01*
X168414277Y-76692074D01*
X168379395Y-76607861D01*
X168341120Y-76415439D01*
X168341120Y-76219241D01*
X168379395Y-76026819D01*
X168416936Y-75936188D01*
X168454476Y-75845557D01*
X168563476Y-75682427D01*
X168702207Y-75543696D01*
X168865337Y-75434696D01*
X168955967Y-75397156D01*
X169046599Y-75359615D01*
X169239021Y-75321340D01*
X169435219Y-75321340D01*
X169627641Y-75359615D01*
G37*
G36*
X159517641Y-75359615D02*
G01*
X159608273Y-75397156D01*
X159698903Y-75434696D01*
X159862033Y-75543696D01*
X160000764Y-75682427D01*
X160109764Y-75845557D01*
X160147304Y-75936187D01*
X160184845Y-76026819D01*
X160223120Y-76219241D01*
X160223120Y-76415439D01*
X160184845Y-76607861D01*
X160149963Y-76692074D01*
X160109764Y-76789123D01*
X160000764Y-76952253D01*
X159862033Y-77090984D01*
X159698903Y-77199984D01*
X159608272Y-77237524D01*
X159517641Y-77275065D01*
X159325219Y-77313340D01*
X159129021Y-77313340D01*
X158936599Y-77275065D01*
X158845967Y-77237524D01*
X158755337Y-77199984D01*
X158592207Y-77090984D01*
X158453476Y-76952253D01*
X158344476Y-76789123D01*
X158304277Y-76692074D01*
X158269395Y-76607861D01*
X158231120Y-76415439D01*
X158231120Y-76219241D01*
X158269395Y-76026819D01*
X158306936Y-75936188D01*
X158344476Y-75845557D01*
X158453476Y-75682427D01*
X158592207Y-75543696D01*
X158755337Y-75434696D01*
X158845967Y-75397156D01*
X158936599Y-75359615D01*
X159129021Y-75321340D01*
X159325219Y-75321340D01*
X159517641Y-75359615D01*
G37*
G36*
X124573512Y-75303927D02*
G01*
X124722812Y-75333624D01*
X124886784Y-75401544D01*
X125034354Y-75500147D01*
X125159853Y-75625646D01*
X125258456Y-75773216D01*
X125326376Y-75937188D01*
X125361000Y-76111259D01*
X125361000Y-76288741D01*
X125326376Y-76462812D01*
X125258456Y-76626784D01*
X125159853Y-76774354D01*
X125034354Y-76899853D01*
X124886784Y-76998456D01*
X124722812Y-77066376D01*
X124573512Y-77096073D01*
X124548742Y-77101000D01*
X124371258Y-77101000D01*
X124346488Y-77096073D01*
X124197188Y-77066376D01*
X124033216Y-76998456D01*
X123885646Y-76899853D01*
X123760147Y-76774354D01*
X123661544Y-76626784D01*
X123593624Y-76462812D01*
X123559000Y-76288741D01*
X123559000Y-76111259D01*
X123593624Y-75937188D01*
X123661544Y-75773216D01*
X123760147Y-75625646D01*
X123885646Y-75500147D01*
X124033216Y-75401544D01*
X124197188Y-75333624D01*
X124346488Y-75303927D01*
X124371258Y-75299000D01*
X124548742Y-75299000D01*
X124573512Y-75303927D01*
G37*
G36*
X127113512Y-75303927D02*
G01*
X127262812Y-75333624D01*
X127426784Y-75401544D01*
X127574354Y-75500147D01*
X127699853Y-75625646D01*
X127798456Y-75773216D01*
X127866376Y-75937188D01*
X127901000Y-76111259D01*
X127901000Y-76288741D01*
X127866376Y-76462812D01*
X127798456Y-76626784D01*
X127699853Y-76774354D01*
X127574354Y-76899853D01*
X127426784Y-76998456D01*
X127262812Y-77066376D01*
X127113512Y-77096073D01*
X127088742Y-77101000D01*
X126911258Y-77101000D01*
X126886488Y-77096073D01*
X126737188Y-77066376D01*
X126573216Y-76998456D01*
X126425646Y-76899853D01*
X126300147Y-76774354D01*
X126201544Y-76626784D01*
X126133624Y-76462812D01*
X126099000Y-76288741D01*
X126099000Y-76111259D01*
X126133624Y-75937188D01*
X126201544Y-75773216D01*
X126300147Y-75625646D01*
X126425646Y-75500147D01*
X126573216Y-75401544D01*
X126737188Y-75333624D01*
X126886488Y-75303927D01*
X126911258Y-75299000D01*
X127088742Y-75299000D01*
X127113512Y-75303927D01*
G37*
G36*
X129653512Y-75303927D02*
G01*
X129802812Y-75333624D01*
X129966784Y-75401544D01*
X130114354Y-75500147D01*
X130239853Y-75625646D01*
X130338456Y-75773216D01*
X130406376Y-75937188D01*
X130441000Y-76111259D01*
X130441000Y-76288741D01*
X130406376Y-76462812D01*
X130338456Y-76626784D01*
X130239853Y-76774354D01*
X130114354Y-76899853D01*
X129966784Y-76998456D01*
X129802812Y-77066376D01*
X129653512Y-77096073D01*
X129628742Y-77101000D01*
X129451258Y-77101000D01*
X129426488Y-77096073D01*
X129277188Y-77066376D01*
X129113216Y-76998456D01*
X128965646Y-76899853D01*
X128840147Y-76774354D01*
X128741544Y-76626784D01*
X128673624Y-76462812D01*
X128639000Y-76288741D01*
X128639000Y-76111259D01*
X128673624Y-75937188D01*
X128741544Y-75773216D01*
X128840147Y-75625646D01*
X128965646Y-75500147D01*
X129113216Y-75401544D01*
X129277188Y-75333624D01*
X129426488Y-75303927D01*
X129451258Y-75299000D01*
X129628742Y-75299000D01*
X129653512Y-75303927D01*
G37*
G36*
X132193512Y-75303927D02*
G01*
X132342812Y-75333624D01*
X132506784Y-75401544D01*
X132654354Y-75500147D01*
X132779853Y-75625646D01*
X132878456Y-75773216D01*
X132946376Y-75937188D01*
X132981000Y-76111259D01*
X132981000Y-76288741D01*
X132946376Y-76462812D01*
X132878456Y-76626784D01*
X132779853Y-76774354D01*
X132654354Y-76899853D01*
X132506784Y-76998456D01*
X132342812Y-77066376D01*
X132193512Y-77096073D01*
X132168742Y-77101000D01*
X131991258Y-77101000D01*
X131966488Y-77096073D01*
X131817188Y-77066376D01*
X131653216Y-76998456D01*
X131505646Y-76899853D01*
X131380147Y-76774354D01*
X131281544Y-76626784D01*
X131213624Y-76462812D01*
X131179000Y-76288741D01*
X131179000Y-76111259D01*
X131213624Y-75937188D01*
X131281544Y-75773216D01*
X131380147Y-75625646D01*
X131505646Y-75500147D01*
X131653216Y-75401544D01*
X131817188Y-75333624D01*
X131966488Y-75303927D01*
X131991258Y-75299000D01*
X132168742Y-75299000D01*
X132193512Y-75303927D01*
G37*
G36*
X134733512Y-75303927D02*
G01*
X134882812Y-75333624D01*
X135046784Y-75401544D01*
X135194354Y-75500147D01*
X135319853Y-75625646D01*
X135418456Y-75773216D01*
X135486376Y-75937188D01*
X135521000Y-76111259D01*
X135521000Y-76288741D01*
X135486376Y-76462812D01*
X135418456Y-76626784D01*
X135319853Y-76774354D01*
X135194354Y-76899853D01*
X135046784Y-76998456D01*
X134882812Y-77066376D01*
X134733512Y-77096073D01*
X134708742Y-77101000D01*
X134531258Y-77101000D01*
X134506488Y-77096073D01*
X134357188Y-77066376D01*
X134193216Y-76998456D01*
X134045646Y-76899853D01*
X133920147Y-76774354D01*
X133821544Y-76626784D01*
X133753624Y-76462812D01*
X133719000Y-76288741D01*
X133719000Y-76111259D01*
X133753624Y-75937188D01*
X133821544Y-75773216D01*
X133920147Y-75625646D01*
X134045646Y-75500147D01*
X134193216Y-75401544D01*
X134357188Y-75333624D01*
X134506488Y-75303927D01*
X134531258Y-75299000D01*
X134708742Y-75299000D01*
X134733512Y-75303927D01*
G37*
G36*
X137273512Y-75303927D02*
G01*
X137422812Y-75333624D01*
X137586784Y-75401544D01*
X137734354Y-75500147D01*
X137859853Y-75625646D01*
X137958456Y-75773216D01*
X138026376Y-75937188D01*
X138061000Y-76111259D01*
X138061000Y-76288741D01*
X138026376Y-76462812D01*
X137958456Y-76626784D01*
X137859853Y-76774354D01*
X137734354Y-76899853D01*
X137586784Y-76998456D01*
X137422812Y-77066376D01*
X137273512Y-77096073D01*
X137248742Y-77101000D01*
X137071258Y-77101000D01*
X137046488Y-77096073D01*
X136897188Y-77066376D01*
X136733216Y-76998456D01*
X136585646Y-76899853D01*
X136460147Y-76774354D01*
X136361544Y-76626784D01*
X136293624Y-76462812D01*
X136259000Y-76288741D01*
X136259000Y-76111259D01*
X136293624Y-75937188D01*
X136361544Y-75773216D01*
X136460147Y-75625646D01*
X136585646Y-75500147D01*
X136733216Y-75401544D01*
X136897188Y-75333624D01*
X137046488Y-75303927D01*
X137071258Y-75299000D01*
X137248742Y-75299000D01*
X137273512Y-75303927D01*
G37*
G36*
X91553512Y-75303927D02*
G01*
X91702812Y-75333624D01*
X91866784Y-75401544D01*
X92014354Y-75500147D01*
X92139853Y-75625646D01*
X92238456Y-75773216D01*
X92306376Y-75937188D01*
X92341000Y-76111259D01*
X92341000Y-76288741D01*
X92306376Y-76462812D01*
X92238456Y-76626784D01*
X92139853Y-76774354D01*
X92014354Y-76899853D01*
X91866784Y-76998456D01*
X91702812Y-77066376D01*
X91553512Y-77096073D01*
X91528742Y-77101000D01*
X91351258Y-77101000D01*
X91326488Y-77096073D01*
X91177188Y-77066376D01*
X91013216Y-76998456D01*
X90865646Y-76899853D01*
X90740147Y-76774354D01*
X90641544Y-76626784D01*
X90573624Y-76462812D01*
X90539000Y-76288741D01*
X90539000Y-76111259D01*
X90573624Y-75937188D01*
X90641544Y-75773216D01*
X90740147Y-75625646D01*
X90865646Y-75500147D01*
X91013216Y-75401544D01*
X91177188Y-75333624D01*
X91326488Y-75303927D01*
X91351258Y-75299000D01*
X91528742Y-75299000D01*
X91553512Y-75303927D01*
G37*
G36*
X122033512Y-75303927D02*
G01*
X122182812Y-75333624D01*
X122346784Y-75401544D01*
X122494354Y-75500147D01*
X122619853Y-75625646D01*
X122718456Y-75773216D01*
X122786376Y-75937188D01*
X122821000Y-76111259D01*
X122821000Y-76288741D01*
X122786376Y-76462812D01*
X122718456Y-76626784D01*
X122619853Y-76774354D01*
X122494354Y-76899853D01*
X122346784Y-76998456D01*
X122182812Y-77066376D01*
X122033512Y-77096073D01*
X122008742Y-77101000D01*
X121831258Y-77101000D01*
X121806488Y-77096073D01*
X121657188Y-77066376D01*
X121493216Y-76998456D01*
X121345646Y-76899853D01*
X121220147Y-76774354D01*
X121121544Y-76626784D01*
X121053624Y-76462812D01*
X121019000Y-76288741D01*
X121019000Y-76111259D01*
X121053624Y-75937188D01*
X121121544Y-75773216D01*
X121220147Y-75625646D01*
X121345646Y-75500147D01*
X121493216Y-75401544D01*
X121657188Y-75333624D01*
X121806488Y-75303927D01*
X121831258Y-75299000D01*
X122008742Y-75299000D01*
X122033512Y-75303927D01*
G37*
G36*
X109333512Y-75303927D02*
G01*
X109482812Y-75333624D01*
X109646784Y-75401544D01*
X109794354Y-75500147D01*
X109919853Y-75625646D01*
X110018456Y-75773216D01*
X110086376Y-75937188D01*
X110121000Y-76111259D01*
X110121000Y-76288741D01*
X110086376Y-76462812D01*
X110018456Y-76626784D01*
X109919853Y-76774354D01*
X109794354Y-76899853D01*
X109646784Y-76998456D01*
X109482812Y-77066376D01*
X109333512Y-77096073D01*
X109308742Y-77101000D01*
X109131258Y-77101000D01*
X109106488Y-77096073D01*
X108957188Y-77066376D01*
X108793216Y-76998456D01*
X108645646Y-76899853D01*
X108520147Y-76774354D01*
X108421544Y-76626784D01*
X108353624Y-76462812D01*
X108319000Y-76288741D01*
X108319000Y-76111259D01*
X108353624Y-75937188D01*
X108421544Y-75773216D01*
X108520147Y-75625646D01*
X108645646Y-75500147D01*
X108793216Y-75401544D01*
X108957188Y-75333624D01*
X109106488Y-75303927D01*
X109131258Y-75299000D01*
X109308742Y-75299000D01*
X109333512Y-75303927D01*
G37*
G36*
X89013512Y-75303927D02*
G01*
X89162812Y-75333624D01*
X89326784Y-75401544D01*
X89474354Y-75500147D01*
X89599853Y-75625646D01*
X89698456Y-75773216D01*
X89766376Y-75937188D01*
X89801000Y-76111259D01*
X89801000Y-76288741D01*
X89766376Y-76462812D01*
X89698456Y-76626784D01*
X89599853Y-76774354D01*
X89474354Y-76899853D01*
X89326784Y-76998456D01*
X89162812Y-77066376D01*
X89013512Y-77096073D01*
X88988742Y-77101000D01*
X88811258Y-77101000D01*
X88786488Y-77096073D01*
X88637188Y-77066376D01*
X88473216Y-76998456D01*
X88325646Y-76899853D01*
X88200147Y-76774354D01*
X88101544Y-76626784D01*
X88033624Y-76462812D01*
X87999000Y-76288741D01*
X87999000Y-76111259D01*
X88033624Y-75937188D01*
X88101544Y-75773216D01*
X88200147Y-75625646D01*
X88325646Y-75500147D01*
X88473216Y-75401544D01*
X88637188Y-75333624D01*
X88786488Y-75303927D01*
X88811258Y-75299000D01*
X88988742Y-75299000D01*
X89013512Y-75303927D01*
G37*
G36*
X81393512Y-75303927D02*
G01*
X81542812Y-75333624D01*
X81706784Y-75401544D01*
X81854354Y-75500147D01*
X81979853Y-75625646D01*
X82078456Y-75773216D01*
X82146376Y-75937188D01*
X82181000Y-76111259D01*
X82181000Y-76288741D01*
X82146376Y-76462812D01*
X82078456Y-76626784D01*
X81979853Y-76774354D01*
X81854354Y-76899853D01*
X81706784Y-76998456D01*
X81542812Y-77066376D01*
X81393512Y-77096073D01*
X81368742Y-77101000D01*
X81191258Y-77101000D01*
X81166488Y-77096073D01*
X81017188Y-77066376D01*
X80853216Y-76998456D01*
X80705646Y-76899853D01*
X80580147Y-76774354D01*
X80481544Y-76626784D01*
X80413624Y-76462812D01*
X80379000Y-76288741D01*
X80379000Y-76111259D01*
X80413624Y-75937188D01*
X80481544Y-75773216D01*
X80580147Y-75625646D01*
X80705646Y-75500147D01*
X80853216Y-75401544D01*
X81017188Y-75333624D01*
X81166488Y-75303927D01*
X81191258Y-75299000D01*
X81368742Y-75299000D01*
X81393512Y-75303927D01*
G37*
G36*
X83933512Y-75303927D02*
G01*
X84082812Y-75333624D01*
X84246784Y-75401544D01*
X84394354Y-75500147D01*
X84519853Y-75625646D01*
X84618456Y-75773216D01*
X84686376Y-75937188D01*
X84721000Y-76111259D01*
X84721000Y-76288741D01*
X84686376Y-76462812D01*
X84618456Y-76626784D01*
X84519853Y-76774354D01*
X84394354Y-76899853D01*
X84246784Y-76998456D01*
X84082812Y-77066376D01*
X83933512Y-77096073D01*
X83908742Y-77101000D01*
X83731258Y-77101000D01*
X83706488Y-77096073D01*
X83557188Y-77066376D01*
X83393216Y-76998456D01*
X83245646Y-76899853D01*
X83120147Y-76774354D01*
X83021544Y-76626784D01*
X82953624Y-76462812D01*
X82919000Y-76288741D01*
X82919000Y-76111259D01*
X82953624Y-75937188D01*
X83021544Y-75773216D01*
X83120147Y-75625646D01*
X83245646Y-75500147D01*
X83393216Y-75401544D01*
X83557188Y-75333624D01*
X83706488Y-75303927D01*
X83731258Y-75299000D01*
X83908742Y-75299000D01*
X83933512Y-75303927D01*
G37*
G36*
X116953512Y-75303927D02*
G01*
X117102812Y-75333624D01*
X117266784Y-75401544D01*
X117414354Y-75500147D01*
X117539853Y-75625646D01*
X117638456Y-75773216D01*
X117706376Y-75937188D01*
X117741000Y-76111259D01*
X117741000Y-76288741D01*
X117706376Y-76462812D01*
X117638456Y-76626784D01*
X117539853Y-76774354D01*
X117414354Y-76899853D01*
X117266784Y-76998456D01*
X117102812Y-77066376D01*
X116953512Y-77096073D01*
X116928742Y-77101000D01*
X116751258Y-77101000D01*
X116726488Y-77096073D01*
X116577188Y-77066376D01*
X116413216Y-76998456D01*
X116265646Y-76899853D01*
X116140147Y-76774354D01*
X116041544Y-76626784D01*
X115973624Y-76462812D01*
X115939000Y-76288741D01*
X115939000Y-76111259D01*
X115973624Y-75937188D01*
X116041544Y-75773216D01*
X116140147Y-75625646D01*
X116265646Y-75500147D01*
X116413216Y-75401544D01*
X116577188Y-75333624D01*
X116726488Y-75303927D01*
X116751258Y-75299000D01*
X116928742Y-75299000D01*
X116953512Y-75303927D01*
G37*
G36*
X111873512Y-75303927D02*
G01*
X112022812Y-75333624D01*
X112186784Y-75401544D01*
X112334354Y-75500147D01*
X112459853Y-75625646D01*
X112558456Y-75773216D01*
X112626376Y-75937188D01*
X112661000Y-76111259D01*
X112661000Y-76288741D01*
X112626376Y-76462812D01*
X112558456Y-76626784D01*
X112459853Y-76774354D01*
X112334354Y-76899853D01*
X112186784Y-76998456D01*
X112022812Y-77066376D01*
X111873512Y-77096073D01*
X111848742Y-77101000D01*
X111671258Y-77101000D01*
X111646488Y-77096073D01*
X111497188Y-77066376D01*
X111333216Y-76998456D01*
X111185646Y-76899853D01*
X111060147Y-76774354D01*
X110961544Y-76626784D01*
X110893624Y-76462812D01*
X110859000Y-76288741D01*
X110859000Y-76111259D01*
X110893624Y-75937188D01*
X110961544Y-75773216D01*
X111060147Y-75625646D01*
X111185646Y-75500147D01*
X111333216Y-75401544D01*
X111497188Y-75333624D01*
X111646488Y-75303927D01*
X111671258Y-75299000D01*
X111848742Y-75299000D01*
X111873512Y-75303927D01*
G37*
G36*
X86473512Y-75303927D02*
G01*
X86622812Y-75333624D01*
X86786784Y-75401544D01*
X86934354Y-75500147D01*
X87059853Y-75625646D01*
X87158456Y-75773216D01*
X87226376Y-75937188D01*
X87261000Y-76111259D01*
X87261000Y-76288741D01*
X87226376Y-76462812D01*
X87158456Y-76626784D01*
X87059853Y-76774354D01*
X86934354Y-76899853D01*
X86786784Y-76998456D01*
X86622812Y-77066376D01*
X86473512Y-77096073D01*
X86448742Y-77101000D01*
X86271258Y-77101000D01*
X86246488Y-77096073D01*
X86097188Y-77066376D01*
X85933216Y-76998456D01*
X85785646Y-76899853D01*
X85660147Y-76774354D01*
X85561544Y-76626784D01*
X85493624Y-76462812D01*
X85459000Y-76288741D01*
X85459000Y-76111259D01*
X85493624Y-75937188D01*
X85561544Y-75773216D01*
X85660147Y-75625646D01*
X85785646Y-75500147D01*
X85933216Y-75401544D01*
X86097188Y-75333624D01*
X86246488Y-75303927D01*
X86271258Y-75299000D01*
X86448742Y-75299000D01*
X86473512Y-75303927D01*
G37*
G36*
X119493512Y-75303927D02*
G01*
X119642812Y-75333624D01*
X119806784Y-75401544D01*
X119954354Y-75500147D01*
X120079853Y-75625646D01*
X120178456Y-75773216D01*
X120246376Y-75937188D01*
X120281000Y-76111259D01*
X120281000Y-76288741D01*
X120246376Y-76462812D01*
X120178456Y-76626784D01*
X120079853Y-76774354D01*
X119954354Y-76899853D01*
X119806784Y-76998456D01*
X119642812Y-77066376D01*
X119493512Y-77096073D01*
X119468742Y-77101000D01*
X119291258Y-77101000D01*
X119266488Y-77096073D01*
X119117188Y-77066376D01*
X118953216Y-76998456D01*
X118805646Y-76899853D01*
X118680147Y-76774354D01*
X118581544Y-76626784D01*
X118513624Y-76462812D01*
X118479000Y-76288741D01*
X118479000Y-76111259D01*
X118513624Y-75937188D01*
X118581544Y-75773216D01*
X118680147Y-75625646D01*
X118805646Y-75500147D01*
X118953216Y-75401544D01*
X119117188Y-75333624D01*
X119266488Y-75303927D01*
X119291258Y-75299000D01*
X119468742Y-75299000D01*
X119493512Y-75303927D01*
G37*
G36*
X114413512Y-75303927D02*
G01*
X114562812Y-75333624D01*
X114726784Y-75401544D01*
X114874354Y-75500147D01*
X114999853Y-75625646D01*
X115098456Y-75773216D01*
X115166376Y-75937188D01*
X115201000Y-76111259D01*
X115201000Y-76288741D01*
X115166376Y-76462812D01*
X115098456Y-76626784D01*
X114999853Y-76774354D01*
X114874354Y-76899853D01*
X114726784Y-76998456D01*
X114562812Y-77066376D01*
X114413512Y-77096073D01*
X114388742Y-77101000D01*
X114211258Y-77101000D01*
X114186488Y-77096073D01*
X114037188Y-77066376D01*
X113873216Y-76998456D01*
X113725646Y-76899853D01*
X113600147Y-76774354D01*
X113501544Y-76626784D01*
X113433624Y-76462812D01*
X113399000Y-76288741D01*
X113399000Y-76111259D01*
X113433624Y-75937188D01*
X113501544Y-75773216D01*
X113600147Y-75625646D01*
X113725646Y-75500147D01*
X113873216Y-75401544D01*
X114037188Y-75333624D01*
X114186488Y-75303927D01*
X114211258Y-75299000D01*
X114388742Y-75299000D01*
X114413512Y-75303927D01*
G37*
G36*
X75868264Y-72754580D02*
G01*
X75868267Y-72754581D01*
X75868268Y-72754581D01*
X76047532Y-72808960D01*
X76047535Y-72808962D01*
X76047536Y-72808962D01*
X76212743Y-72897266D01*
X76357552Y-73016108D01*
X76476394Y-73160917D01*
X76564698Y-73326123D01*
X76564700Y-73326127D01*
X76564700Y-73326128D01*
X76619080Y-73505395D01*
X76632840Y-73645102D01*
X76632840Y-75538538D01*
X76619080Y-75678245D01*
X76619079Y-75678248D01*
X76619079Y-75678249D01*
X76564700Y-75857513D01*
X76564698Y-75857516D01*
X76564698Y-75857517D01*
X76476394Y-76022723D01*
X76357552Y-76167532D01*
X76212743Y-76286374D01*
X76047537Y-76374678D01*
X76047533Y-76374680D01*
X75868269Y-76429059D01*
X75868268Y-76429059D01*
X75868265Y-76429060D01*
X75681840Y-76447421D01*
X75495416Y-76429060D01*
X75495413Y-76429059D01*
X75495412Y-76429059D01*
X75316148Y-76374680D01*
X75316144Y-76374678D01*
X75150938Y-76286374D01*
X75006129Y-76167532D01*
X74887287Y-76022723D01*
X74798983Y-75857517D01*
X74798983Y-75857516D01*
X74798981Y-75857513D01*
X74744602Y-75678249D01*
X74744602Y-75678248D01*
X74744601Y-75678245D01*
X74730840Y-75538537D01*
X74730840Y-73645103D01*
X74744600Y-73505396D01*
X74744601Y-73505392D01*
X74798980Y-73326128D01*
X74798983Y-73326123D01*
X74887286Y-73160917D01*
X75006128Y-73016108D01*
X75150937Y-72897266D01*
X75316143Y-72808962D01*
X75316144Y-72808962D01*
X75316147Y-72808960D01*
X75495411Y-72754581D01*
X75495412Y-72754581D01*
X75495415Y-72754580D01*
X75681840Y-72736219D01*
X75868264Y-72754580D01*
G37*
G36*
X71552840Y-76442820D02*
G01*
X69650840Y-76442820D01*
X69650840Y-72740820D01*
X71552840Y-72740820D01*
X71552840Y-76442820D01*
G37*
G36*
X162057641Y-73839615D02*
G01*
X162148273Y-73877156D01*
X162238903Y-73914696D01*
X162402033Y-74023696D01*
X162540764Y-74162427D01*
X162649764Y-74325557D01*
X162687304Y-74416187D01*
X162724845Y-74506819D01*
X162763120Y-74699241D01*
X162763120Y-74895439D01*
X162724845Y-75087861D01*
X162687304Y-75178493D01*
X162649764Y-75269123D01*
X162540764Y-75432253D01*
X162402033Y-75570984D01*
X162238903Y-75679984D01*
X162174201Y-75706784D01*
X162057641Y-75755065D01*
X161865219Y-75793340D01*
X161669021Y-75793340D01*
X161476599Y-75755065D01*
X161360039Y-75706784D01*
X161295337Y-75679984D01*
X161132207Y-75570984D01*
X160993476Y-75432253D01*
X160884476Y-75269123D01*
X160846936Y-75178493D01*
X160809395Y-75087861D01*
X160771120Y-74895439D01*
X160771120Y-74699241D01*
X160809395Y-74506819D01*
X160846936Y-74416187D01*
X160884476Y-74325557D01*
X160993476Y-74162427D01*
X161132207Y-74023696D01*
X161295337Y-73914696D01*
X161385967Y-73877156D01*
X161476599Y-73839615D01*
X161669021Y-73801340D01*
X161865219Y-73801340D01*
X162057641Y-73839615D01*
G37*
G36*
X172167641Y-73839615D02*
G01*
X172258273Y-73877156D01*
X172348903Y-73914696D01*
X172512033Y-74023696D01*
X172650764Y-74162427D01*
X172759764Y-74325557D01*
X172797304Y-74416187D01*
X172834845Y-74506819D01*
X172873120Y-74699241D01*
X172873120Y-74895439D01*
X172834845Y-75087861D01*
X172797304Y-75178493D01*
X172759764Y-75269123D01*
X172650764Y-75432253D01*
X172512033Y-75570984D01*
X172348903Y-75679984D01*
X172284201Y-75706784D01*
X172167641Y-75755065D01*
X171975219Y-75793340D01*
X171779021Y-75793340D01*
X171586599Y-75755065D01*
X171470039Y-75706784D01*
X171405337Y-75679984D01*
X171242207Y-75570984D01*
X171103476Y-75432253D01*
X170994476Y-75269123D01*
X170956936Y-75178493D01*
X170919395Y-75087861D01*
X170881120Y-74895439D01*
X170881120Y-74699241D01*
X170919395Y-74506819D01*
X170956936Y-74416187D01*
X170994476Y-74325557D01*
X171103476Y-74162427D01*
X171242207Y-74023696D01*
X171405337Y-73914696D01*
X171495967Y-73877156D01*
X171586599Y-73839615D01*
X171779021Y-73801340D01*
X171975219Y-73801340D01*
X172167641Y-73839615D01*
G37*
G36*
X160325991Y-69805748D02*
G01*
X160631003Y-69932088D01*
X160905507Y-70115506D01*
X161138954Y-70348953D01*
X161322372Y-70623457D01*
X161419980Y-70859104D01*
X161448712Y-70928470D01*
X161508825Y-71230673D01*
X161513120Y-71252268D01*
X161513120Y-71582412D01*
X161448712Y-71906211D01*
X161322372Y-72211223D01*
X161138954Y-72485727D01*
X160905507Y-72719174D01*
X160631003Y-72902592D01*
X160325991Y-73028932D01*
X160002193Y-73093340D01*
X159672047Y-73093340D01*
X159348249Y-73028932D01*
X159043237Y-72902592D01*
X158768733Y-72719174D01*
X158535286Y-72485727D01*
X158351868Y-72211223D01*
X158225528Y-71906211D01*
X158161120Y-71582412D01*
X158161120Y-71252268D01*
X158165416Y-71230673D01*
X158225528Y-70928470D01*
X158254260Y-70859104D01*
X158351868Y-70623457D01*
X158535286Y-70348953D01*
X158768733Y-70115506D01*
X159043237Y-69932088D01*
X159348249Y-69805748D01*
X159672047Y-69741340D01*
X160002193Y-69741340D01*
X160325991Y-69805748D01*
G37*
G36*
X171755991Y-69805748D02*
G01*
X172061003Y-69932088D01*
X172335507Y-70115506D01*
X172568954Y-70348953D01*
X172752372Y-70623457D01*
X172849980Y-70859104D01*
X172878712Y-70928470D01*
X172938825Y-71230673D01*
X172943120Y-71252268D01*
X172943120Y-71582412D01*
X172878712Y-71906211D01*
X172752372Y-72211223D01*
X172568954Y-72485727D01*
X172335507Y-72719174D01*
X172061003Y-72902592D01*
X171755991Y-73028932D01*
X171594091Y-73061136D01*
X171432193Y-73093340D01*
X171102047Y-73093340D01*
X170778249Y-73028932D01*
X170473237Y-72902592D01*
X170198733Y-72719174D01*
X169965286Y-72485727D01*
X169781868Y-72211223D01*
X169655528Y-71906211D01*
X169591120Y-71582412D01*
X169591120Y-71252268D01*
X169595416Y-71230673D01*
X169655528Y-70928470D01*
X169684260Y-70859104D01*
X169781868Y-70623457D01*
X169965286Y-70348953D01*
X170198733Y-70115506D01*
X170473237Y-69932088D01*
X170778249Y-69805748D01*
X171102047Y-69741340D01*
X171432193Y-69741340D01*
X171755991Y-69805748D01*
G37*
G36*
X179628610Y-70632514D02*
G01*
X179851727Y-70724932D01*
X179851729Y-70724933D01*
X179902269Y-70758703D01*
X180052529Y-70859103D01*
X180223297Y-71029871D01*
X180257727Y-71081400D01*
X180357408Y-71230582D01*
X180357468Y-71230673D01*
X180449886Y-71453790D01*
X180497000Y-71690648D01*
X180497000Y-71932152D01*
X180449886Y-72169010D01*
X180357468Y-72392127D01*
X180223297Y-72592929D01*
X180052529Y-72763697D01*
X179902269Y-72864097D01*
X179851729Y-72897867D01*
X179851728Y-72897868D01*
X179851727Y-72897868D01*
X179628610Y-72990286D01*
X179391752Y-73037400D01*
X179150248Y-73037400D01*
X178913390Y-72990286D01*
X178690273Y-72897868D01*
X178690272Y-72897868D01*
X178690271Y-72897867D01*
X178639731Y-72864097D01*
X178489471Y-72763697D01*
X178318703Y-72592929D01*
X178184532Y-72392127D01*
X178092114Y-72169010D01*
X178045000Y-71932152D01*
X178045000Y-71690648D01*
X178092114Y-71453790D01*
X178184532Y-71230673D01*
X178184593Y-71230582D01*
X178284273Y-71081400D01*
X178318703Y-71029871D01*
X178489471Y-70859103D01*
X178639731Y-70758703D01*
X178690271Y-70724933D01*
X178690273Y-70724932D01*
X178913390Y-70632514D01*
X179150248Y-70585400D01*
X179391752Y-70585400D01*
X179628610Y-70632514D01*
G37*
G36*
X185068610Y-70632514D02*
G01*
X185291727Y-70724932D01*
X185291729Y-70724933D01*
X185342269Y-70758703D01*
X185492529Y-70859103D01*
X185663297Y-71029871D01*
X185697727Y-71081400D01*
X185797408Y-71230582D01*
X185797468Y-71230673D01*
X185889886Y-71453790D01*
X185937000Y-71690648D01*
X185937000Y-71932152D01*
X185889886Y-72169010D01*
X185797468Y-72392127D01*
X185663297Y-72592929D01*
X185492529Y-72763697D01*
X185342269Y-72864097D01*
X185291729Y-72897867D01*
X185291728Y-72897868D01*
X185291727Y-72897868D01*
X185068610Y-72990286D01*
X184831752Y-73037400D01*
X184590248Y-73037400D01*
X184353390Y-72990286D01*
X184130273Y-72897868D01*
X184130272Y-72897868D01*
X184130271Y-72897867D01*
X184079731Y-72864097D01*
X183929471Y-72763697D01*
X183758703Y-72592929D01*
X183624532Y-72392127D01*
X183532114Y-72169010D01*
X183485000Y-71932152D01*
X183485000Y-71690648D01*
X183532114Y-71453790D01*
X183624532Y-71230673D01*
X183624593Y-71230582D01*
X183724273Y-71081400D01*
X183758703Y-71029871D01*
X183929471Y-70859103D01*
X184079731Y-70758703D01*
X184130271Y-70724933D01*
X184130273Y-70724932D01*
X184353390Y-70632514D01*
X184590248Y-70585400D01*
X184831752Y-70585400D01*
X185068610Y-70632514D01*
G37*
G36*
X92341000Y-72021000D02*
G01*
X90539000Y-72021000D01*
X90539000Y-70219000D01*
X92341000Y-70219000D01*
X92341000Y-72021000D01*
G37*
G36*
X81393512Y-70223927D02*
G01*
X81542812Y-70253624D01*
X81706784Y-70321544D01*
X81854354Y-70420147D01*
X81979853Y-70545646D01*
X82078456Y-70693216D01*
X82146376Y-70857188D01*
X82181000Y-71031259D01*
X82181000Y-71208741D01*
X82146376Y-71382812D01*
X82078456Y-71546784D01*
X81979853Y-71694354D01*
X81854354Y-71819853D01*
X81706784Y-71918456D01*
X81542812Y-71986376D01*
X81393512Y-72016073D01*
X81368742Y-72021000D01*
X81191258Y-72021000D01*
X81166488Y-72016073D01*
X81017188Y-71986376D01*
X80853216Y-71918456D01*
X80705646Y-71819853D01*
X80580147Y-71694354D01*
X80481544Y-71546784D01*
X80413624Y-71382812D01*
X80379000Y-71208741D01*
X80379000Y-71031259D01*
X80413624Y-70857188D01*
X80481544Y-70693216D01*
X80580147Y-70545646D01*
X80705646Y-70420147D01*
X80853216Y-70321544D01*
X81017188Y-70253624D01*
X81166488Y-70223927D01*
X81191258Y-70219000D01*
X81368742Y-70219000D01*
X81393512Y-70223927D01*
G37*
G36*
X86473512Y-70223927D02*
G01*
X86622812Y-70253624D01*
X86786784Y-70321544D01*
X86934354Y-70420147D01*
X87059853Y-70545646D01*
X87158456Y-70693216D01*
X87226376Y-70857188D01*
X87261000Y-71031259D01*
X87261000Y-71208741D01*
X87226376Y-71382812D01*
X87158456Y-71546784D01*
X87059853Y-71694354D01*
X86934354Y-71819853D01*
X86786784Y-71918456D01*
X86622812Y-71986376D01*
X86473512Y-72016073D01*
X86448742Y-72021000D01*
X86271258Y-72021000D01*
X86246488Y-72016073D01*
X86097188Y-71986376D01*
X85933216Y-71918456D01*
X85785646Y-71819853D01*
X85660147Y-71694354D01*
X85561544Y-71546784D01*
X85493624Y-71382812D01*
X85459000Y-71208741D01*
X85459000Y-71031259D01*
X85493624Y-70857188D01*
X85561544Y-70693216D01*
X85660147Y-70545646D01*
X85785646Y-70420147D01*
X85933216Y-70321544D01*
X86097188Y-70253624D01*
X86246488Y-70223927D01*
X86271258Y-70219000D01*
X86448742Y-70219000D01*
X86473512Y-70223927D01*
G37*
G36*
X188073512Y-70223927D02*
G01*
X188222812Y-70253624D01*
X188386784Y-70321544D01*
X188534354Y-70420147D01*
X188659853Y-70545646D01*
X188758456Y-70693216D01*
X188826376Y-70857188D01*
X188861000Y-71031259D01*
X188861000Y-71208741D01*
X188826376Y-71382812D01*
X188758456Y-71546784D01*
X188659853Y-71694354D01*
X188534354Y-71819853D01*
X188386784Y-71918456D01*
X188222812Y-71986376D01*
X188073512Y-72016073D01*
X188048742Y-72021000D01*
X187871258Y-72021000D01*
X187846488Y-72016073D01*
X187697188Y-71986376D01*
X187533216Y-71918456D01*
X187385646Y-71819853D01*
X187260147Y-71694354D01*
X187161544Y-71546784D01*
X187093624Y-71382812D01*
X187059000Y-71208741D01*
X187059000Y-71031259D01*
X187093624Y-70857188D01*
X187161544Y-70693216D01*
X187260147Y-70545646D01*
X187385646Y-70420147D01*
X187533216Y-70321544D01*
X187697188Y-70253624D01*
X187846488Y-70223927D01*
X187871258Y-70219000D01*
X188048742Y-70219000D01*
X188073512Y-70223927D01*
G37*
G36*
X89013512Y-70223927D02*
G01*
X89162812Y-70253624D01*
X89326784Y-70321544D01*
X89474354Y-70420147D01*
X89599853Y-70545646D01*
X89698456Y-70693216D01*
X89766376Y-70857188D01*
X89801000Y-71031259D01*
X89801000Y-71208741D01*
X89766376Y-71382812D01*
X89698456Y-71546784D01*
X89599853Y-71694354D01*
X89474354Y-71819853D01*
X89326784Y-71918456D01*
X89162812Y-71986376D01*
X89013512Y-72016073D01*
X88988742Y-72021000D01*
X88811258Y-72021000D01*
X88786488Y-72016073D01*
X88637188Y-71986376D01*
X88473216Y-71918456D01*
X88325646Y-71819853D01*
X88200147Y-71694354D01*
X88101544Y-71546784D01*
X88033624Y-71382812D01*
X87999000Y-71208741D01*
X87999000Y-71031259D01*
X88033624Y-70857188D01*
X88101544Y-70693216D01*
X88200147Y-70545646D01*
X88325646Y-70420147D01*
X88473216Y-70321544D01*
X88637188Y-70253624D01*
X88786488Y-70223927D01*
X88811258Y-70219000D01*
X88988742Y-70219000D01*
X89013512Y-70223927D01*
G37*
G36*
X190613512Y-70223927D02*
G01*
X190762812Y-70253624D01*
X190926784Y-70321544D01*
X191074354Y-70420147D01*
X191199853Y-70545646D01*
X191298456Y-70693216D01*
X191366376Y-70857188D01*
X191401000Y-71031259D01*
X191401000Y-71208741D01*
X191366376Y-71382812D01*
X191298456Y-71546784D01*
X191199853Y-71694354D01*
X191074354Y-71819853D01*
X190926784Y-71918456D01*
X190762812Y-71986376D01*
X190613512Y-72016073D01*
X190588742Y-72021000D01*
X190411258Y-72021000D01*
X190386488Y-72016073D01*
X190237188Y-71986376D01*
X190073216Y-71918456D01*
X189925646Y-71819853D01*
X189800147Y-71694354D01*
X189701544Y-71546784D01*
X189633624Y-71382812D01*
X189599000Y-71208741D01*
X189599000Y-71031259D01*
X189633624Y-70857188D01*
X189701544Y-70693216D01*
X189800147Y-70545646D01*
X189925646Y-70420147D01*
X190073216Y-70321544D01*
X190237188Y-70253624D01*
X190386488Y-70223927D01*
X190411258Y-70219000D01*
X190588742Y-70219000D01*
X190613512Y-70223927D01*
G37*
G36*
X83933512Y-70223927D02*
G01*
X84082812Y-70253624D01*
X84246784Y-70321544D01*
X84394354Y-70420147D01*
X84519853Y-70545646D01*
X84618456Y-70693216D01*
X84686376Y-70857188D01*
X84721000Y-71031259D01*
X84721000Y-71208741D01*
X84686376Y-71382812D01*
X84618456Y-71546784D01*
X84519853Y-71694354D01*
X84394354Y-71819853D01*
X84246784Y-71918456D01*
X84082812Y-71986376D01*
X83933512Y-72016073D01*
X83908742Y-72021000D01*
X83731258Y-72021000D01*
X83706488Y-72016073D01*
X83557188Y-71986376D01*
X83393216Y-71918456D01*
X83245646Y-71819853D01*
X83120147Y-71694354D01*
X83021544Y-71546784D01*
X82953624Y-71382812D01*
X82919000Y-71208741D01*
X82919000Y-71031259D01*
X82953624Y-70857188D01*
X83021544Y-70693216D01*
X83120147Y-70545646D01*
X83245646Y-70420147D01*
X83393216Y-70321544D01*
X83557188Y-70253624D01*
X83706488Y-70223927D01*
X83731258Y-70219000D01*
X83908742Y-70219000D01*
X83933512Y-70223927D01*
G37*
G36*
X182390182Y-70331411D02*
G01*
X182533631Y-70374926D01*
X182665835Y-70445590D01*
X182781712Y-70540688D01*
X182876810Y-70656565D01*
X182947474Y-70788769D01*
X182990989Y-70932218D01*
X183005682Y-71081400D01*
X182990989Y-71230582D01*
X182947474Y-71374031D01*
X182876810Y-71506235D01*
X182781712Y-71622112D01*
X182665835Y-71717210D01*
X182533631Y-71787874D01*
X182390182Y-71831389D01*
X182278384Y-71842400D01*
X181703616Y-71842400D01*
X181591818Y-71831389D01*
X181448369Y-71787874D01*
X181316165Y-71717210D01*
X181200288Y-71622112D01*
X181105190Y-71506235D01*
X181034526Y-71374031D01*
X180991011Y-71230582D01*
X180976318Y-71081400D01*
X180991011Y-70932218D01*
X181034526Y-70788769D01*
X181105190Y-70656565D01*
X181200288Y-70540688D01*
X181316165Y-70445590D01*
X181448369Y-70374926D01*
X181591818Y-70331411D01*
X181703616Y-70320400D01*
X182278384Y-70320400D01*
X182390182Y-70331411D01*
G37*
G36*
X182390182Y-68331411D02*
G01*
X182533631Y-68374926D01*
X182665835Y-68445590D01*
X182781712Y-68540688D01*
X182876810Y-68656565D01*
X182947474Y-68788769D01*
X182990989Y-68932218D01*
X183005682Y-69081400D01*
X182990989Y-69230582D01*
X182947474Y-69374031D01*
X182876810Y-69506235D01*
X182781712Y-69622112D01*
X182665835Y-69717210D01*
X182533631Y-69787874D01*
X182390182Y-69831389D01*
X182278384Y-69842400D01*
X181703616Y-69842400D01*
X181591818Y-69831389D01*
X181448369Y-69787874D01*
X181316165Y-69717210D01*
X181200288Y-69622112D01*
X181105190Y-69506235D01*
X181034526Y-69374031D01*
X180991011Y-69230582D01*
X180976318Y-69081400D01*
X180991011Y-68932218D01*
X181034526Y-68788769D01*
X181105190Y-68656565D01*
X181200288Y-68540688D01*
X181316165Y-68445590D01*
X181448369Y-68374926D01*
X181591818Y-68331411D01*
X181703616Y-68320400D01*
X182278384Y-68320400D01*
X182390182Y-68331411D01*
G37*
G36*
X173721192Y-67068258D02*
G01*
X173967059Y-67170099D01*
X174078448Y-67244527D01*
X174188331Y-67317949D01*
X174376511Y-67506129D01*
X174449933Y-67616012D01*
X174524361Y-67727401D01*
X174626202Y-67973268D01*
X174678120Y-68234278D01*
X174678120Y-68500402D01*
X174626202Y-68761412D01*
X174524361Y-69007279D01*
X174449933Y-69118668D01*
X174376511Y-69228551D01*
X174188331Y-69416731D01*
X174143964Y-69446376D01*
X173967059Y-69564581D01*
X173967058Y-69564582D01*
X173967057Y-69564582D01*
X173721192Y-69666422D01*
X173460183Y-69718340D01*
X173194057Y-69718340D01*
X172933048Y-69666422D01*
X172687183Y-69564582D01*
X172687182Y-69564582D01*
X172687181Y-69564581D01*
X172510276Y-69446376D01*
X172465909Y-69416731D01*
X172277729Y-69228551D01*
X172204307Y-69118668D01*
X172129879Y-69007279D01*
X172028038Y-68761412D01*
X171976120Y-68500402D01*
X171976120Y-68234278D01*
X172028038Y-67973268D01*
X172129879Y-67727401D01*
X172204307Y-67616012D01*
X172277729Y-67506129D01*
X172465909Y-67317949D01*
X172575792Y-67244527D01*
X172687181Y-67170099D01*
X172933048Y-67068258D01*
X173194057Y-67016340D01*
X173460183Y-67016340D01*
X173721192Y-67068258D01*
G37*
G36*
X158171192Y-67068258D02*
G01*
X158417059Y-67170099D01*
X158528448Y-67244527D01*
X158638331Y-67317949D01*
X158826511Y-67506129D01*
X158899933Y-67616012D01*
X158974361Y-67727401D01*
X159076202Y-67973268D01*
X159128120Y-68234278D01*
X159128120Y-68500402D01*
X159076202Y-68761412D01*
X158974361Y-69007279D01*
X158899933Y-69118668D01*
X158826511Y-69228551D01*
X158638331Y-69416731D01*
X158593964Y-69446376D01*
X158417059Y-69564581D01*
X158417058Y-69564582D01*
X158417057Y-69564582D01*
X158171192Y-69666422D01*
X157910183Y-69718340D01*
X157644057Y-69718340D01*
X157383048Y-69666422D01*
X157137183Y-69564582D01*
X157137182Y-69564582D01*
X157137181Y-69564581D01*
X156960276Y-69446376D01*
X156915909Y-69416731D01*
X156727729Y-69228551D01*
X156654307Y-69118668D01*
X156579879Y-69007279D01*
X156478038Y-68761412D01*
X156426120Y-68500402D01*
X156426120Y-68234278D01*
X156478038Y-67973268D01*
X156579879Y-67727401D01*
X156654307Y-67616012D01*
X156727729Y-67506129D01*
X156915909Y-67317949D01*
X157025792Y-67244527D01*
X157137181Y-67170099D01*
X157383048Y-67068258D01*
X157644057Y-67016340D01*
X157910183Y-67016340D01*
X158171192Y-67068258D01*
G37*
G36*
X86473512Y-67683927D02*
G01*
X86622812Y-67713624D01*
X86786784Y-67781544D01*
X86934354Y-67880147D01*
X87059853Y-68005646D01*
X87158456Y-68153216D01*
X87226376Y-68317188D01*
X87261000Y-68491259D01*
X87261000Y-68668741D01*
X87226376Y-68842812D01*
X87158456Y-69006784D01*
X87059853Y-69154354D01*
X86934354Y-69279853D01*
X86786784Y-69378456D01*
X86622812Y-69446376D01*
X86473512Y-69476073D01*
X86448742Y-69481000D01*
X86271258Y-69481000D01*
X86246488Y-69476073D01*
X86097188Y-69446376D01*
X85933216Y-69378456D01*
X85785646Y-69279853D01*
X85660147Y-69154354D01*
X85561544Y-69006784D01*
X85493624Y-68842812D01*
X85459000Y-68668741D01*
X85459000Y-68491259D01*
X85493624Y-68317188D01*
X85561544Y-68153216D01*
X85660147Y-68005646D01*
X85785646Y-67880147D01*
X85933216Y-67781544D01*
X86097188Y-67713624D01*
X86246488Y-67683927D01*
X86271258Y-67679000D01*
X86448742Y-67679000D01*
X86473512Y-67683927D01*
G37*
G36*
X83933512Y-67683927D02*
G01*
X84082812Y-67713624D01*
X84246784Y-67781544D01*
X84394354Y-67880147D01*
X84519853Y-68005646D01*
X84618456Y-68153216D01*
X84686376Y-68317188D01*
X84721000Y-68491259D01*
X84721000Y-68668741D01*
X84686376Y-68842812D01*
X84618456Y-69006784D01*
X84519853Y-69154354D01*
X84394354Y-69279853D01*
X84246784Y-69378456D01*
X84082812Y-69446376D01*
X83933512Y-69476073D01*
X83908742Y-69481000D01*
X83731258Y-69481000D01*
X83706488Y-69476073D01*
X83557188Y-69446376D01*
X83393216Y-69378456D01*
X83245646Y-69279853D01*
X83120147Y-69154354D01*
X83021544Y-69006784D01*
X82953624Y-68842812D01*
X82919000Y-68668741D01*
X82919000Y-68491259D01*
X82953624Y-68317188D01*
X83021544Y-68153216D01*
X83120147Y-68005646D01*
X83245646Y-67880147D01*
X83393216Y-67781544D01*
X83557188Y-67713624D01*
X83706488Y-67683927D01*
X83731258Y-67679000D01*
X83908742Y-67679000D01*
X83933512Y-67683927D01*
G37*
G36*
X91553512Y-67683927D02*
G01*
X91702812Y-67713624D01*
X91866784Y-67781544D01*
X92014354Y-67880147D01*
X92139853Y-68005646D01*
X92238456Y-68153216D01*
X92306376Y-68317188D01*
X92341000Y-68491259D01*
X92341000Y-68668741D01*
X92306376Y-68842812D01*
X92238456Y-69006784D01*
X92139853Y-69154354D01*
X92014354Y-69279853D01*
X91866784Y-69378456D01*
X91702812Y-69446376D01*
X91553512Y-69476073D01*
X91528742Y-69481000D01*
X91351258Y-69481000D01*
X91326488Y-69476073D01*
X91177188Y-69446376D01*
X91013216Y-69378456D01*
X90865646Y-69279853D01*
X90740147Y-69154354D01*
X90641544Y-69006784D01*
X90573624Y-68842812D01*
X90539000Y-68668741D01*
X90539000Y-68491259D01*
X90573624Y-68317188D01*
X90641544Y-68153216D01*
X90740147Y-68005646D01*
X90865646Y-67880147D01*
X91013216Y-67781544D01*
X91177188Y-67713624D01*
X91326488Y-67683927D01*
X91351258Y-67679000D01*
X91528742Y-67679000D01*
X91553512Y-67683927D01*
G37*
G36*
X81393512Y-67683927D02*
G01*
X81542812Y-67713624D01*
X81706784Y-67781544D01*
X81854354Y-67880147D01*
X81979853Y-68005646D01*
X82078456Y-68153216D01*
X82146376Y-68317188D01*
X82181000Y-68491259D01*
X82181000Y-68668741D01*
X82146376Y-68842812D01*
X82078456Y-69006784D01*
X81979853Y-69154354D01*
X81854354Y-69279853D01*
X81706784Y-69378456D01*
X81542812Y-69446376D01*
X81393512Y-69476073D01*
X81368742Y-69481000D01*
X81191258Y-69481000D01*
X81166488Y-69476073D01*
X81017188Y-69446376D01*
X80853216Y-69378456D01*
X80705646Y-69279853D01*
X80580147Y-69154354D01*
X80481544Y-69006784D01*
X80413624Y-68842812D01*
X80379000Y-68668741D01*
X80379000Y-68491259D01*
X80413624Y-68317188D01*
X80481544Y-68153216D01*
X80580147Y-68005646D01*
X80705646Y-67880147D01*
X80853216Y-67781544D01*
X81017188Y-67713624D01*
X81166488Y-67683927D01*
X81191258Y-67679000D01*
X81368742Y-67679000D01*
X81393512Y-67683927D01*
G37*
G36*
X89013512Y-67683927D02*
G01*
X89162812Y-67713624D01*
X89326784Y-67781544D01*
X89474354Y-67880147D01*
X89599853Y-68005646D01*
X89698456Y-68153216D01*
X89766376Y-68317188D01*
X89801000Y-68491259D01*
X89801000Y-68668741D01*
X89766376Y-68842812D01*
X89698456Y-69006784D01*
X89599853Y-69154354D01*
X89474354Y-69279853D01*
X89326784Y-69378456D01*
X89162812Y-69446376D01*
X89013512Y-69476073D01*
X88988742Y-69481000D01*
X88811258Y-69481000D01*
X88786488Y-69476073D01*
X88637188Y-69446376D01*
X88473216Y-69378456D01*
X88325646Y-69279853D01*
X88200147Y-69154354D01*
X88101544Y-69006784D01*
X88033624Y-68842812D01*
X87999000Y-68668741D01*
X87999000Y-68491259D01*
X88033624Y-68317188D01*
X88101544Y-68153216D01*
X88200147Y-68005646D01*
X88325646Y-67880147D01*
X88473216Y-67781544D01*
X88637188Y-67713624D01*
X88786488Y-67683927D01*
X88811258Y-67679000D01*
X88988742Y-67679000D01*
X89013512Y-67683927D01*
G37*
G36*
X188073512Y-67683927D02*
G01*
X188222812Y-67713624D01*
X188386784Y-67781544D01*
X188534354Y-67880147D01*
X188659853Y-68005646D01*
X188758456Y-68153216D01*
X188826376Y-68317188D01*
X188861000Y-68491259D01*
X188861000Y-68668741D01*
X188826376Y-68842812D01*
X188758456Y-69006784D01*
X188659853Y-69154354D01*
X188534354Y-69279853D01*
X188386784Y-69378456D01*
X188222812Y-69446376D01*
X188073512Y-69476073D01*
X188048742Y-69481000D01*
X187871258Y-69481000D01*
X187846488Y-69476073D01*
X187697188Y-69446376D01*
X187533216Y-69378456D01*
X187385646Y-69279853D01*
X187260147Y-69154354D01*
X187161544Y-69006784D01*
X187093624Y-68842812D01*
X187059000Y-68668741D01*
X187059000Y-68491259D01*
X187093624Y-68317188D01*
X187161544Y-68153216D01*
X187260147Y-68005646D01*
X187385646Y-67880147D01*
X187533216Y-67781544D01*
X187697188Y-67713624D01*
X187846488Y-67683927D01*
X187871258Y-67679000D01*
X188048742Y-67679000D01*
X188073512Y-67683927D01*
G37*
G36*
X190613512Y-67683927D02*
G01*
X190762812Y-67713624D01*
X190926784Y-67781544D01*
X191074354Y-67880147D01*
X191199853Y-68005646D01*
X191298456Y-68153216D01*
X191366376Y-68317188D01*
X191401000Y-68491259D01*
X191401000Y-68668741D01*
X191366376Y-68842812D01*
X191298456Y-69006784D01*
X191199853Y-69154354D01*
X191074354Y-69279853D01*
X190926784Y-69378456D01*
X190762812Y-69446376D01*
X190613512Y-69476073D01*
X190588742Y-69481000D01*
X190411258Y-69481000D01*
X190386488Y-69476073D01*
X190237188Y-69446376D01*
X190073216Y-69378456D01*
X189925646Y-69279853D01*
X189800147Y-69154354D01*
X189701544Y-69006784D01*
X189633624Y-68842812D01*
X189599000Y-68668741D01*
X189599000Y-68491259D01*
X189633624Y-68317188D01*
X189701544Y-68153216D01*
X189800147Y-68005646D01*
X189925646Y-67880147D01*
X190073216Y-67781544D01*
X190237188Y-67713624D01*
X190386488Y-67683927D01*
X190411258Y-67679000D01*
X190588742Y-67679000D01*
X190613512Y-67683927D01*
G37*
G36*
X182390182Y-66331411D02*
G01*
X182533631Y-66374926D01*
X182665835Y-66445590D01*
X182781712Y-66540688D01*
X182876810Y-66656565D01*
X182947474Y-66788769D01*
X182990989Y-66932218D01*
X183005682Y-67081400D01*
X182990989Y-67230582D01*
X182947474Y-67374031D01*
X182876810Y-67506235D01*
X182781712Y-67622112D01*
X182665835Y-67717210D01*
X182533631Y-67787874D01*
X182390182Y-67831389D01*
X182278384Y-67842400D01*
X181703616Y-67842400D01*
X181591818Y-67831389D01*
X181448369Y-67787874D01*
X181316165Y-67717210D01*
X181200288Y-67622112D01*
X181105190Y-67506235D01*
X181034526Y-67374031D01*
X180991011Y-67230582D01*
X180976318Y-67081400D01*
X180991011Y-66932218D01*
X181034526Y-66788769D01*
X181105190Y-66656565D01*
X181200288Y-66540688D01*
X181316165Y-66445590D01*
X181448369Y-66374926D01*
X181591818Y-66331411D01*
X181703616Y-66320400D01*
X182278384Y-66320400D01*
X182390182Y-66331411D01*
G37*
G36*
X188073512Y-65143927D02*
G01*
X188222812Y-65173624D01*
X188386784Y-65241544D01*
X188534354Y-65340147D01*
X188659853Y-65465646D01*
X188758456Y-65613216D01*
X188826376Y-65777188D01*
X188861000Y-65951259D01*
X188861000Y-66128741D01*
X188826376Y-66302812D01*
X188758456Y-66466784D01*
X188659853Y-66614354D01*
X188534354Y-66739853D01*
X188386784Y-66838456D01*
X188222812Y-66906376D01*
X188073512Y-66936073D01*
X188048742Y-66941000D01*
X187871258Y-66941000D01*
X187846488Y-66936073D01*
X187697188Y-66906376D01*
X187533216Y-66838456D01*
X187385646Y-66739853D01*
X187260147Y-66614354D01*
X187161544Y-66466784D01*
X187093624Y-66302812D01*
X187059000Y-66128741D01*
X187059000Y-65951259D01*
X187093624Y-65777188D01*
X187161544Y-65613216D01*
X187260147Y-65465646D01*
X187385646Y-65340147D01*
X187533216Y-65241544D01*
X187697188Y-65173624D01*
X187846488Y-65143927D01*
X187871258Y-65139000D01*
X188048742Y-65139000D01*
X188073512Y-65143927D01*
G37*
G36*
X190613512Y-65143927D02*
G01*
X190762812Y-65173624D01*
X190926784Y-65241544D01*
X191074354Y-65340147D01*
X191199853Y-65465646D01*
X191298456Y-65613216D01*
X191366376Y-65777188D01*
X191401000Y-65951259D01*
X191401000Y-66128741D01*
X191366376Y-66302812D01*
X191298456Y-66466784D01*
X191199853Y-66614354D01*
X191074354Y-66739853D01*
X190926784Y-66838456D01*
X190762812Y-66906376D01*
X190613512Y-66936073D01*
X190588742Y-66941000D01*
X190411258Y-66941000D01*
X190386488Y-66936073D01*
X190237188Y-66906376D01*
X190073216Y-66838456D01*
X189925646Y-66739853D01*
X189800147Y-66614354D01*
X189701544Y-66466784D01*
X189633624Y-66302812D01*
X189599000Y-66128741D01*
X189599000Y-65951259D01*
X189633624Y-65777188D01*
X189701544Y-65613216D01*
X189800147Y-65465646D01*
X189925646Y-65340147D01*
X190073216Y-65241544D01*
X190237188Y-65173624D01*
X190386488Y-65143927D01*
X190411258Y-65139000D01*
X190588742Y-65139000D01*
X190613512Y-65143927D01*
G37*
G36*
X162108120Y-66078340D02*
G01*
X160106120Y-66078340D01*
X160106120Y-64076340D01*
X162108120Y-64076340D01*
X162108120Y-66078340D01*
G37*
G36*
X163939101Y-64114808D02*
G01*
X164121271Y-64190266D01*
X164285220Y-64299813D01*
X164424647Y-64439240D01*
X164534194Y-64603189D01*
X164609652Y-64785359D01*
X164648120Y-64978750D01*
X164648120Y-65175930D01*
X164609652Y-65369321D01*
X164534194Y-65551491D01*
X164424647Y-65715440D01*
X164285220Y-65854867D01*
X164121271Y-65964414D01*
X163939101Y-66039872D01*
X163745711Y-66078340D01*
X163548529Y-66078340D01*
X163355139Y-66039872D01*
X163172969Y-65964414D01*
X163009020Y-65854867D01*
X162869593Y-65715440D01*
X162760046Y-65551491D01*
X162684588Y-65369321D01*
X162646120Y-65175930D01*
X162646120Y-64978750D01*
X162684588Y-64785359D01*
X162760046Y-64603189D01*
X162869593Y-64439240D01*
X163009020Y-64299813D01*
X163172969Y-64190266D01*
X163355139Y-64114808D01*
X163548529Y-64076340D01*
X163745711Y-64076340D01*
X163939101Y-64114808D01*
G37*
G36*
X166479101Y-64114808D02*
G01*
X166661271Y-64190266D01*
X166825220Y-64299813D01*
X166964647Y-64439240D01*
X167074194Y-64603189D01*
X167149652Y-64785359D01*
X167188120Y-64978750D01*
X167188120Y-65175930D01*
X167149652Y-65369321D01*
X167074194Y-65551491D01*
X166964647Y-65715440D01*
X166825220Y-65854867D01*
X166661271Y-65964414D01*
X166479101Y-66039872D01*
X166285711Y-66078340D01*
X166088529Y-66078340D01*
X165895139Y-66039872D01*
X165712969Y-65964414D01*
X165549020Y-65854867D01*
X165409593Y-65715440D01*
X165300046Y-65551491D01*
X165224588Y-65369321D01*
X165186120Y-65175930D01*
X165186120Y-64978750D01*
X165224588Y-64785359D01*
X165300046Y-64603189D01*
X165409593Y-64439240D01*
X165549020Y-64299813D01*
X165712969Y-64190266D01*
X165895139Y-64114808D01*
X166088529Y-64076340D01*
X166285711Y-64076340D01*
X166479101Y-64114808D01*
G37*
G36*
X169019101Y-64114808D02*
G01*
X169201271Y-64190266D01*
X169365220Y-64299813D01*
X169504647Y-64439240D01*
X169614194Y-64603189D01*
X169689652Y-64785359D01*
X169728120Y-64978750D01*
X169728120Y-65175930D01*
X169689652Y-65369321D01*
X169614194Y-65551491D01*
X169504647Y-65715440D01*
X169365220Y-65854867D01*
X169201271Y-65964414D01*
X169019101Y-66039872D01*
X168825711Y-66078340D01*
X168628529Y-66078340D01*
X168435139Y-66039872D01*
X168252969Y-65964414D01*
X168089020Y-65854867D01*
X167949593Y-65715440D01*
X167840046Y-65551491D01*
X167764588Y-65369321D01*
X167726120Y-65175930D01*
X167726120Y-64978750D01*
X167764588Y-64785359D01*
X167840046Y-64603189D01*
X167949593Y-64439240D01*
X168089020Y-64299813D01*
X168252969Y-64190266D01*
X168435139Y-64114808D01*
X168628529Y-64076340D01*
X168825711Y-64076340D01*
X169019101Y-64114808D01*
G37*
G36*
X179628610Y-63632514D02*
G01*
X179851727Y-63724932D01*
X179851729Y-63724933D01*
X179902269Y-63758703D01*
X180052529Y-63859103D01*
X180223297Y-64029871D01*
X180357468Y-64230673D01*
X180449886Y-64453790D01*
X180497000Y-64690648D01*
X180497000Y-64932152D01*
X180449886Y-65169010D01*
X180357468Y-65392127D01*
X180223297Y-65592929D01*
X180052529Y-65763697D01*
X179951220Y-65831389D01*
X179851729Y-65897867D01*
X179851728Y-65897868D01*
X179851727Y-65897868D01*
X179628610Y-65990286D01*
X179391752Y-66037400D01*
X179150248Y-66037400D01*
X178913390Y-65990286D01*
X178690273Y-65897868D01*
X178690272Y-65897868D01*
X178690271Y-65897867D01*
X178590780Y-65831389D01*
X178489471Y-65763697D01*
X178318703Y-65592929D01*
X178184532Y-65392127D01*
X178092114Y-65169010D01*
X178045000Y-64932152D01*
X178045000Y-64690648D01*
X178092114Y-64453790D01*
X178184532Y-64230673D01*
X178318703Y-64029871D01*
X178489471Y-63859103D01*
X178639731Y-63758703D01*
X178690271Y-63724933D01*
X178690273Y-63724932D01*
X178913390Y-63632514D01*
X179150248Y-63585400D01*
X179391752Y-63585400D01*
X179628610Y-63632514D01*
G37*
G36*
X185068610Y-63632514D02*
G01*
X185291727Y-63724932D01*
X185291729Y-63724933D01*
X185342269Y-63758703D01*
X185492529Y-63859103D01*
X185663297Y-64029871D01*
X185797468Y-64230673D01*
X185889886Y-64453790D01*
X185937000Y-64690648D01*
X185937000Y-64932152D01*
X185889886Y-65169010D01*
X185797468Y-65392127D01*
X185663297Y-65592929D01*
X185492529Y-65763697D01*
X185391220Y-65831389D01*
X185291729Y-65897867D01*
X185291728Y-65897868D01*
X185291727Y-65897868D01*
X185068610Y-65990286D01*
X184831752Y-66037400D01*
X184590248Y-66037400D01*
X184353390Y-65990286D01*
X184130273Y-65897868D01*
X184130272Y-65897868D01*
X184130271Y-65897867D01*
X184030780Y-65831389D01*
X183929471Y-65763697D01*
X183758703Y-65592929D01*
X183624532Y-65392127D01*
X183532114Y-65169010D01*
X183485000Y-64932152D01*
X183485000Y-64690648D01*
X183532114Y-64453790D01*
X183624532Y-64230673D01*
X183758703Y-64029871D01*
X183929471Y-63859103D01*
X184079731Y-63758703D01*
X184130271Y-63724933D01*
X184130273Y-63724932D01*
X184353390Y-63632514D01*
X184590248Y-63585400D01*
X184831752Y-63585400D01*
X185068610Y-63632514D01*
G37*
G36*
X182390182Y-64331411D02*
G01*
X182533631Y-64374926D01*
X182665835Y-64445590D01*
X182781712Y-64540688D01*
X182876810Y-64656565D01*
X182947474Y-64788769D01*
X182990989Y-64932218D01*
X183005682Y-65081400D01*
X182990989Y-65230582D01*
X182947474Y-65374031D01*
X182876810Y-65506235D01*
X182781712Y-65622112D01*
X182665835Y-65717210D01*
X182533631Y-65787874D01*
X182390182Y-65831389D01*
X182278384Y-65842400D01*
X181703616Y-65842400D01*
X181591818Y-65831389D01*
X181448369Y-65787874D01*
X181316165Y-65717210D01*
X181200288Y-65622112D01*
X181105190Y-65506235D01*
X181034526Y-65374031D01*
X180991011Y-65230582D01*
X180976318Y-65081400D01*
X180991011Y-64932218D01*
X181034526Y-64788769D01*
X181105190Y-64656565D01*
X181200288Y-64540688D01*
X181316165Y-64445590D01*
X181448369Y-64374926D01*
X181591818Y-64331411D01*
X181703616Y-64320400D01*
X182278384Y-64320400D01*
X182390182Y-64331411D01*
G37*
G36*
X190613512Y-62603927D02*
G01*
X190762812Y-62633624D01*
X190926784Y-62701544D01*
X191074354Y-62800147D01*
X191199853Y-62925646D01*
X191298456Y-63073216D01*
X191366376Y-63237188D01*
X191401000Y-63411259D01*
X191401000Y-63588741D01*
X191366376Y-63762812D01*
X191298456Y-63926784D01*
X191199853Y-64074354D01*
X191074354Y-64199853D01*
X190926784Y-64298456D01*
X190762812Y-64366376D01*
X190613512Y-64396073D01*
X190588742Y-64401000D01*
X190411258Y-64401000D01*
X190386488Y-64396073D01*
X190237188Y-64366376D01*
X190073216Y-64298456D01*
X189925646Y-64199853D01*
X189800147Y-64074354D01*
X189701544Y-63926784D01*
X189633624Y-63762812D01*
X189599000Y-63588741D01*
X189599000Y-63411259D01*
X189633624Y-63237188D01*
X189701544Y-63073216D01*
X189800147Y-62925646D01*
X189925646Y-62800147D01*
X190073216Y-62701544D01*
X190237188Y-62633624D01*
X190386488Y-62603927D01*
X190411258Y-62599000D01*
X190588742Y-62599000D01*
X190613512Y-62603927D01*
G37*
G36*
X188073512Y-62603927D02*
G01*
X188222812Y-62633624D01*
X188386784Y-62701544D01*
X188534354Y-62800147D01*
X188659853Y-62925646D01*
X188758456Y-63073216D01*
X188826376Y-63237188D01*
X188861000Y-63411259D01*
X188861000Y-63588741D01*
X188826376Y-63762812D01*
X188758456Y-63926784D01*
X188659853Y-64074354D01*
X188534354Y-64199853D01*
X188386784Y-64298456D01*
X188222812Y-64366376D01*
X188073512Y-64396073D01*
X188048742Y-64401000D01*
X187871258Y-64401000D01*
X187846488Y-64396073D01*
X187697188Y-64366376D01*
X187533216Y-64298456D01*
X187385646Y-64199853D01*
X187260147Y-64074354D01*
X187161544Y-63926784D01*
X187093624Y-63762812D01*
X187059000Y-63588741D01*
X187059000Y-63411259D01*
X187093624Y-63237188D01*
X187161544Y-63073216D01*
X187260147Y-62925646D01*
X187385646Y-62800147D01*
X187533216Y-62701544D01*
X187697188Y-62633624D01*
X187846488Y-62603927D01*
X187871258Y-62599000D01*
X188048742Y-62599000D01*
X188073512Y-62603927D01*
G37*
G36*
X162572405Y-61555574D02*
G01*
X162669101Y-61574808D01*
X162851271Y-61650266D01*
X163015220Y-61759813D01*
X163154647Y-61899240D01*
X163264194Y-62063189D01*
X163339652Y-62245359D01*
X163378120Y-62438750D01*
X163378120Y-62635930D01*
X163339652Y-62829321D01*
X163264194Y-63011491D01*
X163154647Y-63175440D01*
X163015220Y-63314867D01*
X162851271Y-63424414D01*
X162669101Y-63499872D01*
X162572405Y-63519106D01*
X162475711Y-63538340D01*
X162278529Y-63538340D01*
X162181835Y-63519106D01*
X162085139Y-63499872D01*
X161902969Y-63424414D01*
X161739020Y-63314867D01*
X161599593Y-63175440D01*
X161490046Y-63011491D01*
X161414588Y-62829321D01*
X161376120Y-62635930D01*
X161376120Y-62438750D01*
X161414588Y-62245359D01*
X161490046Y-62063189D01*
X161599593Y-61899240D01*
X161739020Y-61759813D01*
X161902969Y-61650266D01*
X162085139Y-61574808D01*
X162181835Y-61555574D01*
X162278529Y-61536340D01*
X162475711Y-61536340D01*
X162572405Y-61555574D01*
G37*
G36*
X167652405Y-61555574D02*
G01*
X167749101Y-61574808D01*
X167931271Y-61650266D01*
X168095220Y-61759813D01*
X168234647Y-61899240D01*
X168344194Y-62063189D01*
X168419652Y-62245359D01*
X168458120Y-62438750D01*
X168458120Y-62635930D01*
X168419652Y-62829321D01*
X168344194Y-63011491D01*
X168234647Y-63175440D01*
X168095220Y-63314867D01*
X167931271Y-63424414D01*
X167749101Y-63499872D01*
X167652405Y-63519106D01*
X167555711Y-63538340D01*
X167358529Y-63538340D01*
X167261835Y-63519106D01*
X167165139Y-63499872D01*
X166982969Y-63424414D01*
X166819020Y-63314867D01*
X166679593Y-63175440D01*
X166570046Y-63011491D01*
X166494588Y-62829321D01*
X166456120Y-62635930D01*
X166456120Y-62438750D01*
X166494588Y-62245359D01*
X166570046Y-62063189D01*
X166679593Y-61899240D01*
X166819020Y-61759813D01*
X166982969Y-61650266D01*
X167165139Y-61574808D01*
X167261835Y-61555574D01*
X167358529Y-61536340D01*
X167555711Y-61536340D01*
X167652405Y-61555574D01*
G37*
G36*
X165112405Y-61555574D02*
G01*
X165209101Y-61574808D01*
X165391271Y-61650266D01*
X165555220Y-61759813D01*
X165694647Y-61899240D01*
X165804194Y-62063189D01*
X165879652Y-62245359D01*
X165918120Y-62438750D01*
X165918120Y-62635930D01*
X165879652Y-62829321D01*
X165804194Y-63011491D01*
X165694647Y-63175440D01*
X165555220Y-63314867D01*
X165391271Y-63424414D01*
X165209101Y-63499872D01*
X165112405Y-63519106D01*
X165015711Y-63538340D01*
X164818529Y-63538340D01*
X164721835Y-63519106D01*
X164625139Y-63499872D01*
X164442969Y-63424414D01*
X164279020Y-63314867D01*
X164139593Y-63175440D01*
X164030046Y-63011491D01*
X163954588Y-62829321D01*
X163916120Y-62635930D01*
X163916120Y-62438750D01*
X163954588Y-62245359D01*
X164030046Y-62063189D01*
X164139593Y-61899240D01*
X164279020Y-61759813D01*
X164442969Y-61650266D01*
X164625139Y-61574808D01*
X164721835Y-61555574D01*
X164818529Y-61536340D01*
X165015711Y-61536340D01*
X165112405Y-61555574D01*
G37*
G36*
X170192405Y-61555574D02*
G01*
X170289101Y-61574808D01*
X170471271Y-61650266D01*
X170635220Y-61759813D01*
X170774647Y-61899240D01*
X170884194Y-62063189D01*
X170959652Y-62245359D01*
X170998120Y-62438750D01*
X170998120Y-62635930D01*
X170959652Y-62829321D01*
X170884194Y-63011491D01*
X170774647Y-63175440D01*
X170635220Y-63314867D01*
X170471271Y-63424414D01*
X170289101Y-63499872D01*
X170192405Y-63519106D01*
X170095711Y-63538340D01*
X169898529Y-63538340D01*
X169801835Y-63519106D01*
X169705139Y-63499872D01*
X169522969Y-63424414D01*
X169359020Y-63314867D01*
X169219593Y-63175440D01*
X169110046Y-63011491D01*
X169034588Y-62829321D01*
X168996120Y-62635930D01*
X168996120Y-62438750D01*
X169034588Y-62245359D01*
X169110046Y-62063189D01*
X169219593Y-61899240D01*
X169359020Y-61759813D01*
X169522969Y-61650266D01*
X169705139Y-61574808D01*
X169801835Y-61555574D01*
X169898529Y-61536340D01*
X170095711Y-61536340D01*
X170192405Y-61555574D01*
G37*
G36*
X190613512Y-60063927D02*
G01*
X190762812Y-60093624D01*
X190926784Y-60161544D01*
X191074354Y-60260147D01*
X191199853Y-60385646D01*
X191298456Y-60533216D01*
X191366376Y-60697188D01*
X191401000Y-60871259D01*
X191401000Y-61048741D01*
X191366376Y-61222812D01*
X191298456Y-61386784D01*
X191199853Y-61534354D01*
X191074354Y-61659853D01*
X190926784Y-61758456D01*
X190762812Y-61826376D01*
X190613512Y-61856073D01*
X190588742Y-61861000D01*
X190411258Y-61861000D01*
X190386488Y-61856073D01*
X190237188Y-61826376D01*
X190073216Y-61758456D01*
X189925646Y-61659853D01*
X189800147Y-61534354D01*
X189701544Y-61386784D01*
X189633624Y-61222812D01*
X189599000Y-61048741D01*
X189599000Y-60871259D01*
X189633624Y-60697188D01*
X189701544Y-60533216D01*
X189800147Y-60385646D01*
X189925646Y-60260147D01*
X190073216Y-60161544D01*
X190237188Y-60093624D01*
X190386488Y-60063927D01*
X190411258Y-60059000D01*
X190588742Y-60059000D01*
X190613512Y-60063927D01*
G37*
G36*
X188073512Y-60063927D02*
G01*
X188222812Y-60093624D01*
X188386784Y-60161544D01*
X188534354Y-60260147D01*
X188659853Y-60385646D01*
X188758456Y-60533216D01*
X188826376Y-60697188D01*
X188861000Y-60871259D01*
X188861000Y-61048741D01*
X188826376Y-61222812D01*
X188758456Y-61386784D01*
X188659853Y-61534354D01*
X188534354Y-61659853D01*
X188386784Y-61758456D01*
X188222812Y-61826376D01*
X188073512Y-61856073D01*
X188048742Y-61861000D01*
X187871258Y-61861000D01*
X187846488Y-61856073D01*
X187697188Y-61826376D01*
X187533216Y-61758456D01*
X187385646Y-61659853D01*
X187260147Y-61534354D01*
X187161544Y-61386784D01*
X187093624Y-61222812D01*
X187059000Y-61048741D01*
X187059000Y-60871259D01*
X187093624Y-60697188D01*
X187161544Y-60533216D01*
X187260147Y-60385646D01*
X187385646Y-60260147D01*
X187533216Y-60161544D01*
X187697188Y-60093624D01*
X187846488Y-60063927D01*
X187871258Y-60059000D01*
X188048742Y-60059000D01*
X188073512Y-60063927D01*
G37*
G36*
X188073512Y-57523927D02*
G01*
X188222812Y-57553624D01*
X188386784Y-57621544D01*
X188534354Y-57720147D01*
X188659853Y-57845646D01*
X188758456Y-57993216D01*
X188826376Y-58157188D01*
X188861000Y-58331259D01*
X188861000Y-58508741D01*
X188826376Y-58682812D01*
X188758456Y-58846784D01*
X188659853Y-58994354D01*
X188534354Y-59119853D01*
X188386784Y-59218456D01*
X188222812Y-59286376D01*
X188073512Y-59316073D01*
X188048742Y-59321000D01*
X187871258Y-59321000D01*
X187846488Y-59316073D01*
X187697188Y-59286376D01*
X187533216Y-59218456D01*
X187385646Y-59119853D01*
X187260147Y-58994354D01*
X187161544Y-58846784D01*
X187093624Y-58682812D01*
X187059000Y-58508741D01*
X187059000Y-58331259D01*
X187093624Y-58157188D01*
X187161544Y-57993216D01*
X187260147Y-57845646D01*
X187385646Y-57720147D01*
X187533216Y-57621544D01*
X187697188Y-57553624D01*
X187846488Y-57523927D01*
X187871258Y-57519000D01*
X188048742Y-57519000D01*
X188073512Y-57523927D01*
G37*
G36*
X190613512Y-57523927D02*
G01*
X190762812Y-57553624D01*
X190926784Y-57621544D01*
X191074354Y-57720147D01*
X191199853Y-57845646D01*
X191298456Y-57993216D01*
X191366376Y-58157188D01*
X191401000Y-58331259D01*
X191401000Y-58508741D01*
X191366376Y-58682812D01*
X191298456Y-58846784D01*
X191199853Y-58994354D01*
X191074354Y-59119853D01*
X190926784Y-59218456D01*
X190762812Y-59286376D01*
X190613512Y-59316073D01*
X190588742Y-59321000D01*
X190411258Y-59321000D01*
X190386488Y-59316073D01*
X190237188Y-59286376D01*
X190073216Y-59218456D01*
X189925646Y-59119853D01*
X189800147Y-58994354D01*
X189701544Y-58846784D01*
X189633624Y-58682812D01*
X189599000Y-58508741D01*
X189599000Y-58331259D01*
X189633624Y-58157188D01*
X189701544Y-57993216D01*
X189800147Y-57845646D01*
X189925646Y-57720147D01*
X190073216Y-57621544D01*
X190237188Y-57553624D01*
X190386488Y-57523927D01*
X190411258Y-57519000D01*
X190588742Y-57519000D01*
X190613512Y-57523927D01*
G37*
G36*
X190613512Y-54983927D02*
G01*
X190762812Y-55013624D01*
X190926784Y-55081544D01*
X191074354Y-55180147D01*
X191199853Y-55305646D01*
X191298456Y-55453216D01*
X191366376Y-55617188D01*
X191401000Y-55791259D01*
X191401000Y-55968741D01*
X191366376Y-56142812D01*
X191298456Y-56306784D01*
X191199853Y-56454354D01*
X191074354Y-56579853D01*
X190926784Y-56678456D01*
X190762812Y-56746376D01*
X190613512Y-56776073D01*
X190588742Y-56781000D01*
X190411258Y-56781000D01*
X190386488Y-56776073D01*
X190237188Y-56746376D01*
X190073216Y-56678456D01*
X189925646Y-56579853D01*
X189800147Y-56454354D01*
X189701544Y-56306784D01*
X189633624Y-56142812D01*
X189599000Y-55968741D01*
X189599000Y-55791259D01*
X189633624Y-55617188D01*
X189701544Y-55453216D01*
X189800147Y-55305646D01*
X189925646Y-55180147D01*
X190073216Y-55081544D01*
X190237188Y-55013624D01*
X190386488Y-54983927D01*
X190411258Y-54979000D01*
X190588742Y-54979000D01*
X190613512Y-54983927D01*
G37*
G36*
X188073512Y-54983927D02*
G01*
X188222812Y-55013624D01*
X188386784Y-55081544D01*
X188534354Y-55180147D01*
X188659853Y-55305646D01*
X188758456Y-55453216D01*
X188826376Y-55617188D01*
X188861000Y-55791259D01*
X188861000Y-55968741D01*
X188826376Y-56142812D01*
X188758456Y-56306784D01*
X188659853Y-56454354D01*
X188534354Y-56579853D01*
X188386784Y-56678456D01*
X188222812Y-56746376D01*
X188073512Y-56776073D01*
X188048742Y-56781000D01*
X187871258Y-56781000D01*
X187846488Y-56776073D01*
X187697188Y-56746376D01*
X187533216Y-56678456D01*
X187385646Y-56579853D01*
X187260147Y-56454354D01*
X187161544Y-56306784D01*
X187093624Y-56142812D01*
X187059000Y-55968741D01*
X187059000Y-55791259D01*
X187093624Y-55617188D01*
X187161544Y-55453216D01*
X187260147Y-55305646D01*
X187385646Y-55180147D01*
X187533216Y-55081544D01*
X187697188Y-55013624D01*
X187846488Y-54983927D01*
X187871258Y-54979000D01*
X188048742Y-54979000D01*
X188073512Y-54983927D01*
G37*
G36*
X190613225Y-52443870D02*
G01*
X190762812Y-52473624D01*
X190926784Y-52541544D01*
X191074354Y-52640147D01*
X191199853Y-52765646D01*
X191298456Y-52913216D01*
X191366376Y-53077188D01*
X191401000Y-53251259D01*
X191401000Y-53428741D01*
X191366376Y-53602812D01*
X191298456Y-53766784D01*
X191199853Y-53914354D01*
X191074354Y-54039853D01*
X190926784Y-54138456D01*
X190762812Y-54206376D01*
X190613512Y-54236073D01*
X190588742Y-54241000D01*
X190411258Y-54241000D01*
X190386488Y-54236073D01*
X190237188Y-54206376D01*
X190073216Y-54138456D01*
X189925646Y-54039853D01*
X189800147Y-53914354D01*
X189701544Y-53766784D01*
X189633624Y-53602812D01*
X189599000Y-53428741D01*
X189599000Y-53251259D01*
X189633624Y-53077188D01*
X189701544Y-52913216D01*
X189800147Y-52765646D01*
X189925646Y-52640147D01*
X190073216Y-52541544D01*
X190237188Y-52473624D01*
X190386775Y-52443870D01*
X190411258Y-52439000D01*
X190588742Y-52439000D01*
X190613225Y-52443870D01*
G37*
G36*
X188073225Y-52443870D02*
G01*
X188222812Y-52473624D01*
X188386784Y-52541544D01*
X188534354Y-52640147D01*
X188659853Y-52765646D01*
X188758456Y-52913216D01*
X188826376Y-53077188D01*
X188861000Y-53251259D01*
X188861000Y-53428741D01*
X188826376Y-53602812D01*
X188758456Y-53766784D01*
X188659853Y-53914354D01*
X188534354Y-54039853D01*
X188386784Y-54138456D01*
X188222812Y-54206376D01*
X188073512Y-54236073D01*
X188048742Y-54241000D01*
X187871258Y-54241000D01*
X187846488Y-54236073D01*
X187697188Y-54206376D01*
X187533216Y-54138456D01*
X187385646Y-54039853D01*
X187260147Y-53914354D01*
X187161544Y-53766784D01*
X187093624Y-53602812D01*
X187059000Y-53428741D01*
X187059000Y-53251259D01*
X187093624Y-53077188D01*
X187161544Y-52913216D01*
X187260147Y-52765646D01*
X187385646Y-52640147D01*
X187533216Y-52541544D01*
X187697188Y-52473624D01*
X187846775Y-52443870D01*
X187871258Y-52439000D01*
X188048742Y-52439000D01*
X188073225Y-52443870D01*
G37*
G36*
X90766599Y-52361937D02*
G01*
X90776208Y-52364852D01*
X90785072Y-52369590D01*
X90792837Y-52375963D01*
X90803048Y-52388406D01*
X90809978Y-52398775D01*
X90827305Y-52416102D01*
X90847680Y-52429715D01*
X90870320Y-52439091D01*
X90894353Y-52443871D01*
X90918857Y-52443870D01*
X90942890Y-52439088D01*
X90965529Y-52429710D01*
X90985902Y-52416095D01*
X91003229Y-52398768D01*
X91010158Y-52388398D01*
X91020363Y-52375963D01*
X91028128Y-52369590D01*
X91036992Y-52364852D01*
X91046601Y-52361937D01*
X91062740Y-52360348D01*
X91550461Y-52360348D01*
X91568799Y-52362154D01*
X91581050Y-52362756D01*
X91599469Y-52362756D01*
X91621749Y-52364950D01*
X91705833Y-52381676D01*
X91727260Y-52388176D01*
X91806458Y-52420980D01*
X91811903Y-52423891D01*
X91811909Y-52423893D01*
X91820769Y-52428629D01*
X91820773Y-52428632D01*
X91826214Y-52431540D01*
X91897499Y-52479171D01*
X91914804Y-52493372D01*
X91975428Y-52553996D01*
X91989629Y-52571301D01*
X92037260Y-52642586D01*
X92040168Y-52648027D01*
X92040171Y-52648031D01*
X92044907Y-52656891D01*
X92044909Y-52656897D01*
X92047820Y-52662342D01*
X92080624Y-52741540D01*
X92087124Y-52762967D01*
X92103850Y-52847051D01*
X92106044Y-52869331D01*
X92106044Y-52887750D01*
X92106646Y-52900001D01*
X92108452Y-52918339D01*
X92108452Y-53406062D01*
X92106646Y-53424399D01*
X92106044Y-53436650D01*
X92106044Y-53455069D01*
X92103850Y-53477349D01*
X92087124Y-53561433D01*
X92080624Y-53582860D01*
X92047820Y-53662058D01*
X92044909Y-53667503D01*
X92044907Y-53667509D01*
X92040171Y-53676369D01*
X92040168Y-53676373D01*
X92037260Y-53681814D01*
X91989629Y-53753099D01*
X91975428Y-53770404D01*
X91914804Y-53831028D01*
X91897499Y-53845229D01*
X91826214Y-53892860D01*
X91820773Y-53895768D01*
X91820769Y-53895771D01*
X91811909Y-53900507D01*
X91811903Y-53900509D01*
X91806458Y-53903420D01*
X91727260Y-53936224D01*
X91705833Y-53942724D01*
X91621749Y-53959450D01*
X91599469Y-53961644D01*
X91581050Y-53961644D01*
X91568799Y-53962246D01*
X91550462Y-53964052D01*
X91062740Y-53964052D01*
X91046601Y-53962463D01*
X91036992Y-53959548D01*
X91028128Y-53954810D01*
X91020363Y-53948437D01*
X91010152Y-53935994D01*
X91003222Y-53925625D01*
X90985895Y-53908298D01*
X90965520Y-53894685D01*
X90942880Y-53885309D01*
X90918847Y-53880529D01*
X90894343Y-53880530D01*
X90870310Y-53885312D01*
X90847671Y-53894690D01*
X90827298Y-53908305D01*
X90809971Y-53925632D01*
X90803042Y-53936002D01*
X90792837Y-53948437D01*
X90785072Y-53954810D01*
X90776208Y-53959548D01*
X90766599Y-53962463D01*
X90750460Y-53964052D01*
X90262738Y-53964052D01*
X90244401Y-53962246D01*
X90232150Y-53961644D01*
X90213731Y-53961644D01*
X90191451Y-53959450D01*
X90107367Y-53942724D01*
X90085940Y-53936224D01*
X90006742Y-53903420D01*
X90001297Y-53900509D01*
X90001291Y-53900507D01*
X89992431Y-53895771D01*
X89992427Y-53895768D01*
X89986986Y-53892860D01*
X89915701Y-53845229D01*
X89898396Y-53831028D01*
X89837772Y-53770404D01*
X89823571Y-53753099D01*
X89775940Y-53681814D01*
X89773032Y-53676373D01*
X89773029Y-53676369D01*
X89768293Y-53667509D01*
X89768291Y-53667503D01*
X89765380Y-53662058D01*
X89732576Y-53582860D01*
X89726076Y-53561433D01*
X89709350Y-53477349D01*
X89707156Y-53455069D01*
X89707156Y-53436650D01*
X89706554Y-53424399D01*
X89704748Y-53406062D01*
X89704748Y-52918339D01*
X89706554Y-52900001D01*
X89707156Y-52887750D01*
X89707156Y-52869331D01*
X89709350Y-52847051D01*
X89726076Y-52762967D01*
X89732576Y-52741540D01*
X89765380Y-52662342D01*
X89768291Y-52656897D01*
X89768293Y-52656891D01*
X89773029Y-52648031D01*
X89773032Y-52648027D01*
X89775940Y-52642586D01*
X89823571Y-52571301D01*
X89837772Y-52553996D01*
X89898396Y-52493372D01*
X89915701Y-52479171D01*
X89986986Y-52431540D01*
X89992427Y-52428632D01*
X89992431Y-52428629D01*
X90001291Y-52423893D01*
X90001297Y-52423891D01*
X90006742Y-52420980D01*
X90085940Y-52388176D01*
X90107367Y-52381676D01*
X90191451Y-52364950D01*
X90213731Y-52362756D01*
X90232150Y-52362756D01*
X90244401Y-52362154D01*
X90262739Y-52360348D01*
X90750460Y-52360348D01*
X90766599Y-52361937D01*
G37*
G36*
X188073512Y-49903927D02*
G01*
X188222812Y-49933624D01*
X188386784Y-50001544D01*
X188534354Y-50100147D01*
X188659853Y-50225646D01*
X188758456Y-50373216D01*
X188826376Y-50537188D01*
X188861000Y-50711259D01*
X188861000Y-50888741D01*
X188826376Y-51062812D01*
X188758456Y-51226784D01*
X188659853Y-51374354D01*
X188534354Y-51499853D01*
X188386784Y-51598456D01*
X188222812Y-51666376D01*
X188073512Y-51696073D01*
X188048742Y-51701000D01*
X187871258Y-51701000D01*
X187846488Y-51696073D01*
X187697188Y-51666376D01*
X187533216Y-51598456D01*
X187385646Y-51499853D01*
X187260147Y-51374354D01*
X187161544Y-51226784D01*
X187093624Y-51062812D01*
X187059000Y-50888741D01*
X187059000Y-50711259D01*
X187093624Y-50537188D01*
X187161544Y-50373216D01*
X187260147Y-50225646D01*
X187385646Y-50100147D01*
X187533216Y-50001544D01*
X187697188Y-49933624D01*
X187846488Y-49903927D01*
X187871258Y-49899000D01*
X188048742Y-49899000D01*
X188073512Y-49903927D01*
G37*
G36*
X190613512Y-49903927D02*
G01*
X190762812Y-49933624D01*
X190926784Y-50001544D01*
X191074354Y-50100147D01*
X191199853Y-50225646D01*
X191298456Y-50373216D01*
X191366376Y-50537188D01*
X191401000Y-50711259D01*
X191401000Y-50888741D01*
X191366376Y-51062812D01*
X191298456Y-51226784D01*
X191199853Y-51374354D01*
X191074354Y-51499853D01*
X190926784Y-51598456D01*
X190762812Y-51666376D01*
X190613512Y-51696073D01*
X190588742Y-51701000D01*
X190411258Y-51701000D01*
X190386488Y-51696073D01*
X190237188Y-51666376D01*
X190073216Y-51598456D01*
X189925646Y-51499853D01*
X189800147Y-51374354D01*
X189701544Y-51226784D01*
X189633624Y-51062812D01*
X189599000Y-50888741D01*
X189599000Y-50711259D01*
X189633624Y-50537188D01*
X189701544Y-50373216D01*
X189800147Y-50225646D01*
X189925646Y-50100147D01*
X190073216Y-50001544D01*
X190237188Y-49933624D01*
X190386488Y-49903927D01*
X190411258Y-49899000D01*
X190588742Y-49899000D01*
X190613512Y-49903927D01*
G37*
G36*
X105556544Y-49266149D02*
G01*
X105747813Y-49345375D01*
X105747815Y-49345376D01*
X105919953Y-49460395D01*
X106066345Y-49606787D01*
X106181365Y-49778927D01*
X106260591Y-49970196D01*
X106300980Y-50173244D01*
X106300980Y-50380276D01*
X106260591Y-50583324D01*
X106181365Y-50774593D01*
X106181364Y-50774595D01*
X106066345Y-50946733D01*
X105919953Y-51093125D01*
X105747815Y-51208144D01*
X105747814Y-51208145D01*
X105747813Y-51208145D01*
X105556544Y-51287371D01*
X105353496Y-51327760D01*
X105146464Y-51327760D01*
X104943416Y-51287371D01*
X104752147Y-51208145D01*
X104752146Y-51208145D01*
X104752145Y-51208144D01*
X104580007Y-51093125D01*
X104433615Y-50946733D01*
X104318596Y-50774595D01*
X104318595Y-50774593D01*
X104239369Y-50583324D01*
X104198980Y-50380276D01*
X104198980Y-50173244D01*
X104239369Y-49970196D01*
X104318595Y-49778927D01*
X104433615Y-49606787D01*
X104580007Y-49460395D01*
X104752145Y-49345376D01*
X104752147Y-49345375D01*
X104943416Y-49266149D01*
X105146464Y-49225760D01*
X105353496Y-49225760D01*
X105556544Y-49266149D01*
G37*
G36*
X188073512Y-47363927D02*
G01*
X188222812Y-47393624D01*
X188386784Y-47461544D01*
X188534354Y-47560147D01*
X188659853Y-47685646D01*
X188758456Y-47833216D01*
X188826376Y-47997188D01*
X188861000Y-48171259D01*
X188861000Y-48348741D01*
X188826376Y-48522812D01*
X188758456Y-48686784D01*
X188659853Y-48834354D01*
X188534354Y-48959853D01*
X188386784Y-49058456D01*
X188222812Y-49126376D01*
X188073512Y-49156073D01*
X188048742Y-49161000D01*
X187871258Y-49161000D01*
X187846488Y-49156073D01*
X187697188Y-49126376D01*
X187533216Y-49058456D01*
X187385646Y-48959853D01*
X187260147Y-48834354D01*
X187161544Y-48686784D01*
X187093624Y-48522812D01*
X187059000Y-48348741D01*
X187059000Y-48171259D01*
X187093624Y-47997188D01*
X187161544Y-47833216D01*
X187260147Y-47685646D01*
X187385646Y-47560147D01*
X187533216Y-47461544D01*
X187697188Y-47393624D01*
X187846488Y-47363927D01*
X187871258Y-47359000D01*
X188048742Y-47359000D01*
X188073512Y-47363927D01*
G37*
G36*
X190613512Y-47363927D02*
G01*
X190762812Y-47393624D01*
X190926784Y-47461544D01*
X191074354Y-47560147D01*
X191199853Y-47685646D01*
X191298456Y-47833216D01*
X191366376Y-47997188D01*
X191401000Y-48171259D01*
X191401000Y-48348741D01*
X191366376Y-48522812D01*
X191298456Y-48686784D01*
X191199853Y-48834354D01*
X191074354Y-48959853D01*
X190926784Y-49058456D01*
X190762812Y-49126376D01*
X190613512Y-49156073D01*
X190588742Y-49161000D01*
X190411258Y-49161000D01*
X190386488Y-49156073D01*
X190237188Y-49126376D01*
X190073216Y-49058456D01*
X189925646Y-48959853D01*
X189800147Y-48834354D01*
X189701544Y-48686784D01*
X189633624Y-48522812D01*
X189599000Y-48348741D01*
X189599000Y-48171259D01*
X189633624Y-47997188D01*
X189701544Y-47833216D01*
X189800147Y-47685646D01*
X189925646Y-47560147D01*
X190073216Y-47461544D01*
X190237188Y-47393624D01*
X190386488Y-47363927D01*
X190411258Y-47359000D01*
X190588742Y-47359000D01*
X190613512Y-47363927D01*
G37*
G36*
X163575212Y-46220927D02*
G01*
X163724512Y-46250624D01*
X163888484Y-46318544D01*
X164036054Y-46417147D01*
X164161553Y-46542646D01*
X164260156Y-46690216D01*
X164328076Y-46854188D01*
X164362700Y-47028259D01*
X164362700Y-47205741D01*
X164328076Y-47379812D01*
X164260156Y-47543784D01*
X164161553Y-47691354D01*
X164036054Y-47816853D01*
X163888484Y-47915456D01*
X163724512Y-47983376D01*
X163575212Y-48013073D01*
X163550442Y-48018000D01*
X163372958Y-48018000D01*
X163348188Y-48013073D01*
X163198888Y-47983376D01*
X163034916Y-47915456D01*
X162887346Y-47816853D01*
X162761847Y-47691354D01*
X162663244Y-47543784D01*
X162595324Y-47379812D01*
X162560700Y-47205741D01*
X162560700Y-47028259D01*
X162595324Y-46854188D01*
X162663244Y-46690216D01*
X162761847Y-46542646D01*
X162887346Y-46417147D01*
X163034916Y-46318544D01*
X163198888Y-46250624D01*
X163348188Y-46220927D01*
X163372958Y-46216000D01*
X163550442Y-46216000D01*
X163575212Y-46220927D01*
G37*
G36*
X166902700Y-48018000D02*
G01*
X165100700Y-48018000D01*
X165100700Y-46216000D01*
X166902700Y-46216000D01*
X166902700Y-48018000D01*
G37*
G36*
X160133600Y-48005300D02*
G01*
X158331600Y-48005300D01*
X158331600Y-46203300D01*
X160133600Y-46203300D01*
X160133600Y-48005300D01*
G37*
G36*
X190613512Y-44823927D02*
G01*
X190762812Y-44853624D01*
X190926784Y-44921544D01*
X191074354Y-45020147D01*
X191199853Y-45145646D01*
X191298456Y-45293216D01*
X191366376Y-45457188D01*
X191401000Y-45631259D01*
X191401000Y-45808741D01*
X191366376Y-45982812D01*
X191298456Y-46146784D01*
X191199853Y-46294354D01*
X191074354Y-46419853D01*
X190926784Y-46518456D01*
X190762812Y-46586376D01*
X190613512Y-46616073D01*
X190588742Y-46621000D01*
X190411258Y-46621000D01*
X190386488Y-46616073D01*
X190237188Y-46586376D01*
X190073216Y-46518456D01*
X189925646Y-46419853D01*
X189800147Y-46294354D01*
X189701544Y-46146784D01*
X189633624Y-45982812D01*
X189599000Y-45808741D01*
X189599000Y-45631259D01*
X189633624Y-45457188D01*
X189701544Y-45293216D01*
X189800147Y-45145646D01*
X189925646Y-45020147D01*
X190073216Y-44921544D01*
X190237188Y-44853624D01*
X190386488Y-44823927D01*
X190411258Y-44819000D01*
X190588742Y-44819000D01*
X190613512Y-44823927D01*
G37*
G36*
X188073512Y-44823927D02*
G01*
X188222812Y-44853624D01*
X188386784Y-44921544D01*
X188534354Y-45020147D01*
X188659853Y-45145646D01*
X188758456Y-45293216D01*
X188826376Y-45457188D01*
X188861000Y-45631259D01*
X188861000Y-45808741D01*
X188826376Y-45982812D01*
X188758456Y-46146784D01*
X188659853Y-46294354D01*
X188534354Y-46419853D01*
X188386784Y-46518456D01*
X188222812Y-46586376D01*
X188073512Y-46616073D01*
X188048742Y-46621000D01*
X187871258Y-46621000D01*
X187846488Y-46616073D01*
X187697188Y-46586376D01*
X187533216Y-46518456D01*
X187385646Y-46419853D01*
X187260147Y-46294354D01*
X187161544Y-46146784D01*
X187093624Y-45982812D01*
X187059000Y-45808741D01*
X187059000Y-45631259D01*
X187093624Y-45457188D01*
X187161544Y-45293216D01*
X187260147Y-45145646D01*
X187385646Y-45020147D01*
X187533216Y-44921544D01*
X187697188Y-44853624D01*
X187846488Y-44823927D01*
X187871258Y-44819000D01*
X188048742Y-44819000D01*
X188073512Y-44823927D01*
G37*
G36*
X175417300Y-46436100D02*
G01*
X174315300Y-46436100D01*
X174315300Y-45334100D01*
X175417300Y-45334100D01*
X175417300Y-46436100D01*
G37*
G36*
X163575212Y-43680927D02*
G01*
X163724512Y-43710624D01*
X163888484Y-43778544D01*
X164036054Y-43877147D01*
X164161553Y-44002646D01*
X164260156Y-44150216D01*
X164328076Y-44314188D01*
X164362700Y-44488259D01*
X164362700Y-44665741D01*
X164328076Y-44839812D01*
X164260156Y-45003784D01*
X164161553Y-45151354D01*
X164036054Y-45276853D01*
X163888484Y-45375456D01*
X163724512Y-45443376D01*
X163575212Y-45473073D01*
X163550442Y-45478000D01*
X163372958Y-45478000D01*
X163348188Y-45473073D01*
X163198888Y-45443376D01*
X163034916Y-45375456D01*
X162887346Y-45276853D01*
X162761847Y-45151354D01*
X162663244Y-45003784D01*
X162595324Y-44839812D01*
X162560700Y-44665741D01*
X162560700Y-44488259D01*
X162595324Y-44314188D01*
X162663244Y-44150216D01*
X162761847Y-44002646D01*
X162887346Y-43877147D01*
X163034916Y-43778544D01*
X163198888Y-43710624D01*
X163348188Y-43680927D01*
X163372958Y-43676000D01*
X163550442Y-43676000D01*
X163575212Y-43680927D01*
G37*
G36*
X166115212Y-43680927D02*
G01*
X166264512Y-43710624D01*
X166428484Y-43778544D01*
X166576054Y-43877147D01*
X166701553Y-44002646D01*
X166800156Y-44150216D01*
X166868076Y-44314188D01*
X166902700Y-44488259D01*
X166902700Y-44665741D01*
X166868076Y-44839812D01*
X166800156Y-45003784D01*
X166701553Y-45151354D01*
X166576054Y-45276853D01*
X166428484Y-45375456D01*
X166264512Y-45443376D01*
X166115212Y-45473073D01*
X166090442Y-45478000D01*
X165912958Y-45478000D01*
X165888188Y-45473073D01*
X165738888Y-45443376D01*
X165574916Y-45375456D01*
X165427346Y-45276853D01*
X165301847Y-45151354D01*
X165203244Y-45003784D01*
X165135324Y-44839812D01*
X165100700Y-44665741D01*
X165100700Y-44488259D01*
X165135324Y-44314188D01*
X165203244Y-44150216D01*
X165301847Y-44002646D01*
X165427346Y-43877147D01*
X165574916Y-43778544D01*
X165738888Y-43710624D01*
X165888188Y-43680927D01*
X165912958Y-43676000D01*
X166090442Y-43676000D01*
X166115212Y-43680927D01*
G37*
G36*
X159346112Y-43668227D02*
G01*
X159495412Y-43697924D01*
X159659384Y-43765844D01*
X159806954Y-43864447D01*
X159932453Y-43989946D01*
X160031056Y-44137516D01*
X160098976Y-44301488D01*
X160133600Y-44475559D01*
X160133600Y-44653041D01*
X160098976Y-44827112D01*
X160031056Y-44991084D01*
X159932453Y-45138654D01*
X159806954Y-45264153D01*
X159659384Y-45362756D01*
X159495412Y-45430676D01*
X159346112Y-45460373D01*
X159321342Y-45465300D01*
X159143858Y-45465300D01*
X159119088Y-45460373D01*
X158969788Y-45430676D01*
X158805816Y-45362756D01*
X158658246Y-45264153D01*
X158532747Y-45138654D01*
X158434144Y-44991084D01*
X158366224Y-44827112D01*
X158331600Y-44653041D01*
X158331600Y-44475559D01*
X158366224Y-44301488D01*
X158434144Y-44137516D01*
X158532747Y-43989946D01*
X158658246Y-43864447D01*
X158805816Y-43765844D01*
X158969788Y-43697924D01*
X159119088Y-43668227D01*
X159143858Y-43663300D01*
X159321342Y-43663300D01*
X159346112Y-43668227D01*
G37*
G36*
X175417300Y-44454900D02*
G01*
X174315300Y-44454900D01*
X174315300Y-43352900D01*
X175417300Y-43352900D01*
X175417300Y-44454900D01*
G37*
G36*
X177423900Y-44454900D02*
G01*
X176321900Y-44454900D01*
X176321900Y-43352900D01*
X177423900Y-43352900D01*
X177423900Y-44454900D01*
G37*
G36*
X188861000Y-44081000D02*
G01*
X187059000Y-44081000D01*
X187059000Y-42279000D01*
X188861000Y-42279000D01*
X188861000Y-44081000D01*
G37*
G36*
X190613512Y-42283927D02*
G01*
X190762812Y-42313624D01*
X190926784Y-42381544D01*
X191074354Y-42480147D01*
X191199853Y-42605646D01*
X191298456Y-42753216D01*
X191366376Y-42917188D01*
X191401000Y-43091259D01*
X191401000Y-43268741D01*
X191366376Y-43442812D01*
X191298456Y-43606784D01*
X191199853Y-43754354D01*
X191074354Y-43879853D01*
X190926784Y-43978456D01*
X190762812Y-44046376D01*
X190613512Y-44076073D01*
X190588742Y-44081000D01*
X190411258Y-44081000D01*
X190386488Y-44076073D01*
X190237188Y-44046376D01*
X190073216Y-43978456D01*
X189925646Y-43879853D01*
X189800147Y-43754354D01*
X189701544Y-43606784D01*
X189633624Y-43442812D01*
X189599000Y-43268741D01*
X189599000Y-43091259D01*
X189633624Y-42917188D01*
X189701544Y-42753216D01*
X189800147Y-42605646D01*
X189925646Y-42480147D01*
X190073216Y-42381544D01*
X190237188Y-42313624D01*
X190386488Y-42283927D01*
X190411258Y-42279000D01*
X190588742Y-42279000D01*
X190613512Y-42283927D01*
G37*
G36*
X117083064Y-41244829D02*
G01*
X117274333Y-41324055D01*
X117274335Y-41324056D01*
X117446473Y-41439075D01*
X117592865Y-41585467D01*
X117707885Y-41757607D01*
X117787111Y-41948876D01*
X117827500Y-42151924D01*
X117827500Y-42358956D01*
X117787111Y-42562004D01*
X117707908Y-42753218D01*
X117707884Y-42753275D01*
X117592865Y-42925413D01*
X117446473Y-43071805D01*
X117274335Y-43186824D01*
X117274334Y-43186825D01*
X117274333Y-43186825D01*
X117083064Y-43266051D01*
X116880016Y-43306440D01*
X116672984Y-43306440D01*
X116469936Y-43266051D01*
X116278667Y-43186825D01*
X116278666Y-43186825D01*
X116278665Y-43186824D01*
X116106527Y-43071805D01*
X115960135Y-42925413D01*
X115845116Y-42753275D01*
X115845092Y-42753218D01*
X115765889Y-42562004D01*
X115725500Y-42358956D01*
X115725500Y-42151924D01*
X115765889Y-41948876D01*
X115845115Y-41757607D01*
X115960135Y-41585467D01*
X116106527Y-41439075D01*
X116278665Y-41324056D01*
X116278667Y-41324055D01*
X116469936Y-41244829D01*
X116672984Y-41204440D01*
X116880016Y-41204440D01*
X117083064Y-41244829D01*
G37*
G36*
X112164887Y-38042796D02*
G01*
X112401653Y-38140868D01*
X112401655Y-38140869D01*
X112614739Y-38283247D01*
X112795953Y-38464461D01*
X112928405Y-38662689D01*
X112938332Y-38677547D01*
X113036404Y-38914313D01*
X113086400Y-39165661D01*
X113086400Y-39421939D01*
X113036404Y-39673287D01*
X112972941Y-39826500D01*
X112938331Y-39910055D01*
X112795953Y-40123139D01*
X112614739Y-40304353D01*
X112401655Y-40446731D01*
X112401654Y-40446732D01*
X112401653Y-40446732D01*
X112164887Y-40544804D01*
X111913539Y-40594800D01*
X111657261Y-40594800D01*
X111405913Y-40544804D01*
X111169147Y-40446732D01*
X111169146Y-40446732D01*
X111169145Y-40446731D01*
X110956061Y-40304353D01*
X110774847Y-40123139D01*
X110632469Y-39910055D01*
X110597859Y-39826500D01*
X110534396Y-39673287D01*
X110484400Y-39421939D01*
X110484400Y-39165661D01*
X110534396Y-38914313D01*
X110632468Y-38677547D01*
X110642396Y-38662689D01*
X110774847Y-38464461D01*
X110956061Y-38283247D01*
X111169145Y-38140869D01*
X111169147Y-38140868D01*
X111405913Y-38042796D01*
X111657261Y-37992800D01*
X111913539Y-37992800D01*
X112164887Y-38042796D01*
G37*
G36*
X103849740Y-39826500D02*
G01*
X102047740Y-39826500D01*
X102047740Y-38024500D01*
X103849740Y-38024500D01*
X103849740Y-39826500D01*
G37*
G36*
X105602252Y-38029427D02*
G01*
X105751552Y-38059124D01*
X105915524Y-38127044D01*
X106063094Y-38225647D01*
X106188593Y-38351146D01*
X106287196Y-38498716D01*
X106355116Y-38662688D01*
X106389740Y-38836759D01*
X106389740Y-39014241D01*
X106355116Y-39188312D01*
X106287196Y-39352284D01*
X106188593Y-39499854D01*
X106063094Y-39625353D01*
X105915524Y-39723956D01*
X105751552Y-39791876D01*
X105602252Y-39821573D01*
X105577482Y-39826500D01*
X105399998Y-39826500D01*
X105375228Y-39821573D01*
X105225928Y-39791876D01*
X105061956Y-39723956D01*
X104914386Y-39625353D01*
X104788887Y-39499854D01*
X104690284Y-39352284D01*
X104622364Y-39188312D01*
X104587740Y-39014241D01*
X104587740Y-38836759D01*
X104622364Y-38662688D01*
X104690284Y-38498716D01*
X104788887Y-38351146D01*
X104914386Y-38225647D01*
X105061956Y-38127044D01*
X105225928Y-38059124D01*
X105375228Y-38029427D01*
X105399998Y-38024500D01*
X105577482Y-38024500D01*
X105602252Y-38029427D01*
G37*
G36*
X184732687Y-35832996D02*
G01*
X184969453Y-35931068D01*
X184969455Y-35931069D01*
X185182539Y-36073447D01*
X185363753Y-36254661D01*
X185489737Y-36443209D01*
X185506132Y-36467747D01*
X185604204Y-36704513D01*
X185654200Y-36955861D01*
X185654200Y-37212139D01*
X185604204Y-37463487D01*
X185506132Y-37700253D01*
X185506131Y-37700255D01*
X185363753Y-37913339D01*
X185182539Y-38094553D01*
X184969455Y-38236931D01*
X184969454Y-38236932D01*
X184969453Y-38236932D01*
X184732687Y-38335004D01*
X184481339Y-38385000D01*
X184225061Y-38385000D01*
X183973713Y-38335004D01*
X183736947Y-38236932D01*
X183736946Y-38236932D01*
X183736945Y-38236931D01*
X183523861Y-38094553D01*
X183342647Y-37913339D01*
X183200269Y-37700255D01*
X183200268Y-37700253D01*
X183102196Y-37463487D01*
X183052200Y-37212139D01*
X183052200Y-36955861D01*
X183102196Y-36704513D01*
X183200268Y-36467747D01*
X183216664Y-36443209D01*
X183342647Y-36254661D01*
X183523861Y-36073447D01*
X183736945Y-35931069D01*
X183736947Y-35931068D01*
X183973713Y-35832996D01*
X184225061Y-35783000D01*
X184481339Y-35783000D01*
X184732687Y-35832996D01*
G37*
G36*
X173086787Y-35566296D02*
G01*
X173323553Y-35664368D01*
X173323555Y-35664369D01*
X173501099Y-35783000D01*
X173536639Y-35806747D01*
X173717853Y-35987961D01*
X173860232Y-36201047D01*
X173958304Y-36437813D01*
X174008300Y-36689161D01*
X174008300Y-36945439D01*
X173958304Y-37196787D01*
X173860232Y-37433553D01*
X173860231Y-37433555D01*
X173717853Y-37646639D01*
X173536639Y-37827853D01*
X173323555Y-37970231D01*
X173323554Y-37970232D01*
X173323553Y-37970232D01*
X173086787Y-38068304D01*
X172835439Y-38118300D01*
X172579161Y-38118300D01*
X172327813Y-38068304D01*
X172091047Y-37970232D01*
X172091046Y-37970232D01*
X172091045Y-37970231D01*
X171877961Y-37827853D01*
X171696747Y-37646639D01*
X171554369Y-37433555D01*
X171554368Y-37433553D01*
X171456296Y-37196787D01*
X171406300Y-36945439D01*
X171406300Y-36689161D01*
X171456296Y-36437813D01*
X171554368Y-36201047D01*
X171696747Y-35987961D01*
X171877961Y-35806747D01*
X171913501Y-35783000D01*
X172091045Y-35664369D01*
X172091047Y-35664368D01*
X172327813Y-35566296D01*
X172579161Y-35516300D01*
X172835439Y-35516300D01*
X173086787Y-35566296D01*
G37*
G36*
X75972405Y-34182500D02*
G01*
X75972408Y-34182501D01*
X75972409Y-34182501D01*
X76151673Y-34236880D01*
X76151676Y-34236882D01*
X76151677Y-34236882D01*
X76316883Y-34325186D01*
X76461692Y-34444028D01*
X76580534Y-34588837D01*
X76641245Y-34702420D01*
X76668840Y-34754047D01*
X76705322Y-34874313D01*
X76723220Y-34933315D01*
X76736980Y-35073022D01*
X76736980Y-36966458D01*
X76723220Y-37106165D01*
X76723219Y-37106168D01*
X76723219Y-37106169D01*
X76668840Y-37285433D01*
X76668838Y-37285436D01*
X76668838Y-37285437D01*
X76580534Y-37450643D01*
X76461692Y-37595452D01*
X76316883Y-37714294D01*
X76151676Y-37802598D01*
X76151672Y-37802600D01*
X75972408Y-37856979D01*
X75972407Y-37856979D01*
X75972404Y-37856980D01*
X75785980Y-37875341D01*
X75599555Y-37856980D01*
X75599552Y-37856979D01*
X75599551Y-37856979D01*
X75420287Y-37802600D01*
X75420283Y-37802598D01*
X75255077Y-37714294D01*
X75110268Y-37595452D01*
X74991426Y-37450643D01*
X74903122Y-37285436D01*
X74903121Y-37285433D01*
X74903120Y-37285432D01*
X74848741Y-37106168D01*
X74848741Y-37106167D01*
X74848740Y-37106164D01*
X74834980Y-36966457D01*
X74834980Y-35073023D01*
X74848741Y-34933315D01*
X74866639Y-34874313D01*
X74903121Y-34754047D01*
X74930716Y-34702420D01*
X74991427Y-34588837D01*
X75110269Y-34444028D01*
X75255078Y-34325186D01*
X75420284Y-34236882D01*
X75420285Y-34236882D01*
X75420288Y-34236880D01*
X75599552Y-34182501D01*
X75599553Y-34182501D01*
X75599556Y-34182500D01*
X75785980Y-34164139D01*
X75972405Y-34182500D01*
G37*
G36*
X70892405Y-34182500D02*
G01*
X70892408Y-34182501D01*
X70892409Y-34182501D01*
X71071673Y-34236880D01*
X71071676Y-34236882D01*
X71071677Y-34236882D01*
X71236883Y-34325186D01*
X71381692Y-34444028D01*
X71500534Y-34588837D01*
X71561245Y-34702420D01*
X71588840Y-34754047D01*
X71625322Y-34874313D01*
X71643220Y-34933315D01*
X71656980Y-35073022D01*
X71656980Y-36966458D01*
X71643220Y-37106165D01*
X71643219Y-37106168D01*
X71643219Y-37106169D01*
X71588840Y-37285433D01*
X71588838Y-37285436D01*
X71588838Y-37285437D01*
X71500534Y-37450643D01*
X71381692Y-37595452D01*
X71236883Y-37714294D01*
X71071676Y-37802598D01*
X71071672Y-37802600D01*
X70892408Y-37856979D01*
X70892407Y-37856979D01*
X70892404Y-37856980D01*
X70705980Y-37875341D01*
X70519555Y-37856980D01*
X70519552Y-37856979D01*
X70519551Y-37856979D01*
X70340287Y-37802600D01*
X70340283Y-37802598D01*
X70175077Y-37714294D01*
X70030268Y-37595452D01*
X69911426Y-37450643D01*
X69823122Y-37285436D01*
X69823121Y-37285433D01*
X69823120Y-37285432D01*
X69768741Y-37106168D01*
X69768741Y-37106167D01*
X69768740Y-37106164D01*
X69754980Y-36966457D01*
X69754980Y-35073023D01*
X69768741Y-34933315D01*
X69786639Y-34874313D01*
X69823121Y-34754047D01*
X69850716Y-34702420D01*
X69911427Y-34588837D01*
X70030269Y-34444028D01*
X70175078Y-34325186D01*
X70340284Y-34236882D01*
X70340285Y-34236882D01*
X70340288Y-34236880D01*
X70519552Y-34182501D01*
X70519553Y-34182501D01*
X70519556Y-34182500D01*
X70705980Y-34164139D01*
X70892405Y-34182500D01*
G37*
G36*
X81052405Y-34182500D02*
G01*
X81052408Y-34182501D01*
X81052409Y-34182501D01*
X81231673Y-34236880D01*
X81231676Y-34236882D01*
X81231677Y-34236882D01*
X81396883Y-34325186D01*
X81541692Y-34444028D01*
X81660534Y-34588837D01*
X81721245Y-34702420D01*
X81748840Y-34754047D01*
X81785322Y-34874313D01*
X81803220Y-34933315D01*
X81816980Y-35073022D01*
X81816980Y-36966458D01*
X81803220Y-37106165D01*
X81803219Y-37106168D01*
X81803219Y-37106169D01*
X81748840Y-37285433D01*
X81748838Y-37285436D01*
X81748838Y-37285437D01*
X81660534Y-37450643D01*
X81541692Y-37595452D01*
X81396883Y-37714294D01*
X81231676Y-37802598D01*
X81231672Y-37802600D01*
X81052408Y-37856979D01*
X81052407Y-37856979D01*
X81052404Y-37856980D01*
X80865980Y-37875341D01*
X80679555Y-37856980D01*
X80679552Y-37856979D01*
X80679551Y-37856979D01*
X80500287Y-37802600D01*
X80500283Y-37802598D01*
X80335077Y-37714294D01*
X80190268Y-37595452D01*
X80071426Y-37450643D01*
X79983122Y-37285436D01*
X79983121Y-37285433D01*
X79983120Y-37285432D01*
X79928741Y-37106168D01*
X79928741Y-37106167D01*
X79928740Y-37106164D01*
X79914980Y-36966457D01*
X79914980Y-35073023D01*
X79928741Y-34933315D01*
X79946639Y-34874313D01*
X79983121Y-34754047D01*
X80010716Y-34702420D01*
X80071427Y-34588837D01*
X80190269Y-34444028D01*
X80335078Y-34325186D01*
X80500284Y-34236882D01*
X80500285Y-34236882D01*
X80500288Y-34236880D01*
X80679552Y-34182501D01*
X80679553Y-34182501D01*
X80679556Y-34182500D01*
X80865980Y-34164139D01*
X81052405Y-34182500D01*
G37*
G36*
X86132405Y-34182500D02*
G01*
X86132408Y-34182501D01*
X86132409Y-34182501D01*
X86311673Y-34236880D01*
X86311676Y-34236882D01*
X86311677Y-34236882D01*
X86476883Y-34325186D01*
X86621692Y-34444028D01*
X86740534Y-34588837D01*
X86801245Y-34702420D01*
X86828840Y-34754047D01*
X86865322Y-34874313D01*
X86883220Y-34933315D01*
X86896980Y-35073022D01*
X86896980Y-36966458D01*
X86883220Y-37106165D01*
X86883219Y-37106168D01*
X86883219Y-37106169D01*
X86828840Y-37285433D01*
X86828838Y-37285436D01*
X86828838Y-37285437D01*
X86740534Y-37450643D01*
X86621692Y-37595452D01*
X86476883Y-37714294D01*
X86311676Y-37802598D01*
X86311672Y-37802600D01*
X86132408Y-37856979D01*
X86132407Y-37856979D01*
X86132404Y-37856980D01*
X85945980Y-37875341D01*
X85759555Y-37856980D01*
X85759552Y-37856979D01*
X85759551Y-37856979D01*
X85580287Y-37802600D01*
X85580283Y-37802598D01*
X85415077Y-37714294D01*
X85270268Y-37595452D01*
X85151426Y-37450643D01*
X85063122Y-37285436D01*
X85063121Y-37285433D01*
X85063120Y-37285432D01*
X85008741Y-37106168D01*
X85008741Y-37106167D01*
X85008740Y-37106164D01*
X84994980Y-36966457D01*
X84994980Y-35073023D01*
X85008741Y-34933315D01*
X85026639Y-34874313D01*
X85063121Y-34754047D01*
X85090716Y-34702420D01*
X85151427Y-34588837D01*
X85270269Y-34444028D01*
X85415078Y-34325186D01*
X85580284Y-34236882D01*
X85580285Y-34236882D01*
X85580288Y-34236880D01*
X85759552Y-34182501D01*
X85759553Y-34182501D01*
X85759556Y-34182500D01*
X85945980Y-34164139D01*
X86132405Y-34182500D01*
G37*
G36*
X91212405Y-34182500D02*
G01*
X91212408Y-34182501D01*
X91212409Y-34182501D01*
X91391673Y-34236880D01*
X91391676Y-34236882D01*
X91391677Y-34236882D01*
X91556883Y-34325186D01*
X91701692Y-34444028D01*
X91820534Y-34588837D01*
X91881245Y-34702420D01*
X91908840Y-34754047D01*
X91945322Y-34874313D01*
X91963220Y-34933315D01*
X91976980Y-35073022D01*
X91976980Y-36966458D01*
X91963220Y-37106165D01*
X91963219Y-37106168D01*
X91963219Y-37106169D01*
X91908840Y-37285433D01*
X91908838Y-37285436D01*
X91908838Y-37285437D01*
X91820534Y-37450643D01*
X91701692Y-37595452D01*
X91556883Y-37714294D01*
X91391676Y-37802598D01*
X91391672Y-37802600D01*
X91212408Y-37856979D01*
X91212407Y-37856979D01*
X91212404Y-37856980D01*
X91025980Y-37875341D01*
X90839555Y-37856980D01*
X90839552Y-37856979D01*
X90839551Y-37856979D01*
X90660287Y-37802600D01*
X90660283Y-37802598D01*
X90495077Y-37714294D01*
X90350268Y-37595452D01*
X90231426Y-37450643D01*
X90143122Y-37285436D01*
X90143121Y-37285433D01*
X90143120Y-37285432D01*
X90088741Y-37106168D01*
X90088741Y-37106167D01*
X90088740Y-37106164D01*
X90074980Y-36966457D01*
X90074980Y-35073023D01*
X90088741Y-34933315D01*
X90106639Y-34874313D01*
X90143121Y-34754047D01*
X90170716Y-34702420D01*
X90231427Y-34588837D01*
X90350269Y-34444028D01*
X90495078Y-34325186D01*
X90660284Y-34236882D01*
X90660285Y-34236882D01*
X90660288Y-34236880D01*
X90839552Y-34182501D01*
X90839553Y-34182501D01*
X90839556Y-34182500D01*
X91025980Y-34164139D01*
X91212405Y-34182500D01*
G37*
G36*
X97056980Y-37870740D02*
G01*
X95154980Y-37870740D01*
X95154980Y-34168740D01*
X97056980Y-34168740D01*
X97056980Y-37870740D01*
G37*
G36*
X110995399Y-35343937D02*
G01*
X111005008Y-35346852D01*
X111013872Y-35351590D01*
X111021637Y-35357963D01*
X111031848Y-35370406D01*
X111038778Y-35380775D01*
X111056105Y-35398102D01*
X111076480Y-35411715D01*
X111099120Y-35421091D01*
X111123153Y-35425871D01*
X111147657Y-35425870D01*
X111171690Y-35421088D01*
X111194329Y-35411710D01*
X111214702Y-35398095D01*
X111232029Y-35380768D01*
X111238958Y-35370398D01*
X111249163Y-35357963D01*
X111256928Y-35351590D01*
X111265792Y-35346852D01*
X111275401Y-35343937D01*
X111291540Y-35342348D01*
X111779261Y-35342348D01*
X111797599Y-35344154D01*
X111809850Y-35344756D01*
X111828269Y-35344756D01*
X111850549Y-35346950D01*
X111934633Y-35363676D01*
X111956060Y-35370176D01*
X112035258Y-35402980D01*
X112040703Y-35405891D01*
X112040709Y-35405893D01*
X112049569Y-35410629D01*
X112049573Y-35410632D01*
X112055014Y-35413540D01*
X112126299Y-35461171D01*
X112143604Y-35475372D01*
X112204228Y-35535996D01*
X112218429Y-35553301D01*
X112266060Y-35624586D01*
X112268968Y-35630027D01*
X112268971Y-35630031D01*
X112273707Y-35638891D01*
X112273709Y-35638897D01*
X112276620Y-35644342D01*
X112309424Y-35723540D01*
X112315924Y-35744967D01*
X112332650Y-35829051D01*
X112334844Y-35851331D01*
X112334844Y-35869750D01*
X112335446Y-35882001D01*
X112337252Y-35900339D01*
X112337252Y-36388062D01*
X112335446Y-36406399D01*
X112334844Y-36418650D01*
X112334844Y-36437069D01*
X112332650Y-36459349D01*
X112315924Y-36543433D01*
X112309424Y-36564860D01*
X112276620Y-36644058D01*
X112273709Y-36649503D01*
X112273707Y-36649509D01*
X112268971Y-36658369D01*
X112268968Y-36658373D01*
X112266060Y-36663814D01*
X112218429Y-36735099D01*
X112204228Y-36752404D01*
X112143604Y-36813028D01*
X112126299Y-36827229D01*
X112055014Y-36874860D01*
X112049573Y-36877768D01*
X112049569Y-36877771D01*
X112040709Y-36882507D01*
X112040703Y-36882509D01*
X112035258Y-36885420D01*
X111956060Y-36918224D01*
X111934633Y-36924724D01*
X111850549Y-36941450D01*
X111828269Y-36943644D01*
X111809850Y-36943644D01*
X111797599Y-36944246D01*
X111779262Y-36946052D01*
X111291540Y-36946052D01*
X111275401Y-36944463D01*
X111265792Y-36941548D01*
X111256928Y-36936810D01*
X111249163Y-36930437D01*
X111238952Y-36917994D01*
X111232022Y-36907625D01*
X111214695Y-36890298D01*
X111194320Y-36876685D01*
X111171680Y-36867309D01*
X111147647Y-36862529D01*
X111123143Y-36862530D01*
X111099110Y-36867312D01*
X111076471Y-36876690D01*
X111056098Y-36890305D01*
X111038771Y-36907632D01*
X111031842Y-36918002D01*
X111021637Y-36930437D01*
X111013872Y-36936810D01*
X111005008Y-36941548D01*
X110995399Y-36944463D01*
X110979260Y-36946052D01*
X110491538Y-36946052D01*
X110473201Y-36944246D01*
X110460950Y-36943644D01*
X110442531Y-36943644D01*
X110420251Y-36941450D01*
X110336167Y-36924724D01*
X110314740Y-36918224D01*
X110235542Y-36885420D01*
X110230097Y-36882509D01*
X110230091Y-36882507D01*
X110221231Y-36877771D01*
X110221227Y-36877768D01*
X110215786Y-36874860D01*
X110144501Y-36827229D01*
X110127196Y-36813028D01*
X110066572Y-36752404D01*
X110052371Y-36735099D01*
X110004740Y-36663814D01*
X110001832Y-36658373D01*
X110001829Y-36658369D01*
X109997093Y-36649509D01*
X109997091Y-36649503D01*
X109994180Y-36644058D01*
X109961376Y-36564860D01*
X109954876Y-36543433D01*
X109938150Y-36459349D01*
X109935956Y-36437069D01*
X109935956Y-36418650D01*
X109935354Y-36406399D01*
X109933548Y-36388062D01*
X109933548Y-35900339D01*
X109935354Y-35882001D01*
X109935956Y-35869750D01*
X109935956Y-35851331D01*
X109938150Y-35829051D01*
X109954876Y-35744967D01*
X109961376Y-35723540D01*
X109994180Y-35644342D01*
X109997091Y-35638897D01*
X109997093Y-35638891D01*
X110001829Y-35630031D01*
X110001832Y-35630027D01*
X110004740Y-35624586D01*
X110052371Y-35553301D01*
X110066572Y-35535996D01*
X110127196Y-35475372D01*
X110144501Y-35461171D01*
X110215786Y-35413540D01*
X110221227Y-35410632D01*
X110221231Y-35410629D01*
X110230091Y-35405893D01*
X110230097Y-35405891D01*
X110235542Y-35402980D01*
X110314740Y-35370176D01*
X110336167Y-35363676D01*
X110420251Y-35346950D01*
X110442531Y-35344756D01*
X110460950Y-35344756D01*
X110473201Y-35344154D01*
X110491539Y-35342348D01*
X110979260Y-35342348D01*
X110995399Y-35343937D01*
G37*
G36*
X190626239Y-29069467D02*
G01*
X190940282Y-29131934D01*
X191531926Y-29377001D01*
X192064392Y-29732784D01*
X192517216Y-30185608D01*
X192872999Y-30718074D01*
X193118066Y-31309718D01*
X193125358Y-31346376D01*
X193243000Y-31937803D01*
X193243000Y-32578197D01*
X193207396Y-32757188D01*
X193118066Y-33206282D01*
X192872999Y-33797926D01*
X192616034Y-34182500D01*
X192517217Y-34330391D01*
X192064391Y-34783217D01*
X191985081Y-34836210D01*
X191531926Y-35138999D01*
X190940282Y-35384066D01*
X190730119Y-35425870D01*
X190312197Y-35509000D01*
X189671803Y-35509000D01*
X189253881Y-35425870D01*
X189043718Y-35384066D01*
X188452074Y-35138999D01*
X187998919Y-34836210D01*
X187919609Y-34783217D01*
X187466783Y-34330391D01*
X187367966Y-34182500D01*
X187111001Y-33797926D01*
X186865934Y-33206282D01*
X186776604Y-32757188D01*
X186741000Y-32578197D01*
X186741000Y-31937803D01*
X186858642Y-31346376D01*
X186865934Y-31309718D01*
X187111001Y-30718074D01*
X187466784Y-30185608D01*
X187919608Y-29732784D01*
X188452074Y-29377001D01*
X189043718Y-29131934D01*
X189357761Y-29069467D01*
X189671803Y-29007000D01*
X190312197Y-29007000D01*
X190626239Y-29069467D01*
G37*
G36*
X63626239Y-29069467D02*
G01*
X63940282Y-29131934D01*
X64531926Y-29377001D01*
X65064392Y-29732784D01*
X65517216Y-30185608D01*
X65872999Y-30718074D01*
X66118066Y-31309718D01*
X66125358Y-31346376D01*
X66243000Y-31937803D01*
X66243000Y-32578197D01*
X66207396Y-32757188D01*
X66118066Y-33206282D01*
X65872999Y-33797926D01*
X65616034Y-34182500D01*
X65517217Y-34330391D01*
X65064391Y-34783217D01*
X64985081Y-34836210D01*
X64531926Y-35138999D01*
X63940282Y-35384066D01*
X63730119Y-35425870D01*
X63312197Y-35509000D01*
X62671803Y-35509000D01*
X62253881Y-35425870D01*
X62043718Y-35384066D01*
X61452074Y-35138999D01*
X60998919Y-34836210D01*
X60919609Y-34783217D01*
X60466783Y-34330391D01*
X60367966Y-34182500D01*
X60111001Y-33797926D01*
X59865934Y-33206282D01*
X59776604Y-32757188D01*
X59741000Y-32578197D01*
X59741000Y-31937803D01*
X59858642Y-31346376D01*
X59865934Y-31309718D01*
X60111001Y-30718074D01*
X60466784Y-30185608D01*
X60919608Y-29732784D01*
X61452074Y-29377001D01*
X62043718Y-29131934D01*
X62357761Y-29069467D01*
X62671803Y-29007000D01*
X63312197Y-29007000D01*
X63626239Y-29069467D01*
G37*
G36*
X174026713Y-33182349D02*
G01*
X174121152Y-33210997D01*
X174208187Y-33257518D01*
X174284475Y-33320125D01*
X174347082Y-33396413D01*
X174393603Y-33483448D01*
X174422251Y-33577887D01*
X174429500Y-33651488D01*
X174429500Y-34800712D01*
X174422251Y-34874313D01*
X174393603Y-34968752D01*
X174347082Y-35055787D01*
X174284475Y-35132075D01*
X174208187Y-35194682D01*
X174121151Y-35241203D01*
X174026712Y-35269851D01*
X173928500Y-35279524D01*
X173830287Y-35269851D01*
X173735848Y-35241203D01*
X173648813Y-35194682D01*
X173572525Y-35132075D01*
X173509918Y-35055787D01*
X173463397Y-34968751D01*
X173434749Y-34874312D01*
X173427500Y-34800711D01*
X173427501Y-33651488D01*
X173434750Y-33577887D01*
X173463398Y-33483448D01*
X173509919Y-33396413D01*
X173572526Y-33320125D01*
X173648814Y-33257518D01*
X173735849Y-33210997D01*
X173830288Y-33182349D01*
X173928500Y-33172676D01*
X174026713Y-33182349D01*
G37*
G36*
X165386713Y-33182349D02*
G01*
X165481152Y-33210997D01*
X165568187Y-33257518D01*
X165644475Y-33320125D01*
X165707082Y-33396413D01*
X165753603Y-33483448D01*
X165782251Y-33577887D01*
X165789500Y-33651488D01*
X165789500Y-34800712D01*
X165782251Y-34874313D01*
X165753603Y-34968752D01*
X165707082Y-35055787D01*
X165644475Y-35132075D01*
X165568187Y-35194682D01*
X165481151Y-35241203D01*
X165386712Y-35269851D01*
X165288500Y-35279524D01*
X165190287Y-35269851D01*
X165095848Y-35241203D01*
X165008813Y-35194682D01*
X164932525Y-35132075D01*
X164869918Y-35055787D01*
X164823397Y-34968751D01*
X164794749Y-34874312D01*
X164787500Y-34800711D01*
X164787501Y-33651488D01*
X164794750Y-33577887D01*
X164823398Y-33483448D01*
X164869919Y-33396413D01*
X164932526Y-33320125D01*
X165008814Y-33257518D01*
X165095849Y-33210997D01*
X165190288Y-33182349D01*
X165288500Y-33172676D01*
X165386713Y-33182349D01*
G37*
G36*
X176829413Y-33144249D02*
G01*
X176923852Y-33172897D01*
X177010887Y-33219418D01*
X177087175Y-33282025D01*
X177149782Y-33358313D01*
X177196303Y-33445348D01*
X177224951Y-33539787D01*
X177232200Y-33613388D01*
X177232200Y-34762612D01*
X177224951Y-34836213D01*
X177196303Y-34930652D01*
X177149782Y-35017687D01*
X177087175Y-35093975D01*
X177010887Y-35156582D01*
X176923851Y-35203103D01*
X176829412Y-35231751D01*
X176731200Y-35241424D01*
X176632987Y-35231751D01*
X176538548Y-35203103D01*
X176451513Y-35156582D01*
X176375225Y-35093975D01*
X176312618Y-35017687D01*
X176266097Y-34930651D01*
X176237449Y-34836212D01*
X176230200Y-34762611D01*
X176230201Y-33613388D01*
X176237450Y-33539787D01*
X176266098Y-33445348D01*
X176312619Y-33358313D01*
X176375226Y-33282025D01*
X176451514Y-33219418D01*
X176538549Y-33172897D01*
X176632988Y-33144249D01*
X176731200Y-33134576D01*
X176829413Y-33144249D01*
G37*
G36*
X185469413Y-33144249D02*
G01*
X185563852Y-33172897D01*
X185650887Y-33219418D01*
X185727175Y-33282025D01*
X185789782Y-33358313D01*
X185836303Y-33445348D01*
X185864951Y-33539787D01*
X185872200Y-33613388D01*
X185872200Y-34762612D01*
X185864951Y-34836213D01*
X185836303Y-34930652D01*
X185789782Y-35017687D01*
X185727175Y-35093975D01*
X185650887Y-35156582D01*
X185563851Y-35203103D01*
X185469412Y-35231751D01*
X185371200Y-35241424D01*
X185272987Y-35231751D01*
X185178548Y-35203103D01*
X185091513Y-35156582D01*
X185015225Y-35093975D01*
X184952618Y-35017687D01*
X184906097Y-34930651D01*
X184877449Y-34836212D01*
X184870200Y-34762611D01*
X184870201Y-33613388D01*
X184877450Y-33539787D01*
X184906098Y-33445348D01*
X184952619Y-33358313D01*
X185015226Y-33282025D01*
X185091514Y-33219418D01*
X185178549Y-33172897D01*
X185272988Y-33144249D01*
X185371200Y-33134576D01*
X185469413Y-33144249D01*
G37*
G36*
X172600883Y-33408589D02*
G01*
X172600886Y-33408590D01*
X172600885Y-33408590D01*
X172664758Y-33435046D01*
X172722248Y-33473460D01*
X172771140Y-33522352D01*
X172809554Y-33579842D01*
X172823453Y-33613398D01*
X172836011Y-33643717D01*
X172849500Y-33711530D01*
X172849500Y-33780670D01*
X172836011Y-33848483D01*
X172836010Y-33848485D01*
X172809554Y-33912358D01*
X172771140Y-33969848D01*
X172722248Y-34018740D01*
X172664758Y-34057154D01*
X172612682Y-34078724D01*
X172600883Y-34083611D01*
X172533070Y-34097100D01*
X172463930Y-34097100D01*
X172396117Y-34083611D01*
X172384318Y-34078724D01*
X172332242Y-34057154D01*
X172274752Y-34018740D01*
X172225860Y-33969848D01*
X172187446Y-33912358D01*
X172160990Y-33848485D01*
X172160989Y-33848483D01*
X172147500Y-33780670D01*
X172147500Y-33711530D01*
X172160989Y-33643717D01*
X172173547Y-33613398D01*
X172187446Y-33579842D01*
X172225860Y-33522352D01*
X172274752Y-33473460D01*
X172332242Y-33435046D01*
X172396115Y-33408590D01*
X172396114Y-33408590D01*
X172396117Y-33408589D01*
X172463930Y-33395100D01*
X172533070Y-33395100D01*
X172600883Y-33408589D01*
G37*
G36*
X166820883Y-33408589D02*
G01*
X166820886Y-33408590D01*
X166820885Y-33408590D01*
X166884758Y-33435046D01*
X166942248Y-33473460D01*
X166991140Y-33522352D01*
X167029554Y-33579842D01*
X167043453Y-33613398D01*
X167056011Y-33643717D01*
X167069500Y-33711530D01*
X167069500Y-33780670D01*
X167056011Y-33848483D01*
X167056010Y-33848485D01*
X167029554Y-33912358D01*
X166991140Y-33969848D01*
X166942248Y-34018740D01*
X166884758Y-34057154D01*
X166832682Y-34078724D01*
X166820883Y-34083611D01*
X166753070Y-34097100D01*
X166683930Y-34097100D01*
X166616117Y-34083611D01*
X166604318Y-34078724D01*
X166552242Y-34057154D01*
X166494752Y-34018740D01*
X166445860Y-33969848D01*
X166407446Y-33912358D01*
X166380990Y-33848485D01*
X166380989Y-33848483D01*
X166367500Y-33780670D01*
X166367500Y-33711530D01*
X166380989Y-33643717D01*
X166393547Y-33613398D01*
X166407446Y-33579842D01*
X166445860Y-33522352D01*
X166494752Y-33473460D01*
X166552242Y-33435046D01*
X166616115Y-33408590D01*
X166616114Y-33408590D01*
X166616117Y-33408589D01*
X166683930Y-33395100D01*
X166753070Y-33395100D01*
X166820883Y-33408589D01*
G37*
G36*
X178263583Y-33370489D02*
G01*
X178263586Y-33370490D01*
X178263585Y-33370490D01*
X178327458Y-33396946D01*
X178384948Y-33435360D01*
X178433840Y-33484252D01*
X178472254Y-33541742D01*
X178488035Y-33579842D01*
X178498711Y-33605617D01*
X178512200Y-33673430D01*
X178512200Y-33742570D01*
X178498711Y-33810383D01*
X178498710Y-33810385D01*
X178472254Y-33874258D01*
X178433840Y-33931748D01*
X178384948Y-33980640D01*
X178327458Y-34019054D01*
X178275382Y-34040624D01*
X178263583Y-34045511D01*
X178195770Y-34059000D01*
X178126630Y-34059000D01*
X178058817Y-34045511D01*
X178047018Y-34040624D01*
X177994942Y-34019054D01*
X177937452Y-33980640D01*
X177888560Y-33931748D01*
X177850146Y-33874258D01*
X177823690Y-33810385D01*
X177823689Y-33810383D01*
X177810200Y-33742570D01*
X177810200Y-33673430D01*
X177823689Y-33605617D01*
X177834365Y-33579842D01*
X177850146Y-33541742D01*
X177888560Y-33484252D01*
X177937452Y-33435360D01*
X177994942Y-33396946D01*
X178058815Y-33370490D01*
X178058814Y-33370490D01*
X178058817Y-33370489D01*
X178126630Y-33357000D01*
X178195770Y-33357000D01*
X178263583Y-33370489D01*
G37*
G36*
X184043583Y-33370489D02*
G01*
X184043586Y-33370490D01*
X184043585Y-33370490D01*
X184107458Y-33396946D01*
X184164948Y-33435360D01*
X184213840Y-33484252D01*
X184252254Y-33541742D01*
X184268035Y-33579842D01*
X184278711Y-33605617D01*
X184292200Y-33673430D01*
X184292200Y-33742570D01*
X184278711Y-33810383D01*
X184278710Y-33810385D01*
X184252254Y-33874258D01*
X184213840Y-33931748D01*
X184164948Y-33980640D01*
X184107458Y-34019054D01*
X184055382Y-34040624D01*
X184043583Y-34045511D01*
X183975770Y-34059000D01*
X183906630Y-34059000D01*
X183838817Y-34045511D01*
X183827018Y-34040624D01*
X183774942Y-34019054D01*
X183717452Y-33980640D01*
X183668560Y-33931748D01*
X183630146Y-33874258D01*
X183603690Y-33810385D01*
X183603689Y-33810383D01*
X183590200Y-33742570D01*
X183590200Y-33673430D01*
X183603689Y-33605617D01*
X183614365Y-33579842D01*
X183630146Y-33541742D01*
X183668560Y-33484252D01*
X183717452Y-33435360D01*
X183774942Y-33396946D01*
X183838815Y-33370490D01*
X183838814Y-33370490D01*
X183838817Y-33370489D01*
X183906630Y-33357000D01*
X183975770Y-33357000D01*
X184043583Y-33370489D01*
G37*
G36*
X137273512Y-32123927D02*
G01*
X137422812Y-32153624D01*
X137586784Y-32221544D01*
X137734354Y-32320147D01*
X137859853Y-32445646D01*
X137958456Y-32593216D01*
X138026376Y-32757188D01*
X138061000Y-32931259D01*
X138061000Y-33108741D01*
X138026376Y-33282812D01*
X137958456Y-33446784D01*
X137859853Y-33594354D01*
X137734354Y-33719853D01*
X137586784Y-33818456D01*
X137422812Y-33886376D01*
X137292188Y-33912358D01*
X137248742Y-33921000D01*
X137071258Y-33921000D01*
X137027812Y-33912358D01*
X136897188Y-33886376D01*
X136733216Y-33818456D01*
X136585646Y-33719853D01*
X136460147Y-33594354D01*
X136361544Y-33446784D01*
X136293624Y-33282812D01*
X136259000Y-33108741D01*
X136259000Y-32931259D01*
X136293624Y-32757188D01*
X136361544Y-32593216D01*
X136460147Y-32445646D01*
X136585646Y-32320147D01*
X136733216Y-32221544D01*
X136897188Y-32153624D01*
X137046488Y-32123927D01*
X137071258Y-32119000D01*
X137248742Y-32119000D01*
X137273512Y-32123927D01*
G37*
G36*
X119493512Y-32123927D02*
G01*
X119642812Y-32153624D01*
X119806784Y-32221544D01*
X119954354Y-32320147D01*
X120079853Y-32445646D01*
X120178456Y-32593216D01*
X120246376Y-32757188D01*
X120281000Y-32931259D01*
X120281000Y-33108741D01*
X120246376Y-33282812D01*
X120178456Y-33446784D01*
X120079853Y-33594354D01*
X119954354Y-33719853D01*
X119806784Y-33818456D01*
X119642812Y-33886376D01*
X119512188Y-33912358D01*
X119468742Y-33921000D01*
X119291258Y-33921000D01*
X119247812Y-33912358D01*
X119117188Y-33886376D01*
X118953216Y-33818456D01*
X118805646Y-33719853D01*
X118680147Y-33594354D01*
X118581544Y-33446784D01*
X118513624Y-33282812D01*
X118479000Y-33108741D01*
X118479000Y-32931259D01*
X118513624Y-32757188D01*
X118581544Y-32593216D01*
X118680147Y-32445646D01*
X118805646Y-32320147D01*
X118953216Y-32221544D01*
X119117188Y-32153624D01*
X119266488Y-32123927D01*
X119291258Y-32119000D01*
X119468742Y-32119000D01*
X119493512Y-32123927D01*
G37*
G36*
X122033512Y-32123927D02*
G01*
X122182812Y-32153624D01*
X122346784Y-32221544D01*
X122494354Y-32320147D01*
X122619853Y-32445646D01*
X122718456Y-32593216D01*
X122786376Y-32757188D01*
X122821000Y-32931259D01*
X122821000Y-33108741D01*
X122786376Y-33282812D01*
X122718456Y-33446784D01*
X122619853Y-33594354D01*
X122494354Y-33719853D01*
X122346784Y-33818456D01*
X122182812Y-33886376D01*
X122052188Y-33912358D01*
X122008742Y-33921000D01*
X121831258Y-33921000D01*
X121787812Y-33912358D01*
X121657188Y-33886376D01*
X121493216Y-33818456D01*
X121345646Y-33719853D01*
X121220147Y-33594354D01*
X121121544Y-33446784D01*
X121053624Y-33282812D01*
X121019000Y-33108741D01*
X121019000Y-32931259D01*
X121053624Y-32757188D01*
X121121544Y-32593216D01*
X121220147Y-32445646D01*
X121345646Y-32320147D01*
X121493216Y-32221544D01*
X121657188Y-32153624D01*
X121806488Y-32123927D01*
X121831258Y-32119000D01*
X122008742Y-32119000D01*
X122033512Y-32123927D01*
G37*
G36*
X124573512Y-32123927D02*
G01*
X124722812Y-32153624D01*
X124886784Y-32221544D01*
X125034354Y-32320147D01*
X125159853Y-32445646D01*
X125258456Y-32593216D01*
X125326376Y-32757188D01*
X125361000Y-32931259D01*
X125361000Y-33108741D01*
X125326376Y-33282812D01*
X125258456Y-33446784D01*
X125159853Y-33594354D01*
X125034354Y-33719853D01*
X124886784Y-33818456D01*
X124722812Y-33886376D01*
X124592188Y-33912358D01*
X124548742Y-33921000D01*
X124371258Y-33921000D01*
X124327812Y-33912358D01*
X124197188Y-33886376D01*
X124033216Y-33818456D01*
X123885646Y-33719853D01*
X123760147Y-33594354D01*
X123661544Y-33446784D01*
X123593624Y-33282812D01*
X123559000Y-33108741D01*
X123559000Y-32931259D01*
X123593624Y-32757188D01*
X123661544Y-32593216D01*
X123760147Y-32445646D01*
X123885646Y-32320147D01*
X124033216Y-32221544D01*
X124197188Y-32153624D01*
X124346488Y-32123927D01*
X124371258Y-32119000D01*
X124548742Y-32119000D01*
X124573512Y-32123927D01*
G37*
G36*
X127113512Y-32123927D02*
G01*
X127262812Y-32153624D01*
X127426784Y-32221544D01*
X127574354Y-32320147D01*
X127699853Y-32445646D01*
X127798456Y-32593216D01*
X127866376Y-32757188D01*
X127901000Y-32931259D01*
X127901000Y-33108741D01*
X127866376Y-33282812D01*
X127798456Y-33446784D01*
X127699853Y-33594354D01*
X127574354Y-33719853D01*
X127426784Y-33818456D01*
X127262812Y-33886376D01*
X127132188Y-33912358D01*
X127088742Y-33921000D01*
X126911258Y-33921000D01*
X126867812Y-33912358D01*
X126737188Y-33886376D01*
X126573216Y-33818456D01*
X126425646Y-33719853D01*
X126300147Y-33594354D01*
X126201544Y-33446784D01*
X126133624Y-33282812D01*
X126099000Y-33108741D01*
X126099000Y-32931259D01*
X126133624Y-32757188D01*
X126201544Y-32593216D01*
X126300147Y-32445646D01*
X126425646Y-32320147D01*
X126573216Y-32221544D01*
X126737188Y-32153624D01*
X126886488Y-32123927D01*
X126911258Y-32119000D01*
X127088742Y-32119000D01*
X127113512Y-32123927D01*
G37*
G36*
X129653512Y-32123927D02*
G01*
X129802812Y-32153624D01*
X129966784Y-32221544D01*
X130114354Y-32320147D01*
X130239853Y-32445646D01*
X130338456Y-32593216D01*
X130406376Y-32757188D01*
X130441000Y-32931259D01*
X130441000Y-33108741D01*
X130406376Y-33282812D01*
X130338456Y-33446784D01*
X130239853Y-33594354D01*
X130114354Y-33719853D01*
X129966784Y-33818456D01*
X129802812Y-33886376D01*
X129672188Y-33912358D01*
X129628742Y-33921000D01*
X129451258Y-33921000D01*
X129407812Y-33912358D01*
X129277188Y-33886376D01*
X129113216Y-33818456D01*
X128965646Y-33719853D01*
X128840147Y-33594354D01*
X128741544Y-33446784D01*
X128673624Y-33282812D01*
X128639000Y-33108741D01*
X128639000Y-32931259D01*
X128673624Y-32757188D01*
X128741544Y-32593216D01*
X128840147Y-32445646D01*
X128965646Y-32320147D01*
X129113216Y-32221544D01*
X129277188Y-32153624D01*
X129426488Y-32123927D01*
X129451258Y-32119000D01*
X129628742Y-32119000D01*
X129653512Y-32123927D01*
G37*
G36*
X134733512Y-32123927D02*
G01*
X134882812Y-32153624D01*
X135046784Y-32221544D01*
X135194354Y-32320147D01*
X135319853Y-32445646D01*
X135418456Y-32593216D01*
X135486376Y-32757188D01*
X135521000Y-32931259D01*
X135521000Y-33108741D01*
X135486376Y-33282812D01*
X135418456Y-33446784D01*
X135319853Y-33594354D01*
X135194354Y-33719853D01*
X135046784Y-33818456D01*
X134882812Y-33886376D01*
X134752188Y-33912358D01*
X134708742Y-33921000D01*
X134531258Y-33921000D01*
X134487812Y-33912358D01*
X134357188Y-33886376D01*
X134193216Y-33818456D01*
X134045646Y-33719853D01*
X133920147Y-33594354D01*
X133821544Y-33446784D01*
X133753624Y-33282812D01*
X133719000Y-33108741D01*
X133719000Y-32931259D01*
X133753624Y-32757188D01*
X133821544Y-32593216D01*
X133920147Y-32445646D01*
X134045646Y-32320147D01*
X134193216Y-32221544D01*
X134357188Y-32153624D01*
X134506488Y-32123927D01*
X134531258Y-32119000D01*
X134708742Y-32119000D01*
X134733512Y-32123927D01*
G37*
G36*
X110121000Y-33921000D02*
G01*
X108319000Y-33921000D01*
X108319000Y-32119000D01*
X110121000Y-32119000D01*
X110121000Y-33921000D01*
G37*
G36*
X111873512Y-32123927D02*
G01*
X112022812Y-32153624D01*
X112186784Y-32221544D01*
X112334354Y-32320147D01*
X112459853Y-32445646D01*
X112558456Y-32593216D01*
X112626376Y-32757188D01*
X112661000Y-32931259D01*
X112661000Y-33108741D01*
X112626376Y-33282812D01*
X112558456Y-33446784D01*
X112459853Y-33594354D01*
X112334354Y-33719853D01*
X112186784Y-33818456D01*
X112022812Y-33886376D01*
X111892188Y-33912358D01*
X111848742Y-33921000D01*
X111671258Y-33921000D01*
X111627812Y-33912358D01*
X111497188Y-33886376D01*
X111333216Y-33818456D01*
X111185646Y-33719853D01*
X111060147Y-33594354D01*
X110961544Y-33446784D01*
X110893624Y-33282812D01*
X110859000Y-33108741D01*
X110859000Y-32931259D01*
X110893624Y-32757188D01*
X110961544Y-32593216D01*
X111060147Y-32445646D01*
X111185646Y-32320147D01*
X111333216Y-32221544D01*
X111497188Y-32153624D01*
X111646488Y-32123927D01*
X111671258Y-32119000D01*
X111848742Y-32119000D01*
X111873512Y-32123927D01*
G37*
G36*
X114413512Y-32123927D02*
G01*
X114562812Y-32153624D01*
X114726784Y-32221544D01*
X114874354Y-32320147D01*
X114999853Y-32445646D01*
X115098456Y-32593216D01*
X115166376Y-32757188D01*
X115201000Y-32931259D01*
X115201000Y-33108741D01*
X115166376Y-33282812D01*
X115098456Y-33446784D01*
X114999853Y-33594354D01*
X114874354Y-33719853D01*
X114726784Y-33818456D01*
X114562812Y-33886376D01*
X114432188Y-33912358D01*
X114388742Y-33921000D01*
X114211258Y-33921000D01*
X114167812Y-33912358D01*
X114037188Y-33886376D01*
X113873216Y-33818456D01*
X113725646Y-33719853D01*
X113600147Y-33594354D01*
X113501544Y-33446784D01*
X113433624Y-33282812D01*
X113399000Y-33108741D01*
X113399000Y-32931259D01*
X113433624Y-32757188D01*
X113501544Y-32593216D01*
X113600147Y-32445646D01*
X113725646Y-32320147D01*
X113873216Y-32221544D01*
X114037188Y-32153624D01*
X114186488Y-32123927D01*
X114211258Y-32119000D01*
X114388742Y-32119000D01*
X114413512Y-32123927D01*
G37*
G36*
X116953512Y-32123927D02*
G01*
X117102812Y-32153624D01*
X117266784Y-32221544D01*
X117414354Y-32320147D01*
X117539853Y-32445646D01*
X117638456Y-32593216D01*
X117706376Y-32757188D01*
X117741000Y-32931259D01*
X117741000Y-33108741D01*
X117706376Y-33282812D01*
X117638456Y-33446784D01*
X117539853Y-33594354D01*
X117414354Y-33719853D01*
X117266784Y-33818456D01*
X117102812Y-33886376D01*
X116972188Y-33912358D01*
X116928742Y-33921000D01*
X116751258Y-33921000D01*
X116707812Y-33912358D01*
X116577188Y-33886376D01*
X116413216Y-33818456D01*
X116265646Y-33719853D01*
X116140147Y-33594354D01*
X116041544Y-33446784D01*
X115973624Y-33282812D01*
X115939000Y-33108741D01*
X115939000Y-32931259D01*
X115973624Y-32757188D01*
X116041544Y-32593216D01*
X116140147Y-32445646D01*
X116265646Y-32320147D01*
X116413216Y-32221544D01*
X116577188Y-32153624D01*
X116726488Y-32123927D01*
X116751258Y-32119000D01*
X116928742Y-32119000D01*
X116953512Y-32123927D01*
G37*
G36*
X132193512Y-32123927D02*
G01*
X132342812Y-32153624D01*
X132506784Y-32221544D01*
X132654354Y-32320147D01*
X132779853Y-32445646D01*
X132878456Y-32593216D01*
X132946376Y-32757188D01*
X132981000Y-32931259D01*
X132981000Y-33108741D01*
X132946376Y-33282812D01*
X132878456Y-33446784D01*
X132779853Y-33594354D01*
X132654354Y-33719853D01*
X132506784Y-33818456D01*
X132342812Y-33886376D01*
X132212188Y-33912358D01*
X132168742Y-33921000D01*
X131991258Y-33921000D01*
X131947812Y-33912358D01*
X131817188Y-33886376D01*
X131653216Y-33818456D01*
X131505646Y-33719853D01*
X131380147Y-33594354D01*
X131281544Y-33446784D01*
X131213624Y-33282812D01*
X131179000Y-33108741D01*
X131179000Y-32931259D01*
X131213624Y-32757188D01*
X131281544Y-32593216D01*
X131380147Y-32445646D01*
X131505646Y-32320147D01*
X131653216Y-32221544D01*
X131817188Y-32153624D01*
X131966488Y-32123927D01*
X131991258Y-32119000D01*
X132168742Y-32119000D01*
X132193512Y-32123927D01*
G37*
G36*
X114413512Y-29583927D02*
G01*
X114562812Y-29613624D01*
X114726784Y-29681544D01*
X114874354Y-29780147D01*
X114999853Y-29905646D01*
X115098456Y-30053216D01*
X115166376Y-30217188D01*
X115201000Y-30391259D01*
X115201000Y-30568741D01*
X115166376Y-30742812D01*
X115098456Y-30906784D01*
X114999853Y-31054354D01*
X114874354Y-31179853D01*
X114726784Y-31278456D01*
X114562812Y-31346376D01*
X114413512Y-31376073D01*
X114388742Y-31381000D01*
X114211258Y-31381000D01*
X114186488Y-31376073D01*
X114037188Y-31346376D01*
X113873216Y-31278456D01*
X113725646Y-31179853D01*
X113600147Y-31054354D01*
X113501544Y-30906784D01*
X113433624Y-30742812D01*
X113399000Y-30568741D01*
X113399000Y-30391259D01*
X113433624Y-30217188D01*
X113501544Y-30053216D01*
X113600147Y-29905646D01*
X113725646Y-29780147D01*
X113873216Y-29681544D01*
X114037188Y-29613624D01*
X114186488Y-29583927D01*
X114211258Y-29579000D01*
X114388742Y-29579000D01*
X114413512Y-29583927D01*
G37*
G36*
X137273512Y-29583927D02*
G01*
X137422812Y-29613624D01*
X137586784Y-29681544D01*
X137734354Y-29780147D01*
X137859853Y-29905646D01*
X137958456Y-30053216D01*
X138026376Y-30217188D01*
X138061000Y-30391259D01*
X138061000Y-30568741D01*
X138026376Y-30742812D01*
X137958456Y-30906784D01*
X137859853Y-31054354D01*
X137734354Y-31179853D01*
X137586784Y-31278456D01*
X137422812Y-31346376D01*
X137273512Y-31376073D01*
X137248742Y-31381000D01*
X137071258Y-31381000D01*
X137046488Y-31376073D01*
X136897188Y-31346376D01*
X136733216Y-31278456D01*
X136585646Y-31179853D01*
X136460147Y-31054354D01*
X136361544Y-30906784D01*
X136293624Y-30742812D01*
X136259000Y-30568741D01*
X136259000Y-30391259D01*
X136293624Y-30217188D01*
X136361544Y-30053216D01*
X136460147Y-29905646D01*
X136585646Y-29780147D01*
X136733216Y-29681544D01*
X136897188Y-29613624D01*
X137046488Y-29583927D01*
X137071258Y-29579000D01*
X137248742Y-29579000D01*
X137273512Y-29583927D01*
G37*
G36*
X134733512Y-29583927D02*
G01*
X134882812Y-29613624D01*
X135046784Y-29681544D01*
X135194354Y-29780147D01*
X135319853Y-29905646D01*
X135418456Y-30053216D01*
X135486376Y-30217188D01*
X135521000Y-30391259D01*
X135521000Y-30568741D01*
X135486376Y-30742812D01*
X135418456Y-30906784D01*
X135319853Y-31054354D01*
X135194354Y-31179853D01*
X135046784Y-31278456D01*
X134882812Y-31346376D01*
X134733512Y-31376073D01*
X134708742Y-31381000D01*
X134531258Y-31381000D01*
X134506488Y-31376073D01*
X134357188Y-31346376D01*
X134193216Y-31278456D01*
X134045646Y-31179853D01*
X133920147Y-31054354D01*
X133821544Y-30906784D01*
X133753624Y-30742812D01*
X133719000Y-30568741D01*
X133719000Y-30391259D01*
X133753624Y-30217188D01*
X133821544Y-30053216D01*
X133920147Y-29905646D01*
X134045646Y-29780147D01*
X134193216Y-29681544D01*
X134357188Y-29613624D01*
X134506488Y-29583927D01*
X134531258Y-29579000D01*
X134708742Y-29579000D01*
X134733512Y-29583927D01*
G37*
G36*
X111873512Y-29583927D02*
G01*
X112022812Y-29613624D01*
X112186784Y-29681544D01*
X112334354Y-29780147D01*
X112459853Y-29905646D01*
X112558456Y-30053216D01*
X112626376Y-30217188D01*
X112661000Y-30391259D01*
X112661000Y-30568741D01*
X112626376Y-30742812D01*
X112558456Y-30906784D01*
X112459853Y-31054354D01*
X112334354Y-31179853D01*
X112186784Y-31278456D01*
X112022812Y-31346376D01*
X111873512Y-31376073D01*
X111848742Y-31381000D01*
X111671258Y-31381000D01*
X111646488Y-31376073D01*
X111497188Y-31346376D01*
X111333216Y-31278456D01*
X111185646Y-31179853D01*
X111060147Y-31054354D01*
X110961544Y-30906784D01*
X110893624Y-30742812D01*
X110859000Y-30568741D01*
X110859000Y-30391259D01*
X110893624Y-30217188D01*
X110961544Y-30053216D01*
X111060147Y-29905646D01*
X111185646Y-29780147D01*
X111333216Y-29681544D01*
X111497188Y-29613624D01*
X111646488Y-29583927D01*
X111671258Y-29579000D01*
X111848742Y-29579000D01*
X111873512Y-29583927D01*
G37*
G36*
X132193512Y-29583927D02*
G01*
X132342812Y-29613624D01*
X132506784Y-29681544D01*
X132654354Y-29780147D01*
X132779853Y-29905646D01*
X132878456Y-30053216D01*
X132946376Y-30217188D01*
X132981000Y-30391259D01*
X132981000Y-30568741D01*
X132946376Y-30742812D01*
X132878456Y-30906784D01*
X132779853Y-31054354D01*
X132654354Y-31179853D01*
X132506784Y-31278456D01*
X132342812Y-31346376D01*
X132193512Y-31376073D01*
X132168742Y-31381000D01*
X131991258Y-31381000D01*
X131966488Y-31376073D01*
X131817188Y-31346376D01*
X131653216Y-31278456D01*
X131505646Y-31179853D01*
X131380147Y-31054354D01*
X131281544Y-30906784D01*
X131213624Y-30742812D01*
X131179000Y-30568741D01*
X131179000Y-30391259D01*
X131213624Y-30217188D01*
X131281544Y-30053216D01*
X131380147Y-29905646D01*
X131505646Y-29780147D01*
X131653216Y-29681544D01*
X131817188Y-29613624D01*
X131966488Y-29583927D01*
X131991258Y-29579000D01*
X132168742Y-29579000D01*
X132193512Y-29583927D01*
G37*
G36*
X129653512Y-29583927D02*
G01*
X129802812Y-29613624D01*
X129966784Y-29681544D01*
X130114354Y-29780147D01*
X130239853Y-29905646D01*
X130338456Y-30053216D01*
X130406376Y-30217188D01*
X130441000Y-30391259D01*
X130441000Y-30568741D01*
X130406376Y-30742812D01*
X130338456Y-30906784D01*
X130239853Y-31054354D01*
X130114354Y-31179853D01*
X129966784Y-31278456D01*
X129802812Y-31346376D01*
X129653512Y-31376073D01*
X129628742Y-31381000D01*
X129451258Y-31381000D01*
X129426488Y-31376073D01*
X129277188Y-31346376D01*
X129113216Y-31278456D01*
X128965646Y-31179853D01*
X128840147Y-31054354D01*
X128741544Y-30906784D01*
X128673624Y-30742812D01*
X128639000Y-30568741D01*
X128639000Y-30391259D01*
X128673624Y-30217188D01*
X128741544Y-30053216D01*
X128840147Y-29905646D01*
X128965646Y-29780147D01*
X129113216Y-29681544D01*
X129277188Y-29613624D01*
X129426488Y-29583927D01*
X129451258Y-29579000D01*
X129628742Y-29579000D01*
X129653512Y-29583927D01*
G37*
G36*
X127113512Y-29583927D02*
G01*
X127262812Y-29613624D01*
X127426784Y-29681544D01*
X127574354Y-29780147D01*
X127699853Y-29905646D01*
X127798456Y-30053216D01*
X127866376Y-30217188D01*
X127901000Y-30391259D01*
X127901000Y-30568741D01*
X127866376Y-30742812D01*
X127798456Y-30906784D01*
X127699853Y-31054354D01*
X127574354Y-31179853D01*
X127426784Y-31278456D01*
X127262812Y-31346376D01*
X127113512Y-31376073D01*
X127088742Y-31381000D01*
X126911258Y-31381000D01*
X126886488Y-31376073D01*
X126737188Y-31346376D01*
X126573216Y-31278456D01*
X126425646Y-31179853D01*
X126300147Y-31054354D01*
X126201544Y-30906784D01*
X126133624Y-30742812D01*
X126099000Y-30568741D01*
X126099000Y-30391259D01*
X126133624Y-30217188D01*
X126201544Y-30053216D01*
X126300147Y-29905646D01*
X126425646Y-29780147D01*
X126573216Y-29681544D01*
X126737188Y-29613624D01*
X126886488Y-29583927D01*
X126911258Y-29579000D01*
X127088742Y-29579000D01*
X127113512Y-29583927D01*
G37*
G36*
X124573512Y-29583927D02*
G01*
X124722812Y-29613624D01*
X124886784Y-29681544D01*
X125034354Y-29780147D01*
X125159853Y-29905646D01*
X125258456Y-30053216D01*
X125326376Y-30217188D01*
X125361000Y-30391259D01*
X125361000Y-30568741D01*
X125326376Y-30742812D01*
X125258456Y-30906784D01*
X125159853Y-31054354D01*
X125034354Y-31179853D01*
X124886784Y-31278456D01*
X124722812Y-31346376D01*
X124573512Y-31376073D01*
X124548742Y-31381000D01*
X124371258Y-31381000D01*
X124346488Y-31376073D01*
X124197188Y-31346376D01*
X124033216Y-31278456D01*
X123885646Y-31179853D01*
X123760147Y-31054354D01*
X123661544Y-30906784D01*
X123593624Y-30742812D01*
X123559000Y-30568741D01*
X123559000Y-30391259D01*
X123593624Y-30217188D01*
X123661544Y-30053216D01*
X123760147Y-29905646D01*
X123885646Y-29780147D01*
X124033216Y-29681544D01*
X124197188Y-29613624D01*
X124346488Y-29583927D01*
X124371258Y-29579000D01*
X124548742Y-29579000D01*
X124573512Y-29583927D01*
G37*
G36*
X122033512Y-29583927D02*
G01*
X122182812Y-29613624D01*
X122346784Y-29681544D01*
X122494354Y-29780147D01*
X122619853Y-29905646D01*
X122718456Y-30053216D01*
X122786376Y-30217188D01*
X122821000Y-30391259D01*
X122821000Y-30568741D01*
X122786376Y-30742812D01*
X122718456Y-30906784D01*
X122619853Y-31054354D01*
X122494354Y-31179853D01*
X122346784Y-31278456D01*
X122182812Y-31346376D01*
X122033512Y-31376073D01*
X122008742Y-31381000D01*
X121831258Y-31381000D01*
X121806488Y-31376073D01*
X121657188Y-31346376D01*
X121493216Y-31278456D01*
X121345646Y-31179853D01*
X121220147Y-31054354D01*
X121121544Y-30906784D01*
X121053624Y-30742812D01*
X121019000Y-30568741D01*
X121019000Y-30391259D01*
X121053624Y-30217188D01*
X121121544Y-30053216D01*
X121220147Y-29905646D01*
X121345646Y-29780147D01*
X121493216Y-29681544D01*
X121657188Y-29613624D01*
X121806488Y-29583927D01*
X121831258Y-29579000D01*
X122008742Y-29579000D01*
X122033512Y-29583927D01*
G37*
G36*
X109333512Y-29583927D02*
G01*
X109482812Y-29613624D01*
X109646784Y-29681544D01*
X109794354Y-29780147D01*
X109919853Y-29905646D01*
X110018456Y-30053216D01*
X110086376Y-30217188D01*
X110121000Y-30391259D01*
X110121000Y-30568741D01*
X110086376Y-30742812D01*
X110018456Y-30906784D01*
X109919853Y-31054354D01*
X109794354Y-31179853D01*
X109646784Y-31278456D01*
X109482812Y-31346376D01*
X109333512Y-31376073D01*
X109308742Y-31381000D01*
X109131258Y-31381000D01*
X109106488Y-31376073D01*
X108957188Y-31346376D01*
X108793216Y-31278456D01*
X108645646Y-31179853D01*
X108520147Y-31054354D01*
X108421544Y-30906784D01*
X108353624Y-30742812D01*
X108319000Y-30568741D01*
X108319000Y-30391259D01*
X108353624Y-30217188D01*
X108421544Y-30053216D01*
X108520147Y-29905646D01*
X108645646Y-29780147D01*
X108793216Y-29681544D01*
X108957188Y-29613624D01*
X109106488Y-29583927D01*
X109131258Y-29579000D01*
X109308742Y-29579000D01*
X109333512Y-29583927D01*
G37*
G36*
X119493512Y-29583927D02*
G01*
X119642812Y-29613624D01*
X119806784Y-29681544D01*
X119954354Y-29780147D01*
X120079853Y-29905646D01*
X120178456Y-30053216D01*
X120246376Y-30217188D01*
X120281000Y-30391259D01*
X120281000Y-30568741D01*
X120246376Y-30742812D01*
X120178456Y-30906784D01*
X120079853Y-31054354D01*
X119954354Y-31179853D01*
X119806784Y-31278456D01*
X119642812Y-31346376D01*
X119493512Y-31376073D01*
X119468742Y-31381000D01*
X119291258Y-31381000D01*
X119266488Y-31376073D01*
X119117188Y-31346376D01*
X118953216Y-31278456D01*
X118805646Y-31179853D01*
X118680147Y-31054354D01*
X118581544Y-30906784D01*
X118513624Y-30742812D01*
X118479000Y-30568741D01*
X118479000Y-30391259D01*
X118513624Y-30217188D01*
X118581544Y-30053216D01*
X118680147Y-29905646D01*
X118805646Y-29780147D01*
X118953216Y-29681544D01*
X119117188Y-29613624D01*
X119266488Y-29583927D01*
X119291258Y-29579000D01*
X119468742Y-29579000D01*
X119493512Y-29583927D01*
G37*
G36*
X116953512Y-29583927D02*
G01*
X117102812Y-29613624D01*
X117266784Y-29681544D01*
X117414354Y-29780147D01*
X117539853Y-29905646D01*
X117638456Y-30053216D01*
X117706376Y-30217188D01*
X117741000Y-30391259D01*
X117741000Y-30568741D01*
X117706376Y-30742812D01*
X117638456Y-30906784D01*
X117539853Y-31054354D01*
X117414354Y-31179853D01*
X117266784Y-31278456D01*
X117102812Y-31346376D01*
X116953512Y-31376073D01*
X116928742Y-31381000D01*
X116751258Y-31381000D01*
X116726488Y-31376073D01*
X116577188Y-31346376D01*
X116413216Y-31278456D01*
X116265646Y-31179853D01*
X116140147Y-31054354D01*
X116041544Y-30906784D01*
X115973624Y-30742812D01*
X115939000Y-30568741D01*
X115939000Y-30391259D01*
X115973624Y-30217188D01*
X116041544Y-30053216D01*
X116140147Y-29905646D01*
X116265646Y-29780147D01*
X116413216Y-29681544D01*
X116577188Y-29613624D01*
X116726488Y-29583927D01*
X116751258Y-29579000D01*
X116928742Y-29579000D01*
X116953512Y-29583927D01*
G37*
G36*
X174026713Y-29162349D02*
G01*
X174121152Y-29190997D01*
X174208187Y-29237518D01*
X174284475Y-29300125D01*
X174347082Y-29376413D01*
X174393603Y-29463448D01*
X174422251Y-29557887D01*
X174429500Y-29631488D01*
X174429500Y-30480712D01*
X174422251Y-30554313D01*
X174393603Y-30648752D01*
X174347082Y-30735787D01*
X174284475Y-30812075D01*
X174208187Y-30874682D01*
X174121151Y-30921203D01*
X174026712Y-30949851D01*
X173928500Y-30959524D01*
X173830287Y-30949851D01*
X173735848Y-30921203D01*
X173648813Y-30874682D01*
X173572525Y-30812075D01*
X173509918Y-30735787D01*
X173463397Y-30648751D01*
X173434749Y-30554312D01*
X173427500Y-30480711D01*
X173427500Y-29631498D01*
X173434750Y-29557886D01*
X173446308Y-29519786D01*
X173463398Y-29463448D01*
X173509919Y-29376413D01*
X173572526Y-29300125D01*
X173648814Y-29237518D01*
X173735849Y-29190997D01*
X173830288Y-29162349D01*
X173928500Y-29152676D01*
X174026713Y-29162349D01*
G37*
G36*
X165386713Y-29162349D02*
G01*
X165481152Y-29190997D01*
X165568187Y-29237518D01*
X165644475Y-29300125D01*
X165707082Y-29376413D01*
X165753603Y-29463448D01*
X165782251Y-29557887D01*
X165789500Y-29631488D01*
X165789500Y-30480712D01*
X165782251Y-30554313D01*
X165753603Y-30648752D01*
X165707082Y-30735787D01*
X165644475Y-30812075D01*
X165568187Y-30874682D01*
X165481151Y-30921203D01*
X165386712Y-30949851D01*
X165288500Y-30959524D01*
X165190287Y-30949851D01*
X165095848Y-30921203D01*
X165008813Y-30874682D01*
X164932525Y-30812075D01*
X164869918Y-30735787D01*
X164823397Y-30648751D01*
X164794749Y-30554312D01*
X164787500Y-30480711D01*
X164787500Y-29631498D01*
X164794750Y-29557886D01*
X164806308Y-29519786D01*
X164823398Y-29463448D01*
X164869919Y-29376413D01*
X164932526Y-29300125D01*
X165008814Y-29237518D01*
X165095849Y-29190997D01*
X165190288Y-29162349D01*
X165288500Y-29152676D01*
X165386713Y-29162349D01*
G37*
G36*
X176829413Y-29124249D02*
G01*
X176923852Y-29152897D01*
X177010887Y-29199418D01*
X177087175Y-29262025D01*
X177149782Y-29338313D01*
X177196303Y-29425348D01*
X177224951Y-29519787D01*
X177232200Y-29593388D01*
X177232200Y-30442612D01*
X177224951Y-30516213D01*
X177196303Y-30610652D01*
X177149782Y-30697687D01*
X177087175Y-30773975D01*
X177010887Y-30836582D01*
X176923851Y-30883103D01*
X176829412Y-30911751D01*
X176731200Y-30921424D01*
X176632987Y-30911751D01*
X176538548Y-30883103D01*
X176451513Y-30836582D01*
X176375225Y-30773975D01*
X176312618Y-30697687D01*
X176266097Y-30610651D01*
X176237449Y-30516212D01*
X176230200Y-30442611D01*
X176230200Y-29593398D01*
X176237450Y-29519786D01*
X176254540Y-29463450D01*
X176266098Y-29425348D01*
X176312619Y-29338313D01*
X176375226Y-29262025D01*
X176451514Y-29199418D01*
X176538549Y-29152897D01*
X176632988Y-29124249D01*
X176731200Y-29114576D01*
X176829413Y-29124249D01*
G37*
G36*
X185469413Y-29124249D02*
G01*
X185563852Y-29152897D01*
X185650887Y-29199418D01*
X185727175Y-29262025D01*
X185789782Y-29338313D01*
X185836303Y-29425348D01*
X185864951Y-29519787D01*
X185872200Y-29593388D01*
X185872200Y-30442612D01*
X185864951Y-30516213D01*
X185836303Y-30610652D01*
X185789782Y-30697687D01*
X185727175Y-30773975D01*
X185650887Y-30836582D01*
X185563851Y-30883103D01*
X185469412Y-30911751D01*
X185371200Y-30921424D01*
X185272987Y-30911751D01*
X185178548Y-30883103D01*
X185091513Y-30836582D01*
X185015225Y-30773975D01*
X184952618Y-30697687D01*
X184906097Y-30610651D01*
X184877449Y-30516212D01*
X184870200Y-30442611D01*
X184870200Y-29593398D01*
X184877450Y-29519786D01*
X184894540Y-29463450D01*
X184906098Y-29425348D01*
X184952619Y-29338313D01*
X185015226Y-29262025D01*
X185091514Y-29199418D01*
X185178549Y-29152897D01*
X185272988Y-29124249D01*
X185371200Y-29114576D01*
X185469413Y-29124249D01*
G37*
M02*
