G04 #@! TF.GenerationSoftware,KiCad,Pcbnew,(5.1.2)-1*
G04 #@! TF.CreationDate,2019-05-26T17:54:30-03:00*
G04 #@! TF.ProjectId,dragonmanh7,64726167-6f6e-46d6-916e-68372e6b6963,rev?*
G04 #@! TF.SameCoordinates,Original*
G04 #@! TF.FileFunction,Legend,Top*
G04 #@! TF.FilePolarity,Positive*
%FSLAX46Y46*%
G04 Gerber Fmt 4.6, Leading zero omitted, Abs format (unit mm)*
G04 Created by KiCad (PCBNEW (5.1.2)-1) date 2019-05-26 17:54:30*
%MOMM*%
%LPD*%
G04 APERTURE LIST*
%ADD10C,0.200000*%
%ADD11C,0.150000*%
%ADD12C,0.500000*%
%ADD13C,0.250000*%
%ADD14C,0.120000*%
%ADD15C,0.010000*%
%ADD16C,0.152400*%
%ADD17C,0.100000*%
G04 APERTURE END LIST*
D10*
X100296980Y-31648400D02*
X98772980Y-30124400D01*
X68580000Y-41148000D02*
X68580000Y-37363400D01*
D11*
X117353080Y-71838820D02*
X121094500Y-71838820D01*
X117353080Y-74879200D02*
X117353080Y-71838820D01*
X114739420Y-74879200D02*
X117353080Y-74879200D01*
X114739420Y-78701900D02*
X114739420Y-74879200D01*
X113101120Y-78701900D02*
X114739420Y-78701900D01*
X113530380Y-74373740D02*
X116415820Y-74373740D01*
X113530380Y-76908660D02*
X113530380Y-72275700D01*
X156922981Y-53202320D02*
X156922981Y-54011844D01*
X156970600Y-54107082D01*
X157018220Y-54154701D01*
X157113458Y-54202320D01*
X157303934Y-54202320D01*
X157399172Y-54154701D01*
X157446791Y-54107082D01*
X157494410Y-54011844D01*
X157494410Y-53202320D01*
X157970600Y-53535654D02*
X157970600Y-54202320D01*
X157970600Y-53630892D02*
X158018220Y-53583273D01*
X158113458Y-53535654D01*
X158256315Y-53535654D01*
X158351553Y-53583273D01*
X158399172Y-53678511D01*
X158399172Y-54202320D01*
X158875362Y-54202320D02*
X158875362Y-53535654D01*
X158875362Y-53202320D02*
X158827743Y-53249940D01*
X158875362Y-53297559D01*
X158922981Y-53249940D01*
X158875362Y-53202320D01*
X158875362Y-53297559D01*
X159256315Y-53535654D02*
X159494410Y-54202320D01*
X159732505Y-53535654D01*
X160494410Y-54154701D02*
X160399172Y-54202320D01*
X160208696Y-54202320D01*
X160113458Y-54154701D01*
X160065839Y-54059463D01*
X160065839Y-53678511D01*
X160113458Y-53583273D01*
X160208696Y-53535654D01*
X160399172Y-53535654D01*
X160494410Y-53583273D01*
X160542029Y-53678511D01*
X160542029Y-53773749D01*
X160065839Y-53868987D01*
X160970600Y-54202320D02*
X160970600Y-53535654D01*
X160970600Y-53726130D02*
X161018220Y-53630892D01*
X161065839Y-53583273D01*
X161161077Y-53535654D01*
X161256315Y-53535654D01*
X161542029Y-54154701D02*
X161637267Y-54202320D01*
X161827743Y-54202320D01*
X161922981Y-54154701D01*
X161970600Y-54059463D01*
X161970600Y-54011844D01*
X161922981Y-53916606D01*
X161827743Y-53868987D01*
X161684886Y-53868987D01*
X161589648Y-53821368D01*
X161542029Y-53726130D01*
X161542029Y-53678511D01*
X161589648Y-53583273D01*
X161684886Y-53535654D01*
X161827743Y-53535654D01*
X161922981Y-53583273D01*
X162399172Y-54202320D02*
X162399172Y-53535654D01*
X162399172Y-53202320D02*
X162351553Y-53249940D01*
X162399172Y-53297559D01*
X162446791Y-53249940D01*
X162399172Y-53202320D01*
X162399172Y-53297559D01*
X163303934Y-54202320D02*
X163303934Y-53202320D01*
X163303934Y-54154701D02*
X163208696Y-54202320D01*
X163018220Y-54202320D01*
X162922981Y-54154701D01*
X162875362Y-54107082D01*
X162827743Y-54011844D01*
X162827743Y-53726130D01*
X162875362Y-53630892D01*
X162922981Y-53583273D01*
X163018220Y-53535654D01*
X163208696Y-53535654D01*
X163303934Y-53583273D01*
X164208696Y-54202320D02*
X164208696Y-53678511D01*
X164161077Y-53583273D01*
X164065839Y-53535654D01*
X163875362Y-53535654D01*
X163780124Y-53583273D01*
X164208696Y-54154701D02*
X164113458Y-54202320D01*
X163875362Y-54202320D01*
X163780124Y-54154701D01*
X163732505Y-54059463D01*
X163732505Y-53964225D01*
X163780124Y-53868987D01*
X163875362Y-53821368D01*
X164113458Y-53821368D01*
X164208696Y-53773749D01*
X165113458Y-54202320D02*
X165113458Y-53202320D01*
X165113458Y-54154701D02*
X165018220Y-54202320D01*
X164827743Y-54202320D01*
X164732505Y-54154701D01*
X164684886Y-54107082D01*
X164637267Y-54011844D01*
X164637267Y-53726130D01*
X164684886Y-53630892D01*
X164732505Y-53583273D01*
X164827743Y-53535654D01*
X165018220Y-53535654D01*
X165113458Y-53583273D01*
X157994410Y-55852320D02*
X157994410Y-54852320D01*
X158565839Y-55852320D01*
X158565839Y-54852320D01*
X159470600Y-55852320D02*
X159470600Y-55328511D01*
X159422981Y-55233273D01*
X159327743Y-55185654D01*
X159137267Y-55185654D01*
X159042029Y-55233273D01*
X159470600Y-55804701D02*
X159375362Y-55852320D01*
X159137267Y-55852320D01*
X159042029Y-55804701D01*
X158994410Y-55709463D01*
X158994410Y-55614225D01*
X159042029Y-55518987D01*
X159137267Y-55471368D01*
X159375362Y-55471368D01*
X159470600Y-55423749D01*
X160375362Y-55804701D02*
X160280124Y-55852320D01*
X160089648Y-55852320D01*
X159994410Y-55804701D01*
X159946791Y-55757082D01*
X159899172Y-55661844D01*
X159899172Y-55376130D01*
X159946791Y-55280892D01*
X159994410Y-55233273D01*
X160089648Y-55185654D01*
X160280124Y-55185654D01*
X160375362Y-55233273D01*
X160803934Y-55852320D02*
X160803934Y-55185654D01*
X160803934Y-54852320D02*
X160756315Y-54899940D01*
X160803934Y-54947559D01*
X160851553Y-54899940D01*
X160803934Y-54852320D01*
X160803934Y-54947559D01*
X161422981Y-55852320D02*
X161327743Y-55804701D01*
X161280124Y-55757082D01*
X161232505Y-55661844D01*
X161232505Y-55376130D01*
X161280124Y-55280892D01*
X161327743Y-55233273D01*
X161422981Y-55185654D01*
X161565839Y-55185654D01*
X161661077Y-55233273D01*
X161708696Y-55280892D01*
X161756315Y-55376130D01*
X161756315Y-55661844D01*
X161708696Y-55757082D01*
X161661077Y-55804701D01*
X161565839Y-55852320D01*
X161422981Y-55852320D01*
X162184886Y-55185654D02*
X162184886Y-55852320D01*
X162184886Y-55280892D02*
X162232505Y-55233273D01*
X162327743Y-55185654D01*
X162470600Y-55185654D01*
X162565839Y-55233273D01*
X162613458Y-55328511D01*
X162613458Y-55852320D01*
X163518220Y-55852320D02*
X163518220Y-55328511D01*
X163470600Y-55233273D01*
X163375362Y-55185654D01*
X163184886Y-55185654D01*
X163089648Y-55233273D01*
X163518220Y-55804701D02*
X163422981Y-55852320D01*
X163184886Y-55852320D01*
X163089648Y-55804701D01*
X163042029Y-55709463D01*
X163042029Y-55614225D01*
X163089648Y-55518987D01*
X163184886Y-55471368D01*
X163422981Y-55471368D01*
X163518220Y-55423749D01*
X164137267Y-55852320D02*
X164042029Y-55804701D01*
X163994410Y-55709463D01*
X163994410Y-54852320D01*
X157446791Y-57502320D02*
X157446791Y-56502320D01*
X157446791Y-57454701D02*
X157351553Y-57502320D01*
X157161077Y-57502320D01*
X157065839Y-57454701D01*
X157018220Y-57407082D01*
X156970600Y-57311844D01*
X156970600Y-57026130D01*
X157018220Y-56930892D01*
X157065839Y-56883273D01*
X157161077Y-56835654D01*
X157351553Y-56835654D01*
X157446791Y-56883273D01*
X158303934Y-57454701D02*
X158208696Y-57502320D01*
X158018220Y-57502320D01*
X157922981Y-57454701D01*
X157875362Y-57359463D01*
X157875362Y-56978511D01*
X157922981Y-56883273D01*
X158018220Y-56835654D01*
X158208696Y-56835654D01*
X158303934Y-56883273D01*
X158351553Y-56978511D01*
X158351553Y-57073749D01*
X157875362Y-57168987D01*
X160208696Y-57597559D02*
X160113458Y-57549940D01*
X160018220Y-57454701D01*
X159875362Y-57311844D01*
X159780124Y-57264225D01*
X159684886Y-57264225D01*
X159732505Y-57502320D02*
X159637267Y-57454701D01*
X159542029Y-57359463D01*
X159494410Y-57168987D01*
X159494410Y-56835654D01*
X159542029Y-56645178D01*
X159637267Y-56549940D01*
X159732505Y-56502320D01*
X159922981Y-56502320D01*
X160018220Y-56549940D01*
X160113458Y-56645178D01*
X160161077Y-56835654D01*
X160161077Y-57168987D01*
X160113458Y-57359463D01*
X160018220Y-57454701D01*
X159922981Y-57502320D01*
X159732505Y-57502320D01*
X161018220Y-56835654D02*
X161018220Y-57502320D01*
X160589648Y-56835654D02*
X160589648Y-57359463D01*
X160637267Y-57454701D01*
X160732505Y-57502320D01*
X160875362Y-57502320D01*
X160970600Y-57454701D01*
X161018220Y-57407082D01*
X161494410Y-57502320D02*
X161494410Y-56835654D01*
X161494410Y-56502320D02*
X161446791Y-56549940D01*
X161494410Y-56597559D01*
X161542029Y-56549940D01*
X161494410Y-56502320D01*
X161494410Y-56597559D01*
X162113458Y-57502320D02*
X162018220Y-57454701D01*
X161970600Y-57359463D01*
X161970600Y-56502320D01*
X162494410Y-57502320D02*
X162494410Y-56835654D01*
X162494410Y-56930892D02*
X162542029Y-56883273D01*
X162637267Y-56835654D01*
X162780124Y-56835654D01*
X162875362Y-56883273D01*
X162922981Y-56978511D01*
X162922981Y-57502320D01*
X162922981Y-56978511D02*
X162970600Y-56883273D01*
X163065839Y-56835654D01*
X163208696Y-56835654D01*
X163303934Y-56883273D01*
X163351553Y-56978511D01*
X163351553Y-57502320D01*
X164208696Y-57454701D02*
X164113458Y-57502320D01*
X163922981Y-57502320D01*
X163827743Y-57454701D01*
X163780124Y-57359463D01*
X163780124Y-56978511D01*
X163827743Y-56883273D01*
X163922981Y-56835654D01*
X164113458Y-56835654D01*
X164208696Y-56883273D01*
X164256315Y-56978511D01*
X164256315Y-57073749D01*
X163780124Y-57168987D01*
X164637267Y-57454701D02*
X164732505Y-57502320D01*
X164922981Y-57502320D01*
X165018220Y-57454701D01*
X165065839Y-57359463D01*
X165065839Y-57311844D01*
X165018220Y-57216606D01*
X164922981Y-57168987D01*
X164780124Y-57168987D01*
X164684886Y-57121368D01*
X164637267Y-57026130D01*
X164637267Y-56978511D01*
X164684886Y-56883273D01*
X164780124Y-56835654D01*
X164922981Y-56835654D01*
X165018220Y-56883273D01*
X170583054Y-50371000D02*
X170583054Y-49371000D01*
X170821149Y-49371000D01*
X170964006Y-49418620D01*
X171059244Y-49513858D01*
X171106863Y-49609096D01*
X171154482Y-49799572D01*
X171154482Y-49942429D01*
X171106863Y-50132905D01*
X171059244Y-50228143D01*
X170964006Y-50323381D01*
X170821149Y-50371000D01*
X170583054Y-50371000D01*
X171964006Y-50323381D02*
X171868768Y-50371000D01*
X171678292Y-50371000D01*
X171583054Y-50323381D01*
X171535435Y-50228143D01*
X171535435Y-49847191D01*
X171583054Y-49751953D01*
X171678292Y-49704334D01*
X171868768Y-49704334D01*
X171964006Y-49751953D01*
X172011625Y-49847191D01*
X172011625Y-49942429D01*
X171535435Y-50037667D01*
X172440197Y-50371000D02*
X172440197Y-49371000D01*
X172440197Y-49751953D02*
X172535435Y-49704334D01*
X172725911Y-49704334D01*
X172821149Y-49751953D01*
X172868768Y-49799572D01*
X172916387Y-49894810D01*
X172916387Y-50180524D01*
X172868768Y-50275762D01*
X172821149Y-50323381D01*
X172725911Y-50371000D01*
X172535435Y-50371000D01*
X172440197Y-50323381D01*
X173773530Y-49704334D02*
X173773530Y-50371000D01*
X173344959Y-49704334D02*
X173344959Y-50228143D01*
X173392578Y-50323381D01*
X173487816Y-50371000D01*
X173630673Y-50371000D01*
X173725911Y-50323381D01*
X173773530Y-50275762D01*
X174678292Y-49704334D02*
X174678292Y-50513858D01*
X174630673Y-50609096D01*
X174583054Y-50656715D01*
X174487816Y-50704334D01*
X174344959Y-50704334D01*
X174249720Y-50656715D01*
X174678292Y-50323381D02*
X174583054Y-50371000D01*
X174392578Y-50371000D01*
X174297340Y-50323381D01*
X174249720Y-50275762D01*
X174202101Y-50180524D01*
X174202101Y-49894810D01*
X174249720Y-49799572D01*
X174297340Y-49751953D01*
X174392578Y-49704334D01*
X174583054Y-49704334D01*
X174678292Y-49751953D01*
X175154482Y-49990048D02*
X175916387Y-49990048D01*
X176392578Y-50371000D02*
X176392578Y-49371000D01*
X176725911Y-50085286D01*
X177059244Y-49371000D01*
X177059244Y-50371000D01*
X177725911Y-49371000D02*
X177821149Y-49371000D01*
X177916387Y-49418620D01*
X177964006Y-49466239D01*
X178011625Y-49561477D01*
X178059244Y-49751953D01*
X178059244Y-49990048D01*
X178011625Y-50180524D01*
X177964006Y-50275762D01*
X177916387Y-50323381D01*
X177821149Y-50371000D01*
X177725911Y-50371000D01*
X177630673Y-50323381D01*
X177583054Y-50275762D01*
X177535435Y-50180524D01*
X177487816Y-49990048D01*
X177487816Y-49751953D01*
X177535435Y-49561477D01*
X177583054Y-49466239D01*
X177630673Y-49418620D01*
X177725911Y-49371000D01*
X142636859Y-54225680D02*
X142636859Y-53225680D01*
X142874954Y-53225680D01*
X143017811Y-53273300D01*
X143113049Y-53368538D01*
X143160668Y-53463776D01*
X143208287Y-53654252D01*
X143208287Y-53797109D01*
X143160668Y-53987585D01*
X143113049Y-54082823D01*
X143017811Y-54178061D01*
X142874954Y-54225680D01*
X142636859Y-54225680D01*
X143636859Y-54225680D02*
X143636859Y-53559014D01*
X143636859Y-53749490D02*
X143684478Y-53654252D01*
X143732097Y-53606633D01*
X143827335Y-53559014D01*
X143922573Y-53559014D01*
X144684478Y-54225680D02*
X144684478Y-53701871D01*
X144636859Y-53606633D01*
X144541620Y-53559014D01*
X144351144Y-53559014D01*
X144255906Y-53606633D01*
X144684478Y-54178061D02*
X144589240Y-54225680D01*
X144351144Y-54225680D01*
X144255906Y-54178061D01*
X144208287Y-54082823D01*
X144208287Y-53987585D01*
X144255906Y-53892347D01*
X144351144Y-53844728D01*
X144589240Y-53844728D01*
X144684478Y-53797109D01*
X145589240Y-53559014D02*
X145589240Y-54368538D01*
X145541620Y-54463776D01*
X145494001Y-54511395D01*
X145398763Y-54559014D01*
X145255906Y-54559014D01*
X145160668Y-54511395D01*
X145589240Y-54178061D02*
X145494001Y-54225680D01*
X145303525Y-54225680D01*
X145208287Y-54178061D01*
X145160668Y-54130442D01*
X145113049Y-54035204D01*
X145113049Y-53749490D01*
X145160668Y-53654252D01*
X145208287Y-53606633D01*
X145303525Y-53559014D01*
X145494001Y-53559014D01*
X145589240Y-53606633D01*
X146208287Y-54225680D02*
X146113049Y-54178061D01*
X146065430Y-54130442D01*
X146017811Y-54035204D01*
X146017811Y-53749490D01*
X146065430Y-53654252D01*
X146113049Y-53606633D01*
X146208287Y-53559014D01*
X146351144Y-53559014D01*
X146446382Y-53606633D01*
X146494001Y-53654252D01*
X146541620Y-53749490D01*
X146541620Y-54035204D01*
X146494001Y-54130442D01*
X146446382Y-54178061D01*
X146351144Y-54225680D01*
X146208287Y-54225680D01*
X146970192Y-53559014D02*
X146970192Y-54225680D01*
X146970192Y-53654252D02*
X147017811Y-53606633D01*
X147113049Y-53559014D01*
X147255906Y-53559014D01*
X147351144Y-53606633D01*
X147398763Y-53701871D01*
X147398763Y-54225680D01*
X147874954Y-54225680D02*
X147874954Y-53559014D01*
X147874954Y-53654252D02*
X147922573Y-53606633D01*
X148017811Y-53559014D01*
X148160668Y-53559014D01*
X148255906Y-53606633D01*
X148303525Y-53701871D01*
X148303525Y-54225680D01*
X148303525Y-53701871D02*
X148351144Y-53606633D01*
X148446382Y-53559014D01*
X148589240Y-53559014D01*
X148684478Y-53606633D01*
X148732097Y-53701871D01*
X148732097Y-54225680D01*
X149636859Y-54225680D02*
X149636859Y-53701871D01*
X149589240Y-53606633D01*
X149494001Y-53559014D01*
X149303525Y-53559014D01*
X149208287Y-53606633D01*
X149636859Y-54178061D02*
X149541620Y-54225680D01*
X149303525Y-54225680D01*
X149208287Y-54178061D01*
X149160668Y-54082823D01*
X149160668Y-53987585D01*
X149208287Y-53892347D01*
X149303525Y-53844728D01*
X149541620Y-53844728D01*
X149636859Y-53797109D01*
X150113049Y-53559014D02*
X150113049Y-54225680D01*
X150113049Y-53654252D02*
X150160668Y-53606633D01*
X150255906Y-53559014D01*
X150398763Y-53559014D01*
X150494001Y-53606633D01*
X150541620Y-53701871D01*
X150541620Y-54225680D01*
X151017811Y-54225680D02*
X151017811Y-53225680D01*
X151017811Y-53701871D02*
X151589240Y-53701871D01*
X151589240Y-54225680D02*
X151589240Y-53225680D01*
X151970192Y-53225680D02*
X152636859Y-53225680D01*
X152208287Y-54225680D01*
X141374954Y-55780442D02*
X141327335Y-55828061D01*
X141184478Y-55875680D01*
X141089240Y-55875680D01*
X140946382Y-55828061D01*
X140851144Y-55732823D01*
X140803525Y-55637585D01*
X140755906Y-55447109D01*
X140755906Y-55304252D01*
X140803525Y-55113776D01*
X140851144Y-55018538D01*
X140946382Y-54923300D01*
X141089240Y-54875680D01*
X141184478Y-54875680D01*
X141327335Y-54923300D01*
X141374954Y-54970919D01*
X141946382Y-55875680D02*
X141851144Y-55828061D01*
X141803525Y-55780442D01*
X141755906Y-55685204D01*
X141755906Y-55399490D01*
X141803525Y-55304252D01*
X141851144Y-55256633D01*
X141946382Y-55209014D01*
X142089240Y-55209014D01*
X142184478Y-55256633D01*
X142232097Y-55304252D01*
X142279716Y-55399490D01*
X142279716Y-55685204D01*
X142232097Y-55780442D01*
X142184478Y-55828061D01*
X142089240Y-55875680D01*
X141946382Y-55875680D01*
X142708287Y-55209014D02*
X142708287Y-56209014D01*
X142708287Y-55256633D02*
X142803525Y-55209014D01*
X142994001Y-55209014D01*
X143089240Y-55256633D01*
X143136859Y-55304252D01*
X143184478Y-55399490D01*
X143184478Y-55685204D01*
X143136859Y-55780442D01*
X143089240Y-55828061D01*
X142994001Y-55875680D01*
X142803525Y-55875680D01*
X142708287Y-55828061D01*
X143517811Y-55209014D02*
X143755906Y-55875680D01*
X143994001Y-55209014D02*
X143755906Y-55875680D01*
X143660668Y-56113776D01*
X143613049Y-56161395D01*
X143517811Y-56209014D01*
X144232097Y-55209014D02*
X144613049Y-55209014D01*
X144374954Y-54875680D02*
X144374954Y-55732823D01*
X144422573Y-55828061D01*
X144517811Y-55875680D01*
X144613049Y-55875680D01*
X144946382Y-55875680D02*
X144946382Y-55209014D01*
X144946382Y-54875680D02*
X144898763Y-54923300D01*
X144946382Y-54970919D01*
X144994001Y-54923300D01*
X144946382Y-54875680D01*
X144946382Y-54970919D01*
X145851144Y-55209014D02*
X145851144Y-56018538D01*
X145803525Y-56113776D01*
X145755906Y-56161395D01*
X145660668Y-56209014D01*
X145517811Y-56209014D01*
X145422573Y-56161395D01*
X145851144Y-55828061D02*
X145755906Y-55875680D01*
X145565430Y-55875680D01*
X145470192Y-55828061D01*
X145422573Y-55780442D01*
X145374954Y-55685204D01*
X145374954Y-55399490D01*
X145422573Y-55304252D01*
X145470192Y-55256633D01*
X145565430Y-55209014D01*
X145755906Y-55209014D01*
X145851144Y-55256633D01*
X146184478Y-55209014D02*
X146565430Y-55209014D01*
X146327335Y-54875680D02*
X146327335Y-55732823D01*
X146374954Y-55828061D01*
X146470192Y-55875680D01*
X146565430Y-55875680D01*
X146898763Y-55875680D02*
X146898763Y-54875680D01*
X147327335Y-55875680D02*
X147327335Y-55351871D01*
X147279716Y-55256633D01*
X147184478Y-55209014D01*
X147041620Y-55209014D01*
X146946382Y-55256633D01*
X146898763Y-55304252D01*
X149374954Y-55113776D02*
X149279716Y-55066157D01*
X149089240Y-55066157D01*
X148994001Y-55113776D01*
X148898763Y-55209014D01*
X148851144Y-55304252D01*
X148851144Y-55494728D01*
X148898763Y-55589966D01*
X148994001Y-55685204D01*
X149089240Y-55732823D01*
X149279716Y-55732823D01*
X149374954Y-55685204D01*
X149184478Y-54732823D02*
X148946382Y-54780442D01*
X148708287Y-54923300D01*
X148565430Y-55161395D01*
X148517811Y-55399490D01*
X148565430Y-55637585D01*
X148708287Y-55875680D01*
X148946382Y-56018538D01*
X149184478Y-56066157D01*
X149422573Y-56018538D01*
X149660668Y-55875680D01*
X149803525Y-55637585D01*
X149851144Y-55399490D01*
X149803525Y-55161395D01*
X149660668Y-54923300D01*
X149422573Y-54780442D01*
X149184478Y-54732823D01*
X150994001Y-54970919D02*
X151041620Y-54923300D01*
X151136859Y-54875680D01*
X151374954Y-54875680D01*
X151470192Y-54923300D01*
X151517811Y-54970919D01*
X151565430Y-55066157D01*
X151565430Y-55161395D01*
X151517811Y-55304252D01*
X150946382Y-55875680D01*
X151565430Y-55875680D01*
X152184478Y-54875680D02*
X152279716Y-54875680D01*
X152374954Y-54923300D01*
X152422573Y-54970919D01*
X152470192Y-55066157D01*
X152517811Y-55256633D01*
X152517811Y-55494728D01*
X152470192Y-55685204D01*
X152422573Y-55780442D01*
X152374954Y-55828061D01*
X152279716Y-55875680D01*
X152184478Y-55875680D01*
X152089240Y-55828061D01*
X152041620Y-55780442D01*
X151994001Y-55685204D01*
X151946382Y-55494728D01*
X151946382Y-55256633D01*
X151994001Y-55066157D01*
X152041620Y-54970919D01*
X152089240Y-54923300D01*
X152184478Y-54875680D01*
X153470192Y-55875680D02*
X152898763Y-55875680D01*
X153184478Y-55875680D02*
X153184478Y-54875680D01*
X153089240Y-55018538D01*
X152994001Y-55113776D01*
X152898763Y-55161395D01*
X153946382Y-55875680D02*
X154136859Y-55875680D01*
X154232097Y-55828061D01*
X154279716Y-55780442D01*
X154374954Y-55637585D01*
X154422573Y-55447109D01*
X154422573Y-55066157D01*
X154374954Y-54970919D01*
X154327335Y-54923300D01*
X154232097Y-54875680D01*
X154041620Y-54875680D01*
X153946382Y-54923300D01*
X153898763Y-54970919D01*
X153851144Y-55066157D01*
X153851144Y-55304252D01*
X153898763Y-55399490D01*
X153946382Y-55447109D01*
X154041620Y-55494728D01*
X154232097Y-55494728D01*
X154327335Y-55447109D01*
X154374954Y-55399490D01*
X154422573Y-55304252D01*
X140565430Y-57525680D02*
X140565430Y-56525680D01*
X140565430Y-56906633D02*
X140660668Y-56859014D01*
X140851144Y-56859014D01*
X140946382Y-56906633D01*
X140994001Y-56954252D01*
X141041620Y-57049490D01*
X141041620Y-57335204D01*
X140994001Y-57430442D01*
X140946382Y-57478061D01*
X140851144Y-57525680D01*
X140660668Y-57525680D01*
X140565430Y-57478061D01*
X141374954Y-56859014D02*
X141613049Y-57525680D01*
X141851144Y-56859014D02*
X141613049Y-57525680D01*
X141517811Y-57763776D01*
X141470192Y-57811395D01*
X141374954Y-57859014D01*
X142994001Y-57525680D02*
X142994001Y-56525680D01*
X143327335Y-57239966D01*
X143660668Y-56525680D01*
X143660668Y-57525680D01*
X144565430Y-57525680D02*
X144565430Y-57001871D01*
X144517811Y-56906633D01*
X144422573Y-56859014D01*
X144232097Y-56859014D01*
X144136859Y-56906633D01*
X144565430Y-57478061D02*
X144470192Y-57525680D01*
X144232097Y-57525680D01*
X144136859Y-57478061D01*
X144089240Y-57382823D01*
X144089240Y-57287585D01*
X144136859Y-57192347D01*
X144232097Y-57144728D01*
X144470192Y-57144728D01*
X144565430Y-57097109D01*
X145041620Y-57525680D02*
X145041620Y-56859014D01*
X145041620Y-57049490D02*
X145089240Y-56954252D01*
X145136859Y-56906633D01*
X145232097Y-56859014D01*
X145327335Y-56859014D01*
X145517811Y-56859014D02*
X145898763Y-56859014D01*
X145660668Y-56525680D02*
X145660668Y-57382823D01*
X145708287Y-57478061D01*
X145803525Y-57525680D01*
X145898763Y-57525680D01*
X146232097Y-57525680D02*
X146232097Y-56859014D01*
X146232097Y-56525680D02*
X146184478Y-56573300D01*
X146232097Y-56620919D01*
X146279716Y-56573300D01*
X146232097Y-56525680D01*
X146232097Y-56620919D01*
X146708287Y-56859014D02*
X146708287Y-57525680D01*
X146708287Y-56954252D02*
X146755906Y-56906633D01*
X146851144Y-56859014D01*
X146994001Y-56859014D01*
X147089240Y-56906633D01*
X147136859Y-57001871D01*
X147136859Y-57525680D01*
X148946382Y-57525680D02*
X148613049Y-57049490D01*
X148374954Y-57525680D02*
X148374954Y-56525680D01*
X148755906Y-56525680D01*
X148851144Y-56573300D01*
X148898763Y-56620919D01*
X148946382Y-56716157D01*
X148946382Y-56859014D01*
X148898763Y-56954252D01*
X148851144Y-57001871D01*
X148755906Y-57049490D01*
X148374954Y-57049490D01*
X149374954Y-57525680D02*
X149374954Y-56859014D01*
X149374954Y-56525680D02*
X149327335Y-56573300D01*
X149374954Y-56620919D01*
X149422573Y-56573300D01*
X149374954Y-56525680D01*
X149374954Y-56620919D01*
X149851144Y-57525680D02*
X149851144Y-56525680D01*
X149851144Y-56906633D02*
X149946382Y-56859014D01*
X150136859Y-56859014D01*
X150232097Y-56906633D01*
X150279716Y-56954252D01*
X150327335Y-57049490D01*
X150327335Y-57335204D01*
X150279716Y-57430442D01*
X150232097Y-57478061D01*
X150136859Y-57525680D01*
X149946382Y-57525680D01*
X149851144Y-57478061D01*
X151136859Y-57478061D02*
X151041620Y-57525680D01*
X150851144Y-57525680D01*
X150755906Y-57478061D01*
X150708287Y-57382823D01*
X150708287Y-57001871D01*
X150755906Y-56906633D01*
X150851144Y-56859014D01*
X151041620Y-56859014D01*
X151136859Y-56906633D01*
X151184478Y-57001871D01*
X151184478Y-57097109D01*
X150708287Y-57192347D01*
X151755906Y-57525680D02*
X151660668Y-57478061D01*
X151613049Y-57382823D01*
X151613049Y-56525680D01*
X152279716Y-57525680D02*
X152184478Y-57478061D01*
X152136859Y-57430442D01*
X152089239Y-57335204D01*
X152089239Y-57049490D01*
X152136859Y-56954252D01*
X152184478Y-56906633D01*
X152279716Y-56859014D01*
X152422573Y-56859014D01*
X152517811Y-56906633D01*
X152565430Y-56954252D01*
X152613049Y-57049490D01*
X152613049Y-57335204D01*
X152565430Y-57430442D01*
X152517811Y-57478061D01*
X152422573Y-57525680D01*
X152279716Y-57525680D01*
X152898763Y-56859014D02*
X153279716Y-56859014D01*
X153041620Y-56525680D02*
X153041620Y-57382823D01*
X153089239Y-57478061D01*
X153184478Y-57525680D01*
X153279716Y-57525680D01*
X153470192Y-56859014D02*
X153851144Y-56859014D01*
X153613049Y-56525680D02*
X153613049Y-57382823D01*
X153660668Y-57478061D01*
X153755906Y-57525680D01*
X153851144Y-57525680D01*
X154613049Y-57525680D02*
X154613049Y-57001871D01*
X154565430Y-56906633D01*
X154470192Y-56859014D01*
X154279716Y-56859014D01*
X154184478Y-56906633D01*
X154613049Y-57478061D02*
X154517811Y-57525680D01*
X154279716Y-57525680D01*
X154184478Y-57478061D01*
X154136859Y-57382823D01*
X154136859Y-57287585D01*
X154184478Y-57192347D01*
X154279716Y-57144728D01*
X154517811Y-57144728D01*
X154613049Y-57097109D01*
X142327335Y-59175680D02*
X142327335Y-58651871D01*
X142279716Y-58556633D01*
X142184478Y-58509014D01*
X141994001Y-58509014D01*
X141898763Y-58556633D01*
X142327335Y-59128061D02*
X142232097Y-59175680D01*
X141994001Y-59175680D01*
X141898763Y-59128061D01*
X141851144Y-59032823D01*
X141851144Y-58937585D01*
X141898763Y-58842347D01*
X141994001Y-58794728D01*
X142232097Y-58794728D01*
X142327335Y-58747109D01*
X142803525Y-58509014D02*
X142803525Y-59175680D01*
X142803525Y-58604252D02*
X142851144Y-58556633D01*
X142946382Y-58509014D01*
X143089240Y-58509014D01*
X143184478Y-58556633D01*
X143232097Y-58651871D01*
X143232097Y-59175680D01*
X144136859Y-59175680D02*
X144136859Y-58175680D01*
X144136859Y-59128061D02*
X144041620Y-59175680D01*
X143851144Y-59175680D01*
X143755906Y-59128061D01*
X143708287Y-59080442D01*
X143660668Y-58985204D01*
X143660668Y-58699490D01*
X143708287Y-58604252D01*
X143755906Y-58556633D01*
X143851144Y-58509014D01*
X144041620Y-58509014D01*
X144136859Y-58556633D01*
X145374954Y-58651871D02*
X145708287Y-58651871D01*
X145851144Y-59175680D02*
X145374954Y-59175680D01*
X145374954Y-58175680D01*
X145851144Y-58175680D01*
X146279716Y-59175680D02*
X146279716Y-58509014D01*
X146279716Y-58699490D02*
X146327335Y-58604252D01*
X146374954Y-58556633D01*
X146470192Y-58509014D01*
X146565430Y-58509014D01*
X146898763Y-59175680D02*
X146898763Y-58509014D01*
X146898763Y-58175680D02*
X146851144Y-58223300D01*
X146898763Y-58270919D01*
X146946382Y-58223300D01*
X146898763Y-58175680D01*
X146898763Y-58270919D01*
X147803525Y-59128061D02*
X147708287Y-59175680D01*
X147517811Y-59175680D01*
X147422573Y-59128061D01*
X147374954Y-59080442D01*
X147327335Y-58985204D01*
X147327335Y-58699490D01*
X147374954Y-58604252D01*
X147422573Y-58556633D01*
X147517811Y-58509014D01*
X147708287Y-58509014D01*
X147803525Y-58556633D01*
X148994001Y-59175680D02*
X148994001Y-58175680D01*
X149374954Y-58175680D01*
X149470192Y-58223300D01*
X149517811Y-58270919D01*
X149565430Y-58366157D01*
X149565430Y-58509014D01*
X149517811Y-58604252D01*
X149470192Y-58651871D01*
X149374954Y-58699490D01*
X148994001Y-58699490D01*
X150374954Y-59128061D02*
X150279716Y-59175680D01*
X150089240Y-59175680D01*
X149994001Y-59128061D01*
X149946382Y-59032823D01*
X149946382Y-58651871D01*
X149994001Y-58556633D01*
X150089240Y-58509014D01*
X150279716Y-58509014D01*
X150374954Y-58556633D01*
X150422573Y-58651871D01*
X150422573Y-58747109D01*
X149946382Y-58842347D01*
X150851144Y-59175680D02*
X150851144Y-58509014D01*
X150851144Y-58699490D02*
X150898763Y-58604252D01*
X150946382Y-58556633D01*
X151041620Y-58509014D01*
X151136859Y-58509014D01*
X151470192Y-58509014D02*
X151470192Y-59175680D01*
X151470192Y-58604252D02*
X151517811Y-58556633D01*
X151613049Y-58509014D01*
X151755906Y-58509014D01*
X151851144Y-58556633D01*
X151898763Y-58651871D01*
X151898763Y-59175680D01*
X152374954Y-59175680D02*
X152374954Y-58509014D01*
X152374954Y-58175680D02*
X152327335Y-58223300D01*
X152374954Y-58270919D01*
X152422573Y-58223300D01*
X152374954Y-58175680D01*
X152374954Y-58270919D01*
X153279716Y-59175680D02*
X153279716Y-58651871D01*
X153232097Y-58556633D01*
X153136859Y-58509014D01*
X152946382Y-58509014D01*
X152851144Y-58556633D01*
X153279716Y-59128061D02*
X153184478Y-59175680D01*
X152946382Y-59175680D01*
X152851144Y-59128061D01*
X152803525Y-59032823D01*
X152803525Y-58937585D01*
X152851144Y-58842347D01*
X152946382Y-58794728D01*
X153184478Y-58794728D01*
X153279716Y-58747109D01*
D12*
X178491376Y-66395600D02*
G75*
G03X178491376Y-66395600I-234176J0D01*
G01*
X183190376Y-37973000D02*
G75*
G03X183190376Y-37973000I-234176J0D01*
G01*
X165105576Y-37419776D02*
G75*
G03X165105576Y-37419776I-234176J0D01*
G01*
X133355576Y-60071000D02*
G75*
G03X133355576Y-60071000I-234176J0D01*
G01*
X62616576Y-68783200D02*
G75*
G03X62616576Y-68783200I-234176J0D01*
G01*
X72141576Y-60172600D02*
G75*
G03X72141576Y-60172600I-234176J0D01*
G01*
X105491776Y-52298600D02*
G75*
G03X105491776Y-52298600I-234176J0D01*
G01*
X105694976Y-62484000D02*
G75*
G03X105694976Y-62484000I-234176J0D01*
G01*
X102621576Y-59512200D02*
G75*
G03X102621576Y-59512200I-234176J0D01*
G01*
X103129576Y-49784000D02*
G75*
G03X103129576Y-49784000I-234176J0D01*
G01*
X143744176Y-71551800D02*
G75*
G03X143744176Y-71551800I-234176J0D01*
G01*
X123220976Y-39852600D02*
G75*
G03X123220976Y-39852600I-234176J0D01*
G01*
X171201576Y-41198800D02*
G75*
G03X171201576Y-41198800I-234176J0D01*
G01*
D10*
X68580000Y-41148000D02*
X78105000Y-50673000D01*
D11*
X68088095Y-75335380D02*
X67611904Y-75335380D01*
X67564285Y-75811571D01*
X67611904Y-75763952D01*
X67707142Y-75716333D01*
X67945238Y-75716333D01*
X68040476Y-75763952D01*
X68088095Y-75811571D01*
X68135714Y-75906809D01*
X68135714Y-76144904D01*
X68088095Y-76240142D01*
X68040476Y-76287761D01*
X67945238Y-76335380D01*
X67707142Y-76335380D01*
X67611904Y-76287761D01*
X67564285Y-76240142D01*
X68564285Y-75954428D02*
X69326190Y-75954428D01*
X69754761Y-75430619D02*
X69802380Y-75383000D01*
X69897619Y-75335380D01*
X70135714Y-75335380D01*
X70230952Y-75383000D01*
X70278571Y-75430619D01*
X70326190Y-75525857D01*
X70326190Y-75621095D01*
X70278571Y-75763952D01*
X69707142Y-76335380D01*
X70326190Y-76335380D01*
X71183333Y-75668714D02*
X71183333Y-76335380D01*
X70945238Y-75287761D02*
X70707142Y-76002047D01*
X71326190Y-76002047D01*
X71564285Y-75335380D02*
X71897619Y-76335380D01*
X72230952Y-75335380D01*
X68754761Y-76985380D02*
X69088095Y-77985380D01*
X69421428Y-76985380D01*
X69754761Y-77985380D02*
X69754761Y-76985380D01*
X70230952Y-77985380D02*
X70230952Y-76985380D01*
X70802380Y-77985380D01*
X70802380Y-76985380D01*
X59666476Y-48712380D02*
X59666476Y-47712380D01*
X60047428Y-47712380D01*
X60142666Y-47760000D01*
X60190285Y-47807619D01*
X60237904Y-47902857D01*
X60237904Y-48045714D01*
X60190285Y-48140952D01*
X60142666Y-48188571D01*
X60047428Y-48236190D01*
X59666476Y-48236190D01*
X60856952Y-47712380D02*
X61047428Y-47712380D01*
X61142666Y-47760000D01*
X61237904Y-47855238D01*
X61285523Y-48045714D01*
X61285523Y-48379047D01*
X61237904Y-48569523D01*
X61142666Y-48664761D01*
X61047428Y-48712380D01*
X60856952Y-48712380D01*
X60761714Y-48664761D01*
X60666476Y-48569523D01*
X60618857Y-48379047D01*
X60618857Y-48045714D01*
X60666476Y-47855238D01*
X60761714Y-47760000D01*
X60856952Y-47712380D01*
X61618857Y-47712380D02*
X61856952Y-48712380D01*
X62047428Y-47998095D01*
X62237904Y-48712380D01*
X62476000Y-47712380D01*
X62856952Y-48188571D02*
X63190285Y-48188571D01*
X63333142Y-48712380D02*
X62856952Y-48712380D01*
X62856952Y-47712380D01*
X63333142Y-47712380D01*
X64333142Y-48712380D02*
X63999809Y-48236190D01*
X63761714Y-48712380D02*
X63761714Y-47712380D01*
X64142666Y-47712380D01*
X64237904Y-47760000D01*
X64285523Y-47807619D01*
X64333142Y-47902857D01*
X64333142Y-48045714D01*
X64285523Y-48140952D01*
X64237904Y-48188571D01*
X64142666Y-48236190D01*
X63761714Y-48236190D01*
X127111523Y-36726761D02*
X127254380Y-36774380D01*
X127492476Y-36774380D01*
X127587714Y-36726761D01*
X127635333Y-36679142D01*
X127682952Y-36583904D01*
X127682952Y-36488666D01*
X127635333Y-36393428D01*
X127587714Y-36345809D01*
X127492476Y-36298190D01*
X127302000Y-36250571D01*
X127206761Y-36202952D01*
X127159142Y-36155333D01*
X127111523Y-36060095D01*
X127111523Y-35964857D01*
X127159142Y-35869619D01*
X127206761Y-35822000D01*
X127302000Y-35774380D01*
X127540095Y-35774380D01*
X127682952Y-35822000D01*
X127968666Y-35774380D02*
X128540095Y-35774380D01*
X128254380Y-36774380D02*
X128254380Y-35774380D01*
X128873428Y-36774380D02*
X128873428Y-35774380D01*
X129206761Y-36488666D01*
X129540095Y-35774380D01*
X129540095Y-36774380D01*
X129921047Y-35774380D02*
X130540095Y-35774380D01*
X130206761Y-36155333D01*
X130349619Y-36155333D01*
X130444857Y-36202952D01*
X130492476Y-36250571D01*
X130540095Y-36345809D01*
X130540095Y-36583904D01*
X130492476Y-36679142D01*
X130444857Y-36726761D01*
X130349619Y-36774380D01*
X130063904Y-36774380D01*
X129968666Y-36726761D01*
X129921047Y-36679142D01*
X130921047Y-35869619D02*
X130968666Y-35822000D01*
X131063904Y-35774380D01*
X131302000Y-35774380D01*
X131397238Y-35822000D01*
X131444857Y-35869619D01*
X131492476Y-35964857D01*
X131492476Y-36060095D01*
X131444857Y-36202952D01*
X130873428Y-36774380D01*
X131492476Y-36774380D01*
X131921047Y-36774380D02*
X131921047Y-35774380D01*
X131921047Y-36250571D02*
X132492476Y-36250571D01*
X132492476Y-36774380D02*
X132492476Y-35774380D01*
X132873428Y-35774380D02*
X133540095Y-35774380D01*
X133111523Y-36774380D01*
X72002164Y-39530280D02*
X72002164Y-38530280D01*
X72002164Y-39006471D02*
X72573593Y-39006471D01*
X72573593Y-39530280D02*
X72573593Y-38530280D01*
X75097402Y-38577900D02*
X75002164Y-38530280D01*
X74859307Y-38530280D01*
X74716450Y-38577900D01*
X74621212Y-38673138D01*
X74573593Y-38768376D01*
X74525974Y-38958852D01*
X74525974Y-39101709D01*
X74573593Y-39292185D01*
X74621212Y-39387423D01*
X74716450Y-39482661D01*
X74859307Y-39530280D01*
X74954545Y-39530280D01*
X75097402Y-39482661D01*
X75145021Y-39435042D01*
X75145021Y-39101709D01*
X74954545Y-39101709D01*
X75573593Y-39530280D02*
X75573593Y-38530280D01*
X76145021Y-39530280D01*
X76145021Y-38530280D01*
X76621212Y-39530280D02*
X76621212Y-38530280D01*
X76859307Y-38530280D01*
X77002164Y-38577900D01*
X77097402Y-38673138D01*
X77145021Y-38768376D01*
X77192640Y-38958852D01*
X77192640Y-39101709D01*
X77145021Y-39292185D01*
X77097402Y-39387423D01*
X77002164Y-39482661D01*
X76859307Y-39530280D01*
X76621212Y-39530280D01*
X79621212Y-39530280D02*
X79145021Y-39530280D01*
X79145021Y-38530280D01*
X86130285Y-39282666D02*
X86606476Y-39282666D01*
X86035047Y-39568380D02*
X86368380Y-38568380D01*
X86701714Y-39568380D01*
X89082666Y-38616000D02*
X88987428Y-38568380D01*
X88844571Y-38568380D01*
X88701714Y-38616000D01*
X88606476Y-38711238D01*
X88558857Y-38806476D01*
X88511238Y-38996952D01*
X88511238Y-39139809D01*
X88558857Y-39330285D01*
X88606476Y-39425523D01*
X88701714Y-39520761D01*
X88844571Y-39568380D01*
X88939809Y-39568380D01*
X89082666Y-39520761D01*
X89130285Y-39473142D01*
X89130285Y-39139809D01*
X88939809Y-39139809D01*
X89558857Y-39568380D02*
X89558857Y-38568380D01*
X90130285Y-39568380D01*
X90130285Y-38568380D01*
X90606476Y-39568380D02*
X90606476Y-38568380D01*
X90844571Y-38568380D01*
X90987428Y-38616000D01*
X91082666Y-38711238D01*
X91130285Y-38806476D01*
X91177904Y-38996952D01*
X91177904Y-39139809D01*
X91130285Y-39330285D01*
X91082666Y-39425523D01*
X90987428Y-39520761D01*
X90844571Y-39568380D01*
X90606476Y-39568380D01*
X93463619Y-39044571D02*
X93606476Y-39092190D01*
X93654095Y-39139809D01*
X93701714Y-39235047D01*
X93701714Y-39377904D01*
X93654095Y-39473142D01*
X93606476Y-39520761D01*
X93511238Y-39568380D01*
X93130285Y-39568380D01*
X93130285Y-38568380D01*
X93463619Y-38568380D01*
X93558857Y-38616000D01*
X93606476Y-38663619D01*
X93654095Y-38758857D01*
X93654095Y-38854095D01*
X93606476Y-38949333D01*
X93558857Y-38996952D01*
X93463619Y-39044571D01*
X93130285Y-39044571D01*
X109910666Y-32885571D02*
X110053523Y-32933190D01*
X110101142Y-32980809D01*
X110148761Y-33076047D01*
X110148761Y-33218904D01*
X110101142Y-33314142D01*
X110053523Y-33361761D01*
X109958285Y-33409380D01*
X109577333Y-33409380D01*
X109577333Y-32409380D01*
X109910666Y-32409380D01*
X110005904Y-32457000D01*
X110053523Y-32504619D01*
X110101142Y-32599857D01*
X110101142Y-32695095D01*
X110053523Y-32790333D01*
X110005904Y-32837952D01*
X109910666Y-32885571D01*
X109577333Y-32885571D01*
X110434476Y-32409380D02*
X111005904Y-32409380D01*
X110720190Y-33409380D02*
X110720190Y-32409380D01*
X111339238Y-33409380D02*
X111339238Y-32409380D01*
X111910666Y-33409380D01*
X111910666Y-32409380D01*
X109101142Y-35059380D02*
X109101142Y-34059380D01*
X109482095Y-34059380D01*
X109577333Y-34107000D01*
X109624952Y-34154619D01*
X109672571Y-34249857D01*
X109672571Y-34392714D01*
X109624952Y-34487952D01*
X109577333Y-34535571D01*
X109482095Y-34583190D01*
X109101142Y-34583190D01*
X110053523Y-34773666D02*
X110529714Y-34773666D01*
X109958285Y-35059380D02*
X110291619Y-34059380D01*
X110624952Y-35059380D01*
X111482095Y-35059380D02*
X110910666Y-35059380D01*
X111196380Y-35059380D02*
X111196380Y-34059380D01*
X111101142Y-34202238D01*
X111005904Y-34297476D01*
X110910666Y-34345095D01*
X111815428Y-34059380D02*
X112434476Y-34059380D01*
X112101142Y-34440333D01*
X112244000Y-34440333D01*
X112339238Y-34487952D01*
X112386857Y-34535571D01*
X112434476Y-34630809D01*
X112434476Y-34868904D01*
X112386857Y-34964142D01*
X112339238Y-35011761D01*
X112244000Y-35059380D01*
X111958285Y-35059380D01*
X111863047Y-35011761D01*
X111815428Y-34964142D01*
X74354322Y-41075882D02*
X74306703Y-41123501D01*
X74163846Y-41171120D01*
X74068608Y-41171120D01*
X73925751Y-41123501D01*
X73830513Y-41028263D01*
X73782894Y-40933025D01*
X73735275Y-40742549D01*
X73735275Y-40599692D01*
X73782894Y-40409216D01*
X73830513Y-40313978D01*
X73925751Y-40218740D01*
X74068608Y-40171120D01*
X74163846Y-40171120D01*
X74306703Y-40218740D01*
X74354322Y-40266359D01*
X74735275Y-40885406D02*
X75211465Y-40885406D01*
X74640037Y-41171120D02*
X74973370Y-40171120D01*
X75306703Y-41171120D01*
X75640037Y-41171120D02*
X75640037Y-40171120D01*
X76211465Y-41171120D01*
X76211465Y-40171120D01*
X77020989Y-40647311D02*
X77163846Y-40694930D01*
X77211465Y-40742549D01*
X77259084Y-40837787D01*
X77259084Y-40980644D01*
X77211465Y-41075882D01*
X77163846Y-41123501D01*
X77068608Y-41171120D01*
X76687656Y-41171120D01*
X76687656Y-40171120D01*
X77020989Y-40171120D01*
X77116227Y-40218740D01*
X77163846Y-40266359D01*
X77211465Y-40361597D01*
X77211465Y-40456835D01*
X77163846Y-40552073D01*
X77116227Y-40599692D01*
X77020989Y-40647311D01*
X76687656Y-40647311D01*
X77687656Y-40171120D02*
X77687656Y-40980644D01*
X77735275Y-41075882D01*
X77782894Y-41123501D01*
X77878132Y-41171120D01*
X78068608Y-41171120D01*
X78163846Y-41123501D01*
X78211465Y-41075882D01*
X78259084Y-40980644D01*
X78259084Y-40171120D01*
X78687656Y-41123501D02*
X78830513Y-41171120D01*
X79068608Y-41171120D01*
X79163846Y-41123501D01*
X79211465Y-41075882D01*
X79259084Y-40980644D01*
X79259084Y-40885406D01*
X79211465Y-40790168D01*
X79163846Y-40742549D01*
X79068608Y-40694930D01*
X78878132Y-40647311D01*
X78782894Y-40599692D01*
X78735275Y-40552073D01*
X78687656Y-40456835D01*
X78687656Y-40361597D01*
X78735275Y-40266359D01*
X78782894Y-40218740D01*
X78878132Y-40171120D01*
X79116227Y-40171120D01*
X79259084Y-40218740D01*
X87955714Y-41092380D02*
X87622380Y-40616190D01*
X87384285Y-41092380D02*
X87384285Y-40092380D01*
X87765238Y-40092380D01*
X87860476Y-40140000D01*
X87908095Y-40187619D01*
X87955714Y-40282857D01*
X87955714Y-40425714D01*
X87908095Y-40520952D01*
X87860476Y-40568571D01*
X87765238Y-40616190D01*
X87384285Y-40616190D01*
X88336666Y-41044761D02*
X88479523Y-41092380D01*
X88717619Y-41092380D01*
X88812857Y-41044761D01*
X88860476Y-40997142D01*
X88908095Y-40901904D01*
X88908095Y-40806666D01*
X88860476Y-40711428D01*
X88812857Y-40663809D01*
X88717619Y-40616190D01*
X88527142Y-40568571D01*
X88431904Y-40520952D01*
X88384285Y-40473333D01*
X88336666Y-40378095D01*
X88336666Y-40282857D01*
X88384285Y-40187619D01*
X88431904Y-40140000D01*
X88527142Y-40092380D01*
X88765238Y-40092380D01*
X88908095Y-40140000D01*
X89336666Y-40711428D02*
X90098571Y-40711428D01*
X91003333Y-40425714D02*
X91003333Y-41092380D01*
X90765238Y-40044761D02*
X90527142Y-40759047D01*
X91146190Y-40759047D01*
X91670000Y-40520952D02*
X91574761Y-40473333D01*
X91527142Y-40425714D01*
X91479523Y-40330476D01*
X91479523Y-40282857D01*
X91527142Y-40187619D01*
X91574761Y-40140000D01*
X91670000Y-40092380D01*
X91860476Y-40092380D01*
X91955714Y-40140000D01*
X92003333Y-40187619D01*
X92050952Y-40282857D01*
X92050952Y-40330476D01*
X92003333Y-40425714D01*
X91955714Y-40473333D01*
X91860476Y-40520952D01*
X91670000Y-40520952D01*
X91574761Y-40568571D01*
X91527142Y-40616190D01*
X91479523Y-40711428D01*
X91479523Y-40901904D01*
X91527142Y-40997142D01*
X91574761Y-41044761D01*
X91670000Y-41092380D01*
X91860476Y-41092380D01*
X91955714Y-41044761D01*
X92003333Y-40997142D01*
X92050952Y-40901904D01*
X92050952Y-40711428D01*
X92003333Y-40616190D01*
X91955714Y-40568571D01*
X91860476Y-40520952D01*
X92955714Y-40092380D02*
X92479523Y-40092380D01*
X92431904Y-40568571D01*
X92479523Y-40520952D01*
X92574761Y-40473333D01*
X92812857Y-40473333D01*
X92908095Y-40520952D01*
X92955714Y-40568571D01*
X93003333Y-40663809D01*
X93003333Y-40901904D01*
X92955714Y-40997142D01*
X92908095Y-41044761D01*
X92812857Y-41092380D01*
X92574761Y-41092380D01*
X92479523Y-41044761D01*
X92431904Y-40997142D01*
X180668000Y-75562666D02*
X180801333Y-75562666D01*
X180868000Y-75596000D01*
X180934666Y-75662666D01*
X180968000Y-75796000D01*
X180968000Y-76029333D01*
X180934666Y-76162666D01*
X180868000Y-76229333D01*
X180801333Y-76262666D01*
X180668000Y-76262666D01*
X180601333Y-76229333D01*
X180534666Y-76162666D01*
X180501333Y-76029333D01*
X180501333Y-75796000D01*
X180534666Y-75662666D01*
X180601333Y-75596000D01*
X180668000Y-75562666D01*
X181168000Y-75562666D02*
X181568000Y-75562666D01*
X181368000Y-76262666D02*
X181368000Y-75562666D01*
X182168000Y-75596000D02*
X182101333Y-75562666D01*
X182001333Y-75562666D01*
X181901333Y-75596000D01*
X181834666Y-75662666D01*
X181801333Y-75729333D01*
X181768000Y-75862666D01*
X181768000Y-75962666D01*
X181801333Y-76096000D01*
X181834666Y-76162666D01*
X181901333Y-76229333D01*
X182001333Y-76262666D01*
X182068000Y-76262666D01*
X182168000Y-76229333D01*
X182201333Y-76196000D01*
X182201333Y-75962666D01*
X182068000Y-75962666D01*
X182501333Y-75996000D02*
X183034666Y-75996000D01*
X183334666Y-75629333D02*
X183368000Y-75596000D01*
X183434666Y-75562666D01*
X183601333Y-75562666D01*
X183668000Y-75596000D01*
X183701333Y-75629333D01*
X183734666Y-75696000D01*
X183734666Y-75762666D01*
X183701333Y-75862666D01*
X183301333Y-76262666D01*
X183734666Y-76262666D01*
X163396000Y-34033666D02*
X163529333Y-34033666D01*
X163596000Y-34067000D01*
X163662666Y-34133666D01*
X163696000Y-34267000D01*
X163696000Y-34500333D01*
X163662666Y-34633666D01*
X163596000Y-34700333D01*
X163529333Y-34733666D01*
X163396000Y-34733666D01*
X163329333Y-34700333D01*
X163262666Y-34633666D01*
X163229333Y-34500333D01*
X163229333Y-34267000D01*
X163262666Y-34133666D01*
X163329333Y-34067000D01*
X163396000Y-34033666D01*
X163896000Y-34033666D02*
X164296000Y-34033666D01*
X164096000Y-34733666D02*
X164096000Y-34033666D01*
X164896000Y-34067000D02*
X164829333Y-34033666D01*
X164729333Y-34033666D01*
X164629333Y-34067000D01*
X164562666Y-34133666D01*
X164529333Y-34200333D01*
X164496000Y-34333666D01*
X164496000Y-34433666D01*
X164529333Y-34567000D01*
X164562666Y-34633666D01*
X164629333Y-34700333D01*
X164729333Y-34733666D01*
X164796000Y-34733666D01*
X164896000Y-34700333D01*
X164929333Y-34667000D01*
X164929333Y-34433666D01*
X164796000Y-34433666D01*
X165229333Y-34467000D02*
X165762666Y-34467000D01*
X166462666Y-34733666D02*
X166062666Y-34733666D01*
X166262666Y-34733666D02*
X166262666Y-34033666D01*
X166196000Y-34133666D01*
X166129333Y-34200333D01*
X166062666Y-34233666D01*
X176461933Y-34632066D02*
X176461933Y-33932066D01*
X176628600Y-33932066D01*
X176728600Y-33965400D01*
X176795266Y-34032066D01*
X176828600Y-34098733D01*
X176861933Y-34232066D01*
X176861933Y-34332066D01*
X176828600Y-34465400D01*
X176795266Y-34532066D01*
X176728600Y-34598733D01*
X176628600Y-34632066D01*
X176461933Y-34632066D01*
X177161933Y-34265400D02*
X177395266Y-34265400D01*
X177495266Y-34632066D02*
X177161933Y-34632066D01*
X177161933Y-33932066D01*
X177495266Y-33932066D01*
X178028600Y-34265400D02*
X178128600Y-34298733D01*
X178161933Y-34332066D01*
X178195266Y-34398733D01*
X178195266Y-34498733D01*
X178161933Y-34565400D01*
X178128600Y-34598733D01*
X178061933Y-34632066D01*
X177795266Y-34632066D01*
X177795266Y-33932066D01*
X178028600Y-33932066D01*
X178095266Y-33965400D01*
X178128600Y-33998733D01*
X178161933Y-34065400D01*
X178161933Y-34132066D01*
X178128600Y-34198733D01*
X178095266Y-34232066D01*
X178028600Y-34265400D01*
X177795266Y-34265400D01*
X178495266Y-33932066D02*
X178495266Y-34498733D01*
X178528600Y-34565400D01*
X178561933Y-34598733D01*
X178628600Y-34632066D01*
X178761933Y-34632066D01*
X178828600Y-34598733D01*
X178861933Y-34565400D01*
X178895266Y-34498733D01*
X178895266Y-33932066D01*
X179595266Y-33965400D02*
X179528600Y-33932066D01*
X179428600Y-33932066D01*
X179328600Y-33965400D01*
X179261933Y-34032066D01*
X179228600Y-34098733D01*
X179195266Y-34232066D01*
X179195266Y-34332066D01*
X179228600Y-34465400D01*
X179261933Y-34532066D01*
X179328600Y-34598733D01*
X179428600Y-34632066D01*
X179495266Y-34632066D01*
X179595266Y-34598733D01*
X179628600Y-34565400D01*
X179628600Y-34332066D01*
X179495266Y-34332066D01*
X190649622Y-48298860D02*
X190173432Y-48298860D01*
X190173432Y-47298860D01*
X190982956Y-47775051D02*
X191316289Y-47775051D01*
X191459146Y-48298860D02*
X190982956Y-48298860D01*
X190982956Y-47298860D01*
X191459146Y-47298860D01*
X191887718Y-48298860D02*
X191887718Y-47298860D01*
X192125813Y-47298860D01*
X192268670Y-47346480D01*
X192363908Y-47441718D01*
X192411527Y-47536956D01*
X192459146Y-47727432D01*
X192459146Y-47870289D01*
X192411527Y-48060765D01*
X192363908Y-48156003D01*
X192268670Y-48251241D01*
X192125813Y-48298860D01*
X191887718Y-48298860D01*
X190125813Y-49948860D02*
X190125813Y-48948860D01*
X190506765Y-48948860D01*
X190602003Y-48996480D01*
X190649622Y-49044099D01*
X190697241Y-49139337D01*
X190697241Y-49282194D01*
X190649622Y-49377432D01*
X190602003Y-49425051D01*
X190506765Y-49472670D01*
X190125813Y-49472670D01*
X191078194Y-49663146D02*
X191554384Y-49663146D01*
X190982956Y-49948860D02*
X191316289Y-48948860D01*
X191649622Y-49948860D01*
X192125813Y-49377432D02*
X192030575Y-49329813D01*
X191982956Y-49282194D01*
X191935337Y-49186956D01*
X191935337Y-49139337D01*
X191982956Y-49044099D01*
X192030575Y-48996480D01*
X192125813Y-48948860D01*
X192316289Y-48948860D01*
X192411527Y-48996480D01*
X192459146Y-49044099D01*
X192506765Y-49139337D01*
X192506765Y-49186956D01*
X192459146Y-49282194D01*
X192411527Y-49329813D01*
X192316289Y-49377432D01*
X192125813Y-49377432D01*
X192030575Y-49425051D01*
X191982956Y-49472670D01*
X191935337Y-49567908D01*
X191935337Y-49758384D01*
X191982956Y-49853622D01*
X192030575Y-49901241D01*
X192125813Y-49948860D01*
X192316289Y-49948860D01*
X192411527Y-49901241D01*
X192459146Y-49853622D01*
X192506765Y-49758384D01*
X192506765Y-49567908D01*
X192459146Y-49472670D01*
X192411527Y-49425051D01*
X192316289Y-49377432D01*
X149991297Y-76584300D02*
X149991297Y-75584300D01*
X150324630Y-76298586D01*
X150657963Y-75584300D01*
X150657963Y-76584300D01*
X151705582Y-76489062D02*
X151657963Y-76536681D01*
X151515106Y-76584300D01*
X151419868Y-76584300D01*
X151277011Y-76536681D01*
X151181773Y-76441443D01*
X151134154Y-76346205D01*
X151086535Y-76155729D01*
X151086535Y-76012872D01*
X151134154Y-75822396D01*
X151181773Y-75727158D01*
X151277011Y-75631920D01*
X151419868Y-75584300D01*
X151515106Y-75584300D01*
X151657963Y-75631920D01*
X151705582Y-75679539D01*
X152134154Y-75584300D02*
X152134154Y-76393824D01*
X152181773Y-76489062D01*
X152229392Y-76536681D01*
X152324630Y-76584300D01*
X152515106Y-76584300D01*
X152610344Y-76536681D01*
X152657963Y-76489062D01*
X152705582Y-76393824D01*
X152705582Y-75584300D01*
X150800820Y-78234300D02*
X150467487Y-77758110D01*
X150229392Y-78234300D02*
X150229392Y-77234300D01*
X150610344Y-77234300D01*
X150705582Y-77281920D01*
X150753201Y-77329539D01*
X150800820Y-77424777D01*
X150800820Y-77567634D01*
X150753201Y-77662872D01*
X150705582Y-77710491D01*
X150610344Y-77758110D01*
X150229392Y-77758110D01*
X151181773Y-78186681D02*
X151324630Y-78234300D01*
X151562725Y-78234300D01*
X151657963Y-78186681D01*
X151705582Y-78139062D01*
X151753201Y-78043824D01*
X151753201Y-77948586D01*
X151705582Y-77853348D01*
X151657963Y-77805729D01*
X151562725Y-77758110D01*
X151372249Y-77710491D01*
X151277011Y-77662872D01*
X151229392Y-77615253D01*
X151181773Y-77520015D01*
X151181773Y-77424777D01*
X151229392Y-77329539D01*
X151277011Y-77281920D01*
X151372249Y-77234300D01*
X151610344Y-77234300D01*
X151753201Y-77281920D01*
X152038916Y-77234300D02*
X152610344Y-77234300D01*
X152324630Y-78234300D02*
X152324630Y-77234300D01*
X127063904Y-38203142D02*
X127016285Y-38250761D01*
X126873428Y-38298380D01*
X126778190Y-38298380D01*
X126635333Y-38250761D01*
X126540095Y-38155523D01*
X126492476Y-38060285D01*
X126444857Y-37869809D01*
X126444857Y-37726952D01*
X126492476Y-37536476D01*
X126540095Y-37441238D01*
X126635333Y-37346000D01*
X126778190Y-37298380D01*
X126873428Y-37298380D01*
X127016285Y-37346000D01*
X127063904Y-37393619D01*
X127635333Y-38298380D02*
X127540095Y-38250761D01*
X127492476Y-38203142D01*
X127444857Y-38107904D01*
X127444857Y-37822190D01*
X127492476Y-37726952D01*
X127540095Y-37679333D01*
X127635333Y-37631714D01*
X127778190Y-37631714D01*
X127873428Y-37679333D01*
X127921047Y-37726952D01*
X127968666Y-37822190D01*
X127968666Y-38107904D01*
X127921047Y-38203142D01*
X127873428Y-38250761D01*
X127778190Y-38298380D01*
X127635333Y-38298380D01*
X128397238Y-38298380D02*
X128397238Y-37631714D01*
X128397238Y-37822190D02*
X128444857Y-37726952D01*
X128492476Y-37679333D01*
X128587714Y-37631714D01*
X128682952Y-37631714D01*
X128873428Y-37631714D02*
X129254380Y-37631714D01*
X129016285Y-37298380D02*
X129016285Y-38155523D01*
X129063904Y-38250761D01*
X129159142Y-38298380D01*
X129254380Y-38298380D01*
X129968666Y-38250761D02*
X129873428Y-38298380D01*
X129682952Y-38298380D01*
X129587714Y-38250761D01*
X129540095Y-38155523D01*
X129540095Y-37774571D01*
X129587714Y-37679333D01*
X129682952Y-37631714D01*
X129873428Y-37631714D01*
X129968666Y-37679333D01*
X130016285Y-37774571D01*
X130016285Y-37869809D01*
X129540095Y-37965047D01*
X130349619Y-38298380D02*
X130873428Y-37631714D01*
X130349619Y-37631714D02*
X130873428Y-38298380D01*
X131254380Y-37917428D02*
X132016285Y-37917428D01*
X132492476Y-38298380D02*
X132492476Y-37298380D01*
X132825809Y-38012666D01*
X133159142Y-37298380D01*
X133159142Y-38298380D01*
X133540095Y-37298380D02*
X134206761Y-37298380D01*
X133778190Y-38298380D01*
D10*
X78105000Y-62484000D02*
X78105000Y-50673000D01*
X79248000Y-63627000D02*
X78105000Y-62484000D01*
X100175060Y-63627000D02*
X79248000Y-63627000D01*
X100289360Y-63512700D02*
X100175060Y-63627000D01*
X100289360Y-62202060D02*
X100289360Y-63512700D01*
X100271580Y-52257960D02*
X100271580Y-52349400D01*
X100296980Y-31648400D02*
X100296980Y-40881300D01*
D13*
X80348533Y-42858980D02*
X80348533Y-41858980D01*
X80777104Y-42811361D02*
X80919961Y-42858980D01*
X81158057Y-42858980D01*
X81253295Y-42811361D01*
X81300914Y-42763742D01*
X81348533Y-42668504D01*
X81348533Y-42573266D01*
X81300914Y-42478028D01*
X81253295Y-42430409D01*
X81158057Y-42382790D01*
X80967580Y-42335171D01*
X80872342Y-42287552D01*
X80824723Y-42239933D01*
X80777104Y-42144695D01*
X80777104Y-42049457D01*
X80824723Y-41954219D01*
X80872342Y-41906600D01*
X80967580Y-41858980D01*
X81205676Y-41858980D01*
X81348533Y-41906600D01*
X81967580Y-41858980D02*
X82158057Y-41858980D01*
X82253295Y-41906600D01*
X82348533Y-42001838D01*
X82396152Y-42192314D01*
X82396152Y-42525647D01*
X82348533Y-42716123D01*
X82253295Y-42811361D01*
X82158057Y-42858980D01*
X81967580Y-42858980D01*
X81872342Y-42811361D01*
X81777104Y-42716123D01*
X81729485Y-42525647D01*
X81729485Y-42192314D01*
X81777104Y-42001838D01*
X81872342Y-41906600D01*
X81967580Y-41858980D01*
X83300914Y-42858980D02*
X82824723Y-42858980D01*
X82824723Y-41858980D01*
X83586628Y-42573266D02*
X84062819Y-42573266D01*
X83491390Y-42858980D02*
X83824723Y-41858980D01*
X84158057Y-42858980D01*
X84348533Y-41858980D02*
X84919961Y-41858980D01*
X84634247Y-42858980D02*
X84634247Y-41858980D01*
X85253295Y-42335171D02*
X85586628Y-42335171D01*
X85729485Y-42858980D02*
X85253295Y-42858980D01*
X85253295Y-41858980D01*
X85729485Y-41858980D01*
X86158057Y-42858980D02*
X86158057Y-41858980D01*
X86396152Y-41858980D01*
X86539009Y-41906600D01*
X86634247Y-42001838D01*
X86681866Y-42097076D01*
X86729485Y-42287552D01*
X86729485Y-42430409D01*
X86681866Y-42620885D01*
X86634247Y-42716123D01*
X86539009Y-42811361D01*
X86396152Y-42858980D01*
X86158057Y-42858980D01*
X81896152Y-44323266D02*
X82372342Y-44323266D01*
X81800914Y-44608980D02*
X82134247Y-43608980D01*
X82467580Y-44608980D01*
X83372342Y-44608980D02*
X83039009Y-44132790D01*
X82800914Y-44608980D02*
X82800914Y-43608980D01*
X83181866Y-43608980D01*
X83277104Y-43656600D01*
X83324723Y-43704219D01*
X83372342Y-43799457D01*
X83372342Y-43942314D01*
X83324723Y-44037552D01*
X83277104Y-44085171D01*
X83181866Y-44132790D01*
X82800914Y-44132790D01*
X83800914Y-44085171D02*
X84134247Y-44085171D01*
X84277104Y-44608980D02*
X83800914Y-44608980D01*
X83800914Y-43608980D01*
X84277104Y-43608980D01*
X84658057Y-44323266D02*
X85134247Y-44323266D01*
X84562819Y-44608980D02*
X84896152Y-43608980D01*
X85229485Y-44608980D01*
D11*
X113722921Y-70620640D02*
X114056255Y-71620640D01*
X114389588Y-70620640D01*
X114722921Y-71620640D02*
X114722921Y-70620640D01*
X115199112Y-71620640D02*
X115199112Y-70620640D01*
X115770540Y-71620640D01*
X115770540Y-70620640D01*
X117108220Y-71051728D02*
X117870124Y-71051728D01*
X117489172Y-71432680D02*
X117489172Y-70670776D01*
X118251077Y-70432680D02*
X118870124Y-70432680D01*
X118536791Y-70813633D01*
X118679648Y-70813633D01*
X118774886Y-70861252D01*
X118822505Y-70908871D01*
X118870124Y-71004109D01*
X118870124Y-71242204D01*
X118822505Y-71337442D01*
X118774886Y-71385061D01*
X118679648Y-71432680D01*
X118393934Y-71432680D01*
X118298696Y-71385061D01*
X118251077Y-71337442D01*
X119298696Y-71337442D02*
X119346315Y-71385061D01*
X119298696Y-71432680D01*
X119251077Y-71385061D01*
X119298696Y-71337442D01*
X119298696Y-71432680D01*
X119679648Y-70432680D02*
X120298696Y-70432680D01*
X119965362Y-70813633D01*
X120108220Y-70813633D01*
X120203458Y-70861252D01*
X120251077Y-70908871D01*
X120298696Y-71004109D01*
X120298696Y-71242204D01*
X120251077Y-71337442D01*
X120203458Y-71385061D01*
X120108220Y-71432680D01*
X119822505Y-71432680D01*
X119727267Y-71385061D01*
X119679648Y-71337442D01*
X120584410Y-70432680D02*
X120917743Y-71432680D01*
X121251077Y-70432680D01*
X114328035Y-73093960D02*
X114232797Y-73046340D01*
X114089940Y-73046340D01*
X113947082Y-73093960D01*
X113851844Y-73189198D01*
X113804225Y-73284436D01*
X113756606Y-73474912D01*
X113756606Y-73617769D01*
X113804225Y-73808245D01*
X113851844Y-73903483D01*
X113947082Y-73998721D01*
X114089940Y-74046340D01*
X114185178Y-74046340D01*
X114328035Y-73998721D01*
X114375654Y-73951102D01*
X114375654Y-73617769D01*
X114185178Y-73617769D01*
X114804225Y-74046340D02*
X114804225Y-73046340D01*
X115375654Y-74046340D01*
X115375654Y-73046340D01*
X115851844Y-74046340D02*
X115851844Y-73046340D01*
X116089940Y-73046340D01*
X116232797Y-73093960D01*
X116328035Y-73189198D01*
X116375654Y-73284436D01*
X116423273Y-73474912D01*
X116423273Y-73617769D01*
X116375654Y-73808245D01*
X116328035Y-73903483D01*
X116232797Y-73998721D01*
X116089940Y-74046340D01*
X115851844Y-74046340D01*
D14*
X69829178Y-53569800D02*
X69312022Y-53569800D01*
X69829178Y-54989800D02*
X69312022Y-54989800D01*
X60122200Y-55170800D02*
X61822200Y-55170800D01*
X60122200Y-61770800D02*
X60122200Y-55170800D01*
X61822200Y-61770800D02*
X60122200Y-61770800D01*
X66522200Y-61770800D02*
X64822200Y-61770800D01*
X66522200Y-55170800D02*
X66522200Y-61770800D01*
X64822200Y-55170800D02*
X66522200Y-55170800D01*
X73061840Y-73311820D02*
X73061840Y-82671820D01*
X73061840Y-82671820D02*
X83381840Y-82671820D01*
X83381840Y-82671820D02*
X83381840Y-73311820D01*
X73061840Y-73311820D02*
X74631840Y-73311820D01*
X83381840Y-73311820D02*
X81811840Y-73311820D01*
X76731840Y-73311820D02*
X79711840Y-73311820D01*
X73061840Y-79391820D02*
X83381840Y-79391820D01*
X75981840Y-71991820D02*
X75681840Y-72591820D01*
X75681840Y-72591820D02*
X75381840Y-71991820D01*
X75381840Y-71991820D02*
X75981840Y-71991820D01*
X98725980Y-37299740D02*
X98725980Y-27939740D01*
X98725980Y-27939740D02*
X68085980Y-27939740D01*
X68085980Y-27939740D02*
X68085980Y-37299740D01*
X98725980Y-37299740D02*
X97155980Y-37299740D01*
X68085980Y-37299740D02*
X69655980Y-37299740D01*
X95055980Y-37299740D02*
X92075980Y-37299740D01*
X89975980Y-37299740D02*
X86995980Y-37299740D01*
X84895980Y-37299740D02*
X81915980Y-37299740D01*
X79815980Y-37299740D02*
X76835980Y-37299740D01*
X74735980Y-37299740D02*
X71755980Y-37299740D01*
X98725980Y-31219740D02*
X68085980Y-31219740D01*
X95805980Y-38619740D02*
X96105980Y-38019740D01*
X96105980Y-38019740D02*
X96405980Y-38619740D01*
X96405980Y-38619740D02*
X95805980Y-38619740D01*
D15*
G36*
X160966422Y-45014919D02*
G01*
X161152572Y-45038879D01*
X161332641Y-45081107D01*
X161503247Y-45141611D01*
X161555070Y-45164731D01*
X161707719Y-45249214D01*
X161849754Y-45353856D01*
X161980781Y-45478106D01*
X162100403Y-45621417D01*
X162208226Y-45783238D01*
X162303854Y-45963021D01*
X162386892Y-46160217D01*
X162456945Y-46374277D01*
X162475838Y-46443495D01*
X162503676Y-46554562D01*
X162527830Y-46661268D01*
X162548642Y-46766540D01*
X162566452Y-46873308D01*
X162581604Y-46984499D01*
X162594438Y-47103041D01*
X162605296Y-47231863D01*
X162614520Y-47373892D01*
X162622451Y-47532058D01*
X162629431Y-47709287D01*
X162631863Y-47780951D01*
X162635611Y-47942939D01*
X162636929Y-48119083D01*
X162635928Y-48303501D01*
X162632720Y-48490314D01*
X162627417Y-48673642D01*
X162620132Y-48847604D01*
X162610975Y-49006322D01*
X162607633Y-49053404D01*
X162590204Y-49235322D01*
X162565343Y-49419825D01*
X162534127Y-49600765D01*
X162497635Y-49771993D01*
X162456943Y-49927360D01*
X162450768Y-49948177D01*
X162376126Y-50166230D01*
X162289622Y-50364537D01*
X162191099Y-50543258D01*
X162080399Y-50702553D01*
X161957364Y-50842580D01*
X161821837Y-50963500D01*
X161673659Y-51065471D01*
X161512673Y-51148653D01*
X161338721Y-51213206D01*
X161153763Y-51258884D01*
X161108928Y-51265283D01*
X161047094Y-51271107D01*
X160973811Y-51276131D01*
X160894628Y-51280128D01*
X160815094Y-51282870D01*
X160740757Y-51284132D01*
X160677166Y-51283687D01*
X160629871Y-51281309D01*
X160622672Y-51280560D01*
X160506594Y-51263195D01*
X160388011Y-51238970D01*
X160277757Y-51210204D01*
X160242292Y-51199215D01*
X160074300Y-51132578D01*
X159917369Y-51045954D01*
X159771845Y-50939814D01*
X159638078Y-50814626D01*
X159516416Y-50670861D01*
X159407206Y-50508988D01*
X159310797Y-50329476D01*
X159227537Y-50132796D01*
X159157774Y-49919417D01*
X159101856Y-49689808D01*
X159093959Y-49650265D01*
X159075261Y-49546622D01*
X159058882Y-49439727D01*
X159044583Y-49326872D01*
X159032123Y-49205345D01*
X159021264Y-49072436D01*
X159011766Y-48925436D01*
X159003390Y-48761634D01*
X158995895Y-48578320D01*
X158993658Y-48515493D01*
X158989455Y-48344711D01*
X158988118Y-48164315D01*
X158989501Y-47978026D01*
X158993458Y-47789570D01*
X158999841Y-47602668D01*
X159008505Y-47421045D01*
X159019304Y-47248423D01*
X159032091Y-47088526D01*
X159046720Y-46945077D01*
X159059141Y-46848222D01*
X159102316Y-46602709D01*
X159159302Y-46372954D01*
X159229798Y-46159458D01*
X159313506Y-45962722D01*
X159410126Y-45783248D01*
X159519358Y-45621536D01*
X159640904Y-45478088D01*
X159774462Y-45353405D01*
X159919735Y-45247987D01*
X160062718Y-45168812D01*
X160228587Y-45101572D01*
X160405271Y-45052553D01*
X160589391Y-45021765D01*
X160777568Y-45009218D01*
X160966422Y-45014919D01*
X160966422Y-45014919D01*
G37*
X160966422Y-45014919D02*
X161152572Y-45038879D01*
X161332641Y-45081107D01*
X161503247Y-45141611D01*
X161555070Y-45164731D01*
X161707719Y-45249214D01*
X161849754Y-45353856D01*
X161980781Y-45478106D01*
X162100403Y-45621417D01*
X162208226Y-45783238D01*
X162303854Y-45963021D01*
X162386892Y-46160217D01*
X162456945Y-46374277D01*
X162475838Y-46443495D01*
X162503676Y-46554562D01*
X162527830Y-46661268D01*
X162548642Y-46766540D01*
X162566452Y-46873308D01*
X162581604Y-46984499D01*
X162594438Y-47103041D01*
X162605296Y-47231863D01*
X162614520Y-47373892D01*
X162622451Y-47532058D01*
X162629431Y-47709287D01*
X162631863Y-47780951D01*
X162635611Y-47942939D01*
X162636929Y-48119083D01*
X162635928Y-48303501D01*
X162632720Y-48490314D01*
X162627417Y-48673642D01*
X162620132Y-48847604D01*
X162610975Y-49006322D01*
X162607633Y-49053404D01*
X162590204Y-49235322D01*
X162565343Y-49419825D01*
X162534127Y-49600765D01*
X162497635Y-49771993D01*
X162456943Y-49927360D01*
X162450768Y-49948177D01*
X162376126Y-50166230D01*
X162289622Y-50364537D01*
X162191099Y-50543258D01*
X162080399Y-50702553D01*
X161957364Y-50842580D01*
X161821837Y-50963500D01*
X161673659Y-51065471D01*
X161512673Y-51148653D01*
X161338721Y-51213206D01*
X161153763Y-51258884D01*
X161108928Y-51265283D01*
X161047094Y-51271107D01*
X160973811Y-51276131D01*
X160894628Y-51280128D01*
X160815094Y-51282870D01*
X160740757Y-51284132D01*
X160677166Y-51283687D01*
X160629871Y-51281309D01*
X160622672Y-51280560D01*
X160506594Y-51263195D01*
X160388011Y-51238970D01*
X160277757Y-51210204D01*
X160242292Y-51199215D01*
X160074300Y-51132578D01*
X159917369Y-51045954D01*
X159771845Y-50939814D01*
X159638078Y-50814626D01*
X159516416Y-50670861D01*
X159407206Y-50508988D01*
X159310797Y-50329476D01*
X159227537Y-50132796D01*
X159157774Y-49919417D01*
X159101856Y-49689808D01*
X159093959Y-49650265D01*
X159075261Y-49546622D01*
X159058882Y-49439727D01*
X159044583Y-49326872D01*
X159032123Y-49205345D01*
X159021264Y-49072436D01*
X159011766Y-48925436D01*
X159003390Y-48761634D01*
X158995895Y-48578320D01*
X158993658Y-48515493D01*
X158989455Y-48344711D01*
X158988118Y-48164315D01*
X158989501Y-47978026D01*
X158993458Y-47789570D01*
X158999841Y-47602668D01*
X159008505Y-47421045D01*
X159019304Y-47248423D01*
X159032091Y-47088526D01*
X159046720Y-46945077D01*
X159059141Y-46848222D01*
X159102316Y-46602709D01*
X159159302Y-46372954D01*
X159229798Y-46159458D01*
X159313506Y-45962722D01*
X159410126Y-45783248D01*
X159519358Y-45621536D01*
X159640904Y-45478088D01*
X159774462Y-45353405D01*
X159919735Y-45247987D01*
X160062718Y-45168812D01*
X160228587Y-45101572D01*
X160405271Y-45052553D01*
X160589391Y-45021765D01*
X160777568Y-45009218D01*
X160966422Y-45014919D01*
G36*
X161240653Y-43695968D02*
G01*
X161537722Y-43735852D01*
X161579136Y-43743213D01*
X161886423Y-43811077D01*
X162185470Y-43900511D01*
X162476278Y-44011515D01*
X162758847Y-44144090D01*
X163033179Y-44298237D01*
X163299274Y-44473955D01*
X163557134Y-44671246D01*
X163584081Y-44693504D01*
X163653238Y-44753865D01*
X163732641Y-44827870D01*
X163818048Y-44911181D01*
X163905214Y-44999465D01*
X163989897Y-45088386D01*
X164067852Y-45173609D01*
X164134836Y-45250798D01*
X164161917Y-45283813D01*
X164358710Y-45546790D01*
X164533921Y-45817458D01*
X164687796Y-46096398D01*
X164820576Y-46384191D01*
X164932507Y-46681417D01*
X165023831Y-46988659D01*
X165094793Y-47306497D01*
X165144657Y-47627540D01*
X165154011Y-47724137D01*
X165160823Y-47838465D01*
X165165121Y-47965458D01*
X165166928Y-48100052D01*
X165166272Y-48237181D01*
X165163179Y-48371779D01*
X165157673Y-48498782D01*
X165149782Y-48613125D01*
X165139530Y-48709742D01*
X165139119Y-48712813D01*
X165084896Y-49038476D01*
X165011662Y-49351566D01*
X164918994Y-49653212D01*
X164806464Y-49944544D01*
X164673649Y-50226692D01*
X164520122Y-50500788D01*
X164389865Y-50703619D01*
X164213566Y-50944998D01*
X164019461Y-51176525D01*
X163810645Y-51394913D01*
X163590219Y-51596872D01*
X163412988Y-51740294D01*
X163374351Y-51769046D01*
X163342994Y-51790950D01*
X163323041Y-51803207D01*
X163318157Y-51804692D01*
X163318879Y-51792194D01*
X163325148Y-51763805D01*
X163335608Y-51725669D01*
X163335618Y-51725634D01*
X163365430Y-51607466D01*
X163391321Y-51468925D01*
X163412981Y-51312445D01*
X163430103Y-51140459D01*
X163442378Y-50955400D01*
X163447059Y-50845836D01*
X163454935Y-50617813D01*
X163385549Y-50617813D01*
X163377741Y-50773383D01*
X163365490Y-50947438D01*
X163346905Y-51112629D01*
X163322540Y-51265448D01*
X163292951Y-51402389D01*
X163260522Y-51514534D01*
X163218201Y-51625029D01*
X163169576Y-51719434D01*
X163110458Y-51804651D01*
X163036655Y-51887585D01*
X163030050Y-51894269D01*
X162936569Y-51980348D01*
X162847236Y-52045580D01*
X162759449Y-52091198D01*
X162670606Y-52118438D01*
X162578108Y-52128534D01*
X162537753Y-52127969D01*
X162481303Y-52123828D01*
X162438084Y-52116075D01*
X162398270Y-52102369D01*
X162364572Y-52086692D01*
X162267467Y-52025826D01*
X162178227Y-51944433D01*
X162097794Y-51844012D01*
X162027108Y-51726066D01*
X161967110Y-51592093D01*
X161918739Y-51443595D01*
X161892746Y-51333993D01*
X161879411Y-51268304D01*
X161871642Y-51220880D01*
X161871136Y-51187222D01*
X161879591Y-51162831D01*
X161898703Y-51143207D01*
X161930169Y-51123850D01*
X161975685Y-51100262D01*
X161982140Y-51096949D01*
X162062576Y-51052607D01*
X162153800Y-50997377D01*
X162249231Y-50935590D01*
X162342289Y-50871576D01*
X162426395Y-50809665D01*
X162465384Y-50778947D01*
X162539037Y-50715547D01*
X162620900Y-50638991D01*
X162705561Y-50554766D01*
X162787607Y-50468360D01*
X162861625Y-50385262D01*
X162903902Y-50334330D01*
X163064444Y-50115352D01*
X163206347Y-49883699D01*
X163329255Y-49640802D01*
X163432810Y-49388096D01*
X163516653Y-49127012D01*
X163580427Y-48858983D01*
X163623774Y-48585441D01*
X163646336Y-48307820D01*
X163647755Y-48027551D01*
X163627674Y-47746068D01*
X163600244Y-47546722D01*
X163544505Y-47275075D01*
X163468963Y-47011921D01*
X163374328Y-46758404D01*
X163261312Y-46515668D01*
X163130626Y-46284859D01*
X162982981Y-46067119D01*
X162819088Y-45863594D01*
X162639659Y-45675428D01*
X162445405Y-45503765D01*
X162237036Y-45349750D01*
X162233263Y-45347215D01*
X162151546Y-45296316D01*
X162054106Y-45241907D01*
X161947341Y-45187108D01*
X161837646Y-45135037D01*
X161731418Y-45088815D01*
X161635054Y-45051561D01*
X161607931Y-45042238D01*
X161381965Y-44979370D01*
X161149658Y-44937845D01*
X160913658Y-44917735D01*
X160676610Y-44919114D01*
X160441162Y-44942053D01*
X160209960Y-44986626D01*
X160149309Y-45002189D01*
X159931965Y-45072433D01*
X159717718Y-45164113D01*
X159509220Y-45275578D01*
X159309125Y-45405175D01*
X159120086Y-45551254D01*
X158944756Y-45712164D01*
X158852651Y-45809131D01*
X158674636Y-46023319D01*
X158516263Y-46249368D01*
X158377787Y-46486600D01*
X158259461Y-46734336D01*
X158161539Y-46991896D01*
X158084275Y-47258601D01*
X158027922Y-47533773D01*
X157992735Y-47816733D01*
X157978967Y-48106801D01*
X157978763Y-48147086D01*
X157988309Y-48429837D01*
X158017302Y-48701670D01*
X158066276Y-48964911D01*
X158135763Y-49221886D01*
X158226296Y-49474922D01*
X158338408Y-49726345D01*
X158342454Y-49734586D01*
X158465446Y-49962952D01*
X158601457Y-50174037D01*
X158752706Y-50370967D01*
X158921411Y-50556870D01*
X158936842Y-50572480D01*
X159125531Y-50746691D01*
X159324704Y-50900829D01*
X159533704Y-51034537D01*
X159751874Y-51147461D01*
X159978554Y-51239245D01*
X160213088Y-51309532D01*
X160359531Y-51341662D01*
X160418216Y-51352378D01*
X160469161Y-51360375D01*
X160517619Y-51366051D01*
X160568841Y-51369807D01*
X160628079Y-51372040D01*
X160700585Y-51373151D01*
X160778536Y-51373515D01*
X160858935Y-51373266D01*
X160937098Y-51372267D01*
X161008113Y-51370639D01*
X161067071Y-51368500D01*
X161109060Y-51365970D01*
X161116241Y-51365300D01*
X161199945Y-51356561D01*
X161199955Y-51428800D01*
X161203946Y-51540796D01*
X161215118Y-51665600D01*
X161232305Y-51794790D01*
X161254343Y-51919946D01*
X161280067Y-52032650D01*
X161286953Y-52057944D01*
X161313884Y-52138825D01*
X161349394Y-52224546D01*
X161390460Y-52309140D01*
X161434061Y-52386638D01*
X161477173Y-52451073D01*
X161500709Y-52480047D01*
X161528124Y-52512311D01*
X161547118Y-52537907D01*
X161554395Y-52552294D01*
X161554034Y-52553572D01*
X161538361Y-52559205D01*
X161503350Y-52566240D01*
X161452680Y-52574223D01*
X161390029Y-52582698D01*
X161319076Y-52591209D01*
X161243500Y-52599299D01*
X161166978Y-52606512D01*
X161093189Y-52612394D01*
X161063341Y-52614392D01*
X160952337Y-52620486D01*
X160856439Y-52623680D01*
X160767857Y-52624059D01*
X160678797Y-52621703D01*
X160622672Y-52619054D01*
X160301192Y-52590727D01*
X159987231Y-52540622D01*
X159681139Y-52468879D01*
X159383263Y-52375637D01*
X159093952Y-52261036D01*
X158813554Y-52125217D01*
X158542417Y-51968320D01*
X158280890Y-51790483D01*
X158029321Y-51591849D01*
X157996526Y-51563780D01*
X157911256Y-51486776D01*
X157817497Y-51396358D01*
X157720323Y-51297804D01*
X157624809Y-51196389D01*
X157536027Y-51097389D01*
X157459052Y-51006079D01*
X157453107Y-50998705D01*
X157258459Y-50738119D01*
X157084123Y-50466617D01*
X156930312Y-50184656D01*
X156797242Y-49892692D01*
X156685129Y-49591183D01*
X156594187Y-49280585D01*
X156546180Y-49072347D01*
X156495623Y-48773661D01*
X156465288Y-48467075D01*
X156455172Y-48155837D01*
X156465276Y-47843194D01*
X156495598Y-47532391D01*
X156546137Y-47226677D01*
X156546797Y-47223396D01*
X156619748Y-46917897D01*
X156713377Y-46620534D01*
X156826845Y-46332205D01*
X156959313Y-46053808D01*
X157109941Y-45786243D01*
X157277889Y-45530407D01*
X157462319Y-45287200D01*
X157662390Y-45057518D01*
X157877264Y-44842262D01*
X158106100Y-44642329D01*
X158348059Y-44458617D01*
X158602302Y-44292026D01*
X158867990Y-44143454D01*
X159144282Y-44013798D01*
X159430340Y-43903958D01*
X159725323Y-43814832D01*
X159733672Y-43812651D01*
X160028049Y-43747540D01*
X160328906Y-43703204D01*
X160633274Y-43679756D01*
X160938179Y-43677306D01*
X161240653Y-43695968D01*
X161240653Y-43695968D01*
G37*
X161240653Y-43695968D02*
X161537722Y-43735852D01*
X161579136Y-43743213D01*
X161886423Y-43811077D01*
X162185470Y-43900511D01*
X162476278Y-44011515D01*
X162758847Y-44144090D01*
X163033179Y-44298237D01*
X163299274Y-44473955D01*
X163557134Y-44671246D01*
X163584081Y-44693504D01*
X163653238Y-44753865D01*
X163732641Y-44827870D01*
X163818048Y-44911181D01*
X163905214Y-44999465D01*
X163989897Y-45088386D01*
X164067852Y-45173609D01*
X164134836Y-45250798D01*
X164161917Y-45283813D01*
X164358710Y-45546790D01*
X164533921Y-45817458D01*
X164687796Y-46096398D01*
X164820576Y-46384191D01*
X164932507Y-46681417D01*
X165023831Y-46988659D01*
X165094793Y-47306497D01*
X165144657Y-47627540D01*
X165154011Y-47724137D01*
X165160823Y-47838465D01*
X165165121Y-47965458D01*
X165166928Y-48100052D01*
X165166272Y-48237181D01*
X165163179Y-48371779D01*
X165157673Y-48498782D01*
X165149782Y-48613125D01*
X165139530Y-48709742D01*
X165139119Y-48712813D01*
X165084896Y-49038476D01*
X165011662Y-49351566D01*
X164918994Y-49653212D01*
X164806464Y-49944544D01*
X164673649Y-50226692D01*
X164520122Y-50500788D01*
X164389865Y-50703619D01*
X164213566Y-50944998D01*
X164019461Y-51176525D01*
X163810645Y-51394913D01*
X163590219Y-51596872D01*
X163412988Y-51740294D01*
X163374351Y-51769046D01*
X163342994Y-51790950D01*
X163323041Y-51803207D01*
X163318157Y-51804692D01*
X163318879Y-51792194D01*
X163325148Y-51763805D01*
X163335608Y-51725669D01*
X163335618Y-51725634D01*
X163365430Y-51607466D01*
X163391321Y-51468925D01*
X163412981Y-51312445D01*
X163430103Y-51140459D01*
X163442378Y-50955400D01*
X163447059Y-50845836D01*
X163454935Y-50617813D01*
X163385549Y-50617813D01*
X163377741Y-50773383D01*
X163365490Y-50947438D01*
X163346905Y-51112629D01*
X163322540Y-51265448D01*
X163292951Y-51402389D01*
X163260522Y-51514534D01*
X163218201Y-51625029D01*
X163169576Y-51719434D01*
X163110458Y-51804651D01*
X163036655Y-51887585D01*
X163030050Y-51894269D01*
X162936569Y-51980348D01*
X162847236Y-52045580D01*
X162759449Y-52091198D01*
X162670606Y-52118438D01*
X162578108Y-52128534D01*
X162537753Y-52127969D01*
X162481303Y-52123828D01*
X162438084Y-52116075D01*
X162398270Y-52102369D01*
X162364572Y-52086692D01*
X162267467Y-52025826D01*
X162178227Y-51944433D01*
X162097794Y-51844012D01*
X162027108Y-51726066D01*
X161967110Y-51592093D01*
X161918739Y-51443595D01*
X161892746Y-51333993D01*
X161879411Y-51268304D01*
X161871642Y-51220880D01*
X161871136Y-51187222D01*
X161879591Y-51162831D01*
X161898703Y-51143207D01*
X161930169Y-51123850D01*
X161975685Y-51100262D01*
X161982140Y-51096949D01*
X162062576Y-51052607D01*
X162153800Y-50997377D01*
X162249231Y-50935590D01*
X162342289Y-50871576D01*
X162426395Y-50809665D01*
X162465384Y-50778947D01*
X162539037Y-50715547D01*
X162620900Y-50638991D01*
X162705561Y-50554766D01*
X162787607Y-50468360D01*
X162861625Y-50385262D01*
X162903902Y-50334330D01*
X163064444Y-50115352D01*
X163206347Y-49883699D01*
X163329255Y-49640802D01*
X163432810Y-49388096D01*
X163516653Y-49127012D01*
X163580427Y-48858983D01*
X163623774Y-48585441D01*
X163646336Y-48307820D01*
X163647755Y-48027551D01*
X163627674Y-47746068D01*
X163600244Y-47546722D01*
X163544505Y-47275075D01*
X163468963Y-47011921D01*
X163374328Y-46758404D01*
X163261312Y-46515668D01*
X163130626Y-46284859D01*
X162982981Y-46067119D01*
X162819088Y-45863594D01*
X162639659Y-45675428D01*
X162445405Y-45503765D01*
X162237036Y-45349750D01*
X162233263Y-45347215D01*
X162151546Y-45296316D01*
X162054106Y-45241907D01*
X161947341Y-45187108D01*
X161837646Y-45135037D01*
X161731418Y-45088815D01*
X161635054Y-45051561D01*
X161607931Y-45042238D01*
X161381965Y-44979370D01*
X161149658Y-44937845D01*
X160913658Y-44917735D01*
X160676610Y-44919114D01*
X160441162Y-44942053D01*
X160209960Y-44986626D01*
X160149309Y-45002189D01*
X159931965Y-45072433D01*
X159717718Y-45164113D01*
X159509220Y-45275578D01*
X159309125Y-45405175D01*
X159120086Y-45551254D01*
X158944756Y-45712164D01*
X158852651Y-45809131D01*
X158674636Y-46023319D01*
X158516263Y-46249368D01*
X158377787Y-46486600D01*
X158259461Y-46734336D01*
X158161539Y-46991896D01*
X158084275Y-47258601D01*
X158027922Y-47533773D01*
X157992735Y-47816733D01*
X157978967Y-48106801D01*
X157978763Y-48147086D01*
X157988309Y-48429837D01*
X158017302Y-48701670D01*
X158066276Y-48964911D01*
X158135763Y-49221886D01*
X158226296Y-49474922D01*
X158338408Y-49726345D01*
X158342454Y-49734586D01*
X158465446Y-49962952D01*
X158601457Y-50174037D01*
X158752706Y-50370967D01*
X158921411Y-50556870D01*
X158936842Y-50572480D01*
X159125531Y-50746691D01*
X159324704Y-50900829D01*
X159533704Y-51034537D01*
X159751874Y-51147461D01*
X159978554Y-51239245D01*
X160213088Y-51309532D01*
X160359531Y-51341662D01*
X160418216Y-51352378D01*
X160469161Y-51360375D01*
X160517619Y-51366051D01*
X160568841Y-51369807D01*
X160628079Y-51372040D01*
X160700585Y-51373151D01*
X160778536Y-51373515D01*
X160858935Y-51373266D01*
X160937098Y-51372267D01*
X161008113Y-51370639D01*
X161067071Y-51368500D01*
X161109060Y-51365970D01*
X161116241Y-51365300D01*
X161199945Y-51356561D01*
X161199955Y-51428800D01*
X161203946Y-51540796D01*
X161215118Y-51665600D01*
X161232305Y-51794790D01*
X161254343Y-51919946D01*
X161280067Y-52032650D01*
X161286953Y-52057944D01*
X161313884Y-52138825D01*
X161349394Y-52224546D01*
X161390460Y-52309140D01*
X161434061Y-52386638D01*
X161477173Y-52451073D01*
X161500709Y-52480047D01*
X161528124Y-52512311D01*
X161547118Y-52537907D01*
X161554395Y-52552294D01*
X161554034Y-52553572D01*
X161538361Y-52559205D01*
X161503350Y-52566240D01*
X161452680Y-52574223D01*
X161390029Y-52582698D01*
X161319076Y-52591209D01*
X161243500Y-52599299D01*
X161166978Y-52606512D01*
X161093189Y-52612394D01*
X161063341Y-52614392D01*
X160952337Y-52620486D01*
X160856439Y-52623680D01*
X160767857Y-52624059D01*
X160678797Y-52621703D01*
X160622672Y-52619054D01*
X160301192Y-52590727D01*
X159987231Y-52540622D01*
X159681139Y-52468879D01*
X159383263Y-52375637D01*
X159093952Y-52261036D01*
X158813554Y-52125217D01*
X158542417Y-51968320D01*
X158280890Y-51790483D01*
X158029321Y-51591849D01*
X157996526Y-51563780D01*
X157911256Y-51486776D01*
X157817497Y-51396358D01*
X157720323Y-51297804D01*
X157624809Y-51196389D01*
X157536027Y-51097389D01*
X157459052Y-51006079D01*
X157453107Y-50998705D01*
X157258459Y-50738119D01*
X157084123Y-50466617D01*
X156930312Y-50184656D01*
X156797242Y-49892692D01*
X156685129Y-49591183D01*
X156594187Y-49280585D01*
X156546180Y-49072347D01*
X156495623Y-48773661D01*
X156465288Y-48467075D01*
X156455172Y-48155837D01*
X156465276Y-47843194D01*
X156495598Y-47532391D01*
X156546137Y-47226677D01*
X156546797Y-47223396D01*
X156619748Y-46917897D01*
X156713377Y-46620534D01*
X156826845Y-46332205D01*
X156959313Y-46053808D01*
X157109941Y-45786243D01*
X157277889Y-45530407D01*
X157462319Y-45287200D01*
X157662390Y-45057518D01*
X157877264Y-44842262D01*
X158106100Y-44642329D01*
X158348059Y-44458617D01*
X158602302Y-44292026D01*
X158867990Y-44143454D01*
X159144282Y-44013798D01*
X159430340Y-43903958D01*
X159725323Y-43814832D01*
X159733672Y-43812651D01*
X160028049Y-43747540D01*
X160328906Y-43703204D01*
X160633274Y-43679756D01*
X160938179Y-43677306D01*
X161240653Y-43695968D01*
D16*
X127320040Y-61798200D02*
X127320040Y-67335400D01*
X127320040Y-67335400D02*
X127604448Y-67335400D01*
X132857240Y-67335400D02*
X132857240Y-61798200D01*
X132857240Y-61798200D02*
X132572832Y-61798200D01*
X127604448Y-61798200D02*
X127320040Y-61798200D01*
X132572832Y-67335400D02*
X132857240Y-67335400D01*
D14*
X154660940Y-79177160D02*
X154660940Y-78947160D01*
X155180940Y-82847160D02*
X147460940Y-82847160D01*
X147460940Y-82847160D02*
X147460940Y-78947160D01*
X155180940Y-75837160D02*
X154660940Y-75837160D01*
X155180940Y-82847160D02*
X155180940Y-78947160D01*
X147980940Y-79177160D02*
X147980940Y-78947160D01*
X154660940Y-76347160D02*
X154660940Y-75837160D01*
X155180940Y-76347160D02*
X155180940Y-75837160D01*
X148520940Y-79177160D02*
X147980940Y-79177160D01*
X147980940Y-76347160D02*
X147980940Y-75837160D01*
X147980940Y-75837160D02*
X147460940Y-75837160D01*
X147460940Y-76347160D02*
X147460940Y-75837160D01*
X154660940Y-79177160D02*
X154120940Y-79177160D01*
X153020940Y-79177160D02*
X149620940Y-79177160D01*
X107251160Y-31937680D02*
X107251160Y-32167680D01*
X106731160Y-28267680D02*
X114451160Y-28267680D01*
X114451160Y-28267680D02*
X114451160Y-32167680D01*
X106731160Y-35277680D02*
X107251160Y-35277680D01*
X106731160Y-28267680D02*
X106731160Y-32167680D01*
X113931160Y-31937680D02*
X113931160Y-32167680D01*
X107251160Y-34767680D02*
X107251160Y-35277680D01*
X106731160Y-34767680D02*
X106731160Y-35277680D01*
X113391160Y-31937680D02*
X113931160Y-31937680D01*
X113931160Y-34767680D02*
X113931160Y-35277680D01*
X113931160Y-35277680D02*
X114451160Y-35277680D01*
X114451160Y-34767680D02*
X114451160Y-35277680D01*
X107251160Y-31937680D02*
X107791160Y-31937680D01*
X108891160Y-31937680D02*
X112291160Y-31937680D01*
D15*
G36*
X151924173Y-52470473D02*
G01*
X143254307Y-52470473D01*
X143254307Y-48571927D01*
X143669251Y-48571927D01*
X143672784Y-48582302D01*
X143682354Y-48604616D01*
X143696514Y-48635618D01*
X143713815Y-48672059D01*
X143714353Y-48673173D01*
X143806675Y-48845167D01*
X143914695Y-49012254D01*
X144037764Y-49173937D01*
X144175231Y-49329718D01*
X144326445Y-49479100D01*
X144490758Y-49621586D01*
X144667517Y-49756679D01*
X144856074Y-49883880D01*
X145055777Y-50002694D01*
X145265977Y-50112623D01*
X145486022Y-50213169D01*
X145715264Y-50303835D01*
X145950940Y-50383469D01*
X146245257Y-50465957D01*
X146544452Y-50532326D01*
X146848059Y-50582526D01*
X147155609Y-50616506D01*
X147466634Y-50634213D01*
X147780668Y-50635597D01*
X148097242Y-50620608D01*
X148109940Y-50619668D01*
X148402666Y-50590662D01*
X148686945Y-50548038D01*
X148964960Y-50491362D01*
X149238889Y-50420199D01*
X149464607Y-50349857D01*
X149711505Y-50260091D01*
X149947416Y-50160069D01*
X150171891Y-50050118D01*
X150384482Y-49930563D01*
X150584739Y-49801730D01*
X150772215Y-49663945D01*
X150946459Y-49517533D01*
X151107024Y-49362821D01*
X151253460Y-49200134D01*
X151385319Y-49029798D01*
X151481962Y-48885108D01*
X151498836Y-48856803D01*
X151519365Y-48820534D01*
X151542109Y-48779058D01*
X151565629Y-48735130D01*
X151588483Y-48691507D01*
X151609232Y-48650946D01*
X151626437Y-48616203D01*
X151638656Y-48590034D01*
X151644450Y-48575197D01*
X151644726Y-48573549D01*
X151638839Y-48576065D01*
X151622838Y-48587845D01*
X151599272Y-48606915D01*
X151574923Y-48627620D01*
X151397822Y-48770912D01*
X151206469Y-48906397D01*
X151001759Y-49033836D01*
X150784588Y-49152992D01*
X150555850Y-49263625D01*
X150316442Y-49365498D01*
X150067258Y-49458372D01*
X149809194Y-49542009D01*
X149543145Y-49616170D01*
X149270007Y-49680618D01*
X148990676Y-49735113D01*
X148706045Y-49779418D01*
X148417012Y-49813294D01*
X148124470Y-49836502D01*
X147829316Y-49848805D01*
X147532445Y-49849964D01*
X147234753Y-49839741D01*
X147063317Y-49828597D01*
X146752913Y-49798680D01*
X146447786Y-49756876D01*
X146148853Y-49703470D01*
X145857031Y-49638747D01*
X145573238Y-49562991D01*
X145298391Y-49476488D01*
X145033408Y-49379522D01*
X144779206Y-49272377D01*
X144536703Y-49155338D01*
X144306816Y-49028691D01*
X144128247Y-48917792D01*
X144040960Y-48859026D01*
X143955819Y-48798786D01*
X143875540Y-48739123D01*
X143802835Y-48682090D01*
X143740418Y-48629740D01*
X143705156Y-48597788D01*
X143686179Y-48581089D01*
X143673170Y-48571974D01*
X143669251Y-48571927D01*
X143254307Y-48571927D01*
X143254307Y-48028368D01*
X146691773Y-48028368D01*
X146699830Y-48030011D01*
X146722360Y-48031459D01*
X146756906Y-48032634D01*
X146801008Y-48033462D01*
X146852208Y-48033867D01*
X146871690Y-48033895D01*
X147051606Y-48033850D01*
X147309840Y-47322740D01*
X147347987Y-47217840D01*
X147384542Y-47117606D01*
X147419086Y-47023166D01*
X147451204Y-46935647D01*
X147480477Y-46856179D01*
X147506488Y-46785888D01*
X147528820Y-46725904D01*
X147547055Y-46677354D01*
X147560776Y-46641365D01*
X147569565Y-46619067D01*
X147572991Y-46611585D01*
X147576533Y-46619354D01*
X147585403Y-46641925D01*
X147599185Y-46678167D01*
X147617463Y-46726954D01*
X147639818Y-46787156D01*
X147665836Y-46857646D01*
X147695100Y-46937294D01*
X147727193Y-47024972D01*
X147761698Y-47119552D01*
X147798200Y-47219906D01*
X147835458Y-47322633D01*
X148093007Y-48033725D01*
X148286611Y-48033833D01*
X148348727Y-48033790D01*
X148395887Y-48033482D01*
X148430068Y-48032756D01*
X148453246Y-48031457D01*
X148467399Y-48029432D01*
X148474502Y-48026527D01*
X148476534Y-48022590D01*
X148475993Y-48019123D01*
X148472471Y-48008917D01*
X148463580Y-47983989D01*
X148449702Y-47945390D01*
X148431220Y-47894168D01*
X148408516Y-47831375D01*
X148381971Y-47758061D01*
X148351967Y-47675276D01*
X148318887Y-47584070D01*
X148283113Y-47485493D01*
X148245027Y-47380597D01*
X148205011Y-47270430D01*
X148163447Y-47156044D01*
X148120716Y-47038488D01*
X148077202Y-46918814D01*
X148033286Y-46798070D01*
X147989349Y-46677307D01*
X147945776Y-46557576D01*
X147902946Y-46439927D01*
X147861243Y-46325410D01*
X147821048Y-46215075D01*
X147782743Y-46109973D01*
X147777675Y-46096072D01*
X148158424Y-46096072D01*
X148496934Y-47029022D01*
X148540928Y-47150273D01*
X148583477Y-47267540D01*
X148624204Y-47379787D01*
X148662735Y-47485979D01*
X148698692Y-47585081D01*
X148731701Y-47676058D01*
X148761386Y-47757873D01*
X148787371Y-47829491D01*
X148809281Y-47889878D01*
X148826739Y-47937997D01*
X148839371Y-47972813D01*
X148846800Y-47993291D01*
X148848492Y-47997957D01*
X148861540Y-48033940D01*
X149248529Y-48033940D01*
X149224653Y-47968323D01*
X149218997Y-47952763D01*
X149207907Y-47922235D01*
X149191728Y-47877689D01*
X149170804Y-47820075D01*
X149145480Y-47750341D01*
X149116100Y-47669438D01*
X149083010Y-47578313D01*
X149046555Y-47477918D01*
X149007078Y-47369200D01*
X148964924Y-47253110D01*
X148920439Y-47130596D01*
X148873968Y-47002608D01*
X148825854Y-46870096D01*
X148790385Y-46772407D01*
X149316440Y-46772407D01*
X149316440Y-47136473D01*
X149959906Y-47136473D01*
X149959906Y-46772407D01*
X149316440Y-46772407D01*
X148790385Y-46772407D01*
X148778856Y-46740657D01*
X148729924Y-46605986D01*
X148682530Y-46475735D01*
X148636998Y-46350787D01*
X148593652Y-46232023D01*
X148552816Y-46120327D01*
X148514815Y-46016579D01*
X148479973Y-45921662D01*
X148448614Y-45836459D01*
X148421063Y-45761851D01*
X148397643Y-45698720D01*
X148378679Y-45647950D01*
X148364495Y-45610421D01*
X148355415Y-45587016D01*
X148351764Y-45578618D01*
X148351737Y-45578607D01*
X148347700Y-45586263D01*
X148338659Y-45607984D01*
X148325332Y-45641898D01*
X148308437Y-45686133D01*
X148288693Y-45738815D01*
X148266817Y-45798073D01*
X148252482Y-45837339D01*
X148158424Y-46096072D01*
X147777675Y-46096072D01*
X147746711Y-46011154D01*
X147713334Y-45919667D01*
X147682993Y-45836564D01*
X147656071Y-45762895D01*
X147632950Y-45699709D01*
X147614011Y-45648057D01*
X147599637Y-45608990D01*
X147590210Y-45583557D01*
X147588323Y-45578606D01*
X149951440Y-45578606D01*
X149951440Y-45925610D01*
X150467972Y-45927791D01*
X150984505Y-45929973D01*
X150607821Y-46581907D01*
X150231138Y-47233840D01*
X150230989Y-47635583D01*
X150231106Y-47717267D01*
X150231501Y-47792754D01*
X150232146Y-47860503D01*
X150233014Y-47918972D01*
X150234076Y-47966619D01*
X150235304Y-48001903D01*
X150236672Y-48023280D01*
X150238095Y-48029283D01*
X150243049Y-48021188D01*
X150256012Y-47999190D01*
X150276540Y-47964062D01*
X150304185Y-47916571D01*
X150338502Y-47857488D01*
X150379046Y-47787584D01*
X150425371Y-47707627D01*
X150477030Y-47618388D01*
X150533580Y-47520637D01*
X150594573Y-47415143D01*
X150659564Y-47302677D01*
X150728107Y-47184008D01*
X150799757Y-47059906D01*
X150874069Y-46931141D01*
X150946102Y-46806273D01*
X151022472Y-46673864D01*
X151096560Y-46545409D01*
X151167925Y-46421678D01*
X151236124Y-46303438D01*
X151300712Y-46191458D01*
X151361246Y-46086505D01*
X151417285Y-45989348D01*
X151468384Y-45900756D01*
X151514101Y-45821496D01*
X151553993Y-45752337D01*
X151587615Y-45694047D01*
X151614526Y-45647394D01*
X151634282Y-45613146D01*
X151646440Y-45592072D01*
X151650547Y-45584956D01*
X151642790Y-45584073D01*
X151619224Y-45583226D01*
X151580972Y-45582424D01*
X151529159Y-45581675D01*
X151464907Y-45580988D01*
X151389341Y-45580371D01*
X151303585Y-45579833D01*
X151208763Y-45579382D01*
X151105998Y-45579026D01*
X150996414Y-45578773D01*
X150881136Y-45578633D01*
X150802840Y-45578606D01*
X149951440Y-45578606D01*
X147588323Y-45578606D01*
X147586113Y-45572809D01*
X147585972Y-45572517D01*
X147582866Y-45580018D01*
X147574369Y-45602394D01*
X147560861Y-45638600D01*
X147542724Y-45687592D01*
X147520337Y-45748325D01*
X147494082Y-45819754D01*
X147464337Y-45900835D01*
X147431485Y-45990522D01*
X147395904Y-46087772D01*
X147357976Y-46191539D01*
X147318081Y-46300778D01*
X147276599Y-46414446D01*
X147233911Y-46531498D01*
X147190396Y-46650888D01*
X147146436Y-46771572D01*
X147102411Y-46892506D01*
X147058701Y-47012644D01*
X147015686Y-47130942D01*
X146973747Y-47246356D01*
X146933264Y-47357840D01*
X146894618Y-47464351D01*
X146858189Y-47564842D01*
X146824358Y-47658271D01*
X146793504Y-47743591D01*
X146766008Y-47819759D01*
X146742251Y-47885729D01*
X146722613Y-47940457D01*
X146707474Y-47982898D01*
X146697214Y-48012008D01*
X146692215Y-48026741D01*
X146691773Y-48028368D01*
X143254307Y-48028368D01*
X143254307Y-46756561D01*
X143731403Y-46756561D01*
X143731755Y-46834024D01*
X143734984Y-46910034D01*
X143741049Y-46980066D01*
X143749910Y-47039591D01*
X143752447Y-47051807D01*
X143792131Y-47192778D01*
X143846228Y-47325545D01*
X143913945Y-47449350D01*
X143994487Y-47563438D01*
X144087059Y-47667050D01*
X144190869Y-47759430D01*
X144305120Y-47839822D01*
X144429020Y-47907468D01*
X144561775Y-47961611D01*
X144702589Y-48001494D01*
X144761373Y-48013353D01*
X144801742Y-48018234D01*
X144854708Y-48021237D01*
X144916063Y-48022445D01*
X144981600Y-48021944D01*
X145047111Y-48019819D01*
X145108389Y-48016154D01*
X145161226Y-48011034D01*
X145201416Y-48004543D01*
X145201640Y-48004494D01*
X145269127Y-47987237D01*
X145341628Y-47964738D01*
X145412918Y-47939156D01*
X145476769Y-47912647D01*
X145503939Y-47899731D01*
X145559229Y-47869570D01*
X145618512Y-47833233D01*
X145676803Y-47794056D01*
X145729120Y-47755373D01*
X145767266Y-47723476D01*
X145812193Y-47682573D01*
X145482355Y-47492907D01*
X145413845Y-47534083D01*
X145309423Y-47589105D01*
X145204807Y-47628421D01*
X145133991Y-47646357D01*
X145062541Y-47656752D01*
X144982692Y-47661041D01*
X144900009Y-47659412D01*
X144820056Y-47652053D01*
X144748398Y-47639152D01*
X144723273Y-47632473D01*
X144620446Y-47596252D01*
X144528980Y-47551294D01*
X144444850Y-47495168D01*
X144364035Y-47425442D01*
X144338040Y-47399680D01*
X144267476Y-47320009D01*
X144210948Y-47238443D01*
X144165720Y-47150758D01*
X144146996Y-47104655D01*
X144123356Y-47035575D01*
X144107194Y-46972072D01*
X144097649Y-46908552D01*
X144093862Y-46839419D01*
X144094765Y-46764841D01*
X144099156Y-46687967D01*
X144107371Y-46622418D01*
X144120738Y-46562768D01*
X144140589Y-46503593D01*
X144168254Y-46439467D01*
X144181141Y-46412573D01*
X144241627Y-46307689D01*
X144314745Y-46213680D01*
X144399552Y-46131303D01*
X144495102Y-46061317D01*
X144600451Y-46004479D01*
X144714654Y-45961546D01*
X144759051Y-45949315D01*
X144830482Y-45936495D01*
X144911683Y-45930237D01*
X144996841Y-45930472D01*
X145080143Y-45937134D01*
X145155777Y-45950153D01*
X145171808Y-45954127D01*
X145238347Y-45975391D01*
X145308985Y-46004175D01*
X145378097Y-46037809D01*
X145440060Y-46073623D01*
X145476640Y-46098915D01*
X145501825Y-46117451D01*
X145521895Y-46131097D01*
X145533037Y-46137281D01*
X145533723Y-46137407D01*
X145543433Y-46133337D01*
X145564762Y-46122137D01*
X145595126Y-46105322D01*
X145631941Y-46084407D01*
X145672624Y-46060906D01*
X145714592Y-46036334D01*
X145755260Y-46012206D01*
X145792046Y-45990035D01*
X145822365Y-45971338D01*
X145843634Y-45957629D01*
X145853269Y-45950421D01*
X145853573Y-45949886D01*
X145847312Y-45941138D01*
X145830289Y-45924273D01*
X145805144Y-45901523D01*
X145774517Y-45875120D01*
X145741049Y-45847297D01*
X145707379Y-45820286D01*
X145676147Y-45796321D01*
X145649995Y-45777632D01*
X145649324Y-45777181D01*
X145537456Y-45710915D01*
X145416010Y-45654782D01*
X145289951Y-45610797D01*
X145167773Y-45581612D01*
X145105545Y-45573328D01*
X145032401Y-45568418D01*
X144953907Y-45566881D01*
X144875627Y-45568712D01*
X144803127Y-45573907D01*
X144745003Y-45581894D01*
X144604777Y-45615380D01*
X144473690Y-45662758D01*
X144350695Y-45724584D01*
X144234745Y-45801409D01*
X144124793Y-45893790D01*
X144088005Y-45929427D01*
X143992757Y-46035043D01*
X143912751Y-46146103D01*
X143847091Y-46264270D01*
X143794882Y-46391207D01*
X143755226Y-46528577D01*
X143748018Y-46560740D01*
X143739493Y-46615392D01*
X143733969Y-46682175D01*
X143731403Y-46756561D01*
X143254307Y-46756561D01*
X143254307Y-45561673D01*
X146124507Y-45561673D01*
X146124507Y-48008540D01*
X146488573Y-48008540D01*
X146488573Y-45561673D01*
X146124507Y-45561673D01*
X143254307Y-45561673D01*
X143254307Y-43800607D01*
X151924173Y-43800607D01*
X151924173Y-52470473D01*
X151924173Y-52470473D01*
G37*
X151924173Y-52470473D02*
X143254307Y-52470473D01*
X143254307Y-48571927D01*
X143669251Y-48571927D01*
X143672784Y-48582302D01*
X143682354Y-48604616D01*
X143696514Y-48635618D01*
X143713815Y-48672059D01*
X143714353Y-48673173D01*
X143806675Y-48845167D01*
X143914695Y-49012254D01*
X144037764Y-49173937D01*
X144175231Y-49329718D01*
X144326445Y-49479100D01*
X144490758Y-49621586D01*
X144667517Y-49756679D01*
X144856074Y-49883880D01*
X145055777Y-50002694D01*
X145265977Y-50112623D01*
X145486022Y-50213169D01*
X145715264Y-50303835D01*
X145950940Y-50383469D01*
X146245257Y-50465957D01*
X146544452Y-50532326D01*
X146848059Y-50582526D01*
X147155609Y-50616506D01*
X147466634Y-50634213D01*
X147780668Y-50635597D01*
X148097242Y-50620608D01*
X148109940Y-50619668D01*
X148402666Y-50590662D01*
X148686945Y-50548038D01*
X148964960Y-50491362D01*
X149238889Y-50420199D01*
X149464607Y-50349857D01*
X149711505Y-50260091D01*
X149947416Y-50160069D01*
X150171891Y-50050118D01*
X150384482Y-49930563D01*
X150584739Y-49801730D01*
X150772215Y-49663945D01*
X150946459Y-49517533D01*
X151107024Y-49362821D01*
X151253460Y-49200134D01*
X151385319Y-49029798D01*
X151481962Y-48885108D01*
X151498836Y-48856803D01*
X151519365Y-48820534D01*
X151542109Y-48779058D01*
X151565629Y-48735130D01*
X151588483Y-48691507D01*
X151609232Y-48650946D01*
X151626437Y-48616203D01*
X151638656Y-48590034D01*
X151644450Y-48575197D01*
X151644726Y-48573549D01*
X151638839Y-48576065D01*
X151622838Y-48587845D01*
X151599272Y-48606915D01*
X151574923Y-48627620D01*
X151397822Y-48770912D01*
X151206469Y-48906397D01*
X151001759Y-49033836D01*
X150784588Y-49152992D01*
X150555850Y-49263625D01*
X150316442Y-49365498D01*
X150067258Y-49458372D01*
X149809194Y-49542009D01*
X149543145Y-49616170D01*
X149270007Y-49680618D01*
X148990676Y-49735113D01*
X148706045Y-49779418D01*
X148417012Y-49813294D01*
X148124470Y-49836502D01*
X147829316Y-49848805D01*
X147532445Y-49849964D01*
X147234753Y-49839741D01*
X147063317Y-49828597D01*
X146752913Y-49798680D01*
X146447786Y-49756876D01*
X146148853Y-49703470D01*
X145857031Y-49638747D01*
X145573238Y-49562991D01*
X145298391Y-49476488D01*
X145033408Y-49379522D01*
X144779206Y-49272377D01*
X144536703Y-49155338D01*
X144306816Y-49028691D01*
X144128247Y-48917792D01*
X144040960Y-48859026D01*
X143955819Y-48798786D01*
X143875540Y-48739123D01*
X143802835Y-48682090D01*
X143740418Y-48629740D01*
X143705156Y-48597788D01*
X143686179Y-48581089D01*
X143673170Y-48571974D01*
X143669251Y-48571927D01*
X143254307Y-48571927D01*
X143254307Y-48028368D01*
X146691773Y-48028368D01*
X146699830Y-48030011D01*
X146722360Y-48031459D01*
X146756906Y-48032634D01*
X146801008Y-48033462D01*
X146852208Y-48033867D01*
X146871690Y-48033895D01*
X147051606Y-48033850D01*
X147309840Y-47322740D01*
X147347987Y-47217840D01*
X147384542Y-47117606D01*
X147419086Y-47023166D01*
X147451204Y-46935647D01*
X147480477Y-46856179D01*
X147506488Y-46785888D01*
X147528820Y-46725904D01*
X147547055Y-46677354D01*
X147560776Y-46641365D01*
X147569565Y-46619067D01*
X147572991Y-46611585D01*
X147576533Y-46619354D01*
X147585403Y-46641925D01*
X147599185Y-46678167D01*
X147617463Y-46726954D01*
X147639818Y-46787156D01*
X147665836Y-46857646D01*
X147695100Y-46937294D01*
X147727193Y-47024972D01*
X147761698Y-47119552D01*
X147798200Y-47219906D01*
X147835458Y-47322633D01*
X148093007Y-48033725D01*
X148286611Y-48033833D01*
X148348727Y-48033790D01*
X148395887Y-48033482D01*
X148430068Y-48032756D01*
X148453246Y-48031457D01*
X148467399Y-48029432D01*
X148474502Y-48026527D01*
X148476534Y-48022590D01*
X148475993Y-48019123D01*
X148472471Y-48008917D01*
X148463580Y-47983989D01*
X148449702Y-47945390D01*
X148431220Y-47894168D01*
X148408516Y-47831375D01*
X148381971Y-47758061D01*
X148351967Y-47675276D01*
X148318887Y-47584070D01*
X148283113Y-47485493D01*
X148245027Y-47380597D01*
X148205011Y-47270430D01*
X148163447Y-47156044D01*
X148120716Y-47038488D01*
X148077202Y-46918814D01*
X148033286Y-46798070D01*
X147989349Y-46677307D01*
X147945776Y-46557576D01*
X147902946Y-46439927D01*
X147861243Y-46325410D01*
X147821048Y-46215075D01*
X147782743Y-46109973D01*
X147777675Y-46096072D01*
X148158424Y-46096072D01*
X148496934Y-47029022D01*
X148540928Y-47150273D01*
X148583477Y-47267540D01*
X148624204Y-47379787D01*
X148662735Y-47485979D01*
X148698692Y-47585081D01*
X148731701Y-47676058D01*
X148761386Y-47757873D01*
X148787371Y-47829491D01*
X148809281Y-47889878D01*
X148826739Y-47937997D01*
X148839371Y-47972813D01*
X148846800Y-47993291D01*
X148848492Y-47997957D01*
X148861540Y-48033940D01*
X149248529Y-48033940D01*
X149224653Y-47968323D01*
X149218997Y-47952763D01*
X149207907Y-47922235D01*
X149191728Y-47877689D01*
X149170804Y-47820075D01*
X149145480Y-47750341D01*
X149116100Y-47669438D01*
X149083010Y-47578313D01*
X149046555Y-47477918D01*
X149007078Y-47369200D01*
X148964924Y-47253110D01*
X148920439Y-47130596D01*
X148873968Y-47002608D01*
X148825854Y-46870096D01*
X148790385Y-46772407D01*
X149316440Y-46772407D01*
X149316440Y-47136473D01*
X149959906Y-47136473D01*
X149959906Y-46772407D01*
X149316440Y-46772407D01*
X148790385Y-46772407D01*
X148778856Y-46740657D01*
X148729924Y-46605986D01*
X148682530Y-46475735D01*
X148636998Y-46350787D01*
X148593652Y-46232023D01*
X148552816Y-46120327D01*
X148514815Y-46016579D01*
X148479973Y-45921662D01*
X148448614Y-45836459D01*
X148421063Y-45761851D01*
X148397643Y-45698720D01*
X148378679Y-45647950D01*
X148364495Y-45610421D01*
X148355415Y-45587016D01*
X148351764Y-45578618D01*
X148351737Y-45578607D01*
X148347700Y-45586263D01*
X148338659Y-45607984D01*
X148325332Y-45641898D01*
X148308437Y-45686133D01*
X148288693Y-45738815D01*
X148266817Y-45798073D01*
X148252482Y-45837339D01*
X148158424Y-46096072D01*
X147777675Y-46096072D01*
X147746711Y-46011154D01*
X147713334Y-45919667D01*
X147682993Y-45836564D01*
X147656071Y-45762895D01*
X147632950Y-45699709D01*
X147614011Y-45648057D01*
X147599637Y-45608990D01*
X147590210Y-45583557D01*
X147588323Y-45578606D01*
X149951440Y-45578606D01*
X149951440Y-45925610D01*
X150467972Y-45927791D01*
X150984505Y-45929973D01*
X150607821Y-46581907D01*
X150231138Y-47233840D01*
X150230989Y-47635583D01*
X150231106Y-47717267D01*
X150231501Y-47792754D01*
X150232146Y-47860503D01*
X150233014Y-47918972D01*
X150234076Y-47966619D01*
X150235304Y-48001903D01*
X150236672Y-48023280D01*
X150238095Y-48029283D01*
X150243049Y-48021188D01*
X150256012Y-47999190D01*
X150276540Y-47964062D01*
X150304185Y-47916571D01*
X150338502Y-47857488D01*
X150379046Y-47787584D01*
X150425371Y-47707627D01*
X150477030Y-47618388D01*
X150533580Y-47520637D01*
X150594573Y-47415143D01*
X150659564Y-47302677D01*
X150728107Y-47184008D01*
X150799757Y-47059906D01*
X150874069Y-46931141D01*
X150946102Y-46806273D01*
X151022472Y-46673864D01*
X151096560Y-46545409D01*
X151167925Y-46421678D01*
X151236124Y-46303438D01*
X151300712Y-46191458D01*
X151361246Y-46086505D01*
X151417285Y-45989348D01*
X151468384Y-45900756D01*
X151514101Y-45821496D01*
X151553993Y-45752337D01*
X151587615Y-45694047D01*
X151614526Y-45647394D01*
X151634282Y-45613146D01*
X151646440Y-45592072D01*
X151650547Y-45584956D01*
X151642790Y-45584073D01*
X151619224Y-45583226D01*
X151580972Y-45582424D01*
X151529159Y-45581675D01*
X151464907Y-45580988D01*
X151389341Y-45580371D01*
X151303585Y-45579833D01*
X151208763Y-45579382D01*
X151105998Y-45579026D01*
X150996414Y-45578773D01*
X150881136Y-45578633D01*
X150802840Y-45578606D01*
X149951440Y-45578606D01*
X147588323Y-45578606D01*
X147586113Y-45572809D01*
X147585972Y-45572517D01*
X147582866Y-45580018D01*
X147574369Y-45602394D01*
X147560861Y-45638600D01*
X147542724Y-45687592D01*
X147520337Y-45748325D01*
X147494082Y-45819754D01*
X147464337Y-45900835D01*
X147431485Y-45990522D01*
X147395904Y-46087772D01*
X147357976Y-46191539D01*
X147318081Y-46300778D01*
X147276599Y-46414446D01*
X147233911Y-46531498D01*
X147190396Y-46650888D01*
X147146436Y-46771572D01*
X147102411Y-46892506D01*
X147058701Y-47012644D01*
X147015686Y-47130942D01*
X146973747Y-47246356D01*
X146933264Y-47357840D01*
X146894618Y-47464351D01*
X146858189Y-47564842D01*
X146824358Y-47658271D01*
X146793504Y-47743591D01*
X146766008Y-47819759D01*
X146742251Y-47885729D01*
X146722613Y-47940457D01*
X146707474Y-47982898D01*
X146697214Y-48012008D01*
X146692215Y-48026741D01*
X146691773Y-48028368D01*
X143254307Y-48028368D01*
X143254307Y-46756561D01*
X143731403Y-46756561D01*
X143731755Y-46834024D01*
X143734984Y-46910034D01*
X143741049Y-46980066D01*
X143749910Y-47039591D01*
X143752447Y-47051807D01*
X143792131Y-47192778D01*
X143846228Y-47325545D01*
X143913945Y-47449350D01*
X143994487Y-47563438D01*
X144087059Y-47667050D01*
X144190869Y-47759430D01*
X144305120Y-47839822D01*
X144429020Y-47907468D01*
X144561775Y-47961611D01*
X144702589Y-48001494D01*
X144761373Y-48013353D01*
X144801742Y-48018234D01*
X144854708Y-48021237D01*
X144916063Y-48022445D01*
X144981600Y-48021944D01*
X145047111Y-48019819D01*
X145108389Y-48016154D01*
X145161226Y-48011034D01*
X145201416Y-48004543D01*
X145201640Y-48004494D01*
X145269127Y-47987237D01*
X145341628Y-47964738D01*
X145412918Y-47939156D01*
X145476769Y-47912647D01*
X145503939Y-47899731D01*
X145559229Y-47869570D01*
X145618512Y-47833233D01*
X145676803Y-47794056D01*
X145729120Y-47755373D01*
X145767266Y-47723476D01*
X145812193Y-47682573D01*
X145482355Y-47492907D01*
X145413845Y-47534083D01*
X145309423Y-47589105D01*
X145204807Y-47628421D01*
X145133991Y-47646357D01*
X145062541Y-47656752D01*
X144982692Y-47661041D01*
X144900009Y-47659412D01*
X144820056Y-47652053D01*
X144748398Y-47639152D01*
X144723273Y-47632473D01*
X144620446Y-47596252D01*
X144528980Y-47551294D01*
X144444850Y-47495168D01*
X144364035Y-47425442D01*
X144338040Y-47399680D01*
X144267476Y-47320009D01*
X144210948Y-47238443D01*
X144165720Y-47150758D01*
X144146996Y-47104655D01*
X144123356Y-47035575D01*
X144107194Y-46972072D01*
X144097649Y-46908552D01*
X144093862Y-46839419D01*
X144094765Y-46764841D01*
X144099156Y-46687967D01*
X144107371Y-46622418D01*
X144120738Y-46562768D01*
X144140589Y-46503593D01*
X144168254Y-46439467D01*
X144181141Y-46412573D01*
X144241627Y-46307689D01*
X144314745Y-46213680D01*
X144399552Y-46131303D01*
X144495102Y-46061317D01*
X144600451Y-46004479D01*
X144714654Y-45961546D01*
X144759051Y-45949315D01*
X144830482Y-45936495D01*
X144911683Y-45930237D01*
X144996841Y-45930472D01*
X145080143Y-45937134D01*
X145155777Y-45950153D01*
X145171808Y-45954127D01*
X145238347Y-45975391D01*
X145308985Y-46004175D01*
X145378097Y-46037809D01*
X145440060Y-46073623D01*
X145476640Y-46098915D01*
X145501825Y-46117451D01*
X145521895Y-46131097D01*
X145533037Y-46137281D01*
X145533723Y-46137407D01*
X145543433Y-46133337D01*
X145564762Y-46122137D01*
X145595126Y-46105322D01*
X145631941Y-46084407D01*
X145672624Y-46060906D01*
X145714592Y-46036334D01*
X145755260Y-46012206D01*
X145792046Y-45990035D01*
X145822365Y-45971338D01*
X145843634Y-45957629D01*
X145853269Y-45950421D01*
X145853573Y-45949886D01*
X145847312Y-45941138D01*
X145830289Y-45924273D01*
X145805144Y-45901523D01*
X145774517Y-45875120D01*
X145741049Y-45847297D01*
X145707379Y-45820286D01*
X145676147Y-45796321D01*
X145649995Y-45777632D01*
X145649324Y-45777181D01*
X145537456Y-45710915D01*
X145416010Y-45654782D01*
X145289951Y-45610797D01*
X145167773Y-45581612D01*
X145105545Y-45573328D01*
X145032401Y-45568418D01*
X144953907Y-45566881D01*
X144875627Y-45568712D01*
X144803127Y-45573907D01*
X144745003Y-45581894D01*
X144604777Y-45615380D01*
X144473690Y-45662758D01*
X144350695Y-45724584D01*
X144234745Y-45801409D01*
X144124793Y-45893790D01*
X144088005Y-45929427D01*
X143992757Y-46035043D01*
X143912751Y-46146103D01*
X143847091Y-46264270D01*
X143794882Y-46391207D01*
X143755226Y-46528577D01*
X143748018Y-46560740D01*
X143739493Y-46615392D01*
X143733969Y-46682175D01*
X143731403Y-46756561D01*
X143254307Y-46756561D01*
X143254307Y-45561673D01*
X146124507Y-45561673D01*
X146124507Y-48008540D01*
X146488573Y-48008540D01*
X146488573Y-45561673D01*
X146124507Y-45561673D01*
X143254307Y-45561673D01*
X143254307Y-43800607D01*
X151924173Y-43800607D01*
X151924173Y-52470473D01*
D14*
X115213260Y-59067700D02*
G75*
G03X115213260Y-59067700I-1500000J0D01*
G01*
X118804820Y-42224960D02*
G75*
G03X118804820Y-42224960I-1500000J0D01*
G01*
D17*
X182103200Y-32391400D02*
X182253200Y-32391400D01*
X182103200Y-32691400D02*
X182103200Y-32391400D01*
X181803200Y-33041400D02*
X182103200Y-32691400D01*
X181353200Y-33041400D02*
X181803200Y-33041400D01*
X173903200Y-33041400D02*
X173903200Y-32341400D01*
X174403200Y-33041400D02*
X173903200Y-33041400D01*
X173903200Y-27341400D02*
X174303200Y-27341400D01*
X173903200Y-27941400D02*
X173903200Y-27341400D01*
X182103200Y-27341400D02*
X181453200Y-27341400D01*
X182103200Y-27891400D02*
X182103200Y-27341400D01*
X177891000Y-78124000D02*
X177741000Y-78124000D01*
X177891000Y-77824000D02*
X177891000Y-78124000D01*
X178191000Y-77474000D02*
X177891000Y-77824000D01*
X178641000Y-77474000D02*
X178191000Y-77474000D01*
X186091000Y-77474000D02*
X186091000Y-78174000D01*
X185591000Y-77474000D02*
X186091000Y-77474000D01*
X186091000Y-83174000D02*
X185691000Y-83174000D01*
X186091000Y-82574000D02*
X186091000Y-83174000D01*
X177891000Y-83174000D02*
X178541000Y-83174000D01*
X177891000Y-82624000D02*
X177891000Y-83174000D01*
X168946000Y-32366000D02*
X169096000Y-32366000D01*
X168946000Y-32666000D02*
X168946000Y-32366000D01*
X168646000Y-33016000D02*
X168946000Y-32666000D01*
X168196000Y-33016000D02*
X168646000Y-33016000D01*
X160746000Y-33016000D02*
X160746000Y-32316000D01*
X161246000Y-33016000D02*
X160746000Y-33016000D01*
X160746000Y-27316000D02*
X161146000Y-27316000D01*
X160746000Y-27916000D02*
X160746000Y-27316000D01*
X168946000Y-27316000D02*
X168296000Y-27316000D01*
X168946000Y-27866000D02*
X168946000Y-27316000D01*
D14*
X62937420Y-65495280D02*
X62937420Y-67925280D01*
X66007420Y-67255280D02*
X66007420Y-65495280D01*
X69036698Y-62558860D02*
X68519542Y-62558860D01*
X69036698Y-63978860D02*
X68519542Y-63978860D01*
X68540700Y-69925698D02*
X68540700Y-69408542D01*
X67120700Y-69925698D02*
X67120700Y-69408542D01*
X191916120Y-56367178D02*
X191916120Y-55850022D01*
X190496120Y-56367178D02*
X190496120Y-55850022D01*
X65053978Y-49277200D02*
X64536822Y-49277200D01*
X65053978Y-50697200D02*
X64536822Y-50697200D01*
X154936260Y-73984618D02*
X154936260Y-73467462D01*
X153516260Y-73984618D02*
X153516260Y-73467462D01*
X136834378Y-65436680D02*
X136317222Y-65436680D01*
X136834378Y-66856680D02*
X136317222Y-66856680D01*
X136834378Y-63496120D02*
X136317222Y-63496120D01*
X136834378Y-64916120D02*
X136317222Y-64916120D01*
X99716360Y-43257980D02*
G75*
G02X99016360Y-42557980I0J700000D01*
G01*
X99016360Y-41957980D02*
G75*
G02X99716360Y-41257980I700000J0D01*
G01*
X101116360Y-41257980D02*
G75*
G02X101816360Y-41957980I0J-700000D01*
G01*
X101816360Y-42557980D02*
G75*
G02X101116360Y-43257980I-700000J0D01*
G01*
X101816360Y-41957980D02*
X101816360Y-42557980D01*
X99716360Y-41257980D02*
X101116360Y-41257980D01*
X99016360Y-42557980D02*
X99016360Y-41957980D01*
X101116360Y-43257980D02*
X99716360Y-43257980D01*
X157582200Y-68860300D02*
X157582200Y-62580300D01*
X157582200Y-62580300D02*
X173532200Y-62580300D01*
X173532200Y-62580300D02*
X173532200Y-68860300D01*
X173532200Y-72060300D02*
X173532200Y-84500300D01*
X173532200Y-84500300D02*
X157582200Y-84500300D01*
X157582200Y-84500300D02*
X157582200Y-72060300D01*
X157382200Y-66170300D02*
X157382200Y-68170300D01*
D11*
X102166240Y-49184000D02*
X102166240Y-49134000D01*
X98016240Y-49184000D02*
X98016240Y-49039000D01*
X98016240Y-44034000D02*
X98016240Y-44179000D01*
X102166240Y-44034000D02*
X102166240Y-44179000D01*
X102166240Y-49184000D02*
X98016240Y-49184000D01*
X102166240Y-44034000D02*
X98016240Y-44034000D01*
X102166240Y-49134000D02*
X103566240Y-49134000D01*
X172064720Y-48926160D02*
X176514720Y-48926160D01*
X170539720Y-42026160D02*
X176514720Y-42026160D01*
D14*
X101306200Y-55743200D02*
X99506200Y-55743200D01*
X99506200Y-58963200D02*
X101956200Y-58963200D01*
X186308000Y-31652000D02*
X186308000Y-37052000D01*
X183008000Y-31652000D02*
X183008000Y-37052000D01*
X186308000Y-31652000D02*
X183008000Y-31652000D01*
X83193820Y-52597818D02*
X83193820Y-52080662D01*
X84613820Y-52597818D02*
X84613820Y-52080662D01*
X81202460Y-52605438D02*
X81202460Y-52088282D01*
X82622460Y-52605438D02*
X82622460Y-52088282D01*
X88449360Y-57784000D02*
X83049360Y-57784000D01*
X88449360Y-54484000D02*
X83049360Y-54484000D01*
X88449360Y-57784000D02*
X88449360Y-54484000D01*
X88439200Y-61398420D02*
X88439200Y-58098420D01*
X88439200Y-58098420D02*
X83039200Y-58098420D01*
X88439200Y-61398420D02*
X83039200Y-61398420D01*
X71458660Y-56304540D02*
X69658660Y-56304540D01*
X69658660Y-59524540D02*
X72108660Y-59524540D01*
X73508820Y-54527400D02*
X80328820Y-54527400D01*
X73508820Y-61347400D02*
X80328820Y-61347400D01*
X73508820Y-54527400D02*
X73508820Y-55267400D01*
X80328820Y-54527400D02*
X80328820Y-55267400D01*
X73508820Y-61347400D02*
X73508820Y-60607400D01*
X80328820Y-61347400D02*
X80328820Y-60607400D01*
X72788820Y-55267400D02*
X73508820Y-55267400D01*
D11*
X104024660Y-51939080D02*
X104024660Y-51664080D01*
X96274660Y-51939080D02*
X96274660Y-51584080D01*
X96274660Y-41289080D02*
X96274660Y-41644080D01*
X104024660Y-41289080D02*
X104024660Y-41644080D01*
X104024660Y-51939080D02*
X96274660Y-51939080D01*
X104024660Y-41289080D02*
X96274660Y-41289080D01*
X104024660Y-51664080D02*
X105549660Y-51664080D01*
D14*
X92728980Y-50135022D02*
X92728980Y-50652178D01*
X94148980Y-50135022D02*
X94148980Y-50652178D01*
X92287858Y-61812240D02*
X91770702Y-61812240D01*
X92287858Y-60392240D02*
X91770702Y-60392240D01*
X100213160Y-52658040D02*
X96793160Y-52658040D01*
X96793160Y-52658040D02*
X96793160Y-52948040D01*
X100213160Y-52658040D02*
X103633160Y-52658040D01*
X103633160Y-52658040D02*
X103633160Y-52948040D01*
X100213160Y-62028040D02*
X96793160Y-62028040D01*
X96793160Y-62028040D02*
X96793160Y-61738040D01*
X100213160Y-62028040D02*
X103633160Y-62028040D01*
X103633160Y-62028040D02*
X103633160Y-61738040D01*
X103633160Y-61738040D02*
X105913160Y-61738040D01*
X92593280Y-42221880D02*
X91663280Y-42221880D01*
X89433280Y-42221880D02*
X90363280Y-42221880D01*
X89433280Y-42221880D02*
X89433280Y-44381880D01*
X92593280Y-42221880D02*
X92593280Y-43681880D01*
X111582702Y-35777100D02*
X112099858Y-35777100D01*
X111582702Y-37197100D02*
X112099858Y-37197100D01*
X61091400Y-49067400D02*
X61091400Y-51952400D01*
X62911400Y-49067400D02*
X61091400Y-49067400D01*
X62911400Y-51952400D02*
X62911400Y-49067400D01*
X190245320Y-51265580D02*
X190245320Y-54150580D01*
X190245320Y-54150580D02*
X192065320Y-54150580D01*
X192065320Y-54150580D02*
X192065320Y-51265580D01*
X113090000Y-80070000D02*
X113090000Y-74870000D01*
X90170000Y-80070000D02*
X113090000Y-80070000D01*
X87570000Y-74870000D02*
X113090000Y-74870000D01*
X90170000Y-80070000D02*
X90170000Y-77470000D01*
X90170000Y-77470000D02*
X87570000Y-77470000D01*
X87570000Y-77470000D02*
X87570000Y-74870000D01*
X88900000Y-80070000D02*
X87570000Y-80070000D01*
X87570000Y-80070000D02*
X87570000Y-78740000D01*
X113090000Y-74990000D02*
X113090000Y-69790000D01*
X90170000Y-74990000D02*
X113090000Y-74990000D01*
X87570000Y-69790000D02*
X113090000Y-69790000D01*
X90170000Y-74990000D02*
X90170000Y-72390000D01*
X90170000Y-72390000D02*
X87570000Y-72390000D01*
X87570000Y-72390000D02*
X87570000Y-69790000D01*
X88900000Y-74990000D02*
X87570000Y-74990000D01*
X87570000Y-74990000D02*
X87570000Y-73660000D01*
X100612900Y-37218800D02*
X105812900Y-37218800D01*
X105812900Y-37218800D02*
X105812900Y-34558800D01*
X105812900Y-34558800D02*
X100612900Y-34558800D01*
X100612900Y-34558800D02*
X100612900Y-37218800D01*
X101562900Y-34558800D02*
X101562900Y-28558800D01*
X101562900Y-28558800D02*
X102322900Y-28558800D01*
X102322900Y-28558800D02*
X102322900Y-34558800D01*
X101622900Y-34558800D02*
X101622900Y-28558800D01*
X101742900Y-34558800D02*
X101742900Y-28558800D01*
X101862900Y-34558800D02*
X101862900Y-28558800D01*
X101982900Y-34558800D02*
X101982900Y-28558800D01*
X102102900Y-34558800D02*
X102102900Y-28558800D01*
X102222900Y-34558800D02*
X102222900Y-28558800D01*
X101562900Y-37548800D02*
X101562900Y-37218800D01*
X102322900Y-37548800D02*
X102322900Y-37218800D01*
X103212900Y-37218800D02*
X103212900Y-34558800D01*
X104102900Y-34558800D02*
X104102900Y-28558800D01*
X104102900Y-28558800D02*
X104862900Y-28558800D01*
X104862900Y-28558800D02*
X104862900Y-34558800D01*
X104102900Y-37615871D02*
X104102900Y-37218800D01*
X104862900Y-37615871D02*
X104862900Y-37218800D01*
X101942900Y-39928800D02*
X100672900Y-39928800D01*
X100672900Y-39928800D02*
X100672900Y-38658800D01*
X178942000Y-69752000D02*
X175642000Y-69752000D01*
X175642000Y-69752000D02*
X175642000Y-75152000D01*
X178942000Y-69752000D02*
X178942000Y-75152000D01*
X172846000Y-32088880D02*
X169546000Y-32088880D01*
X169546000Y-32088880D02*
X169546000Y-37488880D01*
X172846000Y-32088880D02*
X172846000Y-37488880D01*
X77335500Y-42374280D02*
X76405500Y-42374280D01*
X74175500Y-42374280D02*
X75105500Y-42374280D01*
X74175500Y-42374280D02*
X74175500Y-44534280D01*
X77335500Y-42374280D02*
X77335500Y-43834280D01*
X167780202Y-41710540D02*
X168297358Y-41710540D01*
X167780202Y-43130540D02*
X168297358Y-43130540D01*
X173432160Y-35365380D02*
X173432160Y-40565380D01*
X176032160Y-35365380D02*
X173432160Y-35365380D01*
X178632160Y-40565380D02*
X173432160Y-40565380D01*
X176032160Y-35365380D02*
X176032160Y-37965380D01*
X176032160Y-37965380D02*
X178632160Y-37965380D01*
X178632160Y-37965380D02*
X178632160Y-40565380D01*
X177302160Y-35365380D02*
X178632160Y-35365380D01*
X178632160Y-35365380D02*
X178632160Y-36695380D01*
X146874320Y-36842520D02*
X146874320Y-30542520D01*
X159744320Y-36142520D02*
X159744320Y-30542520D01*
X146874320Y-40552520D02*
X146874320Y-38742520D01*
X159744320Y-40552520D02*
X148484320Y-40552520D01*
X159744320Y-39392520D02*
X159744320Y-40552520D01*
X146984320Y-40552520D02*
X146874320Y-40552520D01*
X179443740Y-39320900D02*
X179443740Y-41120900D01*
X182663740Y-41120900D02*
X182663740Y-38670900D01*
X164515440Y-40407160D02*
X164515440Y-37957160D01*
X161295440Y-38607160D02*
X161295440Y-40407160D01*
X181632500Y-65050240D02*
X181632500Y-63250240D01*
X178412500Y-63250240D02*
X178412500Y-65700240D01*
X170632622Y-61474420D02*
X171149778Y-61474420D01*
X170632622Y-60054420D02*
X171149778Y-60054420D01*
X165924998Y-61484580D02*
X165407842Y-61484580D01*
X165924998Y-60064580D02*
X165407842Y-60064580D01*
X148366982Y-62122120D02*
X148884138Y-62122120D01*
X148366982Y-60702120D02*
X148884138Y-60702120D01*
X148366982Y-64443540D02*
X148884138Y-64443540D01*
X148366982Y-65863540D02*
X148884138Y-65863540D01*
X146709540Y-65984100D02*
X146709540Y-60234100D01*
X146709540Y-60234100D02*
X143109540Y-60234100D01*
X143109540Y-60234100D02*
X143109540Y-65984100D01*
X114032798Y-52355680D02*
X113515642Y-52355680D01*
X114032798Y-53775680D02*
X113515642Y-53775680D01*
X112055500Y-45496500D02*
X112055500Y-51246500D01*
X112055500Y-51246500D02*
X115655500Y-51246500D01*
X115655500Y-51246500D02*
X115655500Y-45496500D01*
X114678500Y-42376000D02*
X114678500Y-43476000D01*
X112778500Y-42376000D02*
X112778500Y-43476000D01*
X114628500Y-40976000D02*
X112828500Y-40976000D01*
X81634540Y-70580520D02*
X81634540Y-67280520D01*
X81634540Y-67280520D02*
X76234540Y-67280520D01*
X81634540Y-70580520D02*
X76234540Y-70580520D01*
X62386280Y-65018418D02*
X62386280Y-64501262D01*
X60966280Y-65018418D02*
X60966280Y-64501262D01*
X69006218Y-66821120D02*
X68489062Y-66821120D01*
X69006218Y-65401120D02*
X68489062Y-65401120D01*
X167803062Y-43640940D02*
X168320218Y-43640940D01*
X167803062Y-45060940D02*
X168320218Y-45060940D01*
X178603840Y-46471338D02*
X178603840Y-45954182D01*
X180023840Y-46471338D02*
X180023840Y-45954182D01*
X131307338Y-71558220D02*
X130790182Y-71558220D01*
X131307338Y-70138220D02*
X130790182Y-70138220D01*
D11*
X123420281Y-40385141D02*
X123420281Y-41035141D01*
X137670281Y-40385141D02*
X137670281Y-41145141D01*
X137670281Y-54635141D02*
X137670281Y-53875141D01*
X123420281Y-54635141D02*
X123420281Y-53875141D01*
X123420281Y-40385141D02*
X124180281Y-40385141D01*
X123420281Y-54635141D02*
X124180281Y-54635141D01*
X137670281Y-54635141D02*
X136910281Y-54635141D01*
X137670281Y-40385141D02*
X136910281Y-40385141D01*
X123420281Y-41035141D02*
X121895281Y-41035141D01*
D14*
X108338118Y-60351600D02*
X107820962Y-60351600D01*
X108338118Y-61771600D02*
X107820962Y-61771600D01*
X106114780Y-50705518D02*
X106114780Y-50188362D01*
X107534780Y-50705518D02*
X107534780Y-50188362D01*
X154308042Y-41832460D02*
X154825198Y-41832460D01*
X154308042Y-43252460D02*
X154825198Y-43252460D01*
X147582122Y-72777420D02*
X148099278Y-72777420D01*
X147582122Y-71357420D02*
X148099278Y-71357420D01*
X135144580Y-69261222D02*
X135144580Y-69778378D01*
X133724580Y-69261222D02*
X133724580Y-69778378D01*
X147579582Y-70791140D02*
X148096738Y-70791140D01*
X147579582Y-69371140D02*
X148096738Y-69371140D01*
X137346760Y-69268842D02*
X137346760Y-69785998D01*
X135926760Y-69268842D02*
X135926760Y-69785998D01*
X144223238Y-73038900D02*
X143706082Y-73038900D01*
X144223238Y-74458900D02*
X143706082Y-74458900D01*
X147582122Y-73333540D02*
X148099278Y-73333540D01*
X147582122Y-74753540D02*
X148099278Y-74753540D01*
X139548360Y-71429140D02*
X139073360Y-71429140D01*
X139073360Y-71429140D02*
X139073360Y-70954140D01*
X142818360Y-67209140D02*
X143293360Y-67209140D01*
X143293360Y-67209140D02*
X143293360Y-67684140D01*
X139548360Y-67209140D02*
X139073360Y-67209140D01*
X139073360Y-67209140D02*
X139073360Y-67684140D01*
X142818360Y-71429140D02*
X143293360Y-71429140D01*
X145662720Y-71269358D02*
X145662720Y-70752202D01*
X144242720Y-71269358D02*
X144242720Y-70752202D01*
X140348900Y-64281818D02*
X140348900Y-63764662D01*
X141768900Y-64281818D02*
X141768900Y-63764662D01*
X110939078Y-41009500D02*
X110421922Y-41009500D01*
X110939078Y-42429500D02*
X110421922Y-42429500D01*
X110939078Y-44652000D02*
X110421922Y-44652000D01*
X110939078Y-43232000D02*
X110421922Y-43232000D01*
X111166980Y-50822358D02*
X111166980Y-50305202D01*
X109746980Y-50822358D02*
X109746980Y-50305202D01*
X111164440Y-46871122D02*
X111164440Y-47388278D01*
X109744440Y-46871122D02*
X109744440Y-47388278D01*
X119609800Y-38345878D02*
X119609800Y-37828722D01*
X121029800Y-38345878D02*
X121029800Y-37828722D01*
X137532040Y-57978542D02*
X137532040Y-58495698D01*
X138952040Y-57978542D02*
X138952040Y-58495698D01*
X139889160Y-40812218D02*
X139889160Y-40295062D01*
X141309160Y-40812218D02*
X141309160Y-40295062D01*
X119597938Y-45812640D02*
X119080782Y-45812640D01*
X119597938Y-47232640D02*
X119080782Y-47232640D01*
X123064340Y-57854082D02*
X123064340Y-58371238D01*
X121644340Y-57854082D02*
X121644340Y-58371238D01*
X118593800Y-52194962D02*
X118593800Y-52712118D01*
X120013800Y-52194962D02*
X120013800Y-52712118D01*
X118786980Y-38353498D02*
X118786980Y-37836342D01*
X117366980Y-38353498D02*
X117366980Y-37836342D01*
X121349840Y-42935658D02*
X121349840Y-42418502D01*
X119929840Y-42935658D02*
X119929840Y-42418502D01*
X141933860Y-40812218D02*
X141933860Y-40295062D01*
X143353860Y-40812218D02*
X143353860Y-40295062D01*
X136968300Y-57978542D02*
X136968300Y-58495698D01*
X135548300Y-57978542D02*
X135548300Y-58495698D01*
X106605000Y-37206422D02*
X106605000Y-37723578D01*
X108025000Y-37206422D02*
X108025000Y-37723578D01*
X113584222Y-54717880D02*
X114101378Y-54717880D01*
X113584222Y-56137880D02*
X114101378Y-56137880D01*
D11*
X65778142Y-54332142D02*
X65730523Y-54379761D01*
X65587666Y-54427380D01*
X65492428Y-54427380D01*
X65349571Y-54379761D01*
X65254333Y-54284523D01*
X65206714Y-54189285D01*
X65159095Y-53998809D01*
X65159095Y-53855952D01*
X65206714Y-53665476D01*
X65254333Y-53570238D01*
X65349571Y-53475000D01*
X65492428Y-53427380D01*
X65587666Y-53427380D01*
X65730523Y-53475000D01*
X65778142Y-53522619D01*
X66111476Y-53427380D02*
X66730523Y-53427380D01*
X66397190Y-53808333D01*
X66540047Y-53808333D01*
X66635285Y-53855952D01*
X66682904Y-53903571D01*
X66730523Y-53998809D01*
X66730523Y-54236904D01*
X66682904Y-54332142D01*
X66635285Y-54379761D01*
X66540047Y-54427380D01*
X66254333Y-54427380D01*
X66159095Y-54379761D01*
X66111476Y-54332142D01*
X67301952Y-53855952D02*
X67206714Y-53808333D01*
X67159095Y-53760714D01*
X67111476Y-53665476D01*
X67111476Y-53617857D01*
X67159095Y-53522619D01*
X67206714Y-53475000D01*
X67301952Y-53427380D01*
X67492428Y-53427380D01*
X67587666Y-53475000D01*
X67635285Y-53522619D01*
X67682904Y-53617857D01*
X67682904Y-53665476D01*
X67635285Y-53760714D01*
X67587666Y-53808333D01*
X67492428Y-53855952D01*
X67301952Y-53855952D01*
X67206714Y-53903571D01*
X67159095Y-53951190D01*
X67111476Y-54046428D01*
X67111476Y-54236904D01*
X67159095Y-54332142D01*
X67206714Y-54379761D01*
X67301952Y-54427380D01*
X67492428Y-54427380D01*
X67587666Y-54379761D01*
X67635285Y-54332142D01*
X67682904Y-54236904D01*
X67682904Y-54046428D01*
X67635285Y-53951190D01*
X67587666Y-53903571D01*
X67492428Y-53855952D01*
X63079333Y-54300380D02*
X62603142Y-54300380D01*
X62603142Y-53300380D01*
X63936476Y-54300380D02*
X63365047Y-54300380D01*
X63650761Y-54300380D02*
X63650761Y-53300380D01*
X63555523Y-53443238D01*
X63460285Y-53538476D01*
X63365047Y-53586095D01*
X71193066Y-73477780D02*
X71193066Y-74192066D01*
X71145447Y-74334923D01*
X71050209Y-74430161D01*
X70907352Y-74477780D01*
X70812114Y-74477780D01*
X71812114Y-73906352D02*
X71716876Y-73858733D01*
X71669257Y-73811114D01*
X71621638Y-73715876D01*
X71621638Y-73668257D01*
X71669257Y-73573019D01*
X71716876Y-73525400D01*
X71812114Y-73477780D01*
X72002590Y-73477780D01*
X72097828Y-73525400D01*
X72145447Y-73573019D01*
X72193066Y-73668257D01*
X72193066Y-73715876D01*
X72145447Y-73811114D01*
X72097828Y-73858733D01*
X72002590Y-73906352D01*
X71812114Y-73906352D01*
X71716876Y-73953971D01*
X71669257Y-74001590D01*
X71621638Y-74096828D01*
X71621638Y-74287304D01*
X71669257Y-74382542D01*
X71716876Y-74430161D01*
X71812114Y-74477780D01*
X72002590Y-74477780D01*
X72097828Y-74430161D01*
X72145447Y-74382542D01*
X72193066Y-74287304D01*
X72193066Y-74096828D01*
X72145447Y-74001590D01*
X72097828Y-73953971D01*
X72002590Y-73906352D01*
X66519466Y-35850580D02*
X66519466Y-36564866D01*
X66471847Y-36707723D01*
X66376609Y-36802961D01*
X66233752Y-36850580D01*
X66138514Y-36850580D01*
X67471847Y-35850580D02*
X66995657Y-35850580D01*
X66948038Y-36326771D01*
X66995657Y-36279152D01*
X67090895Y-36231533D01*
X67328990Y-36231533D01*
X67424228Y-36279152D01*
X67471847Y-36326771D01*
X67519466Y-36422009D01*
X67519466Y-36660104D01*
X67471847Y-36755342D01*
X67424228Y-36802961D01*
X67328990Y-36850580D01*
X67090895Y-36850580D01*
X66995657Y-36802961D01*
X66948038Y-36755342D01*
X125944380Y-65277904D02*
X126753904Y-65277904D01*
X126849142Y-65230285D01*
X126896761Y-65182666D01*
X126944380Y-65087428D01*
X126944380Y-64896952D01*
X126896761Y-64801714D01*
X126849142Y-64754095D01*
X126753904Y-64706476D01*
X125944380Y-64706476D01*
X125944380Y-63754095D02*
X125944380Y-64230285D01*
X126420571Y-64277904D01*
X126372952Y-64230285D01*
X126325333Y-64135047D01*
X126325333Y-63896952D01*
X126372952Y-63801714D01*
X126420571Y-63754095D01*
X126515809Y-63706476D01*
X126753904Y-63706476D01*
X126849142Y-63754095D01*
X126896761Y-63801714D01*
X126944380Y-63896952D01*
X126944380Y-64135047D01*
X126896761Y-64230285D01*
X126849142Y-64277904D01*
X132761740Y-60124340D02*
X132999836Y-60124340D01*
X132904598Y-60362435D02*
X132999836Y-60124340D01*
X132904598Y-59886244D01*
X133190312Y-60267197D02*
X132999836Y-60124340D01*
X133190312Y-59981482D01*
X150058286Y-81882881D02*
X150201143Y-81930500D01*
X150439239Y-81930500D01*
X150534477Y-81882881D01*
X150582096Y-81835262D01*
X150629715Y-81740024D01*
X150629715Y-81644786D01*
X150582096Y-81549548D01*
X150534477Y-81501929D01*
X150439239Y-81454310D01*
X150248762Y-81406691D01*
X150153524Y-81359072D01*
X150105905Y-81311453D01*
X150058286Y-81216215D01*
X150058286Y-81120977D01*
X150105905Y-81025739D01*
X150153524Y-80978120D01*
X150248762Y-80930500D01*
X150486858Y-80930500D01*
X150629715Y-80978120D01*
X150963048Y-80930500D02*
X151201143Y-81930500D01*
X151391620Y-81216215D01*
X151582096Y-81930500D01*
X151820191Y-80930500D01*
X152724953Y-81930500D02*
X152153524Y-81930500D01*
X152439239Y-81930500D02*
X152439239Y-80930500D01*
X152344000Y-81073358D01*
X152248762Y-81168596D01*
X152153524Y-81216215D01*
X109410666Y-29614761D02*
X109553523Y-29662380D01*
X109791619Y-29662380D01*
X109886857Y-29614761D01*
X109934476Y-29567142D01*
X109982095Y-29471904D01*
X109982095Y-29376666D01*
X109934476Y-29281428D01*
X109886857Y-29233809D01*
X109791619Y-29186190D01*
X109601142Y-29138571D01*
X109505904Y-29090952D01*
X109458285Y-29043333D01*
X109410666Y-28948095D01*
X109410666Y-28852857D01*
X109458285Y-28757619D01*
X109505904Y-28710000D01*
X109601142Y-28662380D01*
X109839238Y-28662380D01*
X109982095Y-28710000D01*
X110315428Y-28662380D02*
X110553523Y-29662380D01*
X110744000Y-28948095D01*
X110934476Y-29662380D01*
X111172571Y-28662380D01*
X111505904Y-28757619D02*
X111553523Y-28710000D01*
X111648761Y-28662380D01*
X111886857Y-28662380D01*
X111982095Y-28710000D01*
X112029714Y-28757619D01*
X112077333Y-28852857D01*
X112077333Y-28948095D01*
X112029714Y-29090952D01*
X111458285Y-29662380D01*
X112077333Y-29662380D01*
X112903736Y-60978800D02*
X112903736Y-61693086D01*
X112856117Y-61835943D01*
X112760879Y-61931181D01*
X112618021Y-61978800D01*
X112522783Y-61978800D01*
X113903736Y-61978800D02*
X113332307Y-61978800D01*
X113618021Y-61978800D02*
X113618021Y-60978800D01*
X113522783Y-61121658D01*
X113427545Y-61216896D01*
X113332307Y-61264515D01*
X114760879Y-61312134D02*
X114760879Y-61978800D01*
X114522783Y-60931181D02*
X114284688Y-61645467D01*
X114903736Y-61645467D01*
X116495296Y-44217340D02*
X116495296Y-44931626D01*
X116447677Y-45074483D01*
X116352439Y-45169721D01*
X116209581Y-45217340D01*
X116114343Y-45217340D01*
X117495296Y-45217340D02*
X116923867Y-45217340D01*
X117209581Y-45217340D02*
X117209581Y-44217340D01*
X117114343Y-44360198D01*
X117019105Y-44455436D01*
X116923867Y-44503055D01*
X117876248Y-44312579D02*
X117923867Y-44264960D01*
X118019105Y-44217340D01*
X118257200Y-44217340D01*
X118352439Y-44264960D01*
X118400058Y-44312579D01*
X118447677Y-44407817D01*
X118447677Y-44503055D01*
X118400058Y-44645912D01*
X117828629Y-45217340D01*
X118447677Y-45217340D01*
X177720666Y-29678380D02*
X177720666Y-30392666D01*
X177673047Y-30535523D01*
X177577809Y-30630761D01*
X177434952Y-30678380D01*
X177339714Y-30678380D01*
X178101619Y-29678380D02*
X178768285Y-29678380D01*
X178339714Y-30678380D01*
X181657666Y-79716380D02*
X181657666Y-80430666D01*
X181610047Y-80573523D01*
X181514809Y-80668761D01*
X181371952Y-80716380D01*
X181276714Y-80716380D01*
X182086238Y-79811619D02*
X182133857Y-79764000D01*
X182229095Y-79716380D01*
X182467190Y-79716380D01*
X182562428Y-79764000D01*
X182610047Y-79811619D01*
X182657666Y-79906857D01*
X182657666Y-80002095D01*
X182610047Y-80144952D01*
X182038619Y-80716380D01*
X182657666Y-80716380D01*
X164512666Y-29678380D02*
X164512666Y-30392666D01*
X164465047Y-30535523D01*
X164369809Y-30630761D01*
X164226952Y-30678380D01*
X164131714Y-30678380D01*
X165512666Y-30678380D02*
X164941238Y-30678380D01*
X165226952Y-30678380D02*
X165226952Y-29678380D01*
X165131714Y-29821238D01*
X165036476Y-29916476D01*
X164941238Y-29964095D01*
X64109695Y-68794380D02*
X64109695Y-69603904D01*
X64157314Y-69699142D01*
X64204933Y-69746761D01*
X64300171Y-69794380D01*
X64490647Y-69794380D01*
X64585885Y-69746761D01*
X64633504Y-69699142D01*
X64681123Y-69603904D01*
X64681123Y-68794380D01*
X65585885Y-68794380D02*
X65395409Y-68794380D01*
X65300171Y-68842000D01*
X65252552Y-68889619D01*
X65157314Y-69032476D01*
X65109695Y-69222952D01*
X65109695Y-69603904D01*
X65157314Y-69699142D01*
X65204933Y-69746761D01*
X65300171Y-69794380D01*
X65490647Y-69794380D01*
X65585885Y-69746761D01*
X65633504Y-69699142D01*
X65681123Y-69603904D01*
X65681123Y-69365809D01*
X65633504Y-69270571D01*
X65585885Y-69222952D01*
X65490647Y-69175333D01*
X65300171Y-69175333D01*
X65204933Y-69222952D01*
X65157314Y-69270571D01*
X65109695Y-69365809D01*
X71170562Y-63626002D02*
X71122943Y-63673621D01*
X70980086Y-63721240D01*
X70884848Y-63721240D01*
X70741991Y-63673621D01*
X70646753Y-63578383D01*
X70599134Y-63483145D01*
X70551515Y-63292669D01*
X70551515Y-63149812D01*
X70599134Y-62959336D01*
X70646753Y-62864098D01*
X70741991Y-62768860D01*
X70884848Y-62721240D01*
X70980086Y-62721240D01*
X71122943Y-62768860D01*
X71170562Y-62816479D01*
X71503896Y-62721240D02*
X72122943Y-62721240D01*
X71789610Y-63102193D01*
X71932467Y-63102193D01*
X72027705Y-63149812D01*
X72075324Y-63197431D01*
X72122943Y-63292669D01*
X72122943Y-63530764D01*
X72075324Y-63626002D01*
X72027705Y-63673621D01*
X71932467Y-63721240D01*
X71646753Y-63721240D01*
X71551515Y-63673621D01*
X71503896Y-63626002D01*
X72741991Y-62721240D02*
X72837229Y-62721240D01*
X72932467Y-62768860D01*
X72980086Y-62816479D01*
X73027705Y-62911717D01*
X73075324Y-63102193D01*
X73075324Y-63340288D01*
X73027705Y-63530764D01*
X72980086Y-63626002D01*
X72932467Y-63673621D01*
X72837229Y-63721240D01*
X72741991Y-63721240D01*
X72646753Y-63673621D01*
X72599134Y-63626002D01*
X72551515Y-63530764D01*
X72503896Y-63340288D01*
X72503896Y-63102193D01*
X72551515Y-62911717D01*
X72599134Y-62816479D01*
X72646753Y-62768860D01*
X72741991Y-62721240D01*
X70141102Y-70185517D02*
X70188721Y-70233136D01*
X70236340Y-70375993D01*
X70236340Y-70471231D01*
X70188721Y-70614088D01*
X70093483Y-70709326D01*
X69998245Y-70756945D01*
X69807769Y-70804564D01*
X69664912Y-70804564D01*
X69474436Y-70756945D01*
X69379198Y-70709326D01*
X69283960Y-70614088D01*
X69236340Y-70471231D01*
X69236340Y-70375993D01*
X69283960Y-70233136D01*
X69331579Y-70185517D01*
X69331579Y-69804564D02*
X69283960Y-69756945D01*
X69236340Y-69661707D01*
X69236340Y-69423612D01*
X69283960Y-69328374D01*
X69331579Y-69280755D01*
X69426817Y-69233136D01*
X69522055Y-69233136D01*
X69664912Y-69280755D01*
X70236340Y-69852183D01*
X70236340Y-69233136D01*
X70236340Y-68756945D02*
X70236340Y-68566469D01*
X70188721Y-68471231D01*
X70141102Y-68423612D01*
X69998245Y-68328374D01*
X69807769Y-68280755D01*
X69426817Y-68280755D01*
X69331579Y-68328374D01*
X69283960Y-68375993D01*
X69236340Y-68471231D01*
X69236340Y-68661707D01*
X69283960Y-68756945D01*
X69331579Y-68804564D01*
X69426817Y-68852183D01*
X69664912Y-68852183D01*
X69760150Y-68804564D01*
X69807769Y-68756945D01*
X69855388Y-68661707D01*
X69855388Y-68471231D01*
X69807769Y-68375993D01*
X69760150Y-68328374D01*
X69664912Y-68280755D01*
X193367920Y-55649097D02*
X192891730Y-55982430D01*
X193367920Y-56220525D02*
X192367920Y-56220525D01*
X192367920Y-55839573D01*
X192415540Y-55744335D01*
X192463159Y-55696716D01*
X192558397Y-55649097D01*
X192701254Y-55649097D01*
X192796492Y-55696716D01*
X192844111Y-55744335D01*
X192891730Y-55839573D01*
X192891730Y-56220525D01*
X193367920Y-54696716D02*
X193367920Y-55268144D01*
X193367920Y-54982430D02*
X192367920Y-54982430D01*
X192510778Y-55077668D01*
X192606016Y-55172906D01*
X192653635Y-55268144D01*
X192367920Y-54077668D02*
X192367920Y-53982430D01*
X192415540Y-53887192D01*
X192463159Y-53839573D01*
X192558397Y-53791954D01*
X192748873Y-53744335D01*
X192986968Y-53744335D01*
X193177444Y-53791954D01*
X193272682Y-53839573D01*
X193320301Y-53887192D01*
X193367920Y-53982430D01*
X193367920Y-54077668D01*
X193320301Y-54172906D01*
X193272682Y-54220525D01*
X193177444Y-54268144D01*
X192986968Y-54315763D01*
X192748873Y-54315763D01*
X192558397Y-54268144D01*
X192463159Y-54220525D01*
X192415540Y-54172906D01*
X192367920Y-54077668D01*
X68159333Y-50490380D02*
X67826000Y-50014190D01*
X67587904Y-50490380D02*
X67587904Y-49490380D01*
X67968857Y-49490380D01*
X68064095Y-49538000D01*
X68111714Y-49585619D01*
X68159333Y-49680857D01*
X68159333Y-49823714D01*
X68111714Y-49918952D01*
X68064095Y-49966571D01*
X67968857Y-50014190D01*
X67587904Y-50014190D01*
X68635523Y-50490380D02*
X68826000Y-50490380D01*
X68921238Y-50442761D01*
X68968857Y-50395142D01*
X69064095Y-50252285D01*
X69111714Y-50061809D01*
X69111714Y-49680857D01*
X69064095Y-49585619D01*
X69016476Y-49538000D01*
X68921238Y-49490380D01*
X68730761Y-49490380D01*
X68635523Y-49538000D01*
X68587904Y-49585619D01*
X68540285Y-49680857D01*
X68540285Y-49918952D01*
X68587904Y-50014190D01*
X68635523Y-50061809D01*
X68730761Y-50109428D01*
X68921238Y-50109428D01*
X69016476Y-50061809D01*
X69064095Y-50014190D01*
X69111714Y-49918952D01*
X154698960Y-71324766D02*
X154222770Y-71658100D01*
X154698960Y-71896195D02*
X153698960Y-71896195D01*
X153698960Y-71515242D01*
X153746580Y-71420004D01*
X153794199Y-71372385D01*
X153889437Y-71324766D01*
X154032294Y-71324766D01*
X154127532Y-71372385D01*
X154175151Y-71420004D01*
X154222770Y-71515242D01*
X154222770Y-71896195D01*
X154127532Y-70753338D02*
X154079913Y-70848576D01*
X154032294Y-70896195D01*
X153937056Y-70943814D01*
X153889437Y-70943814D01*
X153794199Y-70896195D01*
X153746580Y-70848576D01*
X153698960Y-70753338D01*
X153698960Y-70562861D01*
X153746580Y-70467623D01*
X153794199Y-70420004D01*
X153889437Y-70372385D01*
X153937056Y-70372385D01*
X154032294Y-70420004D01*
X154079913Y-70467623D01*
X154127532Y-70562861D01*
X154127532Y-70753338D01*
X154175151Y-70848576D01*
X154222770Y-70896195D01*
X154318008Y-70943814D01*
X154508484Y-70943814D01*
X154603722Y-70896195D01*
X154651341Y-70848576D01*
X154698960Y-70753338D01*
X154698960Y-70562861D01*
X154651341Y-70467623D01*
X154603722Y-70420004D01*
X154508484Y-70372385D01*
X154318008Y-70372385D01*
X154222770Y-70420004D01*
X154175151Y-70467623D01*
X154127532Y-70562861D01*
X133775153Y-66484760D02*
X133441820Y-66008570D01*
X133203724Y-66484760D02*
X133203724Y-65484760D01*
X133584677Y-65484760D01*
X133679915Y-65532380D01*
X133727534Y-65579999D01*
X133775153Y-65675237D01*
X133775153Y-65818094D01*
X133727534Y-65913332D01*
X133679915Y-65960951D01*
X133584677Y-66008570D01*
X133203724Y-66008570D01*
X134632296Y-65818094D02*
X134632296Y-66484760D01*
X134394200Y-65437141D02*
X134156105Y-66151427D01*
X134775153Y-66151427D01*
X133757373Y-64607700D02*
X133424040Y-64131510D01*
X133185944Y-64607700D02*
X133185944Y-63607700D01*
X133566897Y-63607700D01*
X133662135Y-63655320D01*
X133709754Y-63702939D01*
X133757373Y-63798177D01*
X133757373Y-63941034D01*
X133709754Y-64036272D01*
X133662135Y-64083891D01*
X133566897Y-64131510D01*
X133185944Y-64131510D01*
X134090706Y-63607700D02*
X134709754Y-63607700D01*
X134376420Y-63988653D01*
X134519278Y-63988653D01*
X134614516Y-64036272D01*
X134662135Y-64083891D01*
X134709754Y-64179129D01*
X134709754Y-64417224D01*
X134662135Y-64512462D01*
X134614516Y-64560081D01*
X134519278Y-64607700D01*
X134233563Y-64607700D01*
X134138325Y-64560081D01*
X134090706Y-64512462D01*
X96956666Y-42759380D02*
X96956666Y-43473666D01*
X96909047Y-43616523D01*
X96813809Y-43711761D01*
X96670952Y-43759380D01*
X96575714Y-43759380D01*
X97432857Y-43759380D02*
X97432857Y-42759380D01*
X97813809Y-42759380D01*
X97909047Y-42807000D01*
X97956666Y-42854619D01*
X98004285Y-42949857D01*
X98004285Y-43092714D01*
X97956666Y-43187952D01*
X97909047Y-43235571D01*
X97813809Y-43283190D01*
X97432857Y-43283190D01*
X98861428Y-43092714D02*
X98861428Y-43759380D01*
X98623333Y-42711761D02*
X98385238Y-43426047D01*
X99004285Y-43426047D01*
X158068686Y-61207400D02*
X158068686Y-61921686D01*
X158021067Y-62064543D01*
X157925829Y-62159781D01*
X157782972Y-62207400D01*
X157687734Y-62207400D01*
X158449639Y-61207400D02*
X159068686Y-61207400D01*
X158735353Y-61588353D01*
X158878210Y-61588353D01*
X158973448Y-61635972D01*
X159021067Y-61683591D01*
X159068686Y-61778829D01*
X159068686Y-62016924D01*
X159021067Y-62112162D01*
X158973448Y-62159781D01*
X158878210Y-62207400D01*
X158592496Y-62207400D01*
X158497258Y-62159781D01*
X158449639Y-62112162D01*
X98837904Y-49591980D02*
X98837904Y-50401504D01*
X98885523Y-50496742D01*
X98933142Y-50544361D01*
X99028380Y-50591980D01*
X99218857Y-50591980D01*
X99314095Y-50544361D01*
X99361714Y-50496742D01*
X99409333Y-50401504D01*
X99409333Y-49591980D01*
X100409333Y-50591980D02*
X99837904Y-50591980D01*
X100123619Y-50591980D02*
X100123619Y-49591980D01*
X100028380Y-49734838D01*
X99933142Y-49830076D01*
X99837904Y-49877695D01*
X100742666Y-49591980D02*
X101361714Y-49591980D01*
X101028380Y-49972933D01*
X101171238Y-49972933D01*
X101266476Y-50020552D01*
X101314095Y-50068171D01*
X101361714Y-50163409D01*
X101361714Y-50401504D01*
X101314095Y-50496742D01*
X101266476Y-50544361D01*
X101171238Y-50591980D01*
X100885523Y-50591980D01*
X100790285Y-50544361D01*
X100742666Y-50496742D01*
X168084595Y-47504100D02*
X168084595Y-48313624D01*
X168132214Y-48408862D01*
X168179833Y-48456481D01*
X168275071Y-48504100D01*
X168465547Y-48504100D01*
X168560785Y-48456481D01*
X168608404Y-48408862D01*
X168656023Y-48313624D01*
X168656023Y-47504100D01*
X169275071Y-47932672D02*
X169179833Y-47885053D01*
X169132214Y-47837434D01*
X169084595Y-47742196D01*
X169084595Y-47694577D01*
X169132214Y-47599339D01*
X169179833Y-47551720D01*
X169275071Y-47504100D01*
X169465547Y-47504100D01*
X169560785Y-47551720D01*
X169608404Y-47599339D01*
X169656023Y-47694577D01*
X169656023Y-47742196D01*
X169608404Y-47837434D01*
X169560785Y-47885053D01*
X169465547Y-47932672D01*
X169275071Y-47932672D01*
X169179833Y-47980291D01*
X169132214Y-48027910D01*
X169084595Y-48123148D01*
X169084595Y-48313624D01*
X169132214Y-48408862D01*
X169179833Y-48456481D01*
X169275071Y-48504100D01*
X169465547Y-48504100D01*
X169560785Y-48456481D01*
X169608404Y-48408862D01*
X169656023Y-48313624D01*
X169656023Y-48123148D01*
X169608404Y-48027910D01*
X169560785Y-47980291D01*
X169465547Y-47932672D01*
X99168104Y-54189380D02*
X99168104Y-54998904D01*
X99215723Y-55094142D01*
X99263342Y-55141761D01*
X99358580Y-55189380D01*
X99549057Y-55189380D01*
X99644295Y-55141761D01*
X99691914Y-55094142D01*
X99739533Y-54998904D01*
X99739533Y-54189380D01*
X100739533Y-55189380D02*
X100168104Y-55189380D01*
X100453819Y-55189380D02*
X100453819Y-54189380D01*
X100358580Y-54332238D01*
X100263342Y-54427476D01*
X100168104Y-54475095D01*
X101120485Y-54284619D02*
X101168104Y-54237000D01*
X101263342Y-54189380D01*
X101501438Y-54189380D01*
X101596676Y-54237000D01*
X101644295Y-54284619D01*
X101691914Y-54379857D01*
X101691914Y-54475095D01*
X101644295Y-54617952D01*
X101072866Y-55189380D01*
X101691914Y-55189380D01*
X182773580Y-35764695D02*
X181773580Y-35764695D01*
X181773580Y-35526600D01*
X181821200Y-35383742D01*
X181916438Y-35288504D01*
X182011676Y-35240885D01*
X182202152Y-35193266D01*
X182345009Y-35193266D01*
X182535485Y-35240885D01*
X182630723Y-35288504D01*
X182725961Y-35383742D01*
X182773580Y-35526600D01*
X182773580Y-35764695D01*
X181773580Y-34288504D02*
X181773580Y-34764695D01*
X182249771Y-34812314D01*
X182202152Y-34764695D01*
X182154533Y-34669457D01*
X182154533Y-34431361D01*
X182202152Y-34336123D01*
X182249771Y-34288504D01*
X182345009Y-34240885D01*
X182583104Y-34240885D01*
X182678342Y-34288504D01*
X182725961Y-34336123D01*
X182773580Y-34431361D01*
X182773580Y-34669457D01*
X182725961Y-34764695D01*
X182678342Y-34812314D01*
X85950062Y-53159897D02*
X85997681Y-53207516D01*
X86045300Y-53350373D01*
X86045300Y-53445611D01*
X85997681Y-53588468D01*
X85902443Y-53683706D01*
X85807205Y-53731325D01*
X85616729Y-53778944D01*
X85473872Y-53778944D01*
X85283396Y-53731325D01*
X85188158Y-53683706D01*
X85092920Y-53588468D01*
X85045300Y-53445611D01*
X85045300Y-53350373D01*
X85092920Y-53207516D01*
X85140539Y-53159897D01*
X85378634Y-52302754D02*
X86045300Y-52302754D01*
X84997681Y-52540849D02*
X85711967Y-52778944D01*
X85711967Y-52159897D01*
X85045300Y-51588468D02*
X85045300Y-51493230D01*
X85092920Y-51397992D01*
X85140539Y-51350373D01*
X85235777Y-51302754D01*
X85426253Y-51255135D01*
X85664348Y-51255135D01*
X85854824Y-51302754D01*
X85950062Y-51350373D01*
X85997681Y-51397992D01*
X86045300Y-51493230D01*
X86045300Y-51588468D01*
X85997681Y-51683706D01*
X85950062Y-51731325D01*
X85854824Y-51778944D01*
X85664348Y-51826563D01*
X85426253Y-51826563D01*
X85235777Y-51778944D01*
X85140539Y-51731325D01*
X85092920Y-51683706D01*
X85045300Y-51588468D01*
X80491602Y-53030357D02*
X80539221Y-53077976D01*
X80586840Y-53220833D01*
X80586840Y-53316071D01*
X80539221Y-53458928D01*
X80443983Y-53554166D01*
X80348745Y-53601785D01*
X80158269Y-53649404D01*
X80015412Y-53649404D01*
X79824936Y-53601785D01*
X79729698Y-53554166D01*
X79634460Y-53458928D01*
X79586840Y-53316071D01*
X79586840Y-53220833D01*
X79634460Y-53077976D01*
X79682079Y-53030357D01*
X79586840Y-52697023D02*
X79586840Y-52077976D01*
X79967793Y-52411309D01*
X79967793Y-52268452D01*
X80015412Y-52173214D01*
X80063031Y-52125595D01*
X80158269Y-52077976D01*
X80396364Y-52077976D01*
X80491602Y-52125595D01*
X80539221Y-52173214D01*
X80586840Y-52268452D01*
X80586840Y-52554166D01*
X80539221Y-52649404D01*
X80491602Y-52697023D01*
X80586840Y-51601785D02*
X80586840Y-51411309D01*
X80539221Y-51316071D01*
X80491602Y-51268452D01*
X80348745Y-51173214D01*
X80158269Y-51125595D01*
X79777317Y-51125595D01*
X79682079Y-51173214D01*
X79634460Y-51220833D01*
X79586840Y-51316071D01*
X79586840Y-51506547D01*
X79634460Y-51601785D01*
X79682079Y-51649404D01*
X79777317Y-51697023D01*
X80015412Y-51697023D01*
X80110650Y-51649404D01*
X80158269Y-51601785D01*
X80205888Y-51506547D01*
X80205888Y-51316071D01*
X80158269Y-51220833D01*
X80110650Y-51173214D01*
X80015412Y-51125595D01*
X88996354Y-56571140D02*
X88996354Y-55571140D01*
X89234449Y-55571140D01*
X89377306Y-55618760D01*
X89472544Y-55713998D01*
X89520163Y-55809236D01*
X89567782Y-55999712D01*
X89567782Y-56142569D01*
X89520163Y-56333045D01*
X89472544Y-56428283D01*
X89377306Y-56523521D01*
X89234449Y-56571140D01*
X88996354Y-56571140D01*
X90520163Y-56571140D02*
X89948735Y-56571140D01*
X90234449Y-56571140D02*
X90234449Y-55571140D01*
X90139211Y-55713998D01*
X90043973Y-55809236D01*
X89948735Y-55856855D01*
X91472544Y-56571140D02*
X90901116Y-56571140D01*
X91186830Y-56571140D02*
X91186830Y-55571140D01*
X91091592Y-55713998D01*
X90996354Y-55809236D01*
X90901116Y-55856855D01*
X89153834Y-59700420D02*
X89153834Y-58700420D01*
X89391929Y-58700420D01*
X89534786Y-58748040D01*
X89630024Y-58843278D01*
X89677643Y-58938516D01*
X89725262Y-59128992D01*
X89725262Y-59271849D01*
X89677643Y-59462325D01*
X89630024Y-59557563D01*
X89534786Y-59652801D01*
X89391929Y-59700420D01*
X89153834Y-59700420D01*
X90677643Y-59700420D02*
X90106215Y-59700420D01*
X90391929Y-59700420D02*
X90391929Y-58700420D01*
X90296691Y-58843278D01*
X90201453Y-58938516D01*
X90106215Y-58986135D01*
X91058596Y-58795659D02*
X91106215Y-58748040D01*
X91201453Y-58700420D01*
X91439548Y-58700420D01*
X91534786Y-58748040D01*
X91582405Y-58795659D01*
X91630024Y-58890897D01*
X91630024Y-58986135D01*
X91582405Y-59128992D01*
X91010977Y-59700420D01*
X91630024Y-59700420D01*
X67270380Y-59150095D02*
X68079904Y-59150095D01*
X68175142Y-59102476D01*
X68222761Y-59054857D01*
X68270380Y-58959619D01*
X68270380Y-58769142D01*
X68222761Y-58673904D01*
X68175142Y-58626285D01*
X68079904Y-58578666D01*
X67270380Y-58578666D01*
X68270380Y-57578666D02*
X68270380Y-58150095D01*
X68270380Y-57864380D02*
X67270380Y-57864380D01*
X67413238Y-57959619D01*
X67508476Y-58054857D01*
X67556095Y-58150095D01*
X68270380Y-56626285D02*
X68270380Y-57197714D01*
X68270380Y-56912000D02*
X67270380Y-56912000D01*
X67413238Y-57007238D01*
X67508476Y-57102476D01*
X67556095Y-57197714D01*
X74958415Y-52932080D02*
X75529843Y-52932080D01*
X75244129Y-53932080D02*
X75244129Y-52932080D01*
X76434605Y-53932080D02*
X76101272Y-53455890D01*
X75863177Y-53932080D02*
X75863177Y-52932080D01*
X76244129Y-52932080D01*
X76339367Y-52979700D01*
X76386986Y-53027319D01*
X76434605Y-53122557D01*
X76434605Y-53265414D01*
X76386986Y-53360652D01*
X76339367Y-53408271D01*
X76244129Y-53455890D01*
X75863177Y-53455890D01*
X77386986Y-53932080D02*
X76815558Y-53932080D01*
X77101272Y-53932080D02*
X77101272Y-52932080D01*
X77006034Y-53074938D01*
X76910796Y-53170176D01*
X76815558Y-53217795D01*
X93122500Y-47419164D02*
X93932024Y-47419164D01*
X94027262Y-47371545D01*
X94074881Y-47323926D01*
X94122500Y-47228688D01*
X94122500Y-47038212D01*
X94074881Y-46942974D01*
X94027262Y-46895355D01*
X93932024Y-46847736D01*
X93122500Y-46847736D01*
X93455834Y-45942974D02*
X94122500Y-45942974D01*
X93074881Y-46181069D02*
X93789167Y-46419164D01*
X93789167Y-45800117D01*
X92261962Y-49710577D02*
X92309581Y-49758196D01*
X92357200Y-49901053D01*
X92357200Y-49996291D01*
X92309581Y-50139148D01*
X92214343Y-50234386D01*
X92119105Y-50282005D01*
X91928629Y-50329624D01*
X91785772Y-50329624D01*
X91595296Y-50282005D01*
X91500058Y-50234386D01*
X91404820Y-50139148D01*
X91357200Y-49996291D01*
X91357200Y-49901053D01*
X91404820Y-49758196D01*
X91452439Y-49710577D01*
X91357200Y-49377243D02*
X91357200Y-48758196D01*
X91738153Y-49091529D01*
X91738153Y-48948672D01*
X91785772Y-48853434D01*
X91833391Y-48805815D01*
X91928629Y-48758196D01*
X92166724Y-48758196D01*
X92261962Y-48805815D01*
X92309581Y-48853434D01*
X92357200Y-48948672D01*
X92357200Y-49234386D01*
X92309581Y-49329624D01*
X92261962Y-49377243D01*
X91357200Y-48424862D02*
X91357200Y-47758196D01*
X92357200Y-48186767D01*
X91427062Y-62993542D02*
X91379443Y-63041161D01*
X91236586Y-63088780D01*
X91141348Y-63088780D01*
X90998491Y-63041161D01*
X90903253Y-62945923D01*
X90855634Y-62850685D01*
X90808015Y-62660209D01*
X90808015Y-62517352D01*
X90855634Y-62326876D01*
X90903253Y-62231638D01*
X90998491Y-62136400D01*
X91141348Y-62088780D01*
X91236586Y-62088780D01*
X91379443Y-62136400D01*
X91427062Y-62184019D01*
X91760396Y-62088780D02*
X92379443Y-62088780D01*
X92046110Y-62469733D01*
X92188967Y-62469733D01*
X92284205Y-62517352D01*
X92331824Y-62564971D01*
X92379443Y-62660209D01*
X92379443Y-62898304D01*
X92331824Y-62993542D01*
X92284205Y-63041161D01*
X92188967Y-63088780D01*
X91903253Y-63088780D01*
X91808015Y-63041161D01*
X91760396Y-62993542D01*
X93236586Y-62088780D02*
X93046110Y-62088780D01*
X92950872Y-62136400D01*
X92903253Y-62184019D01*
X92808015Y-62326876D01*
X92760396Y-62517352D01*
X92760396Y-62898304D01*
X92808015Y-62993542D01*
X92855634Y-63041161D01*
X92950872Y-63088780D01*
X93141348Y-63088780D01*
X93236586Y-63041161D01*
X93284205Y-62993542D01*
X93331824Y-62898304D01*
X93331824Y-62660209D01*
X93284205Y-62564971D01*
X93236586Y-62517352D01*
X93141348Y-62469733D01*
X92950872Y-62469733D01*
X92855634Y-62517352D01*
X92808015Y-62564971D01*
X92760396Y-62660209D01*
X92919300Y-55872284D02*
X93728824Y-55872284D01*
X93824062Y-55824665D01*
X93871681Y-55777046D01*
X93919300Y-55681808D01*
X93919300Y-55491332D01*
X93871681Y-55396094D01*
X93824062Y-55348475D01*
X93728824Y-55300856D01*
X92919300Y-55300856D01*
X92919300Y-54919903D02*
X92919300Y-54300856D01*
X93300253Y-54634189D01*
X93300253Y-54491332D01*
X93347872Y-54396094D01*
X93395491Y-54348475D01*
X93490729Y-54300856D01*
X93728824Y-54300856D01*
X93824062Y-54348475D01*
X93871681Y-54396094D01*
X93919300Y-54491332D01*
X93919300Y-54777046D01*
X93871681Y-54872284D01*
X93824062Y-54919903D01*
X94102180Y-44445085D02*
X93102180Y-44445085D01*
X93102180Y-44206990D01*
X93149800Y-44064133D01*
X93245038Y-43968895D01*
X93340276Y-43921276D01*
X93530752Y-43873657D01*
X93673609Y-43873657D01*
X93864085Y-43921276D01*
X93959323Y-43968895D01*
X94054561Y-44064133D01*
X94102180Y-44206990D01*
X94102180Y-44445085D01*
X94102180Y-42921276D02*
X94102180Y-43492704D01*
X94102180Y-43206990D02*
X93102180Y-43206990D01*
X93245038Y-43302228D01*
X93340276Y-43397466D01*
X93387895Y-43492704D01*
X93102180Y-42302228D02*
X93102180Y-42206990D01*
X93149800Y-42111752D01*
X93197419Y-42064133D01*
X93292657Y-42016514D01*
X93483133Y-41968895D01*
X93721228Y-41968895D01*
X93911704Y-42016514D01*
X94006942Y-42064133D01*
X94054561Y-42111752D01*
X94102180Y-42206990D01*
X94102180Y-42302228D01*
X94054561Y-42397466D01*
X94006942Y-42445085D01*
X93911704Y-42492704D01*
X93721228Y-42540323D01*
X93483133Y-42540323D01*
X93292657Y-42492704D01*
X93197419Y-42445085D01*
X93149800Y-42397466D01*
X93102180Y-42302228D01*
X111244142Y-38552380D02*
X110910809Y-38076190D01*
X110672714Y-38552380D02*
X110672714Y-37552380D01*
X111053666Y-37552380D01*
X111148904Y-37600000D01*
X111196523Y-37647619D01*
X111244142Y-37742857D01*
X111244142Y-37885714D01*
X111196523Y-37980952D01*
X111148904Y-38028571D01*
X111053666Y-38076190D01*
X110672714Y-38076190D01*
X112196523Y-38552380D02*
X111625095Y-38552380D01*
X111910809Y-38552380D02*
X111910809Y-37552380D01*
X111815571Y-37695238D01*
X111720333Y-37790476D01*
X111625095Y-37838095D01*
X113148904Y-38552380D02*
X112577476Y-38552380D01*
X112863190Y-38552380D02*
X112863190Y-37552380D01*
X112767952Y-37695238D01*
X112672714Y-37790476D01*
X112577476Y-37838095D01*
X60675780Y-51690495D02*
X59675780Y-51690495D01*
X59675780Y-51452400D01*
X59723400Y-51309542D01*
X59818638Y-51214304D01*
X59913876Y-51166685D01*
X60104352Y-51119066D01*
X60247209Y-51119066D01*
X60437685Y-51166685D01*
X60532923Y-51214304D01*
X60628161Y-51309542D01*
X60675780Y-51452400D01*
X60675780Y-51690495D01*
X59675780Y-50785733D02*
X59675780Y-50119066D01*
X60675780Y-50547638D01*
X193367920Y-52960495D02*
X192367920Y-52960495D01*
X192367920Y-52722400D01*
X192415540Y-52579542D01*
X192510778Y-52484304D01*
X192606016Y-52436685D01*
X192796492Y-52389066D01*
X192939349Y-52389066D01*
X193129825Y-52436685D01*
X193225063Y-52484304D01*
X193320301Y-52579542D01*
X193367920Y-52722400D01*
X193367920Y-52960495D01*
X192796492Y-51817638D02*
X192748873Y-51912876D01*
X192701254Y-51960495D01*
X192606016Y-52008114D01*
X192558397Y-52008114D01*
X192463159Y-51960495D01*
X192415540Y-51912876D01*
X192367920Y-51817638D01*
X192367920Y-51627161D01*
X192415540Y-51531923D01*
X192463159Y-51484304D01*
X192558397Y-51436685D01*
X192606016Y-51436685D01*
X192701254Y-51484304D01*
X192748873Y-51531923D01*
X192796492Y-51627161D01*
X192796492Y-51817638D01*
X192844111Y-51912876D01*
X192891730Y-51960495D01*
X192986968Y-52008114D01*
X193177444Y-52008114D01*
X193272682Y-51960495D01*
X193320301Y-51912876D01*
X193367920Y-51817638D01*
X193367920Y-51627161D01*
X193320301Y-51531923D01*
X193272682Y-51484304D01*
X193177444Y-51436685D01*
X192986968Y-51436685D01*
X192891730Y-51484304D01*
X192844111Y-51531923D01*
X192796492Y-51627161D01*
X106021926Y-39513260D02*
X106021926Y-40227546D01*
X105974307Y-40370403D01*
X105879069Y-40465641D01*
X105736212Y-40513260D01*
X105640974Y-40513260D01*
X106498117Y-40513260D02*
X106498117Y-39513260D01*
X106879069Y-39513260D01*
X106974307Y-39560880D01*
X107021926Y-39608499D01*
X107069545Y-39703737D01*
X107069545Y-39846594D01*
X107021926Y-39941832D01*
X106974307Y-39989451D01*
X106879069Y-40037070D01*
X106498117Y-40037070D01*
X108021926Y-40513260D02*
X107450498Y-40513260D01*
X107736212Y-40513260D02*
X107736212Y-39513260D01*
X107640974Y-39656118D01*
X107545736Y-39751356D01*
X107450498Y-39798975D01*
X180244380Y-73890095D02*
X179244380Y-73890095D01*
X179244380Y-73652000D01*
X179292000Y-73509142D01*
X179387238Y-73413904D01*
X179482476Y-73366285D01*
X179672952Y-73318666D01*
X179815809Y-73318666D01*
X180006285Y-73366285D01*
X180101523Y-73413904D01*
X180196761Y-73509142D01*
X180244380Y-73652000D01*
X180244380Y-73890095D01*
X179244380Y-72461523D02*
X179244380Y-72652000D01*
X179292000Y-72747238D01*
X179339619Y-72794857D01*
X179482476Y-72890095D01*
X179672952Y-72937714D01*
X180053904Y-72937714D01*
X180149142Y-72890095D01*
X180196761Y-72842476D01*
X180244380Y-72747238D01*
X180244380Y-72556761D01*
X180196761Y-72461523D01*
X180149142Y-72413904D01*
X180053904Y-72366285D01*
X179815809Y-72366285D01*
X179720571Y-72413904D01*
X179672952Y-72461523D01*
X179625333Y-72556761D01*
X179625333Y-72747238D01*
X179672952Y-72842476D01*
X179720571Y-72890095D01*
X179815809Y-72937714D01*
X168983920Y-36224435D02*
X167983920Y-36224435D01*
X167983920Y-35986340D01*
X168031540Y-35843482D01*
X168126778Y-35748244D01*
X168222016Y-35700625D01*
X168412492Y-35653006D01*
X168555349Y-35653006D01*
X168745825Y-35700625D01*
X168841063Y-35748244D01*
X168936301Y-35843482D01*
X168983920Y-35986340D01*
X168983920Y-36224435D01*
X168079159Y-35272054D02*
X168031540Y-35224435D01*
X167983920Y-35129197D01*
X167983920Y-34891101D01*
X168031540Y-34795863D01*
X168079159Y-34748244D01*
X168174397Y-34700625D01*
X168269635Y-34700625D01*
X168412492Y-34748244D01*
X168983920Y-35319673D01*
X168983920Y-34700625D01*
X73375780Y-43968895D02*
X72375780Y-43968895D01*
X72375780Y-43730800D01*
X72423400Y-43587942D01*
X72518638Y-43492704D01*
X72613876Y-43445085D01*
X72804352Y-43397466D01*
X72947209Y-43397466D01*
X73137685Y-43445085D01*
X73232923Y-43492704D01*
X73328161Y-43587942D01*
X73375780Y-43730800D01*
X73375780Y-43968895D01*
X73375780Y-42445085D02*
X73375780Y-43016514D01*
X73375780Y-42730800D02*
X72375780Y-42730800D01*
X72518638Y-42826038D01*
X72613876Y-42921276D01*
X72661495Y-43016514D01*
X167803533Y-41155880D02*
X167470200Y-40679690D01*
X167232104Y-41155880D02*
X167232104Y-40155880D01*
X167613057Y-40155880D01*
X167708295Y-40203500D01*
X167755914Y-40251119D01*
X167803533Y-40346357D01*
X167803533Y-40489214D01*
X167755914Y-40584452D01*
X167708295Y-40632071D01*
X167613057Y-40679690D01*
X167232104Y-40679690D01*
X168136866Y-40155880D02*
X168803533Y-40155880D01*
X168374961Y-41155880D01*
X179195196Y-36104580D02*
X179195196Y-36818866D01*
X179147577Y-36961723D01*
X179052339Y-37056961D01*
X178909481Y-37104580D01*
X178814243Y-37104580D01*
X180195196Y-37104580D02*
X179623767Y-37104580D01*
X179909481Y-37104580D02*
X179909481Y-36104580D01*
X179814243Y-36247438D01*
X179719005Y-36342676D01*
X179623767Y-36390295D01*
X181147577Y-37104580D02*
X180576148Y-37104580D01*
X180861862Y-37104580D02*
X180861862Y-36104580D01*
X180766624Y-36247438D01*
X180671386Y-36342676D01*
X180576148Y-36390295D01*
X160634086Y-34217360D02*
X160634086Y-34931646D01*
X160586467Y-35074503D01*
X160491229Y-35169741D01*
X160348372Y-35217360D01*
X160253134Y-35217360D01*
X161538848Y-34550694D02*
X161538848Y-35217360D01*
X161300753Y-34169741D02*
X161062658Y-34884027D01*
X161681705Y-34884027D01*
X180230875Y-42396160D02*
X180230875Y-43205684D01*
X180278494Y-43300922D01*
X180326113Y-43348541D01*
X180421351Y-43396160D01*
X180611827Y-43396160D01*
X180707065Y-43348541D01*
X180754684Y-43300922D01*
X180802303Y-43205684D01*
X180802303Y-42396160D01*
X181183256Y-42396160D02*
X181849922Y-42396160D01*
X181421351Y-43396160D01*
X162201955Y-36269680D02*
X162201955Y-37079204D01*
X162249574Y-37174442D01*
X162297193Y-37222061D01*
X162392431Y-37269680D01*
X162582907Y-37269680D01*
X162678145Y-37222061D01*
X162725764Y-37174442D01*
X162773383Y-37079204D01*
X162773383Y-36269680D01*
X163297193Y-37269680D02*
X163487669Y-37269680D01*
X163582907Y-37222061D01*
X163630526Y-37174442D01*
X163725764Y-37031585D01*
X163773383Y-36841109D01*
X163773383Y-36460157D01*
X163725764Y-36364919D01*
X163678145Y-36317300D01*
X163582907Y-36269680D01*
X163392431Y-36269680D01*
X163297193Y-36317300D01*
X163249574Y-36364919D01*
X163201955Y-36460157D01*
X163201955Y-36698252D01*
X163249574Y-36793490D01*
X163297193Y-36841109D01*
X163392431Y-36888728D01*
X163582907Y-36888728D01*
X163678145Y-36841109D01*
X163725764Y-36793490D01*
X163773383Y-36698252D01*
X178873304Y-60894980D02*
X178873304Y-61704504D01*
X178920923Y-61799742D01*
X178968542Y-61847361D01*
X179063780Y-61894980D01*
X179254257Y-61894980D01*
X179349495Y-61847361D01*
X179397114Y-61799742D01*
X179444733Y-61704504D01*
X179444733Y-60894980D01*
X180444733Y-61894980D02*
X179873304Y-61894980D01*
X180159019Y-61894980D02*
X180159019Y-60894980D01*
X180063780Y-61037838D01*
X179968542Y-61133076D01*
X179873304Y-61180695D01*
X181063780Y-60894980D02*
X181159019Y-60894980D01*
X181254257Y-60942600D01*
X181301876Y-60990219D01*
X181349495Y-61085457D01*
X181397114Y-61275933D01*
X181397114Y-61514028D01*
X181349495Y-61704504D01*
X181301876Y-61799742D01*
X181254257Y-61847361D01*
X181159019Y-61894980D01*
X181063780Y-61894980D01*
X180968542Y-61847361D01*
X180920923Y-61799742D01*
X180873304Y-61704504D01*
X180825685Y-61514028D01*
X180825685Y-61275933D01*
X180873304Y-61085457D01*
X180920923Y-60990219D01*
X180968542Y-60942600D01*
X181063780Y-60894980D01*
X173469062Y-61174902D02*
X173421443Y-61222521D01*
X173278586Y-61270140D01*
X173183348Y-61270140D01*
X173040491Y-61222521D01*
X172945253Y-61127283D01*
X172897634Y-61032045D01*
X172850015Y-60841569D01*
X172850015Y-60698712D01*
X172897634Y-60508236D01*
X172945253Y-60412998D01*
X173040491Y-60317760D01*
X173183348Y-60270140D01*
X173278586Y-60270140D01*
X173421443Y-60317760D01*
X173469062Y-60365379D01*
X173802396Y-60270140D02*
X174421443Y-60270140D01*
X174088110Y-60651093D01*
X174230967Y-60651093D01*
X174326205Y-60698712D01*
X174373824Y-60746331D01*
X174421443Y-60841569D01*
X174421443Y-61079664D01*
X174373824Y-61174902D01*
X174326205Y-61222521D01*
X174230967Y-61270140D01*
X173945253Y-61270140D01*
X173850015Y-61222521D01*
X173802396Y-61174902D01*
X175326205Y-60270140D02*
X174850015Y-60270140D01*
X174802396Y-60746331D01*
X174850015Y-60698712D01*
X174945253Y-60651093D01*
X175183348Y-60651093D01*
X175278586Y-60698712D01*
X175326205Y-60746331D01*
X175373824Y-60841569D01*
X175373824Y-61079664D01*
X175326205Y-61174902D01*
X175278586Y-61222521D01*
X175183348Y-61270140D01*
X174945253Y-61270140D01*
X174850015Y-61222521D01*
X174802396Y-61174902D01*
X161749502Y-61213002D02*
X161701883Y-61260621D01*
X161559026Y-61308240D01*
X161463788Y-61308240D01*
X161320931Y-61260621D01*
X161225693Y-61165383D01*
X161178074Y-61070145D01*
X161130455Y-60879669D01*
X161130455Y-60736812D01*
X161178074Y-60546336D01*
X161225693Y-60451098D01*
X161320931Y-60355860D01*
X161463788Y-60308240D01*
X161559026Y-60308240D01*
X161701883Y-60355860D01*
X161749502Y-60403479D01*
X162082836Y-60308240D02*
X162701883Y-60308240D01*
X162368550Y-60689193D01*
X162511407Y-60689193D01*
X162606645Y-60736812D01*
X162654264Y-60784431D01*
X162701883Y-60879669D01*
X162701883Y-61117764D01*
X162654264Y-61213002D01*
X162606645Y-61260621D01*
X162511407Y-61308240D01*
X162225693Y-61308240D01*
X162130455Y-61260621D01*
X162082836Y-61213002D01*
X163559026Y-60641574D02*
X163559026Y-61308240D01*
X163320931Y-60260621D02*
X163082836Y-60974907D01*
X163701883Y-60974907D01*
X147975082Y-63511702D02*
X147927463Y-63559321D01*
X147784606Y-63606940D01*
X147689368Y-63606940D01*
X147546511Y-63559321D01*
X147451273Y-63464083D01*
X147403654Y-63368845D01*
X147356035Y-63178369D01*
X147356035Y-63035512D01*
X147403654Y-62845036D01*
X147451273Y-62749798D01*
X147546511Y-62654560D01*
X147689368Y-62606940D01*
X147784606Y-62606940D01*
X147927463Y-62654560D01*
X147975082Y-62702179D01*
X148308416Y-62606940D02*
X148927463Y-62606940D01*
X148594130Y-62987893D01*
X148736987Y-62987893D01*
X148832225Y-63035512D01*
X148879844Y-63083131D01*
X148927463Y-63178369D01*
X148927463Y-63416464D01*
X148879844Y-63511702D01*
X148832225Y-63559321D01*
X148736987Y-63606940D01*
X148451273Y-63606940D01*
X148356035Y-63559321D01*
X148308416Y-63511702D01*
X149308416Y-62702179D02*
X149356035Y-62654560D01*
X149451273Y-62606940D01*
X149689368Y-62606940D01*
X149784606Y-62654560D01*
X149832225Y-62702179D01*
X149879844Y-62797417D01*
X149879844Y-62892655D01*
X149832225Y-63035512D01*
X149260797Y-63606940D01*
X149879844Y-63606940D01*
X147980162Y-67103262D02*
X147932543Y-67150881D01*
X147789686Y-67198500D01*
X147694448Y-67198500D01*
X147551591Y-67150881D01*
X147456353Y-67055643D01*
X147408734Y-66960405D01*
X147361115Y-66769929D01*
X147361115Y-66627072D01*
X147408734Y-66436596D01*
X147456353Y-66341358D01*
X147551591Y-66246120D01*
X147694448Y-66198500D01*
X147789686Y-66198500D01*
X147932543Y-66246120D01*
X147980162Y-66293739D01*
X148313496Y-66198500D02*
X148932543Y-66198500D01*
X148599210Y-66579453D01*
X148742067Y-66579453D01*
X148837305Y-66627072D01*
X148884924Y-66674691D01*
X148932543Y-66769929D01*
X148932543Y-67008024D01*
X148884924Y-67103262D01*
X148837305Y-67150881D01*
X148742067Y-67198500D01*
X148456353Y-67198500D01*
X148361115Y-67150881D01*
X148313496Y-67103262D01*
X149265877Y-66198500D02*
X149884924Y-66198500D01*
X149551591Y-66579453D01*
X149694448Y-66579453D01*
X149789686Y-66627072D01*
X149837305Y-66674691D01*
X149884924Y-66769929D01*
X149884924Y-67008024D01*
X149837305Y-67103262D01*
X149789686Y-67150881D01*
X149694448Y-67198500D01*
X149408734Y-67198500D01*
X149313496Y-67150881D01*
X149265877Y-67103262D01*
X141352329Y-60926030D02*
X141352329Y-61402220D01*
X141018996Y-60402220D02*
X141352329Y-60926030D01*
X141685662Y-60402220D01*
X141923758Y-60402220D02*
X142542805Y-60402220D01*
X142209472Y-60783173D01*
X142352329Y-60783173D01*
X142447567Y-60830792D01*
X142495186Y-60878411D01*
X142542805Y-60973649D01*
X142542805Y-61211744D01*
X142495186Y-61306982D01*
X142447567Y-61354601D01*
X142352329Y-61402220D01*
X142066615Y-61402220D01*
X141971377Y-61354601D01*
X141923758Y-61306982D01*
X116261853Y-53427902D02*
X116214234Y-53475521D01*
X116071377Y-53523140D01*
X115976139Y-53523140D01*
X115833281Y-53475521D01*
X115738043Y-53380283D01*
X115690424Y-53285045D01*
X115642805Y-53094569D01*
X115642805Y-52951712D01*
X115690424Y-52761236D01*
X115738043Y-52665998D01*
X115833281Y-52570760D01*
X115976139Y-52523140D01*
X116071377Y-52523140D01*
X116214234Y-52570760D01*
X116261853Y-52618379D01*
X116642805Y-52618379D02*
X116690424Y-52570760D01*
X116785662Y-52523140D01*
X117023758Y-52523140D01*
X117118996Y-52570760D01*
X117166615Y-52618379D01*
X117214234Y-52713617D01*
X117214234Y-52808855D01*
X117166615Y-52951712D01*
X116595186Y-53523140D01*
X117214234Y-53523140D01*
X116562190Y-48736190D02*
X117038380Y-48736190D01*
X116038380Y-49069523D02*
X116562190Y-48736190D01*
X116038380Y-48402857D01*
X117038380Y-47545714D02*
X117038380Y-48117142D01*
X117038380Y-47831428D02*
X116038380Y-47831428D01*
X116181238Y-47926666D01*
X116276476Y-48021904D01*
X116324095Y-48117142D01*
X113641190Y-40354190D02*
X114117380Y-40354190D01*
X113117380Y-40687523D02*
X113641190Y-40354190D01*
X113117380Y-40020857D01*
X113212619Y-39735142D02*
X113165000Y-39687523D01*
X113117380Y-39592285D01*
X113117380Y-39354190D01*
X113165000Y-39258952D01*
X113212619Y-39211333D01*
X113307857Y-39163714D01*
X113403095Y-39163714D01*
X113545952Y-39211333D01*
X114117380Y-39782761D01*
X114117380Y-39163714D01*
X72899044Y-69382900D02*
X72899044Y-68382900D01*
X73137140Y-68382900D01*
X73279997Y-68430520D01*
X73375235Y-68525758D01*
X73422854Y-68620996D01*
X73470473Y-68811472D01*
X73470473Y-68954329D01*
X73422854Y-69144805D01*
X73375235Y-69240043D01*
X73279997Y-69335281D01*
X73137140Y-69382900D01*
X72899044Y-69382900D01*
X74327616Y-68716234D02*
X74327616Y-69382900D01*
X74089520Y-68335281D02*
X73851425Y-69049567D01*
X74470473Y-69049567D01*
X60481482Y-65506837D02*
X60529101Y-65554456D01*
X60576720Y-65697313D01*
X60576720Y-65792551D01*
X60529101Y-65935408D01*
X60433863Y-66030646D01*
X60338625Y-66078265D01*
X60148149Y-66125884D01*
X60005292Y-66125884D01*
X59814816Y-66078265D01*
X59719578Y-66030646D01*
X59624340Y-65935408D01*
X59576720Y-65792551D01*
X59576720Y-65697313D01*
X59624340Y-65554456D01*
X59671959Y-65506837D01*
X59671959Y-65125884D02*
X59624340Y-65078265D01*
X59576720Y-64983027D01*
X59576720Y-64744932D01*
X59624340Y-64649694D01*
X59671959Y-64602075D01*
X59767197Y-64554456D01*
X59862435Y-64554456D01*
X60005292Y-64602075D01*
X60576720Y-65173503D01*
X60576720Y-64554456D01*
X60005292Y-63983027D02*
X59957673Y-64078265D01*
X59910054Y-64125884D01*
X59814816Y-64173503D01*
X59767197Y-64173503D01*
X59671959Y-64125884D01*
X59624340Y-64078265D01*
X59576720Y-63983027D01*
X59576720Y-63792551D01*
X59624340Y-63697313D01*
X59671959Y-63649694D01*
X59767197Y-63602075D01*
X59814816Y-63602075D01*
X59910054Y-63649694D01*
X59957673Y-63697313D01*
X60005292Y-63792551D01*
X60005292Y-63983027D01*
X60052911Y-64078265D01*
X60100530Y-64125884D01*
X60195768Y-64173503D01*
X60386244Y-64173503D01*
X60481482Y-64125884D01*
X60529101Y-64078265D01*
X60576720Y-63983027D01*
X60576720Y-63792551D01*
X60529101Y-63697313D01*
X60481482Y-63649694D01*
X60386244Y-63602075D01*
X60195768Y-63602075D01*
X60100530Y-63649694D01*
X60052911Y-63697313D01*
X60005292Y-63792551D01*
X71175642Y-66435242D02*
X71128023Y-66482861D01*
X70985166Y-66530480D01*
X70889928Y-66530480D01*
X70747071Y-66482861D01*
X70651833Y-66387623D01*
X70604214Y-66292385D01*
X70556595Y-66101909D01*
X70556595Y-65959052D01*
X70604214Y-65768576D01*
X70651833Y-65673338D01*
X70747071Y-65578100D01*
X70889928Y-65530480D01*
X70985166Y-65530480D01*
X71128023Y-65578100D01*
X71175642Y-65625719D01*
X71508976Y-65530480D02*
X72128023Y-65530480D01*
X71794690Y-65911433D01*
X71937547Y-65911433D01*
X72032785Y-65959052D01*
X72080404Y-66006671D01*
X72128023Y-66101909D01*
X72128023Y-66340004D01*
X72080404Y-66435242D01*
X72032785Y-66482861D01*
X71937547Y-66530480D01*
X71651833Y-66530480D01*
X71556595Y-66482861D01*
X71508976Y-66435242D01*
X73080404Y-66530480D02*
X72508976Y-66530480D01*
X72794690Y-66530480D02*
X72794690Y-65530480D01*
X72699452Y-65673338D01*
X72604214Y-65768576D01*
X72508976Y-65816195D01*
X167406082Y-46435282D02*
X167358463Y-46482901D01*
X167215606Y-46530520D01*
X167120368Y-46530520D01*
X166977511Y-46482901D01*
X166882273Y-46387663D01*
X166834654Y-46292425D01*
X166787035Y-46101949D01*
X166787035Y-45959092D01*
X166834654Y-45768616D01*
X166882273Y-45673378D01*
X166977511Y-45578140D01*
X167120368Y-45530520D01*
X167215606Y-45530520D01*
X167358463Y-45578140D01*
X167406082Y-45625759D01*
X167787035Y-45625759D02*
X167834654Y-45578140D01*
X167929892Y-45530520D01*
X168167987Y-45530520D01*
X168263225Y-45578140D01*
X168310844Y-45625759D01*
X168358463Y-45720997D01*
X168358463Y-45816235D01*
X168310844Y-45959092D01*
X167739416Y-46530520D01*
X168358463Y-46530520D01*
X168691797Y-45530520D02*
X169358463Y-45530520D01*
X168929892Y-46530520D01*
X179711622Y-49992517D02*
X179759241Y-50040136D01*
X179806860Y-50182993D01*
X179806860Y-50278231D01*
X179759241Y-50421088D01*
X179664003Y-50516326D01*
X179568765Y-50563945D01*
X179378289Y-50611564D01*
X179235432Y-50611564D01*
X179044956Y-50563945D01*
X178949718Y-50516326D01*
X178854480Y-50421088D01*
X178806860Y-50278231D01*
X178806860Y-50182993D01*
X178854480Y-50040136D01*
X178902099Y-49992517D01*
X178902099Y-49611564D02*
X178854480Y-49563945D01*
X178806860Y-49468707D01*
X178806860Y-49230612D01*
X178854480Y-49135374D01*
X178902099Y-49087755D01*
X178997337Y-49040136D01*
X179092575Y-49040136D01*
X179235432Y-49087755D01*
X179806860Y-49659183D01*
X179806860Y-49040136D01*
X178806860Y-48182993D02*
X178806860Y-48373469D01*
X178854480Y-48468707D01*
X178902099Y-48516326D01*
X179044956Y-48611564D01*
X179235432Y-48659183D01*
X179616384Y-48659183D01*
X179711622Y-48611564D01*
X179759241Y-48563945D01*
X179806860Y-48468707D01*
X179806860Y-48278231D01*
X179759241Y-48182993D01*
X179711622Y-48135374D01*
X179616384Y-48087755D01*
X179378289Y-48087755D01*
X179283051Y-48135374D01*
X179235432Y-48182993D01*
X179187813Y-48278231D01*
X179187813Y-48468707D01*
X179235432Y-48563945D01*
X179283051Y-48611564D01*
X179378289Y-48659183D01*
X130449082Y-72797942D02*
X130401463Y-72845561D01*
X130258606Y-72893180D01*
X130163368Y-72893180D01*
X130020511Y-72845561D01*
X129925273Y-72750323D01*
X129877654Y-72655085D01*
X129830035Y-72464609D01*
X129830035Y-72321752D01*
X129877654Y-72131276D01*
X129925273Y-72036038D01*
X130020511Y-71940800D01*
X130163368Y-71893180D01*
X130258606Y-71893180D01*
X130401463Y-71940800D01*
X130449082Y-71988419D01*
X130830035Y-71988419D02*
X130877654Y-71940800D01*
X130972892Y-71893180D01*
X131210987Y-71893180D01*
X131306225Y-71940800D01*
X131353844Y-71988419D01*
X131401463Y-72083657D01*
X131401463Y-72178895D01*
X131353844Y-72321752D01*
X130782416Y-72893180D01*
X131401463Y-72893180D01*
X132306225Y-71893180D02*
X131830035Y-71893180D01*
X131782416Y-72369371D01*
X131830035Y-72321752D01*
X131925273Y-72274133D01*
X132163368Y-72274133D01*
X132258606Y-72321752D01*
X132306225Y-72369371D01*
X132353844Y-72464609D01*
X132353844Y-72702704D01*
X132306225Y-72797942D01*
X132258606Y-72845561D01*
X132163368Y-72893180D01*
X131925273Y-72893180D01*
X131830035Y-72845561D01*
X131782416Y-72797942D01*
X129838095Y-56752380D02*
X129838095Y-57561904D01*
X129885714Y-57657142D01*
X129933333Y-57704761D01*
X130028571Y-57752380D01*
X130219047Y-57752380D01*
X130314285Y-57704761D01*
X130361904Y-57657142D01*
X130409523Y-57561904D01*
X130409523Y-56752380D01*
X131409523Y-57752380D02*
X130838095Y-57752380D01*
X131123809Y-57752380D02*
X131123809Y-56752380D01*
X131028571Y-56895238D01*
X130933333Y-56990476D01*
X130838095Y-57038095D01*
X107406202Y-63178962D02*
X107358583Y-63226581D01*
X107215726Y-63274200D01*
X107120488Y-63274200D01*
X106977631Y-63226581D01*
X106882393Y-63131343D01*
X106834774Y-63036105D01*
X106787155Y-62845629D01*
X106787155Y-62702772D01*
X106834774Y-62512296D01*
X106882393Y-62417058D01*
X106977631Y-62321820D01*
X107120488Y-62274200D01*
X107215726Y-62274200D01*
X107358583Y-62321820D01*
X107406202Y-62369439D01*
X107787155Y-62369439D02*
X107834774Y-62321820D01*
X107930012Y-62274200D01*
X108168107Y-62274200D01*
X108263345Y-62321820D01*
X108310964Y-62369439D01*
X108358583Y-62464677D01*
X108358583Y-62559915D01*
X108310964Y-62702772D01*
X107739536Y-63274200D01*
X108358583Y-63274200D01*
X109215726Y-62607534D02*
X109215726Y-63274200D01*
X108977631Y-62226581D02*
X108739536Y-62940867D01*
X109358583Y-62940867D01*
X107060002Y-48041797D02*
X107107621Y-48089416D01*
X107155240Y-48232273D01*
X107155240Y-48327511D01*
X107107621Y-48470368D01*
X107012383Y-48565606D01*
X106917145Y-48613225D01*
X106726669Y-48660844D01*
X106583812Y-48660844D01*
X106393336Y-48613225D01*
X106298098Y-48565606D01*
X106202860Y-48470368D01*
X106155240Y-48327511D01*
X106155240Y-48232273D01*
X106202860Y-48089416D01*
X106250479Y-48041797D01*
X106250479Y-47660844D02*
X106202860Y-47613225D01*
X106155240Y-47517987D01*
X106155240Y-47279892D01*
X106202860Y-47184654D01*
X106250479Y-47137035D01*
X106345717Y-47089416D01*
X106440955Y-47089416D01*
X106583812Y-47137035D01*
X107155240Y-47708463D01*
X107155240Y-47089416D01*
X106155240Y-46756082D02*
X106155240Y-46137035D01*
X106536193Y-46470368D01*
X106536193Y-46327511D01*
X106583812Y-46232273D01*
X106631431Y-46184654D01*
X106726669Y-46137035D01*
X106964764Y-46137035D01*
X107060002Y-46184654D01*
X107107621Y-46232273D01*
X107155240Y-46327511D01*
X107155240Y-46613225D01*
X107107621Y-46708463D01*
X107060002Y-46756082D01*
X157248622Y-42985962D02*
X157201003Y-43033581D01*
X157058146Y-43081200D01*
X156962908Y-43081200D01*
X156820051Y-43033581D01*
X156724813Y-42938343D01*
X156677194Y-42843105D01*
X156629575Y-42652629D01*
X156629575Y-42509772D01*
X156677194Y-42319296D01*
X156724813Y-42224058D01*
X156820051Y-42128820D01*
X156962908Y-42081200D01*
X157058146Y-42081200D01*
X157201003Y-42128820D01*
X157248622Y-42176439D01*
X157629575Y-42176439D02*
X157677194Y-42128820D01*
X157772432Y-42081200D01*
X158010527Y-42081200D01*
X158105765Y-42128820D01*
X158153384Y-42176439D01*
X158201003Y-42271677D01*
X158201003Y-42366915D01*
X158153384Y-42509772D01*
X157581956Y-43081200D01*
X158201003Y-43081200D01*
X158581956Y-42176439D02*
X158629575Y-42128820D01*
X158724813Y-42081200D01*
X158962908Y-42081200D01*
X159058146Y-42128820D01*
X159105765Y-42176439D01*
X159153384Y-42271677D01*
X159153384Y-42366915D01*
X159105765Y-42509772D01*
X158534337Y-43081200D01*
X159153384Y-43081200D01*
X150352522Y-72399162D02*
X150304903Y-72446781D01*
X150162046Y-72494400D01*
X150066808Y-72494400D01*
X149923951Y-72446781D01*
X149828713Y-72351543D01*
X149781094Y-72256305D01*
X149733475Y-72065829D01*
X149733475Y-71922972D01*
X149781094Y-71732496D01*
X149828713Y-71637258D01*
X149923951Y-71542020D01*
X150066808Y-71494400D01*
X150162046Y-71494400D01*
X150304903Y-71542020D01*
X150352522Y-71589639D01*
X151304903Y-72494400D02*
X150733475Y-72494400D01*
X151019189Y-72494400D02*
X151019189Y-71494400D01*
X150923951Y-71637258D01*
X150828713Y-71732496D01*
X150733475Y-71780115D01*
X151876332Y-71922972D02*
X151781094Y-71875353D01*
X151733475Y-71827734D01*
X151685856Y-71732496D01*
X151685856Y-71684877D01*
X151733475Y-71589639D01*
X151781094Y-71542020D01*
X151876332Y-71494400D01*
X152066808Y-71494400D01*
X152162046Y-71542020D01*
X152209665Y-71589639D01*
X152257284Y-71684877D01*
X152257284Y-71732496D01*
X152209665Y-71827734D01*
X152162046Y-71875353D01*
X152066808Y-71922972D01*
X151876332Y-71922972D01*
X151781094Y-71970591D01*
X151733475Y-72018210D01*
X151685856Y-72113448D01*
X151685856Y-72303924D01*
X151733475Y-72399162D01*
X151781094Y-72446781D01*
X151876332Y-72494400D01*
X152066808Y-72494400D01*
X152162046Y-72446781D01*
X152209665Y-72399162D01*
X152257284Y-72303924D01*
X152257284Y-72113448D01*
X152209665Y-72018210D01*
X152162046Y-71970591D01*
X152066808Y-71922972D01*
X134687582Y-73784697D02*
X134735201Y-73832316D01*
X134782820Y-73975173D01*
X134782820Y-74070411D01*
X134735201Y-74213268D01*
X134639963Y-74308506D01*
X134544725Y-74356125D01*
X134354249Y-74403744D01*
X134211392Y-74403744D01*
X134020916Y-74356125D01*
X133925678Y-74308506D01*
X133830440Y-74213268D01*
X133782820Y-74070411D01*
X133782820Y-73975173D01*
X133830440Y-73832316D01*
X133878059Y-73784697D01*
X133878059Y-73403744D02*
X133830440Y-73356125D01*
X133782820Y-73260887D01*
X133782820Y-73022792D01*
X133830440Y-72927554D01*
X133878059Y-72879935D01*
X133973297Y-72832316D01*
X134068535Y-72832316D01*
X134211392Y-72879935D01*
X134782820Y-73451363D01*
X134782820Y-72832316D01*
X134782820Y-71879935D02*
X134782820Y-72451363D01*
X134782820Y-72165649D02*
X133782820Y-72165649D01*
X133925678Y-72260887D01*
X134020916Y-72356125D01*
X134068535Y-72451363D01*
X150334742Y-70461142D02*
X150287123Y-70508761D01*
X150144266Y-70556380D01*
X150049028Y-70556380D01*
X149906171Y-70508761D01*
X149810933Y-70413523D01*
X149763314Y-70318285D01*
X149715695Y-70127809D01*
X149715695Y-69984952D01*
X149763314Y-69794476D01*
X149810933Y-69699238D01*
X149906171Y-69604000D01*
X150049028Y-69556380D01*
X150144266Y-69556380D01*
X150287123Y-69604000D01*
X150334742Y-69651619D01*
X150715695Y-69651619D02*
X150763314Y-69604000D01*
X150858552Y-69556380D01*
X151096647Y-69556380D01*
X151191885Y-69604000D01*
X151239504Y-69651619D01*
X151287123Y-69746857D01*
X151287123Y-69842095D01*
X151239504Y-69984952D01*
X150668076Y-70556380D01*
X151287123Y-70556380D01*
X151906171Y-69556380D02*
X152001409Y-69556380D01*
X152096647Y-69604000D01*
X152144266Y-69651619D01*
X152191885Y-69746857D01*
X152239504Y-69937333D01*
X152239504Y-70175428D01*
X152191885Y-70365904D01*
X152144266Y-70461142D01*
X152096647Y-70508761D01*
X152001409Y-70556380D01*
X151906171Y-70556380D01*
X151810933Y-70508761D01*
X151763314Y-70461142D01*
X151715695Y-70365904D01*
X151668076Y-70175428D01*
X151668076Y-69937333D01*
X151715695Y-69746857D01*
X151763314Y-69651619D01*
X151810933Y-69604000D01*
X151906171Y-69556380D01*
X136925322Y-73807557D02*
X136972941Y-73855176D01*
X137020560Y-73998033D01*
X137020560Y-74093271D01*
X136972941Y-74236128D01*
X136877703Y-74331366D01*
X136782465Y-74378985D01*
X136591989Y-74426604D01*
X136449132Y-74426604D01*
X136258656Y-74378985D01*
X136163418Y-74331366D01*
X136068180Y-74236128D01*
X136020560Y-74093271D01*
X136020560Y-73998033D01*
X136068180Y-73855176D01*
X136115799Y-73807557D01*
X137020560Y-72855176D02*
X137020560Y-73426604D01*
X137020560Y-73140890D02*
X136020560Y-73140890D01*
X136163418Y-73236128D01*
X136258656Y-73331366D01*
X136306275Y-73426604D01*
X137020560Y-72378985D02*
X137020560Y-72188509D01*
X136972941Y-72093271D01*
X136925322Y-72045652D01*
X136782465Y-71950414D01*
X136591989Y-71902795D01*
X136211037Y-71902795D01*
X136115799Y-71950414D01*
X136068180Y-71998033D01*
X136020560Y-72093271D01*
X136020560Y-72283747D01*
X136068180Y-72378985D01*
X136115799Y-72426604D01*
X136211037Y-72474223D01*
X136449132Y-72474223D01*
X136544370Y-72426604D01*
X136591989Y-72378985D01*
X136639608Y-72283747D01*
X136639608Y-72093271D01*
X136591989Y-71998033D01*
X136544370Y-71950414D01*
X136449132Y-71902795D01*
X140174742Y-74146682D02*
X140127123Y-74194301D01*
X139984266Y-74241920D01*
X139889028Y-74241920D01*
X139746171Y-74194301D01*
X139650933Y-74099063D01*
X139603314Y-74003825D01*
X139555695Y-73813349D01*
X139555695Y-73670492D01*
X139603314Y-73480016D01*
X139650933Y-73384778D01*
X139746171Y-73289540D01*
X139889028Y-73241920D01*
X139984266Y-73241920D01*
X140127123Y-73289540D01*
X140174742Y-73337159D01*
X141127123Y-74241920D02*
X140555695Y-74241920D01*
X140841409Y-74241920D02*
X140841409Y-73241920D01*
X140746171Y-73384778D01*
X140650933Y-73480016D01*
X140555695Y-73527635D01*
X141984266Y-73241920D02*
X141793790Y-73241920D01*
X141698552Y-73289540D01*
X141650933Y-73337159D01*
X141555695Y-73480016D01*
X141508076Y-73670492D01*
X141508076Y-74051444D01*
X141555695Y-74146682D01*
X141603314Y-74194301D01*
X141698552Y-74241920D01*
X141889028Y-74241920D01*
X141984266Y-74194301D01*
X142031885Y-74146682D01*
X142079504Y-74051444D01*
X142079504Y-73813349D01*
X142031885Y-73718111D01*
X141984266Y-73670492D01*
X141889028Y-73622873D01*
X141698552Y-73622873D01*
X141603314Y-73670492D01*
X141555695Y-73718111D01*
X141508076Y-73813349D01*
X150334742Y-74321942D02*
X150287123Y-74369561D01*
X150144266Y-74417180D01*
X150049028Y-74417180D01*
X149906171Y-74369561D01*
X149810933Y-74274323D01*
X149763314Y-74179085D01*
X149715695Y-73988609D01*
X149715695Y-73845752D01*
X149763314Y-73655276D01*
X149810933Y-73560038D01*
X149906171Y-73464800D01*
X150049028Y-73417180D01*
X150144266Y-73417180D01*
X150287123Y-73464800D01*
X150334742Y-73512419D01*
X151287123Y-74417180D02*
X150715695Y-74417180D01*
X151001409Y-74417180D02*
X151001409Y-73417180D01*
X150906171Y-73560038D01*
X150810933Y-73655276D01*
X150715695Y-73702895D01*
X151620457Y-73417180D02*
X152287123Y-73417180D01*
X151858552Y-74417180D01*
X137628380Y-72897904D02*
X138437904Y-72897904D01*
X138533142Y-72850285D01*
X138580761Y-72802666D01*
X138628380Y-72707428D01*
X138628380Y-72516952D01*
X138580761Y-72421714D01*
X138533142Y-72374095D01*
X138437904Y-72326476D01*
X137628380Y-72326476D01*
X137723619Y-71897904D02*
X137676000Y-71850285D01*
X137628380Y-71755047D01*
X137628380Y-71516952D01*
X137676000Y-71421714D01*
X137723619Y-71374095D01*
X137818857Y-71326476D01*
X137914095Y-71326476D01*
X138056952Y-71374095D01*
X138628380Y-71945523D01*
X138628380Y-71326476D01*
X145534640Y-68299626D02*
X145058450Y-68632960D01*
X145534640Y-68871055D02*
X144534640Y-68871055D01*
X144534640Y-68490102D01*
X144582260Y-68394864D01*
X144629879Y-68347245D01*
X144725117Y-68299626D01*
X144867974Y-68299626D01*
X144963212Y-68347245D01*
X145010831Y-68394864D01*
X145058450Y-68490102D01*
X145058450Y-68871055D01*
X144534640Y-67394864D02*
X144534640Y-67871055D01*
X145010831Y-67918674D01*
X144963212Y-67871055D01*
X144915593Y-67775817D01*
X144915593Y-67537721D01*
X144963212Y-67442483D01*
X145010831Y-67394864D01*
X145106069Y-67347245D01*
X145344164Y-67347245D01*
X145439402Y-67394864D01*
X145487021Y-67442483D01*
X145534640Y-67537721D01*
X145534640Y-67775817D01*
X145487021Y-67871055D01*
X145439402Y-67918674D01*
X140030460Y-63956226D02*
X139554270Y-64289560D01*
X140030460Y-64527655D02*
X139030460Y-64527655D01*
X139030460Y-64146702D01*
X139078080Y-64051464D01*
X139125699Y-64003845D01*
X139220937Y-63956226D01*
X139363794Y-63956226D01*
X139459032Y-64003845D01*
X139506651Y-64051464D01*
X139554270Y-64146702D01*
X139554270Y-64527655D01*
X139030460Y-63099083D02*
X139030460Y-63289560D01*
X139078080Y-63384798D01*
X139125699Y-63432417D01*
X139268556Y-63527655D01*
X139459032Y-63575274D01*
X139839984Y-63575274D01*
X139935222Y-63527655D01*
X139982841Y-63480036D01*
X140030460Y-63384798D01*
X140030460Y-63194321D01*
X139982841Y-63099083D01*
X139935222Y-63051464D01*
X139839984Y-63003845D01*
X139601889Y-63003845D01*
X139506651Y-63051464D01*
X139459032Y-63099083D01*
X139411413Y-63194321D01*
X139411413Y-63384798D01*
X139459032Y-63480036D01*
X139506651Y-63527655D01*
X139601889Y-63575274D01*
X109857302Y-40529782D02*
X109809683Y-40577401D01*
X109666826Y-40625020D01*
X109571588Y-40625020D01*
X109428731Y-40577401D01*
X109333493Y-40482163D01*
X109285874Y-40386925D01*
X109238255Y-40196449D01*
X109238255Y-40053592D01*
X109285874Y-39863116D01*
X109333493Y-39767878D01*
X109428731Y-39672640D01*
X109571588Y-39625020D01*
X109666826Y-39625020D01*
X109809683Y-39672640D01*
X109857302Y-39720259D01*
X110809683Y-40625020D02*
X110238255Y-40625020D01*
X110523969Y-40625020D02*
X110523969Y-39625020D01*
X110428731Y-39767878D01*
X110333493Y-39863116D01*
X110238255Y-39910735D01*
X111714445Y-39625020D02*
X111238255Y-39625020D01*
X111190636Y-40101211D01*
X111238255Y-40053592D01*
X111333493Y-40005973D01*
X111571588Y-40005973D01*
X111666826Y-40053592D01*
X111714445Y-40101211D01*
X111762064Y-40196449D01*
X111762064Y-40434544D01*
X111714445Y-40529782D01*
X111666826Y-40577401D01*
X111571588Y-40625020D01*
X111333493Y-40625020D01*
X111238255Y-40577401D01*
X111190636Y-40529782D01*
X106926142Y-44299142D02*
X106878523Y-44346761D01*
X106735666Y-44394380D01*
X106640428Y-44394380D01*
X106497571Y-44346761D01*
X106402333Y-44251523D01*
X106354714Y-44156285D01*
X106307095Y-43965809D01*
X106307095Y-43822952D01*
X106354714Y-43632476D01*
X106402333Y-43537238D01*
X106497571Y-43442000D01*
X106640428Y-43394380D01*
X106735666Y-43394380D01*
X106878523Y-43442000D01*
X106926142Y-43489619D01*
X107878523Y-44394380D02*
X107307095Y-44394380D01*
X107592809Y-44394380D02*
X107592809Y-43394380D01*
X107497571Y-43537238D01*
X107402333Y-43632476D01*
X107307095Y-43680095D01*
X108735666Y-43727714D02*
X108735666Y-44394380D01*
X108497571Y-43346761D02*
X108259476Y-44061047D01*
X108878523Y-44061047D01*
X109323142Y-51188857D02*
X109370761Y-51236476D01*
X109418380Y-51379333D01*
X109418380Y-51474571D01*
X109370761Y-51617428D01*
X109275523Y-51712666D01*
X109180285Y-51760285D01*
X108989809Y-51807904D01*
X108846952Y-51807904D01*
X108656476Y-51760285D01*
X108561238Y-51712666D01*
X108466000Y-51617428D01*
X108418380Y-51474571D01*
X108418380Y-51379333D01*
X108466000Y-51236476D01*
X108513619Y-51188857D01*
X109418380Y-50236476D02*
X109418380Y-50807904D01*
X109418380Y-50522190D02*
X108418380Y-50522190D01*
X108561238Y-50617428D01*
X108656476Y-50712666D01*
X108704095Y-50807904D01*
X108418380Y-49903142D02*
X108418380Y-49284095D01*
X108799333Y-49617428D01*
X108799333Y-49474571D01*
X108846952Y-49379333D01*
X108894571Y-49331714D01*
X108989809Y-49284095D01*
X109227904Y-49284095D01*
X109323142Y-49331714D01*
X109370761Y-49379333D01*
X109418380Y-49474571D01*
X109418380Y-49760285D01*
X109370761Y-49855523D01*
X109323142Y-49903142D01*
X109323142Y-47721757D02*
X109370761Y-47769376D01*
X109418380Y-47912233D01*
X109418380Y-48007471D01*
X109370761Y-48150328D01*
X109275523Y-48245566D01*
X109180285Y-48293185D01*
X108989809Y-48340804D01*
X108846952Y-48340804D01*
X108656476Y-48293185D01*
X108561238Y-48245566D01*
X108466000Y-48150328D01*
X108418380Y-48007471D01*
X108418380Y-47912233D01*
X108466000Y-47769376D01*
X108513619Y-47721757D01*
X109418380Y-46769376D02*
X109418380Y-47340804D01*
X109418380Y-47055090D02*
X108418380Y-47055090D01*
X108561238Y-47150328D01*
X108656476Y-47245566D01*
X108704095Y-47340804D01*
X108513619Y-46388423D02*
X108466000Y-46340804D01*
X108418380Y-46245566D01*
X108418380Y-46007471D01*
X108466000Y-45912233D01*
X108513619Y-45864614D01*
X108608857Y-45816995D01*
X108704095Y-45816995D01*
X108846952Y-45864614D01*
X109418380Y-46436042D01*
X109418380Y-45816995D01*
X120423702Y-36234642D02*
X120376083Y-36282261D01*
X120233226Y-36329880D01*
X120137988Y-36329880D01*
X119995131Y-36282261D01*
X119899893Y-36187023D01*
X119852274Y-36091785D01*
X119804655Y-35901309D01*
X119804655Y-35758452D01*
X119852274Y-35567976D01*
X119899893Y-35472738D01*
X119995131Y-35377500D01*
X120137988Y-35329880D01*
X120233226Y-35329880D01*
X120376083Y-35377500D01*
X120423702Y-35425119D01*
X121376083Y-36329880D02*
X120804655Y-36329880D01*
X121090369Y-36329880D02*
X121090369Y-35329880D01*
X120995131Y-35472738D01*
X120899893Y-35567976D01*
X120804655Y-35615595D01*
X122328464Y-36329880D02*
X121757036Y-36329880D01*
X122042750Y-36329880D02*
X122042750Y-35329880D01*
X121947512Y-35472738D01*
X121852274Y-35567976D01*
X121757036Y-35615595D01*
X138657142Y-61942857D02*
X138704761Y-61990476D01*
X138752380Y-62133333D01*
X138752380Y-62228571D01*
X138704761Y-62371428D01*
X138609523Y-62466666D01*
X138514285Y-62514285D01*
X138323809Y-62561904D01*
X138180952Y-62561904D01*
X137990476Y-62514285D01*
X137895238Y-62466666D01*
X137800000Y-62371428D01*
X137752380Y-62228571D01*
X137752380Y-62133333D01*
X137800000Y-61990476D01*
X137847619Y-61942857D01*
X138752380Y-60990476D02*
X138752380Y-61561904D01*
X138752380Y-61276190D02*
X137752380Y-61276190D01*
X137895238Y-61371428D01*
X137990476Y-61466666D01*
X138038095Y-61561904D01*
X137752380Y-60371428D02*
X137752380Y-60276190D01*
X137800000Y-60180952D01*
X137847619Y-60133333D01*
X137942857Y-60085714D01*
X138133333Y-60038095D01*
X138371428Y-60038095D01*
X138561904Y-60085714D01*
X138657142Y-60133333D01*
X138704761Y-60180952D01*
X138752380Y-60276190D01*
X138752380Y-60371428D01*
X138704761Y-60466666D01*
X138657142Y-60514285D01*
X138561904Y-60561904D01*
X138371428Y-60609523D01*
X138133333Y-60609523D01*
X137942857Y-60561904D01*
X137847619Y-60514285D01*
X137800000Y-60466666D01*
X137752380Y-60371428D01*
X140989322Y-38111726D02*
X141036941Y-38159345D01*
X141084560Y-38302202D01*
X141084560Y-38397440D01*
X141036941Y-38540298D01*
X140941703Y-38635536D01*
X140846465Y-38683155D01*
X140655989Y-38730774D01*
X140513132Y-38730774D01*
X140322656Y-38683155D01*
X140227418Y-38635536D01*
X140132180Y-38540298D01*
X140084560Y-38397440D01*
X140084560Y-38302202D01*
X140132180Y-38159345D01*
X140179799Y-38111726D01*
X141084560Y-37635536D02*
X141084560Y-37445060D01*
X141036941Y-37349821D01*
X140989322Y-37302202D01*
X140846465Y-37206964D01*
X140655989Y-37159345D01*
X140275037Y-37159345D01*
X140179799Y-37206964D01*
X140132180Y-37254583D01*
X140084560Y-37349821D01*
X140084560Y-37540298D01*
X140132180Y-37635536D01*
X140179799Y-37683155D01*
X140275037Y-37730774D01*
X140513132Y-37730774D01*
X140608370Y-37683155D01*
X140655989Y-37635536D01*
X140703608Y-37540298D01*
X140703608Y-37349821D01*
X140655989Y-37254583D01*
X140608370Y-37206964D01*
X140513132Y-37159345D01*
X119198093Y-48553642D02*
X119150474Y-48601261D01*
X119007617Y-48648880D01*
X118912379Y-48648880D01*
X118769521Y-48601261D01*
X118674283Y-48506023D01*
X118626664Y-48410785D01*
X118579045Y-48220309D01*
X118579045Y-48077452D01*
X118626664Y-47886976D01*
X118674283Y-47791738D01*
X118769521Y-47696500D01*
X118912379Y-47648880D01*
X119007617Y-47648880D01*
X119150474Y-47696500D01*
X119198093Y-47744119D01*
X119769521Y-48077452D02*
X119674283Y-48029833D01*
X119626664Y-47982214D01*
X119579045Y-47886976D01*
X119579045Y-47839357D01*
X119626664Y-47744119D01*
X119674283Y-47696500D01*
X119769521Y-47648880D01*
X119959998Y-47648880D01*
X120055236Y-47696500D01*
X120102855Y-47744119D01*
X120150474Y-47839357D01*
X120150474Y-47886976D01*
X120102855Y-47982214D01*
X120055236Y-48029833D01*
X119959998Y-48077452D01*
X119769521Y-48077452D01*
X119674283Y-48125071D01*
X119626664Y-48172690D01*
X119579045Y-48267928D01*
X119579045Y-48458404D01*
X119626664Y-48553642D01*
X119674283Y-48601261D01*
X119769521Y-48648880D01*
X119959998Y-48648880D01*
X120055236Y-48601261D01*
X120102855Y-48553642D01*
X120150474Y-48458404D01*
X120150474Y-48267928D01*
X120102855Y-48172690D01*
X120055236Y-48125071D01*
X119959998Y-48077452D01*
X121192562Y-58286946D02*
X121240181Y-58334565D01*
X121287800Y-58477422D01*
X121287800Y-58572660D01*
X121240181Y-58715518D01*
X121144943Y-58810756D01*
X121049705Y-58858375D01*
X120859229Y-58905994D01*
X120716372Y-58905994D01*
X120525896Y-58858375D01*
X120430658Y-58810756D01*
X120335420Y-58715518D01*
X120287800Y-58572660D01*
X120287800Y-58477422D01*
X120335420Y-58334565D01*
X120383039Y-58286946D01*
X120287800Y-57953613D02*
X120287800Y-57286946D01*
X121287800Y-57715518D01*
X121228122Y-52622746D02*
X121275741Y-52670365D01*
X121323360Y-52813222D01*
X121323360Y-52908460D01*
X121275741Y-53051318D01*
X121180503Y-53146556D01*
X121085265Y-53194175D01*
X120894789Y-53241794D01*
X120751932Y-53241794D01*
X120561456Y-53194175D01*
X120466218Y-53146556D01*
X120370980Y-53051318D01*
X120323360Y-52908460D01*
X120323360Y-52813222D01*
X120370980Y-52670365D01*
X120418599Y-52622746D01*
X120323360Y-51765603D02*
X120323360Y-51956080D01*
X120370980Y-52051318D01*
X120418599Y-52098937D01*
X120561456Y-52194175D01*
X120751932Y-52241794D01*
X121132884Y-52241794D01*
X121228122Y-52194175D01*
X121275741Y-52146556D01*
X121323360Y-52051318D01*
X121323360Y-51860841D01*
X121275741Y-51765603D01*
X121228122Y-51717984D01*
X121132884Y-51670365D01*
X120894789Y-51670365D01*
X120799551Y-51717984D01*
X120751932Y-51765603D01*
X120704313Y-51860841D01*
X120704313Y-52051318D01*
X120751932Y-52146556D01*
X120799551Y-52194175D01*
X120894789Y-52241794D01*
X116704382Y-38228566D02*
X116752001Y-38276185D01*
X116799620Y-38419042D01*
X116799620Y-38514280D01*
X116752001Y-38657138D01*
X116656763Y-38752376D01*
X116561525Y-38799995D01*
X116371049Y-38847614D01*
X116228192Y-38847614D01*
X116037716Y-38799995D01*
X115942478Y-38752376D01*
X115847240Y-38657138D01*
X115799620Y-38514280D01*
X115799620Y-38419042D01*
X115847240Y-38276185D01*
X115894859Y-38228566D01*
X115799620Y-37323804D02*
X115799620Y-37799995D01*
X116275811Y-37847614D01*
X116228192Y-37799995D01*
X116180573Y-37704757D01*
X116180573Y-37466661D01*
X116228192Y-37371423D01*
X116275811Y-37323804D01*
X116371049Y-37276185D01*
X116609144Y-37276185D01*
X116704382Y-37323804D01*
X116752001Y-37371423D01*
X116799620Y-37466661D01*
X116799620Y-37704757D01*
X116752001Y-37799995D01*
X116704382Y-37847614D01*
X120473173Y-40809182D02*
X120425554Y-40856801D01*
X120282697Y-40904420D01*
X120187459Y-40904420D01*
X120044601Y-40856801D01*
X119949363Y-40761563D01*
X119901744Y-40666325D01*
X119854125Y-40475849D01*
X119854125Y-40332992D01*
X119901744Y-40142516D01*
X119949363Y-40047278D01*
X120044601Y-39952040D01*
X120187459Y-39904420D01*
X120282697Y-39904420D01*
X120425554Y-39952040D01*
X120473173Y-39999659D01*
X121330316Y-40237754D02*
X121330316Y-40904420D01*
X121092220Y-39856801D02*
X120854125Y-40571087D01*
X121473173Y-40571087D01*
X143061962Y-38091406D02*
X143109581Y-38139025D01*
X143157200Y-38281882D01*
X143157200Y-38377120D01*
X143109581Y-38519978D01*
X143014343Y-38615216D01*
X142919105Y-38662835D01*
X142728629Y-38710454D01*
X142585772Y-38710454D01*
X142395296Y-38662835D01*
X142300058Y-38615216D01*
X142204820Y-38519978D01*
X142157200Y-38377120D01*
X142157200Y-38281882D01*
X142204820Y-38139025D01*
X142252439Y-38091406D01*
X142157200Y-37758073D02*
X142157200Y-37139025D01*
X142538153Y-37472359D01*
X142538153Y-37329501D01*
X142585772Y-37234263D01*
X142633391Y-37186644D01*
X142728629Y-37139025D01*
X142966724Y-37139025D01*
X143061962Y-37186644D01*
X143109581Y-37234263D01*
X143157200Y-37329501D01*
X143157200Y-37615216D01*
X143109581Y-37710454D01*
X143061962Y-37758073D01*
X134725682Y-58502846D02*
X134773301Y-58550465D01*
X134820920Y-58693322D01*
X134820920Y-58788560D01*
X134773301Y-58931418D01*
X134678063Y-59026656D01*
X134582825Y-59074275D01*
X134392349Y-59121894D01*
X134249492Y-59121894D01*
X134059016Y-59074275D01*
X133963778Y-59026656D01*
X133868540Y-58931418D01*
X133820920Y-58788560D01*
X133820920Y-58693322D01*
X133868540Y-58550465D01*
X133916159Y-58502846D01*
X134820920Y-57550465D02*
X134820920Y-58121894D01*
X134820920Y-57836180D02*
X133820920Y-57836180D01*
X133963778Y-57931418D01*
X134059016Y-58026656D01*
X134106635Y-58121894D01*
X109545380Y-38312386D02*
X109069190Y-38645720D01*
X109545380Y-38883815D02*
X108545380Y-38883815D01*
X108545380Y-38502862D01*
X108593000Y-38407624D01*
X108640619Y-38360005D01*
X108735857Y-38312386D01*
X108878714Y-38312386D01*
X108973952Y-38360005D01*
X109021571Y-38407624D01*
X109069190Y-38502862D01*
X109069190Y-38883815D01*
X108640619Y-37931434D02*
X108593000Y-37883815D01*
X108545380Y-37788577D01*
X108545380Y-37550481D01*
X108593000Y-37455243D01*
X108640619Y-37407624D01*
X108735857Y-37360005D01*
X108831095Y-37360005D01*
X108973952Y-37407624D01*
X109545380Y-37979053D01*
X109545380Y-37360005D01*
X116419333Y-55824380D02*
X116086000Y-55348190D01*
X115847904Y-55824380D02*
X115847904Y-54824380D01*
X116228857Y-54824380D01*
X116324095Y-54872000D01*
X116371714Y-54919619D01*
X116419333Y-55014857D01*
X116419333Y-55157714D01*
X116371714Y-55252952D01*
X116324095Y-55300571D01*
X116228857Y-55348190D01*
X115847904Y-55348190D01*
X117371714Y-55824380D02*
X116800285Y-55824380D01*
X117086000Y-55824380D02*
X117086000Y-54824380D01*
X116990761Y-54967238D01*
X116895523Y-55062476D01*
X116800285Y-55110095D01*
M02*
