%TF.GenerationSoftware,KiCad,Pcbnew,5.1.4-e60b266~84~ubuntu18.04.1*%
%TF.CreationDate,2019-08-25T19:58:04-03:00*%
%TF.ProjectId,dragonmanh7,64726167-6f6e-46d6-916e-68372e6b6963,rev?*%
%TF.SameCoordinates,Original*%
%TF.FileFunction,Legend,Bot*%
%TF.FilePolarity,Positive*%
%FSLAX46Y46*%
G04 Gerber Fmt 4.6, Leading zero omitted, Abs format (unit mm)*
G04 Created by KiCad (PCBNEW 5.1.4-e60b266~84~ubuntu18.04.1) date 2019-08-25 19:58:04*
%MOMM*%
%LPD*%
G04 APERTURE LIST*
%ADD10C,0.150000*%
%ADD11C,0.100000*%
%ADD12C,0.120000*%
G04 APERTURE END LIST*
D10*
X182482476Y-51966761D02*
X182339619Y-52014380D01*
X182101523Y-52014380D01*
X182006285Y-51966761D01*
X181958666Y-51919142D01*
X181911047Y-51823904D01*
X181911047Y-51728666D01*
X181958666Y-51633428D01*
X182006285Y-51585809D01*
X182101523Y-51538190D01*
X182292000Y-51490571D01*
X182387238Y-51442952D01*
X182434857Y-51395333D01*
X182482476Y-51300095D01*
X182482476Y-51204857D01*
X182434857Y-51109619D01*
X182387238Y-51062000D01*
X182292000Y-51014380D01*
X182053904Y-51014380D01*
X181911047Y-51062000D01*
X181101523Y-51966761D02*
X181196761Y-52014380D01*
X181387238Y-52014380D01*
X181482476Y-51966761D01*
X181530095Y-51871523D01*
X181530095Y-51490571D01*
X181482476Y-51395333D01*
X181387238Y-51347714D01*
X181196761Y-51347714D01*
X181101523Y-51395333D01*
X181053904Y-51490571D01*
X181053904Y-51585809D01*
X181530095Y-51681047D01*
X180625333Y-52014380D02*
X180625333Y-51347714D01*
X180625333Y-51538190D02*
X180577714Y-51442952D01*
X180530095Y-51395333D01*
X180434857Y-51347714D01*
X180339619Y-51347714D01*
X180006285Y-52014380D02*
X180006285Y-51347714D01*
X180006285Y-51014380D02*
X180053904Y-51062000D01*
X180006285Y-51109619D01*
X179958666Y-51062000D01*
X180006285Y-51014380D01*
X180006285Y-51109619D01*
X179101523Y-52014380D02*
X179101523Y-51490571D01*
X179149142Y-51395333D01*
X179244380Y-51347714D01*
X179434857Y-51347714D01*
X179530095Y-51395333D01*
X179101523Y-51966761D02*
X179196761Y-52014380D01*
X179434857Y-52014380D01*
X179530095Y-51966761D01*
X179577714Y-51871523D01*
X179577714Y-51776285D01*
X179530095Y-51681047D01*
X179434857Y-51633428D01*
X179196761Y-51633428D01*
X179101523Y-51585809D01*
X178482476Y-52014380D02*
X178577714Y-51966761D01*
X178625333Y-51871523D01*
X178625333Y-51014380D01*
X177339619Y-52014380D02*
X177339619Y-51014380D01*
X176768190Y-52014380D01*
X176768190Y-51014380D01*
X175863428Y-51347714D02*
X175863428Y-52014380D01*
X176292000Y-51347714D02*
X176292000Y-51871523D01*
X176244380Y-51966761D01*
X176149142Y-52014380D01*
X176006285Y-52014380D01*
X175911047Y-51966761D01*
X175863428Y-51919142D01*
X175387238Y-52014380D02*
X175387238Y-51347714D01*
X175387238Y-51442952D02*
X175339619Y-51395333D01*
X175244380Y-51347714D01*
X175101523Y-51347714D01*
X175006285Y-51395333D01*
X174958666Y-51490571D01*
X174958666Y-52014380D01*
X174958666Y-51490571D02*
X174911047Y-51395333D01*
X174815809Y-51347714D01*
X174672952Y-51347714D01*
X174577714Y-51395333D01*
X174530095Y-51490571D01*
X174530095Y-52014380D01*
X174053904Y-52014380D02*
X174053904Y-51014380D01*
X174053904Y-51395333D02*
X173958666Y-51347714D01*
X173768190Y-51347714D01*
X173672952Y-51395333D01*
X173625333Y-51442952D01*
X173577714Y-51538190D01*
X173577714Y-51823904D01*
X173625333Y-51919142D01*
X173672952Y-51966761D01*
X173768190Y-52014380D01*
X173958666Y-52014380D01*
X174053904Y-51966761D01*
X172768190Y-51966761D02*
X172863428Y-52014380D01*
X173053904Y-52014380D01*
X173149142Y-51966761D01*
X173196761Y-51871523D01*
X173196761Y-51490571D01*
X173149142Y-51395333D01*
X173053904Y-51347714D01*
X172863428Y-51347714D01*
X172768190Y-51395333D01*
X172720571Y-51490571D01*
X172720571Y-51585809D01*
X173196761Y-51681047D01*
X172292000Y-52014380D02*
X172292000Y-51347714D01*
X172292000Y-51538190D02*
X172244380Y-51442952D01*
X172196761Y-51395333D01*
X172101523Y-51347714D01*
X172006285Y-51347714D01*
D11*
G36*
X183134000Y-60960000D02*
G01*
X138684000Y-60960000D01*
X138684000Y-52578000D01*
X183134000Y-52565300D01*
X183134000Y-60960000D01*
G37*
X183134000Y-60960000D02*
X138684000Y-60960000D01*
X138684000Y-52578000D01*
X183134000Y-52565300D01*
X183134000Y-60960000D01*
D10*
X62992000Y-82550000D02*
G75*
G02X58674000Y-78232000I0J4318000D01*
G01*
X58674000Y-32258000D02*
G75*
G02X62992000Y-27940000I4318000J0D01*
G01*
X189992000Y-27940000D02*
G75*
G02X194310000Y-32258000I0J-4318000D01*
G01*
X194310000Y-78232000D02*
G75*
G02X189992000Y-82550000I-4318000J0D01*
G01*
X62992000Y-27940000D02*
X189992000Y-27940000D01*
X58674000Y-32258000D02*
X58674000Y-78232000D01*
X62992000Y-82550000D02*
X189992000Y-82550000D01*
X194310000Y-32258000D02*
X194310000Y-78232000D01*
D12*
X107890000Y-74870000D02*
X107890000Y-77470000D01*
X107890000Y-74870000D02*
X138490000Y-74870000D01*
X138490000Y-74870000D02*
X138490000Y-80070000D01*
X110490000Y-80070000D02*
X138490000Y-80070000D01*
X110490000Y-77470000D02*
X110490000Y-80070000D01*
X107890000Y-77470000D02*
X110490000Y-77470000D01*
X107890000Y-80070000D02*
X109220000Y-80070000D01*
X107890000Y-78740000D02*
X107890000Y-80070000D01*
X111835400Y-35144200D02*
X110435400Y-35144200D01*
X109735400Y-35844200D02*
X109735400Y-36444200D01*
X110435400Y-37144200D02*
X111835400Y-37144200D01*
X112535400Y-36444200D02*
X112535400Y-35844200D01*
X112535400Y-35844200D02*
G75*
G03X111835400Y-35144200I-700000J0D01*
G01*
X111835400Y-37144200D02*
G75*
G03X112535400Y-36444200I0J700000D01*
G01*
X109735400Y-36444200D02*
G75*
G03X110435400Y-37144200I700000J0D01*
G01*
X110435400Y-35144200D02*
G75*
G03X109735400Y-35844200I0J-700000D01*
G01*
X107890000Y-29150000D02*
X107890000Y-31750000D01*
X107890000Y-29150000D02*
X138490000Y-29150000D01*
X138490000Y-29150000D02*
X138490000Y-34350000D01*
X110490000Y-34350000D02*
X138490000Y-34350000D01*
X110490000Y-31750000D02*
X110490000Y-34350000D01*
X107890000Y-31750000D02*
X110490000Y-31750000D01*
X107890000Y-34350000D02*
X109220000Y-34350000D01*
X107890000Y-33020000D02*
X107890000Y-34350000D01*
X187960000Y-41850000D02*
X186630000Y-41850000D01*
X186630000Y-41850000D02*
X186630000Y-43180000D01*
X189230000Y-41850000D02*
X189230000Y-44450000D01*
X189230000Y-44450000D02*
X186630000Y-44450000D01*
X186630000Y-44450000D02*
X186630000Y-72450000D01*
X191830000Y-72450000D02*
X186630000Y-72450000D01*
X191830000Y-41850000D02*
X191830000Y-72450000D01*
X191830000Y-41850000D02*
X189230000Y-41850000D01*
D10*
X109971103Y-73391780D02*
X109971103Y-74106066D01*
X110018722Y-74248923D01*
X110113960Y-74344161D01*
X110256818Y-74391780D01*
X110352056Y-74391780D01*
X108971103Y-74391780D02*
X109542532Y-74391780D01*
X109256818Y-74391780D02*
X109256818Y-73391780D01*
X109352056Y-73534638D01*
X109447294Y-73629876D01*
X109542532Y-73677495D01*
X108352056Y-73391780D02*
X108256818Y-73391780D01*
X108161580Y-73439400D01*
X108113960Y-73487019D01*
X108066341Y-73582257D01*
X108018722Y-73772733D01*
X108018722Y-74010828D01*
X108066341Y-74201304D01*
X108113960Y-74296542D01*
X108161580Y-74344161D01*
X108256818Y-74391780D01*
X108352056Y-74391780D01*
X108447294Y-74344161D01*
X108494913Y-74296542D01*
X108542532Y-74201304D01*
X108590151Y-74010828D01*
X108590151Y-73772733D01*
X108542532Y-73582257D01*
X108494913Y-73487019D01*
X108447294Y-73439400D01*
X108352056Y-73391780D01*
X111968733Y-33796580D02*
X111968733Y-34510866D01*
X112016352Y-34653723D01*
X112111590Y-34748961D01*
X112254447Y-34796580D01*
X112349685Y-34796580D01*
X111492542Y-34796580D02*
X111492542Y-33796580D01*
X111111590Y-33796580D01*
X111016352Y-33844200D01*
X110968733Y-33891819D01*
X110921114Y-33987057D01*
X110921114Y-34129914D01*
X110968733Y-34225152D01*
X111016352Y-34272771D01*
X111111590Y-34320390D01*
X111492542Y-34320390D01*
X110016352Y-33796580D02*
X110492542Y-33796580D01*
X110540161Y-34272771D01*
X110492542Y-34225152D01*
X110397304Y-34177533D01*
X110159209Y-34177533D01*
X110063971Y-34225152D01*
X110016352Y-34272771D01*
X109968733Y-34368009D01*
X109968733Y-34606104D01*
X110016352Y-34701342D01*
X110063971Y-34748961D01*
X110159209Y-34796580D01*
X110397304Y-34796580D01*
X110492542Y-34748961D01*
X110540161Y-34701342D01*
X140038413Y-31657040D02*
X140038413Y-32371326D01*
X140086032Y-32514183D01*
X140181270Y-32609421D01*
X140324127Y-32657040D01*
X140419365Y-32657040D01*
X139514603Y-32657040D02*
X139324127Y-32657040D01*
X139228889Y-32609421D01*
X139181270Y-32561802D01*
X139086032Y-32418945D01*
X139038413Y-32228469D01*
X139038413Y-31847517D01*
X139086032Y-31752279D01*
X139133651Y-31704660D01*
X139228889Y-31657040D01*
X139419365Y-31657040D01*
X139514603Y-31704660D01*
X139562222Y-31752279D01*
X139609841Y-31847517D01*
X139609841Y-32085612D01*
X139562222Y-32180850D01*
X139514603Y-32228469D01*
X139419365Y-32276088D01*
X139228889Y-32276088D01*
X139133651Y-32228469D01*
X139086032Y-32180850D01*
X139038413Y-32085612D01*
X189487133Y-40209220D02*
X189487133Y-40923506D01*
X189534752Y-41066363D01*
X189629990Y-41161601D01*
X189772847Y-41209220D01*
X189868085Y-41209220D01*
X188582371Y-40209220D02*
X188772847Y-40209220D01*
X188868085Y-40256840D01*
X188915704Y-40304459D01*
X189010942Y-40447316D01*
X189058561Y-40637792D01*
X189058561Y-41018744D01*
X189010942Y-41113982D01*
X188963323Y-41161601D01*
X188868085Y-41209220D01*
X188677609Y-41209220D01*
X188582371Y-41161601D01*
X188534752Y-41113982D01*
X188487133Y-41018744D01*
X188487133Y-40780649D01*
X188534752Y-40685411D01*
X188582371Y-40637792D01*
X188677609Y-40590173D01*
X188868085Y-40590173D01*
X188963323Y-40637792D01*
X189010942Y-40685411D01*
X189058561Y-40780649D01*
M02*
