M48
; DRILL file {KiCad 5.1.4-e60b266~84~ubuntu18.04.1} date dom 25 ago 2019 19:57:45 -03
; FORMAT={-:-/ absolute / inch / decimal}
; #@! TF.CreationDate,2019-08-25T19:57:45-03:00
; #@! TF.GenerationSoftware,Kicad,Pcbnew,5.1.4-e60b266~84~ubuntu18.04.1
FMAT,2
INCH
T1C0.0157
T2C0.0197
T3C0.0350
T4C0.0354
T5C0.0362
T6C0.0390
T7C0.0394
T8C0.0472
T9C0.0512
T10C0.0531
T11C0.0630
T12C0.0917
T13C0.1260
T14C0.1280
%
G90
G05
T1
X2.34Y-1.75
X2.34Y-1.83
X2.34Y-1.91
X2.37Y-1.8
X2.39Y-1.75
X2.42Y-1.8
X2.44Y-1.75
X2.4593Y-2.3314
X2.47Y-1.8
X2.49Y-1.75
X2.52Y-1.8
X2.54Y-1.75
X2.57Y-1.8
X2.5843Y-2.1904
X2.59Y-1.75
X2.62Y-1.8
X2.6277Y-2.233
X2.6283Y-2.1934
X2.64Y-1.75
X2.66Y-1.83
X2.66Y-1.88
X2.66Y-1.93
X2.66Y-1.98
X2.6793Y-2.1114
X2.6798Y-2.3209
X2.68Y-1.78
X2.6802Y-2.2205
X2.71Y-1.83
X2.71Y-1.88
X2.71Y-1.93
X2.71Y-1.98
X2.7333Y-2.3764
X2.7533Y-2.0974
X2.7558Y-2.2184
X2.7558Y-2.3244
X2.8093Y-2.2744
X2.8098Y-2.1624
X2.942Y-2.206
X3.018Y-2.207
X3.442Y-2.029
X3.4576Y-1.8786
X3.4863Y-1.9193
X3.665Y-1.972
X4.295Y-1.775
X4.2989Y-1.8921
X4.3013Y-1.9543
X4.3206Y-1.6894
X4.3996Y-2.0875
X4.4004Y-2.1778
X4.598Y-2.536
X4.6182Y-1.8326
X4.6279Y-1.742
X4.6931Y-1.4629
X4.6937Y-1.5367
X4.6955Y-2.1448
X4.7245Y-2.703
X4.7492Y-2.0282
X4.7515Y-2.49
X4.7539Y-1.6424
X4.7603Y-2.3837
X4.784Y-1.5364
X4.7847Y-1.4626
X4.8233Y-1.4626
X4.8247Y-1.5364
X4.8603Y-2.1927
X4.8652Y-2.321
X4.8727Y-2.2516
X4.8825Y-1.9622
X4.8833Y-1.7948
X4.8868Y-1.8379
X4.9111Y-2.1246
X4.9251Y-1.739
X4.9429Y-1.6658
X4.9503Y-1.894
X4.9641Y-2.0719
X4.9738Y-1.7875
X4.9971Y-1.7139
X5.0127Y-1.648
X5.0138Y-2.1241
X5.0463Y-2.4607
X5.1235Y-2.7401
X5.1628Y-2.0443
X5.1696Y-2.1146
X5.1966Y-2.7388
X5.2103Y-1.9995
X5.2133Y-1.9329
X5.2419Y-2.2483
X5.2907Y-2.4001
X5.2919Y-2.8207
X5.2951Y-1.9008
X5.3379Y-2.7001
X5.3382Y-2.1221
X5.3386Y-2.7739
X5.3548Y-1.7352
X5.3556Y-1.9329
X5.3564Y-2.3588
X5.3789Y-2.8155
X5.3899Y-2.2378
X5.3945Y-1.6759
X5.41Y-1.547
X5.4233Y-2.3996
X5.4264Y-2.6996
X5.4306Y-2.8931
X5.44Y-2.465
X5.4588Y-2.6042
X5.461Y-2.526
X5.471Y-1.511
X5.4793Y-2.8495
X5.4962Y-2.9147
X5.503Y-2.456
X5.5135Y-1.6343
X5.551Y-3.04
X5.5584Y-2.7291
X5.5625Y-2.905
X5.5682Y-2.8633
X5.5705Y-2.4353
X5.578Y-2.975
X5.7295Y-1.6192
X5.7512Y-2.7588
X5.83Y-1.612
X5.831Y-1.213
X5.845Y-1.748
X5.8574Y-2.7959
X5.8574Y-2.8748
X5.8973Y-2.0484
X5.913Y-1.214
X5.913Y-1.615
X5.9289Y-2.5651
X5.93Y-2.418
X5.99Y-2.5
X5.995Y-2.42
X6.1007Y-1.7662
X6.109Y-1.538
X6.178Y-2.943
X6.23Y-1.8102
X6.3853Y-1.7753
X6.4267Y-1.7753
X6.4954Y-1.9896
X6.4961Y-1.9393
X6.6991Y-2.0276
X6.862Y-3.006
X6.9322Y-3.1326
X6.9322Y-3.1702
X6.933Y-2.784
X6.962Y-2.9557
X6.9654Y-1.4423
X6.9667Y-3.1805
X7.0023Y-1.4423
X7.042Y-2.409
X7.0423Y-1.4423
X7.0823Y-1.4423
X7.1223Y-1.4423
X7.1707Y-1.7782
X7.1816Y-1.8812
X7.1999Y-1.749
T2
X7.3855Y-3.08
X7.4132Y-3.0132
X7.4132Y-3.1468
X7.48Y-2.9855
X7.48Y-3.1745
X7.5468Y-3.0132
X7.5468Y-3.1468
X7.5745Y-3.08
X2.3855Y-1.27
X2.4132Y-1.2032
X2.4132Y-1.3368
X2.48Y-1.1755
X2.48Y-1.3645
X2.5468Y-1.2032
X2.5468Y-1.3368
X2.5745Y-1.27
X7.3855Y-1.27
X7.4132Y-1.2032
X7.4132Y-1.3368
X7.48Y-1.1755
X7.48Y-1.3645
X7.5468Y-1.2032
X7.5468Y-1.3368
X7.5745Y-1.27
X2.3855Y-3.08
X2.4132Y-3.0132
X2.4132Y-3.1468
X2.48Y-2.9855
X2.48Y-3.1745
X2.5468Y-3.0132
X2.5468Y-3.1468
X2.5745Y-3.08
T3
X6.2688Y-3.0046
X6.3688Y-2.9448
X6.6668Y-3.0046
X6.7668Y-2.9448
T4
X6.3428Y-2.5621
X6.3928Y-2.4621
X6.4428Y-2.5621
X6.4928Y-2.4621
X6.5428Y-2.5621
X6.5928Y-2.4621
X6.6428Y-2.5621
X6.6928Y-2.4621
T5
X6.3762Y-1.557
X6.3762Y-1.6357
X6.4746Y-1.557
X6.4746Y-1.6357
X7.165Y-2.5623
X7.165Y-2.641
X7.165Y-2.7197
X7.165Y-2.7985
X7.0277Y-1.557
X7.0277Y-1.6357
X7.1261Y-1.557
X7.1261Y-1.6357
T6
X5.8148Y-3.155
X5.992Y-3.155
X3.8103Y-3.155
X3.9875Y-3.155
T7
X4.5975Y-1.6636
X6.0132Y-1.9095
X6.0132Y-2.0095
X6.1132Y-1.9095
X6.1132Y-2.0095
X3.2Y-2.7
X3.2Y-2.8
X3.3Y-2.7
X3.3Y-2.8
X3.4Y-2.7
X3.4Y-2.8
X3.5Y-2.7
X3.5Y-2.8
X3.6Y-2.7
X3.6Y-2.8
X4.4769Y-2.3255
X3.2Y-3.0
X3.2Y-3.1
X3.3Y-3.0
X3.3Y-3.1
X3.4Y-3.0
X3.4Y-3.1
X3.5Y-3.0
X3.5Y-3.1
X3.6Y-3.0
X3.6Y-3.1
X4.3Y-1.2
X4.3Y-1.3
X4.4Y-1.2
X4.4Y-1.3
X4.5Y-1.2
X4.5Y-1.3
X4.6Y-1.2
X4.6Y-1.3
X4.7Y-1.2
X4.7Y-1.3
X4.8Y-1.2
X4.8Y-1.3
X4.9Y-1.2
X4.9Y-1.3
X5.0Y-1.2
X5.0Y-1.3
X5.1Y-1.2
X5.1Y-1.3
X5.2Y-1.2
X5.2Y-1.3
X5.3Y-1.2
X5.3Y-1.3
X5.4Y-1.2
X5.4Y-1.3
X6.7589Y-1.7878
X6.7589Y-1.8878
X6.8589Y-1.7878
X6.8589Y-1.8878
X6.9589Y-1.7878
X6.9589Y-1.8878
X7.4Y-1.7
X7.4Y-1.8
X7.4Y-1.9
X7.4Y-2.0
X7.4Y-2.1
X7.4Y-2.2
X7.4Y-2.3
X7.4Y-2.4
X7.4Y-2.5
X7.4Y-2.6
X7.4Y-2.7
X7.4Y-2.8
X7.5Y-1.7
X7.5Y-1.8
X7.5Y-1.9
X7.5Y-2.0
X7.5Y-2.1
X7.5Y-2.2
X7.5Y-2.3
X7.5Y-2.4
X7.5Y-2.5
X7.5Y-2.6
X7.5Y-2.7
X7.5Y-2.8
X4.3Y-3.0
X4.3Y-3.1
X4.4Y-3.0
X4.4Y-3.1
X4.5Y-3.0
X4.5Y-3.1
X4.6Y-3.0
X4.6Y-3.1
X4.7Y-3.0
X4.7Y-3.1
X4.8Y-3.0
X4.8Y-3.1
X4.9Y-3.0
X4.9Y-3.1
X5.0Y-3.0
X5.0Y-3.1
X5.1Y-3.0
X5.1Y-3.1
X5.2Y-3.0
X5.2Y-3.1
X5.3Y-3.0
X5.3Y-3.1
X5.4Y-3.0
X5.4Y-3.1
X4.0531Y-1.5325
X4.1531Y-1.5325
T8
X2.7837Y-1.4181
X2.9837Y-1.4181
X3.1837Y-1.4181
X3.3837Y-1.4181
X3.5837Y-1.4181
X3.7837Y-1.4181
X2.7796Y-2.9367
X2.9796Y-2.9367
T9
X5.7652Y-3.057
X6.0412Y-3.057
X3.7607Y-3.057
X4.0367Y-3.057
T10
X7.0579Y-2.5516
X7.0579Y-2.8272
X7.2721Y-2.5516
X7.2721Y-2.8272
T11
X6.2117Y-2.6916
X6.8239Y-2.6916
T12
X6.1884Y-1.4503
X6.6624Y-1.4503
X6.8399Y-1.4503
X7.3139Y-1.4503
T13
X7.48Y-3.08
X2.48Y-1.27
X7.48Y-1.27
X2.48Y-3.08
T14
X6.2928Y-2.8117
X6.7428Y-2.8117
T0
M30
