G04 #@! TF.GenerationSoftware,KiCad,Pcbnew,(5.1.2)-1*
G04 #@! TF.CreationDate,2019-05-26T17:54:30-03:00*
G04 #@! TF.ProjectId,dragonmanh7,64726167-6f6e-46d6-916e-68372e6b6963,rev?*
G04 #@! TF.SameCoordinates,Original*
G04 #@! TF.FileFunction,Legend,Bot*
G04 #@! TF.FilePolarity,Positive*
%FSLAX46Y46*%
G04 Gerber Fmt 4.6, Leading zero omitted, Abs format (unit mm)*
G04 Created by KiCad (PCBNEW (5.1.2)-1) date 2019-05-26 17:54:30*
%MOMM*%
%LPD*%
G04 APERTURE LIST*
%ADD10C,0.150000*%
%ADD11C,0.100000*%
%ADD12C,0.120000*%
G04 APERTURE END LIST*
D10*
X183225864Y-50000801D02*
X183083007Y-50048420D01*
X182844911Y-50048420D01*
X182749673Y-50000801D01*
X182702054Y-49953182D01*
X182654435Y-49857944D01*
X182654435Y-49762706D01*
X182702054Y-49667468D01*
X182749673Y-49619849D01*
X182844911Y-49572230D01*
X183035388Y-49524611D01*
X183130626Y-49476992D01*
X183178245Y-49429373D01*
X183225864Y-49334135D01*
X183225864Y-49238897D01*
X183178245Y-49143659D01*
X183130626Y-49096040D01*
X183035388Y-49048420D01*
X182797292Y-49048420D01*
X182654435Y-49096040D01*
X181844911Y-50000801D02*
X181940149Y-50048420D01*
X182130626Y-50048420D01*
X182225864Y-50000801D01*
X182273483Y-49905563D01*
X182273483Y-49524611D01*
X182225864Y-49429373D01*
X182130626Y-49381754D01*
X181940149Y-49381754D01*
X181844911Y-49429373D01*
X181797292Y-49524611D01*
X181797292Y-49619849D01*
X182273483Y-49715087D01*
X181368721Y-50048420D02*
X181368721Y-49381754D01*
X181368721Y-49572230D02*
X181321102Y-49476992D01*
X181273483Y-49429373D01*
X181178245Y-49381754D01*
X181083007Y-49381754D01*
X180749673Y-50048420D02*
X180749673Y-49381754D01*
X180749673Y-49048420D02*
X180797292Y-49096040D01*
X180749673Y-49143659D01*
X180702054Y-49096040D01*
X180749673Y-49048420D01*
X180749673Y-49143659D01*
X179844911Y-50048420D02*
X179844911Y-49524611D01*
X179892530Y-49429373D01*
X179987768Y-49381754D01*
X180178245Y-49381754D01*
X180273483Y-49429373D01*
X179844911Y-50000801D02*
X179940149Y-50048420D01*
X180178245Y-50048420D01*
X180273483Y-50000801D01*
X180321102Y-49905563D01*
X180321102Y-49810325D01*
X180273483Y-49715087D01*
X180178245Y-49667468D01*
X179940149Y-49667468D01*
X179844911Y-49619849D01*
X179225864Y-50048420D02*
X179321102Y-50000801D01*
X179368721Y-49905563D01*
X179368721Y-49048420D01*
X178083007Y-50048420D02*
X178083007Y-49048420D01*
X177511578Y-50048420D01*
X177511578Y-49048420D01*
X176606816Y-49381754D02*
X176606816Y-50048420D01*
X177035388Y-49381754D02*
X177035388Y-49905563D01*
X176987768Y-50000801D01*
X176892530Y-50048420D01*
X176749673Y-50048420D01*
X176654435Y-50000801D01*
X176606816Y-49953182D01*
X176130626Y-50048420D02*
X176130626Y-49381754D01*
X176130626Y-49476992D02*
X176083007Y-49429373D01*
X175987768Y-49381754D01*
X175844911Y-49381754D01*
X175749673Y-49429373D01*
X175702054Y-49524611D01*
X175702054Y-50048420D01*
X175702054Y-49524611D02*
X175654435Y-49429373D01*
X175559197Y-49381754D01*
X175416340Y-49381754D01*
X175321102Y-49429373D01*
X175273483Y-49524611D01*
X175273483Y-50048420D01*
X174797292Y-50048420D02*
X174797292Y-49048420D01*
X174797292Y-49429373D02*
X174702054Y-49381754D01*
X174511578Y-49381754D01*
X174416340Y-49429373D01*
X174368721Y-49476992D01*
X174321102Y-49572230D01*
X174321102Y-49857944D01*
X174368721Y-49953182D01*
X174416340Y-50000801D01*
X174511578Y-50048420D01*
X174702054Y-50048420D01*
X174797292Y-50000801D01*
X173511578Y-50000801D02*
X173606816Y-50048420D01*
X173797292Y-50048420D01*
X173892530Y-50000801D01*
X173940149Y-49905563D01*
X173940149Y-49524611D01*
X173892530Y-49429373D01*
X173797292Y-49381754D01*
X173606816Y-49381754D01*
X173511578Y-49429373D01*
X173463959Y-49524611D01*
X173463959Y-49619849D01*
X173940149Y-49715087D01*
X173035388Y-50048420D02*
X173035388Y-49381754D01*
X173035388Y-49572230D02*
X172987768Y-49476992D01*
X172940149Y-49429373D01*
X172844911Y-49381754D01*
X172749673Y-49381754D01*
D11*
G36*
X183441340Y-60025280D02*
G01*
X138610340Y-60025280D01*
X138610340Y-50650140D01*
X183441340Y-50650140D01*
X183441340Y-60025280D01*
G37*
X183441340Y-60025280D02*
X138610340Y-60025280D01*
X138610340Y-50650140D01*
X183441340Y-50650140D01*
X183441340Y-60025280D01*
D12*
X117794000Y-38370000D02*
X116394000Y-38370000D01*
X115694000Y-39070000D02*
X115694000Y-39670000D01*
X116394000Y-40370000D02*
X117794000Y-40370000D01*
X118494000Y-39670000D02*
X118494000Y-39070000D01*
X118494000Y-39070000D02*
G75*
G03X117794000Y-38370000I-700000J0D01*
G01*
X117794000Y-40370000D02*
G75*
G03X118494000Y-39670000I0J700000D01*
G01*
X115694000Y-39670000D02*
G75*
G03X116394000Y-40370000I700000J0D01*
G01*
X116394000Y-38370000D02*
G75*
G03X115694000Y-39070000I0J-700000D01*
G01*
X115510000Y-29150000D02*
X115510000Y-31750000D01*
X115510000Y-29150000D02*
X146110000Y-29150000D01*
X146110000Y-29150000D02*
X146110000Y-34350000D01*
X118110000Y-34350000D02*
X146110000Y-34350000D01*
X118110000Y-31750000D02*
X118110000Y-34350000D01*
X115510000Y-31750000D02*
X118110000Y-31750000D01*
X115510000Y-34350000D02*
X116840000Y-34350000D01*
X115510000Y-33020000D02*
X115510000Y-34350000D01*
X115510000Y-74870000D02*
X115510000Y-77470000D01*
X115510000Y-74870000D02*
X146110000Y-74870000D01*
X146110000Y-74870000D02*
X146110000Y-80070000D01*
X118110000Y-80070000D02*
X146110000Y-80070000D01*
X118110000Y-77470000D02*
X118110000Y-80070000D01*
X115510000Y-77470000D02*
X118110000Y-77470000D01*
X115510000Y-80070000D02*
X116840000Y-80070000D01*
X115510000Y-78740000D02*
X115510000Y-80070000D01*
X185420000Y-39310000D02*
X184090000Y-39310000D01*
X184090000Y-39310000D02*
X184090000Y-40640000D01*
X186690000Y-39310000D02*
X186690000Y-41910000D01*
X186690000Y-41910000D02*
X184090000Y-41910000D01*
X184090000Y-41910000D02*
X184090000Y-69910000D01*
X189290000Y-69910000D02*
X184090000Y-69910000D01*
X189290000Y-39310000D02*
X189290000Y-69910000D01*
X189290000Y-39310000D02*
X186690000Y-39310000D01*
D10*
X117927333Y-37022380D02*
X117927333Y-37736666D01*
X117974952Y-37879523D01*
X118070190Y-37974761D01*
X118213047Y-38022380D01*
X118308285Y-38022380D01*
X117451142Y-38022380D02*
X117451142Y-37022380D01*
X117070190Y-37022380D01*
X116974952Y-37070000D01*
X116927333Y-37117619D01*
X116879714Y-37212857D01*
X116879714Y-37355714D01*
X116927333Y-37450952D01*
X116974952Y-37498571D01*
X117070190Y-37546190D01*
X117451142Y-37546190D01*
X115974952Y-37022380D02*
X116451142Y-37022380D01*
X116498761Y-37498571D01*
X116451142Y-37450952D01*
X116355904Y-37403333D01*
X116117809Y-37403333D01*
X116022571Y-37450952D01*
X115974952Y-37498571D01*
X115927333Y-37593809D01*
X115927333Y-37831904D01*
X115974952Y-37927142D01*
X116022571Y-37974761D01*
X116117809Y-38022380D01*
X116355904Y-38022380D01*
X116451142Y-37974761D01*
X116498761Y-37927142D01*
X147658413Y-31657040D02*
X147658413Y-32371326D01*
X147706032Y-32514183D01*
X147801270Y-32609421D01*
X147944127Y-32657040D01*
X148039365Y-32657040D01*
X147134603Y-32657040D02*
X146944127Y-32657040D01*
X146848889Y-32609421D01*
X146801270Y-32561802D01*
X146706032Y-32418945D01*
X146658413Y-32228469D01*
X146658413Y-31847517D01*
X146706032Y-31752279D01*
X146753651Y-31704660D01*
X146848889Y-31657040D01*
X147039365Y-31657040D01*
X147134603Y-31704660D01*
X147182222Y-31752279D01*
X147229841Y-31847517D01*
X147229841Y-32085612D01*
X147182222Y-32180850D01*
X147134603Y-32228469D01*
X147039365Y-32276088D01*
X146848889Y-32276088D01*
X146753651Y-32228469D01*
X146706032Y-32180850D01*
X146658413Y-32085612D01*
X117591103Y-73391780D02*
X117591103Y-74106066D01*
X117638722Y-74248923D01*
X117733960Y-74344161D01*
X117876818Y-74391780D01*
X117972056Y-74391780D01*
X116591103Y-74391780D02*
X117162532Y-74391780D01*
X116876818Y-74391780D02*
X116876818Y-73391780D01*
X116972056Y-73534638D01*
X117067294Y-73629876D01*
X117162532Y-73677495D01*
X115972056Y-73391780D02*
X115876818Y-73391780D01*
X115781580Y-73439400D01*
X115733960Y-73487019D01*
X115686341Y-73582257D01*
X115638722Y-73772733D01*
X115638722Y-74010828D01*
X115686341Y-74201304D01*
X115733960Y-74296542D01*
X115781580Y-74344161D01*
X115876818Y-74391780D01*
X115972056Y-74391780D01*
X116067294Y-74344161D01*
X116114913Y-74296542D01*
X116162532Y-74201304D01*
X116210151Y-74010828D01*
X116210151Y-73772733D01*
X116162532Y-73582257D01*
X116114913Y-73487019D01*
X116067294Y-73439400D01*
X115972056Y-73391780D01*
X186947133Y-37669220D02*
X186947133Y-38383506D01*
X186994752Y-38526363D01*
X187089990Y-38621601D01*
X187232847Y-38669220D01*
X187328085Y-38669220D01*
X186042371Y-37669220D02*
X186232847Y-37669220D01*
X186328085Y-37716840D01*
X186375704Y-37764459D01*
X186470942Y-37907316D01*
X186518561Y-38097792D01*
X186518561Y-38478744D01*
X186470942Y-38573982D01*
X186423323Y-38621601D01*
X186328085Y-38669220D01*
X186137609Y-38669220D01*
X186042371Y-38621601D01*
X185994752Y-38573982D01*
X185947133Y-38478744D01*
X185947133Y-38240649D01*
X185994752Y-38145411D01*
X186042371Y-38097792D01*
X186137609Y-38050173D01*
X186328085Y-38050173D01*
X186423323Y-38097792D01*
X186470942Y-38145411D01*
X186518561Y-38240649D01*
M02*
