%TF.GenerationSoftware,KiCad,Pcbnew,5.1.6-c6e7f7d~87~ubuntu20.04.1*%
%TF.CreationDate,2020-09-03T14:23:14-03:00*%
%TF.ProjectId,dragonmanh7,64726167-6f6e-46d6-916e-68372e6b6963,rev?*%
%TF.SameCoordinates,Original*%
%TF.FileFunction,Paste,Top*%
%TF.FilePolarity,Positive*%
%FSLAX46Y46*%
G04 Gerber Fmt 4.6, Leading zero omitted, Abs format (unit mm)*
G04 Created by KiCad (PCBNEW 5.1.6-c6e7f7d~87~ubuntu20.04.1) date 2020-09-03 14:23:14*
%MOMM*%
%LPD*%
G01*
G04 APERTURE LIST*
%TA.AperFunction,Profile*%
%ADD10C,0.150000*%
%TD*%
%ADD11C,0.150000*%
%ADD12R,3.050000X2.750000*%
%ADD13R,2.200000X1.200000*%
%ADD14R,1.100000X1.100000*%
%ADD15R,0.700000X1.000000*%
%ADD16R,0.239283X0.761066*%
%ADD17R,0.300000X1.160000*%
%ADD18R,0.600000X1.160000*%
%ADD19R,0.600000X1.100000*%
%ADD20R,0.533400X1.473200*%
%ADD21R,1.000000X1.550000*%
%ADD22R,1.500000X1.500000*%
%ADD23R,0.700000X1.750000*%
%ADD24R,0.800000X1.400000*%
%ADD25R,1.450000X1.000000*%
%ADD26R,0.800000X1.500000*%
%ADD27R,1.300000X1.500000*%
%ADD28R,0.400000X1.060000*%
%ADD29R,0.650000X1.060000*%
%ADD30R,1.450000X0.450000*%
%ADD31R,5.700000X2.000000*%
%ADD32R,0.650000X1.220000*%
%ADD33R,0.600000X1.550000*%
%ADD34R,0.800000X0.900000*%
%ADD35R,2.000000X2.400000*%
%ADD36R,2.400000X2.000000*%
%ADD37R,1.800000X1.000000*%
%ADD38R,1.500000X0.280000*%
%ADD39R,0.280000X1.500000*%
G04 APERTURE END LIST*
D10*
X62992000Y-82550000D02*
G75*
G02*
X58674000Y-78232000I0J4318000D01*
G01*
X58674000Y-32258000D02*
G75*
G02*
X62992000Y-27940000I4318000J0D01*
G01*
X189992000Y-27940000D02*
G75*
G02*
X194310000Y-32258000I0J-4318000D01*
G01*
X194310000Y-78232000D02*
G75*
G02*
X189992000Y-82550000I-4318000J0D01*
G01*
X62992000Y-27940000D02*
X189992000Y-27940000D01*
X58674000Y-32258000D02*
X58674000Y-78232000D01*
X62992000Y-82550000D02*
X189992000Y-82550000D01*
X194310000Y-32258000D02*
X194310000Y-78232000D01*
D11*
G36*
X143570193Y-66945007D02*
G01*
X143570193Y-68589391D01*
X141925809Y-68589391D01*
X141925809Y-66945007D01*
X143570193Y-66945007D01*
G37*
D12*
X83965600Y-63450200D03*
X87315600Y-60400200D03*
X83965600Y-60400200D03*
X87315600Y-63450200D03*
D13*
X79340600Y-64205200D03*
X79340600Y-59645200D03*
D14*
X185239200Y-37033200D03*
X188039200Y-37033200D03*
X72031400Y-62534800D03*
X74831400Y-62534800D03*
D15*
X75152000Y-71047000D03*
X71152000Y-71047000D03*
X71152000Y-65097000D03*
X75152000Y-65097000D03*
D14*
X174078900Y-36839700D03*
X174078900Y-39639700D03*
G36*
G01*
X79814000Y-56896950D02*
X79814000Y-57809450D01*
G75*
G02*
X79570250Y-58053200I-243750J0D01*
G01*
X79082750Y-58053200D01*
G75*
G02*
X78839000Y-57809450I0J243750D01*
G01*
X78839000Y-56896950D01*
G75*
G02*
X79082750Y-56653200I243750J0D01*
G01*
X79570250Y-56653200D01*
G75*
G02*
X79814000Y-56896950I0J-243750D01*
G01*
G37*
G36*
G01*
X81689000Y-56896950D02*
X81689000Y-57809450D01*
G75*
G02*
X81445250Y-58053200I-243750J0D01*
G01*
X80957750Y-58053200D01*
G75*
G02*
X80714000Y-57809450I0J243750D01*
G01*
X80714000Y-56896950D01*
G75*
G02*
X80957750Y-56653200I243750J0D01*
G01*
X81445250Y-56653200D01*
G75*
G02*
X81689000Y-56896950I0J-243750D01*
G01*
G37*
G36*
G01*
X77392850Y-61170400D02*
X76480350Y-61170400D01*
G75*
G02*
X76236600Y-60926650I0J243750D01*
G01*
X76236600Y-60439150D01*
G75*
G02*
X76480350Y-60195400I243750J0D01*
G01*
X77392850Y-60195400D01*
G75*
G02*
X77636600Y-60439150I0J-243750D01*
G01*
X77636600Y-60926650D01*
G75*
G02*
X77392850Y-61170400I-243750J0D01*
G01*
G37*
G36*
G01*
X77392850Y-63045400D02*
X76480350Y-63045400D01*
G75*
G02*
X76236600Y-62801650I0J243750D01*
G01*
X76236600Y-62314150D01*
G75*
G02*
X76480350Y-62070400I243750J0D01*
G01*
X77392850Y-62070400D01*
G75*
G02*
X77636600Y-62314150I0J-243750D01*
G01*
X77636600Y-62801650D01*
G75*
G02*
X77392850Y-63045400I-243750J0D01*
G01*
G37*
G36*
G01*
X144362640Y-66397559D02*
X144884424Y-66397559D01*
G75*
G02*
X145004065Y-66517200I0J-119641D01*
G01*
X145004065Y-66517200D01*
G75*
G02*
X144884424Y-66636841I-119641J0D01*
G01*
X144362640Y-66636841D01*
G75*
G02*
X144242999Y-66517200I0J119641D01*
G01*
X144242999Y-66517200D01*
G75*
G02*
X144362640Y-66397559I119641J0D01*
G01*
G37*
G36*
G01*
X144362640Y-66897559D02*
X144884424Y-66897559D01*
G75*
G02*
X145004065Y-67017200I0J-119641D01*
G01*
X145004065Y-67017200D01*
G75*
G02*
X144884424Y-67136841I-119641J0D01*
G01*
X144362640Y-67136841D01*
G75*
G02*
X144242999Y-67017200I0J119641D01*
G01*
X144242999Y-67017200D01*
G75*
G02*
X144362640Y-66897559I119641J0D01*
G01*
G37*
G36*
G01*
X144362640Y-67397559D02*
X144884424Y-67397559D01*
G75*
G02*
X145004065Y-67517200I0J-119641D01*
G01*
X145004065Y-67517200D01*
G75*
G02*
X144884424Y-67636841I-119641J0D01*
G01*
X144362640Y-67636841D01*
G75*
G02*
X144242999Y-67517200I0J119641D01*
G01*
X144242999Y-67517200D01*
G75*
G02*
X144362640Y-67397559I119641J0D01*
G01*
G37*
G36*
G01*
X144362640Y-67897560D02*
X144884424Y-67897560D01*
G75*
G02*
X145004065Y-68017201I0J-119641D01*
G01*
X145004065Y-68017201D01*
G75*
G02*
X144884424Y-68136842I-119641J0D01*
G01*
X144362640Y-68136842D01*
G75*
G02*
X144242999Y-68017201I0J119641D01*
G01*
X144242999Y-68017201D01*
G75*
G02*
X144362640Y-67897560I119641J0D01*
G01*
G37*
G36*
G01*
X144362640Y-68397560D02*
X144884424Y-68397560D01*
G75*
G02*
X145004065Y-68517201I0J-119641D01*
G01*
X145004065Y-68517201D01*
G75*
G02*
X144884424Y-68636842I-119641J0D01*
G01*
X144362640Y-68636842D01*
G75*
G02*
X144242999Y-68517201I0J119641D01*
G01*
X144242999Y-68517201D01*
G75*
G02*
X144362640Y-68397560I119641J0D01*
G01*
G37*
G36*
G01*
X144362640Y-68897560D02*
X144884424Y-68897560D01*
G75*
G02*
X145004065Y-69017201I0J-119641D01*
G01*
X145004065Y-69017201D01*
G75*
G02*
X144884424Y-69136842I-119641J0D01*
G01*
X144362640Y-69136842D01*
G75*
G02*
X144242999Y-69017201I0J119641D01*
G01*
X144242999Y-69017201D01*
G75*
G02*
X144362640Y-68897560I119641J0D01*
G01*
G37*
G36*
G01*
X140611576Y-68897560D02*
X141133360Y-68897560D01*
G75*
G02*
X141253001Y-69017201I0J-119641D01*
G01*
X141253001Y-69017201D01*
G75*
G02*
X141133360Y-69136842I-119641J0D01*
G01*
X140611576Y-69136842D01*
G75*
G02*
X140491935Y-69017201I0J119641D01*
G01*
X140491935Y-69017201D01*
G75*
G02*
X140611576Y-68897560I119641J0D01*
G01*
G37*
G36*
G01*
X140611576Y-68397560D02*
X141133360Y-68397560D01*
G75*
G02*
X141253001Y-68517201I0J-119641D01*
G01*
X141253001Y-68517201D01*
G75*
G02*
X141133360Y-68636842I-119641J0D01*
G01*
X140611576Y-68636842D01*
G75*
G02*
X140491935Y-68517201I0J119641D01*
G01*
X140491935Y-68517201D01*
G75*
G02*
X140611576Y-68397560I119641J0D01*
G01*
G37*
G36*
G01*
X140611576Y-67897560D02*
X141133360Y-67897560D01*
G75*
G02*
X141253001Y-68017201I0J-119641D01*
G01*
X141253001Y-68017201D01*
G75*
G02*
X141133360Y-68136842I-119641J0D01*
G01*
X140611576Y-68136842D01*
G75*
G02*
X140491935Y-68017201I0J119641D01*
G01*
X140491935Y-68017201D01*
G75*
G02*
X140611576Y-67897560I119641J0D01*
G01*
G37*
G36*
G01*
X140611576Y-67397559D02*
X141133360Y-67397559D01*
G75*
G02*
X141253001Y-67517200I0J-119641D01*
G01*
X141253001Y-67517200D01*
G75*
G02*
X141133360Y-67636841I-119641J0D01*
G01*
X140611576Y-67636841D01*
G75*
G02*
X140491935Y-67517200I0J119641D01*
G01*
X140491935Y-67517200D01*
G75*
G02*
X140611576Y-67397559I119641J0D01*
G01*
G37*
G36*
G01*
X140611576Y-66897559D02*
X141133360Y-66897559D01*
G75*
G02*
X141253001Y-67017200I0J-119641D01*
G01*
X141253001Y-67017200D01*
G75*
G02*
X141133360Y-67136841I-119641J0D01*
G01*
X140611576Y-67136841D01*
G75*
G02*
X140491935Y-67017200I0J119641D01*
G01*
X140491935Y-67017200D01*
G75*
G02*
X140611576Y-66897559I119641J0D01*
G01*
G37*
G36*
G01*
X140611576Y-66397559D02*
X141133360Y-66397559D01*
G75*
G02*
X141253001Y-66517200I0J-119641D01*
G01*
X141253001Y-66517200D01*
G75*
G02*
X141133360Y-66636841I-119641J0D01*
G01*
X140611576Y-66636841D01*
G75*
G02*
X140491935Y-66517200I0J119641D01*
G01*
X140491935Y-66517200D01*
G75*
G02*
X140611576Y-66397559I119641J0D01*
G01*
G37*
G36*
G01*
X143998000Y-69262199D02*
X143998000Y-69262199D01*
G75*
G02*
X144117641Y-69381840I0J-119641D01*
G01*
X144117641Y-69903624D01*
G75*
G02*
X143998000Y-70023265I-119641J0D01*
G01*
X143998000Y-70023265D01*
G75*
G02*
X143878359Y-69903624I0J119641D01*
G01*
X143878359Y-69381840D01*
G75*
G02*
X143998000Y-69262199I119641J0D01*
G01*
G37*
G36*
G01*
X143498000Y-69262199D02*
X143498000Y-69262199D01*
G75*
G02*
X143617641Y-69381840I0J-119641D01*
G01*
X143617641Y-69903624D01*
G75*
G02*
X143498000Y-70023265I-119641J0D01*
G01*
X143498000Y-70023265D01*
G75*
G02*
X143378359Y-69903624I0J119641D01*
G01*
X143378359Y-69381840D01*
G75*
G02*
X143498000Y-69262199I119641J0D01*
G01*
G37*
G36*
G01*
X142998000Y-69262199D02*
X142998000Y-69262199D01*
G75*
G02*
X143117641Y-69381840I0J-119641D01*
G01*
X143117641Y-69903624D01*
G75*
G02*
X142998000Y-70023265I-119641J0D01*
G01*
X142998000Y-70023265D01*
G75*
G02*
X142878359Y-69903624I0J119641D01*
G01*
X142878359Y-69381840D01*
G75*
G02*
X142998000Y-69262199I119641J0D01*
G01*
G37*
G36*
G01*
X142497999Y-69262199D02*
X142497999Y-69262199D01*
G75*
G02*
X142617640Y-69381840I0J-119641D01*
G01*
X142617640Y-69903624D01*
G75*
G02*
X142497999Y-70023265I-119641J0D01*
G01*
X142497999Y-70023265D01*
G75*
G02*
X142378358Y-69903624I0J119641D01*
G01*
X142378358Y-69381840D01*
G75*
G02*
X142497999Y-69262199I119641J0D01*
G01*
G37*
G36*
G01*
X141997999Y-69262199D02*
X141997999Y-69262199D01*
G75*
G02*
X142117640Y-69381840I0J-119641D01*
G01*
X142117640Y-69903624D01*
G75*
G02*
X141997999Y-70023265I-119641J0D01*
G01*
X141997999Y-70023265D01*
G75*
G02*
X141878358Y-69903624I0J119641D01*
G01*
X141878358Y-69381840D01*
G75*
G02*
X141997999Y-69262199I119641J0D01*
G01*
G37*
G36*
G01*
X141497999Y-69262199D02*
X141497999Y-69262199D01*
G75*
G02*
X141617640Y-69381840I0J-119641D01*
G01*
X141617640Y-69903624D01*
G75*
G02*
X141497999Y-70023265I-119641J0D01*
G01*
X141497999Y-70023265D01*
G75*
G02*
X141378358Y-69903624I0J119641D01*
G01*
X141378358Y-69381840D01*
G75*
G02*
X141497999Y-69262199I119641J0D01*
G01*
G37*
G36*
G01*
X141497999Y-65511135D02*
X141497999Y-65511135D01*
G75*
G02*
X141617640Y-65630776I0J-119641D01*
G01*
X141617640Y-66152560D01*
G75*
G02*
X141497999Y-66272201I-119641J0D01*
G01*
X141497999Y-66272201D01*
G75*
G02*
X141378358Y-66152560I0J119641D01*
G01*
X141378358Y-65630776D01*
G75*
G02*
X141497999Y-65511135I119641J0D01*
G01*
G37*
G36*
G01*
X141997999Y-65511135D02*
X141997999Y-65511135D01*
G75*
G02*
X142117640Y-65630776I0J-119641D01*
G01*
X142117640Y-66152560D01*
G75*
G02*
X141997999Y-66272201I-119641J0D01*
G01*
X141997999Y-66272201D01*
G75*
G02*
X141878358Y-66152560I0J119641D01*
G01*
X141878358Y-65630776D01*
G75*
G02*
X141997999Y-65511135I119641J0D01*
G01*
G37*
G36*
G01*
X142497999Y-65511135D02*
X142497999Y-65511135D01*
G75*
G02*
X142617640Y-65630776I0J-119641D01*
G01*
X142617640Y-66152560D01*
G75*
G02*
X142497999Y-66272201I-119641J0D01*
G01*
X142497999Y-66272201D01*
G75*
G02*
X142378358Y-66152560I0J119641D01*
G01*
X142378358Y-65630776D01*
G75*
G02*
X142497999Y-65511135I119641J0D01*
G01*
G37*
G36*
G01*
X142998000Y-65511135D02*
X142998000Y-65511135D01*
G75*
G02*
X143117641Y-65630776I0J-119641D01*
G01*
X143117641Y-66152560D01*
G75*
G02*
X142998000Y-66272201I-119641J0D01*
G01*
X142998000Y-66272201D01*
G75*
G02*
X142878359Y-66152560I0J119641D01*
G01*
X142878359Y-65630776D01*
G75*
G02*
X142998000Y-65511135I119641J0D01*
G01*
G37*
G36*
G01*
X143498000Y-65511135D02*
X143498000Y-65511135D01*
G75*
G02*
X143617641Y-65630776I0J-119641D01*
G01*
X143617641Y-66152560D01*
G75*
G02*
X143498000Y-66272201I-119641J0D01*
G01*
X143498000Y-66272201D01*
G75*
G02*
X143378359Y-66152560I0J119641D01*
G01*
X143378359Y-65630776D01*
G75*
G02*
X143498000Y-65511135I119641J0D01*
G01*
G37*
D16*
X143998000Y-65891668D03*
G36*
G01*
X178665850Y-37445200D02*
X178153350Y-37445200D01*
G75*
G02*
X177934600Y-37226450I0J218750D01*
G01*
X177934600Y-36788950D01*
G75*
G02*
X178153350Y-36570200I218750J0D01*
G01*
X178665850Y-36570200D01*
G75*
G02*
X178884600Y-36788950I0J-218750D01*
G01*
X178884600Y-37226450D01*
G75*
G02*
X178665850Y-37445200I-218750J0D01*
G01*
G37*
G36*
G01*
X178665850Y-39020200D02*
X178153350Y-39020200D01*
G75*
G02*
X177934600Y-38801450I0J218750D01*
G01*
X177934600Y-38363950D01*
G75*
G02*
X178153350Y-38145200I218750J0D01*
G01*
X178665850Y-38145200D01*
G75*
G02*
X178884600Y-38363950I0J-218750D01*
G01*
X178884600Y-38801450D01*
G75*
G02*
X178665850Y-39020200I-218750J0D01*
G01*
G37*
G36*
G01*
X183796650Y-37445200D02*
X183284150Y-37445200D01*
G75*
G02*
X183065400Y-37226450I0J218750D01*
G01*
X183065400Y-36788950D01*
G75*
G02*
X183284150Y-36570200I218750J0D01*
G01*
X183796650Y-36570200D01*
G75*
G02*
X184015400Y-36788950I0J-218750D01*
G01*
X184015400Y-37226450D01*
G75*
G02*
X183796650Y-37445200I-218750J0D01*
G01*
G37*
G36*
G01*
X183796650Y-39020200D02*
X183284150Y-39020200D01*
G75*
G02*
X183065400Y-38801450I0J218750D01*
G01*
X183065400Y-38363950D01*
G75*
G02*
X183284150Y-38145200I218750J0D01*
G01*
X183796650Y-38145200D01*
G75*
G02*
X184015400Y-38363950I0J-218750D01*
G01*
X184015400Y-38801450D01*
G75*
G02*
X183796650Y-39020200I-218750J0D01*
G01*
G37*
G36*
G01*
X167223150Y-37483300D02*
X166710650Y-37483300D01*
G75*
G02*
X166491900Y-37264550I0J218750D01*
G01*
X166491900Y-36827050D01*
G75*
G02*
X166710650Y-36608300I218750J0D01*
G01*
X167223150Y-36608300D01*
G75*
G02*
X167441900Y-36827050I0J-218750D01*
G01*
X167441900Y-37264550D01*
G75*
G02*
X167223150Y-37483300I-218750J0D01*
G01*
G37*
G36*
G01*
X167223150Y-39058300D02*
X166710650Y-39058300D01*
G75*
G02*
X166491900Y-38839550I0J218750D01*
G01*
X166491900Y-38402050D01*
G75*
G02*
X166710650Y-38183300I218750J0D01*
G01*
X167223150Y-38183300D01*
G75*
G02*
X167441900Y-38402050I0J-218750D01*
G01*
X167441900Y-38839550D01*
G75*
G02*
X167223150Y-39058300I-218750J0D01*
G01*
G37*
G36*
G01*
X172404750Y-37534100D02*
X171892250Y-37534100D01*
G75*
G02*
X171673500Y-37315350I0J218750D01*
G01*
X171673500Y-36877850D01*
G75*
G02*
X171892250Y-36659100I218750J0D01*
G01*
X172404750Y-36659100D01*
G75*
G02*
X172623500Y-36877850I0J-218750D01*
G01*
X172623500Y-37315350D01*
G75*
G02*
X172404750Y-37534100I-218750J0D01*
G01*
G37*
G36*
G01*
X172404750Y-39109100D02*
X171892250Y-39109100D01*
G75*
G02*
X171673500Y-38890350I0J218750D01*
G01*
X171673500Y-38452850D01*
G75*
G02*
X171892250Y-38234100I218750J0D01*
G01*
X172404750Y-38234100D01*
G75*
G02*
X172623500Y-38452850I0J-218750D01*
G01*
X172623500Y-38890350D01*
G75*
G02*
X172404750Y-39109100I-218750J0D01*
G01*
G37*
G36*
G01*
X154528000Y-73306650D02*
X154528000Y-72794150D01*
G75*
G02*
X154746750Y-72575400I218750J0D01*
G01*
X155184250Y-72575400D01*
G75*
G02*
X155403000Y-72794150I0J-218750D01*
G01*
X155403000Y-73306650D01*
G75*
G02*
X155184250Y-73525400I-218750J0D01*
G01*
X154746750Y-73525400D01*
G75*
G02*
X154528000Y-73306650I0J218750D01*
G01*
G37*
G36*
G01*
X152953000Y-73306650D02*
X152953000Y-72794150D01*
G75*
G02*
X153171750Y-72575400I218750J0D01*
G01*
X153609250Y-72575400D01*
G75*
G02*
X153828000Y-72794150I0J-218750D01*
G01*
X153828000Y-73306650D01*
G75*
G02*
X153609250Y-73525400I-218750J0D01*
G01*
X153171750Y-73525400D01*
G75*
G02*
X152953000Y-73306650I0J218750D01*
G01*
G37*
G36*
G01*
X147478000Y-62583350D02*
X147478000Y-63095850D01*
G75*
G02*
X147259250Y-63314600I-218750J0D01*
G01*
X146821750Y-63314600D01*
G75*
G02*
X146603000Y-63095850I0J218750D01*
G01*
X146603000Y-62583350D01*
G75*
G02*
X146821750Y-62364600I218750J0D01*
G01*
X147259250Y-62364600D01*
G75*
G02*
X147478000Y-62583350I0J-218750D01*
G01*
G37*
G36*
G01*
X149053000Y-62583350D02*
X149053000Y-63095850D01*
G75*
G02*
X148834250Y-63314600I-218750J0D01*
G01*
X148396750Y-63314600D01*
G75*
G02*
X148178000Y-63095850I0J218750D01*
G01*
X148178000Y-62583350D01*
G75*
G02*
X148396750Y-62364600I218750J0D01*
G01*
X148834250Y-62364600D01*
G75*
G02*
X149053000Y-62583350I0J-218750D01*
G01*
G37*
G36*
G01*
X167185050Y-57206400D02*
X166672550Y-57206400D01*
G75*
G02*
X166453800Y-56987650I0J218750D01*
G01*
X166453800Y-56550150D01*
G75*
G02*
X166672550Y-56331400I218750J0D01*
G01*
X167185050Y-56331400D01*
G75*
G02*
X167403800Y-56550150I0J-218750D01*
G01*
X167403800Y-56987650D01*
G75*
G02*
X167185050Y-57206400I-218750J0D01*
G01*
G37*
G36*
G01*
X167185050Y-58781400D02*
X166672550Y-58781400D01*
G75*
G02*
X166453800Y-58562650I0J218750D01*
G01*
X166453800Y-58125150D01*
G75*
G02*
X166672550Y-57906400I218750J0D01*
G01*
X167185050Y-57906400D01*
G75*
G02*
X167403800Y-58125150I0J-218750D01*
G01*
X167403800Y-58562650D01*
G75*
G02*
X167185050Y-58781400I-218750J0D01*
G01*
G37*
G36*
G01*
X164238650Y-57206400D02*
X163726150Y-57206400D01*
G75*
G02*
X163507400Y-56987650I0J218750D01*
G01*
X163507400Y-56550150D01*
G75*
G02*
X163726150Y-56331400I218750J0D01*
G01*
X164238650Y-56331400D01*
G75*
G02*
X164457400Y-56550150I0J-218750D01*
G01*
X164457400Y-56987650D01*
G75*
G02*
X164238650Y-57206400I-218750J0D01*
G01*
G37*
G36*
G01*
X164238650Y-58781400D02*
X163726150Y-58781400D01*
G75*
G02*
X163507400Y-58562650I0J218750D01*
G01*
X163507400Y-58125150D01*
G75*
G02*
X163726150Y-57906400I218750J0D01*
G01*
X164238650Y-57906400D01*
G75*
G02*
X164457400Y-58125150I0J-218750D01*
G01*
X164457400Y-58562650D01*
G75*
G02*
X164238650Y-58781400I-218750J0D01*
G01*
G37*
G36*
G01*
X162765450Y-57206400D02*
X162252950Y-57206400D01*
G75*
G02*
X162034200Y-56987650I0J218750D01*
G01*
X162034200Y-56550150D01*
G75*
G02*
X162252950Y-56331400I218750J0D01*
G01*
X162765450Y-56331400D01*
G75*
G02*
X162984200Y-56550150I0J-218750D01*
G01*
X162984200Y-56987650D01*
G75*
G02*
X162765450Y-57206400I-218750J0D01*
G01*
G37*
G36*
G01*
X162765450Y-58781400D02*
X162252950Y-58781400D01*
G75*
G02*
X162034200Y-58562650I0J218750D01*
G01*
X162034200Y-58125150D01*
G75*
G02*
X162252950Y-57906400I218750J0D01*
G01*
X162765450Y-57906400D01*
G75*
G02*
X162984200Y-58125150I0J-218750D01*
G01*
X162984200Y-58562650D01*
G75*
G02*
X162765450Y-58781400I-218750J0D01*
G01*
G37*
G36*
G01*
X161292250Y-57206400D02*
X160779750Y-57206400D01*
G75*
G02*
X160561000Y-56987650I0J218750D01*
G01*
X160561000Y-56550150D01*
G75*
G02*
X160779750Y-56331400I218750J0D01*
G01*
X161292250Y-56331400D01*
G75*
G02*
X161511000Y-56550150I0J-218750D01*
G01*
X161511000Y-56987650D01*
G75*
G02*
X161292250Y-57206400I-218750J0D01*
G01*
G37*
G36*
G01*
X161292250Y-58781400D02*
X160779750Y-58781400D01*
G75*
G02*
X160561000Y-58562650I0J218750D01*
G01*
X160561000Y-58125150D01*
G75*
G02*
X160779750Y-57906400I218750J0D01*
G01*
X161292250Y-57906400D01*
G75*
G02*
X161511000Y-58125150I0J-218750D01*
G01*
X161511000Y-58562650D01*
G75*
G02*
X161292250Y-58781400I-218750J0D01*
G01*
G37*
G36*
G01*
X137622800Y-66545750D02*
X137622800Y-67058250D01*
G75*
G02*
X137404050Y-67277000I-218750J0D01*
G01*
X136966550Y-67277000D01*
G75*
G02*
X136747800Y-67058250I0J218750D01*
G01*
X136747800Y-66545750D01*
G75*
G02*
X136966550Y-66327000I218750J0D01*
G01*
X137404050Y-66327000D01*
G75*
G02*
X137622800Y-66545750I0J-218750D01*
G01*
G37*
G36*
G01*
X139197800Y-66545750D02*
X139197800Y-67058250D01*
G75*
G02*
X138979050Y-67277000I-218750J0D01*
G01*
X138541550Y-67277000D01*
G75*
G02*
X138322800Y-67058250I0J218750D01*
G01*
X138322800Y-66545750D01*
G75*
G02*
X138541550Y-66327000I218750J0D01*
G01*
X138979050Y-66327000D01*
G75*
G02*
X139197800Y-66545750I0J-218750D01*
G01*
G37*
G36*
G01*
X137622800Y-62126150D02*
X137622800Y-62638650D01*
G75*
G02*
X137404050Y-62857400I-218750J0D01*
G01*
X136966550Y-62857400D01*
G75*
G02*
X136747800Y-62638650I0J218750D01*
G01*
X136747800Y-62126150D01*
G75*
G02*
X136966550Y-61907400I218750J0D01*
G01*
X137404050Y-61907400D01*
G75*
G02*
X137622800Y-62126150I0J-218750D01*
G01*
G37*
G36*
G01*
X139197800Y-62126150D02*
X139197800Y-62638650D01*
G75*
G02*
X138979050Y-62857400I-218750J0D01*
G01*
X138541550Y-62857400D01*
G75*
G02*
X138322800Y-62638650I0J218750D01*
G01*
X138322800Y-62126150D01*
G75*
G02*
X138541550Y-61907400I218750J0D01*
G01*
X138979050Y-61907400D01*
G75*
G02*
X139197800Y-62126150I0J-218750D01*
G01*
G37*
G36*
G01*
X142089850Y-73767200D02*
X141577350Y-73767200D01*
G75*
G02*
X141358600Y-73548450I0J218750D01*
G01*
X141358600Y-73110950D01*
G75*
G02*
X141577350Y-72892200I218750J0D01*
G01*
X142089850Y-72892200D01*
G75*
G02*
X142308600Y-73110950I0J-218750D01*
G01*
X142308600Y-73548450D01*
G75*
G02*
X142089850Y-73767200I-218750J0D01*
G01*
G37*
G36*
G01*
X142089850Y-75342200D02*
X141577350Y-75342200D01*
G75*
G02*
X141358600Y-75123450I0J218750D01*
G01*
X141358600Y-74685950D01*
G75*
G02*
X141577350Y-74467200I218750J0D01*
G01*
X142089850Y-74467200D01*
G75*
G02*
X142308600Y-74685950I0J-218750D01*
G01*
X142308600Y-75123450D01*
G75*
G02*
X142089850Y-75342200I-218750J0D01*
G01*
G37*
G36*
G01*
X137622800Y-72438550D02*
X137622800Y-72951050D01*
G75*
G02*
X137404050Y-73169800I-218750J0D01*
G01*
X136966550Y-73169800D01*
G75*
G02*
X136747800Y-72951050I0J218750D01*
G01*
X136747800Y-72438550D01*
G75*
G02*
X136966550Y-72219800I218750J0D01*
G01*
X137404050Y-72219800D01*
G75*
G02*
X137622800Y-72438550I0J-218750D01*
G01*
G37*
G36*
G01*
X139197800Y-72438550D02*
X139197800Y-72951050D01*
G75*
G02*
X138979050Y-73169800I-218750J0D01*
G01*
X138541550Y-73169800D01*
G75*
G02*
X138322800Y-72951050I0J218750D01*
G01*
X138322800Y-72438550D01*
G75*
G02*
X138541550Y-72219800I218750J0D01*
G01*
X138979050Y-72219800D01*
G75*
G02*
X139197800Y-72438550I0J-218750D01*
G01*
G37*
G36*
G01*
X138322800Y-71477850D02*
X138322800Y-70965350D01*
G75*
G02*
X138541550Y-70746600I218750J0D01*
G01*
X138979050Y-70746600D01*
G75*
G02*
X139197800Y-70965350I0J-218750D01*
G01*
X139197800Y-71477850D01*
G75*
G02*
X138979050Y-71696600I-218750J0D01*
G01*
X138541550Y-71696600D01*
G75*
G02*
X138322800Y-71477850I0J218750D01*
G01*
G37*
G36*
G01*
X136747800Y-71477850D02*
X136747800Y-70965350D01*
G75*
G02*
X136966550Y-70746600I218750J0D01*
G01*
X137404050Y-70746600D01*
G75*
G02*
X137622800Y-70965350I0J-218750D01*
G01*
X137622800Y-71477850D01*
G75*
G02*
X137404050Y-71696600I-218750J0D01*
G01*
X136966550Y-71696600D01*
G75*
G02*
X136747800Y-71477850I0J218750D01*
G01*
G37*
G36*
G01*
X138322800Y-70004650D02*
X138322800Y-69492150D01*
G75*
G02*
X138541550Y-69273400I218750J0D01*
G01*
X138979050Y-69273400D01*
G75*
G02*
X139197800Y-69492150I0J-218750D01*
G01*
X139197800Y-70004650D01*
G75*
G02*
X138979050Y-70223400I-218750J0D01*
G01*
X138541550Y-70223400D01*
G75*
G02*
X138322800Y-70004650I0J218750D01*
G01*
G37*
G36*
G01*
X136747800Y-70004650D02*
X136747800Y-69492150D01*
G75*
G02*
X136966550Y-69273400I218750J0D01*
G01*
X137404050Y-69273400D01*
G75*
G02*
X137622800Y-69492150I0J-218750D01*
G01*
X137622800Y-70004650D01*
G75*
G02*
X137404050Y-70223400I-218750J0D01*
G01*
X136966550Y-70223400D01*
G75*
G02*
X136747800Y-70004650I0J218750D01*
G01*
G37*
G36*
G01*
X138322800Y-64111850D02*
X138322800Y-63599350D01*
G75*
G02*
X138541550Y-63380600I218750J0D01*
G01*
X138979050Y-63380600D01*
G75*
G02*
X139197800Y-63599350I0J-218750D01*
G01*
X139197800Y-64111850D01*
G75*
G02*
X138979050Y-64330600I-218750J0D01*
G01*
X138541550Y-64330600D01*
G75*
G02*
X138322800Y-64111850I0J218750D01*
G01*
G37*
G36*
G01*
X136747800Y-64111850D02*
X136747800Y-63599350D01*
G75*
G02*
X136966550Y-63380600I218750J0D01*
G01*
X137404050Y-63380600D01*
G75*
G02*
X137622800Y-63599350I0J-218750D01*
G01*
X137622800Y-64111850D01*
G75*
G02*
X137404050Y-64330600I-218750J0D01*
G01*
X136966550Y-64330600D01*
G75*
G02*
X136747800Y-64111850I0J218750D01*
G01*
G37*
G36*
G01*
X87479850Y-51796200D02*
X86967350Y-51796200D01*
G75*
G02*
X86748600Y-51577450I0J218750D01*
G01*
X86748600Y-51139950D01*
G75*
G02*
X86967350Y-50921200I218750J0D01*
G01*
X87479850Y-50921200D01*
G75*
G02*
X87698600Y-51139950I0J-218750D01*
G01*
X87698600Y-51577450D01*
G75*
G02*
X87479850Y-51796200I-218750J0D01*
G01*
G37*
G36*
G01*
X87479850Y-53371200D02*
X86967350Y-53371200D01*
G75*
G02*
X86748600Y-53152450I0J218750D01*
G01*
X86748600Y-52714950D01*
G75*
G02*
X86967350Y-52496200I218750J0D01*
G01*
X87479850Y-52496200D01*
G75*
G02*
X87698600Y-52714950I0J-218750D01*
G01*
X87698600Y-53152450D01*
G75*
G02*
X87479850Y-53371200I-218750J0D01*
G01*
G37*
G36*
G01*
X138453150Y-59328800D02*
X138965650Y-59328800D01*
G75*
G02*
X139184400Y-59547550I0J-218750D01*
G01*
X139184400Y-59985050D01*
G75*
G02*
X138965650Y-60203800I-218750J0D01*
G01*
X138453150Y-60203800D01*
G75*
G02*
X138234400Y-59985050I0J218750D01*
G01*
X138234400Y-59547550D01*
G75*
G02*
X138453150Y-59328800I218750J0D01*
G01*
G37*
G36*
G01*
X138453150Y-57753800D02*
X138965650Y-57753800D01*
G75*
G02*
X139184400Y-57972550I0J-218750D01*
G01*
X139184400Y-58410050D01*
G75*
G02*
X138965650Y-58628800I-218750J0D01*
G01*
X138453150Y-58628800D01*
G75*
G02*
X138234400Y-58410050I0J218750D01*
G01*
X138234400Y-57972550D01*
G75*
G02*
X138453150Y-57753800I218750J0D01*
G01*
G37*
G36*
G01*
X148965400Y-40693050D02*
X148965400Y-40180550D01*
G75*
G02*
X149184150Y-39961800I218750J0D01*
G01*
X149621650Y-39961800D01*
G75*
G02*
X149840400Y-40180550I0J-218750D01*
G01*
X149840400Y-40693050D01*
G75*
G02*
X149621650Y-40911800I-218750J0D01*
G01*
X149184150Y-40911800D01*
G75*
G02*
X148965400Y-40693050I0J218750D01*
G01*
G37*
G36*
G01*
X147390400Y-40693050D02*
X147390400Y-40180550D01*
G75*
G02*
X147609150Y-39961800I218750J0D01*
G01*
X148046650Y-39961800D01*
G75*
G02*
X148265400Y-40180550I0J-218750D01*
G01*
X148265400Y-40693050D01*
G75*
G02*
X148046650Y-40911800I-218750J0D01*
G01*
X147609150Y-40911800D01*
G75*
G02*
X147390400Y-40693050I0J218750D01*
G01*
G37*
G36*
G01*
X148965400Y-38892190D02*
X148965400Y-38379690D01*
G75*
G02*
X149184150Y-38160940I218750J0D01*
G01*
X149621650Y-38160940D01*
G75*
G02*
X149840400Y-38379690I0J-218750D01*
G01*
X149840400Y-38892190D01*
G75*
G02*
X149621650Y-39110940I-218750J0D01*
G01*
X149184150Y-39110940D01*
G75*
G02*
X148965400Y-38892190I0J218750D01*
G01*
G37*
G36*
G01*
X147390400Y-38892190D02*
X147390400Y-38379690D01*
G75*
G02*
X147609150Y-38160940I218750J0D01*
G01*
X148046650Y-38160940D01*
G75*
G02*
X148265400Y-38379690I0J-218750D01*
G01*
X148265400Y-38892190D01*
G75*
G02*
X148046650Y-39110940I-218750J0D01*
G01*
X147609150Y-39110940D01*
G75*
G02*
X147390400Y-38892190I0J218750D01*
G01*
G37*
G36*
G01*
X148965400Y-37091330D02*
X148965400Y-36578830D01*
G75*
G02*
X149184150Y-36360080I218750J0D01*
G01*
X149621650Y-36360080D01*
G75*
G02*
X149840400Y-36578830I0J-218750D01*
G01*
X149840400Y-37091330D01*
G75*
G02*
X149621650Y-37310080I-218750J0D01*
G01*
X149184150Y-37310080D01*
G75*
G02*
X148965400Y-37091330I0J218750D01*
G01*
G37*
G36*
G01*
X147390400Y-37091330D02*
X147390400Y-36578830D01*
G75*
G02*
X147609150Y-36360080I218750J0D01*
G01*
X148046650Y-36360080D01*
G75*
G02*
X148265400Y-36578830I0J-218750D01*
G01*
X148265400Y-37091330D01*
G75*
G02*
X148046650Y-37310080I-218750J0D01*
G01*
X147609150Y-37310080D01*
G75*
G02*
X147390400Y-37091330I0J218750D01*
G01*
G37*
G36*
G01*
X148965400Y-35290470D02*
X148965400Y-34777970D01*
G75*
G02*
X149184150Y-34559220I218750J0D01*
G01*
X149621650Y-34559220D01*
G75*
G02*
X149840400Y-34777970I0J-218750D01*
G01*
X149840400Y-35290470D01*
G75*
G02*
X149621650Y-35509220I-218750J0D01*
G01*
X149184150Y-35509220D01*
G75*
G02*
X148965400Y-35290470I0J218750D01*
G01*
G37*
G36*
G01*
X147390400Y-35290470D02*
X147390400Y-34777970D01*
G75*
G02*
X147609150Y-34559220I218750J0D01*
G01*
X148046650Y-34559220D01*
G75*
G02*
X148265400Y-34777970I0J-218750D01*
G01*
X148265400Y-35290470D01*
G75*
G02*
X148046650Y-35509220I-218750J0D01*
G01*
X147609150Y-35509220D01*
G75*
G02*
X147390400Y-35290470I0J218750D01*
G01*
G37*
G36*
G01*
X73814650Y-45751000D02*
X73302150Y-45751000D01*
G75*
G02*
X73083400Y-45532250I0J218750D01*
G01*
X73083400Y-45094750D01*
G75*
G02*
X73302150Y-44876000I218750J0D01*
G01*
X73814650Y-44876000D01*
G75*
G02*
X74033400Y-45094750I0J-218750D01*
G01*
X74033400Y-45532250D01*
G75*
G02*
X73814650Y-45751000I-218750J0D01*
G01*
G37*
G36*
G01*
X73814650Y-47326000D02*
X73302150Y-47326000D01*
G75*
G02*
X73083400Y-47107250I0J218750D01*
G01*
X73083400Y-46669750D01*
G75*
G02*
X73302150Y-46451000I218750J0D01*
G01*
X73814650Y-46451000D01*
G75*
G02*
X74033400Y-46669750I0J-218750D01*
G01*
X74033400Y-47107250D01*
G75*
G02*
X73814650Y-47326000I-218750J0D01*
G01*
G37*
G36*
G01*
X78107250Y-45801800D02*
X77594750Y-45801800D01*
G75*
G02*
X77376000Y-45583050I0J218750D01*
G01*
X77376000Y-45145550D01*
G75*
G02*
X77594750Y-44926800I218750J0D01*
G01*
X78107250Y-44926800D01*
G75*
G02*
X78326000Y-45145550I0J-218750D01*
G01*
X78326000Y-45583050D01*
G75*
G02*
X78107250Y-45801800I-218750J0D01*
G01*
G37*
G36*
G01*
X78107250Y-47376800D02*
X77594750Y-47376800D01*
G75*
G02*
X77376000Y-47158050I0J218750D01*
G01*
X77376000Y-46720550D01*
G75*
G02*
X77594750Y-46501800I218750J0D01*
G01*
X78107250Y-46501800D01*
G75*
G02*
X78326000Y-46720550I0J-218750D01*
G01*
X78326000Y-47158050D01*
G75*
G02*
X78107250Y-47376800I-218750J0D01*
G01*
G37*
G36*
G01*
X93972090Y-44501320D02*
X93459590Y-44501320D01*
G75*
G02*
X93240840Y-44282570I0J218750D01*
G01*
X93240840Y-43845070D01*
G75*
G02*
X93459590Y-43626320I218750J0D01*
G01*
X93972090Y-43626320D01*
G75*
G02*
X94190840Y-43845070I0J-218750D01*
G01*
X94190840Y-44282570D01*
G75*
G02*
X93972090Y-44501320I-218750J0D01*
G01*
G37*
G36*
G01*
X93972090Y-46076320D02*
X93459590Y-46076320D01*
G75*
G02*
X93240840Y-45857570I0J218750D01*
G01*
X93240840Y-45420070D01*
G75*
G02*
X93459590Y-45201320I218750J0D01*
G01*
X93972090Y-45201320D01*
G75*
G02*
X94190840Y-45420070I0J-218750D01*
G01*
X94190840Y-45857570D01*
G75*
G02*
X93972090Y-46076320I-218750J0D01*
G01*
G37*
G36*
G01*
X90480400Y-43660350D02*
X90480400Y-44172850D01*
G75*
G02*
X90261650Y-44391600I-218750J0D01*
G01*
X89824150Y-44391600D01*
G75*
G02*
X89605400Y-44172850I0J218750D01*
G01*
X89605400Y-43660350D01*
G75*
G02*
X89824150Y-43441600I218750J0D01*
G01*
X90261650Y-43441600D01*
G75*
G02*
X90480400Y-43660350I0J-218750D01*
G01*
G37*
G36*
G01*
X92055400Y-43660350D02*
X92055400Y-44172850D01*
G75*
G02*
X91836650Y-44391600I-218750J0D01*
G01*
X91399150Y-44391600D01*
G75*
G02*
X91180400Y-44172850I0J218750D01*
G01*
X91180400Y-43660350D01*
G75*
G02*
X91399150Y-43441600I218750J0D01*
G01*
X91836650Y-43441600D01*
G75*
G02*
X92055400Y-43660350I0J-218750D01*
G01*
G37*
G36*
G01*
X87729350Y-45158140D02*
X88241850Y-45158140D01*
G75*
G02*
X88460600Y-45376890I0J-218750D01*
G01*
X88460600Y-45814390D01*
G75*
G02*
X88241850Y-46033140I-218750J0D01*
G01*
X87729350Y-46033140D01*
G75*
G02*
X87510600Y-45814390I0J218750D01*
G01*
X87510600Y-45376890D01*
G75*
G02*
X87729350Y-45158140I218750J0D01*
G01*
G37*
G36*
G01*
X87729350Y-43583140D02*
X88241850Y-43583140D01*
G75*
G02*
X88460600Y-43801890I0J-218750D01*
G01*
X88460600Y-44239390D01*
G75*
G02*
X88241850Y-44458140I-218750J0D01*
G01*
X87729350Y-44458140D01*
G75*
G02*
X87510600Y-44239390I0J218750D01*
G01*
X87510600Y-43801890D01*
G75*
G02*
X87729350Y-43583140I218750J0D01*
G01*
G37*
G36*
G01*
X148965400Y-33489610D02*
X148965400Y-32977110D01*
G75*
G02*
X149184150Y-32758360I218750J0D01*
G01*
X149621650Y-32758360D01*
G75*
G02*
X149840400Y-32977110I0J-218750D01*
G01*
X149840400Y-33489610D01*
G75*
G02*
X149621650Y-33708360I-218750J0D01*
G01*
X149184150Y-33708360D01*
G75*
G02*
X148965400Y-33489610I0J218750D01*
G01*
G37*
G36*
G01*
X147390400Y-33489610D02*
X147390400Y-32977110D01*
G75*
G02*
X147609150Y-32758360I218750J0D01*
G01*
X148046650Y-32758360D01*
G75*
G02*
X148265400Y-32977110I0J-218750D01*
G01*
X148265400Y-33489610D01*
G75*
G02*
X148046650Y-33708360I-218750J0D01*
G01*
X147609150Y-33708360D01*
G75*
G02*
X147390400Y-33489610I0J218750D01*
G01*
G37*
G36*
G01*
X148965400Y-31688750D02*
X148965400Y-31176250D01*
G75*
G02*
X149184150Y-30957500I218750J0D01*
G01*
X149621650Y-30957500D01*
G75*
G02*
X149840400Y-31176250I0J-218750D01*
G01*
X149840400Y-31688750D01*
G75*
G02*
X149621650Y-31907500I-218750J0D01*
G01*
X149184150Y-31907500D01*
G75*
G02*
X148965400Y-31688750I0J218750D01*
G01*
G37*
G36*
G01*
X147390400Y-31688750D02*
X147390400Y-31176250D01*
G75*
G02*
X147609150Y-30957500I218750J0D01*
G01*
X148046650Y-30957500D01*
G75*
G02*
X148265400Y-31176250I0J-218750D01*
G01*
X148265400Y-31688750D01*
G75*
G02*
X148046650Y-31907500I-218750J0D01*
G01*
X147609150Y-31907500D01*
G75*
G02*
X147390400Y-31688750I0J218750D01*
G01*
G37*
G36*
G01*
X96298500Y-74805250D02*
X96298500Y-74292750D01*
G75*
G02*
X96517250Y-74074000I218750J0D01*
G01*
X96954750Y-74074000D01*
G75*
G02*
X97173500Y-74292750I0J-218750D01*
G01*
X97173500Y-74805250D01*
G75*
G02*
X96954750Y-75024000I-218750J0D01*
G01*
X96517250Y-75024000D01*
G75*
G02*
X96298500Y-74805250I0J218750D01*
G01*
G37*
G36*
G01*
X94723500Y-74805250D02*
X94723500Y-74292750D01*
G75*
G02*
X94942250Y-74074000I218750J0D01*
G01*
X95379750Y-74074000D01*
G75*
G02*
X95598500Y-74292750I0J-218750D01*
G01*
X95598500Y-74805250D01*
G75*
G02*
X95379750Y-75024000I-218750J0D01*
G01*
X94942250Y-75024000D01*
G75*
G02*
X94723500Y-74805250I0J218750D01*
G01*
G37*
G36*
G01*
X104645750Y-76740500D02*
X105158250Y-76740500D01*
G75*
G02*
X105377000Y-76959250I0J-218750D01*
G01*
X105377000Y-77396750D01*
G75*
G02*
X105158250Y-77615500I-218750J0D01*
G01*
X104645750Y-77615500D01*
G75*
G02*
X104427000Y-77396750I0J218750D01*
G01*
X104427000Y-76959250D01*
G75*
G02*
X104645750Y-76740500I218750J0D01*
G01*
G37*
G36*
G01*
X104645750Y-75165500D02*
X105158250Y-75165500D01*
G75*
G02*
X105377000Y-75384250I0J-218750D01*
G01*
X105377000Y-75821750D01*
G75*
G02*
X105158250Y-76040500I-218750J0D01*
G01*
X104645750Y-76040500D01*
G75*
G02*
X104427000Y-75821750I0J218750D01*
G01*
X104427000Y-75384250D01*
G75*
G02*
X104645750Y-75165500I218750J0D01*
G01*
G37*
G36*
G01*
X143863350Y-80233000D02*
X144375850Y-80233000D01*
G75*
G02*
X144594600Y-80451750I0J-218750D01*
G01*
X144594600Y-80889250D01*
G75*
G02*
X144375850Y-81108000I-218750J0D01*
G01*
X143863350Y-81108000D01*
G75*
G02*
X143644600Y-80889250I0J218750D01*
G01*
X143644600Y-80451750D01*
G75*
G02*
X143863350Y-80233000I218750J0D01*
G01*
G37*
G36*
G01*
X143863350Y-78658000D02*
X144375850Y-78658000D01*
G75*
G02*
X144594600Y-78876750I0J-218750D01*
G01*
X144594600Y-79314250D01*
G75*
G02*
X144375850Y-79533000I-218750J0D01*
G01*
X143863350Y-79533000D01*
G75*
G02*
X143644600Y-79314250I0J218750D01*
G01*
X143644600Y-78876750D01*
G75*
G02*
X143863350Y-78658000I218750J0D01*
G01*
G37*
G36*
G01*
X154528000Y-71833450D02*
X154528000Y-71320950D01*
G75*
G02*
X154746750Y-71102200I218750J0D01*
G01*
X155184250Y-71102200D01*
G75*
G02*
X155403000Y-71320950I0J-218750D01*
G01*
X155403000Y-71833450D01*
G75*
G02*
X155184250Y-72052200I-218750J0D01*
G01*
X154746750Y-72052200D01*
G75*
G02*
X154528000Y-71833450I0J218750D01*
G01*
G37*
G36*
G01*
X152953000Y-71833450D02*
X152953000Y-71320950D01*
G75*
G02*
X153171750Y-71102200I218750J0D01*
G01*
X153609250Y-71102200D01*
G75*
G02*
X153828000Y-71320950I0J-218750D01*
G01*
X153828000Y-71833450D01*
G75*
G02*
X153609250Y-72052200I-218750J0D01*
G01*
X153171750Y-72052200D01*
G75*
G02*
X152953000Y-71833450I0J218750D01*
G01*
G37*
G36*
G01*
X156847250Y-45522400D02*
X156334750Y-45522400D01*
G75*
G02*
X156116000Y-45303650I0J218750D01*
G01*
X156116000Y-44866150D01*
G75*
G02*
X156334750Y-44647400I218750J0D01*
G01*
X156847250Y-44647400D01*
G75*
G02*
X157066000Y-44866150I0J-218750D01*
G01*
X157066000Y-45303650D01*
G75*
G02*
X156847250Y-45522400I-218750J0D01*
G01*
G37*
G36*
G01*
X156847250Y-47097400D02*
X156334750Y-47097400D01*
G75*
G02*
X156116000Y-46878650I0J218750D01*
G01*
X156116000Y-46441150D01*
G75*
G02*
X156334750Y-46222400I218750J0D01*
G01*
X156847250Y-46222400D01*
G75*
G02*
X157066000Y-46441150I0J-218750D01*
G01*
X157066000Y-46878650D01*
G75*
G02*
X156847250Y-47097400I-218750J0D01*
G01*
G37*
G36*
G01*
X148178000Y-66042250D02*
X148178000Y-65529750D01*
G75*
G02*
X148396750Y-65311000I218750J0D01*
G01*
X148834250Y-65311000D01*
G75*
G02*
X149053000Y-65529750I0J-218750D01*
G01*
X149053000Y-66042250D01*
G75*
G02*
X148834250Y-66261000I-218750J0D01*
G01*
X148396750Y-66261000D01*
G75*
G02*
X148178000Y-66042250I0J218750D01*
G01*
G37*
G36*
G01*
X146603000Y-66042250D02*
X146603000Y-65529750D01*
G75*
G02*
X146821750Y-65311000I218750J0D01*
G01*
X147259250Y-65311000D01*
G75*
G02*
X147478000Y-65529750I0J-218750D01*
G01*
X147478000Y-66042250D01*
G75*
G02*
X147259250Y-66261000I-218750J0D01*
G01*
X146821750Y-66261000D01*
G75*
G02*
X146603000Y-66042250I0J218750D01*
G01*
G37*
G36*
G01*
X143050550Y-74467200D02*
X143563050Y-74467200D01*
G75*
G02*
X143781800Y-74685950I0J-218750D01*
G01*
X143781800Y-75123450D01*
G75*
G02*
X143563050Y-75342200I-218750J0D01*
G01*
X143050550Y-75342200D01*
G75*
G02*
X142831800Y-75123450I0J218750D01*
G01*
X142831800Y-74685950D01*
G75*
G02*
X143050550Y-74467200I218750J0D01*
G01*
G37*
G36*
G01*
X143050550Y-72892200D02*
X143563050Y-72892200D01*
G75*
G02*
X143781800Y-73110950I0J-218750D01*
G01*
X143781800Y-73548450D01*
G75*
G02*
X143563050Y-73767200I-218750J0D01*
G01*
X143050550Y-73767200D01*
G75*
G02*
X142831800Y-73548450I0J218750D01*
G01*
X142831800Y-73110950D01*
G75*
G02*
X143050550Y-72892200I218750J0D01*
G01*
G37*
G36*
G01*
X138322800Y-65585050D02*
X138322800Y-65072550D01*
G75*
G02*
X138541550Y-64853800I218750J0D01*
G01*
X138979050Y-64853800D01*
G75*
G02*
X139197800Y-65072550I0J-218750D01*
G01*
X139197800Y-65585050D01*
G75*
G02*
X138979050Y-65803800I-218750J0D01*
G01*
X138541550Y-65803800D01*
G75*
G02*
X138322800Y-65585050I0J218750D01*
G01*
G37*
G36*
G01*
X136747800Y-65585050D02*
X136747800Y-65072550D01*
G75*
G02*
X136966550Y-64853800I218750J0D01*
G01*
X137404050Y-64853800D01*
G75*
G02*
X137622800Y-65072550I0J-218750D01*
G01*
X137622800Y-65585050D01*
G75*
G02*
X137404050Y-65803800I-218750J0D01*
G01*
X136966550Y-65803800D01*
G75*
G02*
X136747800Y-65585050I0J218750D01*
G01*
G37*
G36*
G01*
X140104150Y-74467200D02*
X140616650Y-74467200D01*
G75*
G02*
X140835400Y-74685950I0J-218750D01*
G01*
X140835400Y-75123450D01*
G75*
G02*
X140616650Y-75342200I-218750J0D01*
G01*
X140104150Y-75342200D01*
G75*
G02*
X139885400Y-75123450I0J218750D01*
G01*
X139885400Y-74685950D01*
G75*
G02*
X140104150Y-74467200I218750J0D01*
G01*
G37*
G36*
G01*
X140104150Y-72892200D02*
X140616650Y-72892200D01*
G75*
G02*
X140835400Y-73110950I0J-218750D01*
G01*
X140835400Y-73548450D01*
G75*
G02*
X140616650Y-73767200I-218750J0D01*
G01*
X140104150Y-73767200D01*
G75*
G02*
X139885400Y-73548450I0J218750D01*
G01*
X139885400Y-73110950D01*
G75*
G02*
X140104150Y-72892200I218750J0D01*
G01*
G37*
G36*
G01*
X108956130Y-36400220D02*
X109468630Y-36400220D01*
G75*
G02*
X109687380Y-36618970I0J-218750D01*
G01*
X109687380Y-37056470D01*
G75*
G02*
X109468630Y-37275220I-218750J0D01*
G01*
X108956130Y-37275220D01*
G75*
G02*
X108737380Y-37056470I0J218750D01*
G01*
X108737380Y-36618970D01*
G75*
G02*
X108956130Y-36400220I218750J0D01*
G01*
G37*
G36*
G01*
X108956130Y-34825220D02*
X109468630Y-34825220D01*
G75*
G02*
X109687380Y-35043970I0J-218750D01*
G01*
X109687380Y-35481470D01*
G75*
G02*
X109468630Y-35700220I-218750J0D01*
G01*
X108956130Y-35700220D01*
G75*
G02*
X108737380Y-35481470I0J218750D01*
G01*
X108737380Y-35043970D01*
G75*
G02*
X108956130Y-34825220I218750J0D01*
G01*
G37*
G36*
G01*
X114192800Y-55684130D02*
X114192800Y-55171630D01*
G75*
G02*
X114411550Y-54952880I218750J0D01*
G01*
X114849050Y-54952880D01*
G75*
G02*
X115067800Y-55171630I0J-218750D01*
G01*
X115067800Y-55684130D01*
G75*
G02*
X114849050Y-55902880I-218750J0D01*
G01*
X114411550Y-55902880D01*
G75*
G02*
X114192800Y-55684130I0J218750D01*
G01*
G37*
G36*
G01*
X112617800Y-55684130D02*
X112617800Y-55171630D01*
G75*
G02*
X112836550Y-54952880I218750J0D01*
G01*
X113274050Y-54952880D01*
G75*
G02*
X113492800Y-55171630I0J-218750D01*
G01*
X113492800Y-55684130D01*
G75*
G02*
X113274050Y-55902880I-218750J0D01*
G01*
X112836550Y-55902880D01*
G75*
G02*
X112617800Y-55684130I0J218750D01*
G01*
G37*
G36*
G01*
X75968570Y-45794180D02*
X75456070Y-45794180D01*
G75*
G02*
X75237320Y-45575430I0J218750D01*
G01*
X75237320Y-45137930D01*
G75*
G02*
X75456070Y-44919180I218750J0D01*
G01*
X75968570Y-44919180D01*
G75*
G02*
X76187320Y-45137930I0J-218750D01*
G01*
X76187320Y-45575430D01*
G75*
G02*
X75968570Y-45794180I-218750J0D01*
G01*
G37*
G36*
G01*
X75968570Y-47369180D02*
X75456070Y-47369180D01*
G75*
G02*
X75237320Y-47150430I0J218750D01*
G01*
X75237320Y-46712930D01*
G75*
G02*
X75456070Y-46494180I218750J0D01*
G01*
X75968570Y-46494180D01*
G75*
G02*
X76187320Y-46712930I0J-218750D01*
G01*
X76187320Y-47150430D01*
G75*
G02*
X75968570Y-47369180I-218750J0D01*
G01*
G37*
G36*
G01*
X138322800Y-68531450D02*
X138322800Y-68018950D01*
G75*
G02*
X138541550Y-67800200I218750J0D01*
G01*
X138979050Y-67800200D01*
G75*
G02*
X139197800Y-68018950I0J-218750D01*
G01*
X139197800Y-68531450D01*
G75*
G02*
X138979050Y-68750200I-218750J0D01*
G01*
X138541550Y-68750200D01*
G75*
G02*
X138322800Y-68531450I0J218750D01*
G01*
G37*
G36*
G01*
X136747800Y-68531450D02*
X136747800Y-68018950D01*
G75*
G02*
X136966550Y-67800200I218750J0D01*
G01*
X137404050Y-67800200D01*
G75*
G02*
X137622800Y-68018950I0J-218750D01*
G01*
X137622800Y-68531450D01*
G75*
G02*
X137404050Y-68750200I-218750J0D01*
G01*
X136966550Y-68750200D01*
G75*
G02*
X136747800Y-68531450I0J218750D01*
G01*
G37*
G36*
G01*
X165199350Y-57906400D02*
X165711850Y-57906400D01*
G75*
G02*
X165930600Y-58125150I0J-218750D01*
G01*
X165930600Y-58562650D01*
G75*
G02*
X165711850Y-58781400I-218750J0D01*
G01*
X165199350Y-58781400D01*
G75*
G02*
X164980600Y-58562650I0J218750D01*
G01*
X164980600Y-58125150D01*
G75*
G02*
X165199350Y-57906400I218750J0D01*
G01*
G37*
G36*
G01*
X165199350Y-56331400D02*
X165711850Y-56331400D01*
G75*
G02*
X165930600Y-56550150I0J-218750D01*
G01*
X165930600Y-56987650D01*
G75*
G02*
X165711850Y-57206400I-218750J0D01*
G01*
X165199350Y-57206400D01*
G75*
G02*
X164980600Y-56987650I0J218750D01*
G01*
X164980600Y-56550150D01*
G75*
G02*
X165199350Y-56331400I218750J0D01*
G01*
G37*
G36*
G01*
X145036250Y-73767200D02*
X144523750Y-73767200D01*
G75*
G02*
X144305000Y-73548450I0J218750D01*
G01*
X144305000Y-73110950D01*
G75*
G02*
X144523750Y-72892200I218750J0D01*
G01*
X145036250Y-72892200D01*
G75*
G02*
X145255000Y-73110950I0J-218750D01*
G01*
X145255000Y-73548450D01*
G75*
G02*
X145036250Y-73767200I-218750J0D01*
G01*
G37*
G36*
G01*
X145036250Y-75342200D02*
X144523750Y-75342200D01*
G75*
G02*
X144305000Y-75123450I0J218750D01*
G01*
X144305000Y-74685950D01*
G75*
G02*
X144523750Y-74467200I218750J0D01*
G01*
X145036250Y-74467200D01*
G75*
G02*
X145255000Y-74685950I0J-218750D01*
G01*
X145255000Y-75123450D01*
G75*
G02*
X145036250Y-75342200I-218750J0D01*
G01*
G37*
G36*
G01*
X141917710Y-59714880D02*
X142430210Y-59714880D01*
G75*
G02*
X142648960Y-59933630I0J-218750D01*
G01*
X142648960Y-60371130D01*
G75*
G02*
X142430210Y-60589880I-218750J0D01*
G01*
X141917710Y-60589880D01*
G75*
G02*
X141698960Y-60371130I0J218750D01*
G01*
X141698960Y-59933630D01*
G75*
G02*
X141917710Y-59714880I218750J0D01*
G01*
G37*
G36*
G01*
X141917710Y-58139880D02*
X142430210Y-58139880D01*
G75*
G02*
X142648960Y-58358630I0J-218750D01*
G01*
X142648960Y-58796130D01*
G75*
G02*
X142430210Y-59014880I-218750J0D01*
G01*
X141917710Y-59014880D01*
G75*
G02*
X141698960Y-58796130I0J218750D01*
G01*
X141698960Y-58358630D01*
G75*
G02*
X141917710Y-58139880I218750J0D01*
G01*
G37*
G36*
G01*
X149781550Y-59780920D02*
X150294050Y-59780920D01*
G75*
G02*
X150512800Y-59999670I0J-218750D01*
G01*
X150512800Y-60437170D01*
G75*
G02*
X150294050Y-60655920I-218750J0D01*
G01*
X149781550Y-60655920D01*
G75*
G02*
X149562800Y-60437170I0J218750D01*
G01*
X149562800Y-59999670D01*
G75*
G02*
X149781550Y-59780920I218750J0D01*
G01*
G37*
G36*
G01*
X149781550Y-58205920D02*
X150294050Y-58205920D01*
G75*
G02*
X150512800Y-58424670I0J-218750D01*
G01*
X150512800Y-58862170D01*
G75*
G02*
X150294050Y-59080920I-218750J0D01*
G01*
X149781550Y-59080920D01*
G75*
G02*
X149562800Y-58862170I0J218750D01*
G01*
X149562800Y-58424670D01*
G75*
G02*
X149781550Y-58205920I218750J0D01*
G01*
G37*
G36*
G01*
X62168750Y-60838600D02*
X61656250Y-60838600D01*
G75*
G02*
X61437500Y-60619850I0J218750D01*
G01*
X61437500Y-60182350D01*
G75*
G02*
X61656250Y-59963600I218750J0D01*
G01*
X62168750Y-59963600D01*
G75*
G02*
X62387500Y-60182350I0J-218750D01*
G01*
X62387500Y-60619850D01*
G75*
G02*
X62168750Y-60838600I-218750J0D01*
G01*
G37*
G36*
G01*
X62168750Y-62413600D02*
X61656250Y-62413600D01*
G75*
G02*
X61437500Y-62194850I0J218750D01*
G01*
X61437500Y-61757350D01*
G75*
G02*
X61656250Y-61538600I218750J0D01*
G01*
X62168750Y-61538600D01*
G75*
G02*
X62387500Y-61757350I0J-218750D01*
G01*
X62387500Y-62194850D01*
G75*
G02*
X62168750Y-62413600I-218750J0D01*
G01*
G37*
G36*
G01*
X170433480Y-44975490D02*
X170433480Y-44462990D01*
G75*
G02*
X170652230Y-44244240I218750J0D01*
G01*
X171089730Y-44244240D01*
G75*
G02*
X171308480Y-44462990I0J-218750D01*
G01*
X171308480Y-44975490D01*
G75*
G02*
X171089730Y-45194240I-218750J0D01*
G01*
X170652230Y-45194240D01*
G75*
G02*
X170433480Y-44975490I0J218750D01*
G01*
G37*
G36*
G01*
X168858480Y-44975490D02*
X168858480Y-44462990D01*
G75*
G02*
X169077230Y-44244240I218750J0D01*
G01*
X169514730Y-44244240D01*
G75*
G02*
X169733480Y-44462990I0J-218750D01*
G01*
X169733480Y-44975490D01*
G75*
G02*
X169514730Y-45194240I-218750J0D01*
G01*
X169077230Y-45194240D01*
G75*
G02*
X168858480Y-44975490I0J218750D01*
G01*
G37*
G36*
G01*
X180634350Y-46068500D02*
X180121850Y-46068500D01*
G75*
G02*
X179903100Y-45849750I0J218750D01*
G01*
X179903100Y-45412250D01*
G75*
G02*
X180121850Y-45193500I218750J0D01*
G01*
X180634350Y-45193500D01*
G75*
G02*
X180853100Y-45412250I0J-218750D01*
G01*
X180853100Y-45849750D01*
G75*
G02*
X180634350Y-46068500I-218750J0D01*
G01*
G37*
G36*
G01*
X180634350Y-47643500D02*
X180121850Y-47643500D01*
G75*
G02*
X179903100Y-47424750I0J218750D01*
G01*
X179903100Y-46987250D01*
G75*
G02*
X180121850Y-46768500I218750J0D01*
G01*
X180634350Y-46768500D01*
G75*
G02*
X180853100Y-46987250I0J-218750D01*
G01*
X180853100Y-47424750D01*
G75*
G02*
X180634350Y-47643500I-218750J0D01*
G01*
G37*
G36*
G01*
X130698760Y-70591970D02*
X130698760Y-71104470D01*
G75*
G02*
X130480010Y-71323220I-218750J0D01*
G01*
X130042510Y-71323220D01*
G75*
G02*
X129823760Y-71104470I0J218750D01*
G01*
X129823760Y-70591970D01*
G75*
G02*
X130042510Y-70373220I218750J0D01*
G01*
X130480010Y-70373220D01*
G75*
G02*
X130698760Y-70591970I0J-218750D01*
G01*
G37*
G36*
G01*
X132273760Y-70591970D02*
X132273760Y-71104470D01*
G75*
G02*
X132055010Y-71323220I-218750J0D01*
G01*
X131617510Y-71323220D01*
G75*
G02*
X131398760Y-71104470I0J218750D01*
G01*
X131398760Y-70591970D01*
G75*
G02*
X131617510Y-70373220I218750J0D01*
G01*
X132055010Y-70373220D01*
G75*
G02*
X132273760Y-70591970I0J-218750D01*
G01*
G37*
G36*
G01*
X86969890Y-49069740D02*
X87482390Y-49069740D01*
G75*
G02*
X87701140Y-49288490I0J-218750D01*
G01*
X87701140Y-49725990D01*
G75*
G02*
X87482390Y-49944740I-218750J0D01*
G01*
X86969890Y-49944740D01*
G75*
G02*
X86751140Y-49725990I0J218750D01*
G01*
X86751140Y-49288490D01*
G75*
G02*
X86969890Y-49069740I218750J0D01*
G01*
G37*
G36*
G01*
X86969890Y-47494740D02*
X87482390Y-47494740D01*
G75*
G02*
X87701140Y-47713490I0J-218750D01*
G01*
X87701140Y-48150990D01*
G75*
G02*
X87482390Y-48369740I-218750J0D01*
G01*
X86969890Y-48369740D01*
G75*
G02*
X86751140Y-48150990I0J218750D01*
G01*
X86751140Y-47713490D01*
G75*
G02*
X86969890Y-47494740I218750J0D01*
G01*
G37*
G36*
G01*
X75303900Y-52753550D02*
X75303900Y-53266050D01*
G75*
G02*
X75085150Y-53484800I-218750J0D01*
G01*
X74647650Y-53484800D01*
G75*
G02*
X74428900Y-53266050I0J218750D01*
G01*
X74428900Y-52753550D01*
G75*
G02*
X74647650Y-52534800I218750J0D01*
G01*
X75085150Y-52534800D01*
G75*
G02*
X75303900Y-52753550I0J-218750D01*
G01*
G37*
G36*
G01*
X76878900Y-52753550D02*
X76878900Y-53266050D01*
G75*
G02*
X76660150Y-53484800I-218750J0D01*
G01*
X76222650Y-53484800D01*
G75*
G02*
X76003900Y-53266050I0J218750D01*
G01*
X76003900Y-52753550D01*
G75*
G02*
X76222650Y-52534800I218750J0D01*
G01*
X76660150Y-52534800D01*
G75*
G02*
X76878900Y-52753550I0J-218750D01*
G01*
G37*
G36*
G01*
X148290700Y-29626850D02*
X148290700Y-30139350D01*
G75*
G02*
X148071950Y-30358100I-218750J0D01*
G01*
X147634450Y-30358100D01*
G75*
G02*
X147415700Y-30139350I0J218750D01*
G01*
X147415700Y-29626850D01*
G75*
G02*
X147634450Y-29408100I218750J0D01*
G01*
X148071950Y-29408100D01*
G75*
G02*
X148290700Y-29626850I0J-218750D01*
G01*
G37*
G36*
G01*
X149865700Y-29626850D02*
X149865700Y-30139350D01*
G75*
G02*
X149646950Y-30358100I-218750J0D01*
G01*
X149209450Y-30358100D01*
G75*
G02*
X148990700Y-30139350I0J218750D01*
G01*
X148990700Y-29626850D01*
G75*
G02*
X149209450Y-29408100I218750J0D01*
G01*
X149646950Y-29408100D01*
G75*
G02*
X149865700Y-29626850I0J-218750D01*
G01*
G37*
G36*
G01*
X148290800Y-71574950D02*
X148290800Y-72087450D01*
G75*
G02*
X148072050Y-72306200I-218750J0D01*
G01*
X147634550Y-72306200D01*
G75*
G02*
X147415800Y-72087450I0J218750D01*
G01*
X147415800Y-71574950D01*
G75*
G02*
X147634550Y-71356200I218750J0D01*
G01*
X148072050Y-71356200D01*
G75*
G02*
X148290800Y-71574950I0J-218750D01*
G01*
G37*
G36*
G01*
X149865800Y-71574950D02*
X149865800Y-72087450D01*
G75*
G02*
X149647050Y-72306200I-218750J0D01*
G01*
X149209550Y-72306200D01*
G75*
G02*
X148990800Y-72087450I0J218750D01*
G01*
X148990800Y-71574950D01*
G75*
G02*
X149209550Y-71356200I218750J0D01*
G01*
X149647050Y-71356200D01*
G75*
G02*
X149865800Y-71574950I0J-218750D01*
G01*
G37*
G36*
G01*
X147478000Y-64056550D02*
X147478000Y-64569050D01*
G75*
G02*
X147259250Y-64787800I-218750J0D01*
G01*
X146821750Y-64787800D01*
G75*
G02*
X146603000Y-64569050I0J218750D01*
G01*
X146603000Y-64056550D01*
G75*
G02*
X146821750Y-63837800I218750J0D01*
G01*
X147259250Y-63837800D01*
G75*
G02*
X147478000Y-64056550I0J-218750D01*
G01*
G37*
G36*
G01*
X149053000Y-64056550D02*
X149053000Y-64569050D01*
G75*
G02*
X148834250Y-64787800I-218750J0D01*
G01*
X148396750Y-64787800D01*
G75*
G02*
X148178000Y-64569050I0J218750D01*
G01*
X148178000Y-64056550D01*
G75*
G02*
X148396750Y-63837800I218750J0D01*
G01*
X148834250Y-63837800D01*
G75*
G02*
X149053000Y-64056550I0J-218750D01*
G01*
G37*
G36*
G01*
X142420050Y-62007000D02*
X141907550Y-62007000D01*
G75*
G02*
X141688800Y-61788250I0J218750D01*
G01*
X141688800Y-61350750D01*
G75*
G02*
X141907550Y-61132000I218750J0D01*
G01*
X142420050Y-61132000D01*
G75*
G02*
X142638800Y-61350750I0J-218750D01*
G01*
X142638800Y-61788250D01*
G75*
G02*
X142420050Y-62007000I-218750J0D01*
G01*
G37*
G36*
G01*
X142420050Y-63582000D02*
X141907550Y-63582000D01*
G75*
G02*
X141688800Y-63363250I0J218750D01*
G01*
X141688800Y-62925750D01*
G75*
G02*
X141907550Y-62707000I218750J0D01*
G01*
X142420050Y-62707000D01*
G75*
G02*
X142638800Y-62925750I0J-218750D01*
G01*
X142638800Y-63363250D01*
G75*
G02*
X142420050Y-63582000I-218750J0D01*
G01*
G37*
G36*
G01*
X147416000Y-75135450D02*
X147416000Y-74622950D01*
G75*
G02*
X147634750Y-74404200I218750J0D01*
G01*
X148072250Y-74404200D01*
G75*
G02*
X148291000Y-74622950I0J-218750D01*
G01*
X148291000Y-75135450D01*
G75*
G02*
X148072250Y-75354200I-218750J0D01*
G01*
X147634750Y-75354200D01*
G75*
G02*
X147416000Y-75135450I0J218750D01*
G01*
G37*
G36*
G01*
X145841000Y-75135450D02*
X145841000Y-74622950D01*
G75*
G02*
X146059750Y-74404200I218750J0D01*
G01*
X146497250Y-74404200D01*
G75*
G02*
X146716000Y-74622950I0J-218750D01*
G01*
X146716000Y-75135450D01*
G75*
G02*
X146497250Y-75354200I-218750J0D01*
G01*
X146059750Y-75354200D01*
G75*
G02*
X145841000Y-75135450I0J218750D01*
G01*
G37*
G36*
G01*
X110267000Y-41463250D02*
X110267000Y-41975750D01*
G75*
G02*
X110048250Y-42194500I-218750J0D01*
G01*
X109610750Y-42194500D01*
G75*
G02*
X109392000Y-41975750I0J218750D01*
G01*
X109392000Y-41463250D01*
G75*
G02*
X109610750Y-41244500I218750J0D01*
G01*
X110048250Y-41244500D01*
G75*
G02*
X110267000Y-41463250I0J-218750D01*
G01*
G37*
G36*
G01*
X111842000Y-41463250D02*
X111842000Y-41975750D01*
G75*
G02*
X111623250Y-42194500I-218750J0D01*
G01*
X111185750Y-42194500D01*
G75*
G02*
X110967000Y-41975750I0J218750D01*
G01*
X110967000Y-41463250D01*
G75*
G02*
X111185750Y-41244500I218750J0D01*
G01*
X111623250Y-41244500D01*
G75*
G02*
X111842000Y-41463250I0J-218750D01*
G01*
G37*
G36*
G01*
X110267000Y-43685750D02*
X110267000Y-44198250D01*
G75*
G02*
X110048250Y-44417000I-218750J0D01*
G01*
X109610750Y-44417000D01*
G75*
G02*
X109392000Y-44198250I0J218750D01*
G01*
X109392000Y-43685750D01*
G75*
G02*
X109610750Y-43467000I218750J0D01*
G01*
X110048250Y-43467000D01*
G75*
G02*
X110267000Y-43685750I0J-218750D01*
G01*
G37*
G36*
G01*
X111842000Y-43685750D02*
X111842000Y-44198250D01*
G75*
G02*
X111623250Y-44417000I-218750J0D01*
G01*
X111185750Y-44417000D01*
G75*
G02*
X110967000Y-44198250I0J218750D01*
G01*
X110967000Y-43685750D01*
G75*
G02*
X111185750Y-43467000I218750J0D01*
G01*
X111623250Y-43467000D01*
G75*
G02*
X111842000Y-43685750I0J-218750D01*
G01*
G37*
G36*
G01*
X109863140Y-49802070D02*
X109863140Y-50314570D01*
G75*
G02*
X109644390Y-50533320I-218750J0D01*
G01*
X109206890Y-50533320D01*
G75*
G02*
X108988140Y-50314570I0J218750D01*
G01*
X108988140Y-49802070D01*
G75*
G02*
X109206890Y-49583320I218750J0D01*
G01*
X109644390Y-49583320D01*
G75*
G02*
X109863140Y-49802070I0J-218750D01*
G01*
G37*
G36*
G01*
X111438140Y-49802070D02*
X111438140Y-50314570D01*
G75*
G02*
X111219390Y-50533320I-218750J0D01*
G01*
X110781890Y-50533320D01*
G75*
G02*
X110563140Y-50314570I0J218750D01*
G01*
X110563140Y-49802070D01*
G75*
G02*
X110781890Y-49583320I218750J0D01*
G01*
X111219390Y-49583320D01*
G75*
G02*
X111438140Y-49802070I0J-218750D01*
G01*
G37*
G36*
G01*
X109891080Y-46086050D02*
X109891080Y-46598550D01*
G75*
G02*
X109672330Y-46817300I-218750J0D01*
G01*
X109234830Y-46817300D01*
G75*
G02*
X109016080Y-46598550I0J218750D01*
G01*
X109016080Y-46086050D01*
G75*
G02*
X109234830Y-45867300I218750J0D01*
G01*
X109672330Y-45867300D01*
G75*
G02*
X109891080Y-46086050I0J-218750D01*
G01*
G37*
G36*
G01*
X111466080Y-46086050D02*
X111466080Y-46598550D01*
G75*
G02*
X111247330Y-46817300I-218750J0D01*
G01*
X110809830Y-46817300D01*
G75*
G02*
X110591080Y-46598550I0J218750D01*
G01*
X110591080Y-46086050D01*
G75*
G02*
X110809830Y-45867300I218750J0D01*
G01*
X111247330Y-45867300D01*
G75*
G02*
X111466080Y-46086050I0J-218750D01*
G01*
G37*
G36*
G01*
X120863070Y-38001460D02*
X120350570Y-38001460D01*
G75*
G02*
X120131820Y-37782710I0J218750D01*
G01*
X120131820Y-37345210D01*
G75*
G02*
X120350570Y-37126460I218750J0D01*
G01*
X120863070Y-37126460D01*
G75*
G02*
X121081820Y-37345210I0J-218750D01*
G01*
X121081820Y-37782710D01*
G75*
G02*
X120863070Y-38001460I-218750J0D01*
G01*
G37*
G36*
G01*
X120863070Y-39576460D02*
X120350570Y-39576460D01*
G75*
G02*
X120131820Y-39357710I0J218750D01*
G01*
X120131820Y-38920210D01*
G75*
G02*
X120350570Y-38701460I218750J0D01*
G01*
X120863070Y-38701460D01*
G75*
G02*
X121081820Y-38920210I0J-218750D01*
G01*
X121081820Y-39357710D01*
G75*
G02*
X120863070Y-39576460I-218750J0D01*
G01*
G37*
G36*
G01*
X136997730Y-59326260D02*
X137510230Y-59326260D01*
G75*
G02*
X137728980Y-59545010I0J-218750D01*
G01*
X137728980Y-59982510D01*
G75*
G02*
X137510230Y-60201260I-218750J0D01*
G01*
X136997730Y-60201260D01*
G75*
G02*
X136778980Y-59982510I0J218750D01*
G01*
X136778980Y-59545010D01*
G75*
G02*
X136997730Y-59326260I218750J0D01*
G01*
G37*
G36*
G01*
X136997730Y-57751260D02*
X137510230Y-57751260D01*
G75*
G02*
X137728980Y-57970010I0J-218750D01*
G01*
X137728980Y-58407510D01*
G75*
G02*
X137510230Y-58626260I-218750J0D01*
G01*
X136997730Y-58626260D01*
G75*
G02*
X136778980Y-58407510I0J218750D01*
G01*
X136778980Y-57970010D01*
G75*
G02*
X136997730Y-57751260I218750J0D01*
G01*
G37*
G36*
G01*
X142107400Y-41277250D02*
X142107400Y-40764750D01*
G75*
G02*
X142326150Y-40546000I218750J0D01*
G01*
X142763650Y-40546000D01*
G75*
G02*
X142982400Y-40764750I0J-218750D01*
G01*
X142982400Y-41277250D01*
G75*
G02*
X142763650Y-41496000I-218750J0D01*
G01*
X142326150Y-41496000D01*
G75*
G02*
X142107400Y-41277250I0J218750D01*
G01*
G37*
G36*
G01*
X140532400Y-41277250D02*
X140532400Y-40764750D01*
G75*
G02*
X140751150Y-40546000I218750J0D01*
G01*
X141188650Y-40546000D01*
G75*
G02*
X141407400Y-40764750I0J-218750D01*
G01*
X141407400Y-41277250D01*
G75*
G02*
X141188650Y-41496000I-218750J0D01*
G01*
X140751150Y-41496000D01*
G75*
G02*
X140532400Y-41277250I0J218750D01*
G01*
G37*
G36*
G01*
X118989360Y-46266390D02*
X118989360Y-46778890D01*
G75*
G02*
X118770610Y-46997640I-218750J0D01*
G01*
X118333110Y-46997640D01*
G75*
G02*
X118114360Y-46778890I0J218750D01*
G01*
X118114360Y-46266390D01*
G75*
G02*
X118333110Y-46047640I218750J0D01*
G01*
X118770610Y-46047640D01*
G75*
G02*
X118989360Y-46266390I0J-218750D01*
G01*
G37*
G36*
G01*
X120564360Y-46266390D02*
X120564360Y-46778890D01*
G75*
G02*
X120345610Y-46997640I-218750J0D01*
G01*
X119908110Y-46997640D01*
G75*
G02*
X119689360Y-46778890I0J218750D01*
G01*
X119689360Y-46266390D01*
G75*
G02*
X119908110Y-46047640I218750J0D01*
G01*
X120345610Y-46047640D01*
G75*
G02*
X120564360Y-46266390I0J-218750D01*
G01*
G37*
G36*
G01*
X122098090Y-58462660D02*
X122610590Y-58462660D01*
G75*
G02*
X122829340Y-58681410I0J-218750D01*
G01*
X122829340Y-59118910D01*
G75*
G02*
X122610590Y-59337660I-218750J0D01*
G01*
X122098090Y-59337660D01*
G75*
G02*
X121879340Y-59118910I0J218750D01*
G01*
X121879340Y-58681410D01*
G75*
G02*
X122098090Y-58462660I218750J0D01*
G01*
G37*
G36*
G01*
X122098090Y-56887660D02*
X122610590Y-56887660D01*
G75*
G02*
X122829340Y-57106410I0J-218750D01*
G01*
X122829340Y-57543910D01*
G75*
G02*
X122610590Y-57762660I-218750J0D01*
G01*
X122098090Y-57762660D01*
G75*
G02*
X121879340Y-57543910I0J218750D01*
G01*
X121879340Y-57106410D01*
G75*
G02*
X122098090Y-56887660I218750J0D01*
G01*
G37*
G36*
G01*
X119047550Y-52803540D02*
X119560050Y-52803540D01*
G75*
G02*
X119778800Y-53022290I0J-218750D01*
G01*
X119778800Y-53459790D01*
G75*
G02*
X119560050Y-53678540I-218750J0D01*
G01*
X119047550Y-53678540D01*
G75*
G02*
X118828800Y-53459790I0J218750D01*
G01*
X118828800Y-53022290D01*
G75*
G02*
X119047550Y-52803540I218750J0D01*
G01*
G37*
G36*
G01*
X119047550Y-51228540D02*
X119560050Y-51228540D01*
G75*
G02*
X119778800Y-51447290I0J-218750D01*
G01*
X119778800Y-51884790D01*
G75*
G02*
X119560050Y-52103540I-218750J0D01*
G01*
X119047550Y-52103540D01*
G75*
G02*
X118828800Y-51884790I0J218750D01*
G01*
X118828800Y-51447290D01*
G75*
G02*
X119047550Y-51228540I218750J0D01*
G01*
G37*
G36*
G01*
X119814050Y-42299140D02*
X119301550Y-42299140D01*
G75*
G02*
X119082800Y-42080390I0J218750D01*
G01*
X119082800Y-41642890D01*
G75*
G02*
X119301550Y-41424140I218750J0D01*
G01*
X119814050Y-41424140D01*
G75*
G02*
X120032800Y-41642890I0J-218750D01*
G01*
X120032800Y-42080390D01*
G75*
G02*
X119814050Y-42299140I-218750J0D01*
G01*
G37*
G36*
G01*
X119814050Y-43874140D02*
X119301550Y-43874140D01*
G75*
G02*
X119082800Y-43655390I0J218750D01*
G01*
X119082800Y-43217890D01*
G75*
G02*
X119301550Y-42999140I218750J0D01*
G01*
X119814050Y-42999140D01*
G75*
G02*
X120032800Y-43217890I0J-218750D01*
G01*
X120032800Y-43655390D01*
G75*
G02*
X119814050Y-43874140I-218750J0D01*
G01*
G37*
G36*
G01*
X142107400Y-42763150D02*
X142107400Y-42250650D01*
G75*
G02*
X142326150Y-42031900I218750J0D01*
G01*
X142763650Y-42031900D01*
G75*
G02*
X142982400Y-42250650I0J-218750D01*
G01*
X142982400Y-42763150D01*
G75*
G02*
X142763650Y-42981900I-218750J0D01*
G01*
X142326150Y-42981900D01*
G75*
G02*
X142107400Y-42763150I0J218750D01*
G01*
G37*
G36*
G01*
X140532400Y-42763150D02*
X140532400Y-42250650D01*
G75*
G02*
X140751150Y-42031900I218750J0D01*
G01*
X141188650Y-42031900D01*
G75*
G02*
X141407400Y-42250650I0J-218750D01*
G01*
X141407400Y-42763150D01*
G75*
G02*
X141188650Y-42981900I-218750J0D01*
G01*
X140751150Y-42981900D01*
G75*
G02*
X140532400Y-42763150I0J218750D01*
G01*
G37*
G36*
G01*
X113424220Y-52809430D02*
X113424220Y-53321930D01*
G75*
G02*
X113205470Y-53540680I-218750J0D01*
G01*
X112767970Y-53540680D01*
G75*
G02*
X112549220Y-53321930I0J218750D01*
G01*
X112549220Y-52809430D01*
G75*
G02*
X112767970Y-52590680I218750J0D01*
G01*
X113205470Y-52590680D01*
G75*
G02*
X113424220Y-52809430I0J-218750D01*
G01*
G37*
G36*
G01*
X114999220Y-52809430D02*
X114999220Y-53321930D01*
G75*
G02*
X114780470Y-53540680I-218750J0D01*
G01*
X114342970Y-53540680D01*
G75*
G02*
X114124220Y-53321930I0J218750D01*
G01*
X114124220Y-52809430D01*
G75*
G02*
X114342970Y-52590680I218750J0D01*
G01*
X114780470Y-52590680D01*
G75*
G02*
X114999220Y-52809430I0J-218750D01*
G01*
G37*
G36*
G01*
X134589810Y-59326260D02*
X135102310Y-59326260D01*
G75*
G02*
X135321060Y-59545010I0J-218750D01*
G01*
X135321060Y-59982510D01*
G75*
G02*
X135102310Y-60201260I-218750J0D01*
G01*
X134589810Y-60201260D01*
G75*
G02*
X134371060Y-59982510I0J218750D01*
G01*
X134371060Y-59545010D01*
G75*
G02*
X134589810Y-59326260I218750J0D01*
G01*
G37*
G36*
G01*
X134589810Y-57751260D02*
X135102310Y-57751260D01*
G75*
G02*
X135321060Y-57970010I0J-218750D01*
G01*
X135321060Y-58407510D01*
G75*
G02*
X135102310Y-58626260I-218750J0D01*
G01*
X134589810Y-58626260D01*
G75*
G02*
X134371060Y-58407510I0J218750D01*
G01*
X134371060Y-57970010D01*
G75*
G02*
X134589810Y-57751260I218750J0D01*
G01*
G37*
D17*
X181801200Y-34768000D03*
X181301200Y-34768000D03*
X180801200Y-34768000D03*
X182801200Y-34768000D03*
X182301200Y-34768000D03*
X179801200Y-34768000D03*
X180301200Y-34768000D03*
X179301200Y-34768000D03*
D18*
X183451200Y-34768000D03*
X183451200Y-34768000D03*
D19*
X184251200Y-34768000D03*
X184251200Y-34768000D03*
D18*
X178651200Y-34768000D03*
D19*
X177851200Y-34768000D03*
D18*
X178651200Y-34768000D03*
D19*
X177851200Y-34768000D03*
D17*
X170358500Y-34806100D03*
X169858500Y-34806100D03*
X169358500Y-34806100D03*
X171358500Y-34806100D03*
X170858500Y-34806100D03*
X168358500Y-34806100D03*
X168858500Y-34806100D03*
X167858500Y-34806100D03*
D18*
X172008500Y-34806100D03*
X172008500Y-34806100D03*
D19*
X172808500Y-34806100D03*
X172808500Y-34806100D03*
D18*
X167208500Y-34806100D03*
D19*
X166408500Y-34806100D03*
D18*
X167208500Y-34806100D03*
D19*
X166408500Y-34806100D03*
G36*
G01*
X145841000Y-73611450D02*
X145841000Y-73098950D01*
G75*
G02*
X146059750Y-72880200I218750J0D01*
G01*
X146497250Y-72880200D01*
G75*
G02*
X146716000Y-73098950I0J-218750D01*
G01*
X146716000Y-73611450D01*
G75*
G02*
X146497250Y-73830200I-218750J0D01*
G01*
X146059750Y-73830200D01*
G75*
G02*
X145841000Y-73611450I0J218750D01*
G01*
G37*
G36*
G01*
X147416000Y-73611450D02*
X147416000Y-73098950D01*
G75*
G02*
X147634750Y-72880200I218750J0D01*
G01*
X148072250Y-72880200D01*
G75*
G02*
X148291000Y-73098950I0J-218750D01*
G01*
X148291000Y-73611450D01*
G75*
G02*
X148072250Y-73830200I-218750J0D01*
G01*
X147634750Y-73830200D01*
G75*
G02*
X147416000Y-73611450I0J218750D01*
G01*
G37*
D20*
X131993640Y-60947300D03*
X130723640Y-60947300D03*
X129453640Y-60947300D03*
X128183640Y-60947300D03*
X128183640Y-68186300D03*
X129453640Y-68186300D03*
X130723640Y-68186300D03*
X131993640Y-68186300D03*
D21*
X151739900Y-41086200D03*
D22*
X151689900Y-30411200D03*
D23*
X154139900Y-30286200D03*
X155239900Y-30286200D03*
X156339900Y-30286200D03*
X157439900Y-30286200D03*
X158539900Y-30286200D03*
X159639900Y-30286200D03*
X160739900Y-30286200D03*
D24*
X151339900Y-38661200D03*
D25*
X162964900Y-39511200D03*
D26*
X163289900Y-38011200D03*
D27*
X163039900Y-30411200D03*
D23*
X161839900Y-30286200D03*
D28*
X74757720Y-51402160D03*
X75407720Y-51402160D03*
X76067720Y-51402160D03*
X76717720Y-51402160D03*
X76717720Y-49202160D03*
X76067720Y-49202160D03*
X75407720Y-49202160D03*
X74757720Y-49202160D03*
D29*
X176065140Y-74137340D03*
X177965140Y-74137340D03*
X177965140Y-76337340D03*
X177015140Y-76337340D03*
X176065140Y-76337340D03*
G36*
G01*
X176562600Y-69063550D02*
X176562600Y-69976050D01*
G75*
G02*
X176318850Y-70219800I-243750J0D01*
G01*
X175831350Y-70219800D01*
G75*
G02*
X175587600Y-69976050I0J243750D01*
G01*
X175587600Y-69063550D01*
G75*
G02*
X175831350Y-68819800I243750J0D01*
G01*
X176318850Y-68819800D01*
G75*
G02*
X176562600Y-69063550I0J-243750D01*
G01*
G37*
G36*
G01*
X178437600Y-69063550D02*
X178437600Y-69976050D01*
G75*
G02*
X178193850Y-70219800I-243750J0D01*
G01*
X177706350Y-70219800D01*
G75*
G02*
X177462600Y-69976050I0J243750D01*
G01*
X177462600Y-69063550D01*
G75*
G02*
X177706350Y-68819800I243750J0D01*
G01*
X178193850Y-68819800D01*
G75*
G02*
X178437600Y-69063550I0J-243750D01*
G01*
G37*
G36*
G01*
X177465140Y-78731430D02*
X177465140Y-77818930D01*
G75*
G02*
X177708890Y-77575180I243750J0D01*
G01*
X178196390Y-77575180D01*
G75*
G02*
X178440140Y-77818930I0J-243750D01*
G01*
X178440140Y-78731430D01*
G75*
G02*
X178196390Y-78975180I-243750J0D01*
G01*
X177708890Y-78975180D01*
G75*
G02*
X177465140Y-78731430I0J243750D01*
G01*
G37*
G36*
G01*
X175590140Y-78731430D02*
X175590140Y-77818930D01*
G75*
G02*
X175833890Y-77575180I243750J0D01*
G01*
X176321390Y-77575180D01*
G75*
G02*
X176565140Y-77818930I0J-243750D01*
G01*
X176565140Y-78731430D01*
G75*
G02*
X176321390Y-78975180I-243750J0D01*
G01*
X175833890Y-78975180D01*
G75*
G02*
X175590140Y-78731430I0J243750D01*
G01*
G37*
D30*
X172688460Y-42795000D03*
X172688460Y-43445000D03*
X172688460Y-44095000D03*
X172688460Y-44745000D03*
X172688460Y-45395000D03*
X172688460Y-46045000D03*
X172688460Y-46695000D03*
X172688460Y-47345000D03*
X172688460Y-47995000D03*
X172688460Y-48645000D03*
X178588460Y-48645000D03*
X178588460Y-47995000D03*
X178588460Y-47345000D03*
X178588460Y-46695000D03*
X178588460Y-46045000D03*
X178588460Y-45395000D03*
X178588460Y-44745000D03*
X178588460Y-44095000D03*
X178588460Y-43445000D03*
X178588460Y-42795000D03*
D31*
X63558420Y-52549560D03*
X63558420Y-57249560D03*
D32*
X63733640Y-61494040D03*
X64683640Y-61494040D03*
X65633640Y-61494040D03*
X65633640Y-64114040D03*
X64683640Y-64114040D03*
X63733640Y-64114040D03*
G36*
G01*
X68564340Y-59241370D02*
X68564340Y-60153870D01*
G75*
G02*
X68320590Y-60397620I-243750J0D01*
G01*
X67833090Y-60397620D01*
G75*
G02*
X67589340Y-60153870I0J243750D01*
G01*
X67589340Y-59241370D01*
G75*
G02*
X67833090Y-58997620I243750J0D01*
G01*
X68320590Y-58997620D01*
G75*
G02*
X68564340Y-59241370I0J-243750D01*
G01*
G37*
G36*
G01*
X70439340Y-59241370D02*
X70439340Y-60153870D01*
G75*
G02*
X70195590Y-60397620I-243750J0D01*
G01*
X69708090Y-60397620D01*
G75*
G02*
X69464340Y-60153870I0J243750D01*
G01*
X69464340Y-59241370D01*
G75*
G02*
X69708090Y-58997620I243750J0D01*
G01*
X70195590Y-58997620D01*
G75*
G02*
X70439340Y-59241370I0J-243750D01*
G01*
G37*
G36*
G01*
X68523170Y-65645880D02*
X67610670Y-65645880D01*
G75*
G02*
X67366920Y-65402130I0J243750D01*
G01*
X67366920Y-64914630D01*
G75*
G02*
X67610670Y-64670880I243750J0D01*
G01*
X68523170Y-64670880D01*
G75*
G02*
X68766920Y-64914630I0J-243750D01*
G01*
X68766920Y-65402130D01*
G75*
G02*
X68523170Y-65645880I-243750J0D01*
G01*
G37*
G36*
G01*
X68523170Y-67520880D02*
X67610670Y-67520880D01*
G75*
G02*
X67366920Y-67277130I0J243750D01*
G01*
X67366920Y-66789630D01*
G75*
G02*
X67610670Y-66545880I243750J0D01*
G01*
X68523170Y-66545880D01*
G75*
G02*
X68766920Y-66789630I0J-243750D01*
G01*
X68766920Y-67277130D01*
G75*
G02*
X68523170Y-67520880I-243750J0D01*
G01*
G37*
D33*
X89080340Y-53210440D03*
X90350340Y-53210440D03*
X91620340Y-53210440D03*
X92890340Y-53210440D03*
X92890340Y-47810440D03*
X91620340Y-47810440D03*
X90350340Y-47810440D03*
X89080340Y-47810440D03*
D34*
X89855000Y-42173400D03*
X91755000Y-42173400D03*
X90805000Y-40173400D03*
G36*
G01*
X141446200Y-81508000D02*
X140646200Y-81508000D01*
G75*
G02*
X140396200Y-81258000I0J250000D01*
G01*
X140396200Y-80433000D01*
G75*
G02*
X140646200Y-80183000I250000J0D01*
G01*
X141446200Y-80183000D01*
G75*
G02*
X141696200Y-80433000I0J-250000D01*
G01*
X141696200Y-81258000D01*
G75*
G02*
X141446200Y-81508000I-250000J0D01*
G01*
G37*
G36*
G01*
X141446200Y-79583000D02*
X140646200Y-79583000D01*
G75*
G02*
X140396200Y-79333000I0J250000D01*
G01*
X140396200Y-78508000D01*
G75*
G02*
X140646200Y-78258000I250000J0D01*
G01*
X141446200Y-78258000D01*
G75*
G02*
X141696200Y-78508000I0J-250000D01*
G01*
X141696200Y-79333000D01*
G75*
G02*
X141446200Y-79583000I-250000J0D01*
G01*
G37*
G36*
G01*
X104502000Y-78448500D02*
X105302000Y-78448500D01*
G75*
G02*
X105552000Y-78698500I0J-250000D01*
G01*
X105552000Y-79523500D01*
G75*
G02*
X105302000Y-79773500I-250000J0D01*
G01*
X104502000Y-79773500D01*
G75*
G02*
X104252000Y-79523500I0J250000D01*
G01*
X104252000Y-78698500D01*
G75*
G02*
X104502000Y-78448500I250000J0D01*
G01*
G37*
G36*
G01*
X104502000Y-80373500D02*
X105302000Y-80373500D01*
G75*
G02*
X105552000Y-80623500I0J-250000D01*
G01*
X105552000Y-81448500D01*
G75*
G02*
X105302000Y-81698500I-250000J0D01*
G01*
X104502000Y-81698500D01*
G75*
G02*
X104252000Y-81448500I0J250000D01*
G01*
X104252000Y-80623500D01*
G75*
G02*
X104502000Y-80373500I250000J0D01*
G01*
G37*
X74762320Y-43298620D03*
X76662320Y-43298620D03*
X75712320Y-41298620D03*
D29*
X181899600Y-36712800D03*
X180949600Y-36712800D03*
X179999600Y-36712800D03*
X179999600Y-38912800D03*
X181899600Y-38912800D03*
X180949600Y-38912800D03*
X169557700Y-38933300D03*
X170507700Y-38933300D03*
X168607700Y-38933300D03*
X168607700Y-36733300D03*
X169557700Y-36733300D03*
X170507700Y-36733300D03*
X175986400Y-62237800D03*
X176936400Y-62237800D03*
X177886400Y-62237800D03*
X177886400Y-60037800D03*
X175986400Y-60037800D03*
X176936400Y-60037800D03*
D35*
X147976200Y-59486800D03*
X144276200Y-59486800D03*
D36*
X113855500Y-50046500D03*
X113855500Y-46346500D03*
D37*
X113728500Y-41676000D03*
X113728500Y-44176000D03*
G36*
G01*
X70408860Y-62083630D02*
X70408860Y-62996130D01*
G75*
G02*
X70165110Y-63239880I-243750J0D01*
G01*
X69677610Y-63239880D01*
G75*
G02*
X69433860Y-62996130I0J243750D01*
G01*
X69433860Y-62083630D01*
G75*
G02*
X69677610Y-61839880I243750J0D01*
G01*
X70165110Y-61839880D01*
G75*
G02*
X70408860Y-62083630I0J-243750D01*
G01*
G37*
G36*
G01*
X68533860Y-62083630D02*
X68533860Y-62996130D01*
G75*
G02*
X68290110Y-63239880I-243750J0D01*
G01*
X67802610Y-63239880D01*
G75*
G02*
X67558860Y-62996130I0J243750D01*
G01*
X67558860Y-62083630D01*
G75*
G02*
X67802610Y-61839880I243750J0D01*
G01*
X68290110Y-61839880D01*
G75*
G02*
X68533860Y-62083630I0J-243750D01*
G01*
G37*
D38*
X122645281Y-41510141D03*
X122645281Y-42010141D03*
X122645281Y-42510141D03*
X122645281Y-43010141D03*
X122645281Y-43510141D03*
X122645281Y-44010141D03*
X122645281Y-44510141D03*
X122645281Y-45010141D03*
X122645281Y-45510141D03*
X122645281Y-46010141D03*
X122645281Y-46510141D03*
X122645281Y-47010141D03*
X122645281Y-47510141D03*
X122645281Y-48010141D03*
X122645281Y-48510141D03*
X122645281Y-49010141D03*
X122645281Y-49510141D03*
X122645281Y-50010141D03*
X122645281Y-50510141D03*
X122645281Y-51010141D03*
X122645281Y-51510141D03*
X122645281Y-52010141D03*
X122645281Y-52510141D03*
X122645281Y-53010141D03*
X122645281Y-53510141D03*
D39*
X124545281Y-55410141D03*
X125045281Y-55410141D03*
X125545281Y-55410141D03*
X126045281Y-55410141D03*
X126545281Y-55410141D03*
X127045281Y-55410141D03*
X127545281Y-55410141D03*
X128045281Y-55410141D03*
X128545281Y-55410141D03*
X129045281Y-55410141D03*
X129545281Y-55410141D03*
X130045281Y-55410141D03*
X130545281Y-55410141D03*
X131045281Y-55410141D03*
X131545281Y-55410141D03*
X132045281Y-55410141D03*
X132545281Y-55410141D03*
X133045281Y-55410141D03*
X133545281Y-55410141D03*
X134045281Y-55410141D03*
X134545281Y-55410141D03*
X135045281Y-55410141D03*
X135545281Y-55410141D03*
X136045281Y-55410141D03*
X136545281Y-55410141D03*
D38*
X138445281Y-53510141D03*
X138445281Y-53010141D03*
X138445281Y-52510141D03*
X138445281Y-52010141D03*
X138445281Y-51510141D03*
X138445281Y-51010141D03*
X138445281Y-50510141D03*
X138445281Y-50010141D03*
X138445281Y-49510141D03*
X138445281Y-49010141D03*
X138445281Y-48510141D03*
X138445281Y-48010141D03*
X138445281Y-47510141D03*
X138445281Y-47010141D03*
X138445281Y-46510141D03*
X138445281Y-46010141D03*
X138445281Y-45510141D03*
X138445281Y-45010141D03*
X138445281Y-44510141D03*
X138445281Y-44010141D03*
X138445281Y-43510141D03*
X138445281Y-43010141D03*
X138445281Y-42510141D03*
X138445281Y-42010141D03*
X138445281Y-41510141D03*
D39*
X136545281Y-39610141D03*
X136045281Y-39610141D03*
X135545281Y-39610141D03*
X135045281Y-39610141D03*
X134545281Y-39610141D03*
X134045281Y-39610141D03*
X133545281Y-39610141D03*
X133045281Y-39610141D03*
X132545281Y-39610141D03*
X132045281Y-39610141D03*
X131545281Y-39610141D03*
X131045281Y-39610141D03*
X130545281Y-39610141D03*
X130045281Y-39610141D03*
X129545281Y-39610141D03*
X129045281Y-39610141D03*
X128545281Y-39610141D03*
X128045281Y-39610141D03*
X127545281Y-39610141D03*
X127045281Y-39610141D03*
X126545281Y-39610141D03*
X126045281Y-39610141D03*
X125545281Y-39610141D03*
X125045281Y-39610141D03*
X124545281Y-39610141D03*
G36*
G01*
X150116600Y-69647750D02*
X150116600Y-70560250D01*
G75*
G02*
X149872850Y-70804000I-243750J0D01*
G01*
X149385350Y-70804000D01*
G75*
G02*
X149141600Y-70560250I0J243750D01*
G01*
X149141600Y-69647750D01*
G75*
G02*
X149385350Y-69404000I243750J0D01*
G01*
X149872850Y-69404000D01*
G75*
G02*
X150116600Y-69647750I0J-243750D01*
G01*
G37*
G36*
G01*
X148241600Y-69647750D02*
X148241600Y-70560250D01*
G75*
G02*
X147997850Y-70804000I-243750J0D01*
G01*
X147510350Y-70804000D01*
G75*
G02*
X147266600Y-70560250I0J243750D01*
G01*
X147266600Y-69647750D01*
G75*
G02*
X147510350Y-69404000I243750J0D01*
G01*
X147997850Y-69404000D01*
G75*
G02*
X148241600Y-69647750I0J-243750D01*
G01*
G37*
G36*
G01*
X140892850Y-63985200D02*
X139980350Y-63985200D01*
G75*
G02*
X139736600Y-63741450I0J243750D01*
G01*
X139736600Y-63253950D01*
G75*
G02*
X139980350Y-63010200I243750J0D01*
G01*
X140892850Y-63010200D01*
G75*
G02*
X141136600Y-63253950I0J-243750D01*
G01*
X141136600Y-63741450D01*
G75*
G02*
X140892850Y-63985200I-243750J0D01*
G01*
G37*
G36*
G01*
X140892850Y-62110200D02*
X139980350Y-62110200D01*
G75*
G02*
X139736600Y-61866450I0J243750D01*
G01*
X139736600Y-61378950D01*
G75*
G02*
X139980350Y-61135200I243750J0D01*
G01*
X140892850Y-61135200D01*
G75*
G02*
X141136600Y-61378950I0J-243750D01*
G01*
X141136600Y-61866450D01*
G75*
G02*
X140892850Y-62110200I-243750J0D01*
G01*
G37*
G36*
G01*
X118970110Y-37904000D02*
X118057610Y-37904000D01*
G75*
G02*
X117813860Y-37660250I0J243750D01*
G01*
X117813860Y-37172750D01*
G75*
G02*
X118057610Y-36929000I243750J0D01*
G01*
X118970110Y-36929000D01*
G75*
G02*
X119213860Y-37172750I0J-243750D01*
G01*
X119213860Y-37660250D01*
G75*
G02*
X118970110Y-37904000I-243750J0D01*
G01*
G37*
G36*
G01*
X118970110Y-39779000D02*
X118057610Y-39779000D01*
G75*
G02*
X117813860Y-39535250I0J243750D01*
G01*
X117813860Y-39047750D01*
G75*
G02*
X118057610Y-38804000I243750J0D01*
G01*
X118970110Y-38804000D01*
G75*
G02*
X119213860Y-39047750I0J-243750D01*
G01*
X119213860Y-39535250D01*
G75*
G02*
X118970110Y-39779000I-243750J0D01*
G01*
G37*
M02*
