%FSLAX45Y45*%
G04 Gerber Fmt 4.5, Leading zero omitted, Abs format (unit mm)*
G04 Created by KiCad (PCBNEW (5.1.2)-1) date 2019-05-25 17:58:07*
%MOMM*%
%LPD*%
G04 APERTURE LIST*
%ADD10C,0.150000*%
%ADD11C,0.200000*%
%ADD12C,0.300000*%
G04 APERTURE END LIST*
D10*
X6299200Y-8255000D02*
G75*
G02X5867400Y-7823200I0J431800D01*
G01*
X5867400Y-3225800D02*
G75*
G02X6299200Y-2794000I431800J0D01*
G01*
X18999200Y-2794000D02*
G75*
G02X19431000Y-3225800I0J-431800D01*
G01*
X19431000Y-7823200D02*
G75*
G02X18999200Y-8255000I-431800J0D01*
G01*
X6299200Y-2794000D02*
X18999200Y-2794000D01*
X5867400Y-3225800D02*
X5867400Y-7823200D01*
X6299200Y-8255000D02*
X18999200Y-8255000D01*
X19431000Y-3225800D02*
X19431000Y-7823200D01*
D11*
X5914900Y-7269800D02*
X5954900Y-7309800D01*
X5954900Y-7269800D02*
X5914900Y-7309800D01*
X5923600Y-5314000D02*
X5963600Y-5354000D01*
X5963600Y-5314000D02*
X5923600Y-5354000D01*
X5923600Y-5542600D02*
X5963600Y-5582600D01*
X5963600Y-5542600D02*
X5923600Y-5582600D01*
X5923600Y-5745800D02*
X5963600Y-5785800D01*
X5963600Y-5745800D02*
X5923600Y-5785800D01*
X5923600Y-5949000D02*
X5963600Y-5989000D01*
X5963600Y-5949000D02*
X5923600Y-5989000D01*
X5923600Y-6177600D02*
X5963600Y-6217600D01*
X5963600Y-6177600D02*
X5923600Y-6217600D01*
X5923600Y-6431600D02*
X5963600Y-6471600D01*
X5963600Y-6431600D02*
X5923600Y-6471600D01*
X5923600Y-6685600D02*
X5963600Y-6725600D01*
X5963600Y-6685600D02*
X5923600Y-6725600D01*
X5923600Y-6965000D02*
X5963600Y-7005000D01*
X5963600Y-6965000D02*
X5923600Y-7005000D01*
X6076000Y-7269800D02*
X6116000Y-7309800D01*
X6116000Y-7269800D02*
X6076000Y-7309800D01*
X6177600Y-5314000D02*
X6217600Y-5354000D01*
X6217600Y-5314000D02*
X6177600Y-5354000D01*
X6203000Y-6736400D02*
X6243000Y-6776400D01*
X6243000Y-6736400D02*
X6203000Y-6776400D01*
X6304600Y-7269800D02*
X6344600Y-7309800D01*
X6344600Y-7269800D02*
X6304600Y-7309800D01*
X6329742Y-6888542D02*
X6369742Y-6928542D01*
X6369742Y-6888542D02*
X6329742Y-6928542D01*
X6329742Y-7091742D02*
X6369742Y-7131742D01*
X6369742Y-7091742D02*
X6329742Y-7131742D01*
X6507800Y-5314000D02*
X6547800Y-5354000D01*
X6547800Y-5314000D02*
X6507800Y-5354000D01*
X6520500Y-6289360D02*
X6560500Y-6329360D01*
X6560500Y-6289360D02*
X6520500Y-6329360D01*
X6520500Y-6378260D02*
X6560500Y-6418260D01*
X6560500Y-6378260D02*
X6520500Y-6418260D01*
X6630672Y-6486528D02*
X6670672Y-6526528D01*
X6670672Y-6486528D02*
X6630672Y-6526528D01*
X6632260Y-6284280D02*
X6672260Y-6324280D01*
X6672260Y-6284280D02*
X6632260Y-6324280D01*
X6632260Y-6385880D02*
X6672260Y-6425880D01*
X6672260Y-6385880D02*
X6632260Y-6425880D01*
X6705666Y-5039172D02*
X6745666Y-5079172D01*
X6745666Y-5039172D02*
X6705666Y-5079172D01*
X6748846Y-5483926D02*
X6788846Y-5523926D01*
X6788846Y-5483926D02*
X6748846Y-5523926D01*
X6761800Y-6177600D02*
X6801800Y-6217600D01*
X6801800Y-6177600D02*
X6761800Y-6217600D01*
X6763070Y-6709730D02*
X6803070Y-6749730D01*
X6803070Y-6709730D02*
X6763070Y-6749730D01*
X6764062Y-6454738D02*
X6804062Y-6494738D01*
X6804062Y-6454738D02*
X6764062Y-6494738D01*
X6812600Y-5314000D02*
X6852600Y-5354000D01*
X6852600Y-5314000D02*
X6812600Y-5354000D01*
X6848414Y-5771454D02*
X6888414Y-5811454D01*
X6888414Y-5771454D02*
X6848414Y-5811454D01*
X6853240Y-6454460D02*
X6893240Y-6494460D01*
X6893240Y-6454460D02*
X6853240Y-6494460D01*
X6898960Y-6850700D02*
X6938960Y-6890700D01*
X6938960Y-6850700D02*
X6898960Y-6890700D01*
X6924614Y-5580700D02*
X6964614Y-5620700D01*
X6964614Y-5580700D02*
X6924614Y-5620700D01*
X6949760Y-6142040D02*
X6989760Y-6182040D01*
X6989760Y-6142040D02*
X6949760Y-6182040D01*
X6956110Y-6449380D02*
X6996110Y-6489380D01*
X6996110Y-6449380D02*
X6956110Y-6489380D01*
X6956110Y-6718620D02*
X6996110Y-6758620D01*
X6996110Y-6718620D02*
X6956110Y-6758620D01*
X7032056Y-5771454D02*
X7072056Y-5811454D01*
X7072056Y-5771454D02*
X7032056Y-5811454D01*
X7092000Y-6591620D02*
X7132000Y-6631620D01*
X7132000Y-6591620D02*
X7092000Y-6631620D01*
X7093270Y-6307140D02*
X7133270Y-6347140D01*
X7133270Y-6307140D02*
X7093270Y-6347140D01*
X7117400Y-5314000D02*
X7157400Y-5354000D01*
X7157400Y-5314000D02*
X7117400Y-5354000D01*
X7222556Y-5773740D02*
X7262556Y-5813740D01*
X7262556Y-5773740D02*
X7222556Y-5813740D01*
X7422200Y-5314000D02*
X7462200Y-5354000D01*
X7462200Y-5314000D02*
X7422200Y-5354000D01*
X7422200Y-6177600D02*
X7462200Y-6217600D01*
X7462200Y-6177600D02*
X7422200Y-6217600D01*
X7422200Y-6330000D02*
X7462200Y-6370000D01*
X7462200Y-6330000D02*
X7422200Y-6370000D01*
X7424232Y-5774248D02*
X7464232Y-5814248D01*
X7464232Y-5774248D02*
X7424232Y-5814248D01*
X8040182Y-5306634D02*
X8080182Y-5346634D01*
X8080182Y-5306634D02*
X8040182Y-5346634D01*
X8044500Y-5123500D02*
X8084500Y-5163500D01*
X8084500Y-5123500D02*
X8044500Y-5163500D01*
X8172262Y-5773740D02*
X8212262Y-5813740D01*
X8212262Y-5773740D02*
X8172262Y-5813740D01*
X8273124Y-5308436D02*
X8313124Y-5348436D01*
X8313124Y-5308436D02*
X8273124Y-5348436D01*
X8316534Y-5773740D02*
X8356534Y-5813740D01*
X8356534Y-5773740D02*
X8316534Y-5813740D01*
X8467918Y-5776788D02*
X8507918Y-5816788D01*
X8507918Y-5776788D02*
X8467918Y-5816788D01*
X8501700Y-5123500D02*
X8541700Y-5163500D01*
X8541700Y-5123500D02*
X8501700Y-5163500D01*
X8509852Y-5307674D02*
X8549852Y-5347674D01*
X8549852Y-5307674D02*
X8509852Y-5347674D01*
X8594410Y-5392232D02*
X8634410Y-5432232D01*
X8634410Y-5392232D02*
X8594410Y-5432232D01*
X8683920Y-5742904D02*
X8723920Y-5782904D01*
X8723920Y-5742904D02*
X8683920Y-5782904D01*
X8683920Y-5829772D02*
X8723920Y-5869772D01*
X8723920Y-5829772D02*
X8683920Y-5869772D01*
X8684936Y-5482758D02*
X8724936Y-5522758D01*
X8724936Y-5482758D02*
X8684936Y-5522758D01*
X8686866Y-6098860D02*
X8726866Y-6138860D01*
X8726866Y-6098860D02*
X8686866Y-6138860D01*
X8856792Y-5596448D02*
X8896792Y-5636448D01*
X8896792Y-5596448D02*
X8856792Y-5636448D01*
X8971600Y-6088700D02*
X9011600Y-6128700D01*
X9011600Y-6088700D02*
X8971600Y-6128700D01*
X9194612Y-4922586D02*
X9234612Y-4962586D01*
X9234612Y-4922586D02*
X9194612Y-4962586D01*
X9325168Y-5219258D02*
X9365168Y-5259258D01*
X9365168Y-5219258D02*
X9325168Y-5259258D01*
X9710994Y-6095304D02*
X9750994Y-6135304D01*
X9750994Y-6095304D02*
X9710994Y-6135304D01*
X9720392Y-5334066D02*
X9760392Y-5374066D01*
X9760392Y-5334066D02*
X9720392Y-5374066D01*
X9799132Y-4196908D02*
X9839132Y-4236908D01*
X9839132Y-4196908D02*
X9799132Y-4236908D01*
X10106980Y-4452940D02*
X10146980Y-4492940D01*
X10146980Y-4452940D02*
X10106980Y-4492940D01*
X10250490Y-5748594D02*
X10290490Y-5788594D01*
X10290490Y-5748594D02*
X10250490Y-5788594D01*
X10274366Y-5333304D02*
X10314366Y-5373304D01*
X10314366Y-5333304D02*
X10274366Y-5373304D01*
X10315950Y-4247948D02*
X10355950Y-4287948D01*
X10355950Y-4247948D02*
X10315950Y-4287948D01*
X10463596Y-4102166D02*
X10503596Y-4142166D01*
X10503596Y-4102166D02*
X10463596Y-4142166D01*
X10585619Y-4588494D02*
X10625619Y-4628494D01*
X10625619Y-4588494D02*
X10585619Y-4628494D01*
X10609392Y-6095304D02*
X10649392Y-6135304D01*
X10649392Y-6095304D02*
X10609392Y-6135304D01*
X10664510Y-5223830D02*
X10704510Y-5263830D01*
X10704510Y-5223830D02*
X10664510Y-5263830D01*
X10664976Y-4817896D02*
X10704976Y-4857896D01*
X10704976Y-4817896D02*
X10664976Y-4857896D01*
X10674162Y-5587304D02*
X10714162Y-5627304D01*
X10714162Y-5587304D02*
X10674162Y-5627304D01*
X10695598Y-4425000D02*
X10735598Y-4465000D01*
X10735598Y-4425000D02*
X10695598Y-4465000D01*
X10889300Y-4488500D02*
X10929300Y-4528500D01*
X10929300Y-4488500D02*
X10889300Y-4528500D01*
X10894126Y-5586288D02*
X10934126Y-5626288D01*
X10934126Y-5586288D02*
X10894126Y-5626288D01*
X10896666Y-3635822D02*
X10936666Y-3675822D01*
X10936666Y-3635822D02*
X10896666Y-3675822D01*
X10954300Y-4271100D02*
X10994300Y-4311100D01*
X10994300Y-4271100D02*
X10954300Y-4311100D01*
X10998520Y-6082350D02*
X11038520Y-6122350D01*
X11038520Y-6082350D02*
X10998520Y-6122350D01*
X11025444Y-4858070D02*
X11065444Y-4898070D01*
X11065444Y-4858070D02*
X11025444Y-4898070D01*
X11154984Y-5282250D02*
X11194984Y-5322250D01*
X11194984Y-5282250D02*
X11154984Y-5322250D01*
X11157016Y-5511612D02*
X11197016Y-5551612D01*
X11197016Y-5511612D02*
X11157016Y-5551612D01*
X11498900Y-3917000D02*
X11538900Y-3957000D01*
X11538900Y-3917000D02*
X11498900Y-3957000D01*
X11627678Y-5358450D02*
X11667678Y-5398450D01*
X11667678Y-5358450D02*
X11627678Y-5398450D01*
X11710228Y-4634804D02*
X11750228Y-4674804D01*
X11750228Y-4634804D02*
X11710228Y-4674804D01*
X11897172Y-4389186D02*
X11937172Y-4429186D01*
X11937172Y-4389186D02*
X11897172Y-4429186D01*
X11900498Y-3695742D02*
X11940498Y-3735742D01*
X11940498Y-3695742D02*
X11900498Y-3735742D01*
X11902022Y-3883242D02*
X11942022Y-3923242D01*
X11942022Y-3883242D02*
X11902022Y-3923242D01*
X11906570Y-5427792D02*
X11946570Y-5467792D01*
X11946570Y-5427792D02*
X11906570Y-5467792D01*
X11921302Y-4154490D02*
X11961302Y-4194490D01*
X11961302Y-4154490D02*
X11921302Y-4194490D01*
X12042944Y-5131604D02*
X12082944Y-5171604D01*
X12082944Y-5131604D02*
X12042944Y-5171604D01*
X12083211Y-6597466D02*
X12123211Y-6637466D01*
X12123211Y-6597466D02*
X12083211Y-6637466D01*
X12131336Y-3882480D02*
X12171336Y-3922480D01*
X12171336Y-3882480D02*
X12131336Y-3922480D01*
X12133162Y-3694980D02*
X12173162Y-3734980D01*
X12173162Y-3694980D02*
X12133162Y-3734980D01*
X12218482Y-5991164D02*
X12258482Y-6031164D01*
X12258482Y-5991164D02*
X12218482Y-6031164D01*
X12231206Y-3694980D02*
X12271206Y-3734980D01*
X12271206Y-3694980D02*
X12231206Y-3734980D01*
X12234762Y-3882480D02*
X12274762Y-3922480D01*
X12274762Y-3882480D02*
X12234762Y-3922480D01*
X12285839Y-6403106D02*
X12325839Y-6443106D01*
X12325839Y-6403106D02*
X12285839Y-6443106D01*
X12325162Y-5549458D02*
X12365162Y-5589458D01*
X12365162Y-5549458D02*
X12325162Y-5589458D01*
X12356608Y-5699014D02*
X12396608Y-5739014D01*
X12396608Y-5699014D02*
X12356608Y-5739014D01*
X12383582Y-4538792D02*
X12423582Y-4578792D01*
X12423582Y-4538792D02*
X12383582Y-4578792D01*
X12392472Y-4648266D02*
X12432472Y-4688266D01*
X12432472Y-4648266D02*
X12392472Y-4688266D01*
X12398060Y-5079050D02*
X12438060Y-5119050D01*
X12438060Y-5079050D02*
X12398060Y-5119050D01*
X12401870Y-4885502D02*
X12441870Y-4925502D01*
X12441870Y-4885502D02*
X12401870Y-4925502D01*
X12454194Y-5376484D02*
X12494194Y-5416484D01*
X12494194Y-5376484D02*
X12454194Y-5416484D01*
X12553762Y-4790760D02*
X12593762Y-4830760D01*
X12593762Y-4790760D02*
X12553762Y-4830760D01*
X12593937Y-3556023D02*
X12633937Y-3596023D01*
X12633937Y-3556023D02*
X12593937Y-3596023D01*
X12612944Y-7335332D02*
X12652944Y-7375332D01*
X12652944Y-7335332D02*
X12612944Y-7375332D01*
X12648250Y-4587306D02*
X12688250Y-4627306D01*
X12688250Y-4587306D02*
X12648250Y-4627306D01*
X12715137Y-5375299D02*
X12755137Y-5415299D01*
X12755137Y-5375299D02*
X12715137Y-5415299D01*
X12717084Y-4744532D02*
X12757084Y-4784532D01*
X12757084Y-4744532D02*
X12717084Y-4784532D01*
X12718100Y-3688400D02*
X12758100Y-3728400D01*
X12758100Y-3688400D02*
X12718100Y-3728400D01*
X12763566Y-4439478D02*
X12803566Y-4479478D01*
X12803566Y-4439478D02*
X12763566Y-4479478D01*
X12793538Y-6230178D02*
X12833538Y-6270178D01*
X12833538Y-6230178D02*
X12793538Y-6270178D01*
X12911394Y-5346258D02*
X12951394Y-5386258D01*
X12951394Y-5346258D02*
X12911394Y-5386258D01*
X12924348Y-4392751D02*
X12964348Y-4432751D01*
X12964348Y-4392751D02*
X12924348Y-4432751D01*
X12993690Y-6939854D02*
X13033690Y-6979854D01*
X13033690Y-6939854D02*
X12993690Y-6979854D01*
X13062270Y-4320251D02*
X13102270Y-4360251D01*
X13102270Y-4320251D02*
X13062270Y-4360251D01*
X13070001Y-4127168D02*
X13110001Y-4167168D01*
X13110001Y-4127168D02*
X13070001Y-4167168D01*
X13093512Y-5172522D02*
X13133512Y-5212522D01*
X13133512Y-5172522D02*
X13093512Y-5212522D01*
X13110784Y-5351084D02*
X13150784Y-5391084D01*
X13150784Y-5351084D02*
X13110784Y-5391084D01*
X13179364Y-6936552D02*
X13219364Y-6976552D01*
X13219364Y-6936552D02*
X13179364Y-6976552D01*
X13214162Y-5058730D02*
X13254162Y-5098730D01*
X13254162Y-5058730D02*
X13214162Y-5098730D01*
X13221782Y-4889566D02*
X13261782Y-4929566D01*
X13261782Y-4889566D02*
X13221782Y-4929566D01*
X13228386Y-4130249D02*
X13268386Y-4170249D01*
X13268386Y-4130249D02*
X13228386Y-4170249D01*
X13421426Y-7144578D02*
X13461426Y-7184578D01*
X13461426Y-7144578D02*
X13421426Y-7184578D01*
X13429554Y-4808032D02*
X13469554Y-4848032D01*
X13469554Y-4808032D02*
X13429554Y-4848032D01*
X13484164Y-5987862D02*
X13524164Y-6027862D01*
X13524164Y-5987862D02*
X13484164Y-6027862D01*
X13531874Y-3801038D02*
X13571874Y-3841038D01*
X13571874Y-3801038D02*
X13531874Y-3841038D01*
X13538242Y-6838230D02*
X13578242Y-6878230D01*
X13578242Y-6838230D02*
X13538242Y-6878230D01*
X13539028Y-5370134D02*
X13579028Y-5410134D01*
X13579028Y-5370134D02*
X13539028Y-5410134D01*
X13540020Y-7025730D02*
X13580020Y-7065730D01*
X13580020Y-7025730D02*
X13540020Y-7065730D01*
X13583224Y-4889623D02*
X13623224Y-4929623D01*
X13623224Y-4889623D02*
X13583224Y-4929623D01*
X13642406Y-7131370D02*
X13682406Y-7171370D01*
X13682406Y-7131370D02*
X13642406Y-7171370D01*
X13682109Y-4236897D02*
X13722109Y-4276897D01*
X13722109Y-4236897D02*
X13682109Y-4276897D01*
X13699048Y-5897462D02*
X13739048Y-5937462D01*
X13739048Y-5897462D02*
X13699048Y-5937462D01*
X13718860Y-3802700D02*
X13758860Y-3842700D01*
X13758860Y-3802700D02*
X13718860Y-3842700D01*
X13763126Y-6836914D02*
X13803126Y-6876914D01*
X13803126Y-6836914D02*
X13763126Y-6876914D01*
X13773767Y-7328431D02*
X13813767Y-7368431D01*
X13813767Y-7328431D02*
X13773767Y-7368431D01*
X13776772Y-5623626D02*
X13816772Y-5663626D01*
X13816772Y-5623626D02*
X13776772Y-5663626D01*
X13797600Y-6241100D02*
X13837600Y-6281100D01*
X13837600Y-6241100D02*
X13797600Y-6281100D01*
X13845352Y-6594668D02*
X13885352Y-6634668D01*
X13885352Y-6594668D02*
X13845352Y-6634668D01*
X13850940Y-6396040D02*
X13890940Y-6436040D01*
X13890940Y-6396040D02*
X13850940Y-6436040D01*
X13897491Y-7217780D02*
X13937491Y-7257780D01*
X13937491Y-7217780D02*
X13897491Y-7257780D01*
X13940348Y-7383338D02*
X13980348Y-7423338D01*
X13980348Y-7383338D02*
X13940348Y-7423338D01*
X13942961Y-4125618D02*
X13982961Y-4165618D01*
X13982961Y-4125618D02*
X13942961Y-4165618D01*
X13957620Y-6218240D02*
X13997620Y-6258240D01*
X13997620Y-6218240D02*
X13957620Y-6258240D01*
X14083858Y-4543364D02*
X14123858Y-4583364D01*
X14123858Y-4543364D02*
X14083858Y-4583364D01*
X14084366Y-6168202D02*
X14124366Y-6208202D01*
X14124366Y-6168202D02*
X14084366Y-6208202D01*
X14098336Y-6911914D02*
X14138336Y-6951914D01*
X14138336Y-6911914D02*
X14098336Y-6951914D01*
X14108749Y-7358700D02*
X14148749Y-7398700D01*
X14148749Y-7358700D02*
X14108749Y-7398700D01*
X14123336Y-7252890D02*
X14163336Y-7292890D01*
X14163336Y-7252890D02*
X14123336Y-7292890D01*
X14140754Y-3941614D02*
X14180754Y-3981614D01*
X14180754Y-3941614D02*
X14140754Y-3981614D01*
X14360972Y-3940114D02*
X14400972Y-3980114D01*
X14400972Y-3940114D02*
X14360972Y-3980114D01*
X14560616Y-3700338D02*
X14600616Y-3740338D01*
X14600616Y-3700338D02*
X14560616Y-3740338D01*
X14588048Y-6987328D02*
X14628048Y-7027328D01*
X14628048Y-6987328D02*
X14588048Y-7027328D01*
X14857820Y-7081586D02*
X14897820Y-7121586D01*
X14897820Y-7081586D02*
X14857820Y-7121586D01*
X14857820Y-7281992D02*
X14897820Y-7321992D01*
X14897820Y-7281992D02*
X14857820Y-7321992D01*
X14936306Y-6300052D02*
X14976306Y-6340052D01*
X14976306Y-6300052D02*
X14936306Y-6340052D01*
X15054646Y-6497386D02*
X15094646Y-6537386D01*
X15094646Y-6497386D02*
X15054646Y-6537386D01*
X15054900Y-6118672D02*
X15094900Y-6158672D01*
X15094900Y-6118672D02*
X15054900Y-6158672D01*
X15277658Y-7769672D02*
X15317658Y-7809672D01*
X15317658Y-7769672D02*
X15277658Y-7809672D01*
X15285532Y-7001400D02*
X15325532Y-7041400D01*
X15325532Y-7001400D02*
X15285532Y-7041400D01*
X15285532Y-7106400D02*
X15325532Y-7146400D01*
X15325532Y-7106400D02*
X15285532Y-7146400D01*
X15325156Y-3087436D02*
X15365156Y-3127436D01*
X15365156Y-3087436D02*
X15325156Y-3127436D01*
X15342936Y-4108770D02*
X15382936Y-4148770D01*
X15382936Y-4108770D02*
X15342936Y-4148770D01*
X15352334Y-6227892D02*
X15392334Y-6267892D01*
X15392334Y-6227892D02*
X15352334Y-6267892D01*
X15481327Y-6524017D02*
X15521327Y-6564017D01*
X15521327Y-6524017D02*
X15481327Y-6564017D01*
X15530134Y-4109278D02*
X15570134Y-4149278D01*
X15570134Y-4109278D02*
X15530134Y-4149278D01*
X15544612Y-3087436D02*
X15584612Y-3127436D01*
X15584612Y-3087436D02*
X15544612Y-3127436D01*
X15555573Y-6598263D02*
X15595573Y-6638263D01*
X15595573Y-6598263D02*
X15555573Y-6638263D01*
X16009432Y-4189288D02*
X16049432Y-4229288D01*
X16049432Y-4189288D02*
X16009432Y-4229288D01*
X16017814Y-3838006D02*
X16057814Y-3878006D01*
X16057814Y-3838006D02*
X16017814Y-3878006D01*
X16075726Y-3934018D02*
X16115726Y-3974018D01*
X16115726Y-3934018D02*
X16075726Y-3974018D01*
X16429548Y-4189796D02*
X16469548Y-4229796D01*
X16469548Y-4189796D02*
X16429548Y-4229796D01*
X16583075Y-4218498D02*
X16623075Y-4258498D01*
X16623075Y-4218498D02*
X16583075Y-4258498D01*
X16583218Y-4420428D02*
X16623218Y-4460428D01*
X16623218Y-4420428D02*
X16583218Y-4460428D01*
X16594140Y-4021140D02*
X16634140Y-4061140D01*
X16634140Y-4021140D02*
X16594140Y-4061140D01*
X16744000Y-6056442D02*
X16784000Y-6096442D01*
X16784000Y-6056442D02*
X16744000Y-6096442D01*
X16855069Y-6061197D02*
X16895069Y-6101197D01*
X16895069Y-6061197D02*
X16855069Y-6101197D01*
X16965742Y-3007680D02*
X17005742Y-3047680D01*
X17005742Y-3007680D02*
X16965742Y-3047680D01*
X16965742Y-3145856D02*
X17005742Y-3185856D01*
X17005742Y-3145856D02*
X16965742Y-3185856D01*
X16970314Y-2862900D02*
X17010314Y-2902900D01*
X17010314Y-2862900D02*
X16970314Y-2902900D01*
X17088424Y-2862900D02*
X17128424Y-2902900D01*
X17128424Y-2862900D02*
X17088424Y-2902900D01*
X17097314Y-3009966D02*
X17137314Y-3049966D01*
X17137314Y-3009966D02*
X17097314Y-3049966D01*
X17097314Y-3143570D02*
X17137314Y-3183570D01*
X17137314Y-3143570D02*
X17097314Y-3183570D01*
X17228632Y-3007680D02*
X17268632Y-3047680D01*
X17268632Y-3007680D02*
X17228632Y-3047680D01*
X17230918Y-2860614D02*
X17270918Y-2900614D01*
X17270918Y-2860614D02*
X17230918Y-2900614D01*
X17230918Y-3143570D02*
X17270918Y-3183570D01*
X17270918Y-3143570D02*
X17230918Y-3183570D01*
X17261907Y-4755116D02*
X17301907Y-4795116D01*
X17301907Y-4755116D02*
X17261907Y-4795116D01*
X17388640Y-4495116D02*
X17428640Y-4535116D01*
X17428640Y-4495116D02*
X17388640Y-4535116D01*
X17455200Y-4745040D02*
X17495200Y-4785040D01*
X17495200Y-4745040D02*
X17455200Y-4785040D01*
X17467646Y-6399088D02*
X17507646Y-6439088D01*
X17507646Y-6399088D02*
X17467646Y-6439088D01*
X17572172Y-4593467D02*
X17612172Y-4633467D01*
X17612172Y-4593467D02*
X17572172Y-4633467D01*
X17653574Y-6623878D02*
X17693574Y-6663878D01*
X17693574Y-6623878D02*
X17653574Y-6663878D01*
X17653574Y-6729796D02*
X17693574Y-6769796D01*
X17693574Y-6729796D02*
X17653574Y-6769796D01*
X17653574Y-6827332D02*
X17693574Y-6867332D01*
X17693574Y-6827332D02*
X17653574Y-6867332D01*
X17653574Y-6914708D02*
X17693574Y-6954708D01*
X17693574Y-6914708D02*
X17653574Y-6954708D01*
X17892080Y-4005900D02*
X17932080Y-4045900D01*
X17932080Y-4005900D02*
X17892080Y-4045900D01*
X18047020Y-4498914D02*
X18087020Y-4538914D01*
X18087020Y-4498914D02*
X18047020Y-4538914D01*
X18051084Y-4695510D02*
X18091084Y-4735510D01*
X18091084Y-4695510D02*
X18051084Y-4735510D01*
X18163860Y-6403152D02*
X18203860Y-6443152D01*
X18203860Y-6403152D02*
X18163860Y-6443152D01*
X18255300Y-3193100D02*
X18295300Y-3233100D01*
X18295300Y-3193100D02*
X18255300Y-3233100D01*
X18268000Y-2913700D02*
X18308000Y-2953700D01*
X18308000Y-2913700D02*
X18268000Y-2953700D01*
X18268000Y-3091500D02*
X18308000Y-3131500D01*
X18308000Y-3091500D02*
X18268000Y-3131500D01*
X18356900Y-3002600D02*
X18396900Y-3042600D01*
X18396900Y-3002600D02*
X18356900Y-3042600D01*
X18445800Y-2913700D02*
X18485800Y-2953700D01*
X18485800Y-2913700D02*
X18445800Y-2953700D01*
X18445800Y-3091500D02*
X18485800Y-3131500D01*
X18485800Y-3091500D02*
X18445800Y-3131500D01*
X18509300Y-3002600D02*
X18549300Y-3042600D01*
X18549300Y-3002600D02*
X18509300Y-3042600D01*
X18585500Y-2913700D02*
X18625500Y-2953700D01*
X18625500Y-2913700D02*
X18585500Y-2953700D01*
X18585500Y-3091500D02*
X18625500Y-3131500D01*
X18625500Y-3091500D02*
X18585500Y-3131500D01*
X19232926Y-5686110D02*
X19272926Y-5726110D01*
X19272926Y-5686110D02*
X19232926Y-5726110D01*
X18784200Y-3225800D02*
G75*
G03X18784200Y-3225800I-25000J0D01*
G01*
X18854494Y-3056094D02*
G75*
G03X18854494Y-3056094I-25000J0D01*
G01*
X18854494Y-3395506D02*
G75*
G03X18854494Y-3395506I-25000J0D01*
G01*
X19024200Y-2985800D02*
G75*
G03X19024200Y-2985800I-25000J0D01*
G01*
X19024200Y-3465800D02*
G75*
G03X19024200Y-3465800I-25000J0D01*
G01*
X19193906Y-3056094D02*
G75*
G03X19193906Y-3056094I-25000J0D01*
G01*
X19193906Y-3395506D02*
G75*
G03X19193906Y-3395506I-25000J0D01*
G01*
X19264200Y-3225800D02*
G75*
G03X19264200Y-3225800I-25000J0D01*
G01*
X16159600Y-3006600D02*
G75*
G03X16159600Y-3006600I-25000J0D01*
G01*
X16149600Y-3039100D02*
X16149600Y-2974100D01*
X16119600Y-3039100D02*
X16119600Y-2974100D01*
X16149600Y-2974100D02*
G75*
G03X16119600Y-2974100I-15000J0D01*
G01*
X16119600Y-3039100D02*
G75*
G03X16149600Y-3039100I15000J0D01*
G01*
X16859600Y-3006600D02*
G75*
G03X16859600Y-3006600I-25000J0D01*
G01*
X16849600Y-3039100D02*
X16849600Y-2974100D01*
X16819600Y-3039100D02*
X16819600Y-2974100D01*
X16849600Y-2974100D02*
G75*
G03X16819600Y-2974100I-15000J0D01*
G01*
X16819600Y-3039100D02*
G75*
G03X16849600Y-3039100I15000J0D01*
G01*
X17475320Y-3009140D02*
G75*
G03X17475320Y-3009140I-25000J0D01*
G01*
X17465320Y-3041640D02*
X17465320Y-2976640D01*
X17435320Y-3041640D02*
X17435320Y-2976640D01*
X17465320Y-2976640D02*
G75*
G03X17435320Y-2976640I-15000J0D01*
G01*
X17435320Y-3041640D02*
G75*
G03X17465320Y-3041640I15000J0D01*
G01*
X18175320Y-3009140D02*
G75*
G03X18175320Y-3009140I-25000J0D01*
G01*
X18165320Y-3041640D02*
X18165320Y-2976640D01*
X18135320Y-3041640D02*
X18135320Y-2976640D01*
X18165320Y-2976640D02*
G75*
G03X18135320Y-2976640I-15000J0D01*
G01*
X18135320Y-3041640D02*
G75*
G03X18165320Y-3041640I15000J0D01*
G01*
X18784200Y-7823200D02*
G75*
G03X18784200Y-7823200I-25000J0D01*
G01*
X18854494Y-7653494D02*
G75*
G03X18854494Y-7653494I-25000J0D01*
G01*
X18854494Y-7992906D02*
G75*
G03X18854494Y-7992906I-25000J0D01*
G01*
X19024200Y-7583200D02*
G75*
G03X19024200Y-7583200I-25000J0D01*
G01*
X19024200Y-8063200D02*
G75*
G03X19024200Y-8063200I-25000J0D01*
G01*
X19193906Y-7653494D02*
G75*
G03X19193906Y-7653494I-25000J0D01*
G01*
X19193906Y-7992906D02*
G75*
G03X19193906Y-7992906I-25000J0D01*
G01*
X19264200Y-7823200D02*
G75*
G03X19264200Y-7823200I-25000J0D01*
G01*
X17874100Y-8042400D02*
G75*
G03X17874100Y-8042400I-25000J0D01*
G01*
X17834100Y-8009900D02*
X17834100Y-8074900D01*
X17864100Y-8009900D02*
X17864100Y-8074900D01*
X17834100Y-8074900D02*
G75*
G03X17864100Y-8074900I15000J0D01*
G01*
X17864100Y-8009900D02*
G75*
G03X17834100Y-8009900I-15000J0D01*
G01*
X18574100Y-8042400D02*
G75*
G03X18574100Y-8042400I-25000J0D01*
G01*
X18534100Y-8009900D02*
X18534100Y-8074900D01*
X18564100Y-8009900D02*
X18564100Y-8074900D01*
X18534100Y-8074900D02*
G75*
G03X18564100Y-8074900I15000J0D01*
G01*
X18564100Y-8009900D02*
G75*
G03X18534100Y-8009900I-15000J0D01*
G01*
X6084200Y-3225800D02*
G75*
G03X6084200Y-3225800I-25000J0D01*
G01*
X6154494Y-3056094D02*
G75*
G03X6154494Y-3056094I-25000J0D01*
G01*
X6154494Y-3395506D02*
G75*
G03X6154494Y-3395506I-25000J0D01*
G01*
X6324200Y-2985800D02*
G75*
G03X6324200Y-2985800I-25000J0D01*
G01*
X6324200Y-3465800D02*
G75*
G03X6324200Y-3465800I-25000J0D01*
G01*
X6493906Y-3056094D02*
G75*
G03X6493906Y-3056094I-25000J0D01*
G01*
X6493906Y-3395506D02*
G75*
G03X6493906Y-3395506I-25000J0D01*
G01*
X6564200Y-3225800D02*
G75*
G03X6564200Y-3225800I-25000J0D01*
G01*
X6084200Y-7823200D02*
G75*
G03X6084200Y-7823200I-25000J0D01*
G01*
X6154494Y-7653494D02*
G75*
G03X6154494Y-7653494I-25000J0D01*
G01*
X6154494Y-7992906D02*
G75*
G03X6154494Y-7992906I-25000J0D01*
G01*
X6324200Y-7583200D02*
G75*
G03X6324200Y-7583200I-25000J0D01*
G01*
X6324200Y-8063200D02*
G75*
G03X6324200Y-8063200I-25000J0D01*
G01*
X6493906Y-7653494D02*
G75*
G03X6493906Y-7653494I-25000J0D01*
G01*
X6493906Y-7992906D02*
G75*
G03X6493906Y-7992906I-25000J0D01*
G01*
X6564200Y-7823200D02*
G75*
G03X6564200Y-7823200I-25000J0D01*
G01*
X16234600Y-3249100D02*
X16234600Y-3304100D01*
X16207100Y-3276600D02*
X16262100Y-3276600D01*
X16249600Y-3259100D02*
X16219600Y-3259100D01*
X16249600Y-3294100D02*
X16219600Y-3294100D01*
X16219600Y-3259100D02*
G75*
G03X16219600Y-3294100I0J-17500D01*
G01*
X16249600Y-3294100D02*
G75*
G03X16249600Y-3259100I0J17500D01*
G01*
X16734600Y-3249100D02*
X16734600Y-3304100D01*
X16707100Y-3276600D02*
X16762100Y-3276600D01*
X16749600Y-3259100D02*
X16719600Y-3259100D01*
X16749600Y-3294100D02*
X16719600Y-3294100D01*
X16719600Y-3259100D02*
G75*
G03X16719600Y-3294100I0J-17500D01*
G01*
X16749600Y-3294100D02*
G75*
G03X16749600Y-3259100I0J17500D01*
G01*
X17550320Y-3251640D02*
X17550320Y-3306640D01*
X17522820Y-3279140D02*
X17577820Y-3279140D01*
X17565320Y-3261640D02*
X17535320Y-3261640D01*
X17565320Y-3296640D02*
X17535320Y-3296640D01*
X17535320Y-3261640D02*
G75*
G03X17535320Y-3296640I0J-17500D01*
G01*
X17565320Y-3296640D02*
G75*
G03X17565320Y-3261640I0J17500D01*
G01*
X18050320Y-3251640D02*
X18050320Y-3306640D01*
X18022820Y-3279140D02*
X18077820Y-3279140D01*
X18065320Y-3261640D02*
X18035320Y-3261640D01*
X18065320Y-3296640D02*
X18035320Y-3296640D01*
X18035320Y-3261640D02*
G75*
G03X18035320Y-3296640I0J-17500D01*
G01*
X18065320Y-3296640D02*
G75*
G03X18065320Y-3261640I0J17500D01*
G01*
X17949100Y-7744900D02*
X17949100Y-7799900D01*
X17921600Y-7772400D02*
X17976600Y-7772400D01*
X17934100Y-7789900D02*
X17964100Y-7789900D01*
X17934100Y-7754900D02*
X17964100Y-7754900D01*
X17964100Y-7789900D02*
G75*
G03X17964100Y-7754900I0J17500D01*
G01*
X17934100Y-7754900D02*
G75*
G03X17934100Y-7789900I0J-17500D01*
G01*
X18449100Y-7744900D02*
X18449100Y-7799900D01*
X18421600Y-7772400D02*
X18476600Y-7772400D01*
X18434100Y-7789900D02*
X18464100Y-7789900D01*
X18434100Y-7754900D02*
X18464100Y-7754900D01*
X18464100Y-7789900D02*
G75*
G03X18464100Y-7754900I0J17500D01*
G01*
X18434100Y-7754900D02*
G75*
G03X18434100Y-7789900I0J-17500D01*
G01*
X15954687Y-7872497D02*
X15954687Y-7809563D01*
X15891753Y-7809563D01*
X15891753Y-7872497D01*
X15954687Y-7872497D01*
X16208687Y-7720497D02*
X16208687Y-7657563D01*
X16145753Y-7657563D01*
X16145753Y-7720497D01*
X16208687Y-7720497D01*
X16965687Y-7872497D02*
X16965687Y-7809563D01*
X16902753Y-7809563D01*
X16902753Y-7872497D01*
X16965687Y-7872497D01*
X17219687Y-7720497D02*
X17219687Y-7657563D01*
X17156753Y-7657563D01*
X17156753Y-7720497D01*
X17219687Y-7720497D01*
X16111220Y-6762030D02*
X16156220Y-6717030D01*
X16111220Y-6672030D01*
X16066220Y-6717030D01*
X16111220Y-6762030D01*
X16238220Y-6508030D02*
X16283220Y-6463030D01*
X16238220Y-6418030D01*
X16193220Y-6463030D01*
X16238220Y-6508030D01*
X16365220Y-6762030D02*
X16410220Y-6717030D01*
X16365220Y-6672030D01*
X16320220Y-6717030D01*
X16365220Y-6762030D01*
X16492220Y-6508030D02*
X16537220Y-6463030D01*
X16492220Y-6418030D01*
X16447220Y-6463030D01*
X16492220Y-6508030D01*
X16619220Y-6762030D02*
X16664220Y-6717030D01*
X16619220Y-6672030D01*
X16574220Y-6717030D01*
X16619220Y-6762030D01*
X16746220Y-6508030D02*
X16791220Y-6463030D01*
X16746220Y-6418030D01*
X16701220Y-6463030D01*
X16746220Y-6508030D01*
X16873220Y-6762030D02*
X16918220Y-6717030D01*
X16873220Y-6672030D01*
X16828220Y-6717030D01*
X16873220Y-6762030D01*
X17000220Y-6508030D02*
X17045220Y-6463030D01*
X17000220Y-6418030D01*
X16955220Y-6463030D01*
X17000220Y-6508030D01*
X14857594Y-7965216D02*
X14956594Y-8064216D01*
X14956594Y-7965216D02*
X14857594Y-8064216D01*
X14956594Y-8014716D02*
G75*
G03X14956594Y-8014716I-49500J0D01*
G01*
X15307594Y-7965216D02*
X15406594Y-8064216D01*
X15406594Y-7965216D02*
X15307594Y-8064216D01*
X15406594Y-8014716D02*
G75*
G03X15406594Y-8014716I-49500J0D01*
G01*
X10784616Y-3047268D02*
X10883616Y-3146268D01*
X10883616Y-3047268D02*
X10784616Y-3146268D01*
X10883616Y-3096768D02*
G75*
G03X10883616Y-3096768I-49500J0D01*
G01*
X11234616Y-3047268D02*
X11333616Y-3146268D01*
X11333616Y-3047268D02*
X11234616Y-3146268D01*
X11333616Y-3096768D02*
G75*
G03X11333616Y-3096768I-49500J0D01*
G01*
X11634000Y-2998000D02*
X11734000Y-3098000D01*
X11734000Y-2998000D02*
X11634000Y-3098000D01*
X11684000Y-2998000D02*
X11684000Y-3098000D01*
X11634000Y-3048000D02*
X11734000Y-3048000D01*
X11634000Y-3252000D02*
X11734000Y-3352000D01*
X11734000Y-3252000D02*
X11634000Y-3352000D01*
X11684000Y-3252000D02*
X11684000Y-3352000D01*
X11634000Y-3302000D02*
X11734000Y-3302000D01*
X11888000Y-2998000D02*
X11988000Y-3098000D01*
X11988000Y-2998000D02*
X11888000Y-3098000D01*
X11938000Y-2998000D02*
X11938000Y-3098000D01*
X11888000Y-3048000D02*
X11988000Y-3048000D01*
X11888000Y-3252000D02*
X11988000Y-3352000D01*
X11988000Y-3252000D02*
X11888000Y-3352000D01*
X11938000Y-3252000D02*
X11938000Y-3352000D01*
X11888000Y-3302000D02*
X11988000Y-3302000D01*
X12142000Y-2998000D02*
X12242000Y-3098000D01*
X12242000Y-2998000D02*
X12142000Y-3098000D01*
X12192000Y-2998000D02*
X12192000Y-3098000D01*
X12142000Y-3048000D02*
X12242000Y-3048000D01*
X12142000Y-3252000D02*
X12242000Y-3352000D01*
X12242000Y-3252000D02*
X12142000Y-3352000D01*
X12192000Y-3252000D02*
X12192000Y-3352000D01*
X12142000Y-3302000D02*
X12242000Y-3302000D01*
X12396000Y-2998000D02*
X12496000Y-3098000D01*
X12496000Y-2998000D02*
X12396000Y-3098000D01*
X12446000Y-2998000D02*
X12446000Y-3098000D01*
X12396000Y-3048000D02*
X12496000Y-3048000D01*
X12396000Y-3252000D02*
X12496000Y-3352000D01*
X12496000Y-3252000D02*
X12396000Y-3352000D01*
X12446000Y-3252000D02*
X12446000Y-3352000D01*
X12396000Y-3302000D02*
X12496000Y-3302000D01*
X12650000Y-2998000D02*
X12750000Y-3098000D01*
X12750000Y-2998000D02*
X12650000Y-3098000D01*
X12700000Y-2998000D02*
X12700000Y-3098000D01*
X12650000Y-3048000D02*
X12750000Y-3048000D01*
X12650000Y-3252000D02*
X12750000Y-3352000D01*
X12750000Y-3252000D02*
X12650000Y-3352000D01*
X12700000Y-3252000D02*
X12700000Y-3352000D01*
X12650000Y-3302000D02*
X12750000Y-3302000D01*
X12904000Y-2998000D02*
X13004000Y-3098000D01*
X13004000Y-2998000D02*
X12904000Y-3098000D01*
X12954000Y-2998000D02*
X12954000Y-3098000D01*
X12904000Y-3048000D02*
X13004000Y-3048000D01*
X12904000Y-3252000D02*
X13004000Y-3352000D01*
X13004000Y-3252000D02*
X12904000Y-3352000D01*
X12954000Y-3252000D02*
X12954000Y-3352000D01*
X12904000Y-3302000D02*
X13004000Y-3302000D01*
X13158000Y-2998000D02*
X13258000Y-3098000D01*
X13258000Y-2998000D02*
X13158000Y-3098000D01*
X13208000Y-2998000D02*
X13208000Y-3098000D01*
X13158000Y-3048000D02*
X13258000Y-3048000D01*
X13158000Y-3252000D02*
X13258000Y-3352000D01*
X13258000Y-3252000D02*
X13158000Y-3352000D01*
X13208000Y-3252000D02*
X13208000Y-3352000D01*
X13158000Y-3302000D02*
X13258000Y-3302000D01*
X13412000Y-2998000D02*
X13512000Y-3098000D01*
X13512000Y-2998000D02*
X13412000Y-3098000D01*
X13462000Y-2998000D02*
X13462000Y-3098000D01*
X13412000Y-3048000D02*
X13512000Y-3048000D01*
X13412000Y-3252000D02*
X13512000Y-3352000D01*
X13512000Y-3252000D02*
X13412000Y-3352000D01*
X13462000Y-3252000D02*
X13462000Y-3352000D01*
X13412000Y-3302000D02*
X13512000Y-3302000D01*
X13666000Y-2998000D02*
X13766000Y-3098000D01*
X13766000Y-2998000D02*
X13666000Y-3098000D01*
X13716000Y-2998000D02*
X13716000Y-3098000D01*
X13666000Y-3048000D02*
X13766000Y-3048000D01*
X13666000Y-3252000D02*
X13766000Y-3352000D01*
X13766000Y-3252000D02*
X13666000Y-3352000D01*
X13716000Y-3252000D02*
X13716000Y-3352000D01*
X13666000Y-3302000D02*
X13766000Y-3302000D01*
X13920000Y-2998000D02*
X14020000Y-3098000D01*
X14020000Y-2998000D02*
X13920000Y-3098000D01*
X13970000Y-2998000D02*
X13970000Y-3098000D01*
X13920000Y-3048000D02*
X14020000Y-3048000D01*
X13920000Y-3252000D02*
X14020000Y-3352000D01*
X14020000Y-3252000D02*
X13920000Y-3352000D01*
X13970000Y-3252000D02*
X13970000Y-3352000D01*
X13920000Y-3302000D02*
X14020000Y-3302000D01*
X14174000Y-2998000D02*
X14274000Y-3098000D01*
X14274000Y-2998000D02*
X14174000Y-3098000D01*
X14224000Y-2998000D02*
X14224000Y-3098000D01*
X14174000Y-3048000D02*
X14274000Y-3048000D01*
X14174000Y-3252000D02*
X14274000Y-3352000D01*
X14274000Y-3252000D02*
X14174000Y-3352000D01*
X14224000Y-3252000D02*
X14224000Y-3352000D01*
X14174000Y-3302000D02*
X14274000Y-3302000D01*
X14428000Y-2998000D02*
X14528000Y-3098000D01*
X14528000Y-2998000D02*
X14428000Y-3098000D01*
X14478000Y-2998000D02*
X14478000Y-3098000D01*
X14428000Y-3048000D02*
X14528000Y-3048000D01*
X14428000Y-3252000D02*
X14528000Y-3352000D01*
X14528000Y-3252000D02*
X14428000Y-3352000D01*
X14478000Y-3252000D02*
X14478000Y-3352000D01*
X14428000Y-3302000D02*
X14528000Y-3302000D01*
X11634000Y-7570000D02*
X11734000Y-7670000D01*
X11734000Y-7570000D02*
X11634000Y-7670000D01*
X11684000Y-7570000D02*
X11684000Y-7670000D01*
X11634000Y-7620000D02*
X11734000Y-7620000D01*
X11634000Y-7824000D02*
X11734000Y-7924000D01*
X11734000Y-7824000D02*
X11634000Y-7924000D01*
X11684000Y-7824000D02*
X11684000Y-7924000D01*
X11634000Y-7874000D02*
X11734000Y-7874000D01*
X11888000Y-7570000D02*
X11988000Y-7670000D01*
X11988000Y-7570000D02*
X11888000Y-7670000D01*
X11938000Y-7570000D02*
X11938000Y-7670000D01*
X11888000Y-7620000D02*
X11988000Y-7620000D01*
X11888000Y-7824000D02*
X11988000Y-7924000D01*
X11988000Y-7824000D02*
X11888000Y-7924000D01*
X11938000Y-7824000D02*
X11938000Y-7924000D01*
X11888000Y-7874000D02*
X11988000Y-7874000D01*
X12142000Y-7570000D02*
X12242000Y-7670000D01*
X12242000Y-7570000D02*
X12142000Y-7670000D01*
X12192000Y-7570000D02*
X12192000Y-7670000D01*
X12142000Y-7620000D02*
X12242000Y-7620000D01*
X12142000Y-7824000D02*
X12242000Y-7924000D01*
X12242000Y-7824000D02*
X12142000Y-7924000D01*
X12192000Y-7824000D02*
X12192000Y-7924000D01*
X12142000Y-7874000D02*
X12242000Y-7874000D01*
X12396000Y-7570000D02*
X12496000Y-7670000D01*
X12496000Y-7570000D02*
X12396000Y-7670000D01*
X12446000Y-7570000D02*
X12446000Y-7670000D01*
X12396000Y-7620000D02*
X12496000Y-7620000D01*
X12396000Y-7824000D02*
X12496000Y-7924000D01*
X12496000Y-7824000D02*
X12396000Y-7924000D01*
X12446000Y-7824000D02*
X12446000Y-7924000D01*
X12396000Y-7874000D02*
X12496000Y-7874000D01*
X12650000Y-7570000D02*
X12750000Y-7670000D01*
X12750000Y-7570000D02*
X12650000Y-7670000D01*
X12700000Y-7570000D02*
X12700000Y-7670000D01*
X12650000Y-7620000D02*
X12750000Y-7620000D01*
X12650000Y-7824000D02*
X12750000Y-7924000D01*
X12750000Y-7824000D02*
X12650000Y-7924000D01*
X12700000Y-7824000D02*
X12700000Y-7924000D01*
X12650000Y-7874000D02*
X12750000Y-7874000D01*
X12904000Y-7570000D02*
X13004000Y-7670000D01*
X13004000Y-7570000D02*
X12904000Y-7670000D01*
X12954000Y-7570000D02*
X12954000Y-7670000D01*
X12904000Y-7620000D02*
X13004000Y-7620000D01*
X12904000Y-7824000D02*
X13004000Y-7924000D01*
X13004000Y-7824000D02*
X12904000Y-7924000D01*
X12954000Y-7824000D02*
X12954000Y-7924000D01*
X12904000Y-7874000D02*
X13004000Y-7874000D01*
X13158000Y-7570000D02*
X13258000Y-7670000D01*
X13258000Y-7570000D02*
X13158000Y-7670000D01*
X13208000Y-7570000D02*
X13208000Y-7670000D01*
X13158000Y-7620000D02*
X13258000Y-7620000D01*
X13158000Y-7824000D02*
X13258000Y-7924000D01*
X13258000Y-7824000D02*
X13158000Y-7924000D01*
X13208000Y-7824000D02*
X13208000Y-7924000D01*
X13158000Y-7874000D02*
X13258000Y-7874000D01*
X13412000Y-7570000D02*
X13512000Y-7670000D01*
X13512000Y-7570000D02*
X13412000Y-7670000D01*
X13462000Y-7570000D02*
X13462000Y-7670000D01*
X13412000Y-7620000D02*
X13512000Y-7620000D01*
X13412000Y-7824000D02*
X13512000Y-7924000D01*
X13512000Y-7824000D02*
X13412000Y-7924000D01*
X13462000Y-7824000D02*
X13462000Y-7924000D01*
X13412000Y-7874000D02*
X13512000Y-7874000D01*
X13666000Y-7570000D02*
X13766000Y-7670000D01*
X13766000Y-7570000D02*
X13666000Y-7670000D01*
X13716000Y-7570000D02*
X13716000Y-7670000D01*
X13666000Y-7620000D02*
X13766000Y-7620000D01*
X13666000Y-7824000D02*
X13766000Y-7924000D01*
X13766000Y-7824000D02*
X13666000Y-7924000D01*
X13716000Y-7824000D02*
X13716000Y-7924000D01*
X13666000Y-7874000D02*
X13766000Y-7874000D01*
X13920000Y-7570000D02*
X14020000Y-7670000D01*
X14020000Y-7570000D02*
X13920000Y-7670000D01*
X13970000Y-7570000D02*
X13970000Y-7670000D01*
X13920000Y-7620000D02*
X14020000Y-7620000D01*
X13920000Y-7824000D02*
X14020000Y-7924000D01*
X14020000Y-7824000D02*
X13920000Y-7924000D01*
X13970000Y-7824000D02*
X13970000Y-7924000D01*
X13920000Y-7874000D02*
X14020000Y-7874000D01*
X14174000Y-7570000D02*
X14274000Y-7670000D01*
X14274000Y-7570000D02*
X14174000Y-7670000D01*
X14224000Y-7570000D02*
X14224000Y-7670000D01*
X14174000Y-7620000D02*
X14274000Y-7620000D01*
X14174000Y-7824000D02*
X14274000Y-7924000D01*
X14274000Y-7824000D02*
X14174000Y-7924000D01*
X14224000Y-7824000D02*
X14224000Y-7924000D01*
X14174000Y-7874000D02*
X14274000Y-7874000D01*
X14428000Y-7570000D02*
X14528000Y-7670000D01*
X14528000Y-7570000D02*
X14428000Y-7670000D01*
X14478000Y-7570000D02*
X14478000Y-7670000D01*
X14428000Y-7620000D02*
X14528000Y-7620000D01*
X14428000Y-7824000D02*
X14528000Y-7924000D01*
X14528000Y-7824000D02*
X14428000Y-7924000D01*
X14478000Y-7824000D02*
X14478000Y-7924000D01*
X14428000Y-7874000D02*
X14528000Y-7874000D01*
X8840000Y-7570000D02*
X8940000Y-7670000D01*
X8940000Y-7570000D02*
X8840000Y-7670000D01*
X8890000Y-7570000D02*
X8890000Y-7670000D01*
X8840000Y-7620000D02*
X8940000Y-7620000D01*
X8840000Y-7824000D02*
X8940000Y-7924000D01*
X8940000Y-7824000D02*
X8840000Y-7924000D01*
X8890000Y-7824000D02*
X8890000Y-7924000D01*
X8840000Y-7874000D02*
X8940000Y-7874000D01*
X9094000Y-7570000D02*
X9194000Y-7670000D01*
X9194000Y-7570000D02*
X9094000Y-7670000D01*
X9144000Y-7570000D02*
X9144000Y-7670000D01*
X9094000Y-7620000D02*
X9194000Y-7620000D01*
X9094000Y-7824000D02*
X9194000Y-7924000D01*
X9194000Y-7824000D02*
X9094000Y-7924000D01*
X9144000Y-7824000D02*
X9144000Y-7924000D01*
X9094000Y-7874000D02*
X9194000Y-7874000D01*
X9348000Y-7570000D02*
X9448000Y-7670000D01*
X9448000Y-7570000D02*
X9348000Y-7670000D01*
X9398000Y-7570000D02*
X9398000Y-7670000D01*
X9348000Y-7620000D02*
X9448000Y-7620000D01*
X9348000Y-7824000D02*
X9448000Y-7924000D01*
X9448000Y-7824000D02*
X9348000Y-7924000D01*
X9398000Y-7824000D02*
X9398000Y-7924000D01*
X9348000Y-7874000D02*
X9448000Y-7874000D01*
X9602000Y-7570000D02*
X9702000Y-7670000D01*
X9702000Y-7570000D02*
X9602000Y-7670000D01*
X9652000Y-7570000D02*
X9652000Y-7670000D01*
X9602000Y-7620000D02*
X9702000Y-7620000D01*
X9602000Y-7824000D02*
X9702000Y-7924000D01*
X9702000Y-7824000D02*
X9602000Y-7924000D01*
X9652000Y-7824000D02*
X9652000Y-7924000D01*
X9602000Y-7874000D02*
X9702000Y-7874000D01*
X9856000Y-7570000D02*
X9956000Y-7670000D01*
X9956000Y-7570000D02*
X9856000Y-7670000D01*
X9906000Y-7570000D02*
X9906000Y-7670000D01*
X9856000Y-7620000D02*
X9956000Y-7620000D01*
X9856000Y-7824000D02*
X9956000Y-7924000D01*
X9956000Y-7824000D02*
X9856000Y-7924000D01*
X9906000Y-7824000D02*
X9906000Y-7924000D01*
X9856000Y-7874000D02*
X9956000Y-7874000D01*
X10110000Y-7570000D02*
X10210000Y-7670000D01*
X10210000Y-7570000D02*
X10110000Y-7670000D01*
X10160000Y-7570000D02*
X10160000Y-7670000D01*
X10110000Y-7620000D02*
X10210000Y-7620000D01*
X10110000Y-7824000D02*
X10210000Y-7924000D01*
X10210000Y-7824000D02*
X10110000Y-7924000D01*
X10160000Y-7824000D02*
X10160000Y-7924000D01*
X10110000Y-7874000D02*
X10210000Y-7874000D01*
X10364000Y-7570000D02*
X10464000Y-7670000D01*
X10464000Y-7570000D02*
X10364000Y-7670000D01*
X10414000Y-7570000D02*
X10414000Y-7670000D01*
X10364000Y-7620000D02*
X10464000Y-7620000D01*
X10364000Y-7824000D02*
X10464000Y-7924000D01*
X10464000Y-7824000D02*
X10364000Y-7924000D01*
X10414000Y-7824000D02*
X10414000Y-7924000D01*
X10364000Y-7874000D02*
X10464000Y-7874000D01*
X10618000Y-7570000D02*
X10718000Y-7670000D01*
X10718000Y-7570000D02*
X10618000Y-7670000D01*
X10668000Y-7570000D02*
X10668000Y-7670000D01*
X10618000Y-7620000D02*
X10718000Y-7620000D01*
X10618000Y-7824000D02*
X10718000Y-7924000D01*
X10718000Y-7824000D02*
X10618000Y-7924000D01*
X10668000Y-7824000D02*
X10668000Y-7924000D01*
X10618000Y-7874000D02*
X10718000Y-7874000D01*
X10872000Y-7570000D02*
X10972000Y-7670000D01*
X10972000Y-7570000D02*
X10872000Y-7670000D01*
X10922000Y-7570000D02*
X10922000Y-7670000D01*
X10872000Y-7620000D02*
X10972000Y-7620000D01*
X10872000Y-7824000D02*
X10972000Y-7924000D01*
X10972000Y-7824000D02*
X10872000Y-7924000D01*
X10922000Y-7824000D02*
X10922000Y-7924000D01*
X10872000Y-7874000D02*
X10972000Y-7874000D01*
X11126000Y-7570000D02*
X11226000Y-7670000D01*
X11226000Y-7570000D02*
X11126000Y-7670000D01*
X11176000Y-7570000D02*
X11176000Y-7670000D01*
X11126000Y-7620000D02*
X11226000Y-7620000D01*
X11126000Y-7824000D02*
X11226000Y-7924000D01*
X11226000Y-7824000D02*
X11126000Y-7924000D01*
X11176000Y-7824000D02*
X11176000Y-7924000D01*
X11126000Y-7874000D02*
X11226000Y-7874000D01*
X10144290Y-3815880D02*
X10244290Y-3915880D01*
X10244290Y-3815880D02*
X10144290Y-3915880D01*
X10194290Y-3815880D02*
X10194290Y-3915880D01*
X10144290Y-3865880D02*
X10244290Y-3865880D01*
X10398290Y-3815880D02*
X10498290Y-3915880D01*
X10498290Y-3815880D02*
X10398290Y-3915880D01*
X10448290Y-3815880D02*
X10448290Y-3915880D01*
X10398290Y-3865880D02*
X10498290Y-3865880D01*
X11321326Y-5856770D02*
X11421326Y-5956770D01*
X11421326Y-5856770D02*
X11321326Y-5956770D01*
X11371326Y-5856770D02*
X11371326Y-5956770D01*
X11321326Y-5906770D02*
X11421326Y-5906770D01*
X17426216Y-3619538D02*
X17526216Y-3719538D01*
X17526216Y-3619538D02*
X17426216Y-3719538D01*
X17476216Y-3619538D02*
X17476216Y-3719538D01*
X17426216Y-3669538D02*
X17526216Y-3669538D01*
X17426216Y-3873538D02*
X17526216Y-3973538D01*
X17526216Y-3873538D02*
X17426216Y-3973538D01*
X17476216Y-3873538D02*
X17476216Y-3973538D01*
X17426216Y-3923538D02*
X17526216Y-3923538D01*
X17680216Y-3619538D02*
X17780216Y-3719538D01*
X17780216Y-3619538D02*
X17680216Y-3719538D01*
X17730216Y-3619538D02*
X17730216Y-3719538D01*
X17680216Y-3669538D02*
X17780216Y-3669538D01*
X17680216Y-3873538D02*
X17780216Y-3973538D01*
X17780216Y-3873538D02*
X17680216Y-3973538D01*
X17730216Y-3873538D02*
X17730216Y-3973538D01*
X17680216Y-3923538D02*
X17780216Y-3923538D01*
X11680482Y-4172496D02*
X11780482Y-4272496D01*
X11780482Y-4172496D02*
X11680482Y-4272496D01*
X11730482Y-4172496D02*
X11730482Y-4272496D01*
X11680482Y-4222496D02*
X11780482Y-4222496D01*
X18492000Y-4014000D02*
X18592000Y-4114000D01*
X18592000Y-4014000D02*
X18492000Y-4114000D01*
X18542000Y-4014000D02*
X18542000Y-4114000D01*
X18492000Y-4064000D02*
X18592000Y-4064000D01*
X18492000Y-4268000D02*
X18592000Y-4368000D01*
X18592000Y-4268000D02*
X18492000Y-4368000D01*
X18542000Y-4268000D02*
X18542000Y-4368000D01*
X18492000Y-4318000D02*
X18592000Y-4318000D01*
X18492000Y-4522000D02*
X18592000Y-4622000D01*
X18592000Y-4522000D02*
X18492000Y-4622000D01*
X18542000Y-4522000D02*
X18542000Y-4622000D01*
X18492000Y-4572000D02*
X18592000Y-4572000D01*
X18492000Y-4776000D02*
X18592000Y-4876000D01*
X18592000Y-4776000D02*
X18492000Y-4876000D01*
X18542000Y-4776000D02*
X18542000Y-4876000D01*
X18492000Y-4826000D02*
X18592000Y-4826000D01*
X18492000Y-5030000D02*
X18592000Y-5130000D01*
X18592000Y-5030000D02*
X18492000Y-5130000D01*
X18542000Y-5030000D02*
X18542000Y-5130000D01*
X18492000Y-5080000D02*
X18592000Y-5080000D01*
X18492000Y-5284000D02*
X18592000Y-5384000D01*
X18592000Y-5284000D02*
X18492000Y-5384000D01*
X18542000Y-5284000D02*
X18542000Y-5384000D01*
X18492000Y-5334000D02*
X18592000Y-5334000D01*
X18492000Y-5538000D02*
X18592000Y-5638000D01*
X18592000Y-5538000D02*
X18492000Y-5638000D01*
X18542000Y-5538000D02*
X18542000Y-5638000D01*
X18492000Y-5588000D02*
X18592000Y-5588000D01*
X18492000Y-5792000D02*
X18592000Y-5892000D01*
X18592000Y-5792000D02*
X18492000Y-5892000D01*
X18542000Y-5792000D02*
X18542000Y-5892000D01*
X18492000Y-5842000D02*
X18592000Y-5842000D01*
X18492000Y-6046000D02*
X18592000Y-6146000D01*
X18592000Y-6046000D02*
X18492000Y-6146000D01*
X18542000Y-6046000D02*
X18542000Y-6146000D01*
X18492000Y-6096000D02*
X18592000Y-6096000D01*
X18492000Y-6300000D02*
X18592000Y-6400000D01*
X18592000Y-6300000D02*
X18492000Y-6400000D01*
X18542000Y-6300000D02*
X18542000Y-6400000D01*
X18492000Y-6350000D02*
X18592000Y-6350000D01*
X18492000Y-6554000D02*
X18592000Y-6654000D01*
X18592000Y-6554000D02*
X18492000Y-6654000D01*
X18542000Y-6554000D02*
X18542000Y-6654000D01*
X18492000Y-6604000D02*
X18592000Y-6604000D01*
X18492000Y-6808000D02*
X18592000Y-6908000D01*
X18592000Y-6808000D02*
X18492000Y-6908000D01*
X18542000Y-6808000D02*
X18542000Y-6908000D01*
X18492000Y-6858000D02*
X18592000Y-6858000D01*
X18746000Y-4014000D02*
X18846000Y-4114000D01*
X18846000Y-4014000D02*
X18746000Y-4114000D01*
X18796000Y-4014000D02*
X18796000Y-4114000D01*
X18746000Y-4064000D02*
X18846000Y-4064000D01*
X18746000Y-4268000D02*
X18846000Y-4368000D01*
X18846000Y-4268000D02*
X18746000Y-4368000D01*
X18796000Y-4268000D02*
X18796000Y-4368000D01*
X18746000Y-4318000D02*
X18846000Y-4318000D01*
X18746000Y-4522000D02*
X18846000Y-4622000D01*
X18846000Y-4522000D02*
X18746000Y-4622000D01*
X18796000Y-4522000D02*
X18796000Y-4622000D01*
X18746000Y-4572000D02*
X18846000Y-4572000D01*
X18746000Y-4776000D02*
X18846000Y-4876000D01*
X18846000Y-4776000D02*
X18746000Y-4876000D01*
X18796000Y-4776000D02*
X18796000Y-4876000D01*
X18746000Y-4826000D02*
X18846000Y-4826000D01*
X18746000Y-5030000D02*
X18846000Y-5130000D01*
X18846000Y-5030000D02*
X18746000Y-5130000D01*
X18796000Y-5030000D02*
X18796000Y-5130000D01*
X18746000Y-5080000D02*
X18846000Y-5080000D01*
X18746000Y-5284000D02*
X18846000Y-5384000D01*
X18846000Y-5284000D02*
X18746000Y-5384000D01*
X18796000Y-5284000D02*
X18796000Y-5384000D01*
X18746000Y-5334000D02*
X18846000Y-5334000D01*
X18746000Y-5538000D02*
X18846000Y-5638000D01*
X18846000Y-5538000D02*
X18746000Y-5638000D01*
X18796000Y-5538000D02*
X18796000Y-5638000D01*
X18746000Y-5588000D02*
X18846000Y-5588000D01*
X18746000Y-5792000D02*
X18846000Y-5892000D01*
X18846000Y-5792000D02*
X18746000Y-5892000D01*
X18796000Y-5792000D02*
X18796000Y-5892000D01*
X18746000Y-5842000D02*
X18846000Y-5842000D01*
X18746000Y-6046000D02*
X18846000Y-6146000D01*
X18846000Y-6046000D02*
X18746000Y-6146000D01*
X18796000Y-6046000D02*
X18796000Y-6146000D01*
X18746000Y-6096000D02*
X18846000Y-6096000D01*
X18746000Y-6300000D02*
X18846000Y-6400000D01*
X18846000Y-6300000D02*
X18746000Y-6400000D01*
X18796000Y-6300000D02*
X18796000Y-6400000D01*
X18746000Y-6350000D02*
X18846000Y-6350000D01*
X18746000Y-6554000D02*
X18846000Y-6654000D01*
X18846000Y-6554000D02*
X18746000Y-6654000D01*
X18796000Y-6554000D02*
X18796000Y-6654000D01*
X18746000Y-6604000D02*
X18846000Y-6604000D01*
X18746000Y-6808000D02*
X18846000Y-6908000D01*
X18846000Y-6808000D02*
X18746000Y-6908000D01*
X18796000Y-6808000D02*
X18796000Y-6908000D01*
X18746000Y-6858000D02*
X18846000Y-6858000D01*
X8840000Y-7062000D02*
X8940000Y-7162000D01*
X8940000Y-7062000D02*
X8840000Y-7162000D01*
X8890000Y-7062000D02*
X8890000Y-7162000D01*
X8840000Y-7112000D02*
X8940000Y-7112000D01*
X8840000Y-7316000D02*
X8940000Y-7416000D01*
X8940000Y-7316000D02*
X8840000Y-7416000D01*
X8890000Y-7316000D02*
X8890000Y-7416000D01*
X8840000Y-7366000D02*
X8940000Y-7366000D01*
X9094000Y-7062000D02*
X9194000Y-7162000D01*
X9194000Y-7062000D02*
X9094000Y-7162000D01*
X9144000Y-7062000D02*
X9144000Y-7162000D01*
X9094000Y-7112000D02*
X9194000Y-7112000D01*
X9094000Y-7316000D02*
X9194000Y-7416000D01*
X9194000Y-7316000D02*
X9094000Y-7416000D01*
X9144000Y-7316000D02*
X9144000Y-7416000D01*
X9094000Y-7366000D02*
X9194000Y-7366000D01*
X9348000Y-7062000D02*
X9448000Y-7162000D01*
X9448000Y-7062000D02*
X9348000Y-7162000D01*
X9398000Y-7062000D02*
X9398000Y-7162000D01*
X9348000Y-7112000D02*
X9448000Y-7112000D01*
X9348000Y-7316000D02*
X9448000Y-7416000D01*
X9448000Y-7316000D02*
X9348000Y-7416000D01*
X9398000Y-7316000D02*
X9398000Y-7416000D01*
X9348000Y-7366000D02*
X9448000Y-7366000D01*
X9602000Y-7062000D02*
X9702000Y-7162000D01*
X9702000Y-7062000D02*
X9602000Y-7162000D01*
X9652000Y-7062000D02*
X9652000Y-7162000D01*
X9602000Y-7112000D02*
X9702000Y-7112000D01*
X9602000Y-7316000D02*
X9702000Y-7416000D01*
X9702000Y-7316000D02*
X9602000Y-7416000D01*
X9652000Y-7316000D02*
X9652000Y-7416000D01*
X9602000Y-7366000D02*
X9702000Y-7366000D01*
X9856000Y-7062000D02*
X9956000Y-7162000D01*
X9956000Y-7062000D02*
X9856000Y-7162000D01*
X9906000Y-7062000D02*
X9906000Y-7162000D01*
X9856000Y-7112000D02*
X9956000Y-7112000D01*
X9856000Y-7316000D02*
X9956000Y-7416000D01*
X9956000Y-7316000D02*
X9856000Y-7416000D01*
X9906000Y-7316000D02*
X9906000Y-7416000D01*
X9856000Y-7366000D02*
X9956000Y-7366000D01*
X10110000Y-7062000D02*
X10210000Y-7162000D01*
X10210000Y-7062000D02*
X10110000Y-7162000D01*
X10160000Y-7062000D02*
X10160000Y-7162000D01*
X10110000Y-7112000D02*
X10210000Y-7112000D01*
X10110000Y-7316000D02*
X10210000Y-7416000D01*
X10210000Y-7316000D02*
X10110000Y-7416000D01*
X10160000Y-7316000D02*
X10160000Y-7416000D01*
X10110000Y-7366000D02*
X10210000Y-7366000D01*
X10364000Y-7062000D02*
X10464000Y-7162000D01*
X10464000Y-7062000D02*
X10364000Y-7162000D01*
X10414000Y-7062000D02*
X10414000Y-7162000D01*
X10364000Y-7112000D02*
X10464000Y-7112000D01*
X10364000Y-7316000D02*
X10464000Y-7416000D01*
X10464000Y-7316000D02*
X10364000Y-7416000D01*
X10414000Y-7316000D02*
X10414000Y-7416000D01*
X10364000Y-7366000D02*
X10464000Y-7366000D01*
X10618000Y-7062000D02*
X10718000Y-7162000D01*
X10718000Y-7062000D02*
X10618000Y-7162000D01*
X10668000Y-7062000D02*
X10668000Y-7162000D01*
X10618000Y-7112000D02*
X10718000Y-7112000D01*
X10618000Y-7316000D02*
X10718000Y-7416000D01*
X10718000Y-7316000D02*
X10618000Y-7416000D01*
X10668000Y-7316000D02*
X10668000Y-7416000D01*
X10618000Y-7366000D02*
X10718000Y-7366000D01*
X10872000Y-7062000D02*
X10972000Y-7162000D01*
X10972000Y-7062000D02*
X10872000Y-7162000D01*
X10922000Y-7062000D02*
X10922000Y-7162000D01*
X10872000Y-7112000D02*
X10972000Y-7112000D01*
X10872000Y-7316000D02*
X10972000Y-7416000D01*
X10972000Y-7316000D02*
X10872000Y-7416000D01*
X10922000Y-7316000D02*
X10922000Y-7416000D01*
X10872000Y-7366000D02*
X10972000Y-7366000D01*
X11126000Y-7062000D02*
X11226000Y-7162000D01*
X11226000Y-7062000D02*
X11126000Y-7162000D01*
X11176000Y-7062000D02*
X11176000Y-7162000D01*
X11126000Y-7112000D02*
X11226000Y-7112000D01*
X11126000Y-7316000D02*
X11226000Y-7416000D01*
X11226000Y-7316000D02*
X11126000Y-7416000D01*
X11176000Y-7316000D02*
X11176000Y-7416000D01*
X11126000Y-7366000D02*
X11226000Y-7366000D01*
X7010598Y-3541974D02*
X7130598Y-3661974D01*
X7130598Y-3541974D02*
X7010598Y-3661974D01*
X7113025Y-3644401D02*
X7113025Y-3559547D01*
X7028171Y-3559547D01*
X7028171Y-3644401D01*
X7113025Y-3644401D01*
X7518598Y-3541974D02*
X7638598Y-3661974D01*
X7638598Y-3541974D02*
X7518598Y-3661974D01*
X7621025Y-3644401D02*
X7621025Y-3559547D01*
X7536171Y-3559547D01*
X7536171Y-3644401D01*
X7621025Y-3644401D01*
X8026598Y-3541974D02*
X8146598Y-3661974D01*
X8146598Y-3541974D02*
X8026598Y-3661974D01*
X8129025Y-3644401D02*
X8129025Y-3559547D01*
X8044171Y-3559547D01*
X8044171Y-3644401D01*
X8129025Y-3644401D01*
X8534598Y-3541974D02*
X8654598Y-3661974D01*
X8654598Y-3541974D02*
X8534598Y-3661974D01*
X8637025Y-3644401D02*
X8637025Y-3559547D01*
X8552171Y-3559547D01*
X8552171Y-3644401D01*
X8637025Y-3644401D01*
X9042598Y-3541974D02*
X9162598Y-3661974D01*
X9162598Y-3541974D02*
X9042598Y-3661974D01*
X9145025Y-3644401D02*
X9145025Y-3559547D01*
X9060171Y-3559547D01*
X9060171Y-3644401D01*
X9145025Y-3644401D01*
X9550598Y-3541974D02*
X9670598Y-3661974D01*
X9670598Y-3541974D02*
X9550598Y-3661974D01*
X9653025Y-3644401D02*
X9653025Y-3559547D01*
X9568171Y-3559547D01*
X9568171Y-3644401D01*
X9653025Y-3644401D01*
X7508184Y-7352482D02*
X7628184Y-7472482D01*
X7628184Y-7352482D02*
X7508184Y-7472482D01*
X7610611Y-7454909D02*
X7610611Y-7370055D01*
X7525757Y-7370055D01*
X7525757Y-7454909D01*
X7610611Y-7454909D01*
X8016184Y-7352482D02*
X8136184Y-7472482D01*
X8136184Y-7352482D02*
X8016184Y-7472482D01*
X8118611Y-7454909D02*
X8118611Y-7370055D01*
X8033757Y-7370055D01*
X8033757Y-7454909D01*
X8118611Y-7454909D01*
X14716094Y-7700716D02*
X14846094Y-7830716D01*
X14846094Y-7700716D02*
X14716094Y-7830716D01*
X14781094Y-7830716D02*
X14846094Y-7765716D01*
X14781094Y-7700716D01*
X14716094Y-7765716D01*
X14781094Y-7830716D01*
X15417094Y-7700716D02*
X15547094Y-7830716D01*
X15547094Y-7700716D02*
X15417094Y-7830716D01*
X15482094Y-7830716D02*
X15547094Y-7765716D01*
X15482094Y-7700716D01*
X15417094Y-7765716D01*
X15482094Y-7830716D01*
X10644116Y-3280768D02*
X10774116Y-3410768D01*
X10774116Y-3280768D02*
X10644116Y-3410768D01*
X10709116Y-3410768D02*
X10774116Y-3345768D01*
X10709116Y-3280768D01*
X10644116Y-3345768D01*
X10709116Y-3410768D01*
X11345116Y-3280768D02*
X11475116Y-3410768D01*
X11475116Y-3280768D02*
X11345116Y-3410768D01*
X11410116Y-3410768D02*
X11475116Y-3345768D01*
X11410116Y-3280768D01*
X11345116Y-3345768D01*
X11410116Y-3410768D01*
X15778220Y-6966030D02*
X15778220Y-7126030D01*
X15698220Y-7046030D02*
X15858220Y-7046030D01*
X15858220Y-7046030D02*
G75*
G03X15858220Y-7046030I-80000J0D01*
G01*
X17333220Y-6966030D02*
X17333220Y-7126030D01*
X17253220Y-7046030D02*
X17413220Y-7046030D01*
X17413220Y-7046030D02*
G75*
G03X17413220Y-7046030I-80000J0D01*
G01*
X19112338Y-3338938D02*
X19112338Y-3112662D01*
X18886062Y-3112662D01*
X18886062Y-3338938D01*
X19112338Y-3338938D01*
X19159200Y-3225800D02*
G75*
G03X19159200Y-3225800I-160000J0D01*
G01*
X19112338Y-7936338D02*
X19112338Y-7710062D01*
X18886062Y-7710062D01*
X18886062Y-7936338D01*
X19112338Y-7936338D01*
X19159200Y-7823200D02*
G75*
G03X19159200Y-7823200I-160000J0D01*
G01*
X6412338Y-3338938D02*
X6412338Y-3112662D01*
X6186062Y-3112662D01*
X6186062Y-3338938D01*
X6412338Y-3338938D01*
X6459200Y-3225800D02*
G75*
G03X6459200Y-3225800I-160000J0D01*
G01*
X6412338Y-7936338D02*
X6412338Y-7710062D01*
X6186062Y-7710062D01*
X6186062Y-7936338D01*
X6412338Y-7936338D01*
X6459200Y-7823200D02*
G75*
G03X6459200Y-7823200I-160000J0D01*
G01*
D12*
X6146328Y-8728214D02*
X6146328Y-8428214D01*
X6217757Y-8428214D01*
X6260614Y-8442500D01*
X6289186Y-8471072D01*
X6303471Y-8499643D01*
X6317757Y-8556786D01*
X6317757Y-8599643D01*
X6303471Y-8656786D01*
X6289186Y-8685357D01*
X6260614Y-8713929D01*
X6217757Y-8728214D01*
X6146328Y-8728214D01*
X6446328Y-8728214D02*
X6446328Y-8528214D01*
X6446328Y-8585357D02*
X6460614Y-8556786D01*
X6474900Y-8542500D01*
X6503471Y-8528214D01*
X6532043Y-8528214D01*
X6632043Y-8728214D02*
X6632043Y-8528214D01*
X6632043Y-8428214D02*
X6617757Y-8442500D01*
X6632043Y-8456786D01*
X6646328Y-8442500D01*
X6632043Y-8428214D01*
X6632043Y-8456786D01*
X6817757Y-8728214D02*
X6789186Y-8713929D01*
X6774900Y-8685357D01*
X6774900Y-8428214D01*
X6974900Y-8728214D02*
X6946328Y-8713929D01*
X6932043Y-8685357D01*
X6932043Y-8428214D01*
X7317757Y-8728214D02*
X7317757Y-8428214D01*
X7417757Y-8642500D01*
X7517757Y-8428214D01*
X7517757Y-8728214D01*
X7789186Y-8728214D02*
X7789186Y-8571072D01*
X7774900Y-8542500D01*
X7746328Y-8528214D01*
X7689186Y-8528214D01*
X7660614Y-8542500D01*
X7789186Y-8713929D02*
X7760614Y-8728214D01*
X7689186Y-8728214D01*
X7660614Y-8713929D01*
X7646328Y-8685357D01*
X7646328Y-8656786D01*
X7660614Y-8628214D01*
X7689186Y-8613929D01*
X7760614Y-8613929D01*
X7789186Y-8599643D01*
X7932043Y-8528214D02*
X7932043Y-8828214D01*
X7932043Y-8542500D02*
X7960614Y-8528214D01*
X8017757Y-8528214D01*
X8046328Y-8542500D01*
X8060614Y-8556786D01*
X8074900Y-8585357D01*
X8074900Y-8671072D01*
X8060614Y-8699643D01*
X8046328Y-8713929D01*
X8017757Y-8728214D01*
X7960614Y-8728214D01*
X7932043Y-8713929D01*
X8203471Y-8699643D02*
X8217757Y-8713929D01*
X8203471Y-8728214D01*
X8189186Y-8713929D01*
X8203471Y-8699643D01*
X8203471Y-8728214D01*
X8203471Y-8542500D02*
X8217757Y-8556786D01*
X8203471Y-8571072D01*
X8189186Y-8556786D01*
X8203471Y-8542500D01*
X8203471Y-8571072D01*
X5819900Y-9202500D02*
X5859900Y-9242500D01*
X5859900Y-9202500D02*
X5819900Y-9242500D01*
X6203471Y-9058214D02*
X6232043Y-9058214D01*
X6260614Y-9072500D01*
X6274900Y-9086786D01*
X6289186Y-9115357D01*
X6303471Y-9172500D01*
X6303471Y-9243929D01*
X6289186Y-9301072D01*
X6274900Y-9329643D01*
X6260614Y-9343929D01*
X6232043Y-9358214D01*
X6203471Y-9358214D01*
X6174900Y-9343929D01*
X6160614Y-9329643D01*
X6146328Y-9301072D01*
X6132043Y-9243929D01*
X6132043Y-9172500D01*
X6146328Y-9115357D01*
X6160614Y-9086786D01*
X6174900Y-9072500D01*
X6203471Y-9058214D01*
X6432043Y-9329643D02*
X6446328Y-9343929D01*
X6432043Y-9358214D01*
X6417757Y-9343929D01*
X6432043Y-9329643D01*
X6432043Y-9358214D01*
X6703471Y-9158214D02*
X6703471Y-9358214D01*
X6632043Y-9043929D02*
X6560614Y-9258214D01*
X6746328Y-9258214D01*
X6917757Y-9058214D02*
X6946328Y-9058214D01*
X6974900Y-9072500D01*
X6989186Y-9086786D01*
X7003471Y-9115357D01*
X7017757Y-9172500D01*
X7017757Y-9243929D01*
X7003471Y-9301072D01*
X6989186Y-9329643D01*
X6974900Y-9343929D01*
X6946328Y-9358214D01*
X6917757Y-9358214D01*
X6889186Y-9343929D01*
X6874900Y-9329643D01*
X6860614Y-9301072D01*
X6846328Y-9243929D01*
X6846328Y-9172500D01*
X6860614Y-9115357D01*
X6874900Y-9086786D01*
X6889186Y-9072500D01*
X6917757Y-9058214D01*
X7146328Y-9358214D02*
X7146328Y-9158214D01*
X7146328Y-9186786D02*
X7160614Y-9172500D01*
X7189186Y-9158214D01*
X7232043Y-9158214D01*
X7260614Y-9172500D01*
X7274900Y-9201072D01*
X7274900Y-9358214D01*
X7274900Y-9201072D02*
X7289186Y-9172500D01*
X7317757Y-9158214D01*
X7360614Y-9158214D01*
X7389186Y-9172500D01*
X7403471Y-9201072D01*
X7403471Y-9358214D01*
X7546328Y-9358214D02*
X7546328Y-9158214D01*
X7546328Y-9186786D02*
X7560614Y-9172500D01*
X7589186Y-9158214D01*
X7632043Y-9158214D01*
X7660614Y-9172500D01*
X7674900Y-9201072D01*
X7674900Y-9358214D01*
X7674900Y-9201072D02*
X7689186Y-9172500D01*
X7717757Y-9158214D01*
X7760614Y-9158214D01*
X7789186Y-9172500D01*
X7803471Y-9201072D01*
X7803471Y-9358214D01*
X8389186Y-9043929D02*
X8132043Y-9429643D01*
X8774900Y-9058214D02*
X8803471Y-9058214D01*
X8832043Y-9072500D01*
X8846328Y-9086786D01*
X8860614Y-9115357D01*
X8874900Y-9172500D01*
X8874900Y-9243929D01*
X8860614Y-9301072D01*
X8846328Y-9329643D01*
X8832043Y-9343929D01*
X8803471Y-9358214D01*
X8774900Y-9358214D01*
X8746328Y-9343929D01*
X8732043Y-9329643D01*
X8717757Y-9301072D01*
X8703471Y-9243929D01*
X8703471Y-9172500D01*
X8717757Y-9115357D01*
X8732043Y-9086786D01*
X8746328Y-9072500D01*
X8774900Y-9058214D01*
X9003471Y-9329643D02*
X9017757Y-9343929D01*
X9003471Y-9358214D01*
X8989186Y-9343929D01*
X9003471Y-9329643D01*
X9003471Y-9358214D01*
X9203471Y-9058214D02*
X9232043Y-9058214D01*
X9260614Y-9072500D01*
X9274900Y-9086786D01*
X9289186Y-9115357D01*
X9303471Y-9172500D01*
X9303471Y-9243929D01*
X9289186Y-9301072D01*
X9274900Y-9329643D01*
X9260614Y-9343929D01*
X9232043Y-9358214D01*
X9203471Y-9358214D01*
X9174900Y-9343929D01*
X9160614Y-9329643D01*
X9146328Y-9301072D01*
X9132043Y-9243929D01*
X9132043Y-9172500D01*
X9146328Y-9115357D01*
X9160614Y-9086786D01*
X9174900Y-9072500D01*
X9203471Y-9058214D01*
X9589186Y-9358214D02*
X9417757Y-9358214D01*
X9503471Y-9358214D02*
X9503471Y-9058214D01*
X9474900Y-9101072D01*
X9446328Y-9129643D01*
X9417757Y-9143929D01*
X9846328Y-9058214D02*
X9789186Y-9058214D01*
X9760614Y-9072500D01*
X9746328Y-9086786D01*
X9717757Y-9129643D01*
X9703471Y-9186786D01*
X9703471Y-9301072D01*
X9717757Y-9329643D01*
X9732043Y-9343929D01*
X9760614Y-9358214D01*
X9817757Y-9358214D01*
X9846328Y-9343929D01*
X9860614Y-9329643D01*
X9874900Y-9301072D01*
X9874900Y-9229643D01*
X9860614Y-9201072D01*
X9846328Y-9186786D01*
X9817757Y-9172500D01*
X9760614Y-9172500D01*
X9732043Y-9186786D01*
X9717757Y-9201072D01*
X9703471Y-9229643D01*
X9989186Y-9058214D02*
X9989186Y-9115357D01*
X10103471Y-9058214D02*
X10103471Y-9115357D01*
X10546328Y-9472500D02*
X10532043Y-9458214D01*
X10503471Y-9415357D01*
X10489186Y-9386786D01*
X10474900Y-9343929D01*
X10460614Y-9272500D01*
X10460614Y-9215357D01*
X10474900Y-9143929D01*
X10489186Y-9101072D01*
X10503471Y-9072500D01*
X10532043Y-9029643D01*
X10546328Y-9015357D01*
X10646328Y-9086786D02*
X10660614Y-9072500D01*
X10689186Y-9058214D01*
X10760614Y-9058214D01*
X10789186Y-9072500D01*
X10803471Y-9086786D01*
X10817757Y-9115357D01*
X10817757Y-9143929D01*
X10803471Y-9186786D01*
X10632043Y-9358214D01*
X10817757Y-9358214D01*
X11103471Y-9358214D02*
X10932043Y-9358214D01*
X11017757Y-9358214D02*
X11017757Y-9058214D01*
X10989186Y-9101072D01*
X10960614Y-9129643D01*
X10932043Y-9143929D01*
X11217757Y-9086786D02*
X11232043Y-9072500D01*
X11260614Y-9058214D01*
X11332043Y-9058214D01*
X11360614Y-9072500D01*
X11374900Y-9086786D01*
X11389186Y-9115357D01*
X11389186Y-9143929D01*
X11374900Y-9186786D01*
X11203471Y-9358214D01*
X11389186Y-9358214D01*
X11746328Y-9358214D02*
X11746328Y-9058214D01*
X11874900Y-9358214D02*
X11874900Y-9201072D01*
X11860614Y-9172500D01*
X11832043Y-9158214D01*
X11789186Y-9158214D01*
X11760614Y-9172500D01*
X11746328Y-9186786D01*
X12060614Y-9358214D02*
X12032043Y-9343929D01*
X12017757Y-9329643D01*
X12003471Y-9301072D01*
X12003471Y-9215357D01*
X12017757Y-9186786D01*
X12032043Y-9172500D01*
X12060614Y-9158214D01*
X12103471Y-9158214D01*
X12132043Y-9172500D01*
X12146328Y-9186786D01*
X12160614Y-9215357D01*
X12160614Y-9301072D01*
X12146328Y-9329643D01*
X12132043Y-9343929D01*
X12103471Y-9358214D01*
X12060614Y-9358214D01*
X12332043Y-9358214D02*
X12303471Y-9343929D01*
X12289186Y-9315357D01*
X12289186Y-9058214D01*
X12560614Y-9343929D02*
X12532043Y-9358214D01*
X12474900Y-9358214D01*
X12446328Y-9343929D01*
X12432043Y-9315357D01*
X12432043Y-9201072D01*
X12446328Y-9172500D01*
X12474900Y-9158214D01*
X12532043Y-9158214D01*
X12560614Y-9172500D01*
X12574900Y-9201072D01*
X12574900Y-9229643D01*
X12432043Y-9258214D01*
X12689186Y-9343929D02*
X12717757Y-9358214D01*
X12774900Y-9358214D01*
X12803471Y-9343929D01*
X12817757Y-9315357D01*
X12817757Y-9301072D01*
X12803471Y-9272500D01*
X12774900Y-9258214D01*
X12732043Y-9258214D01*
X12703471Y-9243929D01*
X12689186Y-9215357D01*
X12689186Y-9201072D01*
X12703471Y-9172500D01*
X12732043Y-9158214D01*
X12774900Y-9158214D01*
X12803471Y-9172500D01*
X12917757Y-9472500D02*
X12932043Y-9458214D01*
X12960614Y-9415357D01*
X12974900Y-9386786D01*
X12989186Y-9343929D01*
X13003471Y-9272500D01*
X13003471Y-9215357D01*
X12989186Y-9143929D01*
X12974900Y-9101072D01*
X12960614Y-9072500D01*
X12932043Y-9029643D01*
X12917757Y-9015357D01*
X5859900Y-9618500D02*
G75*
G03X5859900Y-9618500I-25000J0D01*
G01*
X6203471Y-9454214D02*
X6232043Y-9454214D01*
X6260614Y-9468500D01*
X6274900Y-9482786D01*
X6289186Y-9511357D01*
X6303471Y-9568500D01*
X6303471Y-9639929D01*
X6289186Y-9697072D01*
X6274900Y-9725643D01*
X6260614Y-9739929D01*
X6232043Y-9754214D01*
X6203471Y-9754214D01*
X6174900Y-9739929D01*
X6160614Y-9725643D01*
X6146328Y-9697072D01*
X6132043Y-9639929D01*
X6132043Y-9568500D01*
X6146328Y-9511357D01*
X6160614Y-9482786D01*
X6174900Y-9468500D01*
X6203471Y-9454214D01*
X6432043Y-9725643D02*
X6446328Y-9739929D01*
X6432043Y-9754214D01*
X6417757Y-9739929D01*
X6432043Y-9725643D01*
X6432043Y-9754214D01*
X6717757Y-9454214D02*
X6574900Y-9454214D01*
X6560614Y-9597072D01*
X6574900Y-9582786D01*
X6603471Y-9568500D01*
X6674900Y-9568500D01*
X6703471Y-9582786D01*
X6717757Y-9597072D01*
X6732043Y-9625643D01*
X6732043Y-9697072D01*
X6717757Y-9725643D01*
X6703471Y-9739929D01*
X6674900Y-9754214D01*
X6603471Y-9754214D01*
X6574900Y-9739929D01*
X6560614Y-9725643D01*
X6917757Y-9454214D02*
X6946328Y-9454214D01*
X6974900Y-9468500D01*
X6989186Y-9482786D01*
X7003471Y-9511357D01*
X7017757Y-9568500D01*
X7017757Y-9639929D01*
X7003471Y-9697072D01*
X6989186Y-9725643D01*
X6974900Y-9739929D01*
X6946328Y-9754214D01*
X6917757Y-9754214D01*
X6889186Y-9739929D01*
X6874900Y-9725643D01*
X6860614Y-9697072D01*
X6846328Y-9639929D01*
X6846328Y-9568500D01*
X6860614Y-9511357D01*
X6874900Y-9482786D01*
X6889186Y-9468500D01*
X6917757Y-9454214D01*
X7146328Y-9754214D02*
X7146328Y-9554214D01*
X7146328Y-9582786D02*
X7160614Y-9568500D01*
X7189186Y-9554214D01*
X7232043Y-9554214D01*
X7260614Y-9568500D01*
X7274900Y-9597072D01*
X7274900Y-9754214D01*
X7274900Y-9597072D02*
X7289186Y-9568500D01*
X7317757Y-9554214D01*
X7360614Y-9554214D01*
X7389186Y-9568500D01*
X7403471Y-9597072D01*
X7403471Y-9754214D01*
X7546328Y-9754214D02*
X7546328Y-9554214D01*
X7546328Y-9582786D02*
X7560614Y-9568500D01*
X7589186Y-9554214D01*
X7632043Y-9554214D01*
X7660614Y-9568500D01*
X7674900Y-9597072D01*
X7674900Y-9754214D01*
X7674900Y-9597072D02*
X7689186Y-9568500D01*
X7717757Y-9554214D01*
X7760614Y-9554214D01*
X7789186Y-9568500D01*
X7803471Y-9597072D01*
X7803471Y-9754214D01*
X8389186Y-9439929D02*
X8132043Y-9825643D01*
X8774900Y-9454214D02*
X8803471Y-9454214D01*
X8832043Y-9468500D01*
X8846328Y-9482786D01*
X8860614Y-9511357D01*
X8874900Y-9568500D01*
X8874900Y-9639929D01*
X8860614Y-9697072D01*
X8846328Y-9725643D01*
X8832043Y-9739929D01*
X8803471Y-9754214D01*
X8774900Y-9754214D01*
X8746328Y-9739929D01*
X8732043Y-9725643D01*
X8717757Y-9697072D01*
X8703471Y-9639929D01*
X8703471Y-9568500D01*
X8717757Y-9511357D01*
X8732043Y-9482786D01*
X8746328Y-9468500D01*
X8774900Y-9454214D01*
X9003471Y-9725643D02*
X9017757Y-9739929D01*
X9003471Y-9754214D01*
X8989186Y-9739929D01*
X9003471Y-9725643D01*
X9003471Y-9754214D01*
X9203471Y-9454214D02*
X9232043Y-9454214D01*
X9260614Y-9468500D01*
X9274900Y-9482786D01*
X9289186Y-9511357D01*
X9303471Y-9568500D01*
X9303471Y-9639929D01*
X9289186Y-9697072D01*
X9274900Y-9725643D01*
X9260614Y-9739929D01*
X9232043Y-9754214D01*
X9203471Y-9754214D01*
X9174900Y-9739929D01*
X9160614Y-9725643D01*
X9146328Y-9697072D01*
X9132043Y-9639929D01*
X9132043Y-9568500D01*
X9146328Y-9511357D01*
X9160614Y-9482786D01*
X9174900Y-9468500D01*
X9203471Y-9454214D01*
X9417757Y-9482786D02*
X9432043Y-9468500D01*
X9460614Y-9454214D01*
X9532043Y-9454214D01*
X9560614Y-9468500D01*
X9574900Y-9482786D01*
X9589186Y-9511357D01*
X9589186Y-9539929D01*
X9574900Y-9582786D01*
X9403471Y-9754214D01*
X9589186Y-9754214D01*
X9774900Y-9454214D02*
X9803471Y-9454214D01*
X9832043Y-9468500D01*
X9846328Y-9482786D01*
X9860614Y-9511357D01*
X9874900Y-9568500D01*
X9874900Y-9639929D01*
X9860614Y-9697072D01*
X9846328Y-9725643D01*
X9832043Y-9739929D01*
X9803471Y-9754214D01*
X9774900Y-9754214D01*
X9746328Y-9739929D01*
X9732043Y-9725643D01*
X9717757Y-9697072D01*
X9703471Y-9639929D01*
X9703471Y-9568500D01*
X9717757Y-9511357D01*
X9732043Y-9482786D01*
X9746328Y-9468500D01*
X9774900Y-9454214D01*
X9989186Y-9454214D02*
X9989186Y-9511357D01*
X10103471Y-9454214D02*
X10103471Y-9511357D01*
X10546328Y-9868500D02*
X10532043Y-9854214D01*
X10503471Y-9811357D01*
X10489186Y-9782786D01*
X10474900Y-9739929D01*
X10460614Y-9668500D01*
X10460614Y-9611357D01*
X10474900Y-9539929D01*
X10489186Y-9497072D01*
X10503471Y-9468500D01*
X10532043Y-9425643D01*
X10546328Y-9411357D01*
X10632043Y-9454214D02*
X10817757Y-9454214D01*
X10717757Y-9568500D01*
X10760614Y-9568500D01*
X10789186Y-9582786D01*
X10803471Y-9597072D01*
X10817757Y-9625643D01*
X10817757Y-9697072D01*
X10803471Y-9725643D01*
X10789186Y-9739929D01*
X10760614Y-9754214D01*
X10674900Y-9754214D01*
X10646328Y-9739929D01*
X10632043Y-9725643D01*
X10932043Y-9482786D02*
X10946328Y-9468500D01*
X10974900Y-9454214D01*
X11046328Y-9454214D01*
X11074900Y-9468500D01*
X11089186Y-9482786D01*
X11103471Y-9511357D01*
X11103471Y-9539929D01*
X11089186Y-9582786D01*
X10917757Y-9754214D01*
X11103471Y-9754214D01*
X11460614Y-9754214D02*
X11460614Y-9454214D01*
X11589186Y-9754214D02*
X11589186Y-9597072D01*
X11574900Y-9568500D01*
X11546328Y-9554214D01*
X11503471Y-9554214D01*
X11474900Y-9568500D01*
X11460614Y-9582786D01*
X11774900Y-9754214D02*
X11746328Y-9739929D01*
X11732043Y-9725643D01*
X11717757Y-9697072D01*
X11717757Y-9611357D01*
X11732043Y-9582786D01*
X11746328Y-9568500D01*
X11774900Y-9554214D01*
X11817757Y-9554214D01*
X11846328Y-9568500D01*
X11860614Y-9582786D01*
X11874900Y-9611357D01*
X11874900Y-9697072D01*
X11860614Y-9725643D01*
X11846328Y-9739929D01*
X11817757Y-9754214D01*
X11774900Y-9754214D01*
X12046328Y-9754214D02*
X12017757Y-9739929D01*
X12003471Y-9711357D01*
X12003471Y-9454214D01*
X12274900Y-9739929D02*
X12246328Y-9754214D01*
X12189186Y-9754214D01*
X12160614Y-9739929D01*
X12146328Y-9711357D01*
X12146328Y-9597072D01*
X12160614Y-9568500D01*
X12189186Y-9554214D01*
X12246328Y-9554214D01*
X12274900Y-9568500D01*
X12289186Y-9597072D01*
X12289186Y-9625643D01*
X12146328Y-9654214D01*
X12403471Y-9739929D02*
X12432043Y-9754214D01*
X12489186Y-9754214D01*
X12517757Y-9739929D01*
X12532043Y-9711357D01*
X12532043Y-9697072D01*
X12517757Y-9668500D01*
X12489186Y-9654214D01*
X12446328Y-9654214D01*
X12417757Y-9639929D01*
X12403471Y-9611357D01*
X12403471Y-9597072D01*
X12417757Y-9568500D01*
X12446328Y-9554214D01*
X12489186Y-9554214D01*
X12517757Y-9568500D01*
X12889186Y-9639929D02*
X13117757Y-9639929D01*
X13003471Y-9754214D02*
X13003471Y-9525643D01*
X13617757Y-9454214D02*
X13560614Y-9454214D01*
X13532043Y-9468500D01*
X13517757Y-9482786D01*
X13489186Y-9525643D01*
X13474900Y-9582786D01*
X13474900Y-9697072D01*
X13489186Y-9725643D01*
X13503471Y-9739929D01*
X13532043Y-9754214D01*
X13589186Y-9754214D01*
X13617757Y-9739929D01*
X13632043Y-9725643D01*
X13646328Y-9697072D01*
X13646328Y-9625643D01*
X13632043Y-9597072D01*
X13617757Y-9582786D01*
X13589186Y-9568500D01*
X13532043Y-9568500D01*
X13503471Y-9582786D01*
X13489186Y-9597072D01*
X13474900Y-9625643D01*
X13989186Y-9739929D02*
X14017757Y-9754214D01*
X14074900Y-9754214D01*
X14103471Y-9739929D01*
X14117757Y-9711357D01*
X14117757Y-9697072D01*
X14103471Y-9668500D01*
X14074900Y-9654214D01*
X14032043Y-9654214D01*
X14003471Y-9639929D01*
X13989186Y-9611357D01*
X13989186Y-9597072D01*
X14003471Y-9568500D01*
X14032043Y-9554214D01*
X14074900Y-9554214D01*
X14103471Y-9568500D01*
X14289186Y-9754214D02*
X14260614Y-9739929D01*
X14246328Y-9711357D01*
X14246328Y-9454214D01*
X14446328Y-9754214D02*
X14417757Y-9739929D01*
X14403471Y-9725643D01*
X14389186Y-9697072D01*
X14389186Y-9611357D01*
X14403471Y-9582786D01*
X14417757Y-9568500D01*
X14446328Y-9554214D01*
X14489186Y-9554214D01*
X14517757Y-9568500D01*
X14532043Y-9582786D01*
X14546328Y-9611357D01*
X14546328Y-9697072D01*
X14532043Y-9725643D01*
X14517757Y-9739929D01*
X14489186Y-9754214D01*
X14446328Y-9754214D01*
X14632043Y-9554214D02*
X14746328Y-9554214D01*
X14674900Y-9454214D02*
X14674900Y-9711357D01*
X14689186Y-9739929D01*
X14717757Y-9754214D01*
X14746328Y-9754214D01*
X14832043Y-9739929D02*
X14860614Y-9754214D01*
X14917757Y-9754214D01*
X14946328Y-9739929D01*
X14960614Y-9711357D01*
X14960614Y-9697072D01*
X14946328Y-9668500D01*
X14917757Y-9654214D01*
X14874900Y-9654214D01*
X14846328Y-9639929D01*
X14832043Y-9611357D01*
X14832043Y-9597072D01*
X14846328Y-9568500D01*
X14874900Y-9554214D01*
X14917757Y-9554214D01*
X14946328Y-9568500D01*
X15060614Y-9868500D02*
X15074900Y-9854214D01*
X15103471Y-9811357D01*
X15117757Y-9782786D01*
X15132043Y-9739929D01*
X15146328Y-9668500D01*
X15146328Y-9611357D01*
X15132043Y-9539929D01*
X15117757Y-9497072D01*
X15103471Y-9468500D01*
X15074900Y-9425643D01*
X15060614Y-9411357D01*
X5832400Y-9987000D02*
X5832400Y-10042000D01*
X5804900Y-10014500D02*
X5859900Y-10014500D01*
X6203471Y-9850214D02*
X6232043Y-9850214D01*
X6260614Y-9864500D01*
X6274900Y-9878786D01*
X6289186Y-9907357D01*
X6303471Y-9964500D01*
X6303471Y-10035929D01*
X6289186Y-10093072D01*
X6274900Y-10121643D01*
X6260614Y-10135929D01*
X6232043Y-10150214D01*
X6203471Y-10150214D01*
X6174900Y-10135929D01*
X6160614Y-10121643D01*
X6146328Y-10093072D01*
X6132043Y-10035929D01*
X6132043Y-9964500D01*
X6146328Y-9907357D01*
X6160614Y-9878786D01*
X6174900Y-9864500D01*
X6203471Y-9850214D01*
X6432043Y-10121643D02*
X6446328Y-10135929D01*
X6432043Y-10150214D01*
X6417757Y-10135929D01*
X6432043Y-10121643D01*
X6432043Y-10150214D01*
X6717757Y-9850214D02*
X6574900Y-9850214D01*
X6560614Y-9993072D01*
X6574900Y-9978786D01*
X6603471Y-9964500D01*
X6674900Y-9964500D01*
X6703471Y-9978786D01*
X6717757Y-9993072D01*
X6732043Y-10021643D01*
X6732043Y-10093072D01*
X6717757Y-10121643D01*
X6703471Y-10135929D01*
X6674900Y-10150214D01*
X6603471Y-10150214D01*
X6574900Y-10135929D01*
X6560614Y-10121643D01*
X7003471Y-9850214D02*
X6860614Y-9850214D01*
X6846328Y-9993072D01*
X6860614Y-9978786D01*
X6889186Y-9964500D01*
X6960614Y-9964500D01*
X6989186Y-9978786D01*
X7003471Y-9993072D01*
X7017757Y-10021643D01*
X7017757Y-10093072D01*
X7003471Y-10121643D01*
X6989186Y-10135929D01*
X6960614Y-10150214D01*
X6889186Y-10150214D01*
X6860614Y-10135929D01*
X6846328Y-10121643D01*
X7146328Y-10150214D02*
X7146328Y-9950214D01*
X7146328Y-9978786D02*
X7160614Y-9964500D01*
X7189186Y-9950214D01*
X7232043Y-9950214D01*
X7260614Y-9964500D01*
X7274900Y-9993072D01*
X7274900Y-10150214D01*
X7274900Y-9993072D02*
X7289186Y-9964500D01*
X7317757Y-9950214D01*
X7360614Y-9950214D01*
X7389186Y-9964500D01*
X7403471Y-9993072D01*
X7403471Y-10150214D01*
X7546328Y-10150214D02*
X7546328Y-9950214D01*
X7546328Y-9978786D02*
X7560614Y-9964500D01*
X7589186Y-9950214D01*
X7632043Y-9950214D01*
X7660614Y-9964500D01*
X7674900Y-9993072D01*
X7674900Y-10150214D01*
X7674900Y-9993072D02*
X7689186Y-9964500D01*
X7717757Y-9950214D01*
X7760614Y-9950214D01*
X7789186Y-9964500D01*
X7803471Y-9993072D01*
X7803471Y-10150214D01*
X8389186Y-9835929D02*
X8132043Y-10221643D01*
X8774900Y-9850214D02*
X8803471Y-9850214D01*
X8832043Y-9864500D01*
X8846328Y-9878786D01*
X8860614Y-9907357D01*
X8874900Y-9964500D01*
X8874900Y-10035929D01*
X8860614Y-10093072D01*
X8846328Y-10121643D01*
X8832043Y-10135929D01*
X8803471Y-10150214D01*
X8774900Y-10150214D01*
X8746328Y-10135929D01*
X8732043Y-10121643D01*
X8717757Y-10093072D01*
X8703471Y-10035929D01*
X8703471Y-9964500D01*
X8717757Y-9907357D01*
X8732043Y-9878786D01*
X8746328Y-9864500D01*
X8774900Y-9850214D01*
X9003471Y-10121643D02*
X9017757Y-10135929D01*
X9003471Y-10150214D01*
X8989186Y-10135929D01*
X9003471Y-10121643D01*
X9003471Y-10150214D01*
X9203471Y-9850214D02*
X9232043Y-9850214D01*
X9260614Y-9864500D01*
X9274900Y-9878786D01*
X9289186Y-9907357D01*
X9303471Y-9964500D01*
X9303471Y-10035929D01*
X9289186Y-10093072D01*
X9274900Y-10121643D01*
X9260614Y-10135929D01*
X9232043Y-10150214D01*
X9203471Y-10150214D01*
X9174900Y-10135929D01*
X9160614Y-10121643D01*
X9146328Y-10093072D01*
X9132043Y-10035929D01*
X9132043Y-9964500D01*
X9146328Y-9907357D01*
X9160614Y-9878786D01*
X9174900Y-9864500D01*
X9203471Y-9850214D01*
X9417757Y-9878786D02*
X9432043Y-9864500D01*
X9460614Y-9850214D01*
X9532043Y-9850214D01*
X9560614Y-9864500D01*
X9574900Y-9878786D01*
X9589186Y-9907357D01*
X9589186Y-9935929D01*
X9574900Y-9978786D01*
X9403471Y-10150214D01*
X9589186Y-10150214D01*
X9703471Y-9878786D02*
X9717757Y-9864500D01*
X9746328Y-9850214D01*
X9817757Y-9850214D01*
X9846328Y-9864500D01*
X9860614Y-9878786D01*
X9874900Y-9907357D01*
X9874900Y-9935929D01*
X9860614Y-9978786D01*
X9689186Y-10150214D01*
X9874900Y-10150214D01*
X9989186Y-9850214D02*
X9989186Y-9907357D01*
X10103471Y-9850214D02*
X10103471Y-9907357D01*
X10546328Y-10264500D02*
X10532043Y-10250214D01*
X10503471Y-10207357D01*
X10489186Y-10178786D01*
X10474900Y-10135929D01*
X10460614Y-10064500D01*
X10460614Y-10007357D01*
X10474900Y-9935929D01*
X10489186Y-9893072D01*
X10503471Y-9864500D01*
X10532043Y-9821643D01*
X10546328Y-9807357D01*
X10717757Y-9850214D02*
X10746328Y-9850214D01*
X10774900Y-9864500D01*
X10789186Y-9878786D01*
X10803471Y-9907357D01*
X10817757Y-9964500D01*
X10817757Y-10035929D01*
X10803471Y-10093072D01*
X10789186Y-10121643D01*
X10774900Y-10135929D01*
X10746328Y-10150214D01*
X10717757Y-10150214D01*
X10689186Y-10135929D01*
X10674900Y-10121643D01*
X10660614Y-10093072D01*
X10646328Y-10035929D01*
X10646328Y-9964500D01*
X10660614Y-9907357D01*
X10674900Y-9878786D01*
X10689186Y-9864500D01*
X10717757Y-9850214D01*
X11174900Y-10150214D02*
X11174900Y-9850214D01*
X11303471Y-10150214D02*
X11303471Y-9993072D01*
X11289186Y-9964500D01*
X11260614Y-9950214D01*
X11217757Y-9950214D01*
X11189186Y-9964500D01*
X11174900Y-9978786D01*
X11489186Y-10150214D02*
X11460614Y-10135929D01*
X11446328Y-10121643D01*
X11432043Y-10093072D01*
X11432043Y-10007357D01*
X11446328Y-9978786D01*
X11460614Y-9964500D01*
X11489186Y-9950214D01*
X11532043Y-9950214D01*
X11560614Y-9964500D01*
X11574900Y-9978786D01*
X11589186Y-10007357D01*
X11589186Y-10093072D01*
X11574900Y-10121643D01*
X11560614Y-10135929D01*
X11532043Y-10150214D01*
X11489186Y-10150214D01*
X11760614Y-10150214D02*
X11732043Y-10135929D01*
X11717757Y-10107357D01*
X11717757Y-9850214D01*
X11989186Y-10135929D02*
X11960614Y-10150214D01*
X11903471Y-10150214D01*
X11874900Y-10135929D01*
X11860614Y-10107357D01*
X11860614Y-9993072D01*
X11874900Y-9964500D01*
X11903471Y-9950214D01*
X11960614Y-9950214D01*
X11989186Y-9964500D01*
X12003471Y-9993072D01*
X12003471Y-10021643D01*
X11860614Y-10050214D01*
X12117757Y-10135929D02*
X12146328Y-10150214D01*
X12203471Y-10150214D01*
X12232043Y-10135929D01*
X12246328Y-10107357D01*
X12246328Y-10093072D01*
X12232043Y-10064500D01*
X12203471Y-10050214D01*
X12160614Y-10050214D01*
X12132043Y-10035929D01*
X12117757Y-10007357D01*
X12117757Y-9993072D01*
X12132043Y-9964500D01*
X12160614Y-9950214D01*
X12203471Y-9950214D01*
X12232043Y-9964500D01*
X12603471Y-10035929D02*
X12832043Y-10035929D01*
X12717757Y-10150214D02*
X12717757Y-9921643D01*
X13332043Y-9850214D02*
X13274900Y-9850214D01*
X13246328Y-9864500D01*
X13232043Y-9878786D01*
X13203471Y-9921643D01*
X13189186Y-9978786D01*
X13189186Y-10093072D01*
X13203471Y-10121643D01*
X13217757Y-10135929D01*
X13246328Y-10150214D01*
X13303471Y-10150214D01*
X13332043Y-10135929D01*
X13346328Y-10121643D01*
X13360614Y-10093072D01*
X13360614Y-10021643D01*
X13346328Y-9993072D01*
X13332043Y-9978786D01*
X13303471Y-9964500D01*
X13246328Y-9964500D01*
X13217757Y-9978786D01*
X13203471Y-9993072D01*
X13189186Y-10021643D01*
X13703471Y-10135929D02*
X13732043Y-10150214D01*
X13789186Y-10150214D01*
X13817757Y-10135929D01*
X13832043Y-10107357D01*
X13832043Y-10093072D01*
X13817757Y-10064500D01*
X13789186Y-10050214D01*
X13746328Y-10050214D01*
X13717757Y-10035929D01*
X13703471Y-10007357D01*
X13703471Y-9993072D01*
X13717757Y-9964500D01*
X13746328Y-9950214D01*
X13789186Y-9950214D01*
X13817757Y-9964500D01*
X14003471Y-10150214D02*
X13974900Y-10135929D01*
X13960614Y-10107357D01*
X13960614Y-9850214D01*
X14160614Y-10150214D02*
X14132043Y-10135929D01*
X14117757Y-10121643D01*
X14103471Y-10093072D01*
X14103471Y-10007357D01*
X14117757Y-9978786D01*
X14132043Y-9964500D01*
X14160614Y-9950214D01*
X14203471Y-9950214D01*
X14232043Y-9964500D01*
X14246328Y-9978786D01*
X14260614Y-10007357D01*
X14260614Y-10093072D01*
X14246328Y-10121643D01*
X14232043Y-10135929D01*
X14203471Y-10150214D01*
X14160614Y-10150214D01*
X14346328Y-9950214D02*
X14460614Y-9950214D01*
X14389186Y-9850214D02*
X14389186Y-10107357D01*
X14403471Y-10135929D01*
X14432043Y-10150214D01*
X14460614Y-10150214D01*
X14546328Y-10135929D02*
X14574900Y-10150214D01*
X14632043Y-10150214D01*
X14660614Y-10135929D01*
X14674900Y-10107357D01*
X14674900Y-10093072D01*
X14660614Y-10064500D01*
X14632043Y-10050214D01*
X14589186Y-10050214D01*
X14560614Y-10035929D01*
X14546328Y-10007357D01*
X14546328Y-9993072D01*
X14560614Y-9964500D01*
X14589186Y-9950214D01*
X14632043Y-9950214D01*
X14660614Y-9964500D01*
X14774900Y-10264500D02*
X14789186Y-10250214D01*
X14817757Y-10207357D01*
X14832043Y-10178786D01*
X14846328Y-10135929D01*
X14860614Y-10064500D01*
X14860614Y-10007357D01*
X14846328Y-9935929D01*
X14832043Y-9893072D01*
X14817757Y-9864500D01*
X14789186Y-9821643D01*
X14774900Y-9807357D01*
X5846866Y-10441967D02*
X5846866Y-10379034D01*
X5783933Y-10379034D01*
X5783933Y-10441967D01*
X5846866Y-10441967D01*
X6203471Y-10246214D02*
X6232043Y-10246214D01*
X6260614Y-10260500D01*
X6274900Y-10274786D01*
X6289186Y-10303357D01*
X6303471Y-10360500D01*
X6303471Y-10431929D01*
X6289186Y-10489072D01*
X6274900Y-10517643D01*
X6260614Y-10531929D01*
X6232043Y-10546214D01*
X6203471Y-10546214D01*
X6174900Y-10531929D01*
X6160614Y-10517643D01*
X6146328Y-10489072D01*
X6132043Y-10431929D01*
X6132043Y-10360500D01*
X6146328Y-10303357D01*
X6160614Y-10274786D01*
X6174900Y-10260500D01*
X6203471Y-10246214D01*
X6432043Y-10517643D02*
X6446328Y-10531929D01*
X6432043Y-10546214D01*
X6417757Y-10531929D01*
X6432043Y-10517643D01*
X6432043Y-10546214D01*
X6617757Y-10374786D02*
X6589186Y-10360500D01*
X6574900Y-10346214D01*
X6560614Y-10317643D01*
X6560614Y-10303357D01*
X6574900Y-10274786D01*
X6589186Y-10260500D01*
X6617757Y-10246214D01*
X6674900Y-10246214D01*
X6703471Y-10260500D01*
X6717757Y-10274786D01*
X6732043Y-10303357D01*
X6732043Y-10317643D01*
X6717757Y-10346214D01*
X6703471Y-10360500D01*
X6674900Y-10374786D01*
X6617757Y-10374786D01*
X6589186Y-10389072D01*
X6574900Y-10403357D01*
X6560614Y-10431929D01*
X6560614Y-10489072D01*
X6574900Y-10517643D01*
X6589186Y-10531929D01*
X6617757Y-10546214D01*
X6674900Y-10546214D01*
X6703471Y-10531929D01*
X6717757Y-10517643D01*
X6732043Y-10489072D01*
X6732043Y-10431929D01*
X6717757Y-10403357D01*
X6703471Y-10389072D01*
X6674900Y-10374786D01*
X6874900Y-10546214D02*
X6932043Y-10546214D01*
X6960614Y-10531929D01*
X6974900Y-10517643D01*
X7003471Y-10474786D01*
X7017757Y-10417643D01*
X7017757Y-10303357D01*
X7003471Y-10274786D01*
X6989186Y-10260500D01*
X6960614Y-10246214D01*
X6903471Y-10246214D01*
X6874900Y-10260500D01*
X6860614Y-10274786D01*
X6846328Y-10303357D01*
X6846328Y-10374786D01*
X6860614Y-10403357D01*
X6874900Y-10417643D01*
X6903471Y-10431929D01*
X6960614Y-10431929D01*
X6989186Y-10417643D01*
X7003471Y-10403357D01*
X7017757Y-10374786D01*
X7146328Y-10546214D02*
X7146328Y-10346214D01*
X7146328Y-10374786D02*
X7160614Y-10360500D01*
X7189186Y-10346214D01*
X7232043Y-10346214D01*
X7260614Y-10360500D01*
X7274900Y-10389072D01*
X7274900Y-10546214D01*
X7274900Y-10389072D02*
X7289186Y-10360500D01*
X7317757Y-10346214D01*
X7360614Y-10346214D01*
X7389186Y-10360500D01*
X7403471Y-10389072D01*
X7403471Y-10546214D01*
X7546328Y-10546214D02*
X7546328Y-10346214D01*
X7546328Y-10374786D02*
X7560614Y-10360500D01*
X7589186Y-10346214D01*
X7632043Y-10346214D01*
X7660614Y-10360500D01*
X7674900Y-10389072D01*
X7674900Y-10546214D01*
X7674900Y-10389072D02*
X7689186Y-10360500D01*
X7717757Y-10346214D01*
X7760614Y-10346214D01*
X7789186Y-10360500D01*
X7803471Y-10389072D01*
X7803471Y-10546214D01*
X8389186Y-10231929D02*
X8132043Y-10617643D01*
X8774900Y-10246214D02*
X8803471Y-10246214D01*
X8832043Y-10260500D01*
X8846328Y-10274786D01*
X8860614Y-10303357D01*
X8874900Y-10360500D01*
X8874900Y-10431929D01*
X8860614Y-10489072D01*
X8846328Y-10517643D01*
X8832043Y-10531929D01*
X8803471Y-10546214D01*
X8774900Y-10546214D01*
X8746328Y-10531929D01*
X8732043Y-10517643D01*
X8717757Y-10489072D01*
X8703471Y-10431929D01*
X8703471Y-10360500D01*
X8717757Y-10303357D01*
X8732043Y-10274786D01*
X8746328Y-10260500D01*
X8774900Y-10246214D01*
X9003471Y-10517643D02*
X9017757Y-10531929D01*
X9003471Y-10546214D01*
X8989186Y-10531929D01*
X9003471Y-10517643D01*
X9003471Y-10546214D01*
X9203471Y-10246214D02*
X9232043Y-10246214D01*
X9260614Y-10260500D01*
X9274900Y-10274786D01*
X9289186Y-10303357D01*
X9303471Y-10360500D01*
X9303471Y-10431929D01*
X9289186Y-10489072D01*
X9274900Y-10517643D01*
X9260614Y-10531929D01*
X9232043Y-10546214D01*
X9203471Y-10546214D01*
X9174900Y-10531929D01*
X9160614Y-10517643D01*
X9146328Y-10489072D01*
X9132043Y-10431929D01*
X9132043Y-10360500D01*
X9146328Y-10303357D01*
X9160614Y-10274786D01*
X9174900Y-10260500D01*
X9203471Y-10246214D01*
X9403471Y-10246214D02*
X9589186Y-10246214D01*
X9489186Y-10360500D01*
X9532043Y-10360500D01*
X9560614Y-10374786D01*
X9574900Y-10389072D01*
X9589186Y-10417643D01*
X9589186Y-10489072D01*
X9574900Y-10517643D01*
X9560614Y-10531929D01*
X9532043Y-10546214D01*
X9446328Y-10546214D01*
X9417757Y-10531929D01*
X9403471Y-10517643D01*
X9860614Y-10246214D02*
X9717757Y-10246214D01*
X9703471Y-10389072D01*
X9717757Y-10374786D01*
X9746328Y-10360500D01*
X9817757Y-10360500D01*
X9846328Y-10374786D01*
X9860614Y-10389072D01*
X9874900Y-10417643D01*
X9874900Y-10489072D01*
X9860614Y-10517643D01*
X9846328Y-10531929D01*
X9817757Y-10546214D01*
X9746328Y-10546214D01*
X9717757Y-10531929D01*
X9703471Y-10517643D01*
X9989186Y-10246214D02*
X9989186Y-10303357D01*
X10103471Y-10246214D02*
X10103471Y-10303357D01*
X10546328Y-10660500D02*
X10532043Y-10646214D01*
X10503471Y-10603357D01*
X10489186Y-10574786D01*
X10474900Y-10531929D01*
X10460614Y-10460500D01*
X10460614Y-10403357D01*
X10474900Y-10331929D01*
X10489186Y-10289072D01*
X10503471Y-10260500D01*
X10532043Y-10217643D01*
X10546328Y-10203357D01*
X10789186Y-10346214D02*
X10789186Y-10546214D01*
X10717757Y-10231929D02*
X10646328Y-10446214D01*
X10832043Y-10446214D01*
X11174900Y-10546214D02*
X11174900Y-10246214D01*
X11303471Y-10546214D02*
X11303471Y-10389072D01*
X11289186Y-10360500D01*
X11260614Y-10346214D01*
X11217757Y-10346214D01*
X11189186Y-10360500D01*
X11174900Y-10374786D01*
X11489186Y-10546214D02*
X11460614Y-10531929D01*
X11446328Y-10517643D01*
X11432043Y-10489072D01*
X11432043Y-10403357D01*
X11446328Y-10374786D01*
X11460614Y-10360500D01*
X11489186Y-10346214D01*
X11532043Y-10346214D01*
X11560614Y-10360500D01*
X11574900Y-10374786D01*
X11589186Y-10403357D01*
X11589186Y-10489072D01*
X11574900Y-10517643D01*
X11560614Y-10531929D01*
X11532043Y-10546214D01*
X11489186Y-10546214D01*
X11760614Y-10546214D02*
X11732043Y-10531929D01*
X11717757Y-10503357D01*
X11717757Y-10246214D01*
X11989186Y-10531929D02*
X11960614Y-10546214D01*
X11903471Y-10546214D01*
X11874900Y-10531929D01*
X11860614Y-10503357D01*
X11860614Y-10389072D01*
X11874900Y-10360500D01*
X11903471Y-10346214D01*
X11960614Y-10346214D01*
X11989186Y-10360500D01*
X12003471Y-10389072D01*
X12003471Y-10417643D01*
X11860614Y-10446214D01*
X12117757Y-10531929D02*
X12146328Y-10546214D01*
X12203471Y-10546214D01*
X12232043Y-10531929D01*
X12246328Y-10503357D01*
X12246328Y-10489072D01*
X12232043Y-10460500D01*
X12203471Y-10446214D01*
X12160614Y-10446214D01*
X12132043Y-10431929D01*
X12117757Y-10403357D01*
X12117757Y-10389072D01*
X12132043Y-10360500D01*
X12160614Y-10346214D01*
X12203471Y-10346214D01*
X12232043Y-10360500D01*
X12346328Y-10660500D02*
X12360614Y-10646214D01*
X12389186Y-10603357D01*
X12403471Y-10574786D01*
X12417757Y-10531929D01*
X12432043Y-10460500D01*
X12432043Y-10403357D01*
X12417757Y-10331929D01*
X12403471Y-10289072D01*
X12389186Y-10260500D01*
X12360614Y-10217643D01*
X12346328Y-10203357D01*
X5814900Y-10851500D02*
X5859900Y-10806500D01*
X5814900Y-10761500D01*
X5769900Y-10806500D01*
X5814900Y-10851500D01*
X6203471Y-10642214D02*
X6232043Y-10642214D01*
X6260614Y-10656500D01*
X6274900Y-10670786D01*
X6289186Y-10699357D01*
X6303471Y-10756500D01*
X6303471Y-10827929D01*
X6289186Y-10885072D01*
X6274900Y-10913643D01*
X6260614Y-10927929D01*
X6232043Y-10942214D01*
X6203471Y-10942214D01*
X6174900Y-10927929D01*
X6160614Y-10913643D01*
X6146328Y-10885072D01*
X6132043Y-10827929D01*
X6132043Y-10756500D01*
X6146328Y-10699357D01*
X6160614Y-10670786D01*
X6174900Y-10656500D01*
X6203471Y-10642214D01*
X6432043Y-10913643D02*
X6446328Y-10927929D01*
X6432043Y-10942214D01*
X6417757Y-10927929D01*
X6432043Y-10913643D01*
X6432043Y-10942214D01*
X6589186Y-10942214D02*
X6646328Y-10942214D01*
X6674900Y-10927929D01*
X6689186Y-10913643D01*
X6717757Y-10870786D01*
X6732043Y-10813643D01*
X6732043Y-10699357D01*
X6717757Y-10670786D01*
X6703471Y-10656500D01*
X6674900Y-10642214D01*
X6617757Y-10642214D01*
X6589186Y-10656500D01*
X6574900Y-10670786D01*
X6560614Y-10699357D01*
X6560614Y-10770786D01*
X6574900Y-10799357D01*
X6589186Y-10813643D01*
X6617757Y-10827929D01*
X6674900Y-10827929D01*
X6703471Y-10813643D01*
X6717757Y-10799357D01*
X6732043Y-10770786D01*
X6917757Y-10642214D02*
X6946328Y-10642214D01*
X6974900Y-10656500D01*
X6989186Y-10670786D01*
X7003471Y-10699357D01*
X7017757Y-10756500D01*
X7017757Y-10827929D01*
X7003471Y-10885072D01*
X6989186Y-10913643D01*
X6974900Y-10927929D01*
X6946328Y-10942214D01*
X6917757Y-10942214D01*
X6889186Y-10927929D01*
X6874900Y-10913643D01*
X6860614Y-10885072D01*
X6846328Y-10827929D01*
X6846328Y-10756500D01*
X6860614Y-10699357D01*
X6874900Y-10670786D01*
X6889186Y-10656500D01*
X6917757Y-10642214D01*
X7146328Y-10942214D02*
X7146328Y-10742214D01*
X7146328Y-10770786D02*
X7160614Y-10756500D01*
X7189186Y-10742214D01*
X7232043Y-10742214D01*
X7260614Y-10756500D01*
X7274900Y-10785072D01*
X7274900Y-10942214D01*
X7274900Y-10785072D02*
X7289186Y-10756500D01*
X7317757Y-10742214D01*
X7360614Y-10742214D01*
X7389186Y-10756500D01*
X7403471Y-10785072D01*
X7403471Y-10942214D01*
X7546328Y-10942214D02*
X7546328Y-10742214D01*
X7546328Y-10770786D02*
X7560614Y-10756500D01*
X7589186Y-10742214D01*
X7632043Y-10742214D01*
X7660614Y-10756500D01*
X7674900Y-10785072D01*
X7674900Y-10942214D01*
X7674900Y-10785072D02*
X7689186Y-10756500D01*
X7717757Y-10742214D01*
X7760614Y-10742214D01*
X7789186Y-10756500D01*
X7803471Y-10785072D01*
X7803471Y-10942214D01*
X8389186Y-10627929D02*
X8132043Y-11013643D01*
X8774900Y-10642214D02*
X8803471Y-10642214D01*
X8832043Y-10656500D01*
X8846328Y-10670786D01*
X8860614Y-10699357D01*
X8874900Y-10756500D01*
X8874900Y-10827929D01*
X8860614Y-10885072D01*
X8846328Y-10913643D01*
X8832043Y-10927929D01*
X8803471Y-10942214D01*
X8774900Y-10942214D01*
X8746328Y-10927929D01*
X8732043Y-10913643D01*
X8717757Y-10885072D01*
X8703471Y-10827929D01*
X8703471Y-10756500D01*
X8717757Y-10699357D01*
X8732043Y-10670786D01*
X8746328Y-10656500D01*
X8774900Y-10642214D01*
X9003471Y-10913643D02*
X9017757Y-10927929D01*
X9003471Y-10942214D01*
X8989186Y-10927929D01*
X9003471Y-10913643D01*
X9003471Y-10942214D01*
X9203471Y-10642214D02*
X9232043Y-10642214D01*
X9260614Y-10656500D01*
X9274900Y-10670786D01*
X9289186Y-10699357D01*
X9303471Y-10756500D01*
X9303471Y-10827929D01*
X9289186Y-10885072D01*
X9274900Y-10913643D01*
X9260614Y-10927929D01*
X9232043Y-10942214D01*
X9203471Y-10942214D01*
X9174900Y-10927929D01*
X9160614Y-10913643D01*
X9146328Y-10885072D01*
X9132043Y-10827929D01*
X9132043Y-10756500D01*
X9146328Y-10699357D01*
X9160614Y-10670786D01*
X9174900Y-10656500D01*
X9203471Y-10642214D01*
X9403471Y-10642214D02*
X9589186Y-10642214D01*
X9489186Y-10756500D01*
X9532043Y-10756500D01*
X9560614Y-10770786D01*
X9574900Y-10785072D01*
X9589186Y-10813643D01*
X9589186Y-10885072D01*
X9574900Y-10913643D01*
X9560614Y-10927929D01*
X9532043Y-10942214D01*
X9446328Y-10942214D01*
X9417757Y-10927929D01*
X9403471Y-10913643D01*
X9860614Y-10642214D02*
X9717757Y-10642214D01*
X9703471Y-10785072D01*
X9717757Y-10770786D01*
X9746328Y-10756500D01*
X9817757Y-10756500D01*
X9846328Y-10770786D01*
X9860614Y-10785072D01*
X9874900Y-10813643D01*
X9874900Y-10885072D01*
X9860614Y-10913643D01*
X9846328Y-10927929D01*
X9817757Y-10942214D01*
X9746328Y-10942214D01*
X9717757Y-10927929D01*
X9703471Y-10913643D01*
X9989186Y-10642214D02*
X9989186Y-10699357D01*
X10103471Y-10642214D02*
X10103471Y-10699357D01*
X10546328Y-11056500D02*
X10532043Y-11042214D01*
X10503471Y-10999357D01*
X10489186Y-10970786D01*
X10474900Y-10927929D01*
X10460614Y-10856500D01*
X10460614Y-10799357D01*
X10474900Y-10727929D01*
X10489186Y-10685072D01*
X10503471Y-10656500D01*
X10532043Y-10613643D01*
X10546328Y-10599357D01*
X10703471Y-10770786D02*
X10674900Y-10756500D01*
X10660614Y-10742214D01*
X10646328Y-10713643D01*
X10646328Y-10699357D01*
X10660614Y-10670786D01*
X10674900Y-10656500D01*
X10703471Y-10642214D01*
X10760614Y-10642214D01*
X10789186Y-10656500D01*
X10803471Y-10670786D01*
X10817757Y-10699357D01*
X10817757Y-10713643D01*
X10803471Y-10742214D01*
X10789186Y-10756500D01*
X10760614Y-10770786D01*
X10703471Y-10770786D01*
X10674900Y-10785072D01*
X10660614Y-10799357D01*
X10646328Y-10827929D01*
X10646328Y-10885072D01*
X10660614Y-10913643D01*
X10674900Y-10927929D01*
X10703471Y-10942214D01*
X10760614Y-10942214D01*
X10789186Y-10927929D01*
X10803471Y-10913643D01*
X10817757Y-10885072D01*
X10817757Y-10827929D01*
X10803471Y-10799357D01*
X10789186Y-10785072D01*
X10760614Y-10770786D01*
X11174900Y-10942214D02*
X11174900Y-10642214D01*
X11303471Y-10942214D02*
X11303471Y-10785072D01*
X11289186Y-10756500D01*
X11260614Y-10742214D01*
X11217757Y-10742214D01*
X11189186Y-10756500D01*
X11174900Y-10770786D01*
X11489186Y-10942214D02*
X11460614Y-10927929D01*
X11446328Y-10913643D01*
X11432043Y-10885072D01*
X11432043Y-10799357D01*
X11446328Y-10770786D01*
X11460614Y-10756500D01*
X11489186Y-10742214D01*
X11532043Y-10742214D01*
X11560614Y-10756500D01*
X11574900Y-10770786D01*
X11589186Y-10799357D01*
X11589186Y-10885072D01*
X11574900Y-10913643D01*
X11560614Y-10927929D01*
X11532043Y-10942214D01*
X11489186Y-10942214D01*
X11760614Y-10942214D02*
X11732043Y-10927929D01*
X11717757Y-10899357D01*
X11717757Y-10642214D01*
X11989186Y-10927929D02*
X11960614Y-10942214D01*
X11903471Y-10942214D01*
X11874900Y-10927929D01*
X11860614Y-10899357D01*
X11860614Y-10785072D01*
X11874900Y-10756500D01*
X11903471Y-10742214D01*
X11960614Y-10742214D01*
X11989186Y-10756500D01*
X12003471Y-10785072D01*
X12003471Y-10813643D01*
X11860614Y-10842214D01*
X12117757Y-10927929D02*
X12146328Y-10942214D01*
X12203471Y-10942214D01*
X12232043Y-10927929D01*
X12246328Y-10899357D01*
X12246328Y-10885072D01*
X12232043Y-10856500D01*
X12203471Y-10842214D01*
X12160614Y-10842214D01*
X12132043Y-10827929D01*
X12117757Y-10799357D01*
X12117757Y-10785072D01*
X12132043Y-10756500D01*
X12160614Y-10742214D01*
X12203471Y-10742214D01*
X12232043Y-10756500D01*
X12346328Y-11056500D02*
X12360614Y-11042214D01*
X12389186Y-10999357D01*
X12403471Y-10970786D01*
X12417757Y-10927929D01*
X12432043Y-10856500D01*
X12432043Y-10799357D01*
X12417757Y-10727929D01*
X12403471Y-10685072D01*
X12389186Y-10656500D01*
X12360614Y-10613643D01*
X12346328Y-10599357D01*
X5760900Y-11153000D02*
X5859900Y-11252000D01*
X5859900Y-11153000D02*
X5760900Y-11252000D01*
X5859900Y-11202500D02*
G75*
G03X5859900Y-11202500I-49500J0D01*
G01*
X6203471Y-11038214D02*
X6232043Y-11038214D01*
X6260614Y-11052500D01*
X6274900Y-11066786D01*
X6289186Y-11095357D01*
X6303471Y-11152500D01*
X6303471Y-11223929D01*
X6289186Y-11281071D01*
X6274900Y-11309643D01*
X6260614Y-11323929D01*
X6232043Y-11338214D01*
X6203471Y-11338214D01*
X6174900Y-11323929D01*
X6160614Y-11309643D01*
X6146328Y-11281071D01*
X6132043Y-11223929D01*
X6132043Y-11152500D01*
X6146328Y-11095357D01*
X6160614Y-11066786D01*
X6174900Y-11052500D01*
X6203471Y-11038214D01*
X6432043Y-11309643D02*
X6446328Y-11323929D01*
X6432043Y-11338214D01*
X6417757Y-11323929D01*
X6432043Y-11309643D01*
X6432043Y-11338214D01*
X6589186Y-11338214D02*
X6646328Y-11338214D01*
X6674900Y-11323929D01*
X6689186Y-11309643D01*
X6717757Y-11266786D01*
X6732043Y-11209643D01*
X6732043Y-11095357D01*
X6717757Y-11066786D01*
X6703471Y-11052500D01*
X6674900Y-11038214D01*
X6617757Y-11038214D01*
X6589186Y-11052500D01*
X6574900Y-11066786D01*
X6560614Y-11095357D01*
X6560614Y-11166786D01*
X6574900Y-11195357D01*
X6589186Y-11209643D01*
X6617757Y-11223929D01*
X6674900Y-11223929D01*
X6703471Y-11209643D01*
X6717757Y-11195357D01*
X6732043Y-11166786D01*
X6874900Y-11338214D02*
X6932043Y-11338214D01*
X6960614Y-11323929D01*
X6974900Y-11309643D01*
X7003471Y-11266786D01*
X7017757Y-11209643D01*
X7017757Y-11095357D01*
X7003471Y-11066786D01*
X6989186Y-11052500D01*
X6960614Y-11038214D01*
X6903471Y-11038214D01*
X6874900Y-11052500D01*
X6860614Y-11066786D01*
X6846328Y-11095357D01*
X6846328Y-11166786D01*
X6860614Y-11195357D01*
X6874900Y-11209643D01*
X6903471Y-11223929D01*
X6960614Y-11223929D01*
X6989186Y-11209643D01*
X7003471Y-11195357D01*
X7017757Y-11166786D01*
X7146328Y-11338214D02*
X7146328Y-11138214D01*
X7146328Y-11166786D02*
X7160614Y-11152500D01*
X7189186Y-11138214D01*
X7232043Y-11138214D01*
X7260614Y-11152500D01*
X7274900Y-11181072D01*
X7274900Y-11338214D01*
X7274900Y-11181072D02*
X7289186Y-11152500D01*
X7317757Y-11138214D01*
X7360614Y-11138214D01*
X7389186Y-11152500D01*
X7403471Y-11181072D01*
X7403471Y-11338214D01*
X7546328Y-11338214D02*
X7546328Y-11138214D01*
X7546328Y-11166786D02*
X7560614Y-11152500D01*
X7589186Y-11138214D01*
X7632043Y-11138214D01*
X7660614Y-11152500D01*
X7674900Y-11181072D01*
X7674900Y-11338214D01*
X7674900Y-11181072D02*
X7689186Y-11152500D01*
X7717757Y-11138214D01*
X7760614Y-11138214D01*
X7789186Y-11152500D01*
X7803471Y-11181072D01*
X7803471Y-11338214D01*
X8389186Y-11023929D02*
X8132043Y-11409643D01*
X8774900Y-11038214D02*
X8803471Y-11038214D01*
X8832043Y-11052500D01*
X8846328Y-11066786D01*
X8860614Y-11095357D01*
X8874900Y-11152500D01*
X8874900Y-11223929D01*
X8860614Y-11281071D01*
X8846328Y-11309643D01*
X8832043Y-11323929D01*
X8803471Y-11338214D01*
X8774900Y-11338214D01*
X8746328Y-11323929D01*
X8732043Y-11309643D01*
X8717757Y-11281071D01*
X8703471Y-11223929D01*
X8703471Y-11152500D01*
X8717757Y-11095357D01*
X8732043Y-11066786D01*
X8746328Y-11052500D01*
X8774900Y-11038214D01*
X9003471Y-11309643D02*
X9017757Y-11323929D01*
X9003471Y-11338214D01*
X8989186Y-11323929D01*
X9003471Y-11309643D01*
X9003471Y-11338214D01*
X9203471Y-11038214D02*
X9232043Y-11038214D01*
X9260614Y-11052500D01*
X9274900Y-11066786D01*
X9289186Y-11095357D01*
X9303471Y-11152500D01*
X9303471Y-11223929D01*
X9289186Y-11281071D01*
X9274900Y-11309643D01*
X9260614Y-11323929D01*
X9232043Y-11338214D01*
X9203471Y-11338214D01*
X9174900Y-11323929D01*
X9160614Y-11309643D01*
X9146328Y-11281071D01*
X9132043Y-11223929D01*
X9132043Y-11152500D01*
X9146328Y-11095357D01*
X9160614Y-11066786D01*
X9174900Y-11052500D01*
X9203471Y-11038214D01*
X9403471Y-11038214D02*
X9589186Y-11038214D01*
X9489186Y-11152500D01*
X9532043Y-11152500D01*
X9560614Y-11166786D01*
X9574900Y-11181072D01*
X9589186Y-11209643D01*
X9589186Y-11281071D01*
X9574900Y-11309643D01*
X9560614Y-11323929D01*
X9532043Y-11338214D01*
X9446328Y-11338214D01*
X9417757Y-11323929D01*
X9403471Y-11309643D01*
X9732043Y-11338214D02*
X9789186Y-11338214D01*
X9817757Y-11323929D01*
X9832043Y-11309643D01*
X9860614Y-11266786D01*
X9874900Y-11209643D01*
X9874900Y-11095357D01*
X9860614Y-11066786D01*
X9846328Y-11052500D01*
X9817757Y-11038214D01*
X9760614Y-11038214D01*
X9732043Y-11052500D01*
X9717757Y-11066786D01*
X9703471Y-11095357D01*
X9703471Y-11166786D01*
X9717757Y-11195357D01*
X9732043Y-11209643D01*
X9760614Y-11223929D01*
X9817757Y-11223929D01*
X9846328Y-11209643D01*
X9860614Y-11195357D01*
X9874900Y-11166786D01*
X9989186Y-11038214D02*
X9989186Y-11095357D01*
X10103471Y-11038214D02*
X10103471Y-11095357D01*
X10546328Y-11452500D02*
X10532043Y-11438214D01*
X10503471Y-11395357D01*
X10489186Y-11366786D01*
X10474900Y-11323929D01*
X10460614Y-11252500D01*
X10460614Y-11195357D01*
X10474900Y-11123929D01*
X10489186Y-11081072D01*
X10503471Y-11052500D01*
X10532043Y-11009643D01*
X10546328Y-10995357D01*
X10789186Y-11138214D02*
X10789186Y-11338214D01*
X10717757Y-11023929D02*
X10646328Y-11238214D01*
X10832043Y-11238214D01*
X11174900Y-11338214D02*
X11174900Y-11038214D01*
X11303471Y-11338214D02*
X11303471Y-11181072D01*
X11289186Y-11152500D01*
X11260614Y-11138214D01*
X11217757Y-11138214D01*
X11189186Y-11152500D01*
X11174900Y-11166786D01*
X11489186Y-11338214D02*
X11460614Y-11323929D01*
X11446328Y-11309643D01*
X11432043Y-11281071D01*
X11432043Y-11195357D01*
X11446328Y-11166786D01*
X11460614Y-11152500D01*
X11489186Y-11138214D01*
X11532043Y-11138214D01*
X11560614Y-11152500D01*
X11574900Y-11166786D01*
X11589186Y-11195357D01*
X11589186Y-11281071D01*
X11574900Y-11309643D01*
X11560614Y-11323929D01*
X11532043Y-11338214D01*
X11489186Y-11338214D01*
X11760614Y-11338214D02*
X11732043Y-11323929D01*
X11717757Y-11295357D01*
X11717757Y-11038214D01*
X11989186Y-11323929D02*
X11960614Y-11338214D01*
X11903471Y-11338214D01*
X11874900Y-11323929D01*
X11860614Y-11295357D01*
X11860614Y-11181072D01*
X11874900Y-11152500D01*
X11903471Y-11138214D01*
X11960614Y-11138214D01*
X11989186Y-11152500D01*
X12003471Y-11181072D01*
X12003471Y-11209643D01*
X11860614Y-11238214D01*
X12117757Y-11323929D02*
X12146328Y-11338214D01*
X12203471Y-11338214D01*
X12232043Y-11323929D01*
X12246328Y-11295357D01*
X12246328Y-11281071D01*
X12232043Y-11252500D01*
X12203471Y-11238214D01*
X12160614Y-11238214D01*
X12132043Y-11223929D01*
X12117757Y-11195357D01*
X12117757Y-11181072D01*
X12132043Y-11152500D01*
X12160614Y-11138214D01*
X12203471Y-11138214D01*
X12232043Y-11152500D01*
X12346328Y-11452500D02*
X12360614Y-11438214D01*
X12389186Y-11395357D01*
X12403471Y-11366786D01*
X12417757Y-11323929D01*
X12432043Y-11252500D01*
X12432043Y-11195357D01*
X12417757Y-11123929D01*
X12403471Y-11081072D01*
X12389186Y-11052500D01*
X12360614Y-11009643D01*
X12346328Y-10995357D01*
X5759900Y-11548500D02*
X5859900Y-11648500D01*
X5859900Y-11548500D02*
X5759900Y-11648500D01*
X5809900Y-11548500D02*
X5809900Y-11648500D01*
X5759900Y-11598500D02*
X5859900Y-11598500D01*
X6303471Y-11734214D02*
X6132043Y-11734214D01*
X6217757Y-11734214D02*
X6217757Y-11434214D01*
X6189186Y-11477071D01*
X6160614Y-11505643D01*
X6132043Y-11519929D01*
X6432043Y-11705643D02*
X6446328Y-11719929D01*
X6432043Y-11734214D01*
X6417757Y-11719929D01*
X6432043Y-11705643D01*
X6432043Y-11734214D01*
X6632043Y-11434214D02*
X6660614Y-11434214D01*
X6689186Y-11448500D01*
X6703471Y-11462786D01*
X6717757Y-11491357D01*
X6732043Y-11548500D01*
X6732043Y-11619929D01*
X6717757Y-11677071D01*
X6703471Y-11705643D01*
X6689186Y-11719929D01*
X6660614Y-11734214D01*
X6632043Y-11734214D01*
X6603471Y-11719929D01*
X6589186Y-11705643D01*
X6574900Y-11677071D01*
X6560614Y-11619929D01*
X6560614Y-11548500D01*
X6574900Y-11491357D01*
X6589186Y-11462786D01*
X6603471Y-11448500D01*
X6632043Y-11434214D01*
X6917757Y-11434214D02*
X6946328Y-11434214D01*
X6974900Y-11448500D01*
X6989186Y-11462786D01*
X7003471Y-11491357D01*
X7017757Y-11548500D01*
X7017757Y-11619929D01*
X7003471Y-11677071D01*
X6989186Y-11705643D01*
X6974900Y-11719929D01*
X6946328Y-11734214D01*
X6917757Y-11734214D01*
X6889186Y-11719929D01*
X6874900Y-11705643D01*
X6860614Y-11677071D01*
X6846328Y-11619929D01*
X6846328Y-11548500D01*
X6860614Y-11491357D01*
X6874900Y-11462786D01*
X6889186Y-11448500D01*
X6917757Y-11434214D01*
X7146328Y-11734214D02*
X7146328Y-11534214D01*
X7146328Y-11562786D02*
X7160614Y-11548500D01*
X7189186Y-11534214D01*
X7232043Y-11534214D01*
X7260614Y-11548500D01*
X7274900Y-11577071D01*
X7274900Y-11734214D01*
X7274900Y-11577071D02*
X7289186Y-11548500D01*
X7317757Y-11534214D01*
X7360614Y-11534214D01*
X7389186Y-11548500D01*
X7403471Y-11577071D01*
X7403471Y-11734214D01*
X7546328Y-11734214D02*
X7546328Y-11534214D01*
X7546328Y-11562786D02*
X7560614Y-11548500D01*
X7589186Y-11534214D01*
X7632043Y-11534214D01*
X7660614Y-11548500D01*
X7674900Y-11577071D01*
X7674900Y-11734214D01*
X7674900Y-11577071D02*
X7689186Y-11548500D01*
X7717757Y-11534214D01*
X7760614Y-11534214D01*
X7789186Y-11548500D01*
X7803471Y-11577071D01*
X7803471Y-11734214D01*
X8389186Y-11419929D02*
X8132043Y-11805643D01*
X8774900Y-11434214D02*
X8803471Y-11434214D01*
X8832043Y-11448500D01*
X8846328Y-11462786D01*
X8860614Y-11491357D01*
X8874900Y-11548500D01*
X8874900Y-11619929D01*
X8860614Y-11677071D01*
X8846328Y-11705643D01*
X8832043Y-11719929D01*
X8803471Y-11734214D01*
X8774900Y-11734214D01*
X8746328Y-11719929D01*
X8732043Y-11705643D01*
X8717757Y-11677071D01*
X8703471Y-11619929D01*
X8703471Y-11548500D01*
X8717757Y-11491357D01*
X8732043Y-11462786D01*
X8746328Y-11448500D01*
X8774900Y-11434214D01*
X9003471Y-11705643D02*
X9017757Y-11719929D01*
X9003471Y-11734214D01*
X8989186Y-11719929D01*
X9003471Y-11705643D01*
X9003471Y-11734214D01*
X9203471Y-11434214D02*
X9232043Y-11434214D01*
X9260614Y-11448500D01*
X9274900Y-11462786D01*
X9289186Y-11491357D01*
X9303471Y-11548500D01*
X9303471Y-11619929D01*
X9289186Y-11677071D01*
X9274900Y-11705643D01*
X9260614Y-11719929D01*
X9232043Y-11734214D01*
X9203471Y-11734214D01*
X9174900Y-11719929D01*
X9160614Y-11705643D01*
X9146328Y-11677071D01*
X9132043Y-11619929D01*
X9132043Y-11548500D01*
X9146328Y-11491357D01*
X9160614Y-11462786D01*
X9174900Y-11448500D01*
X9203471Y-11434214D01*
X9403471Y-11434214D02*
X9589186Y-11434214D01*
X9489186Y-11548500D01*
X9532043Y-11548500D01*
X9560614Y-11562786D01*
X9574900Y-11577071D01*
X9589186Y-11605643D01*
X9589186Y-11677071D01*
X9574900Y-11705643D01*
X9560614Y-11719929D01*
X9532043Y-11734214D01*
X9446328Y-11734214D01*
X9417757Y-11719929D01*
X9403471Y-11705643D01*
X9732043Y-11734214D02*
X9789186Y-11734214D01*
X9817757Y-11719929D01*
X9832043Y-11705643D01*
X9860614Y-11662786D01*
X9874900Y-11605643D01*
X9874900Y-11491357D01*
X9860614Y-11462786D01*
X9846328Y-11448500D01*
X9817757Y-11434214D01*
X9760614Y-11434214D01*
X9732043Y-11448500D01*
X9717757Y-11462786D01*
X9703471Y-11491357D01*
X9703471Y-11562786D01*
X9717757Y-11591357D01*
X9732043Y-11605643D01*
X9760614Y-11619929D01*
X9817757Y-11619929D01*
X9846328Y-11605643D01*
X9860614Y-11591357D01*
X9874900Y-11562786D01*
X9989186Y-11434214D02*
X9989186Y-11491357D01*
X10103471Y-11434214D02*
X10103471Y-11491357D01*
X10546328Y-11848500D02*
X10532043Y-11834214D01*
X10503471Y-11791357D01*
X10489186Y-11762786D01*
X10474900Y-11719929D01*
X10460614Y-11648500D01*
X10460614Y-11591357D01*
X10474900Y-11519929D01*
X10489186Y-11477071D01*
X10503471Y-11448500D01*
X10532043Y-11405643D01*
X10546328Y-11391357D01*
X10817757Y-11734214D02*
X10646328Y-11734214D01*
X10732043Y-11734214D02*
X10732043Y-11434214D01*
X10703471Y-11477071D01*
X10674900Y-11505643D01*
X10646328Y-11519929D01*
X10932043Y-11462786D02*
X10946328Y-11448500D01*
X10974900Y-11434214D01*
X11046328Y-11434214D01*
X11074900Y-11448500D01*
X11089186Y-11462786D01*
X11103471Y-11491357D01*
X11103471Y-11519929D01*
X11089186Y-11562786D01*
X10917757Y-11734214D01*
X11103471Y-11734214D01*
X11289186Y-11434214D02*
X11317757Y-11434214D01*
X11346328Y-11448500D01*
X11360614Y-11462786D01*
X11374900Y-11491357D01*
X11389186Y-11548500D01*
X11389186Y-11619929D01*
X11374900Y-11677071D01*
X11360614Y-11705643D01*
X11346328Y-11719929D01*
X11317757Y-11734214D01*
X11289186Y-11734214D01*
X11260614Y-11719929D01*
X11246328Y-11705643D01*
X11232043Y-11677071D01*
X11217757Y-11619929D01*
X11217757Y-11548500D01*
X11232043Y-11491357D01*
X11246328Y-11462786D01*
X11260614Y-11448500D01*
X11289186Y-11434214D01*
X11746328Y-11734214D02*
X11746328Y-11434214D01*
X11874900Y-11734214D02*
X11874900Y-11577071D01*
X11860614Y-11548500D01*
X11832043Y-11534214D01*
X11789186Y-11534214D01*
X11760614Y-11548500D01*
X11746328Y-11562786D01*
X12060614Y-11734214D02*
X12032043Y-11719929D01*
X12017757Y-11705643D01*
X12003471Y-11677071D01*
X12003471Y-11591357D01*
X12017757Y-11562786D01*
X12032043Y-11548500D01*
X12060614Y-11534214D01*
X12103471Y-11534214D01*
X12132043Y-11548500D01*
X12146328Y-11562786D01*
X12160614Y-11591357D01*
X12160614Y-11677071D01*
X12146328Y-11705643D01*
X12132043Y-11719929D01*
X12103471Y-11734214D01*
X12060614Y-11734214D01*
X12332043Y-11734214D02*
X12303471Y-11719929D01*
X12289186Y-11691357D01*
X12289186Y-11434214D01*
X12560614Y-11719929D02*
X12532043Y-11734214D01*
X12474900Y-11734214D01*
X12446328Y-11719929D01*
X12432043Y-11691357D01*
X12432043Y-11577071D01*
X12446328Y-11548500D01*
X12474900Y-11534214D01*
X12532043Y-11534214D01*
X12560614Y-11548500D01*
X12574900Y-11577071D01*
X12574900Y-11605643D01*
X12432043Y-11634214D01*
X12689186Y-11719929D02*
X12717757Y-11734214D01*
X12774900Y-11734214D01*
X12803471Y-11719929D01*
X12817757Y-11691357D01*
X12817757Y-11677071D01*
X12803471Y-11648500D01*
X12774900Y-11634214D01*
X12732043Y-11634214D01*
X12703471Y-11619929D01*
X12689186Y-11591357D01*
X12689186Y-11577071D01*
X12703471Y-11548500D01*
X12732043Y-11534214D01*
X12774900Y-11534214D01*
X12803471Y-11548500D01*
X12917757Y-11848500D02*
X12932043Y-11834214D01*
X12960614Y-11791357D01*
X12974900Y-11762786D01*
X12989186Y-11719929D01*
X13003471Y-11648500D01*
X13003471Y-11591357D01*
X12989186Y-11519929D01*
X12974900Y-11477071D01*
X12960614Y-11448500D01*
X12932043Y-11405643D01*
X12917757Y-11391357D01*
X5739900Y-11934500D02*
X5859900Y-12054500D01*
X5859900Y-11934500D02*
X5739900Y-12054500D01*
X5842327Y-12036927D02*
X5842327Y-11952073D01*
X5757473Y-11952073D01*
X5757473Y-12036927D01*
X5842327Y-12036927D01*
X6303471Y-12130214D02*
X6132043Y-12130214D01*
X6217757Y-12130214D02*
X6217757Y-11830214D01*
X6189186Y-11873071D01*
X6160614Y-11901643D01*
X6132043Y-11915929D01*
X6432043Y-12101643D02*
X6446328Y-12115929D01*
X6432043Y-12130214D01*
X6417757Y-12115929D01*
X6432043Y-12101643D01*
X6432043Y-12130214D01*
X6560614Y-11858786D02*
X6574900Y-11844500D01*
X6603471Y-11830214D01*
X6674900Y-11830214D01*
X6703471Y-11844500D01*
X6717757Y-11858786D01*
X6732043Y-11887357D01*
X6732043Y-11915929D01*
X6717757Y-11958786D01*
X6546328Y-12130214D01*
X6732043Y-12130214D01*
X6917757Y-11830214D02*
X6946328Y-11830214D01*
X6974900Y-11844500D01*
X6989186Y-11858786D01*
X7003471Y-11887357D01*
X7017757Y-11944500D01*
X7017757Y-12015929D01*
X7003471Y-12073071D01*
X6989186Y-12101643D01*
X6974900Y-12115929D01*
X6946328Y-12130214D01*
X6917757Y-12130214D01*
X6889186Y-12115929D01*
X6874900Y-12101643D01*
X6860614Y-12073071D01*
X6846328Y-12015929D01*
X6846328Y-11944500D01*
X6860614Y-11887357D01*
X6874900Y-11858786D01*
X6889186Y-11844500D01*
X6917757Y-11830214D01*
X7146328Y-12130214D02*
X7146328Y-11930214D01*
X7146328Y-11958786D02*
X7160614Y-11944500D01*
X7189186Y-11930214D01*
X7232043Y-11930214D01*
X7260614Y-11944500D01*
X7274900Y-11973071D01*
X7274900Y-12130214D01*
X7274900Y-11973071D02*
X7289186Y-11944500D01*
X7317757Y-11930214D01*
X7360614Y-11930214D01*
X7389186Y-11944500D01*
X7403471Y-11973071D01*
X7403471Y-12130214D01*
X7546328Y-12130214D02*
X7546328Y-11930214D01*
X7546328Y-11958786D02*
X7560614Y-11944500D01*
X7589186Y-11930214D01*
X7632043Y-11930214D01*
X7660614Y-11944500D01*
X7674900Y-11973071D01*
X7674900Y-12130214D01*
X7674900Y-11973071D02*
X7689186Y-11944500D01*
X7717757Y-11930214D01*
X7760614Y-11930214D01*
X7789186Y-11944500D01*
X7803471Y-11973071D01*
X7803471Y-12130214D01*
X8389186Y-11815929D02*
X8132043Y-12201643D01*
X8774900Y-11830214D02*
X8803471Y-11830214D01*
X8832043Y-11844500D01*
X8846328Y-11858786D01*
X8860614Y-11887357D01*
X8874900Y-11944500D01*
X8874900Y-12015929D01*
X8860614Y-12073071D01*
X8846328Y-12101643D01*
X8832043Y-12115929D01*
X8803471Y-12130214D01*
X8774900Y-12130214D01*
X8746328Y-12115929D01*
X8732043Y-12101643D01*
X8717757Y-12073071D01*
X8703471Y-12015929D01*
X8703471Y-11944500D01*
X8717757Y-11887357D01*
X8732043Y-11858786D01*
X8746328Y-11844500D01*
X8774900Y-11830214D01*
X9003471Y-12101643D02*
X9017757Y-12115929D01*
X9003471Y-12130214D01*
X8989186Y-12115929D01*
X9003471Y-12101643D01*
X9003471Y-12130214D01*
X9203471Y-11830214D02*
X9232043Y-11830214D01*
X9260614Y-11844500D01*
X9274900Y-11858786D01*
X9289186Y-11887357D01*
X9303471Y-11944500D01*
X9303471Y-12015929D01*
X9289186Y-12073071D01*
X9274900Y-12101643D01*
X9260614Y-12115929D01*
X9232043Y-12130214D01*
X9203471Y-12130214D01*
X9174900Y-12115929D01*
X9160614Y-12101643D01*
X9146328Y-12073071D01*
X9132043Y-12015929D01*
X9132043Y-11944500D01*
X9146328Y-11887357D01*
X9160614Y-11858786D01*
X9174900Y-11844500D01*
X9203471Y-11830214D01*
X9560614Y-11930214D02*
X9560614Y-12130214D01*
X9489186Y-11815929D02*
X9417757Y-12030214D01*
X9603471Y-12030214D01*
X9689186Y-11830214D02*
X9889186Y-11830214D01*
X9760614Y-12130214D01*
X9989186Y-11830214D02*
X9989186Y-11887357D01*
X10103471Y-11830214D02*
X10103471Y-11887357D01*
X10546328Y-12244500D02*
X10532043Y-12230214D01*
X10503471Y-12187357D01*
X10489186Y-12158786D01*
X10474900Y-12115929D01*
X10460614Y-12044500D01*
X10460614Y-11987357D01*
X10474900Y-11915929D01*
X10489186Y-11873071D01*
X10503471Y-11844500D01*
X10532043Y-11801643D01*
X10546328Y-11787357D01*
X10703471Y-11958786D02*
X10674900Y-11944500D01*
X10660614Y-11930214D01*
X10646328Y-11901643D01*
X10646328Y-11887357D01*
X10660614Y-11858786D01*
X10674900Y-11844500D01*
X10703471Y-11830214D01*
X10760614Y-11830214D01*
X10789186Y-11844500D01*
X10803471Y-11858786D01*
X10817757Y-11887357D01*
X10817757Y-11901643D01*
X10803471Y-11930214D01*
X10789186Y-11944500D01*
X10760614Y-11958786D01*
X10703471Y-11958786D01*
X10674900Y-11973071D01*
X10660614Y-11987357D01*
X10646328Y-12015929D01*
X10646328Y-12073071D01*
X10660614Y-12101643D01*
X10674900Y-12115929D01*
X10703471Y-12130214D01*
X10760614Y-12130214D01*
X10789186Y-12115929D01*
X10803471Y-12101643D01*
X10817757Y-12073071D01*
X10817757Y-12015929D01*
X10803471Y-11987357D01*
X10789186Y-11973071D01*
X10760614Y-11958786D01*
X11174900Y-12130214D02*
X11174900Y-11830214D01*
X11303471Y-12130214D02*
X11303471Y-11973071D01*
X11289186Y-11944500D01*
X11260614Y-11930214D01*
X11217757Y-11930214D01*
X11189186Y-11944500D01*
X11174900Y-11958786D01*
X11489186Y-12130214D02*
X11460614Y-12115929D01*
X11446328Y-12101643D01*
X11432043Y-12073071D01*
X11432043Y-11987357D01*
X11446328Y-11958786D01*
X11460614Y-11944500D01*
X11489186Y-11930214D01*
X11532043Y-11930214D01*
X11560614Y-11944500D01*
X11574900Y-11958786D01*
X11589186Y-11987357D01*
X11589186Y-12073071D01*
X11574900Y-12101643D01*
X11560614Y-12115929D01*
X11532043Y-12130214D01*
X11489186Y-12130214D01*
X11760614Y-12130214D02*
X11732043Y-12115929D01*
X11717757Y-12087357D01*
X11717757Y-11830214D01*
X11989186Y-12115929D02*
X11960614Y-12130214D01*
X11903471Y-12130214D01*
X11874900Y-12115929D01*
X11860614Y-12087357D01*
X11860614Y-11973071D01*
X11874900Y-11944500D01*
X11903471Y-11930214D01*
X11960614Y-11930214D01*
X11989186Y-11944500D01*
X12003471Y-11973071D01*
X12003471Y-12001643D01*
X11860614Y-12030214D01*
X12117757Y-12115929D02*
X12146328Y-12130214D01*
X12203471Y-12130214D01*
X12232043Y-12115929D01*
X12246328Y-12087357D01*
X12246328Y-12073071D01*
X12232043Y-12044500D01*
X12203471Y-12030214D01*
X12160614Y-12030214D01*
X12132043Y-12015929D01*
X12117757Y-11987357D01*
X12117757Y-11973071D01*
X12132043Y-11944500D01*
X12160614Y-11930214D01*
X12203471Y-11930214D01*
X12232043Y-11944500D01*
X12346328Y-12244500D02*
X12360614Y-12230214D01*
X12389186Y-12187357D01*
X12403471Y-12158786D01*
X12417757Y-12115929D01*
X12432043Y-12044500D01*
X12432043Y-11987357D01*
X12417757Y-11915929D01*
X12403471Y-11873071D01*
X12389186Y-11844500D01*
X12360614Y-11801643D01*
X12346328Y-11787357D01*
X5729900Y-12325500D02*
X5859900Y-12455500D01*
X5859900Y-12325500D02*
X5729900Y-12455500D01*
X5794900Y-12455500D02*
X5859900Y-12390500D01*
X5794900Y-12325500D01*
X5729900Y-12390500D01*
X5794900Y-12455500D01*
X6303471Y-12526214D02*
X6132043Y-12526214D01*
X6217757Y-12526214D02*
X6217757Y-12226214D01*
X6189186Y-12269071D01*
X6160614Y-12297643D01*
X6132043Y-12311929D01*
X6432043Y-12497643D02*
X6446328Y-12511929D01*
X6432043Y-12526214D01*
X6417757Y-12511929D01*
X6432043Y-12497643D01*
X6432043Y-12526214D01*
X6546328Y-12226214D02*
X6732043Y-12226214D01*
X6632043Y-12340500D01*
X6674900Y-12340500D01*
X6703471Y-12354786D01*
X6717757Y-12369071D01*
X6732043Y-12397643D01*
X6732043Y-12469071D01*
X6717757Y-12497643D01*
X6703471Y-12511929D01*
X6674900Y-12526214D01*
X6589186Y-12526214D01*
X6560614Y-12511929D01*
X6546328Y-12497643D01*
X6917757Y-12226214D02*
X6946328Y-12226214D01*
X6974900Y-12240500D01*
X6989186Y-12254786D01*
X7003471Y-12283357D01*
X7017757Y-12340500D01*
X7017757Y-12411929D01*
X7003471Y-12469071D01*
X6989186Y-12497643D01*
X6974900Y-12511929D01*
X6946328Y-12526214D01*
X6917757Y-12526214D01*
X6889186Y-12511929D01*
X6874900Y-12497643D01*
X6860614Y-12469071D01*
X6846328Y-12411929D01*
X6846328Y-12340500D01*
X6860614Y-12283357D01*
X6874900Y-12254786D01*
X6889186Y-12240500D01*
X6917757Y-12226214D01*
X7146328Y-12526214D02*
X7146328Y-12326214D01*
X7146328Y-12354786D02*
X7160614Y-12340500D01*
X7189186Y-12326214D01*
X7232043Y-12326214D01*
X7260614Y-12340500D01*
X7274900Y-12369071D01*
X7274900Y-12526214D01*
X7274900Y-12369071D02*
X7289186Y-12340500D01*
X7317757Y-12326214D01*
X7360614Y-12326214D01*
X7389186Y-12340500D01*
X7403471Y-12369071D01*
X7403471Y-12526214D01*
X7546328Y-12526214D02*
X7546328Y-12326214D01*
X7546328Y-12354786D02*
X7560614Y-12340500D01*
X7589186Y-12326214D01*
X7632043Y-12326214D01*
X7660614Y-12340500D01*
X7674900Y-12369071D01*
X7674900Y-12526214D01*
X7674900Y-12369071D02*
X7689186Y-12340500D01*
X7717757Y-12326214D01*
X7760614Y-12326214D01*
X7789186Y-12340500D01*
X7803471Y-12369071D01*
X7803471Y-12526214D01*
X8389186Y-12211929D02*
X8132043Y-12597643D01*
X8774900Y-12226214D02*
X8803471Y-12226214D01*
X8832043Y-12240500D01*
X8846328Y-12254786D01*
X8860614Y-12283357D01*
X8874900Y-12340500D01*
X8874900Y-12411929D01*
X8860614Y-12469071D01*
X8846328Y-12497643D01*
X8832043Y-12511929D01*
X8803471Y-12526214D01*
X8774900Y-12526214D01*
X8746328Y-12511929D01*
X8732043Y-12497643D01*
X8717757Y-12469071D01*
X8703471Y-12411929D01*
X8703471Y-12340500D01*
X8717757Y-12283357D01*
X8732043Y-12254786D01*
X8746328Y-12240500D01*
X8774900Y-12226214D01*
X9003471Y-12497643D02*
X9017757Y-12511929D01*
X9003471Y-12526214D01*
X8989186Y-12511929D01*
X9003471Y-12497643D01*
X9003471Y-12526214D01*
X9203471Y-12226214D02*
X9232043Y-12226214D01*
X9260614Y-12240500D01*
X9274900Y-12254786D01*
X9289186Y-12283357D01*
X9303471Y-12340500D01*
X9303471Y-12411929D01*
X9289186Y-12469071D01*
X9274900Y-12497643D01*
X9260614Y-12511929D01*
X9232043Y-12526214D01*
X9203471Y-12526214D01*
X9174900Y-12511929D01*
X9160614Y-12497643D01*
X9146328Y-12469071D01*
X9132043Y-12411929D01*
X9132043Y-12340500D01*
X9146328Y-12283357D01*
X9160614Y-12254786D01*
X9174900Y-12240500D01*
X9203471Y-12226214D01*
X9574900Y-12226214D02*
X9432043Y-12226214D01*
X9417757Y-12369071D01*
X9432043Y-12354786D01*
X9460614Y-12340500D01*
X9532043Y-12340500D01*
X9560614Y-12354786D01*
X9574900Y-12369071D01*
X9589186Y-12397643D01*
X9589186Y-12469071D01*
X9574900Y-12497643D01*
X9560614Y-12511929D01*
X9532043Y-12526214D01*
X9460614Y-12526214D01*
X9432043Y-12511929D01*
X9417757Y-12497643D01*
X9874900Y-12526214D02*
X9703471Y-12526214D01*
X9789186Y-12526214D02*
X9789186Y-12226214D01*
X9760614Y-12269071D01*
X9732043Y-12297643D01*
X9703471Y-12311929D01*
X9989186Y-12226214D02*
X9989186Y-12283357D01*
X10103471Y-12226214D02*
X10103471Y-12283357D01*
X10546328Y-12640500D02*
X10532043Y-12626214D01*
X10503471Y-12583357D01*
X10489186Y-12554786D01*
X10474900Y-12511929D01*
X10460614Y-12440500D01*
X10460614Y-12383357D01*
X10474900Y-12311929D01*
X10489186Y-12269071D01*
X10503471Y-12240500D01*
X10532043Y-12197643D01*
X10546328Y-12183357D01*
X10789186Y-12326214D02*
X10789186Y-12526214D01*
X10717757Y-12211929D02*
X10646328Y-12426214D01*
X10832043Y-12426214D01*
X11174900Y-12526214D02*
X11174900Y-12226214D01*
X11303471Y-12526214D02*
X11303471Y-12369071D01*
X11289186Y-12340500D01*
X11260614Y-12326214D01*
X11217757Y-12326214D01*
X11189186Y-12340500D01*
X11174900Y-12354786D01*
X11489186Y-12526214D02*
X11460614Y-12511929D01*
X11446328Y-12497643D01*
X11432043Y-12469071D01*
X11432043Y-12383357D01*
X11446328Y-12354786D01*
X11460614Y-12340500D01*
X11489186Y-12326214D01*
X11532043Y-12326214D01*
X11560614Y-12340500D01*
X11574900Y-12354786D01*
X11589186Y-12383357D01*
X11589186Y-12469071D01*
X11574900Y-12497643D01*
X11560614Y-12511929D01*
X11532043Y-12526214D01*
X11489186Y-12526214D01*
X11760614Y-12526214D02*
X11732043Y-12511929D01*
X11717757Y-12483357D01*
X11717757Y-12226214D01*
X11989186Y-12511929D02*
X11960614Y-12526214D01*
X11903471Y-12526214D01*
X11874900Y-12511929D01*
X11860614Y-12483357D01*
X11860614Y-12369071D01*
X11874900Y-12340500D01*
X11903471Y-12326214D01*
X11960614Y-12326214D01*
X11989186Y-12340500D01*
X12003471Y-12369071D01*
X12003471Y-12397643D01*
X11860614Y-12426214D01*
X12117757Y-12511929D02*
X12146328Y-12526214D01*
X12203471Y-12526214D01*
X12232043Y-12511929D01*
X12246328Y-12483357D01*
X12246328Y-12469071D01*
X12232043Y-12440500D01*
X12203471Y-12426214D01*
X12160614Y-12426214D01*
X12132043Y-12411929D01*
X12117757Y-12383357D01*
X12117757Y-12369071D01*
X12132043Y-12340500D01*
X12160614Y-12326214D01*
X12203471Y-12326214D01*
X12232043Y-12340500D01*
X12346328Y-12640500D02*
X12360614Y-12626214D01*
X12389186Y-12583357D01*
X12403471Y-12554786D01*
X12417757Y-12511929D01*
X12432043Y-12440500D01*
X12432043Y-12383357D01*
X12417757Y-12311929D01*
X12403471Y-12269071D01*
X12389186Y-12240500D01*
X12360614Y-12197643D01*
X12346328Y-12183357D01*
X5779900Y-12706500D02*
X5779900Y-12866500D01*
X5699900Y-12786500D02*
X5859900Y-12786500D01*
X5859900Y-12786500D02*
G75*
G03X5859900Y-12786500I-80000J0D01*
G01*
X6303471Y-12922214D02*
X6132043Y-12922214D01*
X6217757Y-12922214D02*
X6217757Y-12622214D01*
X6189186Y-12665071D01*
X6160614Y-12693643D01*
X6132043Y-12707929D01*
X6432043Y-12893643D02*
X6446328Y-12907929D01*
X6432043Y-12922214D01*
X6417757Y-12907929D01*
X6432043Y-12893643D01*
X6432043Y-12922214D01*
X6703471Y-12622214D02*
X6646328Y-12622214D01*
X6617757Y-12636500D01*
X6603471Y-12650786D01*
X6574900Y-12693643D01*
X6560614Y-12750786D01*
X6560614Y-12865071D01*
X6574900Y-12893643D01*
X6589186Y-12907929D01*
X6617757Y-12922214D01*
X6674900Y-12922214D01*
X6703471Y-12907929D01*
X6717757Y-12893643D01*
X6732043Y-12865071D01*
X6732043Y-12793643D01*
X6717757Y-12765071D01*
X6703471Y-12750786D01*
X6674900Y-12736500D01*
X6617757Y-12736500D01*
X6589186Y-12750786D01*
X6574900Y-12765071D01*
X6560614Y-12793643D01*
X6917757Y-12622214D02*
X6946328Y-12622214D01*
X6974900Y-12636500D01*
X6989186Y-12650786D01*
X7003471Y-12679357D01*
X7017757Y-12736500D01*
X7017757Y-12807929D01*
X7003471Y-12865071D01*
X6989186Y-12893643D01*
X6974900Y-12907929D01*
X6946328Y-12922214D01*
X6917757Y-12922214D01*
X6889186Y-12907929D01*
X6874900Y-12893643D01*
X6860614Y-12865071D01*
X6846328Y-12807929D01*
X6846328Y-12736500D01*
X6860614Y-12679357D01*
X6874900Y-12650786D01*
X6889186Y-12636500D01*
X6917757Y-12622214D01*
X7146328Y-12922214D02*
X7146328Y-12722214D01*
X7146328Y-12750786D02*
X7160614Y-12736500D01*
X7189186Y-12722214D01*
X7232043Y-12722214D01*
X7260614Y-12736500D01*
X7274900Y-12765071D01*
X7274900Y-12922214D01*
X7274900Y-12765071D02*
X7289186Y-12736500D01*
X7317757Y-12722214D01*
X7360614Y-12722214D01*
X7389186Y-12736500D01*
X7403471Y-12765071D01*
X7403471Y-12922214D01*
X7546328Y-12922214D02*
X7546328Y-12722214D01*
X7546328Y-12750786D02*
X7560614Y-12736500D01*
X7589186Y-12722214D01*
X7632043Y-12722214D01*
X7660614Y-12736500D01*
X7674900Y-12765071D01*
X7674900Y-12922214D01*
X7674900Y-12765071D02*
X7689186Y-12736500D01*
X7717757Y-12722214D01*
X7760614Y-12722214D01*
X7789186Y-12736500D01*
X7803471Y-12765071D01*
X7803471Y-12922214D01*
X8389186Y-12607929D02*
X8132043Y-12993643D01*
X8774900Y-12622214D02*
X8803471Y-12622214D01*
X8832043Y-12636500D01*
X8846328Y-12650786D01*
X8860614Y-12679357D01*
X8874900Y-12736500D01*
X8874900Y-12807929D01*
X8860614Y-12865071D01*
X8846328Y-12893643D01*
X8832043Y-12907929D01*
X8803471Y-12922214D01*
X8774900Y-12922214D01*
X8746328Y-12907929D01*
X8732043Y-12893643D01*
X8717757Y-12865071D01*
X8703471Y-12807929D01*
X8703471Y-12736500D01*
X8717757Y-12679357D01*
X8732043Y-12650786D01*
X8746328Y-12636500D01*
X8774900Y-12622214D01*
X9003471Y-12893643D02*
X9017757Y-12907929D01*
X9003471Y-12922214D01*
X8989186Y-12907929D01*
X9003471Y-12893643D01*
X9003471Y-12922214D01*
X9203471Y-12622214D02*
X9232043Y-12622214D01*
X9260614Y-12636500D01*
X9274900Y-12650786D01*
X9289186Y-12679357D01*
X9303471Y-12736500D01*
X9303471Y-12807929D01*
X9289186Y-12865071D01*
X9274900Y-12893643D01*
X9260614Y-12907929D01*
X9232043Y-12922214D01*
X9203471Y-12922214D01*
X9174900Y-12907929D01*
X9160614Y-12893643D01*
X9146328Y-12865071D01*
X9132043Y-12807929D01*
X9132043Y-12736500D01*
X9146328Y-12679357D01*
X9160614Y-12650786D01*
X9174900Y-12636500D01*
X9203471Y-12622214D01*
X9560614Y-12622214D02*
X9503471Y-12622214D01*
X9474900Y-12636500D01*
X9460614Y-12650786D01*
X9432043Y-12693643D01*
X9417757Y-12750786D01*
X9417757Y-12865071D01*
X9432043Y-12893643D01*
X9446328Y-12907929D01*
X9474900Y-12922214D01*
X9532043Y-12922214D01*
X9560614Y-12907929D01*
X9574900Y-12893643D01*
X9589186Y-12865071D01*
X9589186Y-12793643D01*
X9574900Y-12765071D01*
X9560614Y-12750786D01*
X9532043Y-12736500D01*
X9474900Y-12736500D01*
X9446328Y-12750786D01*
X9432043Y-12765071D01*
X9417757Y-12793643D01*
X9689186Y-12622214D02*
X9874900Y-12622214D01*
X9774900Y-12736500D01*
X9817757Y-12736500D01*
X9846328Y-12750786D01*
X9860614Y-12765071D01*
X9874900Y-12793643D01*
X9874900Y-12865071D01*
X9860614Y-12893643D01*
X9846328Y-12907929D01*
X9817757Y-12922214D01*
X9732043Y-12922214D01*
X9703471Y-12907929D01*
X9689186Y-12893643D01*
X9989186Y-12622214D02*
X9989186Y-12679357D01*
X10103471Y-12622214D02*
X10103471Y-12679357D01*
X10546328Y-13036500D02*
X10532043Y-13022214D01*
X10503471Y-12979357D01*
X10489186Y-12950786D01*
X10474900Y-12907929D01*
X10460614Y-12836500D01*
X10460614Y-12779357D01*
X10474900Y-12707929D01*
X10489186Y-12665071D01*
X10503471Y-12636500D01*
X10532043Y-12593643D01*
X10546328Y-12579357D01*
X10646328Y-12650786D02*
X10660614Y-12636500D01*
X10689186Y-12622214D01*
X10760614Y-12622214D01*
X10789186Y-12636500D01*
X10803471Y-12650786D01*
X10817757Y-12679357D01*
X10817757Y-12707929D01*
X10803471Y-12750786D01*
X10632043Y-12922214D01*
X10817757Y-12922214D01*
X11174900Y-12922214D02*
X11174900Y-12622214D01*
X11303471Y-12922214D02*
X11303471Y-12765071D01*
X11289186Y-12736500D01*
X11260614Y-12722214D01*
X11217757Y-12722214D01*
X11189186Y-12736500D01*
X11174900Y-12750786D01*
X11489186Y-12922214D02*
X11460614Y-12907929D01*
X11446328Y-12893643D01*
X11432043Y-12865071D01*
X11432043Y-12779357D01*
X11446328Y-12750786D01*
X11460614Y-12736500D01*
X11489186Y-12722214D01*
X11532043Y-12722214D01*
X11560614Y-12736500D01*
X11574900Y-12750786D01*
X11589186Y-12779357D01*
X11589186Y-12865071D01*
X11574900Y-12893643D01*
X11560614Y-12907929D01*
X11532043Y-12922214D01*
X11489186Y-12922214D01*
X11760614Y-12922214D02*
X11732043Y-12907929D01*
X11717757Y-12879357D01*
X11717757Y-12622214D01*
X11989186Y-12907929D02*
X11960614Y-12922214D01*
X11903471Y-12922214D01*
X11874900Y-12907929D01*
X11860614Y-12879357D01*
X11860614Y-12765071D01*
X11874900Y-12736500D01*
X11903471Y-12722214D01*
X11960614Y-12722214D01*
X11989186Y-12736500D01*
X12003471Y-12765071D01*
X12003471Y-12793643D01*
X11860614Y-12822214D01*
X12117757Y-12907929D02*
X12146328Y-12922214D01*
X12203471Y-12922214D01*
X12232043Y-12907929D01*
X12246328Y-12879357D01*
X12246328Y-12865071D01*
X12232043Y-12836500D01*
X12203471Y-12822214D01*
X12160614Y-12822214D01*
X12132043Y-12807929D01*
X12117757Y-12779357D01*
X12117757Y-12765071D01*
X12132043Y-12736500D01*
X12160614Y-12722214D01*
X12203471Y-12722214D01*
X12232043Y-12736500D01*
X12346328Y-13036500D02*
X12360614Y-13022214D01*
X12389186Y-12979357D01*
X12403471Y-12950786D01*
X12417757Y-12907929D01*
X12432043Y-12836500D01*
X12432043Y-12779357D01*
X12417757Y-12707929D01*
X12403471Y-12665071D01*
X12389186Y-12636500D01*
X12360614Y-12593643D01*
X12346328Y-12579357D01*
X5813038Y-13295638D02*
X5813038Y-13069362D01*
X5586762Y-13069362D01*
X5586762Y-13295638D01*
X5813038Y-13295638D01*
X5859900Y-13182500D02*
G75*
G03X5859900Y-13182500I-160000J0D01*
G01*
X6117757Y-13018214D02*
X6303471Y-13018214D01*
X6203471Y-13132500D01*
X6246328Y-13132500D01*
X6274900Y-13146786D01*
X6289186Y-13161071D01*
X6303471Y-13189643D01*
X6303471Y-13261071D01*
X6289186Y-13289643D01*
X6274900Y-13303929D01*
X6246328Y-13318214D01*
X6160614Y-13318214D01*
X6132043Y-13303929D01*
X6117757Y-13289643D01*
X6432043Y-13289643D02*
X6446328Y-13303929D01*
X6432043Y-13318214D01*
X6417757Y-13303929D01*
X6432043Y-13289643D01*
X6432043Y-13318214D01*
X6560614Y-13046786D02*
X6574900Y-13032500D01*
X6603471Y-13018214D01*
X6674900Y-13018214D01*
X6703471Y-13032500D01*
X6717757Y-13046786D01*
X6732043Y-13075357D01*
X6732043Y-13103929D01*
X6717757Y-13146786D01*
X6546328Y-13318214D01*
X6732043Y-13318214D01*
X6917757Y-13018214D02*
X6946328Y-13018214D01*
X6974900Y-13032500D01*
X6989186Y-13046786D01*
X7003471Y-13075357D01*
X7017757Y-13132500D01*
X7017757Y-13203929D01*
X7003471Y-13261071D01*
X6989186Y-13289643D01*
X6974900Y-13303929D01*
X6946328Y-13318214D01*
X6917757Y-13318214D01*
X6889186Y-13303929D01*
X6874900Y-13289643D01*
X6860614Y-13261071D01*
X6846328Y-13203929D01*
X6846328Y-13132500D01*
X6860614Y-13075357D01*
X6874900Y-13046786D01*
X6889186Y-13032500D01*
X6917757Y-13018214D01*
X7146328Y-13318214D02*
X7146328Y-13118214D01*
X7146328Y-13146786D02*
X7160614Y-13132500D01*
X7189186Y-13118214D01*
X7232043Y-13118214D01*
X7260614Y-13132500D01*
X7274900Y-13161071D01*
X7274900Y-13318214D01*
X7274900Y-13161071D02*
X7289186Y-13132500D01*
X7317757Y-13118214D01*
X7360614Y-13118214D01*
X7389186Y-13132500D01*
X7403471Y-13161071D01*
X7403471Y-13318214D01*
X7546328Y-13318214D02*
X7546328Y-13118214D01*
X7546328Y-13146786D02*
X7560614Y-13132500D01*
X7589186Y-13118214D01*
X7632043Y-13118214D01*
X7660614Y-13132500D01*
X7674900Y-13161071D01*
X7674900Y-13318214D01*
X7674900Y-13161071D02*
X7689186Y-13132500D01*
X7717757Y-13118214D01*
X7760614Y-13118214D01*
X7789186Y-13132500D01*
X7803471Y-13161071D01*
X7803471Y-13318214D01*
X8389186Y-13003929D02*
X8132043Y-13389643D01*
X8774900Y-13018214D02*
X8803471Y-13018214D01*
X8832043Y-13032500D01*
X8846328Y-13046786D01*
X8860614Y-13075357D01*
X8874900Y-13132500D01*
X8874900Y-13203929D01*
X8860614Y-13261071D01*
X8846328Y-13289643D01*
X8832043Y-13303929D01*
X8803471Y-13318214D01*
X8774900Y-13318214D01*
X8746328Y-13303929D01*
X8732043Y-13289643D01*
X8717757Y-13261071D01*
X8703471Y-13203929D01*
X8703471Y-13132500D01*
X8717757Y-13075357D01*
X8732043Y-13046786D01*
X8746328Y-13032500D01*
X8774900Y-13018214D01*
X9003471Y-13289643D02*
X9017757Y-13303929D01*
X9003471Y-13318214D01*
X8989186Y-13303929D01*
X9003471Y-13289643D01*
X9003471Y-13318214D01*
X9303471Y-13318214D02*
X9132043Y-13318214D01*
X9217757Y-13318214D02*
X9217757Y-13018214D01*
X9189186Y-13061071D01*
X9160614Y-13089643D01*
X9132043Y-13103929D01*
X9417757Y-13046786D02*
X9432043Y-13032500D01*
X9460614Y-13018214D01*
X9532043Y-13018214D01*
X9560614Y-13032500D01*
X9574900Y-13046786D01*
X9589186Y-13075357D01*
X9589186Y-13103929D01*
X9574900Y-13146786D01*
X9403471Y-13318214D01*
X9589186Y-13318214D01*
X9846328Y-13018214D02*
X9789186Y-13018214D01*
X9760614Y-13032500D01*
X9746328Y-13046786D01*
X9717757Y-13089643D01*
X9703471Y-13146786D01*
X9703471Y-13261071D01*
X9717757Y-13289643D01*
X9732043Y-13303929D01*
X9760614Y-13318214D01*
X9817757Y-13318214D01*
X9846328Y-13303929D01*
X9860614Y-13289643D01*
X9874900Y-13261071D01*
X9874900Y-13189643D01*
X9860614Y-13161071D01*
X9846328Y-13146786D01*
X9817757Y-13132500D01*
X9760614Y-13132500D01*
X9732043Y-13146786D01*
X9717757Y-13161071D01*
X9703471Y-13189643D01*
X9989186Y-13018214D02*
X9989186Y-13075357D01*
X10103471Y-13018214D02*
X10103471Y-13075357D01*
X10546328Y-13432500D02*
X10532043Y-13418214D01*
X10503471Y-13375357D01*
X10489186Y-13346786D01*
X10474900Y-13303929D01*
X10460614Y-13232500D01*
X10460614Y-13175357D01*
X10474900Y-13103929D01*
X10489186Y-13061071D01*
X10503471Y-13032500D01*
X10532043Y-12989643D01*
X10546328Y-12975357D01*
X10789186Y-13118214D02*
X10789186Y-13318214D01*
X10717757Y-13003929D02*
X10646328Y-13218214D01*
X10832043Y-13218214D01*
X11174900Y-13318214D02*
X11174900Y-13018214D01*
X11303471Y-13318214D02*
X11303471Y-13161071D01*
X11289186Y-13132500D01*
X11260614Y-13118214D01*
X11217757Y-13118214D01*
X11189186Y-13132500D01*
X11174900Y-13146786D01*
X11489186Y-13318214D02*
X11460614Y-13303929D01*
X11446328Y-13289643D01*
X11432043Y-13261071D01*
X11432043Y-13175357D01*
X11446328Y-13146786D01*
X11460614Y-13132500D01*
X11489186Y-13118214D01*
X11532043Y-13118214D01*
X11560614Y-13132500D01*
X11574900Y-13146786D01*
X11589186Y-13175357D01*
X11589186Y-13261071D01*
X11574900Y-13289643D01*
X11560614Y-13303929D01*
X11532043Y-13318214D01*
X11489186Y-13318214D01*
X11760614Y-13318214D02*
X11732043Y-13303929D01*
X11717757Y-13275357D01*
X11717757Y-13018214D01*
X11989186Y-13303929D02*
X11960614Y-13318214D01*
X11903471Y-13318214D01*
X11874900Y-13303929D01*
X11860614Y-13275357D01*
X11860614Y-13161071D01*
X11874900Y-13132500D01*
X11903471Y-13118214D01*
X11960614Y-13118214D01*
X11989186Y-13132500D01*
X12003471Y-13161071D01*
X12003471Y-13189643D01*
X11860614Y-13218214D01*
X12117757Y-13303929D02*
X12146328Y-13318214D01*
X12203471Y-13318214D01*
X12232043Y-13303929D01*
X12246328Y-13275357D01*
X12246328Y-13261071D01*
X12232043Y-13232500D01*
X12203471Y-13218214D01*
X12160614Y-13218214D01*
X12132043Y-13203929D01*
X12117757Y-13175357D01*
X12117757Y-13161071D01*
X12132043Y-13132500D01*
X12160614Y-13118214D01*
X12203471Y-13118214D01*
X12232043Y-13132500D01*
X12346328Y-13432500D02*
X12360614Y-13418214D01*
X12389186Y-13375357D01*
X12403471Y-13346786D01*
X12417757Y-13303929D01*
X12432043Y-13232500D01*
X12432043Y-13175357D01*
X12417757Y-13103929D01*
X12403471Y-13061071D01*
X12389186Y-13032500D01*
X12360614Y-12989643D01*
X12346328Y-12975357D01*
M02*
