M48
; DRILL file {KiCad 5.1.6-c6e7f7d~87~ubuntu20.04.1} date Thu Sep  3 14:23:24 2020
; FORMAT={-:-/ absolute / inch / decimal}
; #@! TF.CreationDate,2020-09-03T14:23:24-03:00
; #@! TF.GenerationSoftware,Kicad,Pcbnew,5.1.6-c6e7f7d~87~ubuntu20.04.1
; #@! TF.FileFunction,Plated,1,4,PTH
FMAT,2
INCH
T1C0.0157
T2C0.0197
T3C0.0236
T4C0.0350
T5C0.0354
T6C0.0362
T7C0.0390
T8C0.0394
T9C0.0472
T10C0.0512
T11C0.0531
T12C0.0630
T13C0.1260
%
G90
G05
T1
X2.5843Y-2.3784
X2.6277Y-2.421
X2.6283Y-2.3814
X2.6793Y-2.2994
X2.6798Y-2.5089
X2.6802Y-2.4085
X2.7333Y-2.5644
X2.771Y-2.564
X2.832Y-2.563
X2.913Y-2.086
X3.029Y-2.348
X3.0455Y-2.0865
X3.218Y-2.611
X3.237Y-2.258
X3.298Y-2.611
X3.301Y-2.258
X3.371Y-2.611
X3.373Y-2.258
X3.4179Y-1.8377
X3.478Y-2.258
X3.478Y-2.611
X3.4793Y-1.8823
X3.498Y-1.9555
X3.558Y-2.042
X3.578Y-2.26
X3.58Y-2.334
X3.58Y-2.548
X3.58Y-2.611
X3.605Y-2.041
X3.658Y-1.935
X4.2306Y-2.9301
X4.2575Y-1.825
X4.2575Y-1.97
X4.2775Y-1.6425
X4.2775Y-1.73
X4.3996Y-2.0875
X4.4004Y-2.1778
X4.5366Y-1.5102
X4.617Y-1.4731
X4.6182Y-1.8326
X4.6221Y-1.5461
X4.6476Y-1.7395
X4.6955Y-2.1448
X4.7214Y-2.8775
X4.7391Y-1.658
X4.7492Y-2.0282
X4.768Y-2.103
X4.7989Y-1.4203
X4.8164Y-2.3631
X4.828Y-1.5588
X4.8603Y-2.1927
X4.8727Y-2.2516
X4.8737Y-1.5573
X4.8825Y-1.9622
X4.8847Y-1.4206
X4.8859Y-2.067
X4.8861Y-1.8043
X4.8865Y-1.847
X4.9111Y-2.1246
X4.9142Y-1.4885
X4.9318Y-1.9582
X4.9503Y-1.894
X4.9699Y-2.1258
X5.0015Y-1.6673
X5.0027Y-1.7446
X5.0463Y-2.4607
X5.0588Y-1.7883
X5.0619Y-1.7128
X5.0644Y-1.6503
X5.0697Y-2.2349
X5.1235Y-2.7401
X5.177Y-2.1282
X5.1966Y-2.7388
X5.2184Y-2.0713
X5.2535Y-2.3599
X5.2869Y-2.0535
X5.3042Y-2.2412
X5.3289Y-2.007
X5.3368Y-1.4919
X5.3502Y-2.8621
X5.3565Y-2.3588
X5.3579Y-1.9773
X5.366Y-1.7392
X5.3661Y-2.6876
X5.3665Y-2.628
X5.3788Y-1.935
X5.3804Y-2.1284
X5.3849Y-2.2428
X5.4144Y-1.5598
X5.4278Y-2.9077
X5.4695Y-2.202
X5.478Y-2.914
X5.508Y-3.107
X5.5116Y-1.594
X5.5134Y-1.6435
X5.524Y-2.824
X5.5296Y-2.3704
X5.546Y-2.166
X5.5692Y-2.3956
X5.5794Y-3.0278
X5.5844Y-2.8199
X5.61Y-2.79
X5.619Y-2.8484
X5.62Y-2.668
X5.652Y-1.674
X5.653Y-1.617
X5.6992Y-1.7202
X5.6995Y-2.985
X5.718Y-2.76
X5.723Y-2.533
X5.758Y-2.84
X5.7805Y-1.378
X5.782Y-1.45
X5.783Y-1.5205
X5.7835Y-1.592
X5.786Y-1.177
X5.894Y-2.589
X5.896Y-2.473
X5.9474Y-2.3716
X5.968Y-2.762
X6.036Y-2.775
X6.165Y-1.8749
X6.1741Y-2.4371
X6.1985Y-1.2485
X6.2026Y-2.3915
X6.2845Y-1.2485
X6.339Y-2.3492
X6.394Y-2.3476
X6.442Y-2.35
X6.4645Y-1.556
X6.51Y-2.3476
X6.5723Y-1.5555
X6.592Y-2.3476
X6.6296Y-1.7604
X6.7787Y-1.5663
X6.815Y-1.6065
X6.8685Y-1.9044
X6.883Y-1.6065
X6.886Y-1.686
X6.9001Y-1.4501
X6.9225Y-1.9044
X6.9322Y-3.1326
X6.9322Y-3.1702
X6.933Y-2.784
X6.933Y-1.793
X6.9455Y-1.6067
X6.9615Y-1.6819
X6.962Y-2.9557
X6.9685Y-1.8865
X6.9704Y-3.1702
X6.9789Y-1.8371
X6.9796Y-1.7868
X6.9822Y-1.5172
X7.042Y-2.434
X7.1015Y-1.8915
X7.2242Y-1.5544
X7.2998Y-1.524
X7.5141Y-1.5931
X7.5559Y-1.5931
X7.5894Y-1.6266
X7.5894Y-1.6797
X7.5894Y-1.7329
T2
X2.3855Y-3.08
X2.4132Y-3.0132
X2.4132Y-3.1468
X2.48Y-2.9855
X2.48Y-3.1745
X2.5468Y-3.0132
X2.5468Y-3.1468
X2.5745Y-3.08
X2.3855Y-1.27
X2.4132Y-1.2032
X2.4132Y-1.3368
X2.48Y-1.1755
X2.48Y-1.3645
X2.5468Y-1.2032
X2.5468Y-1.3368
X2.5745Y-1.27
X7.3855Y-3.08
X7.4132Y-3.0132
X7.4132Y-3.1468
X7.48Y-2.9855
X7.48Y-3.1745
X7.5468Y-3.0132
X7.5468Y-3.1468
X7.5745Y-3.08
X7.3855Y-1.27
X7.4132Y-1.2032
X7.4132Y-1.3368
X7.48Y-1.1755
X7.48Y-1.3645
X7.5468Y-1.2032
X7.5468Y-1.3368
X7.5745Y-1.27
T4
X6.2688Y-3.0046
X6.3688Y-2.9448
X6.6668Y-3.0046
X6.7668Y-2.9448
T5
X6.3428Y-2.5621
X6.3928Y-2.4621
X6.4428Y-2.5621
X6.4928Y-2.4621
X6.5428Y-2.5621
X6.5928Y-2.4621
X6.6428Y-2.5621
X6.6928Y-2.4621
T6
X7.165Y-2.5623
X7.165Y-2.641
X7.165Y-2.7197
X7.165Y-2.7985
T7
X5.8148Y-3.155
X5.992Y-3.155
X3.8103Y-3.155
X3.9875Y-3.155
T8
X6.4355Y-1.755
X6.4355Y-1.855
X6.5355Y-1.755
X6.5355Y-1.855
X3.2Y-3.0
X3.2Y-3.1
X3.3Y-3.0
X3.3Y-3.1
X3.4Y-3.0
X3.4Y-3.1
X3.5Y-3.0
X3.5Y-3.1
X3.6Y-3.0
X3.6Y-3.1
X4.3Y-3.0
X4.3Y-3.1
X4.4Y-3.0
X4.4Y-3.1
X4.5Y-3.0
X4.5Y-3.1
X4.6Y-3.0
X4.6Y-3.1
X4.7Y-3.0
X4.7Y-3.1
X4.8Y-3.0
X4.8Y-3.1
X4.9Y-3.0
X4.9Y-3.1
X5.0Y-3.0
X5.0Y-3.1
X5.1Y-3.0
X5.1Y-3.1
X5.2Y-3.0
X5.2Y-3.1
X5.3Y-3.0
X5.3Y-3.1
X5.4Y-3.0
X5.4Y-3.1
X7.4Y-1.7
X7.4Y-1.8
X7.4Y-1.9
X7.4Y-2.0
X7.4Y-2.1
X7.4Y-2.2
X7.4Y-2.3
X7.4Y-2.4
X7.4Y-2.5
X7.4Y-2.6
X7.4Y-2.7
X7.4Y-2.8
X7.5Y-1.7
X7.5Y-1.8
X7.5Y-1.9
X7.5Y-2.0
X7.5Y-2.1
X7.5Y-2.2
X7.5Y-2.3
X7.5Y-2.4
X7.5Y-2.5
X7.5Y-2.6
X7.5Y-2.7
X7.5Y-2.8
X4.3Y-1.2
X4.3Y-1.3
X4.4Y-1.2
X4.4Y-1.3
X4.5Y-1.2
X4.5Y-1.3
X4.6Y-1.2
X4.6Y-1.3
X4.7Y-1.2
X4.7Y-1.3
X4.8Y-1.2
X4.8Y-1.3
X4.9Y-1.2
X4.9Y-1.3
X5.0Y-1.2
X5.0Y-1.3
X5.1Y-1.2
X5.1Y-1.3
X5.2Y-1.2
X5.2Y-1.3
X5.3Y-1.2
X5.3Y-1.3
X5.4Y-1.2
X5.4Y-1.3
X3.2Y-2.7
X3.2Y-2.8
X3.3Y-2.7
X3.3Y-2.8
X3.4Y-2.7
X3.4Y-2.8
X3.5Y-2.7
X3.5Y-2.8
X3.6Y-2.7
X3.6Y-2.8
X6.269Y-1.7545
X6.269Y-1.8545
X4.1437Y-1.9794
X4.5975Y-1.6636
X4.0531Y-1.5325
X4.1531Y-1.5325
T9
X2.7796Y-2.9367
X2.9796Y-2.9367
X2.7837Y-1.4181
X2.9837Y-1.4181
X3.1837Y-1.4181
X3.3837Y-1.4181
X3.5837Y-1.4181
X3.7837Y-1.4181
T10
X5.7652Y-3.057
X6.0412Y-3.057
X3.7607Y-3.057
X4.0367Y-3.057
T11
X7.0579Y-2.5516
X7.0579Y-2.8272
X7.2721Y-2.5516
X7.2721Y-2.8272
T12
X6.2117Y-2.6916
X6.8239Y-2.6916
T13
X7.48Y-3.08
X7.48Y-1.27
X2.48Y-3.08
X2.48Y-1.27
T3
G00X6.9579Y-1.1661
M15
G01X6.9579Y-1.1976
M16
G05
G00X6.9579Y-1.3243
M15
G01X6.9579Y-1.3676
M16
G05
G00X7.2981Y-1.1661
M15
G01X7.2981Y-1.1976
M16
G05
G00X7.2981Y-1.3243
M15
G01X7.2981Y-1.3676
M16
G05
G00X6.5074Y-1.1676
M15
G01X6.5074Y-1.1991
M16
G05
G00X6.5074Y-1.3258
M15
G01X6.5074Y-1.3691
M16
G05
G00X6.8476Y-1.1676
M15
G01X6.8476Y-1.1991
M16
G05
G00X6.8476Y-1.3258
M15
G01X6.8476Y-1.3691
M16
G05
T0
M30
