M48
;DRILL file {KiCad (5.0.2)-1} date 26/05/2019 18:45:40
;FORMAT={-:-/ absolute / inch / decimal}
FMAT,2
INCH,TZ
T1C0.0157
T2C0.0197
T3C0.0217
T4C0.0350
T5C0.0354
T6C0.0390
T7C0.0394
T8C0.0472
T9C0.0512
T10C0.0630
T11C0.1260
T12C0.1280
%
G90
G05
T1
X2.3366Y-2.87
X2.34Y-2.045
X2.34Y-2.165
X2.34Y-2.29
X2.34Y-2.415
X2.34Y-2.54
X2.34Y-2.64
X2.34Y-2.75
X2.4Y-2.87
X2.45Y-2.66
X2.49Y-2.87
X2.4999Y-2.7199
X2.4999Y-2.7999
X2.5011Y-2.0439
X2.575Y-2.519
X2.6139Y-2.0439
X2.6184Y-2.5616
X2.619Y-2.522
X2.629Y-1.967
X2.67Y-2.44
X2.6705Y-2.6495
X2.6709Y-2.5491
X2.72Y-2.195
X2.7211Y-2.0439
X2.724Y-2.705
X2.744Y-2.426
X2.7465Y-2.547
X2.7465Y-2.653
X2.7764Y-2.2801
X2.8Y-2.603
X2.8005Y-2.491
X2.8311Y-2.0439
X2.8514Y-2.281
X2.9141Y-2.5137
X2.93Y-2.44
X2.935Y-2.045
X3.1733Y-2.0971
X3.175Y-2.025
X3.2253Y-2.281
X3.265Y-2.0978
X3.2821Y-2.281
X3.3417Y-2.2822
X3.355Y-2.025
X3.3582Y-2.0975
X3.3915Y-2.1308
X3.4267Y-2.2689
X3.4267Y-2.3031
X3.4271Y-2.1664
X3.4279Y-2.409
X3.4948Y-2.2112
X3.54Y-2.405
X3.6278Y-1.9459
X3.6792Y-2.0627
X3.8311Y-2.4076
X3.8348Y-2.1079
X3.8658Y-1.6602
X3.987Y-1.761
X4.0435Y-2.2711
X4.0529Y-2.1076
X4.0693Y-1.6803
X4.1274Y-1.6229
X4.1754Y-1.8144
X4.1848Y-2.4076
X4.2065Y-2.0645
X4.2067Y-1.9047
X4.2103Y-2.2076
X4.2187Y-1.75
X4.295Y-1.775
X4.2969Y-2.2072
X4.2979Y-1.4393
X4.3206Y-1.6894
X4.338Y-2.4025
X4.3486Y-1.9205
X4.3996Y-2.0875
X4.4004Y-2.1778
X4.535Y-1.55
X4.5857Y-2.1175
X4.6182Y-1.8326
X4.6918Y-1.7359
X4.6931Y-1.4629
X4.6937Y-1.5367
X4.6955Y-2.1448
X4.7013Y-1.6435
X4.7492Y-2.0282
X4.765Y-2.6053
X4.784Y-1.5364
X4.7847Y-1.4626
X4.8183Y-2.3666
X4.8233Y-1.4626
X4.8247Y-1.5364
X4.8448Y-2.5288
X4.8603Y-2.1927
X4.8727Y-2.2516
X4.8833Y-1.7948
X4.8868Y-1.8379
X4.889Y-2.0075
X4.8905Y-1.9313
X4.9111Y-2.1246
X4.9503Y-1.894
X4.9736Y-2.8958
X4.9875Y-1.8139
X5.0138Y-2.1241
X5.0146Y-1.8758
X5.0329Y-1.7557
X5.0447Y-2.4607
X5.0911Y-2.1127
X5.0962Y-1.7373
X5.1235Y-2.7401
X5.1505Y-1.7088
X5.1535Y-1.6327
X5.1628Y-2.0443
X5.1696Y-2.1146
X5.1966Y-2.7388
X5.2103Y-1.9995
X5.2133Y-1.9329
X5.2159Y-1.634
X5.2919Y-2.8207
X5.2951Y-1.9008
X5.3166Y-2.3653
X5.3354Y-1.5043
X5.3379Y-2.7001
X5.3382Y-2.1221
X5.3386Y-2.7739
X5.3556Y-1.9329
X5.3789Y-2.8155
X5.3945Y-1.6759
X5.4012Y-2.3297
X5.409Y-1.505
X5.4264Y-2.6996
X5.4306Y-2.8931
X5.4318Y-2.2219
X5.44Y-2.465
X5.4588Y-2.6042
X5.461Y-2.526
X5.4793Y-2.8495
X5.4962Y-2.9147
X5.4972Y-1.6321
X5.503Y-2.456
X5.5527Y-1.7966
X5.5529Y-2.4363
X5.5584Y-2.7291
X5.5625Y-2.905
X5.5682Y-2.8633
X5.5751Y-1.5597
X5.6618Y-1.5591
X5.7404Y-1.4647
X5.7512Y-2.7588
X5.8574Y-2.7959
X5.8574Y-2.8748
X5.8883Y-2.4882
X5.9349Y-2.5659
X5.935Y-2.4168
X6.0227Y-3.0668
X6.0258Y-2.7643
X6.0258Y-2.8057
X6.0414Y-1.2234
X6.0484Y-1.6255
X6.0521Y-2.4598
X6.1029Y-2.5764
X6.1221Y-1.6257
X6.1278Y-1.2234
X6.1321Y-2.6056
X6.3108Y-1.6572
X6.3156Y-1.4851
X6.3369Y-1.5567
X6.4762Y-1.6574
X6.5366Y-1.6687
X6.5367Y-1.7482
X6.541Y-1.591
X6.6Y-2.3923
X6.6437Y-2.3942
X6.6873Y-1.192
X6.6873Y-1.2464
X6.6891Y-1.135
X6.7356Y-1.135
X6.7391Y-1.1929
X6.7391Y-1.2455
X6.7908Y-1.192
X6.7917Y-1.1341
X6.7917Y-1.2455
X6.8039Y-1.88
X6.8538Y-1.7776
X6.88Y-1.876
X6.8849Y-2.5272
X6.9261Y-1.8163
X6.9581Y-2.6157
X6.9581Y-2.6574
X6.9581Y-2.6958
X6.9581Y-2.7302
X7.052Y-1.585
X7.113Y-1.7791
X7.1146Y-1.8565
X7.159Y-2.5288
X7.195Y-1.265
X7.2Y-1.155
X7.2Y-1.225
X7.235Y-1.19
X7.27Y-1.155
X7.27Y-1.225
X7.295Y-1.19
X7.325Y-1.155
X7.325Y-1.225
X7.5799Y-2.2465
T2
X7.3855Y-3.08
X7.4132Y-3.0132
X7.4132Y-3.1468
X7.48Y-2.9855
X7.48Y-3.1745
X7.5468Y-3.0132
X7.5468Y-3.1468
X7.5745Y-3.08
X2.3855Y-1.27
X2.4132Y-1.2032
X2.4132Y-1.3368
X2.48Y-1.1755
X2.48Y-1.3645
X2.5468Y-1.2032
X2.5468Y-1.3368
X2.5745Y-1.27
X2.3855Y-3.08
X2.4132Y-3.0132
X2.4132Y-3.1468
X2.48Y-2.9855
X2.48Y-3.1745
X2.5468Y-3.0132
X2.5468Y-3.1468
X2.5745Y-3.08
X7.3855Y-1.27
X7.4132Y-1.2032
X7.4132Y-1.3368
X7.48Y-1.1755
X7.48Y-1.3645
X7.5468Y-1.2032
X7.5468Y-1.3368
X7.5745Y-1.27
T4
X6.269Y-3.087
X6.369Y-3.0272
X6.667Y-3.087
X6.767Y-3.0272
T5
X6.343Y-2.6445
X6.393Y-2.5445
X6.443Y-2.6445
X6.493Y-2.5445
X6.543Y-2.6445
X6.593Y-2.5445
X6.643Y-2.6445
X6.693Y-2.5445
T6
X4.2654Y-1.2192
X4.4426Y-1.2192
X5.8689Y-3.1554
X6.0461Y-3.1554
T7
X4.6Y-3.
X4.6Y-3.1
X4.7Y-3.
X4.7Y-3.1
X4.8Y-3.
X4.8Y-3.1
X4.9Y-3.
X4.9Y-3.1
X5.Y-3.
X5.Y-3.1
X5.1Y-3.
X5.1Y-3.1
X5.2Y-3.
X5.2Y-3.1
X5.3Y-3.
X5.3Y-3.1
X5.4Y-3.
X5.4Y-3.1
X5.5Y-3.
X5.5Y-3.1
X5.6Y-3.
X5.6Y-3.1
X5.7Y-3.
X5.7Y-3.1
X3.5Y-3.
X3.5Y-3.1
X3.6Y-3.
X3.6Y-3.1
X3.7Y-3.
X3.7Y-3.1
X3.8Y-3.
X3.8Y-3.1
X3.9Y-3.
X3.9Y-3.1
X4.Y-3.
X4.Y-3.1
X4.1Y-3.
X4.1Y-3.1
X4.2Y-3.
X4.2Y-3.1
X4.3Y-3.
X4.3Y-3.1
X4.4Y-3.
X4.4Y-3.1
X4.0135Y-1.522
X4.1135Y-1.522
X6.8804Y-1.4447
X6.8804Y-1.5447
X6.9804Y-1.4447
X6.9804Y-1.5447
X7.3Y-1.6
X7.3Y-1.7
X7.3Y-1.8
X7.3Y-1.9
X7.3Y-2.
X7.3Y-2.1
X7.3Y-2.2
X7.3Y-2.3
X7.3Y-2.4
X7.3Y-2.5
X7.3Y-2.6
X7.3Y-2.7
X7.4Y-1.6
X7.4Y-1.7
X7.4Y-1.8
X7.4Y-1.9
X7.4Y-2.
X7.4Y-2.1
X7.4Y-2.2
X7.4Y-2.3
X7.4Y-2.4
X7.4Y-2.5
X7.4Y-2.6
X7.4Y-2.7
X4.6Y-1.2
X4.6Y-1.3
X4.7Y-1.2
X4.7Y-1.3
X4.8Y-1.2
X4.8Y-1.3
X4.9Y-1.2
X4.9Y-1.3
X5.Y-1.2
X5.Y-1.3
X5.1Y-1.2
X5.1Y-1.3
X5.2Y-1.2
X5.2Y-1.3
X5.3Y-1.2
X5.3Y-1.3
X5.4Y-1.2
X5.4Y-1.3
X5.5Y-1.2
X5.5Y-1.3
X5.6Y-1.2
X5.6Y-1.3
X5.7Y-1.2
X5.7Y-1.3
X3.5Y-2.8
X3.5Y-2.9
X3.6Y-2.8
X3.6Y-2.9
X3.7Y-2.8
X3.7Y-2.9
X3.8Y-2.8
X3.8Y-2.9
X3.9Y-2.8
X3.9Y-2.9
X4.Y-2.8
X4.Y-2.9
X4.1Y-2.8
X4.1Y-2.9
X4.2Y-2.8
X4.2Y-2.9
X4.3Y-2.8
X4.3Y-2.9
X4.4Y-2.8
X4.4Y-2.9
X4.4769Y-2.3255
X4.6183Y-1.6624
T8
X2.9796Y-2.9367
X3.1796Y-2.9367
X2.7837Y-1.4181
X2.9837Y-1.4181
X3.1837Y-1.4181
X3.3837Y-1.4181
X3.5837Y-1.4181
X3.7837Y-1.4181
T9
X4.2162Y-1.3172
X4.4922Y-1.3172
X5.8193Y-3.0574
X6.0953Y-3.0574
T10
X6.2119Y-2.774
X6.8241Y-2.774
T11
X7.48Y-3.08
X2.48Y-1.27
X2.48Y-3.08
X7.48Y-1.27
T12
X6.293Y-2.8941
X6.743Y-2.8941
T2
X6.8702Y-1.1975G85X6.8702Y-1.1719
G05
X7.1458Y-1.1975G85X7.1458Y-1.1719
G05
X7.0272Y-3.1535G85X7.0272Y-3.1791
G05
X7.3028Y-3.1535G85X7.3028Y-3.1791
G05
X6.3522Y-1.1965G85X6.3522Y-1.1709
G05
X6.6278Y-1.1965G85X6.6278Y-1.1709
G05
T3
X7.0607Y-3.06G85X7.0725Y-3.06
G05
X7.2575Y-3.06G85X7.2693Y-3.06
G05
X6.3975Y-1.29G85X6.3857Y-1.29
G05
X6.5943Y-1.29G85X6.5825Y-1.29
G05
X6.9155Y-1.291G85X6.9037Y-1.291
G05
X7.1123Y-1.291G85X7.1005Y-1.291
G05
T0
M30
