%TF.GenerationSoftware,KiCad,Pcbnew,5.1.4-e60b266~84~ubuntu18.04.1*%
%TF.CreationDate,2019-08-25T19:58:04-03:00*%
%TF.ProjectId,dragonmanh7,64726167-6f6e-46d6-916e-68372e6b6963,rev?*%
%TF.SameCoordinates,Original*%
%TF.FileFunction,Legend,Top*%
%TF.FilePolarity,Positive*%
%FSLAX46Y46*%
G04 Gerber Fmt 4.6, Leading zero omitted, Abs format (unit mm)*
G04 Created by KiCad (PCBNEW 5.1.4-e60b266~84~ubuntu18.04.1) date 2019-08-25 19:58:04*
%MOMM*%
%LPD*%
G04 APERTURE LIST*
%ADD10C,0.500000*%
%ADD11C,0.150000*%
%ADD12C,0.100000*%
%ADD13C,0.120000*%
%ADD14C,0.010000*%
%ADD15C,0.152400*%
G04 APERTURE END LIST*
D10*
X73640176Y-52832000D02*
G75*
G03X73640176Y-52832000I-234176J0D01*
G01*
X87864176Y-54102000D02*
G75*
G03X87864176Y-54102000I-234176J0D01*
G01*
D11*
X176784000Y-51485800D02*
X178790600Y-53492400D01*
X176784000Y-49377600D02*
X176784000Y-51485800D01*
X179440057Y-54119971D02*
X179582914Y-54167590D01*
X179630533Y-54215209D01*
X179678152Y-54310447D01*
X179678152Y-54453304D01*
X179630533Y-54548542D01*
X179582914Y-54596161D01*
X179487676Y-54643780D01*
X179106723Y-54643780D01*
X179106723Y-53643780D01*
X179440057Y-53643780D01*
X179535295Y-53691400D01*
X179582914Y-53739019D01*
X179630533Y-53834257D01*
X179630533Y-53929495D01*
X179582914Y-54024733D01*
X179535295Y-54072352D01*
X179440057Y-54119971D01*
X179106723Y-54119971D01*
X180297200Y-53643780D02*
X180487676Y-53643780D01*
X180582914Y-53691400D01*
X180678152Y-53786638D01*
X180725771Y-53977114D01*
X180725771Y-54310447D01*
X180678152Y-54500923D01*
X180582914Y-54596161D01*
X180487676Y-54643780D01*
X180297200Y-54643780D01*
X180201961Y-54596161D01*
X180106723Y-54500923D01*
X180059104Y-54310447D01*
X180059104Y-53977114D01*
X180106723Y-53786638D01*
X180201961Y-53691400D01*
X180297200Y-53643780D01*
X181344819Y-53643780D02*
X181535295Y-53643780D01*
X181630533Y-53691400D01*
X181725771Y-53786638D01*
X181773390Y-53977114D01*
X181773390Y-54310447D01*
X181725771Y-54500923D01*
X181630533Y-54596161D01*
X181535295Y-54643780D01*
X181344819Y-54643780D01*
X181249580Y-54596161D01*
X181154342Y-54500923D01*
X181106723Y-54310447D01*
X181106723Y-53977114D01*
X181154342Y-53786638D01*
X181249580Y-53691400D01*
X181344819Y-53643780D01*
X182059104Y-53643780D02*
X182630533Y-53643780D01*
X182344819Y-54643780D02*
X182344819Y-53643780D01*
X179987676Y-56293780D02*
X179987676Y-55293780D01*
X180321009Y-56008066D01*
X180654342Y-55293780D01*
X180654342Y-56293780D01*
X181321009Y-55293780D02*
X181416247Y-55293780D01*
X181511485Y-55341400D01*
X181559104Y-55389019D01*
X181606723Y-55484257D01*
X181654342Y-55674733D01*
X181654342Y-55912828D01*
X181606723Y-56103304D01*
X181559104Y-56198542D01*
X181511485Y-56246161D01*
X181416247Y-56293780D01*
X181321009Y-56293780D01*
X181225771Y-56246161D01*
X181178152Y-56198542D01*
X181130533Y-56103304D01*
X181082914Y-55912828D01*
X181082914Y-55674733D01*
X181130533Y-55484257D01*
X181178152Y-55389019D01*
X181225771Y-55341400D01*
X181321009Y-55293780D01*
X87193833Y-81399071D02*
X87336690Y-81446690D01*
X87384309Y-81494309D01*
X87431928Y-81589547D01*
X87431928Y-81732404D01*
X87384309Y-81827642D01*
X87336690Y-81875261D01*
X87241452Y-81922880D01*
X86860500Y-81922880D01*
X86860500Y-80922880D01*
X87193833Y-80922880D01*
X87289071Y-80970500D01*
X87336690Y-81018119D01*
X87384309Y-81113357D01*
X87384309Y-81208595D01*
X87336690Y-81303833D01*
X87289071Y-81351452D01*
X87193833Y-81399071D01*
X86860500Y-81399071D01*
X87717642Y-80922880D02*
X88289071Y-80922880D01*
X88003357Y-81922880D02*
X88003357Y-80922880D01*
X88622404Y-81922880D02*
X88622404Y-80922880D01*
X89193833Y-81922880D01*
X89193833Y-80922880D01*
X90431928Y-81922880D02*
X90431928Y-80922880D01*
X90812880Y-80922880D01*
X90908119Y-80970500D01*
X90955738Y-81018119D01*
X91003357Y-81113357D01*
X91003357Y-81256214D01*
X90955738Y-81351452D01*
X90908119Y-81399071D01*
X90812880Y-81446690D01*
X90431928Y-81446690D01*
X92003357Y-81827642D02*
X91955738Y-81875261D01*
X91812880Y-81922880D01*
X91717642Y-81922880D01*
X91574785Y-81875261D01*
X91479547Y-81780023D01*
X91431928Y-81684785D01*
X91384309Y-81494309D01*
X91384309Y-81351452D01*
X91431928Y-81160976D01*
X91479547Y-81065738D01*
X91574785Y-80970500D01*
X91717642Y-80922880D01*
X91812880Y-80922880D01*
X91955738Y-80970500D01*
X92003357Y-81018119D01*
X92955738Y-81922880D02*
X92384309Y-81922880D01*
X92670023Y-81922880D02*
X92670023Y-80922880D01*
X92574785Y-81065738D01*
X92479547Y-81160976D01*
X92384309Y-81208595D01*
X93289071Y-80922880D02*
X93908119Y-80922880D01*
X93574785Y-81303833D01*
X93717642Y-81303833D01*
X93812880Y-81351452D01*
X93860500Y-81399071D01*
X93908119Y-81494309D01*
X93908119Y-81732404D01*
X93860500Y-81827642D01*
X93812880Y-81875261D01*
X93717642Y-81922880D01*
X93431928Y-81922880D01*
X93336690Y-81875261D01*
X93289071Y-81827642D01*
X171632097Y-50687101D02*
X171774954Y-50734720D01*
X172013049Y-50734720D01*
X172108287Y-50687101D01*
X172155906Y-50639482D01*
X172203525Y-50544244D01*
X172203525Y-50449006D01*
X172155906Y-50353768D01*
X172108287Y-50306149D01*
X172013049Y-50258530D01*
X171822573Y-50210911D01*
X171727335Y-50163292D01*
X171679716Y-50115673D01*
X171632097Y-50020435D01*
X171632097Y-49925197D01*
X171679716Y-49829959D01*
X171727335Y-49782340D01*
X171822573Y-49734720D01*
X172060668Y-49734720D01*
X172203525Y-49782340D01*
X172536859Y-49734720D02*
X172774954Y-50734720D01*
X172965430Y-50020435D01*
X173155906Y-50734720D01*
X173394001Y-49734720D01*
X173774954Y-50734720D02*
X173774954Y-49734720D01*
X174013049Y-49734720D01*
X174155906Y-49782340D01*
X174251144Y-49877578D01*
X174298763Y-49972816D01*
X174346382Y-50163292D01*
X174346382Y-50306149D01*
X174298763Y-50496625D01*
X174251144Y-50591863D01*
X174155906Y-50687101D01*
X174013049Y-50734720D01*
X173774954Y-50734720D01*
X172179716Y-52384720D02*
X172179716Y-51384720D01*
X172513049Y-52099006D01*
X172846382Y-51384720D01*
X172846382Y-52384720D01*
X173513049Y-51384720D02*
X173608287Y-51384720D01*
X173703525Y-51432340D01*
X173751144Y-51479959D01*
X173798763Y-51575197D01*
X173846382Y-51765673D01*
X173846382Y-52003768D01*
X173798763Y-52194244D01*
X173751144Y-52289482D01*
X173703525Y-52337101D01*
X173608287Y-52384720D01*
X173513049Y-52384720D01*
X173417811Y-52337101D01*
X173370192Y-52289482D01*
X173322573Y-52194244D01*
X173274954Y-52003768D01*
X173274954Y-51765673D01*
X173322573Y-51575197D01*
X173370192Y-51479959D01*
X173417811Y-51432340D01*
X173513049Y-51384720D01*
X108069571Y-39050742D02*
X108117190Y-38907885D01*
X108164809Y-38860266D01*
X108260047Y-38812647D01*
X108402904Y-38812647D01*
X108498142Y-38860266D01*
X108545761Y-38907885D01*
X108593380Y-39003123D01*
X108593380Y-39384076D01*
X107593380Y-39384076D01*
X107593380Y-39050742D01*
X107641000Y-38955504D01*
X107688619Y-38907885D01*
X107783857Y-38860266D01*
X107879095Y-38860266D01*
X107974333Y-38907885D01*
X108021952Y-38955504D01*
X108069571Y-39050742D01*
X108069571Y-39384076D01*
X107593380Y-38193600D02*
X107593380Y-38003123D01*
X107641000Y-37907885D01*
X107736238Y-37812647D01*
X107926714Y-37765028D01*
X108260047Y-37765028D01*
X108450523Y-37812647D01*
X108545761Y-37907885D01*
X108593380Y-38003123D01*
X108593380Y-38193600D01*
X108545761Y-38288838D01*
X108450523Y-38384076D01*
X108260047Y-38431695D01*
X107926714Y-38431695D01*
X107736238Y-38384076D01*
X107641000Y-38288838D01*
X107593380Y-38193600D01*
X107593380Y-37145980D02*
X107593380Y-36955504D01*
X107641000Y-36860266D01*
X107736238Y-36765028D01*
X107926714Y-36717409D01*
X108260047Y-36717409D01*
X108450523Y-36765028D01*
X108545761Y-36860266D01*
X108593380Y-36955504D01*
X108593380Y-37145980D01*
X108545761Y-37241219D01*
X108450523Y-37336457D01*
X108260047Y-37384076D01*
X107926714Y-37384076D01*
X107736238Y-37336457D01*
X107641000Y-37241219D01*
X107593380Y-37145980D01*
X107593380Y-36431695D02*
X107593380Y-35860266D01*
X108593380Y-36145980D02*
X107593380Y-36145980D01*
X110243380Y-38503123D02*
X109243380Y-38503123D01*
X109957666Y-38169790D01*
X109243380Y-37836457D01*
X110243380Y-37836457D01*
X109243380Y-37455504D02*
X109243380Y-36788838D01*
X110243380Y-37217409D01*
X80042000Y-81097428D02*
X80803904Y-81097428D01*
X80422952Y-81478380D02*
X80422952Y-80716476D01*
X81184857Y-80478380D02*
X81803904Y-80478380D01*
X81470571Y-80859333D01*
X81613428Y-80859333D01*
X81708666Y-80906952D01*
X81756285Y-80954571D01*
X81803904Y-81049809D01*
X81803904Y-81287904D01*
X81756285Y-81383142D01*
X81708666Y-81430761D01*
X81613428Y-81478380D01*
X81327714Y-81478380D01*
X81232476Y-81430761D01*
X81184857Y-81383142D01*
X82232476Y-81383142D02*
X82280095Y-81430761D01*
X82232476Y-81478380D01*
X82184857Y-81430761D01*
X82232476Y-81383142D01*
X82232476Y-81478380D01*
X82613428Y-80478380D02*
X83232476Y-80478380D01*
X82899142Y-80859333D01*
X83042000Y-80859333D01*
X83137238Y-80906952D01*
X83184857Y-80954571D01*
X83232476Y-81049809D01*
X83232476Y-81287904D01*
X83184857Y-81383142D01*
X83137238Y-81430761D01*
X83042000Y-81478380D01*
X82756285Y-81478380D01*
X82661047Y-81430761D01*
X82613428Y-81383142D01*
X83518190Y-80478380D02*
X83851523Y-81478380D01*
X84184857Y-80478380D01*
X80518095Y-73160000D02*
X80422857Y-73112380D01*
X80280000Y-73112380D01*
X80137142Y-73160000D01*
X80041904Y-73255238D01*
X79994285Y-73350476D01*
X79946666Y-73540952D01*
X79946666Y-73683809D01*
X79994285Y-73874285D01*
X80041904Y-73969523D01*
X80137142Y-74064761D01*
X80280000Y-74112380D01*
X80375238Y-74112380D01*
X80518095Y-74064761D01*
X80565714Y-74017142D01*
X80565714Y-73683809D01*
X80375238Y-73683809D01*
X80994285Y-74112380D02*
X80994285Y-73112380D01*
X81565714Y-74112380D01*
X81565714Y-73112380D01*
X82041904Y-74112380D02*
X82041904Y-73112380D01*
X82280000Y-73112380D01*
X82422857Y-73160000D01*
X82518095Y-73255238D01*
X82565714Y-73350476D01*
X82613333Y-73540952D01*
X82613333Y-73683809D01*
X82565714Y-73874285D01*
X82518095Y-73969523D01*
X82422857Y-74064761D01*
X82280000Y-74112380D01*
X82041904Y-74112380D01*
X152566857Y-55459761D02*
X152709714Y-55507380D01*
X152947809Y-55507380D01*
X153043047Y-55459761D01*
X153090666Y-55412142D01*
X153138285Y-55316904D01*
X153138285Y-55221666D01*
X153090666Y-55126428D01*
X153043047Y-55078809D01*
X152947809Y-55031190D01*
X152757333Y-54983571D01*
X152662095Y-54935952D01*
X152614476Y-54888333D01*
X152566857Y-54793095D01*
X152566857Y-54697857D01*
X152614476Y-54602619D01*
X152662095Y-54555000D01*
X152757333Y-54507380D01*
X152995428Y-54507380D01*
X153138285Y-54555000D01*
X153471619Y-54507380D02*
X153709714Y-55507380D01*
X153900190Y-54793095D01*
X154090666Y-55507380D01*
X154328761Y-54507380D01*
X154709714Y-55507380D02*
X154709714Y-54507380D01*
X154947809Y-54507380D01*
X155090666Y-54555000D01*
X155185904Y-54650238D01*
X155233523Y-54745476D01*
X155281142Y-54935952D01*
X155281142Y-55078809D01*
X155233523Y-55269285D01*
X155185904Y-55364523D01*
X155090666Y-55459761D01*
X154947809Y-55507380D01*
X154709714Y-55507380D01*
X153114476Y-57157380D02*
X153114476Y-56157380D01*
X153447809Y-56871666D01*
X153781142Y-56157380D01*
X153781142Y-57157380D01*
X154162095Y-56157380D02*
X154828761Y-56157380D01*
X154400190Y-57157380D01*
X98747823Y-59324742D02*
X98700204Y-59372361D01*
X98557347Y-59419980D01*
X98462109Y-59419980D01*
X98319252Y-59372361D01*
X98224014Y-59277123D01*
X98176395Y-59181885D01*
X98128776Y-58991409D01*
X98128776Y-58848552D01*
X98176395Y-58658076D01*
X98224014Y-58562838D01*
X98319252Y-58467600D01*
X98462109Y-58419980D01*
X98557347Y-58419980D01*
X98700204Y-58467600D01*
X98747823Y-58515219D01*
X99319252Y-59419980D02*
X99224014Y-59372361D01*
X99176395Y-59324742D01*
X99128776Y-59229504D01*
X99128776Y-58943790D01*
X99176395Y-58848552D01*
X99224014Y-58800933D01*
X99319252Y-58753314D01*
X99462109Y-58753314D01*
X99557347Y-58800933D01*
X99604966Y-58848552D01*
X99652585Y-58943790D01*
X99652585Y-59229504D01*
X99604966Y-59324742D01*
X99557347Y-59372361D01*
X99462109Y-59419980D01*
X99319252Y-59419980D01*
X100081157Y-58753314D02*
X100081157Y-59753314D01*
X100081157Y-58800933D02*
X100176395Y-58753314D01*
X100366871Y-58753314D01*
X100462109Y-58800933D01*
X100509728Y-58848552D01*
X100557347Y-58943790D01*
X100557347Y-59229504D01*
X100509728Y-59324742D01*
X100462109Y-59372361D01*
X100366871Y-59419980D01*
X100176395Y-59419980D01*
X100081157Y-59372361D01*
X100890680Y-58753314D02*
X101128776Y-59419980D01*
X101366871Y-58753314D02*
X101128776Y-59419980D01*
X101033538Y-59658076D01*
X100985919Y-59705695D01*
X100890680Y-59753314D01*
X101747823Y-59419980D02*
X101747823Y-58753314D01*
X101747823Y-58943790D02*
X101795442Y-58848552D01*
X101843061Y-58800933D01*
X101938300Y-58753314D01*
X102033538Y-58753314D01*
X102366871Y-59419980D02*
X102366871Y-58753314D01*
X102366871Y-58419980D02*
X102319252Y-58467600D01*
X102366871Y-58515219D01*
X102414490Y-58467600D01*
X102366871Y-58419980D01*
X102366871Y-58515219D01*
X103271633Y-58753314D02*
X103271633Y-59562838D01*
X103224014Y-59658076D01*
X103176395Y-59705695D01*
X103081157Y-59753314D01*
X102938300Y-59753314D01*
X102843061Y-59705695D01*
X103271633Y-59372361D02*
X103176395Y-59419980D01*
X102985919Y-59419980D01*
X102890680Y-59372361D01*
X102843061Y-59324742D01*
X102795442Y-59229504D01*
X102795442Y-58943790D01*
X102843061Y-58848552D01*
X102890680Y-58800933D01*
X102985919Y-58753314D01*
X103176395Y-58753314D01*
X103271633Y-58800933D01*
X103747823Y-59419980D02*
X103747823Y-58419980D01*
X104176395Y-59419980D02*
X104176395Y-58896171D01*
X104128776Y-58800933D01*
X104033538Y-58753314D01*
X103890680Y-58753314D01*
X103795442Y-58800933D01*
X103747823Y-58848552D01*
X104509728Y-58753314D02*
X104890680Y-58753314D01*
X104652585Y-58419980D02*
X104652585Y-59277123D01*
X104700204Y-59372361D01*
X104795442Y-59419980D01*
X104890680Y-59419980D01*
X106795442Y-58658076D02*
X106700204Y-58610457D01*
X106509728Y-58610457D01*
X106414490Y-58658076D01*
X106319252Y-58753314D01*
X106271633Y-58848552D01*
X106271633Y-59039028D01*
X106319252Y-59134266D01*
X106414490Y-59229504D01*
X106509728Y-59277123D01*
X106700204Y-59277123D01*
X106795442Y-59229504D01*
X106604966Y-58277123D02*
X106366871Y-58324742D01*
X106128776Y-58467600D01*
X105985919Y-58705695D01*
X105938300Y-58943790D01*
X105985919Y-59181885D01*
X106128776Y-59419980D01*
X106366871Y-59562838D01*
X106604966Y-59610457D01*
X106843061Y-59562838D01*
X107081157Y-59419980D01*
X107224014Y-59181885D01*
X107271633Y-58943790D01*
X107224014Y-58705695D01*
X107081157Y-58467600D01*
X106843061Y-58324742D01*
X106604966Y-58277123D01*
X98128776Y-60165219D02*
X98176395Y-60117600D01*
X98271633Y-60069980D01*
X98509728Y-60069980D01*
X98604966Y-60117600D01*
X98652585Y-60165219D01*
X98700204Y-60260457D01*
X98700204Y-60355695D01*
X98652585Y-60498552D01*
X98081157Y-61069980D01*
X98700204Y-61069980D01*
X99319252Y-60069980D02*
X99414490Y-60069980D01*
X99509728Y-60117600D01*
X99557347Y-60165219D01*
X99604966Y-60260457D01*
X99652585Y-60450933D01*
X99652585Y-60689028D01*
X99604966Y-60879504D01*
X99557347Y-60974742D01*
X99509728Y-61022361D01*
X99414490Y-61069980D01*
X99319252Y-61069980D01*
X99224014Y-61022361D01*
X99176395Y-60974742D01*
X99128776Y-60879504D01*
X99081157Y-60689028D01*
X99081157Y-60450933D01*
X99128776Y-60260457D01*
X99176395Y-60165219D01*
X99224014Y-60117600D01*
X99319252Y-60069980D01*
X100604966Y-61069980D02*
X100033538Y-61069980D01*
X100319252Y-61069980D02*
X100319252Y-60069980D01*
X100224014Y-60212838D01*
X100128776Y-60308076D01*
X100033538Y-60355695D01*
X101081157Y-61069980D02*
X101271633Y-61069980D01*
X101366871Y-61022361D01*
X101414490Y-60974742D01*
X101509728Y-60831885D01*
X101557347Y-60641409D01*
X101557347Y-60260457D01*
X101509728Y-60165219D01*
X101462109Y-60117600D01*
X101366871Y-60069980D01*
X101176395Y-60069980D01*
X101081157Y-60117600D01*
X101033538Y-60165219D01*
X100985919Y-60260457D01*
X100985919Y-60498552D01*
X101033538Y-60593790D01*
X101081157Y-60641409D01*
X101176395Y-60689028D01*
X101366871Y-60689028D01*
X101462109Y-60641409D01*
X101509728Y-60593790D01*
X101557347Y-60498552D01*
X102747823Y-61069980D02*
X102747823Y-60069980D01*
X102747823Y-60450933D02*
X102843061Y-60403314D01*
X103033538Y-60403314D01*
X103128776Y-60450933D01*
X103176395Y-60498552D01*
X103224014Y-60593790D01*
X103224014Y-60879504D01*
X103176395Y-60974742D01*
X103128776Y-61022361D01*
X103033538Y-61069980D01*
X102843061Y-61069980D01*
X102747823Y-61022361D01*
X103557347Y-60403314D02*
X103795442Y-61069980D01*
X104033538Y-60403314D02*
X103795442Y-61069980D01*
X103700204Y-61308076D01*
X103652585Y-61355695D01*
X103557347Y-61403314D01*
X98176395Y-62719980D02*
X98176395Y-61719980D01*
X98509728Y-62434266D01*
X98843061Y-61719980D01*
X98843061Y-62719980D01*
X99747823Y-62719980D02*
X99747823Y-62196171D01*
X99700204Y-62100933D01*
X99604966Y-62053314D01*
X99414490Y-62053314D01*
X99319252Y-62100933D01*
X99747823Y-62672361D02*
X99652585Y-62719980D01*
X99414490Y-62719980D01*
X99319252Y-62672361D01*
X99271633Y-62577123D01*
X99271633Y-62481885D01*
X99319252Y-62386647D01*
X99414490Y-62339028D01*
X99652585Y-62339028D01*
X99747823Y-62291409D01*
X100224014Y-62719980D02*
X100224014Y-62053314D01*
X100224014Y-62243790D02*
X100271633Y-62148552D01*
X100319252Y-62100933D01*
X100414490Y-62053314D01*
X100509728Y-62053314D01*
X100700204Y-62053314D02*
X101081157Y-62053314D01*
X100843061Y-61719980D02*
X100843061Y-62577123D01*
X100890680Y-62672361D01*
X100985919Y-62719980D01*
X101081157Y-62719980D01*
X101414490Y-62719980D02*
X101414490Y-62053314D01*
X101414490Y-61719980D02*
X101366871Y-61767600D01*
X101414490Y-61815219D01*
X101462109Y-61767600D01*
X101414490Y-61719980D01*
X101414490Y-61815219D01*
X101890680Y-62053314D02*
X101890680Y-62719980D01*
X101890680Y-62148552D02*
X101938300Y-62100933D01*
X102033538Y-62053314D01*
X102176395Y-62053314D01*
X102271633Y-62100933D01*
X102319252Y-62196171D01*
X102319252Y-62719980D01*
X104128776Y-62719980D02*
X103795442Y-62243790D01*
X103557347Y-62719980D02*
X103557347Y-61719980D01*
X103938300Y-61719980D01*
X104033538Y-61767600D01*
X104081157Y-61815219D01*
X104128776Y-61910457D01*
X104128776Y-62053314D01*
X104081157Y-62148552D01*
X104033538Y-62196171D01*
X103938300Y-62243790D01*
X103557347Y-62243790D01*
X104557347Y-62719980D02*
X104557347Y-62053314D01*
X104557347Y-61719980D02*
X104509728Y-61767600D01*
X104557347Y-61815219D01*
X104604966Y-61767600D01*
X104557347Y-61719980D01*
X104557347Y-61815219D01*
X105033538Y-62719980D02*
X105033538Y-61719980D01*
X105033538Y-62100933D02*
X105128776Y-62053314D01*
X105319252Y-62053314D01*
X105414490Y-62100933D01*
X105462109Y-62148552D01*
X105509728Y-62243790D01*
X105509728Y-62529504D01*
X105462109Y-62624742D01*
X105414490Y-62672361D01*
X105319252Y-62719980D01*
X105128776Y-62719980D01*
X105033538Y-62672361D01*
X106319252Y-62672361D02*
X106224014Y-62719980D01*
X106033538Y-62719980D01*
X105938300Y-62672361D01*
X105890680Y-62577123D01*
X105890680Y-62196171D01*
X105938300Y-62100933D01*
X106033538Y-62053314D01*
X106224014Y-62053314D01*
X106319252Y-62100933D01*
X106366871Y-62196171D01*
X106366871Y-62291409D01*
X105890680Y-62386647D01*
X106938300Y-62719980D02*
X106843061Y-62672361D01*
X106795442Y-62577123D01*
X106795442Y-61719980D01*
X107462109Y-62719980D02*
X107366871Y-62672361D01*
X107319252Y-62624742D01*
X107271633Y-62529504D01*
X107271633Y-62243790D01*
X107319252Y-62148552D01*
X107366871Y-62100933D01*
X107462109Y-62053314D01*
X107604966Y-62053314D01*
X107700204Y-62100933D01*
X107747823Y-62148552D01*
X107795442Y-62243790D01*
X107795442Y-62529504D01*
X107747823Y-62624742D01*
X107700204Y-62672361D01*
X107604966Y-62719980D01*
X107462109Y-62719980D01*
X108081157Y-62053314D02*
X108462109Y-62053314D01*
X108224014Y-61719980D02*
X108224014Y-62577123D01*
X108271633Y-62672361D01*
X108366871Y-62719980D01*
X108462109Y-62719980D01*
X108652585Y-62053314D02*
X109033538Y-62053314D01*
X108795442Y-61719980D02*
X108795442Y-62577123D01*
X108843061Y-62672361D01*
X108938300Y-62719980D01*
X109033538Y-62719980D01*
X109795442Y-62719980D02*
X109795442Y-62196171D01*
X109747823Y-62100933D01*
X109652585Y-62053314D01*
X109462109Y-62053314D01*
X109366871Y-62100933D01*
X109795442Y-62672361D02*
X109700204Y-62719980D01*
X109462109Y-62719980D01*
X109366871Y-62672361D01*
X109319252Y-62577123D01*
X109319252Y-62481885D01*
X109366871Y-62386647D01*
X109462109Y-62339028D01*
X109700204Y-62339028D01*
X109795442Y-62291409D01*
X98604966Y-64369980D02*
X98604966Y-63846171D01*
X98557347Y-63750933D01*
X98462109Y-63703314D01*
X98271633Y-63703314D01*
X98176395Y-63750933D01*
X98604966Y-64322361D02*
X98509728Y-64369980D01*
X98271633Y-64369980D01*
X98176395Y-64322361D01*
X98128776Y-64227123D01*
X98128776Y-64131885D01*
X98176395Y-64036647D01*
X98271633Y-63989028D01*
X98509728Y-63989028D01*
X98604966Y-63941409D01*
X99081157Y-63703314D02*
X99081157Y-64369980D01*
X99081157Y-63798552D02*
X99128776Y-63750933D01*
X99224014Y-63703314D01*
X99366871Y-63703314D01*
X99462109Y-63750933D01*
X99509728Y-63846171D01*
X99509728Y-64369980D01*
X100414490Y-64369980D02*
X100414490Y-63369980D01*
X100414490Y-64322361D02*
X100319252Y-64369980D01*
X100128776Y-64369980D01*
X100033538Y-64322361D01*
X99985919Y-64274742D01*
X99938300Y-64179504D01*
X99938300Y-63893790D01*
X99985919Y-63798552D01*
X100033538Y-63750933D01*
X100128776Y-63703314D01*
X100319252Y-63703314D01*
X100414490Y-63750933D01*
X101652585Y-63846171D02*
X101985919Y-63846171D01*
X102128776Y-64369980D02*
X101652585Y-64369980D01*
X101652585Y-63369980D01*
X102128776Y-63369980D01*
X102557347Y-64369980D02*
X102557347Y-63703314D01*
X102557347Y-63893790D02*
X102604966Y-63798552D01*
X102652585Y-63750933D01*
X102747823Y-63703314D01*
X102843061Y-63703314D01*
X103176395Y-64369980D02*
X103176395Y-63703314D01*
X103176395Y-63369980D02*
X103128776Y-63417600D01*
X103176395Y-63465219D01*
X103224014Y-63417600D01*
X103176395Y-63369980D01*
X103176395Y-63465219D01*
X104081157Y-64322361D02*
X103985919Y-64369980D01*
X103795442Y-64369980D01*
X103700204Y-64322361D01*
X103652585Y-64274742D01*
X103604966Y-64179504D01*
X103604966Y-63893790D01*
X103652585Y-63798552D01*
X103700204Y-63750933D01*
X103795442Y-63703314D01*
X103985919Y-63703314D01*
X104081157Y-63750933D01*
X105271633Y-64369980D02*
X105271633Y-63369980D01*
X105652585Y-63369980D01*
X105747823Y-63417600D01*
X105795442Y-63465219D01*
X105843061Y-63560457D01*
X105843061Y-63703314D01*
X105795442Y-63798552D01*
X105747823Y-63846171D01*
X105652585Y-63893790D01*
X105271633Y-63893790D01*
X106652585Y-64322361D02*
X106557347Y-64369980D01*
X106366871Y-64369980D01*
X106271633Y-64322361D01*
X106224014Y-64227123D01*
X106224014Y-63846171D01*
X106271633Y-63750933D01*
X106366871Y-63703314D01*
X106557347Y-63703314D01*
X106652585Y-63750933D01*
X106700204Y-63846171D01*
X106700204Y-63941409D01*
X106224014Y-64036647D01*
X107128776Y-64369980D02*
X107128776Y-63703314D01*
X107128776Y-63893790D02*
X107176395Y-63798552D01*
X107224014Y-63750933D01*
X107319252Y-63703314D01*
X107414490Y-63703314D01*
X107747823Y-63703314D02*
X107747823Y-64369980D01*
X107747823Y-63798552D02*
X107795442Y-63750933D01*
X107890680Y-63703314D01*
X108033538Y-63703314D01*
X108128776Y-63750933D01*
X108176395Y-63846171D01*
X108176395Y-64369980D01*
X108652585Y-64369980D02*
X108652585Y-63703314D01*
X108652585Y-63369980D02*
X108604966Y-63417600D01*
X108652585Y-63465219D01*
X108700204Y-63417600D01*
X108652585Y-63369980D01*
X108652585Y-63465219D01*
X109557347Y-64369980D02*
X109557347Y-63846171D01*
X109509728Y-63750933D01*
X109414490Y-63703314D01*
X109224014Y-63703314D01*
X109128776Y-63750933D01*
X109557347Y-64322361D02*
X109462109Y-64369980D01*
X109224014Y-64369980D01*
X109128776Y-64322361D01*
X109081157Y-64227123D01*
X109081157Y-64131885D01*
X109128776Y-64036647D01*
X109224014Y-63989028D01*
X109462109Y-63989028D01*
X109557347Y-63941409D01*
X140350591Y-55127640D02*
X140350591Y-55937164D01*
X140398210Y-56032402D01*
X140445830Y-56080021D01*
X140541068Y-56127640D01*
X140731544Y-56127640D01*
X140826782Y-56080021D01*
X140874401Y-56032402D01*
X140922020Y-55937164D01*
X140922020Y-55127640D01*
X141398210Y-55460974D02*
X141398210Y-56127640D01*
X141398210Y-55556212D02*
X141445830Y-55508593D01*
X141541068Y-55460974D01*
X141683925Y-55460974D01*
X141779163Y-55508593D01*
X141826782Y-55603831D01*
X141826782Y-56127640D01*
X142302972Y-56127640D02*
X142302972Y-55460974D01*
X142302972Y-55127640D02*
X142255353Y-55175260D01*
X142302972Y-55222879D01*
X142350591Y-55175260D01*
X142302972Y-55127640D01*
X142302972Y-55222879D01*
X142683925Y-55460974D02*
X142922020Y-56127640D01*
X143160115Y-55460974D01*
X143922020Y-56080021D02*
X143826782Y-56127640D01*
X143636306Y-56127640D01*
X143541068Y-56080021D01*
X143493449Y-55984783D01*
X143493449Y-55603831D01*
X143541068Y-55508593D01*
X143636306Y-55460974D01*
X143826782Y-55460974D01*
X143922020Y-55508593D01*
X143969639Y-55603831D01*
X143969639Y-55699069D01*
X143493449Y-55794307D01*
X144398210Y-56127640D02*
X144398210Y-55460974D01*
X144398210Y-55651450D02*
X144445830Y-55556212D01*
X144493449Y-55508593D01*
X144588687Y-55460974D01*
X144683925Y-55460974D01*
X144969639Y-56080021D02*
X145064877Y-56127640D01*
X145255353Y-56127640D01*
X145350591Y-56080021D01*
X145398210Y-55984783D01*
X145398210Y-55937164D01*
X145350591Y-55841926D01*
X145255353Y-55794307D01*
X145112496Y-55794307D01*
X145017258Y-55746688D01*
X144969639Y-55651450D01*
X144969639Y-55603831D01*
X145017258Y-55508593D01*
X145112496Y-55460974D01*
X145255353Y-55460974D01*
X145350591Y-55508593D01*
X145826782Y-56127640D02*
X145826782Y-55460974D01*
X145826782Y-55127640D02*
X145779163Y-55175260D01*
X145826782Y-55222879D01*
X145874401Y-55175260D01*
X145826782Y-55127640D01*
X145826782Y-55222879D01*
X146731544Y-56127640D02*
X146731544Y-55127640D01*
X146731544Y-56080021D02*
X146636306Y-56127640D01*
X146445830Y-56127640D01*
X146350591Y-56080021D01*
X146302972Y-56032402D01*
X146255353Y-55937164D01*
X146255353Y-55651450D01*
X146302972Y-55556212D01*
X146350591Y-55508593D01*
X146445830Y-55460974D01*
X146636306Y-55460974D01*
X146731544Y-55508593D01*
X147636306Y-56127640D02*
X147636306Y-55603831D01*
X147588687Y-55508593D01*
X147493449Y-55460974D01*
X147302972Y-55460974D01*
X147207734Y-55508593D01*
X147636306Y-56080021D02*
X147541068Y-56127640D01*
X147302972Y-56127640D01*
X147207734Y-56080021D01*
X147160115Y-55984783D01*
X147160115Y-55889545D01*
X147207734Y-55794307D01*
X147302972Y-55746688D01*
X147541068Y-55746688D01*
X147636306Y-55699069D01*
X148541068Y-56127640D02*
X148541068Y-55127640D01*
X148541068Y-56080021D02*
X148445830Y-56127640D01*
X148255353Y-56127640D01*
X148160115Y-56080021D01*
X148112496Y-56032402D01*
X148064877Y-55937164D01*
X148064877Y-55651450D01*
X148112496Y-55556212D01*
X148160115Y-55508593D01*
X148255353Y-55460974D01*
X148445830Y-55460974D01*
X148541068Y-55508593D01*
X140160115Y-57777640D02*
X140160115Y-56777640D01*
X140731544Y-57777640D01*
X140731544Y-56777640D01*
X141636306Y-57777640D02*
X141636306Y-57253831D01*
X141588687Y-57158593D01*
X141493449Y-57110974D01*
X141302972Y-57110974D01*
X141207734Y-57158593D01*
X141636306Y-57730021D02*
X141541068Y-57777640D01*
X141302972Y-57777640D01*
X141207734Y-57730021D01*
X141160115Y-57634783D01*
X141160115Y-57539545D01*
X141207734Y-57444307D01*
X141302972Y-57396688D01*
X141541068Y-57396688D01*
X141636306Y-57349069D01*
X142541068Y-57730021D02*
X142445830Y-57777640D01*
X142255353Y-57777640D01*
X142160115Y-57730021D01*
X142112496Y-57682402D01*
X142064877Y-57587164D01*
X142064877Y-57301450D01*
X142112496Y-57206212D01*
X142160115Y-57158593D01*
X142255353Y-57110974D01*
X142445830Y-57110974D01*
X142541068Y-57158593D01*
X142969639Y-57777640D02*
X142969639Y-57110974D01*
X142969639Y-56777640D02*
X142922020Y-56825260D01*
X142969639Y-56872879D01*
X143017258Y-56825260D01*
X142969639Y-56777640D01*
X142969639Y-56872879D01*
X143588687Y-57777640D02*
X143493449Y-57730021D01*
X143445830Y-57682402D01*
X143398210Y-57587164D01*
X143398210Y-57301450D01*
X143445830Y-57206212D01*
X143493449Y-57158593D01*
X143588687Y-57110974D01*
X143731544Y-57110974D01*
X143826782Y-57158593D01*
X143874401Y-57206212D01*
X143922020Y-57301450D01*
X143922020Y-57587164D01*
X143874401Y-57682402D01*
X143826782Y-57730021D01*
X143731544Y-57777640D01*
X143588687Y-57777640D01*
X144350591Y-57110974D02*
X144350591Y-57777640D01*
X144350591Y-57206212D02*
X144398210Y-57158593D01*
X144493449Y-57110974D01*
X144636306Y-57110974D01*
X144731544Y-57158593D01*
X144779163Y-57253831D01*
X144779163Y-57777640D01*
X145683925Y-57777640D02*
X145683925Y-57253831D01*
X145636306Y-57158593D01*
X145541068Y-57110974D01*
X145350591Y-57110974D01*
X145255353Y-57158593D01*
X145683925Y-57730021D02*
X145588687Y-57777640D01*
X145350591Y-57777640D01*
X145255353Y-57730021D01*
X145207734Y-57634783D01*
X145207734Y-57539545D01*
X145255353Y-57444307D01*
X145350591Y-57396688D01*
X145588687Y-57396688D01*
X145683925Y-57349069D01*
X146302972Y-57777640D02*
X146207734Y-57730021D01*
X146160115Y-57634783D01*
X146160115Y-56777640D01*
X147874401Y-57777640D02*
X147874401Y-56777640D01*
X147874401Y-57730021D02*
X147779163Y-57777640D01*
X147588687Y-57777640D01*
X147493449Y-57730021D01*
X147445830Y-57682402D01*
X147398210Y-57587164D01*
X147398210Y-57301450D01*
X147445830Y-57206212D01*
X147493449Y-57158593D01*
X147588687Y-57110974D01*
X147779163Y-57110974D01*
X147874401Y-57158593D01*
X148731544Y-57730021D02*
X148636306Y-57777640D01*
X148445830Y-57777640D01*
X148350591Y-57730021D01*
X148302972Y-57634783D01*
X148302972Y-57253831D01*
X148350591Y-57158593D01*
X148445830Y-57110974D01*
X148636306Y-57110974D01*
X148731544Y-57158593D01*
X148779163Y-57253831D01*
X148779163Y-57349069D01*
X148302972Y-57444307D01*
X142374401Y-59522879D02*
X142279163Y-59475260D01*
X142183925Y-59380021D01*
X142041068Y-59237164D01*
X141945830Y-59189545D01*
X141850591Y-59189545D01*
X141898210Y-59427640D02*
X141802972Y-59380021D01*
X141707734Y-59284783D01*
X141660115Y-59094307D01*
X141660115Y-58760974D01*
X141707734Y-58570498D01*
X141802972Y-58475260D01*
X141898210Y-58427640D01*
X142088687Y-58427640D01*
X142183925Y-58475260D01*
X142279163Y-58570498D01*
X142326782Y-58760974D01*
X142326782Y-59094307D01*
X142279163Y-59284783D01*
X142183925Y-59380021D01*
X142088687Y-59427640D01*
X141898210Y-59427640D01*
X143183925Y-58760974D02*
X143183925Y-59427640D01*
X142755353Y-58760974D02*
X142755353Y-59284783D01*
X142802972Y-59380021D01*
X142898210Y-59427640D01*
X143041068Y-59427640D01*
X143136306Y-59380021D01*
X143183925Y-59332402D01*
X143660115Y-59427640D02*
X143660115Y-58760974D01*
X143660115Y-58427640D02*
X143612496Y-58475260D01*
X143660115Y-58522879D01*
X143707734Y-58475260D01*
X143660115Y-58427640D01*
X143660115Y-58522879D01*
X144279163Y-59427640D02*
X144183925Y-59380021D01*
X144136306Y-59284783D01*
X144136306Y-58427640D01*
X144660115Y-59427640D02*
X144660115Y-58760974D01*
X144660115Y-58856212D02*
X144707734Y-58808593D01*
X144802972Y-58760974D01*
X144945830Y-58760974D01*
X145041068Y-58808593D01*
X145088687Y-58903831D01*
X145088687Y-59427640D01*
X145088687Y-58903831D02*
X145136306Y-58808593D01*
X145231544Y-58760974D01*
X145374401Y-58760974D01*
X145469639Y-58808593D01*
X145517258Y-58903831D01*
X145517258Y-59427640D01*
X146374401Y-59380021D02*
X146279163Y-59427640D01*
X146088687Y-59427640D01*
X145993449Y-59380021D01*
X145945830Y-59284783D01*
X145945830Y-58903831D01*
X145993449Y-58808593D01*
X146088687Y-58760974D01*
X146279163Y-58760974D01*
X146374401Y-58808593D01*
X146422020Y-58903831D01*
X146422020Y-58999069D01*
X145945830Y-59094307D01*
X146802972Y-59380021D02*
X146898210Y-59427640D01*
X147088687Y-59427640D01*
X147183925Y-59380021D01*
X147231544Y-59284783D01*
X147231544Y-59237164D01*
X147183925Y-59141926D01*
X147088687Y-59094307D01*
X146945830Y-59094307D01*
X146850591Y-59046688D01*
X146802972Y-58951450D01*
X146802972Y-58903831D01*
X146850591Y-58808593D01*
X146945830Y-58760974D01*
X147088687Y-58760974D01*
X147183925Y-58808593D01*
X159480714Y-54427380D02*
X159480714Y-53427380D01*
X159718809Y-53427380D01*
X159861666Y-53475000D01*
X159956904Y-53570238D01*
X160004523Y-53665476D01*
X160052142Y-53855952D01*
X160052142Y-53998809D01*
X160004523Y-54189285D01*
X159956904Y-54284523D01*
X159861666Y-54379761D01*
X159718809Y-54427380D01*
X159480714Y-54427380D01*
X160861666Y-54379761D02*
X160766428Y-54427380D01*
X160575952Y-54427380D01*
X160480714Y-54379761D01*
X160433095Y-54284523D01*
X160433095Y-53903571D01*
X160480714Y-53808333D01*
X160575952Y-53760714D01*
X160766428Y-53760714D01*
X160861666Y-53808333D01*
X160909285Y-53903571D01*
X160909285Y-53998809D01*
X160433095Y-54094047D01*
X161337857Y-54427380D02*
X161337857Y-53427380D01*
X161337857Y-53808333D02*
X161433095Y-53760714D01*
X161623571Y-53760714D01*
X161718809Y-53808333D01*
X161766428Y-53855952D01*
X161814047Y-53951190D01*
X161814047Y-54236904D01*
X161766428Y-54332142D01*
X161718809Y-54379761D01*
X161623571Y-54427380D01*
X161433095Y-54427380D01*
X161337857Y-54379761D01*
X162671190Y-53760714D02*
X162671190Y-54427380D01*
X162242619Y-53760714D02*
X162242619Y-54284523D01*
X162290238Y-54379761D01*
X162385476Y-54427380D01*
X162528333Y-54427380D01*
X162623571Y-54379761D01*
X162671190Y-54332142D01*
X163575952Y-53760714D02*
X163575952Y-54570238D01*
X163528333Y-54665476D01*
X163480714Y-54713095D01*
X163385476Y-54760714D01*
X163242619Y-54760714D01*
X163147380Y-54713095D01*
X163575952Y-54379761D02*
X163480714Y-54427380D01*
X163290238Y-54427380D01*
X163195000Y-54379761D01*
X163147380Y-54332142D01*
X163099761Y-54236904D01*
X163099761Y-53951190D01*
X163147380Y-53855952D01*
X163195000Y-53808333D01*
X163290238Y-53760714D01*
X163480714Y-53760714D01*
X163575952Y-53808333D01*
X164052142Y-54046428D02*
X164814047Y-54046428D01*
X165290238Y-54427380D02*
X165290238Y-53427380D01*
X165623571Y-54141666D01*
X165956904Y-53427380D01*
X165956904Y-54427380D01*
X166623571Y-53427380D02*
X166718809Y-53427380D01*
X166814047Y-53475000D01*
X166861666Y-53522619D01*
X166909285Y-53617857D01*
X166956904Y-53808333D01*
X166956904Y-54046428D01*
X166909285Y-54236904D01*
X166861666Y-54332142D01*
X166814047Y-54379761D01*
X166718809Y-54427380D01*
X166623571Y-54427380D01*
X166528333Y-54379761D01*
X166480714Y-54332142D01*
X166433095Y-54236904D01*
X166385476Y-54046428D01*
X166385476Y-53808333D01*
X166433095Y-53617857D01*
X166480714Y-53522619D01*
X166528333Y-53475000D01*
X166623571Y-53427380D01*
D10*
X176154576Y-63601600D02*
G75*
G03X176154576Y-63601600I-234176J0D01*
G01*
X183050676Y-46687740D02*
G75*
G03X183050676Y-46687740I-234176J0D01*
G01*
X155468816Y-45859700D02*
G75*
G03X155468816Y-45859700I-234176J0D01*
G01*
X133355576Y-60071000D02*
G75*
G03X133355576Y-60071000I-234176J0D01*
G01*
X62852796Y-60436760D02*
G75*
G03X62852796Y-60436760I-234176J0D01*
G01*
X143744176Y-71551800D02*
G75*
G03X143744176Y-71551800I-234176J0D01*
G01*
X123220976Y-39852600D02*
G75*
G03X123220976Y-39852600I-234176J0D01*
G01*
X168057056Y-46606460D02*
G75*
G03X168057056Y-46606460I-234176J0D01*
G01*
D11*
X72946283Y-69224140D02*
X72470093Y-69224140D01*
X72422474Y-69700331D01*
X72470093Y-69652712D01*
X72565331Y-69605093D01*
X72803426Y-69605093D01*
X72898664Y-69652712D01*
X72946283Y-69700331D01*
X72993902Y-69795569D01*
X72993902Y-70033664D01*
X72946283Y-70128902D01*
X72898664Y-70176521D01*
X72803426Y-70224140D01*
X72565331Y-70224140D01*
X72470093Y-70176521D01*
X72422474Y-70128902D01*
X73279617Y-69224140D02*
X73612950Y-70224140D01*
X73946283Y-69224140D01*
X72041521Y-70874140D02*
X72374855Y-71874140D01*
X72708188Y-70874140D01*
X73041521Y-71874140D02*
X73041521Y-70874140D01*
X73517712Y-71874140D02*
X73517712Y-70874140D01*
X74089140Y-71874140D01*
X74089140Y-70874140D01*
X135002876Y-81630780D02*
X135002876Y-80630780D01*
X135383828Y-80630780D01*
X135479066Y-80678400D01*
X135526685Y-80726019D01*
X135574304Y-80821257D01*
X135574304Y-80964114D01*
X135526685Y-81059352D01*
X135479066Y-81106971D01*
X135383828Y-81154590D01*
X135002876Y-81154590D01*
X136193352Y-80630780D02*
X136383828Y-80630780D01*
X136479066Y-80678400D01*
X136574304Y-80773638D01*
X136621923Y-80964114D01*
X136621923Y-81297447D01*
X136574304Y-81487923D01*
X136479066Y-81583161D01*
X136383828Y-81630780D01*
X136193352Y-81630780D01*
X136098114Y-81583161D01*
X136002876Y-81487923D01*
X135955257Y-81297447D01*
X135955257Y-80964114D01*
X136002876Y-80773638D01*
X136098114Y-80678400D01*
X136193352Y-80630780D01*
X136955257Y-80630780D02*
X137193352Y-81630780D01*
X137383828Y-80916495D01*
X137574304Y-81630780D01*
X137812400Y-80630780D01*
X138193352Y-81106971D02*
X138526685Y-81106971D01*
X138669542Y-81630780D02*
X138193352Y-81630780D01*
X138193352Y-80630780D01*
X138669542Y-80630780D01*
X139669542Y-81630780D02*
X139336209Y-81154590D01*
X139098114Y-81630780D02*
X139098114Y-80630780D01*
X139479066Y-80630780D01*
X139574304Y-80678400D01*
X139621923Y-80726019D01*
X139669542Y-80821257D01*
X139669542Y-80964114D01*
X139621923Y-81059352D01*
X139574304Y-81106971D01*
X139479066Y-81154590D01*
X139098114Y-81154590D01*
X127111523Y-36726761D02*
X127254380Y-36774380D01*
X127492476Y-36774380D01*
X127587714Y-36726761D01*
X127635333Y-36679142D01*
X127682952Y-36583904D01*
X127682952Y-36488666D01*
X127635333Y-36393428D01*
X127587714Y-36345809D01*
X127492476Y-36298190D01*
X127302000Y-36250571D01*
X127206761Y-36202952D01*
X127159142Y-36155333D01*
X127111523Y-36060095D01*
X127111523Y-35964857D01*
X127159142Y-35869619D01*
X127206761Y-35822000D01*
X127302000Y-35774380D01*
X127540095Y-35774380D01*
X127682952Y-35822000D01*
X127968666Y-35774380D02*
X128540095Y-35774380D01*
X128254380Y-36774380D02*
X128254380Y-35774380D01*
X128873428Y-36774380D02*
X128873428Y-35774380D01*
X129206761Y-36488666D01*
X129540095Y-35774380D01*
X129540095Y-36774380D01*
X129921047Y-35774380D02*
X130540095Y-35774380D01*
X130206761Y-36155333D01*
X130349619Y-36155333D01*
X130444857Y-36202952D01*
X130492476Y-36250571D01*
X130540095Y-36345809D01*
X130540095Y-36583904D01*
X130492476Y-36679142D01*
X130444857Y-36726761D01*
X130349619Y-36774380D01*
X130063904Y-36774380D01*
X129968666Y-36726761D01*
X129921047Y-36679142D01*
X130921047Y-35869619D02*
X130968666Y-35822000D01*
X131063904Y-35774380D01*
X131302000Y-35774380D01*
X131397238Y-35822000D01*
X131444857Y-35869619D01*
X131492476Y-35964857D01*
X131492476Y-36060095D01*
X131444857Y-36202952D01*
X130873428Y-36774380D01*
X131492476Y-36774380D01*
X131921047Y-36774380D02*
X131921047Y-35774380D01*
X131921047Y-36250571D02*
X132492476Y-36250571D01*
X132492476Y-36774380D02*
X132492476Y-35774380D01*
X132873428Y-35774380D02*
X133540095Y-35774380D01*
X133111523Y-36774380D01*
D12*
X72110266Y-39127866D02*
X72110266Y-38427866D01*
X72110266Y-38761200D02*
X72510266Y-38761200D01*
X72510266Y-39127866D02*
X72510266Y-38427866D01*
X75343600Y-38461200D02*
X75276933Y-38427866D01*
X75176933Y-38427866D01*
X75076933Y-38461200D01*
X75010266Y-38527866D01*
X74976933Y-38594533D01*
X74943600Y-38727866D01*
X74943600Y-38827866D01*
X74976933Y-38961200D01*
X75010266Y-39027866D01*
X75076933Y-39094533D01*
X75176933Y-39127866D01*
X75243600Y-39127866D01*
X75343600Y-39094533D01*
X75376933Y-39061200D01*
X75376933Y-38827866D01*
X75243600Y-38827866D01*
X75676933Y-39127866D02*
X75676933Y-38427866D01*
X76076933Y-39127866D01*
X76076933Y-38427866D01*
X76410266Y-39127866D02*
X76410266Y-38427866D01*
X76576933Y-38427866D01*
X76676933Y-38461200D01*
X76743600Y-38527866D01*
X76776933Y-38594533D01*
X76810266Y-38727866D01*
X76810266Y-38827866D01*
X76776933Y-38961200D01*
X76743600Y-39027866D01*
X76676933Y-39094533D01*
X76576933Y-39127866D01*
X76410266Y-39127866D01*
X79576933Y-39127866D02*
X79243600Y-39127866D01*
X79243600Y-38427866D01*
X87164533Y-39029466D02*
X87497866Y-39029466D01*
X87097866Y-39229466D02*
X87331200Y-38529466D01*
X87564533Y-39229466D01*
X90297866Y-38562800D02*
X90231200Y-38529466D01*
X90131200Y-38529466D01*
X90031200Y-38562800D01*
X89964533Y-38629466D01*
X89931200Y-38696133D01*
X89897866Y-38829466D01*
X89897866Y-38929466D01*
X89931200Y-39062800D01*
X89964533Y-39129466D01*
X90031200Y-39196133D01*
X90131200Y-39229466D01*
X90197866Y-39229466D01*
X90297866Y-39196133D01*
X90331200Y-39162800D01*
X90331200Y-38929466D01*
X90197866Y-38929466D01*
X90631200Y-39229466D02*
X90631200Y-38529466D01*
X91031200Y-39229466D01*
X91031200Y-38529466D01*
X91364533Y-39229466D02*
X91364533Y-38529466D01*
X91531200Y-38529466D01*
X91631200Y-38562800D01*
X91697866Y-38629466D01*
X91731200Y-38696133D01*
X91764533Y-38829466D01*
X91764533Y-38929466D01*
X91731200Y-39062800D01*
X91697866Y-39129466D01*
X91631200Y-39196133D01*
X91531200Y-39229466D01*
X91364533Y-39229466D01*
X94431200Y-38862800D02*
X94531200Y-38896133D01*
X94564533Y-38929466D01*
X94597866Y-38996133D01*
X94597866Y-39096133D01*
X94564533Y-39162800D01*
X94531200Y-39196133D01*
X94464533Y-39229466D01*
X94197866Y-39229466D01*
X94197866Y-38529466D01*
X94431200Y-38529466D01*
X94497866Y-38562800D01*
X94531200Y-38596133D01*
X94564533Y-38662800D01*
X94564533Y-38729466D01*
X94531200Y-38796133D01*
X94497866Y-38829466D01*
X94431200Y-38862800D01*
X94197866Y-38862800D01*
X74471400Y-40178800D02*
X74438066Y-40212133D01*
X74338066Y-40245466D01*
X74271400Y-40245466D01*
X74171400Y-40212133D01*
X74104733Y-40145466D01*
X74071400Y-40078800D01*
X74038066Y-39945466D01*
X74038066Y-39845466D01*
X74071400Y-39712133D01*
X74104733Y-39645466D01*
X74171400Y-39578800D01*
X74271400Y-39545466D01*
X74338066Y-39545466D01*
X74438066Y-39578800D01*
X74471400Y-39612133D01*
X74738066Y-40045466D02*
X75071400Y-40045466D01*
X74671400Y-40245466D02*
X74904733Y-39545466D01*
X75138066Y-40245466D01*
X75371400Y-40245466D02*
X75371400Y-39545466D01*
X75771400Y-40245466D01*
X75771400Y-39545466D01*
X76338066Y-39878800D02*
X76438066Y-39912133D01*
X76471400Y-39945466D01*
X76504733Y-40012133D01*
X76504733Y-40112133D01*
X76471400Y-40178800D01*
X76438066Y-40212133D01*
X76371400Y-40245466D01*
X76104733Y-40245466D01*
X76104733Y-39545466D01*
X76338066Y-39545466D01*
X76404733Y-39578800D01*
X76438066Y-39612133D01*
X76471400Y-39678800D01*
X76471400Y-39745466D01*
X76438066Y-39812133D01*
X76404733Y-39845466D01*
X76338066Y-39878800D01*
X76104733Y-39878800D01*
X76804733Y-39545466D02*
X76804733Y-40112133D01*
X76838066Y-40178800D01*
X76871400Y-40212133D01*
X76938066Y-40245466D01*
X77071400Y-40245466D01*
X77138066Y-40212133D01*
X77171400Y-40178800D01*
X77204733Y-40112133D01*
X77204733Y-39545466D01*
X77504733Y-40212133D02*
X77604733Y-40245466D01*
X77771400Y-40245466D01*
X77838066Y-40212133D01*
X77871400Y-40178800D01*
X77904733Y-40112133D01*
X77904733Y-40045466D01*
X77871400Y-39978800D01*
X77838066Y-39945466D01*
X77771400Y-39912133D01*
X77638066Y-39878800D01*
X77571400Y-39845466D01*
X77538066Y-39812133D01*
X77504733Y-39745466D01*
X77504733Y-39678800D01*
X77538066Y-39612133D01*
X77571400Y-39578800D01*
X77638066Y-39545466D01*
X77804733Y-39545466D01*
X77904733Y-39578800D01*
X89509000Y-40245466D02*
X89275666Y-39912133D01*
X89109000Y-40245466D02*
X89109000Y-39545466D01*
X89375666Y-39545466D01*
X89442333Y-39578800D01*
X89475666Y-39612133D01*
X89509000Y-39678800D01*
X89509000Y-39778800D01*
X89475666Y-39845466D01*
X89442333Y-39878800D01*
X89375666Y-39912133D01*
X89109000Y-39912133D01*
X89775666Y-40212133D02*
X89875666Y-40245466D01*
X90042333Y-40245466D01*
X90109000Y-40212133D01*
X90142333Y-40178800D01*
X90175666Y-40112133D01*
X90175666Y-40045466D01*
X90142333Y-39978800D01*
X90109000Y-39945466D01*
X90042333Y-39912133D01*
X89909000Y-39878800D01*
X89842333Y-39845466D01*
X89809000Y-39812133D01*
X89775666Y-39745466D01*
X89775666Y-39678800D01*
X89809000Y-39612133D01*
X89842333Y-39578800D01*
X89909000Y-39545466D01*
X90075666Y-39545466D01*
X90175666Y-39578800D01*
X90475666Y-39978800D02*
X91009000Y-39978800D01*
X91642333Y-39778800D02*
X91642333Y-40245466D01*
X91475666Y-39512133D02*
X91309000Y-40012133D01*
X91742333Y-40012133D01*
X92109000Y-39845466D02*
X92042333Y-39812133D01*
X92009000Y-39778800D01*
X91975666Y-39712133D01*
X91975666Y-39678800D01*
X92009000Y-39612133D01*
X92042333Y-39578800D01*
X92109000Y-39545466D01*
X92242333Y-39545466D01*
X92309000Y-39578800D01*
X92342333Y-39612133D01*
X92375666Y-39678800D01*
X92375666Y-39712133D01*
X92342333Y-39778800D01*
X92309000Y-39812133D01*
X92242333Y-39845466D01*
X92109000Y-39845466D01*
X92042333Y-39878800D01*
X92009000Y-39912133D01*
X91975666Y-39978800D01*
X91975666Y-40112133D01*
X92009000Y-40178800D01*
X92042333Y-40212133D01*
X92109000Y-40245466D01*
X92242333Y-40245466D01*
X92309000Y-40212133D01*
X92342333Y-40178800D01*
X92375666Y-40112133D01*
X92375666Y-39978800D01*
X92342333Y-39912133D01*
X92309000Y-39878800D01*
X92242333Y-39845466D01*
X93009000Y-39545466D02*
X92675666Y-39545466D01*
X92642333Y-39878800D01*
X92675666Y-39845466D01*
X92742333Y-39812133D01*
X92909000Y-39812133D01*
X92975666Y-39845466D01*
X93009000Y-39878800D01*
X93042333Y-39945466D01*
X93042333Y-40112133D01*
X93009000Y-40178800D01*
X92975666Y-40212133D01*
X92909000Y-40245466D01*
X92742333Y-40245466D01*
X92675666Y-40212133D01*
X92642333Y-40178800D01*
D11*
X181107666Y-60535466D02*
X181107666Y-61102133D01*
X181141000Y-61168800D01*
X181174333Y-61202133D01*
X181241000Y-61235466D01*
X181374333Y-61235466D01*
X181441000Y-61202133D01*
X181474333Y-61168800D01*
X181507666Y-61102133D01*
X181507666Y-60535466D01*
X181807666Y-61202133D02*
X181907666Y-61235466D01*
X182074333Y-61235466D01*
X182141000Y-61202133D01*
X182174333Y-61168800D01*
X182207666Y-61102133D01*
X182207666Y-61035466D01*
X182174333Y-60968800D01*
X182141000Y-60935466D01*
X182074333Y-60902133D01*
X181941000Y-60868800D01*
X181874333Y-60835466D01*
X181841000Y-60802133D01*
X181807666Y-60735466D01*
X181807666Y-60668800D01*
X181841000Y-60602133D01*
X181874333Y-60568800D01*
X181941000Y-60535466D01*
X182107666Y-60535466D01*
X182207666Y-60568800D01*
X182741000Y-60868800D02*
X182841000Y-60902133D01*
X182874333Y-60935466D01*
X182907666Y-61002133D01*
X182907666Y-61102133D01*
X182874333Y-61168800D01*
X182841000Y-61202133D01*
X182774333Y-61235466D01*
X182507666Y-61235466D01*
X182507666Y-60535466D01*
X182741000Y-60535466D01*
X182807666Y-60568800D01*
X182841000Y-60602133D01*
X182874333Y-60668800D01*
X182874333Y-60735466D01*
X182841000Y-60802133D01*
X182807666Y-60835466D01*
X182741000Y-60868800D01*
X182507666Y-60868800D01*
X180824333Y-62435466D02*
X180824333Y-61735466D01*
X180824333Y-62068800D02*
X181224333Y-62068800D01*
X181224333Y-62435466D02*
X181224333Y-61735466D01*
X181691000Y-61735466D02*
X181824333Y-61735466D01*
X181891000Y-61768800D01*
X181957666Y-61835466D01*
X181991000Y-61968800D01*
X181991000Y-62202133D01*
X181957666Y-62335466D01*
X181891000Y-62402133D01*
X181824333Y-62435466D01*
X181691000Y-62435466D01*
X181624333Y-62402133D01*
X181557666Y-62335466D01*
X181524333Y-62202133D01*
X181524333Y-61968800D01*
X181557666Y-61835466D01*
X181624333Y-61768800D01*
X181691000Y-61735466D01*
X182257666Y-62402133D02*
X182357666Y-62435466D01*
X182524333Y-62435466D01*
X182591000Y-62402133D01*
X182624333Y-62368800D01*
X182657666Y-62302133D01*
X182657666Y-62235466D01*
X182624333Y-62168800D01*
X182591000Y-62135466D01*
X182524333Y-62102133D01*
X182391000Y-62068800D01*
X182324333Y-62035466D01*
X182291000Y-62002133D01*
X182257666Y-61935466D01*
X182257666Y-61868800D01*
X182291000Y-61802133D01*
X182324333Y-61768800D01*
X182391000Y-61735466D01*
X182557666Y-61735466D01*
X182657666Y-61768800D01*
X182857666Y-61735466D02*
X183257666Y-61735466D01*
X183057666Y-62435466D02*
X183057666Y-61735466D01*
X163476826Y-44197706D02*
X163476826Y-43497706D01*
X163643493Y-43497706D01*
X163743493Y-43531040D01*
X163810160Y-43597706D01*
X163843493Y-43664373D01*
X163876826Y-43797706D01*
X163876826Y-43897706D01*
X163843493Y-44031040D01*
X163810160Y-44097706D01*
X163743493Y-44164373D01*
X163643493Y-44197706D01*
X163476826Y-44197706D01*
X164176826Y-43831040D02*
X164410160Y-43831040D01*
X164510160Y-44197706D02*
X164176826Y-44197706D01*
X164176826Y-43497706D01*
X164510160Y-43497706D01*
X164710160Y-43497706D02*
X164943493Y-44197706D01*
X165176826Y-43497706D01*
X165410160Y-44197706D02*
X165410160Y-43497706D01*
X166143493Y-44131040D02*
X166110160Y-44164373D01*
X166010160Y-44197706D01*
X165943493Y-44197706D01*
X165843493Y-44164373D01*
X165776826Y-44097706D01*
X165743493Y-44031040D01*
X165710160Y-43897706D01*
X165710160Y-43797706D01*
X165743493Y-43664373D01*
X165776826Y-43597706D01*
X165843493Y-43531040D01*
X165943493Y-43497706D01*
X166010160Y-43497706D01*
X166110160Y-43531040D01*
X166143493Y-43564373D01*
X166443493Y-43831040D02*
X166676826Y-43831040D01*
X166776826Y-44197706D02*
X166443493Y-44197706D01*
X166443493Y-43497706D01*
X166776826Y-43497706D01*
X179370233Y-44141826D02*
X179370233Y-43441826D01*
X179536900Y-43441826D01*
X179636900Y-43475160D01*
X179703566Y-43541826D01*
X179736900Y-43608493D01*
X179770233Y-43741826D01*
X179770233Y-43841826D01*
X179736900Y-43975160D01*
X179703566Y-44041826D01*
X179636900Y-44108493D01*
X179536900Y-44141826D01*
X179370233Y-44141826D01*
X180070233Y-43775160D02*
X180303566Y-43775160D01*
X180403566Y-44141826D02*
X180070233Y-44141826D01*
X180070233Y-43441826D01*
X180403566Y-43441826D01*
X180936900Y-43775160D02*
X181036900Y-43808493D01*
X181070233Y-43841826D01*
X181103566Y-43908493D01*
X181103566Y-44008493D01*
X181070233Y-44075160D01*
X181036900Y-44108493D01*
X180970233Y-44141826D01*
X180703566Y-44141826D01*
X180703566Y-43441826D01*
X180936900Y-43441826D01*
X181003566Y-43475160D01*
X181036900Y-43508493D01*
X181070233Y-43575160D01*
X181070233Y-43641826D01*
X181036900Y-43708493D01*
X181003566Y-43741826D01*
X180936900Y-43775160D01*
X180703566Y-43775160D01*
X181403566Y-43441826D02*
X181403566Y-44008493D01*
X181436900Y-44075160D01*
X181470233Y-44108493D01*
X181536900Y-44141826D01*
X181670233Y-44141826D01*
X181736900Y-44108493D01*
X181770233Y-44075160D01*
X181803566Y-44008493D01*
X181803566Y-43441826D01*
X182503566Y-43475160D02*
X182436900Y-43441826D01*
X182336900Y-43441826D01*
X182236900Y-43475160D01*
X182170233Y-43541826D01*
X182136900Y-43608493D01*
X182103566Y-43741826D01*
X182103566Y-43841826D01*
X182136900Y-43975160D01*
X182170233Y-44041826D01*
X182236900Y-44108493D01*
X182336900Y-44141826D01*
X182403566Y-44141826D01*
X182503566Y-44108493D01*
X182536900Y-44075160D01*
X182536900Y-43841826D01*
X182403566Y-43841826D01*
X106694600Y-81808580D02*
X106218409Y-81808580D01*
X106218409Y-80808580D01*
X107027933Y-81284771D02*
X107361266Y-81284771D01*
X107504123Y-81808580D02*
X107027933Y-81808580D01*
X107027933Y-80808580D01*
X107504123Y-80808580D01*
X107932695Y-81808580D02*
X107932695Y-80808580D01*
X108170790Y-80808580D01*
X108313647Y-80856200D01*
X108408885Y-80951438D01*
X108456504Y-81046676D01*
X108504123Y-81237152D01*
X108504123Y-81380009D01*
X108456504Y-81570485D01*
X108408885Y-81665723D01*
X108313647Y-81760961D01*
X108170790Y-81808580D01*
X107932695Y-81808580D01*
X109694600Y-81808580D02*
X109694600Y-80808580D01*
X110075552Y-80808580D01*
X110170790Y-80856200D01*
X110218409Y-80903819D01*
X110266028Y-80999057D01*
X110266028Y-81141914D01*
X110218409Y-81237152D01*
X110170790Y-81284771D01*
X110075552Y-81332390D01*
X109694600Y-81332390D01*
X111266028Y-81713342D02*
X111218409Y-81760961D01*
X111075552Y-81808580D01*
X110980314Y-81808580D01*
X110837457Y-81760961D01*
X110742219Y-81665723D01*
X110694600Y-81570485D01*
X110646980Y-81380009D01*
X110646980Y-81237152D01*
X110694600Y-81046676D01*
X110742219Y-80951438D01*
X110837457Y-80856200D01*
X110980314Y-80808580D01*
X111075552Y-80808580D01*
X111218409Y-80856200D01*
X111266028Y-80903819D01*
X111646980Y-80903819D02*
X111694600Y-80856200D01*
X111789838Y-80808580D01*
X112027933Y-80808580D01*
X112123171Y-80856200D01*
X112170790Y-80903819D01*
X112218409Y-80999057D01*
X112218409Y-81094295D01*
X112170790Y-81237152D01*
X111599361Y-81808580D01*
X112218409Y-81808580D01*
X154243257Y-80043780D02*
X154243257Y-79043780D01*
X154576590Y-79758066D01*
X154909923Y-79043780D01*
X154909923Y-80043780D01*
X155957542Y-79948542D02*
X155909923Y-79996161D01*
X155767066Y-80043780D01*
X155671828Y-80043780D01*
X155528971Y-79996161D01*
X155433733Y-79900923D01*
X155386114Y-79805685D01*
X155338495Y-79615209D01*
X155338495Y-79472352D01*
X155386114Y-79281876D01*
X155433733Y-79186638D01*
X155528971Y-79091400D01*
X155671828Y-79043780D01*
X155767066Y-79043780D01*
X155909923Y-79091400D01*
X155957542Y-79139019D01*
X156386114Y-79043780D02*
X156386114Y-79853304D01*
X156433733Y-79948542D01*
X156481352Y-79996161D01*
X156576590Y-80043780D01*
X156767066Y-80043780D01*
X156862304Y-79996161D01*
X156909923Y-79948542D01*
X156957542Y-79853304D01*
X156957542Y-79043780D01*
X155052780Y-81693780D02*
X154719447Y-81217590D01*
X154481352Y-81693780D02*
X154481352Y-80693780D01*
X154862304Y-80693780D01*
X154957542Y-80741400D01*
X155005161Y-80789019D01*
X155052780Y-80884257D01*
X155052780Y-81027114D01*
X155005161Y-81122352D01*
X154957542Y-81169971D01*
X154862304Y-81217590D01*
X154481352Y-81217590D01*
X155433733Y-81646161D02*
X155576590Y-81693780D01*
X155814685Y-81693780D01*
X155909923Y-81646161D01*
X155957542Y-81598542D01*
X156005161Y-81503304D01*
X156005161Y-81408066D01*
X155957542Y-81312828D01*
X155909923Y-81265209D01*
X155814685Y-81217590D01*
X155624209Y-81169971D01*
X155528971Y-81122352D01*
X155481352Y-81074733D01*
X155433733Y-80979495D01*
X155433733Y-80884257D01*
X155481352Y-80789019D01*
X155528971Y-80741400D01*
X155624209Y-80693780D01*
X155862304Y-80693780D01*
X156005161Y-80741400D01*
X156290876Y-80693780D02*
X156862304Y-80693780D01*
X156576590Y-81693780D02*
X156576590Y-80693780D01*
X127063904Y-38203142D02*
X127016285Y-38250761D01*
X126873428Y-38298380D01*
X126778190Y-38298380D01*
X126635333Y-38250761D01*
X126540095Y-38155523D01*
X126492476Y-38060285D01*
X126444857Y-37869809D01*
X126444857Y-37726952D01*
X126492476Y-37536476D01*
X126540095Y-37441238D01*
X126635333Y-37346000D01*
X126778190Y-37298380D01*
X126873428Y-37298380D01*
X127016285Y-37346000D01*
X127063904Y-37393619D01*
X127635333Y-38298380D02*
X127540095Y-38250761D01*
X127492476Y-38203142D01*
X127444857Y-38107904D01*
X127444857Y-37822190D01*
X127492476Y-37726952D01*
X127540095Y-37679333D01*
X127635333Y-37631714D01*
X127778190Y-37631714D01*
X127873428Y-37679333D01*
X127921047Y-37726952D01*
X127968666Y-37822190D01*
X127968666Y-38107904D01*
X127921047Y-38203142D01*
X127873428Y-38250761D01*
X127778190Y-38298380D01*
X127635333Y-38298380D01*
X128397238Y-38298380D02*
X128397238Y-37631714D01*
X128397238Y-37822190D02*
X128444857Y-37726952D01*
X128492476Y-37679333D01*
X128587714Y-37631714D01*
X128682952Y-37631714D01*
X128873428Y-37631714D02*
X129254380Y-37631714D01*
X129016285Y-37298380D02*
X129016285Y-38155523D01*
X129063904Y-38250761D01*
X129159142Y-38298380D01*
X129254380Y-38298380D01*
X129968666Y-38250761D02*
X129873428Y-38298380D01*
X129682952Y-38298380D01*
X129587714Y-38250761D01*
X129540095Y-38155523D01*
X129540095Y-37774571D01*
X129587714Y-37679333D01*
X129682952Y-37631714D01*
X129873428Y-37631714D01*
X129968666Y-37679333D01*
X130016285Y-37774571D01*
X130016285Y-37869809D01*
X129540095Y-37965047D01*
X130349619Y-38298380D02*
X130873428Y-37631714D01*
X130349619Y-37631714D02*
X130873428Y-38298380D01*
X131254380Y-37917428D02*
X132016285Y-37917428D01*
X132492476Y-38298380D02*
X132492476Y-37298380D01*
X132825809Y-38012666D01*
X133159142Y-37298380D01*
X133159142Y-38298380D01*
X133540095Y-37298380D02*
X134206761Y-37298380D01*
X133778190Y-38298380D01*
X62992000Y-82550000D02*
G75*
G02X58674000Y-78232000I0J4318000D01*
G01*
X58674000Y-32258000D02*
G75*
G02X62992000Y-27940000I4318000J0D01*
G01*
X189992000Y-27940000D02*
G75*
G02X194310000Y-32258000I0J-4318000D01*
G01*
X194310000Y-78232000D02*
G75*
G02X189992000Y-82550000I-4318000J0D01*
G01*
X62992000Y-27940000D02*
X189992000Y-27940000D01*
X58674000Y-32258000D02*
X58674000Y-78232000D01*
X62992000Y-82550000D02*
X189992000Y-82550000D01*
X194310000Y-32258000D02*
X194310000Y-78232000D01*
X79930761Y-65746380D02*
X80264095Y-66746380D01*
X80597428Y-65746380D01*
X80930761Y-66746380D02*
X80930761Y-65746380D01*
X81406952Y-66746380D02*
X81406952Y-65746380D01*
X81978380Y-66746380D01*
X81978380Y-65746380D01*
D13*
X86693940Y-49400962D02*
X86693940Y-49918118D01*
X88113940Y-49400962D02*
X88113940Y-49918118D01*
X75950578Y-54154000D02*
X75433422Y-54154000D01*
X75950578Y-55574000D02*
X75433422Y-55574000D01*
X74344600Y-46156378D02*
X74344600Y-45639222D01*
X72924600Y-46156378D02*
X72924600Y-45639222D01*
X78637200Y-46207178D02*
X78637200Y-45690022D01*
X77217200Y-46207178D02*
X77217200Y-45690022D01*
X94603640Y-46049698D02*
X94603640Y-45532542D01*
X93183640Y-46049698D02*
X93183640Y-45532542D01*
X91266778Y-44146400D02*
X90749622Y-44146400D01*
X91266778Y-45566400D02*
X90749622Y-45566400D01*
X87453400Y-45489362D02*
X87453400Y-46006518D01*
X88873400Y-45489362D02*
X88873400Y-46006518D01*
X141670460Y-40472000D02*
X141560460Y-40472000D01*
X154430460Y-39312000D02*
X154430460Y-40472000D01*
X154430460Y-40472000D02*
X143170460Y-40472000D01*
X141560460Y-40472000D02*
X141560460Y-38662000D01*
X154430460Y-36062000D02*
X154430460Y-30462000D01*
X141560460Y-36762000D02*
X141560460Y-30462000D01*
X76498520Y-46199558D02*
X76498520Y-45682402D01*
X75078520Y-46199558D02*
X75078520Y-45682402D01*
X148394922Y-62152600D02*
X148912078Y-62152600D01*
X148394922Y-60732600D02*
X148912078Y-60732600D01*
D12*
X178991000Y-82741400D02*
X178991000Y-82241400D01*
X178991000Y-82741400D02*
X179491000Y-82741400D01*
X184991000Y-82741400D02*
X184491000Y-82741400D01*
X184991000Y-82741400D02*
X184991000Y-82241400D01*
X184991000Y-62841400D02*
X184991000Y-63341400D01*
X184991000Y-62841400D02*
X184491000Y-62841400D01*
X178991000Y-62841400D02*
X179491000Y-62841400D01*
X178991000Y-62841400D02*
X178991000Y-63341400D01*
D13*
X77385820Y-52675360D02*
X77385820Y-50875360D01*
X74165820Y-50875360D02*
X74165820Y-53325360D01*
X175405140Y-74337340D02*
X175405140Y-76787340D01*
X178625140Y-76137340D02*
X178625140Y-74337340D01*
X177271178Y-68809800D02*
X176754022Y-68809800D01*
X177271178Y-70229800D02*
X176754022Y-70229800D01*
X176756562Y-78985180D02*
X177273718Y-78985180D01*
X176756562Y-77565180D02*
X177273718Y-77565180D01*
X101678740Y-40195500D02*
X101678740Y-38925500D01*
X102948740Y-40195500D02*
X101678740Y-40195500D01*
X105868740Y-37882571D02*
X105868740Y-37485500D01*
X105108740Y-37882571D02*
X105108740Y-37485500D01*
X105868740Y-28825500D02*
X105868740Y-34825500D01*
X105108740Y-28825500D02*
X105868740Y-28825500D01*
X105108740Y-34825500D02*
X105108740Y-28825500D01*
X104218740Y-37485500D02*
X104218740Y-34825500D01*
X103328740Y-37815500D02*
X103328740Y-37485500D01*
X102568740Y-37815500D02*
X102568740Y-37485500D01*
X103228740Y-34825500D02*
X103228740Y-28825500D01*
X103108740Y-34825500D02*
X103108740Y-28825500D01*
X102988740Y-34825500D02*
X102988740Y-28825500D01*
X102868740Y-34825500D02*
X102868740Y-28825500D01*
X102748740Y-34825500D02*
X102748740Y-28825500D01*
X102628740Y-34825500D02*
X102628740Y-28825500D01*
X103328740Y-28825500D02*
X103328740Y-34825500D01*
X102568740Y-28825500D02*
X103328740Y-28825500D01*
X102568740Y-34825500D02*
X102568740Y-28825500D01*
X101618740Y-34825500D02*
X101618740Y-37485500D01*
X106818740Y-34825500D02*
X101618740Y-34825500D01*
X106818740Y-37485500D02*
X106818740Y-34825500D01*
X101618740Y-37485500D02*
X106818740Y-37485500D01*
X92770000Y-71120000D02*
X92770000Y-72450000D01*
X92770000Y-72450000D02*
X91440000Y-72450000D01*
X92770000Y-69850000D02*
X90170000Y-69850000D01*
X90170000Y-69850000D02*
X90170000Y-72450000D01*
X90170000Y-72450000D02*
X79950000Y-72450000D01*
X79950000Y-67250000D02*
X79950000Y-72450000D01*
X92770000Y-67250000D02*
X79950000Y-67250000D01*
X92770000Y-67250000D02*
X92770000Y-69850000D01*
X92770000Y-78740000D02*
X92770000Y-80070000D01*
X92770000Y-80070000D02*
X91440000Y-80070000D01*
X92770000Y-77470000D02*
X90170000Y-77470000D01*
X90170000Y-77470000D02*
X90170000Y-80070000D01*
X90170000Y-80070000D02*
X79950000Y-80070000D01*
X79950000Y-74870000D02*
X79950000Y-80070000D01*
X92770000Y-74870000D02*
X79950000Y-74870000D01*
X92770000Y-74870000D02*
X92770000Y-77470000D01*
X172472860Y-38702420D02*
X172472860Y-42602420D01*
X170472860Y-38702420D02*
X170472860Y-42602420D01*
X172472860Y-38702420D02*
X170472860Y-38702420D01*
X71599300Y-67013260D02*
X71599300Y-70913260D01*
X69599300Y-67013260D02*
X69599300Y-70913260D01*
X71599300Y-67013260D02*
X69599300Y-67013260D01*
X170472860Y-34408940D02*
X170472860Y-30508940D01*
X172472860Y-34408940D02*
X172472860Y-30508940D01*
X170472860Y-34408940D02*
X172472860Y-34408940D01*
X179003580Y-43866780D02*
X178503580Y-43366780D01*
X178003580Y-43866780D02*
X179003580Y-43866780D01*
X178503580Y-43366780D02*
X178003580Y-43866780D01*
X185913580Y-26426780D02*
X185913580Y-34786780D01*
X173593580Y-26426780D02*
X185913580Y-26426780D01*
X173593580Y-34786780D02*
X173593580Y-26426780D01*
X185913580Y-43146780D02*
X185913580Y-38886780D01*
X173593580Y-43146780D02*
X185913580Y-43146780D01*
X173593580Y-38886780D02*
X173593580Y-43146780D01*
X162455480Y-43866780D02*
X161955480Y-43366780D01*
X161455480Y-43866780D02*
X162455480Y-43866780D01*
X161955480Y-43366780D02*
X161455480Y-43866780D01*
X169365480Y-26426780D02*
X169365480Y-34786780D01*
X157045480Y-26426780D02*
X169365480Y-26426780D01*
X157045480Y-34786780D02*
X157045480Y-26426780D01*
X169365480Y-43146780D02*
X169365480Y-38886780D01*
X157045480Y-43146780D02*
X169365480Y-43146780D01*
X157045480Y-38886780D02*
X157045480Y-43146780D01*
D11*
X161132560Y-53043500D02*
X165582560Y-53043500D01*
X159607560Y-46143500D02*
X165582560Y-46143500D01*
D13*
X178086060Y-44080120D02*
X178086060Y-45410120D01*
X176756060Y-44080120D02*
X178086060Y-44080120D01*
X178086060Y-46680120D02*
X178086060Y-49280120D01*
X175486060Y-46680120D02*
X178086060Y-46680120D01*
X175486060Y-44080120D02*
X175486060Y-46680120D01*
X178086060Y-49280120D02*
X170346060Y-49280120D01*
X175486060Y-44080120D02*
X170346060Y-44080120D01*
X170346060Y-44080120D02*
X170346060Y-49280120D01*
X102372500Y-79167000D02*
X102372500Y-78937000D01*
X102892500Y-82837000D02*
X95172500Y-82837000D01*
X95172500Y-82837000D02*
X95172500Y-78937000D01*
X102892500Y-75827000D02*
X102372500Y-75827000D01*
X102892500Y-82837000D02*
X102892500Y-78937000D01*
X95692500Y-79167000D02*
X95692500Y-78937000D01*
X102372500Y-76337000D02*
X102372500Y-75827000D01*
X102892500Y-76337000D02*
X102892500Y-75827000D01*
X96232500Y-79167000D02*
X95692500Y-79167000D01*
X95692500Y-76337000D02*
X95692500Y-75827000D01*
X95692500Y-75827000D02*
X95172500Y-75827000D01*
X95172500Y-76337000D02*
X95172500Y-75827000D01*
X102372500Y-79167000D02*
X101832500Y-79167000D01*
X100732500Y-79167000D02*
X97332500Y-79167000D01*
D14*
G36*
X144601202Y-46973259D02*
G01*
X144787352Y-46997219D01*
X144967421Y-47039447D01*
X145138027Y-47099951D01*
X145189850Y-47123071D01*
X145342499Y-47207554D01*
X145484534Y-47312196D01*
X145615561Y-47436446D01*
X145735183Y-47579757D01*
X145843006Y-47741578D01*
X145938634Y-47921361D01*
X146021672Y-48118557D01*
X146091725Y-48332617D01*
X146110618Y-48401835D01*
X146138456Y-48512902D01*
X146162610Y-48619608D01*
X146183422Y-48724880D01*
X146201232Y-48831648D01*
X146216384Y-48942839D01*
X146229218Y-49061381D01*
X146240076Y-49190203D01*
X146249300Y-49332232D01*
X146257231Y-49490398D01*
X146264211Y-49667627D01*
X146266643Y-49739291D01*
X146270391Y-49901279D01*
X146271709Y-50077423D01*
X146270708Y-50261841D01*
X146267500Y-50448654D01*
X146262197Y-50631982D01*
X146254912Y-50805944D01*
X146245755Y-50964662D01*
X146242413Y-51011744D01*
X146224984Y-51193662D01*
X146200123Y-51378165D01*
X146168907Y-51559105D01*
X146132415Y-51730333D01*
X146091723Y-51885700D01*
X146085548Y-51906517D01*
X146010906Y-52124570D01*
X145924402Y-52322877D01*
X145825879Y-52501598D01*
X145715179Y-52660893D01*
X145592144Y-52800920D01*
X145456617Y-52921840D01*
X145308439Y-53023811D01*
X145147453Y-53106993D01*
X144973501Y-53171546D01*
X144788543Y-53217224D01*
X144743708Y-53223623D01*
X144681874Y-53229447D01*
X144608591Y-53234471D01*
X144529408Y-53238468D01*
X144449874Y-53241210D01*
X144375537Y-53242472D01*
X144311946Y-53242027D01*
X144264651Y-53239649D01*
X144257452Y-53238900D01*
X144141374Y-53221535D01*
X144022791Y-53197310D01*
X143912537Y-53168544D01*
X143877072Y-53157555D01*
X143709080Y-53090918D01*
X143552149Y-53004294D01*
X143406625Y-52898154D01*
X143272858Y-52772966D01*
X143151196Y-52629201D01*
X143041986Y-52467328D01*
X142945577Y-52287816D01*
X142862317Y-52091136D01*
X142792554Y-51877757D01*
X142736636Y-51648148D01*
X142728739Y-51608605D01*
X142710041Y-51504962D01*
X142693662Y-51398067D01*
X142679363Y-51285212D01*
X142666903Y-51163685D01*
X142656044Y-51030776D01*
X142646546Y-50883776D01*
X142638170Y-50719974D01*
X142630675Y-50536660D01*
X142628438Y-50473833D01*
X142624235Y-50303051D01*
X142622898Y-50122655D01*
X142624281Y-49936366D01*
X142628238Y-49747910D01*
X142634621Y-49561008D01*
X142643285Y-49379385D01*
X142654084Y-49206763D01*
X142666871Y-49046866D01*
X142681500Y-48903417D01*
X142693921Y-48806562D01*
X142737096Y-48561049D01*
X142794082Y-48331294D01*
X142864578Y-48117798D01*
X142948286Y-47921062D01*
X143044906Y-47741588D01*
X143154138Y-47579876D01*
X143275684Y-47436428D01*
X143409242Y-47311745D01*
X143554515Y-47206327D01*
X143697498Y-47127152D01*
X143863367Y-47059912D01*
X144040051Y-47010893D01*
X144224171Y-46980105D01*
X144412348Y-46967558D01*
X144601202Y-46973259D01*
X144601202Y-46973259D01*
G37*
X144601202Y-46973259D02*
X144787352Y-46997219D01*
X144967421Y-47039447D01*
X145138027Y-47099951D01*
X145189850Y-47123071D01*
X145342499Y-47207554D01*
X145484534Y-47312196D01*
X145615561Y-47436446D01*
X145735183Y-47579757D01*
X145843006Y-47741578D01*
X145938634Y-47921361D01*
X146021672Y-48118557D01*
X146091725Y-48332617D01*
X146110618Y-48401835D01*
X146138456Y-48512902D01*
X146162610Y-48619608D01*
X146183422Y-48724880D01*
X146201232Y-48831648D01*
X146216384Y-48942839D01*
X146229218Y-49061381D01*
X146240076Y-49190203D01*
X146249300Y-49332232D01*
X146257231Y-49490398D01*
X146264211Y-49667627D01*
X146266643Y-49739291D01*
X146270391Y-49901279D01*
X146271709Y-50077423D01*
X146270708Y-50261841D01*
X146267500Y-50448654D01*
X146262197Y-50631982D01*
X146254912Y-50805944D01*
X146245755Y-50964662D01*
X146242413Y-51011744D01*
X146224984Y-51193662D01*
X146200123Y-51378165D01*
X146168907Y-51559105D01*
X146132415Y-51730333D01*
X146091723Y-51885700D01*
X146085548Y-51906517D01*
X146010906Y-52124570D01*
X145924402Y-52322877D01*
X145825879Y-52501598D01*
X145715179Y-52660893D01*
X145592144Y-52800920D01*
X145456617Y-52921840D01*
X145308439Y-53023811D01*
X145147453Y-53106993D01*
X144973501Y-53171546D01*
X144788543Y-53217224D01*
X144743708Y-53223623D01*
X144681874Y-53229447D01*
X144608591Y-53234471D01*
X144529408Y-53238468D01*
X144449874Y-53241210D01*
X144375537Y-53242472D01*
X144311946Y-53242027D01*
X144264651Y-53239649D01*
X144257452Y-53238900D01*
X144141374Y-53221535D01*
X144022791Y-53197310D01*
X143912537Y-53168544D01*
X143877072Y-53157555D01*
X143709080Y-53090918D01*
X143552149Y-53004294D01*
X143406625Y-52898154D01*
X143272858Y-52772966D01*
X143151196Y-52629201D01*
X143041986Y-52467328D01*
X142945577Y-52287816D01*
X142862317Y-52091136D01*
X142792554Y-51877757D01*
X142736636Y-51648148D01*
X142728739Y-51608605D01*
X142710041Y-51504962D01*
X142693662Y-51398067D01*
X142679363Y-51285212D01*
X142666903Y-51163685D01*
X142656044Y-51030776D01*
X142646546Y-50883776D01*
X142638170Y-50719974D01*
X142630675Y-50536660D01*
X142628438Y-50473833D01*
X142624235Y-50303051D01*
X142622898Y-50122655D01*
X142624281Y-49936366D01*
X142628238Y-49747910D01*
X142634621Y-49561008D01*
X142643285Y-49379385D01*
X142654084Y-49206763D01*
X142666871Y-49046866D01*
X142681500Y-48903417D01*
X142693921Y-48806562D01*
X142737096Y-48561049D01*
X142794082Y-48331294D01*
X142864578Y-48117798D01*
X142948286Y-47921062D01*
X143044906Y-47741588D01*
X143154138Y-47579876D01*
X143275684Y-47436428D01*
X143409242Y-47311745D01*
X143554515Y-47206327D01*
X143697498Y-47127152D01*
X143863367Y-47059912D01*
X144040051Y-47010893D01*
X144224171Y-46980105D01*
X144412348Y-46967558D01*
X144601202Y-46973259D01*
G36*
X144875433Y-45654308D02*
G01*
X145172502Y-45694192D01*
X145213916Y-45701553D01*
X145521203Y-45769417D01*
X145820250Y-45858851D01*
X146111058Y-45969855D01*
X146393627Y-46102430D01*
X146667959Y-46256577D01*
X146934054Y-46432295D01*
X147191914Y-46629586D01*
X147218861Y-46651844D01*
X147288018Y-46712205D01*
X147367421Y-46786210D01*
X147452828Y-46869521D01*
X147539994Y-46957805D01*
X147624677Y-47046726D01*
X147702632Y-47131949D01*
X147769616Y-47209138D01*
X147796697Y-47242153D01*
X147993490Y-47505130D01*
X148168701Y-47775798D01*
X148322576Y-48054738D01*
X148455356Y-48342531D01*
X148567287Y-48639757D01*
X148658611Y-48946999D01*
X148729573Y-49264837D01*
X148779437Y-49585880D01*
X148788791Y-49682477D01*
X148795603Y-49796805D01*
X148799901Y-49923798D01*
X148801708Y-50058392D01*
X148801052Y-50195521D01*
X148797959Y-50330119D01*
X148792453Y-50457122D01*
X148784562Y-50571465D01*
X148774310Y-50668082D01*
X148773899Y-50671153D01*
X148719676Y-50996816D01*
X148646442Y-51309906D01*
X148553774Y-51611552D01*
X148441244Y-51902884D01*
X148308429Y-52185032D01*
X148154902Y-52459128D01*
X148024645Y-52661959D01*
X147848346Y-52903338D01*
X147654241Y-53134865D01*
X147445425Y-53353253D01*
X147224999Y-53555212D01*
X147047768Y-53698634D01*
X147009131Y-53727386D01*
X146977774Y-53749290D01*
X146957821Y-53761547D01*
X146952937Y-53763032D01*
X146953659Y-53750534D01*
X146959928Y-53722145D01*
X146970388Y-53684009D01*
X146970398Y-53683974D01*
X147000210Y-53565806D01*
X147026101Y-53427265D01*
X147047761Y-53270785D01*
X147064883Y-53098799D01*
X147077158Y-52913740D01*
X147081839Y-52804176D01*
X147089715Y-52576153D01*
X147020329Y-52576153D01*
X147012521Y-52731723D01*
X147000270Y-52905778D01*
X146981685Y-53070969D01*
X146957320Y-53223788D01*
X146927731Y-53360729D01*
X146895302Y-53472874D01*
X146852981Y-53583369D01*
X146804356Y-53677774D01*
X146745238Y-53762991D01*
X146671435Y-53845925D01*
X146664830Y-53852609D01*
X146571349Y-53938688D01*
X146482016Y-54003920D01*
X146394229Y-54049538D01*
X146305386Y-54076778D01*
X146212888Y-54086874D01*
X146172533Y-54086309D01*
X146116083Y-54082168D01*
X146072864Y-54074415D01*
X146033050Y-54060709D01*
X145999352Y-54045032D01*
X145902247Y-53984166D01*
X145813007Y-53902773D01*
X145732574Y-53802352D01*
X145661888Y-53684406D01*
X145601890Y-53550433D01*
X145553519Y-53401935D01*
X145527526Y-53292333D01*
X145514191Y-53226644D01*
X145506422Y-53179220D01*
X145505916Y-53145562D01*
X145514371Y-53121171D01*
X145533483Y-53101547D01*
X145564949Y-53082190D01*
X145610465Y-53058602D01*
X145616920Y-53055289D01*
X145697356Y-53010947D01*
X145788580Y-52955717D01*
X145884011Y-52893930D01*
X145977069Y-52829916D01*
X146061175Y-52768005D01*
X146100164Y-52737287D01*
X146173817Y-52673887D01*
X146255680Y-52597331D01*
X146340341Y-52513106D01*
X146422387Y-52426700D01*
X146496405Y-52343602D01*
X146538682Y-52292670D01*
X146699224Y-52073692D01*
X146841127Y-51842039D01*
X146964035Y-51599142D01*
X147067590Y-51346436D01*
X147151433Y-51085352D01*
X147215207Y-50817323D01*
X147258554Y-50543781D01*
X147281116Y-50266160D01*
X147282535Y-49985891D01*
X147262454Y-49704408D01*
X147235024Y-49505062D01*
X147179285Y-49233415D01*
X147103743Y-48970261D01*
X147009108Y-48716744D01*
X146896092Y-48474008D01*
X146765406Y-48243199D01*
X146617761Y-48025459D01*
X146453868Y-47821934D01*
X146274439Y-47633768D01*
X146080185Y-47462105D01*
X145871816Y-47308090D01*
X145868043Y-47305555D01*
X145786326Y-47254656D01*
X145688886Y-47200247D01*
X145582121Y-47145448D01*
X145472426Y-47093377D01*
X145366198Y-47047155D01*
X145269834Y-47009901D01*
X145242711Y-47000578D01*
X145016745Y-46937710D01*
X144784438Y-46896185D01*
X144548438Y-46876075D01*
X144311390Y-46877454D01*
X144075942Y-46900393D01*
X143844740Y-46944966D01*
X143784089Y-46960529D01*
X143566745Y-47030773D01*
X143352498Y-47122453D01*
X143144000Y-47233918D01*
X142943905Y-47363515D01*
X142754866Y-47509594D01*
X142579536Y-47670504D01*
X142487431Y-47767471D01*
X142309416Y-47981659D01*
X142151043Y-48207708D01*
X142012567Y-48444940D01*
X141894241Y-48692676D01*
X141796319Y-48950236D01*
X141719055Y-49216941D01*
X141662702Y-49492113D01*
X141627515Y-49775073D01*
X141613747Y-50065141D01*
X141613543Y-50105426D01*
X141623089Y-50388177D01*
X141652082Y-50660010D01*
X141701056Y-50923251D01*
X141770543Y-51180226D01*
X141861076Y-51433262D01*
X141973188Y-51684685D01*
X141977234Y-51692926D01*
X142100226Y-51921292D01*
X142236237Y-52132377D01*
X142387486Y-52329307D01*
X142556191Y-52515210D01*
X142571622Y-52530820D01*
X142760311Y-52705031D01*
X142959484Y-52859169D01*
X143168484Y-52992877D01*
X143386654Y-53105801D01*
X143613334Y-53197585D01*
X143847868Y-53267872D01*
X143994311Y-53300002D01*
X144052996Y-53310718D01*
X144103941Y-53318715D01*
X144152399Y-53324391D01*
X144203621Y-53328147D01*
X144262859Y-53330380D01*
X144335365Y-53331491D01*
X144413316Y-53331855D01*
X144493715Y-53331606D01*
X144571878Y-53330607D01*
X144642893Y-53328979D01*
X144701851Y-53326840D01*
X144743840Y-53324310D01*
X144751021Y-53323640D01*
X144834725Y-53314901D01*
X144834735Y-53387140D01*
X144838726Y-53499136D01*
X144849898Y-53623940D01*
X144867085Y-53753130D01*
X144889123Y-53878286D01*
X144914847Y-53990990D01*
X144921733Y-54016284D01*
X144948664Y-54097165D01*
X144984174Y-54182886D01*
X145025240Y-54267480D01*
X145068841Y-54344978D01*
X145111953Y-54409413D01*
X145135489Y-54438387D01*
X145162904Y-54470651D01*
X145181898Y-54496247D01*
X145189175Y-54510634D01*
X145188814Y-54511912D01*
X145173141Y-54517545D01*
X145138130Y-54524580D01*
X145087460Y-54532563D01*
X145024809Y-54541038D01*
X144953856Y-54549549D01*
X144878280Y-54557639D01*
X144801758Y-54564852D01*
X144727969Y-54570734D01*
X144698121Y-54572732D01*
X144587117Y-54578826D01*
X144491219Y-54582020D01*
X144402637Y-54582399D01*
X144313577Y-54580043D01*
X144257452Y-54577394D01*
X143935972Y-54549067D01*
X143622011Y-54498962D01*
X143315919Y-54427219D01*
X143018043Y-54333977D01*
X142728732Y-54219376D01*
X142448334Y-54083557D01*
X142177197Y-53926660D01*
X141915670Y-53748823D01*
X141664101Y-53550189D01*
X141631306Y-53522120D01*
X141546036Y-53445116D01*
X141452277Y-53354698D01*
X141355103Y-53256144D01*
X141259589Y-53154729D01*
X141170807Y-53055729D01*
X141093832Y-52964419D01*
X141087887Y-52957045D01*
X140893239Y-52696459D01*
X140718903Y-52424957D01*
X140565092Y-52142996D01*
X140432022Y-51851032D01*
X140319909Y-51549523D01*
X140228967Y-51238925D01*
X140180960Y-51030687D01*
X140130403Y-50732001D01*
X140100068Y-50425415D01*
X140089952Y-50114177D01*
X140100056Y-49801534D01*
X140130378Y-49490731D01*
X140180917Y-49185017D01*
X140181577Y-49181736D01*
X140254528Y-48876237D01*
X140348157Y-48578874D01*
X140461625Y-48290545D01*
X140594093Y-48012148D01*
X140744721Y-47744583D01*
X140912669Y-47488747D01*
X141097099Y-47245540D01*
X141297170Y-47015858D01*
X141512044Y-46800602D01*
X141740880Y-46600669D01*
X141982839Y-46416957D01*
X142237082Y-46250366D01*
X142502770Y-46101794D01*
X142779062Y-45972138D01*
X143065120Y-45862298D01*
X143360103Y-45773172D01*
X143368452Y-45770991D01*
X143662829Y-45705880D01*
X143963686Y-45661544D01*
X144268054Y-45638096D01*
X144572959Y-45635646D01*
X144875433Y-45654308D01*
X144875433Y-45654308D01*
G37*
X144875433Y-45654308D02*
X145172502Y-45694192D01*
X145213916Y-45701553D01*
X145521203Y-45769417D01*
X145820250Y-45858851D01*
X146111058Y-45969855D01*
X146393627Y-46102430D01*
X146667959Y-46256577D01*
X146934054Y-46432295D01*
X147191914Y-46629586D01*
X147218861Y-46651844D01*
X147288018Y-46712205D01*
X147367421Y-46786210D01*
X147452828Y-46869521D01*
X147539994Y-46957805D01*
X147624677Y-47046726D01*
X147702632Y-47131949D01*
X147769616Y-47209138D01*
X147796697Y-47242153D01*
X147993490Y-47505130D01*
X148168701Y-47775798D01*
X148322576Y-48054738D01*
X148455356Y-48342531D01*
X148567287Y-48639757D01*
X148658611Y-48946999D01*
X148729573Y-49264837D01*
X148779437Y-49585880D01*
X148788791Y-49682477D01*
X148795603Y-49796805D01*
X148799901Y-49923798D01*
X148801708Y-50058392D01*
X148801052Y-50195521D01*
X148797959Y-50330119D01*
X148792453Y-50457122D01*
X148784562Y-50571465D01*
X148774310Y-50668082D01*
X148773899Y-50671153D01*
X148719676Y-50996816D01*
X148646442Y-51309906D01*
X148553774Y-51611552D01*
X148441244Y-51902884D01*
X148308429Y-52185032D01*
X148154902Y-52459128D01*
X148024645Y-52661959D01*
X147848346Y-52903338D01*
X147654241Y-53134865D01*
X147445425Y-53353253D01*
X147224999Y-53555212D01*
X147047768Y-53698634D01*
X147009131Y-53727386D01*
X146977774Y-53749290D01*
X146957821Y-53761547D01*
X146952937Y-53763032D01*
X146953659Y-53750534D01*
X146959928Y-53722145D01*
X146970388Y-53684009D01*
X146970398Y-53683974D01*
X147000210Y-53565806D01*
X147026101Y-53427265D01*
X147047761Y-53270785D01*
X147064883Y-53098799D01*
X147077158Y-52913740D01*
X147081839Y-52804176D01*
X147089715Y-52576153D01*
X147020329Y-52576153D01*
X147012521Y-52731723D01*
X147000270Y-52905778D01*
X146981685Y-53070969D01*
X146957320Y-53223788D01*
X146927731Y-53360729D01*
X146895302Y-53472874D01*
X146852981Y-53583369D01*
X146804356Y-53677774D01*
X146745238Y-53762991D01*
X146671435Y-53845925D01*
X146664830Y-53852609D01*
X146571349Y-53938688D01*
X146482016Y-54003920D01*
X146394229Y-54049538D01*
X146305386Y-54076778D01*
X146212888Y-54086874D01*
X146172533Y-54086309D01*
X146116083Y-54082168D01*
X146072864Y-54074415D01*
X146033050Y-54060709D01*
X145999352Y-54045032D01*
X145902247Y-53984166D01*
X145813007Y-53902773D01*
X145732574Y-53802352D01*
X145661888Y-53684406D01*
X145601890Y-53550433D01*
X145553519Y-53401935D01*
X145527526Y-53292333D01*
X145514191Y-53226644D01*
X145506422Y-53179220D01*
X145505916Y-53145562D01*
X145514371Y-53121171D01*
X145533483Y-53101547D01*
X145564949Y-53082190D01*
X145610465Y-53058602D01*
X145616920Y-53055289D01*
X145697356Y-53010947D01*
X145788580Y-52955717D01*
X145884011Y-52893930D01*
X145977069Y-52829916D01*
X146061175Y-52768005D01*
X146100164Y-52737287D01*
X146173817Y-52673887D01*
X146255680Y-52597331D01*
X146340341Y-52513106D01*
X146422387Y-52426700D01*
X146496405Y-52343602D01*
X146538682Y-52292670D01*
X146699224Y-52073692D01*
X146841127Y-51842039D01*
X146964035Y-51599142D01*
X147067590Y-51346436D01*
X147151433Y-51085352D01*
X147215207Y-50817323D01*
X147258554Y-50543781D01*
X147281116Y-50266160D01*
X147282535Y-49985891D01*
X147262454Y-49704408D01*
X147235024Y-49505062D01*
X147179285Y-49233415D01*
X147103743Y-48970261D01*
X147009108Y-48716744D01*
X146896092Y-48474008D01*
X146765406Y-48243199D01*
X146617761Y-48025459D01*
X146453868Y-47821934D01*
X146274439Y-47633768D01*
X146080185Y-47462105D01*
X145871816Y-47308090D01*
X145868043Y-47305555D01*
X145786326Y-47254656D01*
X145688886Y-47200247D01*
X145582121Y-47145448D01*
X145472426Y-47093377D01*
X145366198Y-47047155D01*
X145269834Y-47009901D01*
X145242711Y-47000578D01*
X145016745Y-46937710D01*
X144784438Y-46896185D01*
X144548438Y-46876075D01*
X144311390Y-46877454D01*
X144075942Y-46900393D01*
X143844740Y-46944966D01*
X143784089Y-46960529D01*
X143566745Y-47030773D01*
X143352498Y-47122453D01*
X143144000Y-47233918D01*
X142943905Y-47363515D01*
X142754866Y-47509594D01*
X142579536Y-47670504D01*
X142487431Y-47767471D01*
X142309416Y-47981659D01*
X142151043Y-48207708D01*
X142012567Y-48444940D01*
X141894241Y-48692676D01*
X141796319Y-48950236D01*
X141719055Y-49216941D01*
X141662702Y-49492113D01*
X141627515Y-49775073D01*
X141613747Y-50065141D01*
X141613543Y-50105426D01*
X141623089Y-50388177D01*
X141652082Y-50660010D01*
X141701056Y-50923251D01*
X141770543Y-51180226D01*
X141861076Y-51433262D01*
X141973188Y-51684685D01*
X141977234Y-51692926D01*
X142100226Y-51921292D01*
X142236237Y-52132377D01*
X142387486Y-52329307D01*
X142556191Y-52515210D01*
X142571622Y-52530820D01*
X142760311Y-52705031D01*
X142959484Y-52859169D01*
X143168484Y-52992877D01*
X143386654Y-53105801D01*
X143613334Y-53197585D01*
X143847868Y-53267872D01*
X143994311Y-53300002D01*
X144052996Y-53310718D01*
X144103941Y-53318715D01*
X144152399Y-53324391D01*
X144203621Y-53328147D01*
X144262859Y-53330380D01*
X144335365Y-53331491D01*
X144413316Y-53331855D01*
X144493715Y-53331606D01*
X144571878Y-53330607D01*
X144642893Y-53328979D01*
X144701851Y-53326840D01*
X144743840Y-53324310D01*
X144751021Y-53323640D01*
X144834725Y-53314901D01*
X144834735Y-53387140D01*
X144838726Y-53499136D01*
X144849898Y-53623940D01*
X144867085Y-53753130D01*
X144889123Y-53878286D01*
X144914847Y-53990990D01*
X144921733Y-54016284D01*
X144948664Y-54097165D01*
X144984174Y-54182886D01*
X145025240Y-54267480D01*
X145068841Y-54344978D01*
X145111953Y-54409413D01*
X145135489Y-54438387D01*
X145162904Y-54470651D01*
X145181898Y-54496247D01*
X145189175Y-54510634D01*
X145188814Y-54511912D01*
X145173141Y-54517545D01*
X145138130Y-54524580D01*
X145087460Y-54532563D01*
X145024809Y-54541038D01*
X144953856Y-54549549D01*
X144878280Y-54557639D01*
X144801758Y-54564852D01*
X144727969Y-54570734D01*
X144698121Y-54572732D01*
X144587117Y-54578826D01*
X144491219Y-54582020D01*
X144402637Y-54582399D01*
X144313577Y-54580043D01*
X144257452Y-54577394D01*
X143935972Y-54549067D01*
X143622011Y-54498962D01*
X143315919Y-54427219D01*
X143018043Y-54333977D01*
X142728732Y-54219376D01*
X142448334Y-54083557D01*
X142177197Y-53926660D01*
X141915670Y-53748823D01*
X141664101Y-53550189D01*
X141631306Y-53522120D01*
X141546036Y-53445116D01*
X141452277Y-53354698D01*
X141355103Y-53256144D01*
X141259589Y-53154729D01*
X141170807Y-53055729D01*
X141093832Y-52964419D01*
X141087887Y-52957045D01*
X140893239Y-52696459D01*
X140718903Y-52424957D01*
X140565092Y-52142996D01*
X140432022Y-51851032D01*
X140319909Y-51549523D01*
X140228967Y-51238925D01*
X140180960Y-51030687D01*
X140130403Y-50732001D01*
X140100068Y-50425415D01*
X140089952Y-50114177D01*
X140100056Y-49801534D01*
X140130378Y-49490731D01*
X140180917Y-49185017D01*
X140181577Y-49181736D01*
X140254528Y-48876237D01*
X140348157Y-48578874D01*
X140461625Y-48290545D01*
X140594093Y-48012148D01*
X140744721Y-47744583D01*
X140912669Y-47488747D01*
X141097099Y-47245540D01*
X141297170Y-47015858D01*
X141512044Y-46800602D01*
X141740880Y-46600669D01*
X141982839Y-46416957D01*
X142237082Y-46250366D01*
X142502770Y-46101794D01*
X142779062Y-45972138D01*
X143065120Y-45862298D01*
X143360103Y-45773172D01*
X143368452Y-45770991D01*
X143662829Y-45705880D01*
X143963686Y-45661544D01*
X144268054Y-45638096D01*
X144572959Y-45635646D01*
X144875433Y-45654308D01*
G36*
X106671533Y-57116133D02*
G01*
X98001667Y-57116133D01*
X98001667Y-53217587D01*
X98416611Y-53217587D01*
X98420144Y-53227962D01*
X98429714Y-53250276D01*
X98443874Y-53281278D01*
X98461175Y-53317719D01*
X98461713Y-53318833D01*
X98554035Y-53490827D01*
X98662055Y-53657914D01*
X98785124Y-53819597D01*
X98922591Y-53975378D01*
X99073805Y-54124760D01*
X99238118Y-54267246D01*
X99414877Y-54402339D01*
X99603434Y-54529540D01*
X99803137Y-54648354D01*
X100013337Y-54758283D01*
X100233382Y-54858829D01*
X100462624Y-54949495D01*
X100698300Y-55029129D01*
X100992617Y-55111617D01*
X101291812Y-55177986D01*
X101595419Y-55228186D01*
X101902969Y-55262166D01*
X102213994Y-55279873D01*
X102528028Y-55281257D01*
X102844602Y-55266268D01*
X102857300Y-55265328D01*
X103150026Y-55236322D01*
X103434305Y-55193698D01*
X103712320Y-55137022D01*
X103986249Y-55065859D01*
X104211967Y-54995517D01*
X104458865Y-54905751D01*
X104694776Y-54805729D01*
X104919251Y-54695778D01*
X105131842Y-54576223D01*
X105332099Y-54447390D01*
X105519575Y-54309605D01*
X105693819Y-54163193D01*
X105854384Y-54008481D01*
X106000820Y-53845794D01*
X106132679Y-53675458D01*
X106229322Y-53530768D01*
X106246196Y-53502463D01*
X106266725Y-53466194D01*
X106289469Y-53424718D01*
X106312989Y-53380790D01*
X106335843Y-53337167D01*
X106356592Y-53296606D01*
X106373797Y-53261863D01*
X106386016Y-53235694D01*
X106391810Y-53220857D01*
X106392086Y-53219209D01*
X106386199Y-53221725D01*
X106370198Y-53233505D01*
X106346632Y-53252575D01*
X106322283Y-53273280D01*
X106145182Y-53416572D01*
X105953829Y-53552057D01*
X105749119Y-53679496D01*
X105531948Y-53798652D01*
X105303210Y-53909285D01*
X105063802Y-54011158D01*
X104814618Y-54104032D01*
X104556554Y-54187669D01*
X104290505Y-54261830D01*
X104017367Y-54326278D01*
X103738036Y-54380773D01*
X103453405Y-54425078D01*
X103164372Y-54458954D01*
X102871830Y-54482162D01*
X102576676Y-54494465D01*
X102279805Y-54495624D01*
X101982113Y-54485401D01*
X101810677Y-54474257D01*
X101500273Y-54444340D01*
X101195146Y-54402536D01*
X100896213Y-54349130D01*
X100604391Y-54284407D01*
X100320598Y-54208651D01*
X100045751Y-54122148D01*
X99780768Y-54025182D01*
X99526566Y-53918037D01*
X99284063Y-53800998D01*
X99054176Y-53674351D01*
X98875607Y-53563452D01*
X98788320Y-53504686D01*
X98703179Y-53444446D01*
X98622900Y-53384783D01*
X98550195Y-53327750D01*
X98487778Y-53275400D01*
X98452516Y-53243448D01*
X98433539Y-53226749D01*
X98420530Y-53217634D01*
X98416611Y-53217587D01*
X98001667Y-53217587D01*
X98001667Y-52674028D01*
X101439133Y-52674028D01*
X101447190Y-52675671D01*
X101469720Y-52677119D01*
X101504266Y-52678294D01*
X101548368Y-52679122D01*
X101599568Y-52679527D01*
X101619050Y-52679555D01*
X101798966Y-52679510D01*
X102057200Y-51968400D01*
X102095347Y-51863500D01*
X102131902Y-51763266D01*
X102166446Y-51668826D01*
X102198564Y-51581307D01*
X102227837Y-51501839D01*
X102253848Y-51431548D01*
X102276180Y-51371564D01*
X102294415Y-51323014D01*
X102308136Y-51287025D01*
X102316925Y-51264727D01*
X102320351Y-51257245D01*
X102323893Y-51265014D01*
X102332763Y-51287585D01*
X102346545Y-51323827D01*
X102364823Y-51372614D01*
X102387178Y-51432816D01*
X102413196Y-51503306D01*
X102442460Y-51582954D01*
X102474553Y-51670632D01*
X102509058Y-51765212D01*
X102545560Y-51865566D01*
X102582818Y-51968293D01*
X102840367Y-52679385D01*
X103033971Y-52679493D01*
X103096087Y-52679450D01*
X103143247Y-52679142D01*
X103177428Y-52678416D01*
X103200606Y-52677117D01*
X103214759Y-52675092D01*
X103221862Y-52672187D01*
X103223894Y-52668250D01*
X103223353Y-52664783D01*
X103219831Y-52654577D01*
X103210940Y-52629649D01*
X103197062Y-52591050D01*
X103178580Y-52539828D01*
X103155876Y-52477035D01*
X103129331Y-52403721D01*
X103099327Y-52320936D01*
X103066247Y-52229730D01*
X103030473Y-52131153D01*
X102992387Y-52026257D01*
X102952371Y-51916090D01*
X102910807Y-51801704D01*
X102868076Y-51684148D01*
X102824562Y-51564474D01*
X102780646Y-51443730D01*
X102736709Y-51322967D01*
X102693136Y-51203236D01*
X102650306Y-51085587D01*
X102608603Y-50971070D01*
X102568408Y-50860735D01*
X102530103Y-50755633D01*
X102525035Y-50741732D01*
X102905784Y-50741732D01*
X103244294Y-51674682D01*
X103288288Y-51795933D01*
X103330837Y-51913200D01*
X103371564Y-52025447D01*
X103410095Y-52131639D01*
X103446052Y-52230741D01*
X103479061Y-52321718D01*
X103508746Y-52403533D01*
X103534731Y-52475151D01*
X103556641Y-52535538D01*
X103574099Y-52583657D01*
X103586731Y-52618473D01*
X103594160Y-52638951D01*
X103595852Y-52643617D01*
X103608900Y-52679600D01*
X103995889Y-52679600D01*
X103972013Y-52613983D01*
X103966357Y-52598423D01*
X103955267Y-52567895D01*
X103939088Y-52523349D01*
X103918164Y-52465735D01*
X103892840Y-52396001D01*
X103863460Y-52315098D01*
X103830370Y-52223973D01*
X103793915Y-52123578D01*
X103754438Y-52014860D01*
X103712284Y-51898770D01*
X103667799Y-51776256D01*
X103621328Y-51648268D01*
X103573214Y-51515756D01*
X103537745Y-51418067D01*
X104063800Y-51418067D01*
X104063800Y-51782133D01*
X104707266Y-51782133D01*
X104707266Y-51418067D01*
X104063800Y-51418067D01*
X103537745Y-51418067D01*
X103526216Y-51386317D01*
X103477284Y-51251646D01*
X103429890Y-51121395D01*
X103384358Y-50996447D01*
X103341012Y-50877683D01*
X103300176Y-50765987D01*
X103262175Y-50662239D01*
X103227333Y-50567322D01*
X103195974Y-50482119D01*
X103168423Y-50407511D01*
X103145003Y-50344380D01*
X103126039Y-50293610D01*
X103111855Y-50256081D01*
X103102775Y-50232676D01*
X103099124Y-50224278D01*
X103099097Y-50224267D01*
X103095060Y-50231923D01*
X103086019Y-50253644D01*
X103072692Y-50287558D01*
X103055797Y-50331793D01*
X103036053Y-50384475D01*
X103014177Y-50443733D01*
X102999842Y-50482999D01*
X102905784Y-50741732D01*
X102525035Y-50741732D01*
X102494071Y-50656814D01*
X102460694Y-50565327D01*
X102430353Y-50482224D01*
X102403431Y-50408555D01*
X102380310Y-50345369D01*
X102361371Y-50293717D01*
X102346997Y-50254650D01*
X102337570Y-50229217D01*
X102335683Y-50224266D01*
X104698800Y-50224266D01*
X104698800Y-50571270D01*
X105215332Y-50573451D01*
X105731865Y-50575633D01*
X105355181Y-51227567D01*
X104978498Y-51879500D01*
X104978349Y-52281243D01*
X104978466Y-52362927D01*
X104978861Y-52438414D01*
X104979506Y-52506163D01*
X104980374Y-52564632D01*
X104981436Y-52612279D01*
X104982664Y-52647563D01*
X104984032Y-52668940D01*
X104985455Y-52674943D01*
X104990409Y-52666848D01*
X105003372Y-52644850D01*
X105023900Y-52609722D01*
X105051545Y-52562231D01*
X105085862Y-52503148D01*
X105126406Y-52433244D01*
X105172731Y-52353287D01*
X105224390Y-52264048D01*
X105280940Y-52166297D01*
X105341933Y-52060803D01*
X105406924Y-51948337D01*
X105475467Y-51829668D01*
X105547117Y-51705566D01*
X105621429Y-51576801D01*
X105693462Y-51451933D01*
X105769832Y-51319524D01*
X105843920Y-51191069D01*
X105915285Y-51067338D01*
X105983484Y-50949098D01*
X106048072Y-50837118D01*
X106108606Y-50732165D01*
X106164645Y-50635008D01*
X106215744Y-50546416D01*
X106261461Y-50467156D01*
X106301353Y-50397997D01*
X106334975Y-50339707D01*
X106361886Y-50293054D01*
X106381642Y-50258806D01*
X106393800Y-50237732D01*
X106397907Y-50230616D01*
X106390150Y-50229733D01*
X106366584Y-50228886D01*
X106328332Y-50228084D01*
X106276519Y-50227335D01*
X106212267Y-50226648D01*
X106136701Y-50226031D01*
X106050945Y-50225493D01*
X105956123Y-50225042D01*
X105853358Y-50224686D01*
X105743774Y-50224433D01*
X105628496Y-50224293D01*
X105550200Y-50224266D01*
X104698800Y-50224266D01*
X102335683Y-50224266D01*
X102333473Y-50218469D01*
X102333332Y-50218177D01*
X102330226Y-50225678D01*
X102321729Y-50248054D01*
X102308221Y-50284260D01*
X102290084Y-50333252D01*
X102267697Y-50393985D01*
X102241442Y-50465414D01*
X102211697Y-50546495D01*
X102178845Y-50636182D01*
X102143264Y-50733432D01*
X102105336Y-50837199D01*
X102065441Y-50946438D01*
X102023959Y-51060106D01*
X101981271Y-51177158D01*
X101937756Y-51296548D01*
X101893796Y-51417232D01*
X101849771Y-51538166D01*
X101806061Y-51658304D01*
X101763046Y-51776602D01*
X101721107Y-51892016D01*
X101680624Y-52003500D01*
X101641978Y-52110011D01*
X101605549Y-52210502D01*
X101571718Y-52303931D01*
X101540864Y-52389251D01*
X101513368Y-52465419D01*
X101489611Y-52531389D01*
X101469973Y-52586117D01*
X101454834Y-52628558D01*
X101444574Y-52657668D01*
X101439575Y-52672401D01*
X101439133Y-52674028D01*
X98001667Y-52674028D01*
X98001667Y-51402221D01*
X98478763Y-51402221D01*
X98479115Y-51479684D01*
X98482344Y-51555694D01*
X98488409Y-51625726D01*
X98497270Y-51685251D01*
X98499807Y-51697467D01*
X98539491Y-51838438D01*
X98593588Y-51971205D01*
X98661305Y-52095010D01*
X98741847Y-52209098D01*
X98834419Y-52312710D01*
X98938229Y-52405090D01*
X99052480Y-52485482D01*
X99176380Y-52553128D01*
X99309135Y-52607271D01*
X99449949Y-52647154D01*
X99508733Y-52659013D01*
X99549102Y-52663894D01*
X99602068Y-52666897D01*
X99663423Y-52668105D01*
X99728960Y-52667604D01*
X99794471Y-52665479D01*
X99855749Y-52661814D01*
X99908586Y-52656694D01*
X99948776Y-52650203D01*
X99949000Y-52650154D01*
X100016487Y-52632897D01*
X100088988Y-52610398D01*
X100160278Y-52584816D01*
X100224129Y-52558307D01*
X100251299Y-52545391D01*
X100306589Y-52515230D01*
X100365872Y-52478893D01*
X100424163Y-52439716D01*
X100476480Y-52401033D01*
X100514626Y-52369136D01*
X100559553Y-52328233D01*
X100229715Y-52138567D01*
X100161205Y-52179743D01*
X100056783Y-52234765D01*
X99952167Y-52274081D01*
X99881351Y-52292017D01*
X99809901Y-52302412D01*
X99730052Y-52306701D01*
X99647369Y-52305072D01*
X99567416Y-52297713D01*
X99495758Y-52284812D01*
X99470633Y-52278133D01*
X99367806Y-52241912D01*
X99276340Y-52196954D01*
X99192210Y-52140828D01*
X99111395Y-52071102D01*
X99085400Y-52045340D01*
X99014836Y-51965669D01*
X98958308Y-51884103D01*
X98913080Y-51796418D01*
X98894356Y-51750315D01*
X98870716Y-51681235D01*
X98854554Y-51617732D01*
X98845009Y-51554212D01*
X98841222Y-51485079D01*
X98842125Y-51410501D01*
X98846516Y-51333627D01*
X98854731Y-51268078D01*
X98868098Y-51208428D01*
X98887949Y-51149253D01*
X98915614Y-51085127D01*
X98928501Y-51058233D01*
X98988987Y-50953349D01*
X99062105Y-50859340D01*
X99146912Y-50776963D01*
X99242462Y-50706977D01*
X99347811Y-50650139D01*
X99462014Y-50607206D01*
X99506411Y-50594975D01*
X99577842Y-50582155D01*
X99659043Y-50575897D01*
X99744201Y-50576132D01*
X99827503Y-50582794D01*
X99903137Y-50595813D01*
X99919168Y-50599787D01*
X99985707Y-50621051D01*
X100056345Y-50649835D01*
X100125457Y-50683469D01*
X100187420Y-50719283D01*
X100224000Y-50744575D01*
X100249185Y-50763111D01*
X100269255Y-50776757D01*
X100280397Y-50782941D01*
X100281083Y-50783067D01*
X100290793Y-50778997D01*
X100312122Y-50767797D01*
X100342486Y-50750982D01*
X100379301Y-50730067D01*
X100419984Y-50706566D01*
X100461952Y-50681994D01*
X100502620Y-50657866D01*
X100539406Y-50635695D01*
X100569725Y-50616998D01*
X100590994Y-50603289D01*
X100600629Y-50596081D01*
X100600933Y-50595546D01*
X100594672Y-50586798D01*
X100577649Y-50569933D01*
X100552504Y-50547183D01*
X100521877Y-50520780D01*
X100488409Y-50492957D01*
X100454739Y-50465946D01*
X100423507Y-50441981D01*
X100397355Y-50423292D01*
X100396684Y-50422841D01*
X100284816Y-50356575D01*
X100163370Y-50300442D01*
X100037311Y-50256457D01*
X99915133Y-50227272D01*
X99852905Y-50218988D01*
X99779761Y-50214078D01*
X99701267Y-50212541D01*
X99622987Y-50214372D01*
X99550487Y-50219567D01*
X99492363Y-50227554D01*
X99352137Y-50261040D01*
X99221050Y-50308418D01*
X99098055Y-50370244D01*
X98982105Y-50447069D01*
X98872153Y-50539450D01*
X98835365Y-50575087D01*
X98740117Y-50680703D01*
X98660111Y-50791763D01*
X98594451Y-50909930D01*
X98542242Y-51036867D01*
X98502586Y-51174237D01*
X98495378Y-51206400D01*
X98486853Y-51261052D01*
X98481329Y-51327835D01*
X98478763Y-51402221D01*
X98001667Y-51402221D01*
X98001667Y-50207333D01*
X100871867Y-50207333D01*
X100871867Y-52654200D01*
X101235933Y-52654200D01*
X101235933Y-50207333D01*
X100871867Y-50207333D01*
X98001667Y-50207333D01*
X98001667Y-48446267D01*
X106671533Y-48446267D01*
X106671533Y-57116133D01*
X106671533Y-57116133D01*
G37*
X106671533Y-57116133D02*
X98001667Y-57116133D01*
X98001667Y-53217587D01*
X98416611Y-53217587D01*
X98420144Y-53227962D01*
X98429714Y-53250276D01*
X98443874Y-53281278D01*
X98461175Y-53317719D01*
X98461713Y-53318833D01*
X98554035Y-53490827D01*
X98662055Y-53657914D01*
X98785124Y-53819597D01*
X98922591Y-53975378D01*
X99073805Y-54124760D01*
X99238118Y-54267246D01*
X99414877Y-54402339D01*
X99603434Y-54529540D01*
X99803137Y-54648354D01*
X100013337Y-54758283D01*
X100233382Y-54858829D01*
X100462624Y-54949495D01*
X100698300Y-55029129D01*
X100992617Y-55111617D01*
X101291812Y-55177986D01*
X101595419Y-55228186D01*
X101902969Y-55262166D01*
X102213994Y-55279873D01*
X102528028Y-55281257D01*
X102844602Y-55266268D01*
X102857300Y-55265328D01*
X103150026Y-55236322D01*
X103434305Y-55193698D01*
X103712320Y-55137022D01*
X103986249Y-55065859D01*
X104211967Y-54995517D01*
X104458865Y-54905751D01*
X104694776Y-54805729D01*
X104919251Y-54695778D01*
X105131842Y-54576223D01*
X105332099Y-54447390D01*
X105519575Y-54309605D01*
X105693819Y-54163193D01*
X105854384Y-54008481D01*
X106000820Y-53845794D01*
X106132679Y-53675458D01*
X106229322Y-53530768D01*
X106246196Y-53502463D01*
X106266725Y-53466194D01*
X106289469Y-53424718D01*
X106312989Y-53380790D01*
X106335843Y-53337167D01*
X106356592Y-53296606D01*
X106373797Y-53261863D01*
X106386016Y-53235694D01*
X106391810Y-53220857D01*
X106392086Y-53219209D01*
X106386199Y-53221725D01*
X106370198Y-53233505D01*
X106346632Y-53252575D01*
X106322283Y-53273280D01*
X106145182Y-53416572D01*
X105953829Y-53552057D01*
X105749119Y-53679496D01*
X105531948Y-53798652D01*
X105303210Y-53909285D01*
X105063802Y-54011158D01*
X104814618Y-54104032D01*
X104556554Y-54187669D01*
X104290505Y-54261830D01*
X104017367Y-54326278D01*
X103738036Y-54380773D01*
X103453405Y-54425078D01*
X103164372Y-54458954D01*
X102871830Y-54482162D01*
X102576676Y-54494465D01*
X102279805Y-54495624D01*
X101982113Y-54485401D01*
X101810677Y-54474257D01*
X101500273Y-54444340D01*
X101195146Y-54402536D01*
X100896213Y-54349130D01*
X100604391Y-54284407D01*
X100320598Y-54208651D01*
X100045751Y-54122148D01*
X99780768Y-54025182D01*
X99526566Y-53918037D01*
X99284063Y-53800998D01*
X99054176Y-53674351D01*
X98875607Y-53563452D01*
X98788320Y-53504686D01*
X98703179Y-53444446D01*
X98622900Y-53384783D01*
X98550195Y-53327750D01*
X98487778Y-53275400D01*
X98452516Y-53243448D01*
X98433539Y-53226749D01*
X98420530Y-53217634D01*
X98416611Y-53217587D01*
X98001667Y-53217587D01*
X98001667Y-52674028D01*
X101439133Y-52674028D01*
X101447190Y-52675671D01*
X101469720Y-52677119D01*
X101504266Y-52678294D01*
X101548368Y-52679122D01*
X101599568Y-52679527D01*
X101619050Y-52679555D01*
X101798966Y-52679510D01*
X102057200Y-51968400D01*
X102095347Y-51863500D01*
X102131902Y-51763266D01*
X102166446Y-51668826D01*
X102198564Y-51581307D01*
X102227837Y-51501839D01*
X102253848Y-51431548D01*
X102276180Y-51371564D01*
X102294415Y-51323014D01*
X102308136Y-51287025D01*
X102316925Y-51264727D01*
X102320351Y-51257245D01*
X102323893Y-51265014D01*
X102332763Y-51287585D01*
X102346545Y-51323827D01*
X102364823Y-51372614D01*
X102387178Y-51432816D01*
X102413196Y-51503306D01*
X102442460Y-51582954D01*
X102474553Y-51670632D01*
X102509058Y-51765212D01*
X102545560Y-51865566D01*
X102582818Y-51968293D01*
X102840367Y-52679385D01*
X103033971Y-52679493D01*
X103096087Y-52679450D01*
X103143247Y-52679142D01*
X103177428Y-52678416D01*
X103200606Y-52677117D01*
X103214759Y-52675092D01*
X103221862Y-52672187D01*
X103223894Y-52668250D01*
X103223353Y-52664783D01*
X103219831Y-52654577D01*
X103210940Y-52629649D01*
X103197062Y-52591050D01*
X103178580Y-52539828D01*
X103155876Y-52477035D01*
X103129331Y-52403721D01*
X103099327Y-52320936D01*
X103066247Y-52229730D01*
X103030473Y-52131153D01*
X102992387Y-52026257D01*
X102952371Y-51916090D01*
X102910807Y-51801704D01*
X102868076Y-51684148D01*
X102824562Y-51564474D01*
X102780646Y-51443730D01*
X102736709Y-51322967D01*
X102693136Y-51203236D01*
X102650306Y-51085587D01*
X102608603Y-50971070D01*
X102568408Y-50860735D01*
X102530103Y-50755633D01*
X102525035Y-50741732D01*
X102905784Y-50741732D01*
X103244294Y-51674682D01*
X103288288Y-51795933D01*
X103330837Y-51913200D01*
X103371564Y-52025447D01*
X103410095Y-52131639D01*
X103446052Y-52230741D01*
X103479061Y-52321718D01*
X103508746Y-52403533D01*
X103534731Y-52475151D01*
X103556641Y-52535538D01*
X103574099Y-52583657D01*
X103586731Y-52618473D01*
X103594160Y-52638951D01*
X103595852Y-52643617D01*
X103608900Y-52679600D01*
X103995889Y-52679600D01*
X103972013Y-52613983D01*
X103966357Y-52598423D01*
X103955267Y-52567895D01*
X103939088Y-52523349D01*
X103918164Y-52465735D01*
X103892840Y-52396001D01*
X103863460Y-52315098D01*
X103830370Y-52223973D01*
X103793915Y-52123578D01*
X103754438Y-52014860D01*
X103712284Y-51898770D01*
X103667799Y-51776256D01*
X103621328Y-51648268D01*
X103573214Y-51515756D01*
X103537745Y-51418067D01*
X104063800Y-51418067D01*
X104063800Y-51782133D01*
X104707266Y-51782133D01*
X104707266Y-51418067D01*
X104063800Y-51418067D01*
X103537745Y-51418067D01*
X103526216Y-51386317D01*
X103477284Y-51251646D01*
X103429890Y-51121395D01*
X103384358Y-50996447D01*
X103341012Y-50877683D01*
X103300176Y-50765987D01*
X103262175Y-50662239D01*
X103227333Y-50567322D01*
X103195974Y-50482119D01*
X103168423Y-50407511D01*
X103145003Y-50344380D01*
X103126039Y-50293610D01*
X103111855Y-50256081D01*
X103102775Y-50232676D01*
X103099124Y-50224278D01*
X103099097Y-50224267D01*
X103095060Y-50231923D01*
X103086019Y-50253644D01*
X103072692Y-50287558D01*
X103055797Y-50331793D01*
X103036053Y-50384475D01*
X103014177Y-50443733D01*
X102999842Y-50482999D01*
X102905784Y-50741732D01*
X102525035Y-50741732D01*
X102494071Y-50656814D01*
X102460694Y-50565327D01*
X102430353Y-50482224D01*
X102403431Y-50408555D01*
X102380310Y-50345369D01*
X102361371Y-50293717D01*
X102346997Y-50254650D01*
X102337570Y-50229217D01*
X102335683Y-50224266D01*
X104698800Y-50224266D01*
X104698800Y-50571270D01*
X105215332Y-50573451D01*
X105731865Y-50575633D01*
X105355181Y-51227567D01*
X104978498Y-51879500D01*
X104978349Y-52281243D01*
X104978466Y-52362927D01*
X104978861Y-52438414D01*
X104979506Y-52506163D01*
X104980374Y-52564632D01*
X104981436Y-52612279D01*
X104982664Y-52647563D01*
X104984032Y-52668940D01*
X104985455Y-52674943D01*
X104990409Y-52666848D01*
X105003372Y-52644850D01*
X105023900Y-52609722D01*
X105051545Y-52562231D01*
X105085862Y-52503148D01*
X105126406Y-52433244D01*
X105172731Y-52353287D01*
X105224390Y-52264048D01*
X105280940Y-52166297D01*
X105341933Y-52060803D01*
X105406924Y-51948337D01*
X105475467Y-51829668D01*
X105547117Y-51705566D01*
X105621429Y-51576801D01*
X105693462Y-51451933D01*
X105769832Y-51319524D01*
X105843920Y-51191069D01*
X105915285Y-51067338D01*
X105983484Y-50949098D01*
X106048072Y-50837118D01*
X106108606Y-50732165D01*
X106164645Y-50635008D01*
X106215744Y-50546416D01*
X106261461Y-50467156D01*
X106301353Y-50397997D01*
X106334975Y-50339707D01*
X106361886Y-50293054D01*
X106381642Y-50258806D01*
X106393800Y-50237732D01*
X106397907Y-50230616D01*
X106390150Y-50229733D01*
X106366584Y-50228886D01*
X106328332Y-50228084D01*
X106276519Y-50227335D01*
X106212267Y-50226648D01*
X106136701Y-50226031D01*
X106050945Y-50225493D01*
X105956123Y-50225042D01*
X105853358Y-50224686D01*
X105743774Y-50224433D01*
X105628496Y-50224293D01*
X105550200Y-50224266D01*
X104698800Y-50224266D01*
X102335683Y-50224266D01*
X102333473Y-50218469D01*
X102333332Y-50218177D01*
X102330226Y-50225678D01*
X102321729Y-50248054D01*
X102308221Y-50284260D01*
X102290084Y-50333252D01*
X102267697Y-50393985D01*
X102241442Y-50465414D01*
X102211697Y-50546495D01*
X102178845Y-50636182D01*
X102143264Y-50733432D01*
X102105336Y-50837199D01*
X102065441Y-50946438D01*
X102023959Y-51060106D01*
X101981271Y-51177158D01*
X101937756Y-51296548D01*
X101893796Y-51417232D01*
X101849771Y-51538166D01*
X101806061Y-51658304D01*
X101763046Y-51776602D01*
X101721107Y-51892016D01*
X101680624Y-52003500D01*
X101641978Y-52110011D01*
X101605549Y-52210502D01*
X101571718Y-52303931D01*
X101540864Y-52389251D01*
X101513368Y-52465419D01*
X101489611Y-52531389D01*
X101469973Y-52586117D01*
X101454834Y-52628558D01*
X101444574Y-52657668D01*
X101439575Y-52672401D01*
X101439133Y-52674028D01*
X98001667Y-52674028D01*
X98001667Y-51402221D01*
X98478763Y-51402221D01*
X98479115Y-51479684D01*
X98482344Y-51555694D01*
X98488409Y-51625726D01*
X98497270Y-51685251D01*
X98499807Y-51697467D01*
X98539491Y-51838438D01*
X98593588Y-51971205D01*
X98661305Y-52095010D01*
X98741847Y-52209098D01*
X98834419Y-52312710D01*
X98938229Y-52405090D01*
X99052480Y-52485482D01*
X99176380Y-52553128D01*
X99309135Y-52607271D01*
X99449949Y-52647154D01*
X99508733Y-52659013D01*
X99549102Y-52663894D01*
X99602068Y-52666897D01*
X99663423Y-52668105D01*
X99728960Y-52667604D01*
X99794471Y-52665479D01*
X99855749Y-52661814D01*
X99908586Y-52656694D01*
X99948776Y-52650203D01*
X99949000Y-52650154D01*
X100016487Y-52632897D01*
X100088988Y-52610398D01*
X100160278Y-52584816D01*
X100224129Y-52558307D01*
X100251299Y-52545391D01*
X100306589Y-52515230D01*
X100365872Y-52478893D01*
X100424163Y-52439716D01*
X100476480Y-52401033D01*
X100514626Y-52369136D01*
X100559553Y-52328233D01*
X100229715Y-52138567D01*
X100161205Y-52179743D01*
X100056783Y-52234765D01*
X99952167Y-52274081D01*
X99881351Y-52292017D01*
X99809901Y-52302412D01*
X99730052Y-52306701D01*
X99647369Y-52305072D01*
X99567416Y-52297713D01*
X99495758Y-52284812D01*
X99470633Y-52278133D01*
X99367806Y-52241912D01*
X99276340Y-52196954D01*
X99192210Y-52140828D01*
X99111395Y-52071102D01*
X99085400Y-52045340D01*
X99014836Y-51965669D01*
X98958308Y-51884103D01*
X98913080Y-51796418D01*
X98894356Y-51750315D01*
X98870716Y-51681235D01*
X98854554Y-51617732D01*
X98845009Y-51554212D01*
X98841222Y-51485079D01*
X98842125Y-51410501D01*
X98846516Y-51333627D01*
X98854731Y-51268078D01*
X98868098Y-51208428D01*
X98887949Y-51149253D01*
X98915614Y-51085127D01*
X98928501Y-51058233D01*
X98988987Y-50953349D01*
X99062105Y-50859340D01*
X99146912Y-50776963D01*
X99242462Y-50706977D01*
X99347811Y-50650139D01*
X99462014Y-50607206D01*
X99506411Y-50594975D01*
X99577842Y-50582155D01*
X99659043Y-50575897D01*
X99744201Y-50576132D01*
X99827503Y-50582794D01*
X99903137Y-50595813D01*
X99919168Y-50599787D01*
X99985707Y-50621051D01*
X100056345Y-50649835D01*
X100125457Y-50683469D01*
X100187420Y-50719283D01*
X100224000Y-50744575D01*
X100249185Y-50763111D01*
X100269255Y-50776757D01*
X100280397Y-50782941D01*
X100281083Y-50783067D01*
X100290793Y-50778997D01*
X100312122Y-50767797D01*
X100342486Y-50750982D01*
X100379301Y-50730067D01*
X100419984Y-50706566D01*
X100461952Y-50681994D01*
X100502620Y-50657866D01*
X100539406Y-50635695D01*
X100569725Y-50616998D01*
X100590994Y-50603289D01*
X100600629Y-50596081D01*
X100600933Y-50595546D01*
X100594672Y-50586798D01*
X100577649Y-50569933D01*
X100552504Y-50547183D01*
X100521877Y-50520780D01*
X100488409Y-50492957D01*
X100454739Y-50465946D01*
X100423507Y-50441981D01*
X100397355Y-50423292D01*
X100396684Y-50422841D01*
X100284816Y-50356575D01*
X100163370Y-50300442D01*
X100037311Y-50256457D01*
X99915133Y-50227272D01*
X99852905Y-50218988D01*
X99779761Y-50214078D01*
X99701267Y-50212541D01*
X99622987Y-50214372D01*
X99550487Y-50219567D01*
X99492363Y-50227554D01*
X99352137Y-50261040D01*
X99221050Y-50308418D01*
X99098055Y-50370244D01*
X98982105Y-50447069D01*
X98872153Y-50539450D01*
X98835365Y-50575087D01*
X98740117Y-50680703D01*
X98660111Y-50791763D01*
X98594451Y-50909930D01*
X98542242Y-51036867D01*
X98502586Y-51174237D01*
X98495378Y-51206400D01*
X98486853Y-51261052D01*
X98481329Y-51327835D01*
X98478763Y-51402221D01*
X98001667Y-51402221D01*
X98001667Y-50207333D01*
X100871867Y-50207333D01*
X100871867Y-52654200D01*
X101235933Y-52654200D01*
X101235933Y-50207333D01*
X100871867Y-50207333D01*
X98001667Y-50207333D01*
X98001667Y-48446267D01*
X106671533Y-48446267D01*
X106671533Y-57116133D01*
D13*
X156605280Y-47171300D02*
X151405280Y-47171300D01*
X156605280Y-49771300D02*
X156605280Y-47171300D01*
X151405280Y-52371300D02*
X151405280Y-47171300D01*
X156605280Y-49771300D02*
X154005280Y-49771300D01*
X154005280Y-49771300D02*
X154005280Y-52371300D01*
X154005280Y-52371300D02*
X151405280Y-52371300D01*
X156605280Y-51041300D02*
X156605280Y-52371300D01*
X156605280Y-52371300D02*
X155275280Y-52371300D01*
X60358420Y-46824360D02*
X62058420Y-46824360D01*
X60358420Y-53424360D02*
X60358420Y-46824360D01*
X62058420Y-53424360D02*
X60358420Y-53424360D01*
X66758420Y-53424360D02*
X65058420Y-53424360D01*
X66758420Y-46824360D02*
X66758420Y-53424360D01*
X65058420Y-46824360D02*
X66758420Y-46824360D01*
X67981840Y-73311820D02*
X67981840Y-82671820D01*
X67981840Y-82671820D02*
X78301840Y-82671820D01*
X78301840Y-82671820D02*
X78301840Y-73311820D01*
X67981840Y-73311820D02*
X69551840Y-73311820D01*
X78301840Y-73311820D02*
X76731840Y-73311820D01*
X71651840Y-73311820D02*
X74631840Y-73311820D01*
X67981840Y-79391820D02*
X78301840Y-79391820D01*
X70901840Y-71991820D02*
X70601840Y-72591820D01*
X70601840Y-72591820D02*
X70301840Y-71991820D01*
X70301840Y-71991820D02*
X70901840Y-71991820D01*
X98725980Y-37299740D02*
X98725980Y-27939740D01*
X98725980Y-27939740D02*
X68085980Y-27939740D01*
X68085980Y-27939740D02*
X68085980Y-37299740D01*
X98725980Y-37299740D02*
X97155980Y-37299740D01*
X68085980Y-37299740D02*
X69655980Y-37299740D01*
X95055980Y-37299740D02*
X92075980Y-37299740D01*
X89975980Y-37299740D02*
X86995980Y-37299740D01*
X84895980Y-37299740D02*
X81915980Y-37299740D01*
X79815980Y-37299740D02*
X76835980Y-37299740D01*
X74735980Y-37299740D02*
X71755980Y-37299740D01*
X98725980Y-31219740D02*
X68085980Y-31219740D01*
X95805980Y-38619740D02*
X96105980Y-38019740D01*
X96105980Y-38019740D02*
X96405980Y-38619740D01*
X96405980Y-38619740D02*
X95805980Y-38619740D01*
D15*
X127320040Y-61798200D02*
X127320040Y-67335400D01*
X127320040Y-67335400D02*
X127604448Y-67335400D01*
X132857240Y-67335400D02*
X132857240Y-61798200D01*
X132857240Y-61798200D02*
X132572832Y-61798200D01*
X127604448Y-61798200D02*
X127320040Y-61798200D01*
X132572832Y-67335400D02*
X132857240Y-67335400D01*
D13*
X151646800Y-79167000D02*
X148246800Y-79167000D01*
X153286800Y-79167000D02*
X152746800Y-79167000D01*
X146086800Y-76337000D02*
X146086800Y-75827000D01*
X146606800Y-75827000D02*
X146086800Y-75827000D01*
X146606800Y-76337000D02*
X146606800Y-75827000D01*
X147146800Y-79167000D02*
X146606800Y-79167000D01*
X153806800Y-76337000D02*
X153806800Y-75827000D01*
X153286800Y-76337000D02*
X153286800Y-75827000D01*
X146606800Y-79167000D02*
X146606800Y-78937000D01*
X153806800Y-82837000D02*
X153806800Y-78937000D01*
X153806800Y-75827000D02*
X153286800Y-75827000D01*
X146086800Y-82837000D02*
X146086800Y-78937000D01*
X153806800Y-82837000D02*
X146086800Y-82837000D01*
X153286800Y-79167000D02*
X153286800Y-78937000D01*
X115213260Y-59067700D02*
G75*
G03X115213260Y-59067700I-1500000J0D01*
G01*
X118276500Y-42255440D02*
G75*
G03X118276500Y-42255440I-1500000J0D01*
G01*
X63173640Y-57148840D02*
X63173640Y-59578840D01*
X66243640Y-58908840D02*
X66243640Y-57148840D01*
X69272918Y-54212420D02*
X68755762Y-54212420D01*
X69272918Y-55632420D02*
X68755762Y-55632420D01*
X68776920Y-61579258D02*
X68776920Y-61062102D01*
X67356920Y-61579258D02*
X67356920Y-61062102D01*
X104192000Y-76131922D02*
X104192000Y-76649078D01*
X105612000Y-76131922D02*
X105612000Y-76649078D01*
X144829600Y-79624422D02*
X144829600Y-80141578D01*
X143409600Y-79624422D02*
X143409600Y-80141578D01*
X154436578Y-73864400D02*
X153919422Y-73864400D01*
X154436578Y-75284400D02*
X153919422Y-75284400D01*
X136834378Y-65436680D02*
X136317222Y-65436680D01*
X136834378Y-66856680D02*
X136317222Y-66856680D01*
X136834378Y-63496120D02*
X136317222Y-63496120D01*
X136834378Y-64916120D02*
X136317222Y-64916120D01*
X157577120Y-66767340D02*
X157577120Y-60487340D01*
X157577120Y-60487340D02*
X173527120Y-60487340D01*
X173527120Y-60487340D02*
X173527120Y-66767340D01*
X173527120Y-69967340D02*
X173527120Y-82407340D01*
X173527120Y-82407340D02*
X157577120Y-82407340D01*
X157577120Y-82407340D02*
X157577120Y-69967340D01*
X157377120Y-64077340D02*
X157377120Y-66077340D01*
D11*
X88588140Y-53525240D02*
X88638140Y-53525240D01*
X88588140Y-49375240D02*
X88733140Y-49375240D01*
X93738140Y-49375240D02*
X93593140Y-49375240D01*
X93738140Y-53525240D02*
X93593140Y-53525240D01*
X88588140Y-53525240D02*
X88588140Y-49375240D01*
X93738140Y-53525240D02*
X93738140Y-49375240D01*
X88638140Y-53525240D02*
X88638140Y-54925240D01*
D13*
X92562800Y-41353200D02*
X91632800Y-41353200D01*
X89402800Y-41353200D02*
X90332800Y-41353200D01*
X89402800Y-41353200D02*
X89402800Y-43513200D01*
X92562800Y-41353200D02*
X92562800Y-42813200D01*
X95689922Y-73839000D02*
X96207078Y-73839000D01*
X95689922Y-75259000D02*
X96207078Y-75259000D01*
X140136200Y-78883000D02*
X140136200Y-81768000D01*
X140136200Y-81768000D02*
X141956200Y-81768000D01*
X141956200Y-81768000D02*
X141956200Y-78883000D01*
X105812000Y-81073500D02*
X105812000Y-78188500D01*
X105812000Y-78188500D02*
X103992000Y-78188500D01*
X103992000Y-78188500D02*
X103992000Y-81073500D01*
X77368520Y-41335420D02*
X76438520Y-41335420D01*
X74208520Y-41335420D02*
X75138520Y-41335420D01*
X74208520Y-41335420D02*
X74208520Y-43495420D01*
X77368520Y-41335420D02*
X77368520Y-42795420D01*
X158907982Y-44133700D02*
X159425138Y-44133700D01*
X158907982Y-45553700D02*
X159425138Y-45553700D01*
X178884940Y-46897720D02*
X178884940Y-48697720D01*
X182104940Y-48697720D02*
X182104940Y-46247720D01*
X151959740Y-46428300D02*
X154409740Y-46428300D01*
X153759740Y-43208300D02*
X151959740Y-43208300D01*
X178546400Y-62037800D02*
X178546400Y-60237800D01*
X175326400Y-60237800D02*
X175326400Y-62687800D01*
X153919422Y-62178000D02*
X154436578Y-62178000D01*
X153919422Y-60758000D02*
X154436578Y-60758000D01*
X153919422Y-62790000D02*
X154436578Y-62790000D01*
X153919422Y-64210000D02*
X154436578Y-64210000D01*
X148366982Y-64443540D02*
X148884138Y-64443540D01*
X148366982Y-65863540D02*
X148884138Y-65863540D01*
X146709540Y-65984100D02*
X146709540Y-60234100D01*
X146709540Y-60234100D02*
X143109540Y-60234100D01*
X143109540Y-60234100D02*
X143109540Y-65984100D01*
X114032798Y-52355680D02*
X113515642Y-52355680D01*
X114032798Y-53775680D02*
X113515642Y-53775680D01*
X112055500Y-45496500D02*
X112055500Y-51246500D01*
X112055500Y-51246500D02*
X115655500Y-51246500D01*
X115655500Y-51246500D02*
X115655500Y-45496500D01*
X114678500Y-42376000D02*
X114678500Y-43476000D01*
X112778500Y-42376000D02*
X112778500Y-43476000D01*
X114628500Y-40976000D02*
X112828500Y-40976000D01*
X62622500Y-56671978D02*
X62622500Y-56154822D01*
X61202500Y-56671978D02*
X61202500Y-56154822D01*
X69242438Y-58474680D02*
X68725282Y-58474680D01*
X69242438Y-57054680D02*
X68725282Y-57054680D01*
X158952000Y-47600102D02*
X158952000Y-48117258D01*
X157532000Y-47600102D02*
X157532000Y-48117258D01*
X168017120Y-50832758D02*
X168017120Y-50315602D01*
X169437120Y-50832758D02*
X169437120Y-50315602D01*
X131307338Y-71558220D02*
X130790182Y-71558220D01*
X131307338Y-70138220D02*
X130790182Y-70138220D01*
D11*
X123420281Y-40385141D02*
X123420281Y-41035141D01*
X137670281Y-40385141D02*
X137670281Y-41145141D01*
X137670281Y-54635141D02*
X137670281Y-53875141D01*
X123420281Y-54635141D02*
X123420281Y-53875141D01*
X123420281Y-40385141D02*
X124180281Y-40385141D01*
X123420281Y-54635141D02*
X124180281Y-54635141D01*
X137670281Y-54635141D02*
X136910281Y-54635141D01*
X137670281Y-40385141D02*
X136910281Y-40385141D01*
X123420281Y-41035141D02*
X121895281Y-41035141D01*
D13*
X148941022Y-41733400D02*
X149458178Y-41733400D01*
X148941022Y-43153400D02*
X149458178Y-43153400D01*
X147582122Y-72777420D02*
X148099278Y-72777420D01*
X147582122Y-71357420D02*
X148099278Y-71357420D01*
X135144580Y-69261222D02*
X135144580Y-69778378D01*
X133724580Y-69261222D02*
X133724580Y-69778378D01*
X147579582Y-70791140D02*
X148096738Y-70791140D01*
X147579582Y-69371140D02*
X148096738Y-69371140D01*
X137346760Y-69268842D02*
X137346760Y-69785998D01*
X135926760Y-69268842D02*
X135926760Y-69785998D01*
X144223238Y-73038900D02*
X143706082Y-73038900D01*
X144223238Y-74458900D02*
X143706082Y-74458900D01*
X147582122Y-73333540D02*
X148099278Y-73333540D01*
X147582122Y-74753540D02*
X148099278Y-74753540D01*
X139548360Y-71429140D02*
X139073360Y-71429140D01*
X139073360Y-71429140D02*
X139073360Y-70954140D01*
X142818360Y-67209140D02*
X143293360Y-67209140D01*
X143293360Y-67209140D02*
X143293360Y-67684140D01*
X139548360Y-67209140D02*
X139073360Y-67209140D01*
X139073360Y-67209140D02*
X139073360Y-67684140D01*
X142818360Y-71429140D02*
X143293360Y-71429140D01*
X145662720Y-71269358D02*
X145662720Y-70752202D01*
X144242720Y-71269358D02*
X144242720Y-70752202D01*
X140348900Y-64281818D02*
X140348900Y-63764662D01*
X141768900Y-64281818D02*
X141768900Y-63764662D01*
X110939078Y-41009500D02*
X110421922Y-41009500D01*
X110939078Y-42429500D02*
X110421922Y-42429500D01*
X110939078Y-44652000D02*
X110421922Y-44652000D01*
X110939078Y-43232000D02*
X110421922Y-43232000D01*
X111166980Y-50822358D02*
X111166980Y-50305202D01*
X109746980Y-50822358D02*
X109746980Y-50305202D01*
X111164440Y-46871122D02*
X111164440Y-47388278D01*
X109744440Y-46871122D02*
X109744440Y-47388278D01*
X119609800Y-38345878D02*
X119609800Y-37828722D01*
X121029800Y-38345878D02*
X121029800Y-37828722D01*
X136543980Y-58717682D02*
X136543980Y-59234838D01*
X137963980Y-58717682D02*
X137963980Y-59234838D01*
X142636742Y-41667360D02*
X143153898Y-41667360D01*
X142636742Y-43087360D02*
X143153898Y-43087360D01*
X119597938Y-45812640D02*
X119080782Y-45812640D01*
X119597938Y-47232640D02*
X119080782Y-47232640D01*
X123064340Y-57854082D02*
X123064340Y-58371238D01*
X121644340Y-57854082D02*
X121644340Y-58371238D01*
X118593800Y-52194962D02*
X118593800Y-52712118D01*
X120013800Y-52194962D02*
X120013800Y-52712118D01*
X118786980Y-38353498D02*
X118786980Y-37836342D01*
X117366980Y-38353498D02*
X117366980Y-37836342D01*
X120267800Y-42907718D02*
X120267800Y-42390562D01*
X118847800Y-42907718D02*
X118847800Y-42390562D01*
X144849780Y-43448738D02*
X144849780Y-42931582D01*
X146269780Y-43448738D02*
X146269780Y-42931582D01*
X135556060Y-58717682D02*
X135556060Y-59234838D01*
X134136060Y-58717682D02*
X134136060Y-59234838D01*
X111050000Y-36317422D02*
X111050000Y-36834578D01*
X112470000Y-36317422D02*
X112470000Y-36834578D01*
X113584222Y-54717880D02*
X114101378Y-54717880D01*
X113584222Y-56137880D02*
X114101378Y-56137880D01*
D11*
X86127862Y-50302397D02*
X86175481Y-50350016D01*
X86223100Y-50492873D01*
X86223100Y-50588111D01*
X86175481Y-50730968D01*
X86080243Y-50826206D01*
X85985005Y-50873825D01*
X85794529Y-50921444D01*
X85651672Y-50921444D01*
X85461196Y-50873825D01*
X85365958Y-50826206D01*
X85270720Y-50730968D01*
X85223100Y-50588111D01*
X85223100Y-50492873D01*
X85270720Y-50350016D01*
X85318339Y-50302397D01*
X85318339Y-49921444D02*
X85270720Y-49873825D01*
X85223100Y-49778587D01*
X85223100Y-49540492D01*
X85270720Y-49445254D01*
X85318339Y-49397635D01*
X85413577Y-49350016D01*
X85508815Y-49350016D01*
X85651672Y-49397635D01*
X86223100Y-49969063D01*
X86223100Y-49350016D01*
X85556434Y-48492873D02*
X86223100Y-48492873D01*
X85175481Y-48730968D02*
X85889767Y-48969063D01*
X85889767Y-48350016D01*
X75049142Y-56871142D02*
X75001523Y-56918761D01*
X74858666Y-56966380D01*
X74763428Y-56966380D01*
X74620571Y-56918761D01*
X74525333Y-56823523D01*
X74477714Y-56728285D01*
X74430095Y-56537809D01*
X74430095Y-56394952D01*
X74477714Y-56204476D01*
X74525333Y-56109238D01*
X74620571Y-56014000D01*
X74763428Y-55966380D01*
X74858666Y-55966380D01*
X75001523Y-56014000D01*
X75049142Y-56061619D01*
X75430095Y-56061619D02*
X75477714Y-56014000D01*
X75572952Y-55966380D01*
X75811047Y-55966380D01*
X75906285Y-56014000D01*
X75953904Y-56061619D01*
X76001523Y-56156857D01*
X76001523Y-56252095D01*
X75953904Y-56394952D01*
X75382476Y-56966380D01*
X76001523Y-56966380D01*
X76334857Y-55966380D02*
X76953904Y-55966380D01*
X76620571Y-56347333D01*
X76763428Y-56347333D01*
X76858666Y-56394952D01*
X76906285Y-56442571D01*
X76953904Y-56537809D01*
X76953904Y-56775904D01*
X76906285Y-56871142D01*
X76858666Y-56918761D01*
X76763428Y-56966380D01*
X76477714Y-56966380D01*
X76382476Y-56918761D01*
X76334857Y-56871142D01*
X72410580Y-46718457D02*
X71934390Y-47051790D01*
X72410580Y-47289885D02*
X71410580Y-47289885D01*
X71410580Y-46908933D01*
X71458200Y-46813695D01*
X71505819Y-46766076D01*
X71601057Y-46718457D01*
X71743914Y-46718457D01*
X71839152Y-46766076D01*
X71886771Y-46813695D01*
X71934390Y-46908933D01*
X71934390Y-47289885D01*
X72410580Y-45766076D02*
X72410580Y-46337504D01*
X72410580Y-46051790D02*
X71410580Y-46051790D01*
X71553438Y-46147028D01*
X71648676Y-46242266D01*
X71696295Y-46337504D01*
X71839152Y-45194647D02*
X71791533Y-45289885D01*
X71743914Y-45337504D01*
X71648676Y-45385123D01*
X71601057Y-45385123D01*
X71505819Y-45337504D01*
X71458200Y-45289885D01*
X71410580Y-45194647D01*
X71410580Y-45004171D01*
X71458200Y-44908933D01*
X71505819Y-44861314D01*
X71601057Y-44813695D01*
X71648676Y-44813695D01*
X71743914Y-44861314D01*
X71791533Y-44908933D01*
X71839152Y-45004171D01*
X71839152Y-45194647D01*
X71886771Y-45289885D01*
X71934390Y-45337504D01*
X72029628Y-45385123D01*
X72220104Y-45385123D01*
X72315342Y-45337504D01*
X72362961Y-45289885D01*
X72410580Y-45194647D01*
X72410580Y-45004171D01*
X72362961Y-44908933D01*
X72315342Y-44861314D01*
X72220104Y-44813695D01*
X72029628Y-44813695D01*
X71934390Y-44861314D01*
X71886771Y-44908933D01*
X71839152Y-45004171D01*
X80106780Y-46566057D02*
X79630590Y-46899390D01*
X80106780Y-47137485D02*
X79106780Y-47137485D01*
X79106780Y-46756533D01*
X79154400Y-46661295D01*
X79202019Y-46613676D01*
X79297257Y-46566057D01*
X79440114Y-46566057D01*
X79535352Y-46613676D01*
X79582971Y-46661295D01*
X79630590Y-46756533D01*
X79630590Y-47137485D01*
X80106780Y-45613676D02*
X80106780Y-46185104D01*
X80106780Y-45899390D02*
X79106780Y-45899390D01*
X79249638Y-45994628D01*
X79344876Y-46089866D01*
X79392495Y-46185104D01*
X79106780Y-45280342D02*
X79106780Y-44613676D01*
X80106780Y-45042247D01*
X96014800Y-46411117D02*
X95538610Y-46744450D01*
X96014800Y-46982545D02*
X95014800Y-46982545D01*
X95014800Y-46601593D01*
X95062420Y-46506355D01*
X95110039Y-46458736D01*
X95205277Y-46411117D01*
X95348134Y-46411117D01*
X95443372Y-46458736D01*
X95490991Y-46506355D01*
X95538610Y-46601593D01*
X95538610Y-46982545D01*
X96014800Y-45458736D02*
X96014800Y-46030164D01*
X96014800Y-45744450D02*
X95014800Y-45744450D01*
X95157658Y-45839688D01*
X95252896Y-45934926D01*
X95300515Y-46030164D01*
X95014800Y-44601593D02*
X95014800Y-44792069D01*
X95062420Y-44887307D01*
X95110039Y-44934926D01*
X95252896Y-45030164D01*
X95443372Y-45077783D01*
X95824324Y-45077783D01*
X95919562Y-45030164D01*
X95967181Y-44982545D01*
X96014800Y-44887307D01*
X96014800Y-44696831D01*
X95967181Y-44601593D01*
X95919562Y-44553974D01*
X95824324Y-44506355D01*
X95586229Y-44506355D01*
X95490991Y-44553974D01*
X95443372Y-44601593D01*
X95395753Y-44696831D01*
X95395753Y-44887307D01*
X95443372Y-44982545D01*
X95490991Y-45030164D01*
X95586229Y-45077783D01*
X90390742Y-46985180D02*
X90057409Y-46508990D01*
X89819314Y-46985180D02*
X89819314Y-45985180D01*
X90200266Y-45985180D01*
X90295504Y-46032800D01*
X90343123Y-46080419D01*
X90390742Y-46175657D01*
X90390742Y-46318514D01*
X90343123Y-46413752D01*
X90295504Y-46461371D01*
X90200266Y-46508990D01*
X89819314Y-46508990D01*
X91343123Y-46985180D02*
X90771695Y-46985180D01*
X91057409Y-46985180D02*
X91057409Y-45985180D01*
X90962171Y-46128038D01*
X90866933Y-46223276D01*
X90771695Y-46270895D01*
X92247885Y-45985180D02*
X91771695Y-45985180D01*
X91724076Y-46461371D01*
X91771695Y-46413752D01*
X91866933Y-46366133D01*
X92105028Y-46366133D01*
X92200266Y-46413752D01*
X92247885Y-46461371D01*
X92295504Y-46556609D01*
X92295504Y-46794704D01*
X92247885Y-46889942D01*
X92200266Y-46937561D01*
X92105028Y-46985180D01*
X91866933Y-46985180D01*
X91771695Y-46937561D01*
X91724076Y-46889942D01*
X87018120Y-46545737D02*
X86541930Y-46879070D01*
X87018120Y-47117165D02*
X86018120Y-47117165D01*
X86018120Y-46736213D01*
X86065740Y-46640975D01*
X86113359Y-46593356D01*
X86208597Y-46545737D01*
X86351454Y-46545737D01*
X86446692Y-46593356D01*
X86494311Y-46640975D01*
X86541930Y-46736213D01*
X86541930Y-47117165D01*
X87018120Y-45593356D02*
X87018120Y-46164784D01*
X87018120Y-45879070D02*
X86018120Y-45879070D01*
X86160978Y-45974308D01*
X86256216Y-46069546D01*
X86303835Y-46164784D01*
X86351454Y-44736213D02*
X87018120Y-44736213D01*
X85970501Y-44974308D02*
X86684787Y-45212403D01*
X86684787Y-44593356D01*
X139925466Y-36663380D02*
X139925466Y-37377666D01*
X139877847Y-37520523D01*
X139782609Y-37615761D01*
X139639752Y-37663380D01*
X139544514Y-37663380D01*
X140830228Y-36996714D02*
X140830228Y-37663380D01*
X140592133Y-36615761D02*
X140354038Y-37330047D01*
X140973085Y-37330047D01*
X75132962Y-49010842D02*
X75085343Y-49058461D01*
X74942486Y-49106080D01*
X74847248Y-49106080D01*
X74704391Y-49058461D01*
X74609153Y-48963223D01*
X74561534Y-48867985D01*
X74513915Y-48677509D01*
X74513915Y-48534652D01*
X74561534Y-48344176D01*
X74609153Y-48248938D01*
X74704391Y-48153700D01*
X74847248Y-48106080D01*
X74942486Y-48106080D01*
X75085343Y-48153700D01*
X75132962Y-48201319D01*
X75990105Y-48439414D02*
X75990105Y-49106080D01*
X75752010Y-48058461D02*
X75513915Y-48772747D01*
X76132962Y-48772747D01*
X76418677Y-48106080D02*
X77037724Y-48106080D01*
X76704391Y-48487033D01*
X76847248Y-48487033D01*
X76942486Y-48534652D01*
X76990105Y-48582271D01*
X77037724Y-48677509D01*
X77037724Y-48915604D01*
X76990105Y-49010842D01*
X76942486Y-49058461D01*
X76847248Y-49106080D01*
X76561534Y-49106080D01*
X76466296Y-49058461D01*
X76418677Y-49010842D01*
X148023342Y-63653942D02*
X147975723Y-63701561D01*
X147832866Y-63749180D01*
X147737628Y-63749180D01*
X147594771Y-63701561D01*
X147499533Y-63606323D01*
X147451914Y-63511085D01*
X147404295Y-63320609D01*
X147404295Y-63177752D01*
X147451914Y-62987276D01*
X147499533Y-62892038D01*
X147594771Y-62796800D01*
X147737628Y-62749180D01*
X147832866Y-62749180D01*
X147975723Y-62796800D01*
X148023342Y-62844419D01*
X148356676Y-62749180D02*
X148975723Y-62749180D01*
X148642390Y-63130133D01*
X148785247Y-63130133D01*
X148880485Y-63177752D01*
X148928104Y-63225371D01*
X148975723Y-63320609D01*
X148975723Y-63558704D01*
X148928104Y-63653942D01*
X148880485Y-63701561D01*
X148785247Y-63749180D01*
X148499533Y-63749180D01*
X148404295Y-63701561D01*
X148356676Y-63653942D01*
X149356676Y-62844419D02*
X149404295Y-62796800D01*
X149499533Y-62749180D01*
X149737628Y-62749180D01*
X149832866Y-62796800D01*
X149880485Y-62844419D01*
X149928104Y-62939657D01*
X149928104Y-63034895D01*
X149880485Y-63177752D01*
X149309057Y-63749180D01*
X149928104Y-63749180D01*
X181657666Y-58888380D02*
X181657666Y-59602666D01*
X181610047Y-59745523D01*
X181514809Y-59840761D01*
X181371952Y-59888380D01*
X181276714Y-59888380D01*
X182086238Y-58983619D02*
X182133857Y-58936000D01*
X182229095Y-58888380D01*
X182467190Y-58888380D01*
X182562428Y-58936000D01*
X182610047Y-58983619D01*
X182657666Y-59078857D01*
X182657666Y-59174095D01*
X182610047Y-59316952D01*
X182038619Y-59888380D01*
X182657666Y-59888380D01*
X77938380Y-53054095D02*
X78747904Y-53054095D01*
X78843142Y-53006476D01*
X78890761Y-52958857D01*
X78938380Y-52863619D01*
X78938380Y-52673142D01*
X78890761Y-52577904D01*
X78843142Y-52530285D01*
X78747904Y-52482666D01*
X77938380Y-52482666D01*
X78938380Y-51482666D02*
X78938380Y-52054095D01*
X78938380Y-51768380D02*
X77938380Y-51768380D01*
X78081238Y-51863619D01*
X78176476Y-51958857D01*
X78224095Y-52054095D01*
X78033619Y-51101714D02*
X77986000Y-51054095D01*
X77938380Y-50958857D01*
X77938380Y-50720761D01*
X77986000Y-50625523D01*
X78033619Y-50577904D01*
X78128857Y-50530285D01*
X78224095Y-50530285D01*
X78366952Y-50577904D01*
X78938380Y-51149333D01*
X78938380Y-50530285D01*
X173919900Y-76574495D02*
X174729424Y-76574495D01*
X174824662Y-76526876D01*
X174872281Y-76479257D01*
X174919900Y-76384019D01*
X174919900Y-76193542D01*
X174872281Y-76098304D01*
X174824662Y-76050685D01*
X174729424Y-76003066D01*
X173919900Y-76003066D01*
X174919900Y-75003066D02*
X174919900Y-75574495D01*
X174919900Y-75288780D02*
X173919900Y-75288780D01*
X174062758Y-75384019D01*
X174157996Y-75479257D01*
X174205615Y-75574495D01*
X174253234Y-74145923D02*
X174919900Y-74145923D01*
X173872281Y-74384019D02*
X174586567Y-74622114D01*
X174586567Y-74003066D01*
X176318942Y-68175142D02*
X176271323Y-68222761D01*
X176128466Y-68270380D01*
X176033228Y-68270380D01*
X175890371Y-68222761D01*
X175795133Y-68127523D01*
X175747514Y-68032285D01*
X175699895Y-67841809D01*
X175699895Y-67698952D01*
X175747514Y-67508476D01*
X175795133Y-67413238D01*
X175890371Y-67318000D01*
X176033228Y-67270380D01*
X176128466Y-67270380D01*
X176271323Y-67318000D01*
X176318942Y-67365619D01*
X177176085Y-67603714D02*
X177176085Y-68270380D01*
X176937990Y-67222761D02*
X176699895Y-67937047D01*
X177318942Y-67937047D01*
X177652276Y-67365619D02*
X177699895Y-67318000D01*
X177795133Y-67270380D01*
X178033228Y-67270380D01*
X178128466Y-67318000D01*
X178176085Y-67365619D01*
X178223704Y-67460857D01*
X178223704Y-67556095D01*
X178176085Y-67698952D01*
X177604657Y-68270380D01*
X178223704Y-68270380D01*
X174829742Y-79535257D02*
X174877361Y-79582876D01*
X174924980Y-79725733D01*
X174924980Y-79820971D01*
X174877361Y-79963828D01*
X174782123Y-80059066D01*
X174686885Y-80106685D01*
X174496409Y-80154304D01*
X174353552Y-80154304D01*
X174163076Y-80106685D01*
X174067838Y-80059066D01*
X173972600Y-79963828D01*
X173924980Y-79820971D01*
X173924980Y-79725733D01*
X173972600Y-79582876D01*
X174020219Y-79535257D01*
X174258314Y-78678114D02*
X174924980Y-78678114D01*
X173877361Y-78916209D02*
X174591647Y-79154304D01*
X174591647Y-78535257D01*
X174924980Y-77630495D02*
X174924980Y-78201923D01*
X174924980Y-77916209D02*
X173924980Y-77916209D01*
X174067838Y-78011447D01*
X174163076Y-78106685D01*
X174210695Y-78201923D01*
X99731580Y-39771533D02*
X100445866Y-39771533D01*
X100588723Y-39819152D01*
X100683961Y-39914390D01*
X100731580Y-40057247D01*
X100731580Y-40152485D01*
X100731580Y-39295342D02*
X99731580Y-39295342D01*
X99731580Y-38914390D01*
X99779200Y-38819152D01*
X99826819Y-38771533D01*
X99922057Y-38723914D01*
X100064914Y-38723914D01*
X100160152Y-38771533D01*
X100207771Y-38819152D01*
X100255390Y-38914390D01*
X100255390Y-39295342D01*
X100731580Y-37771533D02*
X100731580Y-38342961D01*
X100731580Y-38057247D02*
X99731580Y-38057247D01*
X99874438Y-38152485D01*
X99969676Y-38247723D01*
X100017295Y-38342961D01*
X90160576Y-65842900D02*
X90160576Y-66557186D01*
X90112957Y-66700043D01*
X90017719Y-66795281D01*
X89874861Y-66842900D01*
X89779623Y-66842900D01*
X91160576Y-66842900D02*
X90589147Y-66842900D01*
X90874861Y-66842900D02*
X90874861Y-65842900D01*
X90779623Y-65985758D01*
X90684385Y-66080996D01*
X90589147Y-66128615D01*
X91732004Y-66271472D02*
X91636766Y-66223853D01*
X91589147Y-66176234D01*
X91541528Y-66080996D01*
X91541528Y-66033377D01*
X91589147Y-65938139D01*
X91636766Y-65890520D01*
X91732004Y-65842900D01*
X91922480Y-65842900D01*
X92017719Y-65890520D01*
X92065338Y-65938139D01*
X92112957Y-66033377D01*
X92112957Y-66080996D01*
X92065338Y-66176234D01*
X92017719Y-66223853D01*
X91922480Y-66271472D01*
X91732004Y-66271472D01*
X91636766Y-66319091D01*
X91589147Y-66366710D01*
X91541528Y-66461948D01*
X91541528Y-66652424D01*
X91589147Y-66747662D01*
X91636766Y-66795281D01*
X91732004Y-66842900D01*
X91922480Y-66842900D01*
X92017719Y-66795281D01*
X92065338Y-66747662D01*
X92112957Y-66652424D01*
X92112957Y-66461948D01*
X92065338Y-66366710D01*
X92017719Y-66319091D01*
X91922480Y-66271472D01*
X90386636Y-73043800D02*
X90386636Y-73758086D01*
X90339017Y-73900943D01*
X90243779Y-73996181D01*
X90100921Y-74043800D01*
X90005683Y-74043800D01*
X91386636Y-74043800D02*
X90815207Y-74043800D01*
X91100921Y-74043800D02*
X91100921Y-73043800D01*
X91005683Y-73186658D01*
X90910445Y-73281896D01*
X90815207Y-73329515D01*
X91719969Y-73043800D02*
X92339017Y-73043800D01*
X92005683Y-73424753D01*
X92148540Y-73424753D01*
X92243779Y-73472372D01*
X92291398Y-73519991D01*
X92339017Y-73615229D01*
X92339017Y-73853324D01*
X92291398Y-73948562D01*
X92243779Y-73996181D01*
X92148540Y-74043800D01*
X91862826Y-74043800D01*
X91767588Y-73996181D01*
X91719969Y-73948562D01*
X171874440Y-41723535D02*
X170874440Y-41723535D01*
X170874440Y-41485440D01*
X170922060Y-41342582D01*
X171017298Y-41247344D01*
X171112536Y-41199725D01*
X171303012Y-41152106D01*
X171445869Y-41152106D01*
X171636345Y-41199725D01*
X171731583Y-41247344D01*
X171826821Y-41342582D01*
X171874440Y-41485440D01*
X171874440Y-41723535D01*
X170874440Y-40247344D02*
X170874440Y-40723535D01*
X171350631Y-40771154D01*
X171303012Y-40723535D01*
X171255393Y-40628297D01*
X171255393Y-40390201D01*
X171303012Y-40294963D01*
X171350631Y-40247344D01*
X171445869Y-40199725D01*
X171683964Y-40199725D01*
X171779202Y-40247344D01*
X171826821Y-40294963D01*
X171874440Y-40390201D01*
X171874440Y-40628297D01*
X171826821Y-40723535D01*
X171779202Y-40771154D01*
X69164460Y-70001355D02*
X68164460Y-70001355D01*
X68164460Y-69763260D01*
X68212080Y-69620402D01*
X68307318Y-69525164D01*
X68402556Y-69477545D01*
X68593032Y-69429926D01*
X68735889Y-69429926D01*
X68926365Y-69477545D01*
X69021603Y-69525164D01*
X69116841Y-69620402D01*
X69164460Y-69763260D01*
X69164460Y-70001355D01*
X68497794Y-68572783D02*
X69164460Y-68572783D01*
X68116841Y-68810879D02*
X68831127Y-69048974D01*
X68831127Y-68429926D01*
X171907460Y-32957995D02*
X170907460Y-32957995D01*
X170907460Y-32719900D01*
X170955080Y-32577042D01*
X171050318Y-32481804D01*
X171145556Y-32434185D01*
X171336032Y-32386566D01*
X171478889Y-32386566D01*
X171669365Y-32434185D01*
X171764603Y-32481804D01*
X171859841Y-32577042D01*
X171907460Y-32719900D01*
X171907460Y-32957995D01*
X171002699Y-32005614D02*
X170955080Y-31957995D01*
X170907460Y-31862757D01*
X170907460Y-31624661D01*
X170955080Y-31529423D01*
X171002699Y-31481804D01*
X171097937Y-31434185D01*
X171193175Y-31434185D01*
X171336032Y-31481804D01*
X171907460Y-32053233D01*
X171907460Y-31434185D01*
X184459286Y-43729660D02*
X184459286Y-44443946D01*
X184411667Y-44586803D01*
X184316429Y-44682041D01*
X184173572Y-44729660D01*
X184078334Y-44729660D01*
X184840239Y-43729660D02*
X185506905Y-43729660D01*
X185078334Y-44729660D01*
X155648066Y-40092380D02*
X155648066Y-40806666D01*
X155600447Y-40949523D01*
X155505209Y-41044761D01*
X155362352Y-41092380D01*
X155267114Y-41092380D01*
X156648066Y-41092380D02*
X156076638Y-41092380D01*
X156362352Y-41092380D02*
X156362352Y-40092380D01*
X156267114Y-40235238D01*
X156171876Y-40330476D01*
X156076638Y-40378095D01*
X167652795Y-47440600D02*
X167652795Y-48250124D01*
X167700414Y-48345362D01*
X167748033Y-48392981D01*
X167843271Y-48440600D01*
X168033747Y-48440600D01*
X168128985Y-48392981D01*
X168176604Y-48345362D01*
X168224223Y-48250124D01*
X168224223Y-47440600D01*
X168843271Y-47869172D02*
X168748033Y-47821553D01*
X168700414Y-47773934D01*
X168652795Y-47678696D01*
X168652795Y-47631077D01*
X168700414Y-47535839D01*
X168748033Y-47488220D01*
X168843271Y-47440600D01*
X169033747Y-47440600D01*
X169128985Y-47488220D01*
X169176604Y-47535839D01*
X169224223Y-47631077D01*
X169224223Y-47678696D01*
X169176604Y-47773934D01*
X169128985Y-47821553D01*
X169033747Y-47869172D01*
X168843271Y-47869172D01*
X168748033Y-47916791D01*
X168700414Y-47964410D01*
X168652795Y-48059648D01*
X168652795Y-48250124D01*
X168700414Y-48345362D01*
X168748033Y-48392981D01*
X168843271Y-48440600D01*
X169033747Y-48440600D01*
X169128985Y-48392981D01*
X169176604Y-48345362D01*
X169224223Y-48250124D01*
X169224223Y-48059648D01*
X169176604Y-47964410D01*
X169128985Y-47916791D01*
X169033747Y-47869172D01*
X168075076Y-44359580D02*
X168075076Y-45073866D01*
X168027457Y-45216723D01*
X167932219Y-45311961D01*
X167789361Y-45359580D01*
X167694123Y-45359580D01*
X169075076Y-45359580D02*
X168503647Y-45359580D01*
X168789361Y-45359580D02*
X168789361Y-44359580D01*
X168694123Y-44502438D01*
X168598885Y-44597676D01*
X168503647Y-44645295D01*
X170027457Y-45359580D02*
X169456028Y-45359580D01*
X169741742Y-45359580D02*
X169741742Y-44359580D01*
X169646504Y-44502438D01*
X169551266Y-44597676D01*
X169456028Y-44645295D01*
X97536166Y-77569961D02*
X97679023Y-77617580D01*
X97917119Y-77617580D01*
X98012357Y-77569961D01*
X98059976Y-77522342D01*
X98107595Y-77427104D01*
X98107595Y-77331866D01*
X98059976Y-77236628D01*
X98012357Y-77189009D01*
X97917119Y-77141390D01*
X97726642Y-77093771D01*
X97631404Y-77046152D01*
X97583785Y-76998533D01*
X97536166Y-76903295D01*
X97536166Y-76808057D01*
X97583785Y-76712819D01*
X97631404Y-76665200D01*
X97726642Y-76617580D01*
X97964738Y-76617580D01*
X98107595Y-76665200D01*
X98440928Y-76617580D02*
X98679023Y-77617580D01*
X98869500Y-76903295D01*
X99059976Y-77617580D01*
X99298071Y-76617580D01*
X99631404Y-76712819D02*
X99679023Y-76665200D01*
X99774261Y-76617580D01*
X100012357Y-76617580D01*
X100107595Y-76665200D01*
X100155214Y-76712819D01*
X100202833Y-76808057D01*
X100202833Y-76903295D01*
X100155214Y-77046152D01*
X99583785Y-77617580D01*
X100202833Y-77617580D01*
X152974776Y-52916840D02*
X152974776Y-53631126D01*
X152927157Y-53773983D01*
X152831919Y-53869221D01*
X152689061Y-53916840D01*
X152593823Y-53916840D01*
X153974776Y-53916840D02*
X153403347Y-53916840D01*
X153689061Y-53916840D02*
X153689061Y-52916840D01*
X153593823Y-53059698D01*
X153498585Y-53154936D01*
X153403347Y-53202555D01*
X154879538Y-52916840D02*
X154403347Y-52916840D01*
X154355728Y-53393031D01*
X154403347Y-53345412D01*
X154498585Y-53297793D01*
X154736680Y-53297793D01*
X154831919Y-53345412D01*
X154879538Y-53393031D01*
X154927157Y-53488269D01*
X154927157Y-53726364D01*
X154879538Y-53821602D01*
X154831919Y-53869221D01*
X154736680Y-53916840D01*
X154498585Y-53916840D01*
X154403347Y-53869221D01*
X154355728Y-53821602D01*
X63315553Y-45953940D02*
X62839362Y-45953940D01*
X62839362Y-44953940D01*
X64172696Y-45953940D02*
X63601267Y-45953940D01*
X63886981Y-45953940D02*
X63886981Y-44953940D01*
X63791743Y-45096798D01*
X63696505Y-45192036D01*
X63601267Y-45239655D01*
X77438926Y-70940680D02*
X77438926Y-71654966D01*
X77391307Y-71797823D01*
X77296069Y-71893061D01*
X77153212Y-71940680D01*
X77057974Y-71940680D01*
X78057974Y-71369252D02*
X77962736Y-71321633D01*
X77915117Y-71274014D01*
X77867498Y-71178776D01*
X77867498Y-71131157D01*
X77915117Y-71035919D01*
X77962736Y-70988300D01*
X78057974Y-70940680D01*
X78248450Y-70940680D01*
X78343688Y-70988300D01*
X78391307Y-71035919D01*
X78438926Y-71131157D01*
X78438926Y-71178776D01*
X78391307Y-71274014D01*
X78343688Y-71321633D01*
X78248450Y-71369252D01*
X78057974Y-71369252D01*
X77962736Y-71416871D01*
X77915117Y-71464490D01*
X77867498Y-71559728D01*
X77867498Y-71750204D01*
X77915117Y-71845442D01*
X77962736Y-71893061D01*
X78057974Y-71940680D01*
X78248450Y-71940680D01*
X78343688Y-71893061D01*
X78391307Y-71845442D01*
X78438926Y-71750204D01*
X78438926Y-71559728D01*
X78391307Y-71464490D01*
X78343688Y-71416871D01*
X78248450Y-71369252D01*
X66519466Y-35850580D02*
X66519466Y-36564866D01*
X66471847Y-36707723D01*
X66376609Y-36802961D01*
X66233752Y-36850580D01*
X66138514Y-36850580D01*
X67471847Y-35850580D02*
X66995657Y-35850580D01*
X66948038Y-36326771D01*
X66995657Y-36279152D01*
X67090895Y-36231533D01*
X67328990Y-36231533D01*
X67424228Y-36279152D01*
X67471847Y-36326771D01*
X67519466Y-36422009D01*
X67519466Y-36660104D01*
X67471847Y-36755342D01*
X67424228Y-36802961D01*
X67328990Y-36850580D01*
X67090895Y-36850580D01*
X66995657Y-36802961D01*
X66948038Y-36755342D01*
X125944380Y-65277904D02*
X126753904Y-65277904D01*
X126849142Y-65230285D01*
X126896761Y-65182666D01*
X126944380Y-65087428D01*
X126944380Y-64896952D01*
X126896761Y-64801714D01*
X126849142Y-64754095D01*
X126753904Y-64706476D01*
X125944380Y-64706476D01*
X125944380Y-63754095D02*
X125944380Y-64230285D01*
X126420571Y-64277904D01*
X126372952Y-64230285D01*
X126325333Y-64135047D01*
X126325333Y-63896952D01*
X126372952Y-63801714D01*
X126420571Y-63754095D01*
X126515809Y-63706476D01*
X126753904Y-63706476D01*
X126849142Y-63754095D01*
X126896761Y-63801714D01*
X126944380Y-63896952D01*
X126944380Y-64135047D01*
X126896761Y-64230285D01*
X126849142Y-64277904D01*
X132761740Y-60124340D02*
X132999836Y-60124340D01*
X132904598Y-60362435D02*
X132999836Y-60124340D01*
X132904598Y-59886244D01*
X133190312Y-60267197D02*
X132999836Y-60124340D01*
X133190312Y-59981482D01*
X148577466Y-77084821D02*
X148720323Y-77132440D01*
X148958419Y-77132440D01*
X149053657Y-77084821D01*
X149101276Y-77037202D01*
X149148895Y-76941964D01*
X149148895Y-76846726D01*
X149101276Y-76751488D01*
X149053657Y-76703869D01*
X148958419Y-76656250D01*
X148767942Y-76608631D01*
X148672704Y-76561012D01*
X148625085Y-76513393D01*
X148577466Y-76418155D01*
X148577466Y-76322917D01*
X148625085Y-76227679D01*
X148672704Y-76180060D01*
X148767942Y-76132440D01*
X149006038Y-76132440D01*
X149148895Y-76180060D01*
X149482228Y-76132440D02*
X149720323Y-77132440D01*
X149910800Y-76418155D01*
X150101276Y-77132440D01*
X150339371Y-76132440D01*
X151244133Y-77132440D02*
X150672704Y-77132440D01*
X150958419Y-77132440D02*
X150958419Y-76132440D01*
X150863180Y-76275298D01*
X150767942Y-76370536D01*
X150672704Y-76418155D01*
X112903736Y-60978800D02*
X112903736Y-61693086D01*
X112856117Y-61835943D01*
X112760879Y-61931181D01*
X112618021Y-61978800D01*
X112522783Y-61978800D01*
X113903736Y-61978800D02*
X113332307Y-61978800D01*
X113618021Y-61978800D02*
X113618021Y-60978800D01*
X113522783Y-61121658D01*
X113427545Y-61216896D01*
X113332307Y-61264515D01*
X114760879Y-61312134D02*
X114760879Y-61978800D01*
X114522783Y-60931181D02*
X114284688Y-61645467D01*
X114903736Y-61645467D01*
X116317496Y-43922700D02*
X116317496Y-44636986D01*
X116269877Y-44779843D01*
X116174639Y-44875081D01*
X116031781Y-44922700D01*
X115936543Y-44922700D01*
X117317496Y-44922700D02*
X116746067Y-44922700D01*
X117031781Y-44922700D02*
X117031781Y-43922700D01*
X116936543Y-44065558D01*
X116841305Y-44160796D01*
X116746067Y-44208415D01*
X117698448Y-44017939D02*
X117746067Y-43970320D01*
X117841305Y-43922700D01*
X118079400Y-43922700D01*
X118174639Y-43970320D01*
X118222258Y-44017939D01*
X118269877Y-44113177D01*
X118269877Y-44208415D01*
X118222258Y-44351272D01*
X117650829Y-44922700D01*
X118269877Y-44922700D01*
X60706095Y-59142380D02*
X60706095Y-59951904D01*
X60753714Y-60047142D01*
X60801333Y-60094761D01*
X60896571Y-60142380D01*
X61087047Y-60142380D01*
X61182285Y-60094761D01*
X61229904Y-60047142D01*
X61277523Y-59951904D01*
X61277523Y-59142380D01*
X62182285Y-59142380D02*
X61991809Y-59142380D01*
X61896571Y-59190000D01*
X61848952Y-59237619D01*
X61753714Y-59380476D01*
X61706095Y-59570952D01*
X61706095Y-59951904D01*
X61753714Y-60047142D01*
X61801333Y-60094761D01*
X61896571Y-60142380D01*
X62087047Y-60142380D01*
X62182285Y-60094761D01*
X62229904Y-60047142D01*
X62277523Y-59951904D01*
X62277523Y-59713809D01*
X62229904Y-59618571D01*
X62182285Y-59570952D01*
X62087047Y-59523333D01*
X61896571Y-59523333D01*
X61801333Y-59570952D01*
X61753714Y-59618571D01*
X61706095Y-59713809D01*
X71406782Y-55279562D02*
X71359163Y-55327181D01*
X71216306Y-55374800D01*
X71121068Y-55374800D01*
X70978211Y-55327181D01*
X70882973Y-55231943D01*
X70835354Y-55136705D01*
X70787735Y-54946229D01*
X70787735Y-54803372D01*
X70835354Y-54612896D01*
X70882973Y-54517658D01*
X70978211Y-54422420D01*
X71121068Y-54374800D01*
X71216306Y-54374800D01*
X71359163Y-54422420D01*
X71406782Y-54470039D01*
X71740116Y-54374800D02*
X72359163Y-54374800D01*
X72025830Y-54755753D01*
X72168687Y-54755753D01*
X72263925Y-54803372D01*
X72311544Y-54850991D01*
X72359163Y-54946229D01*
X72359163Y-55184324D01*
X72311544Y-55279562D01*
X72263925Y-55327181D01*
X72168687Y-55374800D01*
X71882973Y-55374800D01*
X71787735Y-55327181D01*
X71740116Y-55279562D01*
X72978211Y-54374800D02*
X73073449Y-54374800D01*
X73168687Y-54422420D01*
X73216306Y-54470039D01*
X73263925Y-54565277D01*
X73311544Y-54755753D01*
X73311544Y-54993848D01*
X73263925Y-55184324D01*
X73216306Y-55279562D01*
X73168687Y-55327181D01*
X73073449Y-55374800D01*
X72978211Y-55374800D01*
X72882973Y-55327181D01*
X72835354Y-55279562D01*
X72787735Y-55184324D01*
X72740116Y-54993848D01*
X72740116Y-54755753D01*
X72787735Y-54565277D01*
X72835354Y-54470039D01*
X72882973Y-54422420D01*
X72978211Y-54374800D01*
X70377322Y-61839077D02*
X70424941Y-61886696D01*
X70472560Y-62029553D01*
X70472560Y-62124791D01*
X70424941Y-62267648D01*
X70329703Y-62362886D01*
X70234465Y-62410505D01*
X70043989Y-62458124D01*
X69901132Y-62458124D01*
X69710656Y-62410505D01*
X69615418Y-62362886D01*
X69520180Y-62267648D01*
X69472560Y-62124791D01*
X69472560Y-62029553D01*
X69520180Y-61886696D01*
X69567799Y-61839077D01*
X69567799Y-61458124D02*
X69520180Y-61410505D01*
X69472560Y-61315267D01*
X69472560Y-61077172D01*
X69520180Y-60981934D01*
X69567799Y-60934315D01*
X69663037Y-60886696D01*
X69758275Y-60886696D01*
X69901132Y-60934315D01*
X70472560Y-61505743D01*
X70472560Y-60886696D01*
X70472560Y-60410505D02*
X70472560Y-60220029D01*
X70424941Y-60124791D01*
X70377322Y-60077172D01*
X70234465Y-59981934D01*
X70043989Y-59934315D01*
X69663037Y-59934315D01*
X69567799Y-59981934D01*
X69520180Y-60029553D01*
X69472560Y-60124791D01*
X69472560Y-60315267D01*
X69520180Y-60410505D01*
X69567799Y-60458124D01*
X69663037Y-60505743D01*
X69901132Y-60505743D01*
X69996370Y-60458124D01*
X70043989Y-60410505D01*
X70091608Y-60315267D01*
X70091608Y-60124791D01*
X70043989Y-60029553D01*
X69996370Y-59981934D01*
X69901132Y-59934315D01*
X107068880Y-77160357D02*
X106592690Y-77493690D01*
X107068880Y-77731785D02*
X106068880Y-77731785D01*
X106068880Y-77350833D01*
X106116500Y-77255595D01*
X106164119Y-77207976D01*
X106259357Y-77160357D01*
X106402214Y-77160357D01*
X106497452Y-77207976D01*
X106545071Y-77255595D01*
X106592690Y-77350833D01*
X106592690Y-77731785D01*
X107068880Y-76207976D02*
X107068880Y-76779404D01*
X107068880Y-76493690D02*
X106068880Y-76493690D01*
X106211738Y-76588928D01*
X106306976Y-76684166D01*
X106354595Y-76779404D01*
X106068880Y-75588928D02*
X106068880Y-75493690D01*
X106116500Y-75398452D01*
X106164119Y-75350833D01*
X106259357Y-75303214D01*
X106449833Y-75255595D01*
X106687928Y-75255595D01*
X106878404Y-75303214D01*
X106973642Y-75350833D01*
X107021261Y-75398452D01*
X107068880Y-75493690D01*
X107068880Y-75588928D01*
X107021261Y-75684166D01*
X106973642Y-75731785D01*
X106878404Y-75779404D01*
X106687928Y-75827023D01*
X106449833Y-75827023D01*
X106259357Y-75779404D01*
X106164119Y-75731785D01*
X106116500Y-75684166D01*
X106068880Y-75588928D01*
X143952933Y-77795380D02*
X143619600Y-77319190D01*
X143381504Y-77795380D02*
X143381504Y-76795380D01*
X143762457Y-76795380D01*
X143857695Y-76843000D01*
X143905314Y-76890619D01*
X143952933Y-76985857D01*
X143952933Y-77128714D01*
X143905314Y-77223952D01*
X143857695Y-77271571D01*
X143762457Y-77319190D01*
X143381504Y-77319190D01*
X144429123Y-77795380D02*
X144619600Y-77795380D01*
X144714838Y-77747761D01*
X144762457Y-77700142D01*
X144857695Y-77557285D01*
X144905314Y-77366809D01*
X144905314Y-76985857D01*
X144857695Y-76890619D01*
X144810076Y-76843000D01*
X144714838Y-76795380D01*
X144524361Y-76795380D01*
X144429123Y-76843000D01*
X144381504Y-76890619D01*
X144333885Y-76985857D01*
X144333885Y-77223952D01*
X144381504Y-77319190D01*
X144429123Y-77366809D01*
X144524361Y-77414428D01*
X144714838Y-77414428D01*
X144810076Y-77366809D01*
X144857695Y-77319190D01*
X144905314Y-77223952D01*
X154011333Y-73426580D02*
X153678000Y-72950390D01*
X153439904Y-73426580D02*
X153439904Y-72426580D01*
X153820857Y-72426580D01*
X153916095Y-72474200D01*
X153963714Y-72521819D01*
X154011333Y-72617057D01*
X154011333Y-72759914D01*
X153963714Y-72855152D01*
X153916095Y-72902771D01*
X153820857Y-72950390D01*
X153439904Y-72950390D01*
X154582761Y-72855152D02*
X154487523Y-72807533D01*
X154439904Y-72759914D01*
X154392285Y-72664676D01*
X154392285Y-72617057D01*
X154439904Y-72521819D01*
X154487523Y-72474200D01*
X154582761Y-72426580D01*
X154773238Y-72426580D01*
X154868476Y-72474200D01*
X154916095Y-72521819D01*
X154963714Y-72617057D01*
X154963714Y-72664676D01*
X154916095Y-72759914D01*
X154868476Y-72807533D01*
X154773238Y-72855152D01*
X154582761Y-72855152D01*
X154487523Y-72902771D01*
X154439904Y-72950390D01*
X154392285Y-73045628D01*
X154392285Y-73236104D01*
X154439904Y-73331342D01*
X154487523Y-73378961D01*
X154582761Y-73426580D01*
X154773238Y-73426580D01*
X154868476Y-73378961D01*
X154916095Y-73331342D01*
X154963714Y-73236104D01*
X154963714Y-73045628D01*
X154916095Y-72950390D01*
X154868476Y-72902771D01*
X154773238Y-72855152D01*
X133775153Y-66484760D02*
X133441820Y-66008570D01*
X133203724Y-66484760D02*
X133203724Y-65484760D01*
X133584677Y-65484760D01*
X133679915Y-65532380D01*
X133727534Y-65579999D01*
X133775153Y-65675237D01*
X133775153Y-65818094D01*
X133727534Y-65913332D01*
X133679915Y-65960951D01*
X133584677Y-66008570D01*
X133203724Y-66008570D01*
X134632296Y-65818094D02*
X134632296Y-66484760D01*
X134394200Y-65437141D02*
X134156105Y-66151427D01*
X134775153Y-66151427D01*
X133757373Y-64607700D02*
X133424040Y-64131510D01*
X133185944Y-64607700D02*
X133185944Y-63607700D01*
X133566897Y-63607700D01*
X133662135Y-63655320D01*
X133709754Y-63702939D01*
X133757373Y-63798177D01*
X133757373Y-63941034D01*
X133709754Y-64036272D01*
X133662135Y-64083891D01*
X133566897Y-64131510D01*
X133185944Y-64131510D01*
X134090706Y-63607700D02*
X134709754Y-63607700D01*
X134376420Y-63988653D01*
X134519278Y-63988653D01*
X134614516Y-64036272D01*
X134662135Y-64083891D01*
X134709754Y-64179129D01*
X134709754Y-64417224D01*
X134662135Y-64512462D01*
X134614516Y-64560081D01*
X134519278Y-64607700D01*
X134233563Y-64607700D01*
X134138325Y-64560081D01*
X134090706Y-64512462D01*
X158063606Y-59114440D02*
X158063606Y-59828726D01*
X158015987Y-59971583D01*
X157920749Y-60066821D01*
X157777892Y-60114440D01*
X157682654Y-60114440D01*
X158444559Y-59114440D02*
X159063606Y-59114440D01*
X158730273Y-59495393D01*
X158873130Y-59495393D01*
X158968368Y-59543012D01*
X159015987Y-59590631D01*
X159063606Y-59685869D01*
X159063606Y-59923964D01*
X159015987Y-60019202D01*
X158968368Y-60066821D01*
X158873130Y-60114440D01*
X158587416Y-60114440D01*
X158492178Y-60066821D01*
X158444559Y-60019202D01*
X90234520Y-52673095D02*
X91044044Y-52673095D01*
X91139282Y-52625476D01*
X91186901Y-52577857D01*
X91234520Y-52482619D01*
X91234520Y-52292142D01*
X91186901Y-52196904D01*
X91139282Y-52149285D01*
X91044044Y-52101666D01*
X90234520Y-52101666D01*
X91234520Y-51101666D02*
X91234520Y-51673095D01*
X91234520Y-51387380D02*
X90234520Y-51387380D01*
X90377378Y-51482619D01*
X90472616Y-51577857D01*
X90520235Y-51673095D01*
X90234520Y-50768333D02*
X90234520Y-50149285D01*
X90615473Y-50482619D01*
X90615473Y-50339761D01*
X90663092Y-50244523D01*
X90710711Y-50196904D01*
X90805949Y-50149285D01*
X91044044Y-50149285D01*
X91139282Y-50196904D01*
X91186901Y-50244523D01*
X91234520Y-50339761D01*
X91234520Y-50625476D01*
X91186901Y-50720714D01*
X91139282Y-50768333D01*
X93975180Y-43530685D02*
X92975180Y-43530685D01*
X92975180Y-43292590D01*
X93022800Y-43149733D01*
X93118038Y-43054495D01*
X93213276Y-43006876D01*
X93403752Y-42959257D01*
X93546609Y-42959257D01*
X93737085Y-43006876D01*
X93832323Y-43054495D01*
X93927561Y-43149733D01*
X93975180Y-43292590D01*
X93975180Y-43530685D01*
X93975180Y-42006876D02*
X93975180Y-42578304D01*
X93975180Y-42292590D02*
X92975180Y-42292590D01*
X93118038Y-42387828D01*
X93213276Y-42483066D01*
X93260895Y-42578304D01*
X92975180Y-41387828D02*
X92975180Y-41292590D01*
X93022800Y-41197352D01*
X93070419Y-41149733D01*
X93165657Y-41102114D01*
X93356133Y-41054495D01*
X93594228Y-41054495D01*
X93784704Y-41102114D01*
X93879942Y-41149733D01*
X93927561Y-41197352D01*
X93975180Y-41292590D01*
X93975180Y-41387828D01*
X93927561Y-41483066D01*
X93879942Y-41530685D01*
X93784704Y-41578304D01*
X93594228Y-41625923D01*
X93356133Y-41625923D01*
X93165657Y-41578304D01*
X93070419Y-41530685D01*
X93022800Y-41483066D01*
X92975180Y-41387828D01*
X95305642Y-73286880D02*
X94972309Y-72810690D01*
X94734214Y-73286880D02*
X94734214Y-72286880D01*
X95115166Y-72286880D01*
X95210404Y-72334500D01*
X95258023Y-72382119D01*
X95305642Y-72477357D01*
X95305642Y-72620214D01*
X95258023Y-72715452D01*
X95210404Y-72763071D01*
X95115166Y-72810690D01*
X94734214Y-72810690D01*
X96258023Y-73286880D02*
X95686595Y-73286880D01*
X95972309Y-73286880D02*
X95972309Y-72286880D01*
X95877071Y-72429738D01*
X95781833Y-72524976D01*
X95686595Y-72572595D01*
X97210404Y-73286880D02*
X96638976Y-73286880D01*
X96924690Y-73286880D02*
X96924690Y-72286880D01*
X96829452Y-72429738D01*
X96734214Y-72524976D01*
X96638976Y-72572595D01*
X140435104Y-77566780D02*
X140435104Y-76566780D01*
X140673200Y-76566780D01*
X140816057Y-76614400D01*
X140911295Y-76709638D01*
X140958914Y-76804876D01*
X141006533Y-76995352D01*
X141006533Y-77138209D01*
X140958914Y-77328685D01*
X140911295Y-77423923D01*
X140816057Y-77519161D01*
X140673200Y-77566780D01*
X140435104Y-77566780D01*
X141339866Y-76566780D02*
X142006533Y-76566780D01*
X141577961Y-77566780D01*
X107132380Y-79859095D02*
X106132380Y-79859095D01*
X106132380Y-79621000D01*
X106180000Y-79478142D01*
X106275238Y-79382904D01*
X106370476Y-79335285D01*
X106560952Y-79287666D01*
X106703809Y-79287666D01*
X106894285Y-79335285D01*
X106989523Y-79382904D01*
X107084761Y-79478142D01*
X107132380Y-79621000D01*
X107132380Y-79859095D01*
X106560952Y-78716238D02*
X106513333Y-78811476D01*
X106465714Y-78859095D01*
X106370476Y-78906714D01*
X106322857Y-78906714D01*
X106227619Y-78859095D01*
X106180000Y-78811476D01*
X106132380Y-78716238D01*
X106132380Y-78525761D01*
X106180000Y-78430523D01*
X106227619Y-78382904D01*
X106322857Y-78335285D01*
X106370476Y-78335285D01*
X106465714Y-78382904D01*
X106513333Y-78430523D01*
X106560952Y-78525761D01*
X106560952Y-78716238D01*
X106608571Y-78811476D01*
X106656190Y-78859095D01*
X106751428Y-78906714D01*
X106941904Y-78906714D01*
X107037142Y-78859095D01*
X107084761Y-78811476D01*
X107132380Y-78716238D01*
X107132380Y-78525761D01*
X107084761Y-78430523D01*
X107037142Y-78382904D01*
X106941904Y-78335285D01*
X106751428Y-78335285D01*
X106656190Y-78382904D01*
X106608571Y-78430523D01*
X106560952Y-78525761D01*
X73408800Y-42930035D02*
X72408800Y-42930035D01*
X72408800Y-42691940D01*
X72456420Y-42549082D01*
X72551658Y-42453844D01*
X72646896Y-42406225D01*
X72837372Y-42358606D01*
X72980229Y-42358606D01*
X73170705Y-42406225D01*
X73265943Y-42453844D01*
X73361181Y-42549082D01*
X73408800Y-42691940D01*
X73408800Y-42930035D01*
X73408800Y-41406225D02*
X73408800Y-41977654D01*
X73408800Y-41691940D02*
X72408800Y-41691940D01*
X72551658Y-41787178D01*
X72646896Y-41882416D01*
X72694515Y-41977654D01*
X156297333Y-45156380D02*
X155964000Y-44680190D01*
X155725904Y-45156380D02*
X155725904Y-44156380D01*
X156106857Y-44156380D01*
X156202095Y-44204000D01*
X156249714Y-44251619D01*
X156297333Y-44346857D01*
X156297333Y-44489714D01*
X156249714Y-44584952D01*
X156202095Y-44632571D01*
X156106857Y-44680190D01*
X155725904Y-44680190D01*
X156630666Y-44156380D02*
X157297333Y-44156380D01*
X156868761Y-45156380D01*
X179705095Y-49998380D02*
X179705095Y-50807904D01*
X179752714Y-50903142D01*
X179800333Y-50950761D01*
X179895571Y-50998380D01*
X180086047Y-50998380D01*
X180181285Y-50950761D01*
X180228904Y-50903142D01*
X180276523Y-50807904D01*
X180276523Y-49998380D01*
X180657476Y-49998380D02*
X181324142Y-49998380D01*
X180895571Y-50998380D01*
X149123495Y-44257980D02*
X149123495Y-45067504D01*
X149171114Y-45162742D01*
X149218733Y-45210361D01*
X149313971Y-45257980D01*
X149504447Y-45257980D01*
X149599685Y-45210361D01*
X149647304Y-45162742D01*
X149694923Y-45067504D01*
X149694923Y-44257980D01*
X150218733Y-45257980D02*
X150409209Y-45257980D01*
X150504447Y-45210361D01*
X150552066Y-45162742D01*
X150647304Y-45019885D01*
X150694923Y-44829409D01*
X150694923Y-44448457D01*
X150647304Y-44353219D01*
X150599685Y-44305600D01*
X150504447Y-44257980D01*
X150313971Y-44257980D01*
X150218733Y-44305600D01*
X150171114Y-44353219D01*
X150123495Y-44448457D01*
X150123495Y-44686552D01*
X150171114Y-44781790D01*
X150218733Y-44829409D01*
X150313971Y-44877028D01*
X150504447Y-44877028D01*
X150599685Y-44829409D01*
X150647304Y-44781790D01*
X150694923Y-44686552D01*
X175787204Y-57882540D02*
X175787204Y-58692064D01*
X175834823Y-58787302D01*
X175882442Y-58834921D01*
X175977680Y-58882540D01*
X176168157Y-58882540D01*
X176263395Y-58834921D01*
X176311014Y-58787302D01*
X176358633Y-58692064D01*
X176358633Y-57882540D01*
X177358633Y-58882540D02*
X176787204Y-58882540D01*
X177072919Y-58882540D02*
X177072919Y-57882540D01*
X176977680Y-58025398D01*
X176882442Y-58120636D01*
X176787204Y-58168255D01*
X177977680Y-57882540D02*
X178072919Y-57882540D01*
X178168157Y-57930160D01*
X178215776Y-57977779D01*
X178263395Y-58073017D01*
X178311014Y-58263493D01*
X178311014Y-58501588D01*
X178263395Y-58692064D01*
X178215776Y-58787302D01*
X178168157Y-58834921D01*
X178072919Y-58882540D01*
X177977680Y-58882540D01*
X177882442Y-58834921D01*
X177834823Y-58787302D01*
X177787204Y-58692064D01*
X177739585Y-58501588D01*
X177739585Y-58263493D01*
X177787204Y-58073017D01*
X177834823Y-57977779D01*
X177882442Y-57930160D01*
X177977680Y-57882540D01*
X153535142Y-60047142D02*
X153487523Y-60094761D01*
X153344666Y-60142380D01*
X153249428Y-60142380D01*
X153106571Y-60094761D01*
X153011333Y-59999523D01*
X152963714Y-59904285D01*
X152916095Y-59713809D01*
X152916095Y-59570952D01*
X152963714Y-59380476D01*
X153011333Y-59285238D01*
X153106571Y-59190000D01*
X153249428Y-59142380D01*
X153344666Y-59142380D01*
X153487523Y-59190000D01*
X153535142Y-59237619D01*
X153868476Y-59142380D02*
X154487523Y-59142380D01*
X154154190Y-59523333D01*
X154297047Y-59523333D01*
X154392285Y-59570952D01*
X154439904Y-59618571D01*
X154487523Y-59713809D01*
X154487523Y-59951904D01*
X154439904Y-60047142D01*
X154392285Y-60094761D01*
X154297047Y-60142380D01*
X154011333Y-60142380D01*
X153916095Y-60094761D01*
X153868476Y-60047142D01*
X155392285Y-59142380D02*
X154916095Y-59142380D01*
X154868476Y-59618571D01*
X154916095Y-59570952D01*
X155011333Y-59523333D01*
X155249428Y-59523333D01*
X155344666Y-59570952D01*
X155392285Y-59618571D01*
X155439904Y-59713809D01*
X155439904Y-59951904D01*
X155392285Y-60047142D01*
X155344666Y-60094761D01*
X155249428Y-60142380D01*
X155011333Y-60142380D01*
X154916095Y-60094761D01*
X154868476Y-60047142D01*
X153535142Y-65635142D02*
X153487523Y-65682761D01*
X153344666Y-65730380D01*
X153249428Y-65730380D01*
X153106571Y-65682761D01*
X153011333Y-65587523D01*
X152963714Y-65492285D01*
X152916095Y-65301809D01*
X152916095Y-65158952D01*
X152963714Y-64968476D01*
X153011333Y-64873238D01*
X153106571Y-64778000D01*
X153249428Y-64730380D01*
X153344666Y-64730380D01*
X153487523Y-64778000D01*
X153535142Y-64825619D01*
X153868476Y-64730380D02*
X154487523Y-64730380D01*
X154154190Y-65111333D01*
X154297047Y-65111333D01*
X154392285Y-65158952D01*
X154439904Y-65206571D01*
X154487523Y-65301809D01*
X154487523Y-65539904D01*
X154439904Y-65635142D01*
X154392285Y-65682761D01*
X154297047Y-65730380D01*
X154011333Y-65730380D01*
X153916095Y-65682761D01*
X153868476Y-65635142D01*
X155344666Y-65063714D02*
X155344666Y-65730380D01*
X155106571Y-64682761D02*
X154868476Y-65397047D01*
X155487523Y-65397047D01*
X147769342Y-67463942D02*
X147721723Y-67511561D01*
X147578866Y-67559180D01*
X147483628Y-67559180D01*
X147340771Y-67511561D01*
X147245533Y-67416323D01*
X147197914Y-67321085D01*
X147150295Y-67130609D01*
X147150295Y-66987752D01*
X147197914Y-66797276D01*
X147245533Y-66702038D01*
X147340771Y-66606800D01*
X147483628Y-66559180D01*
X147578866Y-66559180D01*
X147721723Y-66606800D01*
X147769342Y-66654419D01*
X148102676Y-66559180D02*
X148721723Y-66559180D01*
X148388390Y-66940133D01*
X148531247Y-66940133D01*
X148626485Y-66987752D01*
X148674104Y-67035371D01*
X148721723Y-67130609D01*
X148721723Y-67368704D01*
X148674104Y-67463942D01*
X148626485Y-67511561D01*
X148531247Y-67559180D01*
X148245533Y-67559180D01*
X148150295Y-67511561D01*
X148102676Y-67463942D01*
X149055057Y-66559180D02*
X149674104Y-66559180D01*
X149340771Y-66940133D01*
X149483628Y-66940133D01*
X149578866Y-66987752D01*
X149626485Y-67035371D01*
X149674104Y-67130609D01*
X149674104Y-67368704D01*
X149626485Y-67463942D01*
X149578866Y-67511561D01*
X149483628Y-67559180D01*
X149197914Y-67559180D01*
X149102676Y-67511561D01*
X149055057Y-67463942D01*
X141352329Y-60926030D02*
X141352329Y-61402220D01*
X141018996Y-60402220D02*
X141352329Y-60926030D01*
X141685662Y-60402220D01*
X141923758Y-60402220D02*
X142542805Y-60402220D01*
X142209472Y-60783173D01*
X142352329Y-60783173D01*
X142447567Y-60830792D01*
X142495186Y-60878411D01*
X142542805Y-60973649D01*
X142542805Y-61211744D01*
X142495186Y-61306982D01*
X142447567Y-61354601D01*
X142352329Y-61402220D01*
X142066615Y-61402220D01*
X141971377Y-61354601D01*
X141923758Y-61306982D01*
X116261853Y-53427902D02*
X116214234Y-53475521D01*
X116071377Y-53523140D01*
X115976139Y-53523140D01*
X115833281Y-53475521D01*
X115738043Y-53380283D01*
X115690424Y-53285045D01*
X115642805Y-53094569D01*
X115642805Y-52951712D01*
X115690424Y-52761236D01*
X115738043Y-52665998D01*
X115833281Y-52570760D01*
X115976139Y-52523140D01*
X116071377Y-52523140D01*
X116214234Y-52570760D01*
X116261853Y-52618379D01*
X116642805Y-52618379D02*
X116690424Y-52570760D01*
X116785662Y-52523140D01*
X117023758Y-52523140D01*
X117118996Y-52570760D01*
X117166615Y-52618379D01*
X117214234Y-52713617D01*
X117214234Y-52808855D01*
X117166615Y-52951712D01*
X116595186Y-53523140D01*
X117214234Y-53523140D01*
X116562190Y-48736190D02*
X117038380Y-48736190D01*
X116038380Y-49069523D02*
X116562190Y-48736190D01*
X116038380Y-48402857D01*
X117038380Y-47545714D02*
X117038380Y-48117142D01*
X117038380Y-47831428D02*
X116038380Y-47831428D01*
X116181238Y-47926666D01*
X116276476Y-48021904D01*
X116324095Y-48117142D01*
X113188809Y-40108190D02*
X113188809Y-40584380D01*
X112855476Y-39584380D02*
X113188809Y-40108190D01*
X113522142Y-39584380D01*
X113807857Y-39679619D02*
X113855476Y-39632000D01*
X113950714Y-39584380D01*
X114188809Y-39584380D01*
X114284047Y-39632000D01*
X114331666Y-39679619D01*
X114379285Y-39774857D01*
X114379285Y-39870095D01*
X114331666Y-40012952D01*
X113760238Y-40584380D01*
X114379285Y-40584380D01*
X60717702Y-57160397D02*
X60765321Y-57208016D01*
X60812940Y-57350873D01*
X60812940Y-57446111D01*
X60765321Y-57588968D01*
X60670083Y-57684206D01*
X60574845Y-57731825D01*
X60384369Y-57779444D01*
X60241512Y-57779444D01*
X60051036Y-57731825D01*
X59955798Y-57684206D01*
X59860560Y-57588968D01*
X59812940Y-57446111D01*
X59812940Y-57350873D01*
X59860560Y-57208016D01*
X59908179Y-57160397D01*
X59908179Y-56779444D02*
X59860560Y-56731825D01*
X59812940Y-56636587D01*
X59812940Y-56398492D01*
X59860560Y-56303254D01*
X59908179Y-56255635D01*
X60003417Y-56208016D01*
X60098655Y-56208016D01*
X60241512Y-56255635D01*
X60812940Y-56827063D01*
X60812940Y-56208016D01*
X60241512Y-55636587D02*
X60193893Y-55731825D01*
X60146274Y-55779444D01*
X60051036Y-55827063D01*
X60003417Y-55827063D01*
X59908179Y-55779444D01*
X59860560Y-55731825D01*
X59812940Y-55636587D01*
X59812940Y-55446111D01*
X59860560Y-55350873D01*
X59908179Y-55303254D01*
X60003417Y-55255635D01*
X60051036Y-55255635D01*
X60146274Y-55303254D01*
X60193893Y-55350873D01*
X60241512Y-55446111D01*
X60241512Y-55636587D01*
X60289131Y-55731825D01*
X60336750Y-55779444D01*
X60431988Y-55827063D01*
X60622464Y-55827063D01*
X60717702Y-55779444D01*
X60765321Y-55731825D01*
X60812940Y-55636587D01*
X60812940Y-55446111D01*
X60765321Y-55350873D01*
X60717702Y-55303254D01*
X60622464Y-55255635D01*
X60431988Y-55255635D01*
X60336750Y-55303254D01*
X60289131Y-55350873D01*
X60241512Y-55446111D01*
X71411862Y-58088802D02*
X71364243Y-58136421D01*
X71221386Y-58184040D01*
X71126148Y-58184040D01*
X70983291Y-58136421D01*
X70888053Y-58041183D01*
X70840434Y-57945945D01*
X70792815Y-57755469D01*
X70792815Y-57612612D01*
X70840434Y-57422136D01*
X70888053Y-57326898D01*
X70983291Y-57231660D01*
X71126148Y-57184040D01*
X71221386Y-57184040D01*
X71364243Y-57231660D01*
X71411862Y-57279279D01*
X71745196Y-57184040D02*
X72364243Y-57184040D01*
X72030910Y-57564993D01*
X72173767Y-57564993D01*
X72269005Y-57612612D01*
X72316624Y-57660231D01*
X72364243Y-57755469D01*
X72364243Y-57993564D01*
X72316624Y-58088802D01*
X72269005Y-58136421D01*
X72173767Y-58184040D01*
X71888053Y-58184040D01*
X71792815Y-58136421D01*
X71745196Y-58088802D01*
X73316624Y-58184040D02*
X72745196Y-58184040D01*
X73030910Y-58184040D02*
X73030910Y-57184040D01*
X72935672Y-57326898D01*
X72840434Y-57422136D01*
X72745196Y-57469755D01*
X158835362Y-51930537D02*
X158882981Y-51978156D01*
X158930600Y-52121013D01*
X158930600Y-52216251D01*
X158882981Y-52359108D01*
X158787743Y-52454346D01*
X158692505Y-52501965D01*
X158502029Y-52549584D01*
X158359172Y-52549584D01*
X158168696Y-52501965D01*
X158073458Y-52454346D01*
X157978220Y-52359108D01*
X157930600Y-52216251D01*
X157930600Y-52121013D01*
X157978220Y-51978156D01*
X158025839Y-51930537D01*
X158025839Y-51549584D02*
X157978220Y-51501965D01*
X157930600Y-51406727D01*
X157930600Y-51168632D01*
X157978220Y-51073394D01*
X158025839Y-51025775D01*
X158121077Y-50978156D01*
X158216315Y-50978156D01*
X158359172Y-51025775D01*
X158930600Y-51597203D01*
X158930600Y-50978156D01*
X157930600Y-50644822D02*
X157930600Y-49978156D01*
X158930600Y-50406727D01*
X168213802Y-53336462D02*
X168166183Y-53384081D01*
X168023326Y-53431700D01*
X167928088Y-53431700D01*
X167785231Y-53384081D01*
X167689993Y-53288843D01*
X167642374Y-53193605D01*
X167594755Y-53003129D01*
X167594755Y-52860272D01*
X167642374Y-52669796D01*
X167689993Y-52574558D01*
X167785231Y-52479320D01*
X167928088Y-52431700D01*
X168023326Y-52431700D01*
X168166183Y-52479320D01*
X168213802Y-52526939D01*
X168594755Y-52526939D02*
X168642374Y-52479320D01*
X168737612Y-52431700D01*
X168975707Y-52431700D01*
X169070945Y-52479320D01*
X169118564Y-52526939D01*
X169166183Y-52622177D01*
X169166183Y-52717415D01*
X169118564Y-52860272D01*
X168547136Y-53431700D01*
X169166183Y-53431700D01*
X170023326Y-52431700D02*
X169832850Y-52431700D01*
X169737612Y-52479320D01*
X169689993Y-52526939D01*
X169594755Y-52669796D01*
X169547136Y-52860272D01*
X169547136Y-53241224D01*
X169594755Y-53336462D01*
X169642374Y-53384081D01*
X169737612Y-53431700D01*
X169928088Y-53431700D01*
X170023326Y-53384081D01*
X170070945Y-53336462D01*
X170118564Y-53241224D01*
X170118564Y-53003129D01*
X170070945Y-52907891D01*
X170023326Y-52860272D01*
X169928088Y-52812653D01*
X169737612Y-52812653D01*
X169642374Y-52860272D01*
X169594755Y-52907891D01*
X169547136Y-53003129D01*
X130449082Y-72797942D02*
X130401463Y-72845561D01*
X130258606Y-72893180D01*
X130163368Y-72893180D01*
X130020511Y-72845561D01*
X129925273Y-72750323D01*
X129877654Y-72655085D01*
X129830035Y-72464609D01*
X129830035Y-72321752D01*
X129877654Y-72131276D01*
X129925273Y-72036038D01*
X130020511Y-71940800D01*
X130163368Y-71893180D01*
X130258606Y-71893180D01*
X130401463Y-71940800D01*
X130449082Y-71988419D01*
X130830035Y-71988419D02*
X130877654Y-71940800D01*
X130972892Y-71893180D01*
X131210987Y-71893180D01*
X131306225Y-71940800D01*
X131353844Y-71988419D01*
X131401463Y-72083657D01*
X131401463Y-72178895D01*
X131353844Y-72321752D01*
X130782416Y-72893180D01*
X131401463Y-72893180D01*
X132306225Y-71893180D02*
X131830035Y-71893180D01*
X131782416Y-72369371D01*
X131830035Y-72321752D01*
X131925273Y-72274133D01*
X132163368Y-72274133D01*
X132258606Y-72321752D01*
X132306225Y-72369371D01*
X132353844Y-72464609D01*
X132353844Y-72702704D01*
X132306225Y-72797942D01*
X132258606Y-72845561D01*
X132163368Y-72893180D01*
X131925273Y-72893180D01*
X131830035Y-72845561D01*
X131782416Y-72797942D01*
X129838095Y-56752380D02*
X129838095Y-57561904D01*
X129885714Y-57657142D01*
X129933333Y-57704761D01*
X130028571Y-57752380D01*
X130219047Y-57752380D01*
X130314285Y-57704761D01*
X130361904Y-57657142D01*
X130409523Y-57561904D01*
X130409523Y-56752380D01*
X131409523Y-57752380D02*
X130838095Y-57752380D01*
X131123809Y-57752380D02*
X131123809Y-56752380D01*
X131028571Y-56895238D01*
X130933333Y-56990476D01*
X130838095Y-57038095D01*
X151592042Y-42584642D02*
X151544423Y-42632261D01*
X151401566Y-42679880D01*
X151306328Y-42679880D01*
X151163471Y-42632261D01*
X151068233Y-42537023D01*
X151020614Y-42441785D01*
X150972995Y-42251309D01*
X150972995Y-42108452D01*
X151020614Y-41917976D01*
X151068233Y-41822738D01*
X151163471Y-41727500D01*
X151306328Y-41679880D01*
X151401566Y-41679880D01*
X151544423Y-41727500D01*
X151592042Y-41775119D01*
X151972995Y-41775119D02*
X152020614Y-41727500D01*
X152115852Y-41679880D01*
X152353947Y-41679880D01*
X152449185Y-41727500D01*
X152496804Y-41775119D01*
X152544423Y-41870357D01*
X152544423Y-41965595D01*
X152496804Y-42108452D01*
X151925376Y-42679880D01*
X152544423Y-42679880D01*
X152925376Y-41775119D02*
X152972995Y-41727500D01*
X153068233Y-41679880D01*
X153306328Y-41679880D01*
X153401566Y-41727500D01*
X153449185Y-41775119D01*
X153496804Y-41870357D01*
X153496804Y-41965595D01*
X153449185Y-42108452D01*
X152877757Y-42679880D01*
X153496804Y-42679880D01*
X150352522Y-72399162D02*
X150304903Y-72446781D01*
X150162046Y-72494400D01*
X150066808Y-72494400D01*
X149923951Y-72446781D01*
X149828713Y-72351543D01*
X149781094Y-72256305D01*
X149733475Y-72065829D01*
X149733475Y-71922972D01*
X149781094Y-71732496D01*
X149828713Y-71637258D01*
X149923951Y-71542020D01*
X150066808Y-71494400D01*
X150162046Y-71494400D01*
X150304903Y-71542020D01*
X150352522Y-71589639D01*
X151304903Y-72494400D02*
X150733475Y-72494400D01*
X151019189Y-72494400D02*
X151019189Y-71494400D01*
X150923951Y-71637258D01*
X150828713Y-71732496D01*
X150733475Y-71780115D01*
X151876332Y-71922972D02*
X151781094Y-71875353D01*
X151733475Y-71827734D01*
X151685856Y-71732496D01*
X151685856Y-71684877D01*
X151733475Y-71589639D01*
X151781094Y-71542020D01*
X151876332Y-71494400D01*
X152066808Y-71494400D01*
X152162046Y-71542020D01*
X152209665Y-71589639D01*
X152257284Y-71684877D01*
X152257284Y-71732496D01*
X152209665Y-71827734D01*
X152162046Y-71875353D01*
X152066808Y-71922972D01*
X151876332Y-71922972D01*
X151781094Y-71970591D01*
X151733475Y-72018210D01*
X151685856Y-72113448D01*
X151685856Y-72303924D01*
X151733475Y-72399162D01*
X151781094Y-72446781D01*
X151876332Y-72494400D01*
X152066808Y-72494400D01*
X152162046Y-72446781D01*
X152209665Y-72399162D01*
X152257284Y-72303924D01*
X152257284Y-72113448D01*
X152209665Y-72018210D01*
X152162046Y-71970591D01*
X152066808Y-71922972D01*
X134687582Y-73784697D02*
X134735201Y-73832316D01*
X134782820Y-73975173D01*
X134782820Y-74070411D01*
X134735201Y-74213268D01*
X134639963Y-74308506D01*
X134544725Y-74356125D01*
X134354249Y-74403744D01*
X134211392Y-74403744D01*
X134020916Y-74356125D01*
X133925678Y-74308506D01*
X133830440Y-74213268D01*
X133782820Y-74070411D01*
X133782820Y-73975173D01*
X133830440Y-73832316D01*
X133878059Y-73784697D01*
X133878059Y-73403744D02*
X133830440Y-73356125D01*
X133782820Y-73260887D01*
X133782820Y-73022792D01*
X133830440Y-72927554D01*
X133878059Y-72879935D01*
X133973297Y-72832316D01*
X134068535Y-72832316D01*
X134211392Y-72879935D01*
X134782820Y-73451363D01*
X134782820Y-72832316D01*
X134782820Y-71879935D02*
X134782820Y-72451363D01*
X134782820Y-72165649D02*
X133782820Y-72165649D01*
X133925678Y-72260887D01*
X134020916Y-72356125D01*
X134068535Y-72451363D01*
X150334742Y-70461142D02*
X150287123Y-70508761D01*
X150144266Y-70556380D01*
X150049028Y-70556380D01*
X149906171Y-70508761D01*
X149810933Y-70413523D01*
X149763314Y-70318285D01*
X149715695Y-70127809D01*
X149715695Y-69984952D01*
X149763314Y-69794476D01*
X149810933Y-69699238D01*
X149906171Y-69604000D01*
X150049028Y-69556380D01*
X150144266Y-69556380D01*
X150287123Y-69604000D01*
X150334742Y-69651619D01*
X150715695Y-69651619D02*
X150763314Y-69604000D01*
X150858552Y-69556380D01*
X151096647Y-69556380D01*
X151191885Y-69604000D01*
X151239504Y-69651619D01*
X151287123Y-69746857D01*
X151287123Y-69842095D01*
X151239504Y-69984952D01*
X150668076Y-70556380D01*
X151287123Y-70556380D01*
X151906171Y-69556380D02*
X152001409Y-69556380D01*
X152096647Y-69604000D01*
X152144266Y-69651619D01*
X152191885Y-69746857D01*
X152239504Y-69937333D01*
X152239504Y-70175428D01*
X152191885Y-70365904D01*
X152144266Y-70461142D01*
X152096647Y-70508761D01*
X152001409Y-70556380D01*
X151906171Y-70556380D01*
X151810933Y-70508761D01*
X151763314Y-70461142D01*
X151715695Y-70365904D01*
X151668076Y-70175428D01*
X151668076Y-69937333D01*
X151715695Y-69746857D01*
X151763314Y-69651619D01*
X151810933Y-69604000D01*
X151906171Y-69556380D01*
X136925322Y-73807557D02*
X136972941Y-73855176D01*
X137020560Y-73998033D01*
X137020560Y-74093271D01*
X136972941Y-74236128D01*
X136877703Y-74331366D01*
X136782465Y-74378985D01*
X136591989Y-74426604D01*
X136449132Y-74426604D01*
X136258656Y-74378985D01*
X136163418Y-74331366D01*
X136068180Y-74236128D01*
X136020560Y-74093271D01*
X136020560Y-73998033D01*
X136068180Y-73855176D01*
X136115799Y-73807557D01*
X137020560Y-72855176D02*
X137020560Y-73426604D01*
X137020560Y-73140890D02*
X136020560Y-73140890D01*
X136163418Y-73236128D01*
X136258656Y-73331366D01*
X136306275Y-73426604D01*
X137020560Y-72378985D02*
X137020560Y-72188509D01*
X136972941Y-72093271D01*
X136925322Y-72045652D01*
X136782465Y-71950414D01*
X136591989Y-71902795D01*
X136211037Y-71902795D01*
X136115799Y-71950414D01*
X136068180Y-71998033D01*
X136020560Y-72093271D01*
X136020560Y-72283747D01*
X136068180Y-72378985D01*
X136115799Y-72426604D01*
X136211037Y-72474223D01*
X136449132Y-72474223D01*
X136544370Y-72426604D01*
X136591989Y-72378985D01*
X136639608Y-72283747D01*
X136639608Y-72093271D01*
X136591989Y-71998033D01*
X136544370Y-71950414D01*
X136449132Y-71902795D01*
X140174742Y-74146682D02*
X140127123Y-74194301D01*
X139984266Y-74241920D01*
X139889028Y-74241920D01*
X139746171Y-74194301D01*
X139650933Y-74099063D01*
X139603314Y-74003825D01*
X139555695Y-73813349D01*
X139555695Y-73670492D01*
X139603314Y-73480016D01*
X139650933Y-73384778D01*
X139746171Y-73289540D01*
X139889028Y-73241920D01*
X139984266Y-73241920D01*
X140127123Y-73289540D01*
X140174742Y-73337159D01*
X141127123Y-74241920D02*
X140555695Y-74241920D01*
X140841409Y-74241920D02*
X140841409Y-73241920D01*
X140746171Y-73384778D01*
X140650933Y-73480016D01*
X140555695Y-73527635D01*
X141984266Y-73241920D02*
X141793790Y-73241920D01*
X141698552Y-73289540D01*
X141650933Y-73337159D01*
X141555695Y-73480016D01*
X141508076Y-73670492D01*
X141508076Y-74051444D01*
X141555695Y-74146682D01*
X141603314Y-74194301D01*
X141698552Y-74241920D01*
X141889028Y-74241920D01*
X141984266Y-74194301D01*
X142031885Y-74146682D01*
X142079504Y-74051444D01*
X142079504Y-73813349D01*
X142031885Y-73718111D01*
X141984266Y-73670492D01*
X141889028Y-73622873D01*
X141698552Y-73622873D01*
X141603314Y-73670492D01*
X141555695Y-73718111D01*
X141508076Y-73813349D01*
X150334742Y-74321942D02*
X150287123Y-74369561D01*
X150144266Y-74417180D01*
X150049028Y-74417180D01*
X149906171Y-74369561D01*
X149810933Y-74274323D01*
X149763314Y-74179085D01*
X149715695Y-73988609D01*
X149715695Y-73845752D01*
X149763314Y-73655276D01*
X149810933Y-73560038D01*
X149906171Y-73464800D01*
X150049028Y-73417180D01*
X150144266Y-73417180D01*
X150287123Y-73464800D01*
X150334742Y-73512419D01*
X151287123Y-74417180D02*
X150715695Y-74417180D01*
X151001409Y-74417180D02*
X151001409Y-73417180D01*
X150906171Y-73560038D01*
X150810933Y-73655276D01*
X150715695Y-73702895D01*
X151620457Y-73417180D02*
X152287123Y-73417180D01*
X151858552Y-74417180D01*
X137628380Y-72897904D02*
X138437904Y-72897904D01*
X138533142Y-72850285D01*
X138580761Y-72802666D01*
X138628380Y-72707428D01*
X138628380Y-72516952D01*
X138580761Y-72421714D01*
X138533142Y-72374095D01*
X138437904Y-72326476D01*
X137628380Y-72326476D01*
X137723619Y-71897904D02*
X137676000Y-71850285D01*
X137628380Y-71755047D01*
X137628380Y-71516952D01*
X137676000Y-71421714D01*
X137723619Y-71374095D01*
X137818857Y-71326476D01*
X137914095Y-71326476D01*
X138056952Y-71374095D01*
X138628380Y-71945523D01*
X138628380Y-71326476D01*
X145534640Y-68299626D02*
X145058450Y-68632960D01*
X145534640Y-68871055D02*
X144534640Y-68871055D01*
X144534640Y-68490102D01*
X144582260Y-68394864D01*
X144629879Y-68347245D01*
X144725117Y-68299626D01*
X144867974Y-68299626D01*
X144963212Y-68347245D01*
X145010831Y-68394864D01*
X145058450Y-68490102D01*
X145058450Y-68871055D01*
X144534640Y-67394864D02*
X144534640Y-67871055D01*
X145010831Y-67918674D01*
X144963212Y-67871055D01*
X144915593Y-67775817D01*
X144915593Y-67537721D01*
X144963212Y-67442483D01*
X145010831Y-67394864D01*
X145106069Y-67347245D01*
X145344164Y-67347245D01*
X145439402Y-67394864D01*
X145487021Y-67442483D01*
X145534640Y-67537721D01*
X145534640Y-67775817D01*
X145487021Y-67871055D01*
X145439402Y-67918674D01*
X140030460Y-63956226D02*
X139554270Y-64289560D01*
X140030460Y-64527655D02*
X139030460Y-64527655D01*
X139030460Y-64146702D01*
X139078080Y-64051464D01*
X139125699Y-64003845D01*
X139220937Y-63956226D01*
X139363794Y-63956226D01*
X139459032Y-64003845D01*
X139506651Y-64051464D01*
X139554270Y-64146702D01*
X139554270Y-64527655D01*
X139030460Y-63099083D02*
X139030460Y-63289560D01*
X139078080Y-63384798D01*
X139125699Y-63432417D01*
X139268556Y-63527655D01*
X139459032Y-63575274D01*
X139839984Y-63575274D01*
X139935222Y-63527655D01*
X139982841Y-63480036D01*
X140030460Y-63384798D01*
X140030460Y-63194321D01*
X139982841Y-63099083D01*
X139935222Y-63051464D01*
X139839984Y-63003845D01*
X139601889Y-63003845D01*
X139506651Y-63051464D01*
X139459032Y-63099083D01*
X139411413Y-63194321D01*
X139411413Y-63384798D01*
X139459032Y-63480036D01*
X139506651Y-63527655D01*
X139601889Y-63575274D01*
X106849942Y-42063942D02*
X106802323Y-42111561D01*
X106659466Y-42159180D01*
X106564228Y-42159180D01*
X106421371Y-42111561D01*
X106326133Y-42016323D01*
X106278514Y-41921085D01*
X106230895Y-41730609D01*
X106230895Y-41587752D01*
X106278514Y-41397276D01*
X106326133Y-41302038D01*
X106421371Y-41206800D01*
X106564228Y-41159180D01*
X106659466Y-41159180D01*
X106802323Y-41206800D01*
X106849942Y-41254419D01*
X107802323Y-42159180D02*
X107230895Y-42159180D01*
X107516609Y-42159180D02*
X107516609Y-41159180D01*
X107421371Y-41302038D01*
X107326133Y-41397276D01*
X107230895Y-41444895D01*
X108707085Y-41159180D02*
X108230895Y-41159180D01*
X108183276Y-41635371D01*
X108230895Y-41587752D01*
X108326133Y-41540133D01*
X108564228Y-41540133D01*
X108659466Y-41587752D01*
X108707085Y-41635371D01*
X108754704Y-41730609D01*
X108754704Y-41968704D01*
X108707085Y-42063942D01*
X108659466Y-42111561D01*
X108564228Y-42159180D01*
X108326133Y-42159180D01*
X108230895Y-42111561D01*
X108183276Y-42063942D01*
X106926142Y-44299142D02*
X106878523Y-44346761D01*
X106735666Y-44394380D01*
X106640428Y-44394380D01*
X106497571Y-44346761D01*
X106402333Y-44251523D01*
X106354714Y-44156285D01*
X106307095Y-43965809D01*
X106307095Y-43822952D01*
X106354714Y-43632476D01*
X106402333Y-43537238D01*
X106497571Y-43442000D01*
X106640428Y-43394380D01*
X106735666Y-43394380D01*
X106878523Y-43442000D01*
X106926142Y-43489619D01*
X107878523Y-44394380D02*
X107307095Y-44394380D01*
X107592809Y-44394380D02*
X107592809Y-43394380D01*
X107497571Y-43537238D01*
X107402333Y-43632476D01*
X107307095Y-43680095D01*
X108735666Y-43727714D02*
X108735666Y-44394380D01*
X108497571Y-43346761D02*
X108259476Y-44061047D01*
X108878523Y-44061047D01*
X109323142Y-51188857D02*
X109370761Y-51236476D01*
X109418380Y-51379333D01*
X109418380Y-51474571D01*
X109370761Y-51617428D01*
X109275523Y-51712666D01*
X109180285Y-51760285D01*
X108989809Y-51807904D01*
X108846952Y-51807904D01*
X108656476Y-51760285D01*
X108561238Y-51712666D01*
X108466000Y-51617428D01*
X108418380Y-51474571D01*
X108418380Y-51379333D01*
X108466000Y-51236476D01*
X108513619Y-51188857D01*
X109418380Y-50236476D02*
X109418380Y-50807904D01*
X109418380Y-50522190D02*
X108418380Y-50522190D01*
X108561238Y-50617428D01*
X108656476Y-50712666D01*
X108704095Y-50807904D01*
X108418380Y-49903142D02*
X108418380Y-49284095D01*
X108799333Y-49617428D01*
X108799333Y-49474571D01*
X108846952Y-49379333D01*
X108894571Y-49331714D01*
X108989809Y-49284095D01*
X109227904Y-49284095D01*
X109323142Y-49331714D01*
X109370761Y-49379333D01*
X109418380Y-49474571D01*
X109418380Y-49760285D01*
X109370761Y-49855523D01*
X109323142Y-49903142D01*
X109323142Y-47721757D02*
X109370761Y-47769376D01*
X109418380Y-47912233D01*
X109418380Y-48007471D01*
X109370761Y-48150328D01*
X109275523Y-48245566D01*
X109180285Y-48293185D01*
X108989809Y-48340804D01*
X108846952Y-48340804D01*
X108656476Y-48293185D01*
X108561238Y-48245566D01*
X108466000Y-48150328D01*
X108418380Y-48007471D01*
X108418380Y-47912233D01*
X108466000Y-47769376D01*
X108513619Y-47721757D01*
X109418380Y-46769376D02*
X109418380Y-47340804D01*
X109418380Y-47055090D02*
X108418380Y-47055090D01*
X108561238Y-47150328D01*
X108656476Y-47245566D01*
X108704095Y-47340804D01*
X108513619Y-46388423D02*
X108466000Y-46340804D01*
X108418380Y-46245566D01*
X108418380Y-46007471D01*
X108466000Y-45912233D01*
X108513619Y-45864614D01*
X108608857Y-45816995D01*
X108704095Y-45816995D01*
X108846952Y-45864614D01*
X109418380Y-46436042D01*
X109418380Y-45816995D01*
X122277142Y-38615857D02*
X122324761Y-38663476D01*
X122372380Y-38806333D01*
X122372380Y-38901571D01*
X122324761Y-39044428D01*
X122229523Y-39139666D01*
X122134285Y-39187285D01*
X121943809Y-39234904D01*
X121800952Y-39234904D01*
X121610476Y-39187285D01*
X121515238Y-39139666D01*
X121420000Y-39044428D01*
X121372380Y-38901571D01*
X121372380Y-38806333D01*
X121420000Y-38663476D01*
X121467619Y-38615857D01*
X122372380Y-37663476D02*
X122372380Y-38234904D01*
X122372380Y-37949190D02*
X121372380Y-37949190D01*
X121515238Y-38044428D01*
X121610476Y-38139666D01*
X121658095Y-38234904D01*
X122372380Y-36711095D02*
X122372380Y-37282523D01*
X122372380Y-36996809D02*
X121372380Y-36996809D01*
X121515238Y-37092047D01*
X121610476Y-37187285D01*
X121658095Y-37282523D01*
X136504442Y-61779422D02*
X136456823Y-61827041D01*
X136313966Y-61874660D01*
X136218728Y-61874660D01*
X136075871Y-61827041D01*
X135980633Y-61731803D01*
X135933014Y-61636565D01*
X135885395Y-61446089D01*
X135885395Y-61303232D01*
X135933014Y-61112756D01*
X135980633Y-61017518D01*
X136075871Y-60922280D01*
X136218728Y-60874660D01*
X136313966Y-60874660D01*
X136456823Y-60922280D01*
X136504442Y-60969899D01*
X137456823Y-61874660D02*
X136885395Y-61874660D01*
X137171109Y-61874660D02*
X137171109Y-60874660D01*
X137075871Y-61017518D01*
X136980633Y-61112756D01*
X136885395Y-61160375D01*
X138075871Y-60874660D02*
X138171109Y-60874660D01*
X138266347Y-60922280D01*
X138313966Y-60969899D01*
X138361585Y-61065137D01*
X138409204Y-61255613D01*
X138409204Y-61493708D01*
X138361585Y-61684184D01*
X138313966Y-61779422D01*
X138266347Y-61827041D01*
X138171109Y-61874660D01*
X138075871Y-61874660D01*
X137980633Y-61827041D01*
X137933014Y-61779422D01*
X137885395Y-61684184D01*
X137837776Y-61493708D01*
X137837776Y-61255613D01*
X137885395Y-61065137D01*
X137933014Y-60969899D01*
X137980633Y-60922280D01*
X138075871Y-60874660D01*
X140814062Y-42511006D02*
X140861681Y-42558625D01*
X140909300Y-42701482D01*
X140909300Y-42796720D01*
X140861681Y-42939578D01*
X140766443Y-43034816D01*
X140671205Y-43082435D01*
X140480729Y-43130054D01*
X140337872Y-43130054D01*
X140147396Y-43082435D01*
X140052158Y-43034816D01*
X139956920Y-42939578D01*
X139909300Y-42796720D01*
X139909300Y-42701482D01*
X139956920Y-42558625D01*
X140004539Y-42511006D01*
X140909300Y-42034816D02*
X140909300Y-41844340D01*
X140861681Y-41749101D01*
X140814062Y-41701482D01*
X140671205Y-41606244D01*
X140480729Y-41558625D01*
X140099777Y-41558625D01*
X140004539Y-41606244D01*
X139956920Y-41653863D01*
X139909300Y-41749101D01*
X139909300Y-41939578D01*
X139956920Y-42034816D01*
X140004539Y-42082435D01*
X140099777Y-42130054D01*
X140337872Y-42130054D01*
X140433110Y-42082435D01*
X140480729Y-42034816D01*
X140528348Y-41939578D01*
X140528348Y-41749101D01*
X140480729Y-41653863D01*
X140433110Y-41606244D01*
X140337872Y-41558625D01*
X119198093Y-48553642D02*
X119150474Y-48601261D01*
X119007617Y-48648880D01*
X118912379Y-48648880D01*
X118769521Y-48601261D01*
X118674283Y-48506023D01*
X118626664Y-48410785D01*
X118579045Y-48220309D01*
X118579045Y-48077452D01*
X118626664Y-47886976D01*
X118674283Y-47791738D01*
X118769521Y-47696500D01*
X118912379Y-47648880D01*
X119007617Y-47648880D01*
X119150474Y-47696500D01*
X119198093Y-47744119D01*
X119769521Y-48077452D02*
X119674283Y-48029833D01*
X119626664Y-47982214D01*
X119579045Y-47886976D01*
X119579045Y-47839357D01*
X119626664Y-47744119D01*
X119674283Y-47696500D01*
X119769521Y-47648880D01*
X119959998Y-47648880D01*
X120055236Y-47696500D01*
X120102855Y-47744119D01*
X120150474Y-47839357D01*
X120150474Y-47886976D01*
X120102855Y-47982214D01*
X120055236Y-48029833D01*
X119959998Y-48077452D01*
X119769521Y-48077452D01*
X119674283Y-48125071D01*
X119626664Y-48172690D01*
X119579045Y-48267928D01*
X119579045Y-48458404D01*
X119626664Y-48553642D01*
X119674283Y-48601261D01*
X119769521Y-48648880D01*
X119959998Y-48648880D01*
X120055236Y-48601261D01*
X120102855Y-48553642D01*
X120150474Y-48458404D01*
X120150474Y-48267928D01*
X120102855Y-48172690D01*
X120055236Y-48125071D01*
X119959998Y-48077452D01*
X121192562Y-58286946D02*
X121240181Y-58334565D01*
X121287800Y-58477422D01*
X121287800Y-58572660D01*
X121240181Y-58715518D01*
X121144943Y-58810756D01*
X121049705Y-58858375D01*
X120859229Y-58905994D01*
X120716372Y-58905994D01*
X120525896Y-58858375D01*
X120430658Y-58810756D01*
X120335420Y-58715518D01*
X120287800Y-58572660D01*
X120287800Y-58477422D01*
X120335420Y-58334565D01*
X120383039Y-58286946D01*
X120287800Y-57953613D02*
X120287800Y-57286946D01*
X121287800Y-57715518D01*
X121228122Y-52622746D02*
X121275741Y-52670365D01*
X121323360Y-52813222D01*
X121323360Y-52908460D01*
X121275741Y-53051318D01*
X121180503Y-53146556D01*
X121085265Y-53194175D01*
X120894789Y-53241794D01*
X120751932Y-53241794D01*
X120561456Y-53194175D01*
X120466218Y-53146556D01*
X120370980Y-53051318D01*
X120323360Y-52908460D01*
X120323360Y-52813222D01*
X120370980Y-52670365D01*
X120418599Y-52622746D01*
X120323360Y-51765603D02*
X120323360Y-51956080D01*
X120370980Y-52051318D01*
X120418599Y-52098937D01*
X120561456Y-52194175D01*
X120751932Y-52241794D01*
X121132884Y-52241794D01*
X121228122Y-52194175D01*
X121275741Y-52146556D01*
X121323360Y-52051318D01*
X121323360Y-51860841D01*
X121275741Y-51765603D01*
X121228122Y-51717984D01*
X121132884Y-51670365D01*
X120894789Y-51670365D01*
X120799551Y-51717984D01*
X120751932Y-51765603D01*
X120704313Y-51860841D01*
X120704313Y-52051318D01*
X120751932Y-52146556D01*
X120799551Y-52194175D01*
X120894789Y-52241794D01*
X116704382Y-38228566D02*
X116752001Y-38276185D01*
X116799620Y-38419042D01*
X116799620Y-38514280D01*
X116752001Y-38657138D01*
X116656763Y-38752376D01*
X116561525Y-38799995D01*
X116371049Y-38847614D01*
X116228192Y-38847614D01*
X116037716Y-38799995D01*
X115942478Y-38752376D01*
X115847240Y-38657138D01*
X115799620Y-38514280D01*
X115799620Y-38419042D01*
X115847240Y-38276185D01*
X115894859Y-38228566D01*
X115799620Y-37323804D02*
X115799620Y-37799995D01*
X116275811Y-37847614D01*
X116228192Y-37799995D01*
X116180573Y-37704757D01*
X116180573Y-37466661D01*
X116228192Y-37371423D01*
X116275811Y-37323804D01*
X116371049Y-37276185D01*
X116609144Y-37276185D01*
X116704382Y-37323804D01*
X116752001Y-37371423D01*
X116799620Y-37466661D01*
X116799620Y-37704757D01*
X116752001Y-37799995D01*
X116704382Y-37847614D01*
X119350493Y-45373562D02*
X119302874Y-45421181D01*
X119160017Y-45468800D01*
X119064779Y-45468800D01*
X118921921Y-45421181D01*
X118826683Y-45325943D01*
X118779064Y-45230705D01*
X118731445Y-45040229D01*
X118731445Y-44897372D01*
X118779064Y-44706896D01*
X118826683Y-44611658D01*
X118921921Y-44516420D01*
X119064779Y-44468800D01*
X119160017Y-44468800D01*
X119302874Y-44516420D01*
X119350493Y-44564039D01*
X120207636Y-44802134D02*
X120207636Y-45468800D01*
X119969540Y-44421181D02*
X119731445Y-45135467D01*
X120350493Y-45135467D01*
X143503353Y-44728402D02*
X143455734Y-44776021D01*
X143312877Y-44823640D01*
X143217639Y-44823640D01*
X143074781Y-44776021D01*
X142979543Y-44680783D01*
X142931924Y-44585545D01*
X142884305Y-44395069D01*
X142884305Y-44252212D01*
X142931924Y-44061736D01*
X142979543Y-43966498D01*
X143074781Y-43871260D01*
X143217639Y-43823640D01*
X143312877Y-43823640D01*
X143455734Y-43871260D01*
X143503353Y-43918879D01*
X143836686Y-43823640D02*
X144455734Y-43823640D01*
X144122400Y-44204593D01*
X144265258Y-44204593D01*
X144360496Y-44252212D01*
X144408115Y-44299831D01*
X144455734Y-44395069D01*
X144455734Y-44633164D01*
X144408115Y-44728402D01*
X144360496Y-44776021D01*
X144265258Y-44823640D01*
X143979543Y-44823640D01*
X143884305Y-44776021D01*
X143836686Y-44728402D01*
X133656342Y-58731446D02*
X133703961Y-58779065D01*
X133751580Y-58921922D01*
X133751580Y-59017160D01*
X133703961Y-59160018D01*
X133608723Y-59255256D01*
X133513485Y-59302875D01*
X133323009Y-59350494D01*
X133180152Y-59350494D01*
X132989676Y-59302875D01*
X132894438Y-59255256D01*
X132799200Y-59160018D01*
X132751580Y-59017160D01*
X132751580Y-58921922D01*
X132799200Y-58779065D01*
X132846819Y-58731446D01*
X133751580Y-57779065D02*
X133751580Y-58350494D01*
X133751580Y-58064780D02*
X132751580Y-58064780D01*
X132894438Y-58160018D01*
X132989676Y-58255256D01*
X133037295Y-58350494D01*
X113625333Y-37028380D02*
X113292000Y-36552190D01*
X113053904Y-37028380D02*
X113053904Y-36028380D01*
X113434857Y-36028380D01*
X113530095Y-36076000D01*
X113577714Y-36123619D01*
X113625333Y-36218857D01*
X113625333Y-36361714D01*
X113577714Y-36456952D01*
X113530095Y-36504571D01*
X113434857Y-36552190D01*
X113053904Y-36552190D01*
X114006285Y-36123619D02*
X114053904Y-36076000D01*
X114149142Y-36028380D01*
X114387238Y-36028380D01*
X114482476Y-36076000D01*
X114530095Y-36123619D01*
X114577714Y-36218857D01*
X114577714Y-36314095D01*
X114530095Y-36456952D01*
X113958666Y-37028380D01*
X114577714Y-37028380D01*
X116419333Y-55824380D02*
X116086000Y-55348190D01*
X115847904Y-55824380D02*
X115847904Y-54824380D01*
X116228857Y-54824380D01*
X116324095Y-54872000D01*
X116371714Y-54919619D01*
X116419333Y-55014857D01*
X116419333Y-55157714D01*
X116371714Y-55252952D01*
X116324095Y-55300571D01*
X116228857Y-55348190D01*
X115847904Y-55348190D01*
X117371714Y-55824380D02*
X116800285Y-55824380D01*
X117086000Y-55824380D02*
X117086000Y-54824380D01*
X116990761Y-54967238D01*
X116895523Y-55062476D01*
X116800285Y-55110095D01*
M02*
