G04 #@! TF.GenerationSoftware,KiCad,Pcbnew,(5.1.2)-1*
G04 #@! TF.CreationDate,2019-05-25T17:58:01-03:00*
G04 #@! TF.ProjectId,dragonmanh7,64726167-6f6e-46d6-916e-68372e6b6963,rev?*
G04 #@! TF.SameCoordinates,Original*
G04 #@! TF.FileFunction,Soldermask,Bot*
G04 #@! TF.FilePolarity,Negative*
%FSLAX46Y46*%
G04 Gerber Fmt 4.6, Leading zero omitted, Abs format (unit mm)*
G04 Created by KiCad (PCBNEW (5.1.2)-1) date 2019-05-25 17:58:01*
%MOMM*%
%LPD*%
G04 APERTURE LIST*
%ADD10C,0.100000*%
G04 APERTURE END LIST*
D10*
G36*
X190626239Y-75043467D02*
G01*
X190940282Y-75105934D01*
X191531926Y-75351001D01*
X191932073Y-75618371D01*
X192055036Y-75700532D01*
X192064392Y-75706784D01*
X192517216Y-76159608D01*
X192872999Y-76692074D01*
X193118066Y-77283718D01*
X193133654Y-77362083D01*
X193243000Y-77911803D01*
X193243000Y-78552197D01*
X193202031Y-78758160D01*
X193118066Y-79180282D01*
X192872999Y-79771926D01*
X192517216Y-80304392D01*
X192064392Y-80757216D01*
X191531926Y-81112999D01*
X190940282Y-81358066D01*
X190626239Y-81420533D01*
X190312197Y-81483000D01*
X189671803Y-81483000D01*
X189357761Y-81420533D01*
X189043718Y-81358066D01*
X188452074Y-81112999D01*
X187919608Y-80757216D01*
X187466784Y-80304392D01*
X187111001Y-79771926D01*
X186865934Y-79180282D01*
X186781969Y-78758160D01*
X186741000Y-78552197D01*
X186741000Y-77911803D01*
X186850346Y-77362083D01*
X186865934Y-77283718D01*
X187111001Y-76692074D01*
X187466784Y-76159608D01*
X187919608Y-75706784D01*
X187928965Y-75700532D01*
X188051927Y-75618371D01*
X188452074Y-75351001D01*
X189043718Y-75105934D01*
X189357761Y-75043467D01*
X189671803Y-74981000D01*
X190312197Y-74981000D01*
X190626239Y-75043467D01*
X190626239Y-75043467D01*
G37*
G36*
X63626239Y-75043467D02*
G01*
X63940282Y-75105934D01*
X64531926Y-75351001D01*
X64932073Y-75618371D01*
X65055036Y-75700532D01*
X65064392Y-75706784D01*
X65517216Y-76159608D01*
X65872999Y-76692074D01*
X66118066Y-77283718D01*
X66133654Y-77362083D01*
X66243000Y-77911803D01*
X66243000Y-78552197D01*
X66202031Y-78758160D01*
X66118066Y-79180282D01*
X65872999Y-79771926D01*
X65517216Y-80304392D01*
X65064392Y-80757216D01*
X64531926Y-81112999D01*
X63940282Y-81358066D01*
X63626239Y-81420533D01*
X63312197Y-81483000D01*
X62671803Y-81483000D01*
X62357761Y-81420533D01*
X62043718Y-81358066D01*
X61452074Y-81112999D01*
X60919608Y-80757216D01*
X60466784Y-80304392D01*
X60111001Y-79771926D01*
X59865934Y-79180282D01*
X59781969Y-78758160D01*
X59741000Y-78552197D01*
X59741000Y-77911803D01*
X59850346Y-77362083D01*
X59865934Y-77283718D01*
X60111001Y-76692074D01*
X60466784Y-76159608D01*
X60919608Y-75706784D01*
X60928965Y-75700532D01*
X61051927Y-75618371D01*
X61452074Y-75351001D01*
X62043718Y-75105934D01*
X62357761Y-75043467D01*
X62671803Y-74981000D01*
X63312197Y-74981000D01*
X63626239Y-75043467D01*
X63626239Y-75043467D01*
G37*
G36*
X185599014Y-79605973D02*
G01*
X185702878Y-79637479D01*
X185746907Y-79661013D01*
X185798599Y-79688643D01*
X185798601Y-79688644D01*
X185798600Y-79688644D01*
X185882501Y-79757499D01*
X185940887Y-79828643D01*
X185951357Y-79841401D01*
X185974467Y-79884636D01*
X186002521Y-79937121D01*
X186034027Y-80040985D01*
X186042000Y-80121933D01*
X186042000Y-80726067D01*
X186034027Y-80807015D01*
X186002521Y-80910879D01*
X186002519Y-80910882D01*
X185951357Y-81006600D01*
X185882501Y-81090501D01*
X185798600Y-81159357D01*
X185730055Y-81195995D01*
X185702879Y-81210521D01*
X185599015Y-81242027D01*
X185491000Y-81252666D01*
X185382986Y-81242027D01*
X185279122Y-81210521D01*
X185251946Y-81195995D01*
X185183401Y-81159357D01*
X185099500Y-81090501D01*
X185030643Y-81006599D01*
X184979481Y-80910882D01*
X184959687Y-80845629D01*
X184947973Y-80807015D01*
X184940000Y-80726067D01*
X184940000Y-80121934D01*
X184947973Y-80040986D01*
X184979479Y-79937122D01*
X185030644Y-79841400D01*
X185099499Y-79757499D01*
X185183400Y-79688644D01*
X185183399Y-79688644D01*
X185183401Y-79688643D01*
X185235093Y-79661013D01*
X185279121Y-79637479D01*
X185382985Y-79605973D01*
X185491000Y-79595334D01*
X185599014Y-79605973D01*
X185599014Y-79605973D01*
G37*
G36*
X178599014Y-79605973D02*
G01*
X178702878Y-79637479D01*
X178746907Y-79661013D01*
X178798599Y-79688643D01*
X178798601Y-79688644D01*
X178798600Y-79688644D01*
X178882501Y-79757499D01*
X178940887Y-79828643D01*
X178951357Y-79841401D01*
X178974467Y-79884636D01*
X179002521Y-79937121D01*
X179034027Y-80040985D01*
X179042000Y-80121933D01*
X179042000Y-80726067D01*
X179034027Y-80807015D01*
X179002521Y-80910879D01*
X179002519Y-80910882D01*
X178951357Y-81006600D01*
X178882501Y-81090501D01*
X178798600Y-81159357D01*
X178730055Y-81195995D01*
X178702879Y-81210521D01*
X178599015Y-81242027D01*
X178491000Y-81252666D01*
X178382986Y-81242027D01*
X178279122Y-81210521D01*
X178251946Y-81195995D01*
X178183401Y-81159357D01*
X178099500Y-81090501D01*
X178030643Y-81006599D01*
X177979481Y-80910882D01*
X177959687Y-80845629D01*
X177947973Y-80807015D01*
X177940000Y-80726067D01*
X177940000Y-80121934D01*
X177947973Y-80040986D01*
X177979479Y-79937122D01*
X178030644Y-79841400D01*
X178099499Y-79757499D01*
X178183400Y-79688644D01*
X178183399Y-79688644D01*
X178183401Y-79688643D01*
X178235093Y-79661013D01*
X178279121Y-79637479D01*
X178382985Y-79605973D01*
X178491000Y-79595334D01*
X178599014Y-79605973D01*
X178599014Y-79605973D01*
G37*
G36*
X149341044Y-79256745D02*
G01*
X149509566Y-79326549D01*
X149661231Y-79427888D01*
X149790212Y-79556869D01*
X149891551Y-79708534D01*
X149961355Y-79877056D01*
X149996940Y-80055957D01*
X149996940Y-80238363D01*
X149961355Y-80417264D01*
X149891551Y-80585786D01*
X149790212Y-80737451D01*
X149661231Y-80866432D01*
X149509566Y-80967771D01*
X149341044Y-81037575D01*
X149162143Y-81073160D01*
X148979737Y-81073160D01*
X148800836Y-81037575D01*
X148632314Y-80967771D01*
X148480649Y-80866432D01*
X148351668Y-80737451D01*
X148250329Y-80585786D01*
X148180525Y-80417264D01*
X148144940Y-80238363D01*
X148144940Y-80055957D01*
X148180525Y-79877056D01*
X148250329Y-79708534D01*
X148351668Y-79556869D01*
X148480649Y-79427888D01*
X148632314Y-79326549D01*
X148800836Y-79256745D01*
X148979737Y-79221160D01*
X149162143Y-79221160D01*
X149341044Y-79256745D01*
X149341044Y-79256745D01*
G37*
G36*
X153841044Y-79256745D02*
G01*
X154009566Y-79326549D01*
X154161231Y-79427888D01*
X154290212Y-79556869D01*
X154391551Y-79708534D01*
X154461355Y-79877056D01*
X154496940Y-80055957D01*
X154496940Y-80238363D01*
X154461355Y-80417264D01*
X154391551Y-80585786D01*
X154290212Y-80737451D01*
X154161231Y-80866432D01*
X154009566Y-80967771D01*
X153841044Y-81037575D01*
X153662143Y-81073160D01*
X153479737Y-81073160D01*
X153300836Y-81037575D01*
X153132314Y-80967771D01*
X152980649Y-80866432D01*
X152851668Y-80737451D01*
X152750329Y-80585786D01*
X152680525Y-80417264D01*
X152644940Y-80238363D01*
X152644940Y-80055957D01*
X152680525Y-79877056D01*
X152750329Y-79708534D01*
X152851668Y-79556869D01*
X152980649Y-79427888D01*
X153132314Y-79326549D01*
X153300836Y-79256745D01*
X153479737Y-79221160D01*
X153662143Y-79221160D01*
X153841044Y-79256745D01*
X153841044Y-79256745D01*
G37*
G36*
X99170443Y-77845519D02*
G01*
X99236627Y-77852037D01*
X99406466Y-77903557D01*
X99562991Y-77987222D01*
X99598729Y-78016552D01*
X99700186Y-78099814D01*
X99783448Y-78201271D01*
X99812778Y-78237009D01*
X99896443Y-78393534D01*
X99947963Y-78563373D01*
X99965359Y-78740000D01*
X99947963Y-78916627D01*
X99896443Y-79086466D01*
X99812778Y-79242991D01*
X99801490Y-79256745D01*
X99700186Y-79380186D01*
X99598729Y-79463448D01*
X99562991Y-79492778D01*
X99406466Y-79576443D01*
X99236627Y-79627963D01*
X99170442Y-79634482D01*
X99104260Y-79641000D01*
X99015740Y-79641000D01*
X98949558Y-79634482D01*
X98883373Y-79627963D01*
X98713534Y-79576443D01*
X98557009Y-79492778D01*
X98521271Y-79463448D01*
X98419814Y-79380186D01*
X98318510Y-79256745D01*
X98307222Y-79242991D01*
X98223557Y-79086466D01*
X98172037Y-78916627D01*
X98154641Y-78740000D01*
X98172037Y-78563373D01*
X98223557Y-78393534D01*
X98307222Y-78237009D01*
X98336552Y-78201271D01*
X98419814Y-78099814D01*
X98521271Y-78016552D01*
X98557009Y-77987222D01*
X98713534Y-77903557D01*
X98883373Y-77852037D01*
X98949557Y-77845519D01*
X99015740Y-77839000D01*
X99104260Y-77839000D01*
X99170443Y-77845519D01*
X99170443Y-77845519D01*
G37*
G36*
X89801000Y-79641000D02*
G01*
X87999000Y-79641000D01*
X87999000Y-77839000D01*
X89801000Y-77839000D01*
X89801000Y-79641000D01*
X89801000Y-79641000D01*
G37*
G36*
X91550443Y-77845519D02*
G01*
X91616627Y-77852037D01*
X91786466Y-77903557D01*
X91942991Y-77987222D01*
X91978729Y-78016552D01*
X92080186Y-78099814D01*
X92163448Y-78201271D01*
X92192778Y-78237009D01*
X92276443Y-78393534D01*
X92327963Y-78563373D01*
X92345359Y-78740000D01*
X92327963Y-78916627D01*
X92276443Y-79086466D01*
X92192778Y-79242991D01*
X92181490Y-79256745D01*
X92080186Y-79380186D01*
X91978729Y-79463448D01*
X91942991Y-79492778D01*
X91786466Y-79576443D01*
X91616627Y-79627963D01*
X91550442Y-79634482D01*
X91484260Y-79641000D01*
X91395740Y-79641000D01*
X91329558Y-79634482D01*
X91263373Y-79627963D01*
X91093534Y-79576443D01*
X90937009Y-79492778D01*
X90901271Y-79463448D01*
X90799814Y-79380186D01*
X90698510Y-79256745D01*
X90687222Y-79242991D01*
X90603557Y-79086466D01*
X90552037Y-78916627D01*
X90534641Y-78740000D01*
X90552037Y-78563373D01*
X90603557Y-78393534D01*
X90687222Y-78237009D01*
X90716552Y-78201271D01*
X90799814Y-78099814D01*
X90901271Y-78016552D01*
X90937009Y-77987222D01*
X91093534Y-77903557D01*
X91263373Y-77852037D01*
X91329557Y-77845519D01*
X91395740Y-77839000D01*
X91484260Y-77839000D01*
X91550443Y-77845519D01*
X91550443Y-77845519D01*
G37*
G36*
X94090443Y-77845519D02*
G01*
X94156627Y-77852037D01*
X94326466Y-77903557D01*
X94482991Y-77987222D01*
X94518729Y-78016552D01*
X94620186Y-78099814D01*
X94703448Y-78201271D01*
X94732778Y-78237009D01*
X94816443Y-78393534D01*
X94867963Y-78563373D01*
X94885359Y-78740000D01*
X94867963Y-78916627D01*
X94816443Y-79086466D01*
X94732778Y-79242991D01*
X94721490Y-79256745D01*
X94620186Y-79380186D01*
X94518729Y-79463448D01*
X94482991Y-79492778D01*
X94326466Y-79576443D01*
X94156627Y-79627963D01*
X94090442Y-79634482D01*
X94024260Y-79641000D01*
X93935740Y-79641000D01*
X93869558Y-79634482D01*
X93803373Y-79627963D01*
X93633534Y-79576443D01*
X93477009Y-79492778D01*
X93441271Y-79463448D01*
X93339814Y-79380186D01*
X93238510Y-79256745D01*
X93227222Y-79242991D01*
X93143557Y-79086466D01*
X93092037Y-78916627D01*
X93074641Y-78740000D01*
X93092037Y-78563373D01*
X93143557Y-78393534D01*
X93227222Y-78237009D01*
X93256552Y-78201271D01*
X93339814Y-78099814D01*
X93441271Y-78016552D01*
X93477009Y-77987222D01*
X93633534Y-77903557D01*
X93803373Y-77852037D01*
X93869557Y-77845519D01*
X93935740Y-77839000D01*
X94024260Y-77839000D01*
X94090443Y-77845519D01*
X94090443Y-77845519D01*
G37*
G36*
X96630443Y-77845519D02*
G01*
X96696627Y-77852037D01*
X96866466Y-77903557D01*
X97022991Y-77987222D01*
X97058729Y-78016552D01*
X97160186Y-78099814D01*
X97243448Y-78201271D01*
X97272778Y-78237009D01*
X97356443Y-78393534D01*
X97407963Y-78563373D01*
X97425359Y-78740000D01*
X97407963Y-78916627D01*
X97356443Y-79086466D01*
X97272778Y-79242991D01*
X97261490Y-79256745D01*
X97160186Y-79380186D01*
X97058729Y-79463448D01*
X97022991Y-79492778D01*
X96866466Y-79576443D01*
X96696627Y-79627963D01*
X96630442Y-79634482D01*
X96564260Y-79641000D01*
X96475740Y-79641000D01*
X96409558Y-79634482D01*
X96343373Y-79627963D01*
X96173534Y-79576443D01*
X96017009Y-79492778D01*
X95981271Y-79463448D01*
X95879814Y-79380186D01*
X95778510Y-79256745D01*
X95767222Y-79242991D01*
X95683557Y-79086466D01*
X95632037Y-78916627D01*
X95614641Y-78740000D01*
X95632037Y-78563373D01*
X95683557Y-78393534D01*
X95767222Y-78237009D01*
X95796552Y-78201271D01*
X95879814Y-78099814D01*
X95981271Y-78016552D01*
X96017009Y-77987222D01*
X96173534Y-77903557D01*
X96343373Y-77852037D01*
X96409557Y-77845519D01*
X96475740Y-77839000D01*
X96564260Y-77839000D01*
X96630443Y-77845519D01*
X96630443Y-77845519D01*
G37*
G36*
X144890443Y-77845519D02*
G01*
X144956627Y-77852037D01*
X145126466Y-77903557D01*
X145282991Y-77987222D01*
X145318729Y-78016552D01*
X145420186Y-78099814D01*
X145503448Y-78201271D01*
X145532778Y-78237009D01*
X145616443Y-78393534D01*
X145667963Y-78563373D01*
X145685359Y-78740000D01*
X145667963Y-78916627D01*
X145616443Y-79086466D01*
X145532778Y-79242991D01*
X145521490Y-79256745D01*
X145420186Y-79380186D01*
X145318729Y-79463448D01*
X145282991Y-79492778D01*
X145126466Y-79576443D01*
X144956627Y-79627963D01*
X144890442Y-79634482D01*
X144824260Y-79641000D01*
X144735740Y-79641000D01*
X144669558Y-79634482D01*
X144603373Y-79627963D01*
X144433534Y-79576443D01*
X144277009Y-79492778D01*
X144241271Y-79463448D01*
X144139814Y-79380186D01*
X144038510Y-79256745D01*
X144027222Y-79242991D01*
X143943557Y-79086466D01*
X143892037Y-78916627D01*
X143874641Y-78740000D01*
X143892037Y-78563373D01*
X143943557Y-78393534D01*
X144027222Y-78237009D01*
X144056552Y-78201271D01*
X144139814Y-78099814D01*
X144241271Y-78016552D01*
X144277009Y-77987222D01*
X144433534Y-77903557D01*
X144603373Y-77852037D01*
X144669557Y-77845519D01*
X144735740Y-77839000D01*
X144824260Y-77839000D01*
X144890443Y-77845519D01*
X144890443Y-77845519D01*
G37*
G36*
X142350443Y-77845519D02*
G01*
X142416627Y-77852037D01*
X142586466Y-77903557D01*
X142742991Y-77987222D01*
X142778729Y-78016552D01*
X142880186Y-78099814D01*
X142963448Y-78201271D01*
X142992778Y-78237009D01*
X143076443Y-78393534D01*
X143127963Y-78563373D01*
X143145359Y-78740000D01*
X143127963Y-78916627D01*
X143076443Y-79086466D01*
X142992778Y-79242991D01*
X142981490Y-79256745D01*
X142880186Y-79380186D01*
X142778729Y-79463448D01*
X142742991Y-79492778D01*
X142586466Y-79576443D01*
X142416627Y-79627963D01*
X142350442Y-79634482D01*
X142284260Y-79641000D01*
X142195740Y-79641000D01*
X142129558Y-79634482D01*
X142063373Y-79627963D01*
X141893534Y-79576443D01*
X141737009Y-79492778D01*
X141701271Y-79463448D01*
X141599814Y-79380186D01*
X141498510Y-79256745D01*
X141487222Y-79242991D01*
X141403557Y-79086466D01*
X141352037Y-78916627D01*
X141334641Y-78740000D01*
X141352037Y-78563373D01*
X141403557Y-78393534D01*
X141487222Y-78237009D01*
X141516552Y-78201271D01*
X141599814Y-78099814D01*
X141701271Y-78016552D01*
X141737009Y-77987222D01*
X141893534Y-77903557D01*
X142063373Y-77852037D01*
X142129557Y-77845519D01*
X142195740Y-77839000D01*
X142284260Y-77839000D01*
X142350443Y-77845519D01*
X142350443Y-77845519D01*
G37*
G36*
X139810443Y-77845519D02*
G01*
X139876627Y-77852037D01*
X140046466Y-77903557D01*
X140202991Y-77987222D01*
X140238729Y-78016552D01*
X140340186Y-78099814D01*
X140423448Y-78201271D01*
X140452778Y-78237009D01*
X140536443Y-78393534D01*
X140587963Y-78563373D01*
X140605359Y-78740000D01*
X140587963Y-78916627D01*
X140536443Y-79086466D01*
X140452778Y-79242991D01*
X140441490Y-79256745D01*
X140340186Y-79380186D01*
X140238729Y-79463448D01*
X140202991Y-79492778D01*
X140046466Y-79576443D01*
X139876627Y-79627963D01*
X139810442Y-79634482D01*
X139744260Y-79641000D01*
X139655740Y-79641000D01*
X139589558Y-79634482D01*
X139523373Y-79627963D01*
X139353534Y-79576443D01*
X139197009Y-79492778D01*
X139161271Y-79463448D01*
X139059814Y-79380186D01*
X138958510Y-79256745D01*
X138947222Y-79242991D01*
X138863557Y-79086466D01*
X138812037Y-78916627D01*
X138794641Y-78740000D01*
X138812037Y-78563373D01*
X138863557Y-78393534D01*
X138947222Y-78237009D01*
X138976552Y-78201271D01*
X139059814Y-78099814D01*
X139161271Y-78016552D01*
X139197009Y-77987222D01*
X139353534Y-77903557D01*
X139523373Y-77852037D01*
X139589557Y-77845519D01*
X139655740Y-77839000D01*
X139744260Y-77839000D01*
X139810443Y-77845519D01*
X139810443Y-77845519D01*
G37*
G36*
X137270443Y-77845519D02*
G01*
X137336627Y-77852037D01*
X137506466Y-77903557D01*
X137662991Y-77987222D01*
X137698729Y-78016552D01*
X137800186Y-78099814D01*
X137883448Y-78201271D01*
X137912778Y-78237009D01*
X137996443Y-78393534D01*
X138047963Y-78563373D01*
X138065359Y-78740000D01*
X138047963Y-78916627D01*
X137996443Y-79086466D01*
X137912778Y-79242991D01*
X137901490Y-79256745D01*
X137800186Y-79380186D01*
X137698729Y-79463448D01*
X137662991Y-79492778D01*
X137506466Y-79576443D01*
X137336627Y-79627963D01*
X137270442Y-79634482D01*
X137204260Y-79641000D01*
X137115740Y-79641000D01*
X137049558Y-79634482D01*
X136983373Y-79627963D01*
X136813534Y-79576443D01*
X136657009Y-79492778D01*
X136621271Y-79463448D01*
X136519814Y-79380186D01*
X136418510Y-79256745D01*
X136407222Y-79242991D01*
X136323557Y-79086466D01*
X136272037Y-78916627D01*
X136254641Y-78740000D01*
X136272037Y-78563373D01*
X136323557Y-78393534D01*
X136407222Y-78237009D01*
X136436552Y-78201271D01*
X136519814Y-78099814D01*
X136621271Y-78016552D01*
X136657009Y-77987222D01*
X136813534Y-77903557D01*
X136983373Y-77852037D01*
X137049557Y-77845519D01*
X137115740Y-77839000D01*
X137204260Y-77839000D01*
X137270443Y-77845519D01*
X137270443Y-77845519D01*
G37*
G36*
X132190443Y-77845519D02*
G01*
X132256627Y-77852037D01*
X132426466Y-77903557D01*
X132582991Y-77987222D01*
X132618729Y-78016552D01*
X132720186Y-78099814D01*
X132803448Y-78201271D01*
X132832778Y-78237009D01*
X132916443Y-78393534D01*
X132967963Y-78563373D01*
X132985359Y-78740000D01*
X132967963Y-78916627D01*
X132916443Y-79086466D01*
X132832778Y-79242991D01*
X132821490Y-79256745D01*
X132720186Y-79380186D01*
X132618729Y-79463448D01*
X132582991Y-79492778D01*
X132426466Y-79576443D01*
X132256627Y-79627963D01*
X132190442Y-79634482D01*
X132124260Y-79641000D01*
X132035740Y-79641000D01*
X131969558Y-79634482D01*
X131903373Y-79627963D01*
X131733534Y-79576443D01*
X131577009Y-79492778D01*
X131541271Y-79463448D01*
X131439814Y-79380186D01*
X131338510Y-79256745D01*
X131327222Y-79242991D01*
X131243557Y-79086466D01*
X131192037Y-78916627D01*
X131174641Y-78740000D01*
X131192037Y-78563373D01*
X131243557Y-78393534D01*
X131327222Y-78237009D01*
X131356552Y-78201271D01*
X131439814Y-78099814D01*
X131541271Y-78016552D01*
X131577009Y-77987222D01*
X131733534Y-77903557D01*
X131903373Y-77852037D01*
X131969557Y-77845519D01*
X132035740Y-77839000D01*
X132124260Y-77839000D01*
X132190443Y-77845519D01*
X132190443Y-77845519D01*
G37*
G36*
X129650443Y-77845519D02*
G01*
X129716627Y-77852037D01*
X129886466Y-77903557D01*
X130042991Y-77987222D01*
X130078729Y-78016552D01*
X130180186Y-78099814D01*
X130263448Y-78201271D01*
X130292778Y-78237009D01*
X130376443Y-78393534D01*
X130427963Y-78563373D01*
X130445359Y-78740000D01*
X130427963Y-78916627D01*
X130376443Y-79086466D01*
X130292778Y-79242991D01*
X130281490Y-79256745D01*
X130180186Y-79380186D01*
X130078729Y-79463448D01*
X130042991Y-79492778D01*
X129886466Y-79576443D01*
X129716627Y-79627963D01*
X129650442Y-79634482D01*
X129584260Y-79641000D01*
X129495740Y-79641000D01*
X129429558Y-79634482D01*
X129363373Y-79627963D01*
X129193534Y-79576443D01*
X129037009Y-79492778D01*
X129001271Y-79463448D01*
X128899814Y-79380186D01*
X128798510Y-79256745D01*
X128787222Y-79242991D01*
X128703557Y-79086466D01*
X128652037Y-78916627D01*
X128634641Y-78740000D01*
X128652037Y-78563373D01*
X128703557Y-78393534D01*
X128787222Y-78237009D01*
X128816552Y-78201271D01*
X128899814Y-78099814D01*
X129001271Y-78016552D01*
X129037009Y-77987222D01*
X129193534Y-77903557D01*
X129363373Y-77852037D01*
X129429557Y-77845519D01*
X129495740Y-77839000D01*
X129584260Y-77839000D01*
X129650443Y-77845519D01*
X129650443Y-77845519D01*
G37*
G36*
X124570443Y-77845519D02*
G01*
X124636627Y-77852037D01*
X124806466Y-77903557D01*
X124962991Y-77987222D01*
X124998729Y-78016552D01*
X125100186Y-78099814D01*
X125183448Y-78201271D01*
X125212778Y-78237009D01*
X125296443Y-78393534D01*
X125347963Y-78563373D01*
X125365359Y-78740000D01*
X125347963Y-78916627D01*
X125296443Y-79086466D01*
X125212778Y-79242991D01*
X125201490Y-79256745D01*
X125100186Y-79380186D01*
X124998729Y-79463448D01*
X124962991Y-79492778D01*
X124806466Y-79576443D01*
X124636627Y-79627963D01*
X124570442Y-79634482D01*
X124504260Y-79641000D01*
X124415740Y-79641000D01*
X124349558Y-79634482D01*
X124283373Y-79627963D01*
X124113534Y-79576443D01*
X123957009Y-79492778D01*
X123921271Y-79463448D01*
X123819814Y-79380186D01*
X123718510Y-79256745D01*
X123707222Y-79242991D01*
X123623557Y-79086466D01*
X123572037Y-78916627D01*
X123554641Y-78740000D01*
X123572037Y-78563373D01*
X123623557Y-78393534D01*
X123707222Y-78237009D01*
X123736552Y-78201271D01*
X123819814Y-78099814D01*
X123921271Y-78016552D01*
X123957009Y-77987222D01*
X124113534Y-77903557D01*
X124283373Y-77852037D01*
X124349557Y-77845519D01*
X124415740Y-77839000D01*
X124504260Y-77839000D01*
X124570443Y-77845519D01*
X124570443Y-77845519D01*
G37*
G36*
X122030443Y-77845519D02*
G01*
X122096627Y-77852037D01*
X122266466Y-77903557D01*
X122422991Y-77987222D01*
X122458729Y-78016552D01*
X122560186Y-78099814D01*
X122643448Y-78201271D01*
X122672778Y-78237009D01*
X122756443Y-78393534D01*
X122807963Y-78563373D01*
X122825359Y-78740000D01*
X122807963Y-78916627D01*
X122756443Y-79086466D01*
X122672778Y-79242991D01*
X122661490Y-79256745D01*
X122560186Y-79380186D01*
X122458729Y-79463448D01*
X122422991Y-79492778D01*
X122266466Y-79576443D01*
X122096627Y-79627963D01*
X122030442Y-79634482D01*
X121964260Y-79641000D01*
X121875740Y-79641000D01*
X121809558Y-79634482D01*
X121743373Y-79627963D01*
X121573534Y-79576443D01*
X121417009Y-79492778D01*
X121381271Y-79463448D01*
X121279814Y-79380186D01*
X121178510Y-79256745D01*
X121167222Y-79242991D01*
X121083557Y-79086466D01*
X121032037Y-78916627D01*
X121014641Y-78740000D01*
X121032037Y-78563373D01*
X121083557Y-78393534D01*
X121167222Y-78237009D01*
X121196552Y-78201271D01*
X121279814Y-78099814D01*
X121381271Y-78016552D01*
X121417009Y-77987222D01*
X121573534Y-77903557D01*
X121743373Y-77852037D01*
X121809557Y-77845519D01*
X121875740Y-77839000D01*
X121964260Y-77839000D01*
X122030443Y-77845519D01*
X122030443Y-77845519D01*
G37*
G36*
X119490443Y-77845519D02*
G01*
X119556627Y-77852037D01*
X119726466Y-77903557D01*
X119882991Y-77987222D01*
X119918729Y-78016552D01*
X120020186Y-78099814D01*
X120103448Y-78201271D01*
X120132778Y-78237009D01*
X120216443Y-78393534D01*
X120267963Y-78563373D01*
X120285359Y-78740000D01*
X120267963Y-78916627D01*
X120216443Y-79086466D01*
X120132778Y-79242991D01*
X120121490Y-79256745D01*
X120020186Y-79380186D01*
X119918729Y-79463448D01*
X119882991Y-79492778D01*
X119726466Y-79576443D01*
X119556627Y-79627963D01*
X119490442Y-79634482D01*
X119424260Y-79641000D01*
X119335740Y-79641000D01*
X119269558Y-79634482D01*
X119203373Y-79627963D01*
X119033534Y-79576443D01*
X118877009Y-79492778D01*
X118841271Y-79463448D01*
X118739814Y-79380186D01*
X118638510Y-79256745D01*
X118627222Y-79242991D01*
X118543557Y-79086466D01*
X118492037Y-78916627D01*
X118474641Y-78740000D01*
X118492037Y-78563373D01*
X118543557Y-78393534D01*
X118627222Y-78237009D01*
X118656552Y-78201271D01*
X118739814Y-78099814D01*
X118841271Y-78016552D01*
X118877009Y-77987222D01*
X119033534Y-77903557D01*
X119203373Y-77852037D01*
X119269557Y-77845519D01*
X119335740Y-77839000D01*
X119424260Y-77839000D01*
X119490443Y-77845519D01*
X119490443Y-77845519D01*
G37*
G36*
X117741000Y-79641000D02*
G01*
X115939000Y-79641000D01*
X115939000Y-77839000D01*
X117741000Y-77839000D01*
X117741000Y-79641000D01*
X117741000Y-79641000D01*
G37*
G36*
X111870443Y-77845519D02*
G01*
X111936627Y-77852037D01*
X112106466Y-77903557D01*
X112262991Y-77987222D01*
X112298729Y-78016552D01*
X112400186Y-78099814D01*
X112483448Y-78201271D01*
X112512778Y-78237009D01*
X112596443Y-78393534D01*
X112647963Y-78563373D01*
X112665359Y-78740000D01*
X112647963Y-78916627D01*
X112596443Y-79086466D01*
X112512778Y-79242991D01*
X112501490Y-79256745D01*
X112400186Y-79380186D01*
X112298729Y-79463448D01*
X112262991Y-79492778D01*
X112106466Y-79576443D01*
X111936627Y-79627963D01*
X111870442Y-79634482D01*
X111804260Y-79641000D01*
X111715740Y-79641000D01*
X111649558Y-79634482D01*
X111583373Y-79627963D01*
X111413534Y-79576443D01*
X111257009Y-79492778D01*
X111221271Y-79463448D01*
X111119814Y-79380186D01*
X111018510Y-79256745D01*
X111007222Y-79242991D01*
X110923557Y-79086466D01*
X110872037Y-78916627D01*
X110854641Y-78740000D01*
X110872037Y-78563373D01*
X110923557Y-78393534D01*
X111007222Y-78237009D01*
X111036552Y-78201271D01*
X111119814Y-78099814D01*
X111221271Y-78016552D01*
X111257009Y-77987222D01*
X111413534Y-77903557D01*
X111583373Y-77852037D01*
X111649557Y-77845519D01*
X111715740Y-77839000D01*
X111804260Y-77839000D01*
X111870443Y-77845519D01*
X111870443Y-77845519D01*
G37*
G36*
X109330443Y-77845519D02*
G01*
X109396627Y-77852037D01*
X109566466Y-77903557D01*
X109722991Y-77987222D01*
X109758729Y-78016552D01*
X109860186Y-78099814D01*
X109943448Y-78201271D01*
X109972778Y-78237009D01*
X110056443Y-78393534D01*
X110107963Y-78563373D01*
X110125359Y-78740000D01*
X110107963Y-78916627D01*
X110056443Y-79086466D01*
X109972778Y-79242991D01*
X109961490Y-79256745D01*
X109860186Y-79380186D01*
X109758729Y-79463448D01*
X109722991Y-79492778D01*
X109566466Y-79576443D01*
X109396627Y-79627963D01*
X109330442Y-79634482D01*
X109264260Y-79641000D01*
X109175740Y-79641000D01*
X109109558Y-79634482D01*
X109043373Y-79627963D01*
X108873534Y-79576443D01*
X108717009Y-79492778D01*
X108681271Y-79463448D01*
X108579814Y-79380186D01*
X108478510Y-79256745D01*
X108467222Y-79242991D01*
X108383557Y-79086466D01*
X108332037Y-78916627D01*
X108314641Y-78740000D01*
X108332037Y-78563373D01*
X108383557Y-78393534D01*
X108467222Y-78237009D01*
X108496552Y-78201271D01*
X108579814Y-78099814D01*
X108681271Y-78016552D01*
X108717009Y-77987222D01*
X108873534Y-77903557D01*
X109043373Y-77852037D01*
X109109557Y-77845519D01*
X109175740Y-77839000D01*
X109264260Y-77839000D01*
X109330443Y-77845519D01*
X109330443Y-77845519D01*
G37*
G36*
X134730443Y-77845519D02*
G01*
X134796627Y-77852037D01*
X134966466Y-77903557D01*
X135122991Y-77987222D01*
X135158729Y-78016552D01*
X135260186Y-78099814D01*
X135343448Y-78201271D01*
X135372778Y-78237009D01*
X135456443Y-78393534D01*
X135507963Y-78563373D01*
X135525359Y-78740000D01*
X135507963Y-78916627D01*
X135456443Y-79086466D01*
X135372778Y-79242991D01*
X135361490Y-79256745D01*
X135260186Y-79380186D01*
X135158729Y-79463448D01*
X135122991Y-79492778D01*
X134966466Y-79576443D01*
X134796627Y-79627963D01*
X134730442Y-79634482D01*
X134664260Y-79641000D01*
X134575740Y-79641000D01*
X134509558Y-79634482D01*
X134443373Y-79627963D01*
X134273534Y-79576443D01*
X134117009Y-79492778D01*
X134081271Y-79463448D01*
X133979814Y-79380186D01*
X133878510Y-79256745D01*
X133867222Y-79242991D01*
X133783557Y-79086466D01*
X133732037Y-78916627D01*
X133714641Y-78740000D01*
X133732037Y-78563373D01*
X133783557Y-78393534D01*
X133867222Y-78237009D01*
X133896552Y-78201271D01*
X133979814Y-78099814D01*
X134081271Y-78016552D01*
X134117009Y-77987222D01*
X134273534Y-77903557D01*
X134443373Y-77852037D01*
X134509557Y-77845519D01*
X134575740Y-77839000D01*
X134664260Y-77839000D01*
X134730443Y-77845519D01*
X134730443Y-77845519D01*
G37*
G36*
X106790443Y-77845519D02*
G01*
X106856627Y-77852037D01*
X107026466Y-77903557D01*
X107182991Y-77987222D01*
X107218729Y-78016552D01*
X107320186Y-78099814D01*
X107403448Y-78201271D01*
X107432778Y-78237009D01*
X107516443Y-78393534D01*
X107567963Y-78563373D01*
X107585359Y-78740000D01*
X107567963Y-78916627D01*
X107516443Y-79086466D01*
X107432778Y-79242991D01*
X107421490Y-79256745D01*
X107320186Y-79380186D01*
X107218729Y-79463448D01*
X107182991Y-79492778D01*
X107026466Y-79576443D01*
X106856627Y-79627963D01*
X106790442Y-79634482D01*
X106724260Y-79641000D01*
X106635740Y-79641000D01*
X106569558Y-79634482D01*
X106503373Y-79627963D01*
X106333534Y-79576443D01*
X106177009Y-79492778D01*
X106141271Y-79463448D01*
X106039814Y-79380186D01*
X105938510Y-79256745D01*
X105927222Y-79242991D01*
X105843557Y-79086466D01*
X105792037Y-78916627D01*
X105774641Y-78740000D01*
X105792037Y-78563373D01*
X105843557Y-78393534D01*
X105927222Y-78237009D01*
X105956552Y-78201271D01*
X106039814Y-78099814D01*
X106141271Y-78016552D01*
X106177009Y-77987222D01*
X106333534Y-77903557D01*
X106503373Y-77852037D01*
X106569557Y-77845519D01*
X106635740Y-77839000D01*
X106724260Y-77839000D01*
X106790443Y-77845519D01*
X106790443Y-77845519D01*
G37*
G36*
X104250443Y-77845519D02*
G01*
X104316627Y-77852037D01*
X104486466Y-77903557D01*
X104642991Y-77987222D01*
X104678729Y-78016552D01*
X104780186Y-78099814D01*
X104863448Y-78201271D01*
X104892778Y-78237009D01*
X104976443Y-78393534D01*
X105027963Y-78563373D01*
X105045359Y-78740000D01*
X105027963Y-78916627D01*
X104976443Y-79086466D01*
X104892778Y-79242991D01*
X104881490Y-79256745D01*
X104780186Y-79380186D01*
X104678729Y-79463448D01*
X104642991Y-79492778D01*
X104486466Y-79576443D01*
X104316627Y-79627963D01*
X104250442Y-79634482D01*
X104184260Y-79641000D01*
X104095740Y-79641000D01*
X104029558Y-79634482D01*
X103963373Y-79627963D01*
X103793534Y-79576443D01*
X103637009Y-79492778D01*
X103601271Y-79463448D01*
X103499814Y-79380186D01*
X103398510Y-79256745D01*
X103387222Y-79242991D01*
X103303557Y-79086466D01*
X103252037Y-78916627D01*
X103234641Y-78740000D01*
X103252037Y-78563373D01*
X103303557Y-78393534D01*
X103387222Y-78237009D01*
X103416552Y-78201271D01*
X103499814Y-78099814D01*
X103601271Y-78016552D01*
X103637009Y-77987222D01*
X103793534Y-77903557D01*
X103963373Y-77852037D01*
X104029557Y-77845519D01*
X104095740Y-77839000D01*
X104184260Y-77839000D01*
X104250443Y-77845519D01*
X104250443Y-77845519D01*
G37*
G36*
X101710443Y-77845519D02*
G01*
X101776627Y-77852037D01*
X101946466Y-77903557D01*
X102102991Y-77987222D01*
X102138729Y-78016552D01*
X102240186Y-78099814D01*
X102323448Y-78201271D01*
X102352778Y-78237009D01*
X102436443Y-78393534D01*
X102487963Y-78563373D01*
X102505359Y-78740000D01*
X102487963Y-78916627D01*
X102436443Y-79086466D01*
X102352778Y-79242991D01*
X102341490Y-79256745D01*
X102240186Y-79380186D01*
X102138729Y-79463448D01*
X102102991Y-79492778D01*
X101946466Y-79576443D01*
X101776627Y-79627963D01*
X101710442Y-79634482D01*
X101644260Y-79641000D01*
X101555740Y-79641000D01*
X101489558Y-79634482D01*
X101423373Y-79627963D01*
X101253534Y-79576443D01*
X101097009Y-79492778D01*
X101061271Y-79463448D01*
X100959814Y-79380186D01*
X100858510Y-79256745D01*
X100847222Y-79242991D01*
X100763557Y-79086466D01*
X100712037Y-78916627D01*
X100694641Y-78740000D01*
X100712037Y-78563373D01*
X100763557Y-78393534D01*
X100847222Y-78237009D01*
X100876552Y-78201271D01*
X100959814Y-78099814D01*
X101061271Y-78016552D01*
X101097009Y-77987222D01*
X101253534Y-77903557D01*
X101423373Y-77852037D01*
X101489557Y-77845519D01*
X101555740Y-77839000D01*
X101644260Y-77839000D01*
X101710443Y-77845519D01*
X101710443Y-77845519D01*
G37*
G36*
X127110443Y-77845519D02*
G01*
X127176627Y-77852037D01*
X127346466Y-77903557D01*
X127502991Y-77987222D01*
X127538729Y-78016552D01*
X127640186Y-78099814D01*
X127723448Y-78201271D01*
X127752778Y-78237009D01*
X127836443Y-78393534D01*
X127887963Y-78563373D01*
X127905359Y-78740000D01*
X127887963Y-78916627D01*
X127836443Y-79086466D01*
X127752778Y-79242991D01*
X127741490Y-79256745D01*
X127640186Y-79380186D01*
X127538729Y-79463448D01*
X127502991Y-79492778D01*
X127346466Y-79576443D01*
X127176627Y-79627963D01*
X127110442Y-79634482D01*
X127044260Y-79641000D01*
X126955740Y-79641000D01*
X126889558Y-79634482D01*
X126823373Y-79627963D01*
X126653534Y-79576443D01*
X126497009Y-79492778D01*
X126461271Y-79463448D01*
X126359814Y-79380186D01*
X126258510Y-79256745D01*
X126247222Y-79242991D01*
X126163557Y-79086466D01*
X126112037Y-78916627D01*
X126094641Y-78740000D01*
X126112037Y-78563373D01*
X126163557Y-78393534D01*
X126247222Y-78237009D01*
X126276552Y-78201271D01*
X126359814Y-78099814D01*
X126461271Y-78016552D01*
X126497009Y-77987222D01*
X126653534Y-77903557D01*
X126823373Y-77852037D01*
X126889557Y-77845519D01*
X126955740Y-77839000D01*
X127044260Y-77839000D01*
X127110443Y-77845519D01*
X127110443Y-77845519D01*
G37*
G36*
X159522721Y-77452575D02*
G01*
X159613353Y-77490116D01*
X159703983Y-77527656D01*
X159867113Y-77636656D01*
X160005844Y-77775387D01*
X160114844Y-77938517D01*
X160135018Y-77987222D01*
X160189925Y-78119779D01*
X160228200Y-78312201D01*
X160228200Y-78508399D01*
X160189925Y-78700821D01*
X160183700Y-78715849D01*
X160114844Y-78882083D01*
X160005844Y-79045213D01*
X159867113Y-79183944D01*
X159703983Y-79292944D01*
X159613353Y-79330484D01*
X159522721Y-79368025D01*
X159330299Y-79406300D01*
X159134101Y-79406300D01*
X158941679Y-79368025D01*
X158851047Y-79330484D01*
X158760417Y-79292944D01*
X158597287Y-79183944D01*
X158458556Y-79045213D01*
X158349556Y-78882083D01*
X158280700Y-78715849D01*
X158274475Y-78700821D01*
X158236200Y-78508399D01*
X158236200Y-78312201D01*
X158274475Y-78119779D01*
X158329382Y-77987222D01*
X158349556Y-77938517D01*
X158458556Y-77775387D01*
X158597287Y-77636656D01*
X158760417Y-77527656D01*
X158851048Y-77490116D01*
X158941679Y-77452575D01*
X159134101Y-77414300D01*
X159330299Y-77414300D01*
X159522721Y-77452575D01*
X159522721Y-77452575D01*
G37*
G36*
X169632721Y-77452575D02*
G01*
X169723353Y-77490116D01*
X169813983Y-77527656D01*
X169977113Y-77636656D01*
X170115844Y-77775387D01*
X170224844Y-77938517D01*
X170245018Y-77987222D01*
X170299925Y-78119779D01*
X170338200Y-78312201D01*
X170338200Y-78508399D01*
X170299925Y-78700821D01*
X170293700Y-78715849D01*
X170224844Y-78882083D01*
X170115844Y-79045213D01*
X169977113Y-79183944D01*
X169813983Y-79292944D01*
X169723353Y-79330484D01*
X169632721Y-79368025D01*
X169440299Y-79406300D01*
X169244101Y-79406300D01*
X169051679Y-79368025D01*
X168961047Y-79330484D01*
X168870417Y-79292944D01*
X168707287Y-79183944D01*
X168568556Y-79045213D01*
X168459556Y-78882083D01*
X168390700Y-78715849D01*
X168384475Y-78700821D01*
X168346200Y-78508399D01*
X168346200Y-78312201D01*
X168384475Y-78119779D01*
X168439382Y-77987222D01*
X168459556Y-77938517D01*
X168568556Y-77775387D01*
X168707287Y-77636656D01*
X168870417Y-77527656D01*
X168961048Y-77490116D01*
X169051679Y-77452575D01*
X169244101Y-77414300D01*
X169440299Y-77414300D01*
X169632721Y-77452575D01*
X169632721Y-77452575D01*
G37*
G36*
X155035735Y-76577316D02*
G01*
X155142090Y-76598471D01*
X155242274Y-76639969D01*
X155342460Y-76681467D01*
X155522784Y-76801955D01*
X155676145Y-76955316D01*
X155796633Y-77135640D01*
X155796633Y-77135641D01*
X155858306Y-77284531D01*
X155879629Y-77336011D01*
X155921940Y-77548720D01*
X155921940Y-77765600D01*
X155918877Y-77781000D01*
X155879629Y-77978310D01*
X155863336Y-78017644D01*
X155796633Y-78178680D01*
X155676145Y-78359004D01*
X155522784Y-78512365D01*
X155342460Y-78632853D01*
X155263237Y-78665668D01*
X155142090Y-78715849D01*
X155035735Y-78737004D01*
X154929380Y-78758160D01*
X154712500Y-78758160D01*
X154606146Y-78737005D01*
X154499790Y-78715849D01*
X154378643Y-78665668D01*
X154299420Y-78632853D01*
X154119096Y-78512365D01*
X153965735Y-78359004D01*
X153845247Y-78178680D01*
X153778544Y-78017644D01*
X153762251Y-77978310D01*
X153723003Y-77781000D01*
X153719940Y-77765600D01*
X153719940Y-77548720D01*
X153762251Y-77336011D01*
X153783575Y-77284531D01*
X153845247Y-77135641D01*
X153845247Y-77135640D01*
X153965735Y-76955316D01*
X154119096Y-76801955D01*
X154299420Y-76681467D01*
X154399606Y-76639969D01*
X154499790Y-76598471D01*
X154606146Y-76577315D01*
X154712500Y-76556160D01*
X154929380Y-76556160D01*
X155035735Y-76577316D01*
X155035735Y-76577316D01*
G37*
G36*
X148025735Y-76577316D02*
G01*
X148132090Y-76598471D01*
X148232274Y-76639969D01*
X148332460Y-76681467D01*
X148512784Y-76801955D01*
X148666145Y-76955316D01*
X148786633Y-77135640D01*
X148786633Y-77135641D01*
X148848306Y-77284531D01*
X148869629Y-77336011D01*
X148911940Y-77548720D01*
X148911940Y-77765600D01*
X148908877Y-77781000D01*
X148869629Y-77978310D01*
X148853336Y-78017644D01*
X148786633Y-78178680D01*
X148666145Y-78359004D01*
X148512784Y-78512365D01*
X148332460Y-78632853D01*
X148253237Y-78665668D01*
X148132090Y-78715849D01*
X148025735Y-78737004D01*
X147919380Y-78758160D01*
X147702500Y-78758160D01*
X147596146Y-78737005D01*
X147489790Y-78715849D01*
X147368643Y-78665668D01*
X147289420Y-78632853D01*
X147109096Y-78512365D01*
X146955735Y-78359004D01*
X146835247Y-78178680D01*
X146768544Y-78017644D01*
X146752251Y-77978310D01*
X146713003Y-77781000D01*
X146709940Y-77765600D01*
X146709940Y-77548720D01*
X146752251Y-77336011D01*
X146773575Y-77284531D01*
X146835247Y-77135641D01*
X146835247Y-77135640D01*
X146955735Y-76955316D01*
X147109096Y-76801955D01*
X147289420Y-76681467D01*
X147389606Y-76639969D01*
X147489790Y-76598471D01*
X147596145Y-76577316D01*
X147702500Y-76556160D01*
X147919380Y-76556160D01*
X148025735Y-76577316D01*
X148025735Y-76577316D01*
G37*
G36*
X184744114Y-77205611D02*
G01*
X184843265Y-77235688D01*
X184934644Y-77284531D01*
X185014738Y-77350262D01*
X185080469Y-77430356D01*
X185129312Y-77521735D01*
X185159389Y-77620886D01*
X185169545Y-77724000D01*
X185159389Y-77827114D01*
X185129312Y-77926265D01*
X185080469Y-78017644D01*
X185014738Y-78097738D01*
X184934644Y-78163469D01*
X184843265Y-78212312D01*
X184744114Y-78242389D01*
X184666839Y-78250000D01*
X184315161Y-78250000D01*
X184237886Y-78242389D01*
X184138735Y-78212312D01*
X184047356Y-78163469D01*
X183967262Y-78097738D01*
X183901531Y-78017644D01*
X183852688Y-77926265D01*
X183822611Y-77827114D01*
X183812455Y-77724000D01*
X183822611Y-77620886D01*
X183852688Y-77521735D01*
X183901531Y-77430356D01*
X183967262Y-77350262D01*
X184047356Y-77284531D01*
X184138735Y-77235688D01*
X184237886Y-77205611D01*
X184315161Y-77198000D01*
X184666839Y-77198000D01*
X184744114Y-77205611D01*
X184744114Y-77205611D01*
G37*
G36*
X179744114Y-77205611D02*
G01*
X179843265Y-77235688D01*
X179934644Y-77284531D01*
X180014738Y-77350262D01*
X180080469Y-77430356D01*
X180129312Y-77521735D01*
X180159389Y-77620886D01*
X180169545Y-77724000D01*
X180159389Y-77827114D01*
X180129312Y-77926265D01*
X180080469Y-78017644D01*
X180014738Y-78097738D01*
X179934644Y-78163469D01*
X179843265Y-78212312D01*
X179744114Y-78242389D01*
X179666839Y-78250000D01*
X179315161Y-78250000D01*
X179237886Y-78242389D01*
X179138735Y-78212312D01*
X179047356Y-78163469D01*
X178967262Y-78097738D01*
X178901531Y-78017644D01*
X178852688Y-77926265D01*
X178822611Y-77827114D01*
X178812455Y-77724000D01*
X178822611Y-77620886D01*
X178852688Y-77521735D01*
X178901531Y-77430356D01*
X178967262Y-77350262D01*
X179047356Y-77284531D01*
X179138735Y-77235688D01*
X179237886Y-77205611D01*
X179315161Y-77198000D01*
X179666839Y-77198000D01*
X179744114Y-77205611D01*
X179744114Y-77205611D01*
G37*
G36*
X172172721Y-75932575D02*
G01*
X172263353Y-75970116D01*
X172353983Y-76007656D01*
X172517113Y-76116656D01*
X172655844Y-76255387D01*
X172764844Y-76418517D01*
X172794670Y-76490524D01*
X172839925Y-76599779D01*
X172878200Y-76792201D01*
X172878200Y-76988399D01*
X172839925Y-77180821D01*
X172817198Y-77235688D01*
X172764844Y-77362083D01*
X172655844Y-77525213D01*
X172517113Y-77663944D01*
X172353983Y-77772944D01*
X172292690Y-77798332D01*
X172172721Y-77848025D01*
X171980299Y-77886300D01*
X171784101Y-77886300D01*
X171591679Y-77848025D01*
X171471710Y-77798332D01*
X171410417Y-77772944D01*
X171247287Y-77663944D01*
X171108556Y-77525213D01*
X170999556Y-77362083D01*
X170947202Y-77235688D01*
X170924475Y-77180821D01*
X170886200Y-76988399D01*
X170886200Y-76792201D01*
X170924475Y-76599779D01*
X170969730Y-76490524D01*
X170999556Y-76418517D01*
X171108556Y-76255387D01*
X171247287Y-76116656D01*
X171410417Y-76007656D01*
X171501048Y-75970116D01*
X171591679Y-75932575D01*
X171784101Y-75894300D01*
X171980299Y-75894300D01*
X172172721Y-75932575D01*
X172172721Y-75932575D01*
G37*
G36*
X162062721Y-75932575D02*
G01*
X162153353Y-75970116D01*
X162243983Y-76007656D01*
X162407113Y-76116656D01*
X162545844Y-76255387D01*
X162654844Y-76418517D01*
X162684670Y-76490524D01*
X162729925Y-76599779D01*
X162768200Y-76792201D01*
X162768200Y-76988399D01*
X162729925Y-77180821D01*
X162707198Y-77235688D01*
X162654844Y-77362083D01*
X162545844Y-77525213D01*
X162407113Y-77663944D01*
X162243983Y-77772944D01*
X162182690Y-77798332D01*
X162062721Y-77848025D01*
X161870299Y-77886300D01*
X161674101Y-77886300D01*
X161481679Y-77848025D01*
X161361710Y-77798332D01*
X161300417Y-77772944D01*
X161137287Y-77663944D01*
X160998556Y-77525213D01*
X160889556Y-77362083D01*
X160837202Y-77235688D01*
X160814475Y-77180821D01*
X160776200Y-76988399D01*
X160776200Y-76792201D01*
X160814475Y-76599779D01*
X160859730Y-76490524D01*
X160889556Y-76418517D01*
X160998556Y-76255387D01*
X161137287Y-76116656D01*
X161300417Y-76007656D01*
X161391048Y-75970116D01*
X161481679Y-75932575D01*
X161674101Y-75894300D01*
X161870299Y-75894300D01*
X162062721Y-75932575D01*
X162062721Y-75932575D01*
G37*
G36*
X111870442Y-75305518D02*
G01*
X111936627Y-75312037D01*
X112106466Y-75363557D01*
X112262991Y-75447222D01*
X112298729Y-75476552D01*
X112400186Y-75559814D01*
X112483448Y-75661271D01*
X112512778Y-75697009D01*
X112596443Y-75853534D01*
X112647963Y-76023373D01*
X112665359Y-76200000D01*
X112647963Y-76376627D01*
X112596443Y-76546466D01*
X112512778Y-76702991D01*
X112483448Y-76738729D01*
X112400186Y-76840186D01*
X112298729Y-76923448D01*
X112262991Y-76952778D01*
X112106466Y-77036443D01*
X111936627Y-77087963D01*
X111870442Y-77094482D01*
X111804260Y-77101000D01*
X111715740Y-77101000D01*
X111649558Y-77094482D01*
X111583373Y-77087963D01*
X111413534Y-77036443D01*
X111257009Y-76952778D01*
X111221271Y-76923448D01*
X111119814Y-76840186D01*
X111036552Y-76738729D01*
X111007222Y-76702991D01*
X110923557Y-76546466D01*
X110872037Y-76376627D01*
X110854641Y-76200000D01*
X110872037Y-76023373D01*
X110923557Y-75853534D01*
X111007222Y-75697009D01*
X111036552Y-75661271D01*
X111119814Y-75559814D01*
X111221271Y-75476552D01*
X111257009Y-75447222D01*
X111413534Y-75363557D01*
X111583373Y-75312037D01*
X111649558Y-75305518D01*
X111715740Y-75299000D01*
X111804260Y-75299000D01*
X111870442Y-75305518D01*
X111870442Y-75305518D01*
G37*
G36*
X119490442Y-75305518D02*
G01*
X119556627Y-75312037D01*
X119726466Y-75363557D01*
X119882991Y-75447222D01*
X119918729Y-75476552D01*
X120020186Y-75559814D01*
X120103448Y-75661271D01*
X120132778Y-75697009D01*
X120216443Y-75853534D01*
X120267963Y-76023373D01*
X120285359Y-76200000D01*
X120267963Y-76376627D01*
X120216443Y-76546466D01*
X120132778Y-76702991D01*
X120103448Y-76738729D01*
X120020186Y-76840186D01*
X119918729Y-76923448D01*
X119882991Y-76952778D01*
X119726466Y-77036443D01*
X119556627Y-77087963D01*
X119490442Y-77094482D01*
X119424260Y-77101000D01*
X119335740Y-77101000D01*
X119269558Y-77094482D01*
X119203373Y-77087963D01*
X119033534Y-77036443D01*
X118877009Y-76952778D01*
X118841271Y-76923448D01*
X118739814Y-76840186D01*
X118656552Y-76738729D01*
X118627222Y-76702991D01*
X118543557Y-76546466D01*
X118492037Y-76376627D01*
X118474641Y-76200000D01*
X118492037Y-76023373D01*
X118543557Y-75853534D01*
X118627222Y-75697009D01*
X118656552Y-75661271D01*
X118739814Y-75559814D01*
X118841271Y-75476552D01*
X118877009Y-75447222D01*
X119033534Y-75363557D01*
X119203373Y-75312037D01*
X119269558Y-75305518D01*
X119335740Y-75299000D01*
X119424260Y-75299000D01*
X119490442Y-75305518D01*
X119490442Y-75305518D01*
G37*
G36*
X109330442Y-75305518D02*
G01*
X109396627Y-75312037D01*
X109566466Y-75363557D01*
X109722991Y-75447222D01*
X109758729Y-75476552D01*
X109860186Y-75559814D01*
X109943448Y-75661271D01*
X109972778Y-75697009D01*
X110056443Y-75853534D01*
X110107963Y-76023373D01*
X110125359Y-76200000D01*
X110107963Y-76376627D01*
X110056443Y-76546466D01*
X109972778Y-76702991D01*
X109943448Y-76738729D01*
X109860186Y-76840186D01*
X109758729Y-76923448D01*
X109722991Y-76952778D01*
X109566466Y-77036443D01*
X109396627Y-77087963D01*
X109330442Y-77094482D01*
X109264260Y-77101000D01*
X109175740Y-77101000D01*
X109109558Y-77094482D01*
X109043373Y-77087963D01*
X108873534Y-77036443D01*
X108717009Y-76952778D01*
X108681271Y-76923448D01*
X108579814Y-76840186D01*
X108496552Y-76738729D01*
X108467222Y-76702991D01*
X108383557Y-76546466D01*
X108332037Y-76376627D01*
X108314641Y-76200000D01*
X108332037Y-76023373D01*
X108383557Y-75853534D01*
X108467222Y-75697009D01*
X108496552Y-75661271D01*
X108579814Y-75559814D01*
X108681271Y-75476552D01*
X108717009Y-75447222D01*
X108873534Y-75363557D01*
X109043373Y-75312037D01*
X109109558Y-75305518D01*
X109175740Y-75299000D01*
X109264260Y-75299000D01*
X109330442Y-75305518D01*
X109330442Y-75305518D01*
G37*
G36*
X144890442Y-75305518D02*
G01*
X144956627Y-75312037D01*
X145126466Y-75363557D01*
X145282991Y-75447222D01*
X145318729Y-75476552D01*
X145420186Y-75559814D01*
X145503448Y-75661271D01*
X145532778Y-75697009D01*
X145616443Y-75853534D01*
X145667963Y-76023373D01*
X145685359Y-76200000D01*
X145667963Y-76376627D01*
X145616443Y-76546466D01*
X145532778Y-76702991D01*
X145503448Y-76738729D01*
X145420186Y-76840186D01*
X145318729Y-76923448D01*
X145282991Y-76952778D01*
X145126466Y-77036443D01*
X144956627Y-77087963D01*
X144890442Y-77094482D01*
X144824260Y-77101000D01*
X144735740Y-77101000D01*
X144669558Y-77094482D01*
X144603373Y-77087963D01*
X144433534Y-77036443D01*
X144277009Y-76952778D01*
X144241271Y-76923448D01*
X144139814Y-76840186D01*
X144056552Y-76738729D01*
X144027222Y-76702991D01*
X143943557Y-76546466D01*
X143892037Y-76376627D01*
X143874641Y-76200000D01*
X143892037Y-76023373D01*
X143943557Y-75853534D01*
X144027222Y-75697009D01*
X144056552Y-75661271D01*
X144139814Y-75559814D01*
X144241271Y-75476552D01*
X144277009Y-75447222D01*
X144433534Y-75363557D01*
X144603373Y-75312037D01*
X144669558Y-75305518D01*
X144735740Y-75299000D01*
X144824260Y-75299000D01*
X144890442Y-75305518D01*
X144890442Y-75305518D01*
G37*
G36*
X142350442Y-75305518D02*
G01*
X142416627Y-75312037D01*
X142586466Y-75363557D01*
X142742991Y-75447222D01*
X142778729Y-75476552D01*
X142880186Y-75559814D01*
X142963448Y-75661271D01*
X142992778Y-75697009D01*
X143076443Y-75853534D01*
X143127963Y-76023373D01*
X143145359Y-76200000D01*
X143127963Y-76376627D01*
X143076443Y-76546466D01*
X142992778Y-76702991D01*
X142963448Y-76738729D01*
X142880186Y-76840186D01*
X142778729Y-76923448D01*
X142742991Y-76952778D01*
X142586466Y-77036443D01*
X142416627Y-77087963D01*
X142350442Y-77094482D01*
X142284260Y-77101000D01*
X142195740Y-77101000D01*
X142129558Y-77094482D01*
X142063373Y-77087963D01*
X141893534Y-77036443D01*
X141737009Y-76952778D01*
X141701271Y-76923448D01*
X141599814Y-76840186D01*
X141516552Y-76738729D01*
X141487222Y-76702991D01*
X141403557Y-76546466D01*
X141352037Y-76376627D01*
X141334641Y-76200000D01*
X141352037Y-76023373D01*
X141403557Y-75853534D01*
X141487222Y-75697009D01*
X141516552Y-75661271D01*
X141599814Y-75559814D01*
X141701271Y-75476552D01*
X141737009Y-75447222D01*
X141893534Y-75363557D01*
X142063373Y-75312037D01*
X142129558Y-75305518D01*
X142195740Y-75299000D01*
X142284260Y-75299000D01*
X142350442Y-75305518D01*
X142350442Y-75305518D01*
G37*
G36*
X139810442Y-75305518D02*
G01*
X139876627Y-75312037D01*
X140046466Y-75363557D01*
X140202991Y-75447222D01*
X140238729Y-75476552D01*
X140340186Y-75559814D01*
X140423448Y-75661271D01*
X140452778Y-75697009D01*
X140536443Y-75853534D01*
X140587963Y-76023373D01*
X140605359Y-76200000D01*
X140587963Y-76376627D01*
X140536443Y-76546466D01*
X140452778Y-76702991D01*
X140423448Y-76738729D01*
X140340186Y-76840186D01*
X140238729Y-76923448D01*
X140202991Y-76952778D01*
X140046466Y-77036443D01*
X139876627Y-77087963D01*
X139810442Y-77094482D01*
X139744260Y-77101000D01*
X139655740Y-77101000D01*
X139589558Y-77094482D01*
X139523373Y-77087963D01*
X139353534Y-77036443D01*
X139197009Y-76952778D01*
X139161271Y-76923448D01*
X139059814Y-76840186D01*
X138976552Y-76738729D01*
X138947222Y-76702991D01*
X138863557Y-76546466D01*
X138812037Y-76376627D01*
X138794641Y-76200000D01*
X138812037Y-76023373D01*
X138863557Y-75853534D01*
X138947222Y-75697009D01*
X138976552Y-75661271D01*
X139059814Y-75559814D01*
X139161271Y-75476552D01*
X139197009Y-75447222D01*
X139353534Y-75363557D01*
X139523373Y-75312037D01*
X139589558Y-75305518D01*
X139655740Y-75299000D01*
X139744260Y-75299000D01*
X139810442Y-75305518D01*
X139810442Y-75305518D01*
G37*
G36*
X89010442Y-75305518D02*
G01*
X89076627Y-75312037D01*
X89246466Y-75363557D01*
X89402991Y-75447222D01*
X89438729Y-75476552D01*
X89540186Y-75559814D01*
X89623448Y-75661271D01*
X89652778Y-75697009D01*
X89736443Y-75853534D01*
X89787963Y-76023373D01*
X89805359Y-76200000D01*
X89787963Y-76376627D01*
X89736443Y-76546466D01*
X89652778Y-76702991D01*
X89623448Y-76738729D01*
X89540186Y-76840186D01*
X89438729Y-76923448D01*
X89402991Y-76952778D01*
X89246466Y-77036443D01*
X89076627Y-77087963D01*
X89010442Y-77094482D01*
X88944260Y-77101000D01*
X88855740Y-77101000D01*
X88789558Y-77094482D01*
X88723373Y-77087963D01*
X88553534Y-77036443D01*
X88397009Y-76952778D01*
X88361271Y-76923448D01*
X88259814Y-76840186D01*
X88176552Y-76738729D01*
X88147222Y-76702991D01*
X88063557Y-76546466D01*
X88012037Y-76376627D01*
X87994641Y-76200000D01*
X88012037Y-76023373D01*
X88063557Y-75853534D01*
X88147222Y-75697009D01*
X88176552Y-75661271D01*
X88259814Y-75559814D01*
X88361271Y-75476552D01*
X88397009Y-75447222D01*
X88553534Y-75363557D01*
X88723373Y-75312037D01*
X88789558Y-75305518D01*
X88855740Y-75299000D01*
X88944260Y-75299000D01*
X89010442Y-75305518D01*
X89010442Y-75305518D01*
G37*
G36*
X99170442Y-75305518D02*
G01*
X99236627Y-75312037D01*
X99406466Y-75363557D01*
X99562991Y-75447222D01*
X99598729Y-75476552D01*
X99700186Y-75559814D01*
X99783448Y-75661271D01*
X99812778Y-75697009D01*
X99896443Y-75853534D01*
X99947963Y-76023373D01*
X99965359Y-76200000D01*
X99947963Y-76376627D01*
X99896443Y-76546466D01*
X99812778Y-76702991D01*
X99783448Y-76738729D01*
X99700186Y-76840186D01*
X99598729Y-76923448D01*
X99562991Y-76952778D01*
X99406466Y-77036443D01*
X99236627Y-77087963D01*
X99170442Y-77094482D01*
X99104260Y-77101000D01*
X99015740Y-77101000D01*
X98949558Y-77094482D01*
X98883373Y-77087963D01*
X98713534Y-77036443D01*
X98557009Y-76952778D01*
X98521271Y-76923448D01*
X98419814Y-76840186D01*
X98336552Y-76738729D01*
X98307222Y-76702991D01*
X98223557Y-76546466D01*
X98172037Y-76376627D01*
X98154641Y-76200000D01*
X98172037Y-76023373D01*
X98223557Y-75853534D01*
X98307222Y-75697009D01*
X98336552Y-75661271D01*
X98419814Y-75559814D01*
X98521271Y-75476552D01*
X98557009Y-75447222D01*
X98713534Y-75363557D01*
X98883373Y-75312037D01*
X98949558Y-75305518D01*
X99015740Y-75299000D01*
X99104260Y-75299000D01*
X99170442Y-75305518D01*
X99170442Y-75305518D01*
G37*
G36*
X137270442Y-75305518D02*
G01*
X137336627Y-75312037D01*
X137506466Y-75363557D01*
X137662991Y-75447222D01*
X137698729Y-75476552D01*
X137800186Y-75559814D01*
X137883448Y-75661271D01*
X137912778Y-75697009D01*
X137996443Y-75853534D01*
X138047963Y-76023373D01*
X138065359Y-76200000D01*
X138047963Y-76376627D01*
X137996443Y-76546466D01*
X137912778Y-76702991D01*
X137883448Y-76738729D01*
X137800186Y-76840186D01*
X137698729Y-76923448D01*
X137662991Y-76952778D01*
X137506466Y-77036443D01*
X137336627Y-77087963D01*
X137270442Y-77094482D01*
X137204260Y-77101000D01*
X137115740Y-77101000D01*
X137049558Y-77094482D01*
X136983373Y-77087963D01*
X136813534Y-77036443D01*
X136657009Y-76952778D01*
X136621271Y-76923448D01*
X136519814Y-76840186D01*
X136436552Y-76738729D01*
X136407222Y-76702991D01*
X136323557Y-76546466D01*
X136272037Y-76376627D01*
X136254641Y-76200000D01*
X136272037Y-76023373D01*
X136323557Y-75853534D01*
X136407222Y-75697009D01*
X136436552Y-75661271D01*
X136519814Y-75559814D01*
X136621271Y-75476552D01*
X136657009Y-75447222D01*
X136813534Y-75363557D01*
X136983373Y-75312037D01*
X137049558Y-75305518D01*
X137115740Y-75299000D01*
X137204260Y-75299000D01*
X137270442Y-75305518D01*
X137270442Y-75305518D01*
G37*
G36*
X91550442Y-75305518D02*
G01*
X91616627Y-75312037D01*
X91786466Y-75363557D01*
X91942991Y-75447222D01*
X91978729Y-75476552D01*
X92080186Y-75559814D01*
X92163448Y-75661271D01*
X92192778Y-75697009D01*
X92276443Y-75853534D01*
X92327963Y-76023373D01*
X92345359Y-76200000D01*
X92327963Y-76376627D01*
X92276443Y-76546466D01*
X92192778Y-76702991D01*
X92163448Y-76738729D01*
X92080186Y-76840186D01*
X91978729Y-76923448D01*
X91942991Y-76952778D01*
X91786466Y-77036443D01*
X91616627Y-77087963D01*
X91550442Y-77094482D01*
X91484260Y-77101000D01*
X91395740Y-77101000D01*
X91329558Y-77094482D01*
X91263373Y-77087963D01*
X91093534Y-77036443D01*
X90937009Y-76952778D01*
X90901271Y-76923448D01*
X90799814Y-76840186D01*
X90716552Y-76738729D01*
X90687222Y-76702991D01*
X90603557Y-76546466D01*
X90552037Y-76376627D01*
X90534641Y-76200000D01*
X90552037Y-76023373D01*
X90603557Y-75853534D01*
X90687222Y-75697009D01*
X90716552Y-75661271D01*
X90799814Y-75559814D01*
X90901271Y-75476552D01*
X90937009Y-75447222D01*
X91093534Y-75363557D01*
X91263373Y-75312037D01*
X91329558Y-75305518D01*
X91395740Y-75299000D01*
X91484260Y-75299000D01*
X91550442Y-75305518D01*
X91550442Y-75305518D01*
G37*
G36*
X134730442Y-75305518D02*
G01*
X134796627Y-75312037D01*
X134966466Y-75363557D01*
X135122991Y-75447222D01*
X135158729Y-75476552D01*
X135260186Y-75559814D01*
X135343448Y-75661271D01*
X135372778Y-75697009D01*
X135456443Y-75853534D01*
X135507963Y-76023373D01*
X135525359Y-76200000D01*
X135507963Y-76376627D01*
X135456443Y-76546466D01*
X135372778Y-76702991D01*
X135343448Y-76738729D01*
X135260186Y-76840186D01*
X135158729Y-76923448D01*
X135122991Y-76952778D01*
X134966466Y-77036443D01*
X134796627Y-77087963D01*
X134730442Y-77094482D01*
X134664260Y-77101000D01*
X134575740Y-77101000D01*
X134509558Y-77094482D01*
X134443373Y-77087963D01*
X134273534Y-77036443D01*
X134117009Y-76952778D01*
X134081271Y-76923448D01*
X133979814Y-76840186D01*
X133896552Y-76738729D01*
X133867222Y-76702991D01*
X133783557Y-76546466D01*
X133732037Y-76376627D01*
X133714641Y-76200000D01*
X133732037Y-76023373D01*
X133783557Y-75853534D01*
X133867222Y-75697009D01*
X133896552Y-75661271D01*
X133979814Y-75559814D01*
X134081271Y-75476552D01*
X134117009Y-75447222D01*
X134273534Y-75363557D01*
X134443373Y-75312037D01*
X134509558Y-75305518D01*
X134575740Y-75299000D01*
X134664260Y-75299000D01*
X134730442Y-75305518D01*
X134730442Y-75305518D01*
G37*
G36*
X106790442Y-75305518D02*
G01*
X106856627Y-75312037D01*
X107026466Y-75363557D01*
X107182991Y-75447222D01*
X107218729Y-75476552D01*
X107320186Y-75559814D01*
X107403448Y-75661271D01*
X107432778Y-75697009D01*
X107516443Y-75853534D01*
X107567963Y-76023373D01*
X107585359Y-76200000D01*
X107567963Y-76376627D01*
X107516443Y-76546466D01*
X107432778Y-76702991D01*
X107403448Y-76738729D01*
X107320186Y-76840186D01*
X107218729Y-76923448D01*
X107182991Y-76952778D01*
X107026466Y-77036443D01*
X106856627Y-77087963D01*
X106790442Y-77094482D01*
X106724260Y-77101000D01*
X106635740Y-77101000D01*
X106569558Y-77094482D01*
X106503373Y-77087963D01*
X106333534Y-77036443D01*
X106177009Y-76952778D01*
X106141271Y-76923448D01*
X106039814Y-76840186D01*
X105956552Y-76738729D01*
X105927222Y-76702991D01*
X105843557Y-76546466D01*
X105792037Y-76376627D01*
X105774641Y-76200000D01*
X105792037Y-76023373D01*
X105843557Y-75853534D01*
X105927222Y-75697009D01*
X105956552Y-75661271D01*
X106039814Y-75559814D01*
X106141271Y-75476552D01*
X106177009Y-75447222D01*
X106333534Y-75363557D01*
X106503373Y-75312037D01*
X106569558Y-75305518D01*
X106635740Y-75299000D01*
X106724260Y-75299000D01*
X106790442Y-75305518D01*
X106790442Y-75305518D01*
G37*
G36*
X94090442Y-75305518D02*
G01*
X94156627Y-75312037D01*
X94326466Y-75363557D01*
X94482991Y-75447222D01*
X94518729Y-75476552D01*
X94620186Y-75559814D01*
X94703448Y-75661271D01*
X94732778Y-75697009D01*
X94816443Y-75853534D01*
X94867963Y-76023373D01*
X94885359Y-76200000D01*
X94867963Y-76376627D01*
X94816443Y-76546466D01*
X94732778Y-76702991D01*
X94703448Y-76738729D01*
X94620186Y-76840186D01*
X94518729Y-76923448D01*
X94482991Y-76952778D01*
X94326466Y-77036443D01*
X94156627Y-77087963D01*
X94090442Y-77094482D01*
X94024260Y-77101000D01*
X93935740Y-77101000D01*
X93869558Y-77094482D01*
X93803373Y-77087963D01*
X93633534Y-77036443D01*
X93477009Y-76952778D01*
X93441271Y-76923448D01*
X93339814Y-76840186D01*
X93256552Y-76738729D01*
X93227222Y-76702991D01*
X93143557Y-76546466D01*
X93092037Y-76376627D01*
X93074641Y-76200000D01*
X93092037Y-76023373D01*
X93143557Y-75853534D01*
X93227222Y-75697009D01*
X93256552Y-75661271D01*
X93339814Y-75559814D01*
X93441271Y-75476552D01*
X93477009Y-75447222D01*
X93633534Y-75363557D01*
X93803373Y-75312037D01*
X93869558Y-75305518D01*
X93935740Y-75299000D01*
X94024260Y-75299000D01*
X94090442Y-75305518D01*
X94090442Y-75305518D01*
G37*
G36*
X116950442Y-75305518D02*
G01*
X117016627Y-75312037D01*
X117186466Y-75363557D01*
X117342991Y-75447222D01*
X117378729Y-75476552D01*
X117480186Y-75559814D01*
X117563448Y-75661271D01*
X117592778Y-75697009D01*
X117676443Y-75853534D01*
X117727963Y-76023373D01*
X117745359Y-76200000D01*
X117727963Y-76376627D01*
X117676443Y-76546466D01*
X117592778Y-76702991D01*
X117563448Y-76738729D01*
X117480186Y-76840186D01*
X117378729Y-76923448D01*
X117342991Y-76952778D01*
X117186466Y-77036443D01*
X117016627Y-77087963D01*
X116950442Y-77094482D01*
X116884260Y-77101000D01*
X116795740Y-77101000D01*
X116729558Y-77094482D01*
X116663373Y-77087963D01*
X116493534Y-77036443D01*
X116337009Y-76952778D01*
X116301271Y-76923448D01*
X116199814Y-76840186D01*
X116116552Y-76738729D01*
X116087222Y-76702991D01*
X116003557Y-76546466D01*
X115952037Y-76376627D01*
X115934641Y-76200000D01*
X115952037Y-76023373D01*
X116003557Y-75853534D01*
X116087222Y-75697009D01*
X116116552Y-75661271D01*
X116199814Y-75559814D01*
X116301271Y-75476552D01*
X116337009Y-75447222D01*
X116493534Y-75363557D01*
X116663373Y-75312037D01*
X116729558Y-75305518D01*
X116795740Y-75299000D01*
X116884260Y-75299000D01*
X116950442Y-75305518D01*
X116950442Y-75305518D01*
G37*
G36*
X122030442Y-75305518D02*
G01*
X122096627Y-75312037D01*
X122266466Y-75363557D01*
X122422991Y-75447222D01*
X122458729Y-75476552D01*
X122560186Y-75559814D01*
X122643448Y-75661271D01*
X122672778Y-75697009D01*
X122756443Y-75853534D01*
X122807963Y-76023373D01*
X122825359Y-76200000D01*
X122807963Y-76376627D01*
X122756443Y-76546466D01*
X122672778Y-76702991D01*
X122643448Y-76738729D01*
X122560186Y-76840186D01*
X122458729Y-76923448D01*
X122422991Y-76952778D01*
X122266466Y-77036443D01*
X122096627Y-77087963D01*
X122030442Y-77094482D01*
X121964260Y-77101000D01*
X121875740Y-77101000D01*
X121809558Y-77094482D01*
X121743373Y-77087963D01*
X121573534Y-77036443D01*
X121417009Y-76952778D01*
X121381271Y-76923448D01*
X121279814Y-76840186D01*
X121196552Y-76738729D01*
X121167222Y-76702991D01*
X121083557Y-76546466D01*
X121032037Y-76376627D01*
X121014641Y-76200000D01*
X121032037Y-76023373D01*
X121083557Y-75853534D01*
X121167222Y-75697009D01*
X121196552Y-75661271D01*
X121279814Y-75559814D01*
X121381271Y-75476552D01*
X121417009Y-75447222D01*
X121573534Y-75363557D01*
X121743373Y-75312037D01*
X121809558Y-75305518D01*
X121875740Y-75299000D01*
X121964260Y-75299000D01*
X122030442Y-75305518D01*
X122030442Y-75305518D01*
G37*
G36*
X104250442Y-75305518D02*
G01*
X104316627Y-75312037D01*
X104486466Y-75363557D01*
X104642991Y-75447222D01*
X104678729Y-75476552D01*
X104780186Y-75559814D01*
X104863448Y-75661271D01*
X104892778Y-75697009D01*
X104976443Y-75853534D01*
X105027963Y-76023373D01*
X105045359Y-76200000D01*
X105027963Y-76376627D01*
X104976443Y-76546466D01*
X104892778Y-76702991D01*
X104863448Y-76738729D01*
X104780186Y-76840186D01*
X104678729Y-76923448D01*
X104642991Y-76952778D01*
X104486466Y-77036443D01*
X104316627Y-77087963D01*
X104250442Y-77094482D01*
X104184260Y-77101000D01*
X104095740Y-77101000D01*
X104029558Y-77094482D01*
X103963373Y-77087963D01*
X103793534Y-77036443D01*
X103637009Y-76952778D01*
X103601271Y-76923448D01*
X103499814Y-76840186D01*
X103416552Y-76738729D01*
X103387222Y-76702991D01*
X103303557Y-76546466D01*
X103252037Y-76376627D01*
X103234641Y-76200000D01*
X103252037Y-76023373D01*
X103303557Y-75853534D01*
X103387222Y-75697009D01*
X103416552Y-75661271D01*
X103499814Y-75559814D01*
X103601271Y-75476552D01*
X103637009Y-75447222D01*
X103793534Y-75363557D01*
X103963373Y-75312037D01*
X104029558Y-75305518D01*
X104095740Y-75299000D01*
X104184260Y-75299000D01*
X104250442Y-75305518D01*
X104250442Y-75305518D01*
G37*
G36*
X124570442Y-75305518D02*
G01*
X124636627Y-75312037D01*
X124806466Y-75363557D01*
X124962991Y-75447222D01*
X124998729Y-75476552D01*
X125100186Y-75559814D01*
X125183448Y-75661271D01*
X125212778Y-75697009D01*
X125296443Y-75853534D01*
X125347963Y-76023373D01*
X125365359Y-76200000D01*
X125347963Y-76376627D01*
X125296443Y-76546466D01*
X125212778Y-76702991D01*
X125183448Y-76738729D01*
X125100186Y-76840186D01*
X124998729Y-76923448D01*
X124962991Y-76952778D01*
X124806466Y-77036443D01*
X124636627Y-77087963D01*
X124570442Y-77094482D01*
X124504260Y-77101000D01*
X124415740Y-77101000D01*
X124349558Y-77094482D01*
X124283373Y-77087963D01*
X124113534Y-77036443D01*
X123957009Y-76952778D01*
X123921271Y-76923448D01*
X123819814Y-76840186D01*
X123736552Y-76738729D01*
X123707222Y-76702991D01*
X123623557Y-76546466D01*
X123572037Y-76376627D01*
X123554641Y-76200000D01*
X123572037Y-76023373D01*
X123623557Y-75853534D01*
X123707222Y-75697009D01*
X123736552Y-75661271D01*
X123819814Y-75559814D01*
X123921271Y-75476552D01*
X123957009Y-75447222D01*
X124113534Y-75363557D01*
X124283373Y-75312037D01*
X124349558Y-75305518D01*
X124415740Y-75299000D01*
X124504260Y-75299000D01*
X124570442Y-75305518D01*
X124570442Y-75305518D01*
G37*
G36*
X101710442Y-75305518D02*
G01*
X101776627Y-75312037D01*
X101946466Y-75363557D01*
X102102991Y-75447222D01*
X102138729Y-75476552D01*
X102240186Y-75559814D01*
X102323448Y-75661271D01*
X102352778Y-75697009D01*
X102436443Y-75853534D01*
X102487963Y-76023373D01*
X102505359Y-76200000D01*
X102487963Y-76376627D01*
X102436443Y-76546466D01*
X102352778Y-76702991D01*
X102323448Y-76738729D01*
X102240186Y-76840186D01*
X102138729Y-76923448D01*
X102102991Y-76952778D01*
X101946466Y-77036443D01*
X101776627Y-77087963D01*
X101710442Y-77094482D01*
X101644260Y-77101000D01*
X101555740Y-77101000D01*
X101489558Y-77094482D01*
X101423373Y-77087963D01*
X101253534Y-77036443D01*
X101097009Y-76952778D01*
X101061271Y-76923448D01*
X100959814Y-76840186D01*
X100876552Y-76738729D01*
X100847222Y-76702991D01*
X100763557Y-76546466D01*
X100712037Y-76376627D01*
X100694641Y-76200000D01*
X100712037Y-76023373D01*
X100763557Y-75853534D01*
X100847222Y-75697009D01*
X100876552Y-75661271D01*
X100959814Y-75559814D01*
X101061271Y-75476552D01*
X101097009Y-75447222D01*
X101253534Y-75363557D01*
X101423373Y-75312037D01*
X101489558Y-75305518D01*
X101555740Y-75299000D01*
X101644260Y-75299000D01*
X101710442Y-75305518D01*
X101710442Y-75305518D01*
G37*
G36*
X127110442Y-75305518D02*
G01*
X127176627Y-75312037D01*
X127346466Y-75363557D01*
X127502991Y-75447222D01*
X127538729Y-75476552D01*
X127640186Y-75559814D01*
X127723448Y-75661271D01*
X127752778Y-75697009D01*
X127836443Y-75853534D01*
X127887963Y-76023373D01*
X127905359Y-76200000D01*
X127887963Y-76376627D01*
X127836443Y-76546466D01*
X127752778Y-76702991D01*
X127723448Y-76738729D01*
X127640186Y-76840186D01*
X127538729Y-76923448D01*
X127502991Y-76952778D01*
X127346466Y-77036443D01*
X127176627Y-77087963D01*
X127110442Y-77094482D01*
X127044260Y-77101000D01*
X126955740Y-77101000D01*
X126889558Y-77094482D01*
X126823373Y-77087963D01*
X126653534Y-77036443D01*
X126497009Y-76952778D01*
X126461271Y-76923448D01*
X126359814Y-76840186D01*
X126276552Y-76738729D01*
X126247222Y-76702991D01*
X126163557Y-76546466D01*
X126112037Y-76376627D01*
X126094641Y-76200000D01*
X126112037Y-76023373D01*
X126163557Y-75853534D01*
X126247222Y-75697009D01*
X126276552Y-75661271D01*
X126359814Y-75559814D01*
X126461271Y-75476552D01*
X126497009Y-75447222D01*
X126653534Y-75363557D01*
X126823373Y-75312037D01*
X126889558Y-75305518D01*
X126955740Y-75299000D01*
X127044260Y-75299000D01*
X127110442Y-75305518D01*
X127110442Y-75305518D01*
G37*
G36*
X129650442Y-75305518D02*
G01*
X129716627Y-75312037D01*
X129886466Y-75363557D01*
X130042991Y-75447222D01*
X130078729Y-75476552D01*
X130180186Y-75559814D01*
X130263448Y-75661271D01*
X130292778Y-75697009D01*
X130376443Y-75853534D01*
X130427963Y-76023373D01*
X130445359Y-76200000D01*
X130427963Y-76376627D01*
X130376443Y-76546466D01*
X130292778Y-76702991D01*
X130263448Y-76738729D01*
X130180186Y-76840186D01*
X130078729Y-76923448D01*
X130042991Y-76952778D01*
X129886466Y-77036443D01*
X129716627Y-77087963D01*
X129650442Y-77094482D01*
X129584260Y-77101000D01*
X129495740Y-77101000D01*
X129429558Y-77094482D01*
X129363373Y-77087963D01*
X129193534Y-77036443D01*
X129037009Y-76952778D01*
X129001271Y-76923448D01*
X128899814Y-76840186D01*
X128816552Y-76738729D01*
X128787222Y-76702991D01*
X128703557Y-76546466D01*
X128652037Y-76376627D01*
X128634641Y-76200000D01*
X128652037Y-76023373D01*
X128703557Y-75853534D01*
X128787222Y-75697009D01*
X128816552Y-75661271D01*
X128899814Y-75559814D01*
X129001271Y-75476552D01*
X129037009Y-75447222D01*
X129193534Y-75363557D01*
X129363373Y-75312037D01*
X129429558Y-75305518D01*
X129495740Y-75299000D01*
X129584260Y-75299000D01*
X129650442Y-75305518D01*
X129650442Y-75305518D01*
G37*
G36*
X96630442Y-75305518D02*
G01*
X96696627Y-75312037D01*
X96866466Y-75363557D01*
X97022991Y-75447222D01*
X97058729Y-75476552D01*
X97160186Y-75559814D01*
X97243448Y-75661271D01*
X97272778Y-75697009D01*
X97356443Y-75853534D01*
X97407963Y-76023373D01*
X97425359Y-76200000D01*
X97407963Y-76376627D01*
X97356443Y-76546466D01*
X97272778Y-76702991D01*
X97243448Y-76738729D01*
X97160186Y-76840186D01*
X97058729Y-76923448D01*
X97022991Y-76952778D01*
X96866466Y-77036443D01*
X96696627Y-77087963D01*
X96630442Y-77094482D01*
X96564260Y-77101000D01*
X96475740Y-77101000D01*
X96409558Y-77094482D01*
X96343373Y-77087963D01*
X96173534Y-77036443D01*
X96017009Y-76952778D01*
X95981271Y-76923448D01*
X95879814Y-76840186D01*
X95796552Y-76738729D01*
X95767222Y-76702991D01*
X95683557Y-76546466D01*
X95632037Y-76376627D01*
X95614641Y-76200000D01*
X95632037Y-76023373D01*
X95683557Y-75853534D01*
X95767222Y-75697009D01*
X95796552Y-75661271D01*
X95879814Y-75559814D01*
X95981271Y-75476552D01*
X96017009Y-75447222D01*
X96173534Y-75363557D01*
X96343373Y-75312037D01*
X96409558Y-75305518D01*
X96475740Y-75299000D01*
X96564260Y-75299000D01*
X96630442Y-75305518D01*
X96630442Y-75305518D01*
G37*
G36*
X132190442Y-75305518D02*
G01*
X132256627Y-75312037D01*
X132426466Y-75363557D01*
X132582991Y-75447222D01*
X132618729Y-75476552D01*
X132720186Y-75559814D01*
X132803448Y-75661271D01*
X132832778Y-75697009D01*
X132916443Y-75853534D01*
X132967963Y-76023373D01*
X132985359Y-76200000D01*
X132967963Y-76376627D01*
X132916443Y-76546466D01*
X132832778Y-76702991D01*
X132803448Y-76738729D01*
X132720186Y-76840186D01*
X132618729Y-76923448D01*
X132582991Y-76952778D01*
X132426466Y-77036443D01*
X132256627Y-77087963D01*
X132190442Y-77094482D01*
X132124260Y-77101000D01*
X132035740Y-77101000D01*
X131969558Y-77094482D01*
X131903373Y-77087963D01*
X131733534Y-77036443D01*
X131577009Y-76952778D01*
X131541271Y-76923448D01*
X131439814Y-76840186D01*
X131356552Y-76738729D01*
X131327222Y-76702991D01*
X131243557Y-76546466D01*
X131192037Y-76376627D01*
X131174641Y-76200000D01*
X131192037Y-76023373D01*
X131243557Y-75853534D01*
X131327222Y-75697009D01*
X131356552Y-75661271D01*
X131439814Y-75559814D01*
X131541271Y-75476552D01*
X131577009Y-75447222D01*
X131733534Y-75363557D01*
X131903373Y-75312037D01*
X131969558Y-75305518D01*
X132035740Y-75299000D01*
X132124260Y-75299000D01*
X132190442Y-75305518D01*
X132190442Y-75305518D01*
G37*
G36*
X80948264Y-72287580D02*
G01*
X80948267Y-72287581D01*
X80948268Y-72287581D01*
X81127532Y-72341960D01*
X81127535Y-72341962D01*
X81127536Y-72341962D01*
X81292743Y-72430266D01*
X81437552Y-72549108D01*
X81556394Y-72693917D01*
X81625688Y-72823558D01*
X81644700Y-72859127D01*
X81693934Y-73021430D01*
X81699080Y-73038395D01*
X81712840Y-73178102D01*
X81712840Y-75071538D01*
X81699080Y-75211245D01*
X81699079Y-75211248D01*
X81699079Y-75211249D01*
X81644700Y-75390513D01*
X81644698Y-75390516D01*
X81644698Y-75390517D01*
X81556394Y-75555723D01*
X81437552Y-75700532D01*
X81292743Y-75819374D01*
X81127537Y-75907678D01*
X81127533Y-75907680D01*
X80948269Y-75962059D01*
X80948268Y-75962059D01*
X80948265Y-75962060D01*
X80761840Y-75980421D01*
X80575416Y-75962060D01*
X80575413Y-75962059D01*
X80575412Y-75962059D01*
X80396148Y-75907680D01*
X80396144Y-75907678D01*
X80230938Y-75819374D01*
X80086129Y-75700532D01*
X79967287Y-75555723D01*
X79878983Y-75390517D01*
X79878983Y-75390516D01*
X79878981Y-75390513D01*
X79824602Y-75211249D01*
X79824602Y-75211248D01*
X79824601Y-75211245D01*
X79810840Y-75071537D01*
X79810840Y-73178103D01*
X79824600Y-73038396D01*
X79824601Y-73038392D01*
X79878980Y-72859128D01*
X79878983Y-72859123D01*
X79967286Y-72693917D01*
X80086128Y-72549108D01*
X80230937Y-72430266D01*
X80396143Y-72341962D01*
X80396144Y-72341962D01*
X80396147Y-72341960D01*
X80575411Y-72287581D01*
X80575412Y-72287581D01*
X80575415Y-72287580D01*
X80761840Y-72269219D01*
X80948264Y-72287580D01*
X80948264Y-72287580D01*
G37*
G36*
X76632840Y-75975820D02*
G01*
X74730840Y-75975820D01*
X74730840Y-72273820D01*
X76632840Y-72273820D01*
X76632840Y-75975820D01*
X76632840Y-75975820D01*
G37*
G36*
X160169171Y-71866504D02*
G01*
X160331071Y-71898708D01*
X160636083Y-72025048D01*
X160910587Y-72208466D01*
X161144034Y-72441913D01*
X161327452Y-72716417D01*
X161453792Y-73021429D01*
X161518200Y-73345228D01*
X161518200Y-73675372D01*
X161453792Y-73999171D01*
X161327452Y-74304183D01*
X161144034Y-74578687D01*
X160910587Y-74812134D01*
X160636083Y-74995552D01*
X160331071Y-75121892D01*
X160007273Y-75186300D01*
X159677127Y-75186300D01*
X159353329Y-75121892D01*
X159048317Y-74995552D01*
X158773813Y-74812134D01*
X158540366Y-74578687D01*
X158356948Y-74304183D01*
X158230608Y-73999171D01*
X158166200Y-73675372D01*
X158166200Y-73345228D01*
X158230608Y-73021429D01*
X158356948Y-72716417D01*
X158540366Y-72441913D01*
X158773813Y-72208466D01*
X159048317Y-72025048D01*
X159353329Y-71898708D01*
X159515229Y-71866504D01*
X159677127Y-71834300D01*
X160007273Y-71834300D01*
X160169171Y-71866504D01*
X160169171Y-71866504D01*
G37*
G36*
X171599171Y-71866504D02*
G01*
X171761071Y-71898708D01*
X172066083Y-72025048D01*
X172340587Y-72208466D01*
X172574034Y-72441913D01*
X172757452Y-72716417D01*
X172883792Y-73021429D01*
X172948200Y-73345228D01*
X172948200Y-73675372D01*
X172883792Y-73999171D01*
X172757452Y-74304183D01*
X172574034Y-74578687D01*
X172340587Y-74812134D01*
X172066083Y-74995552D01*
X171761071Y-75121892D01*
X171437273Y-75186300D01*
X171107127Y-75186300D01*
X170783329Y-75121892D01*
X170478317Y-74995552D01*
X170203813Y-74812134D01*
X169970366Y-74578687D01*
X169786948Y-74304183D01*
X169660608Y-73999171D01*
X169596200Y-73675372D01*
X169596200Y-73345228D01*
X169660608Y-73021429D01*
X169786948Y-72716417D01*
X169970366Y-72441913D01*
X170203813Y-72208466D01*
X170478317Y-72025048D01*
X170783329Y-71898708D01*
X170945229Y-71866504D01*
X171107127Y-71834300D01*
X171437273Y-71834300D01*
X171599171Y-71866504D01*
X171599171Y-71866504D01*
G37*
G36*
X101710442Y-72765518D02*
G01*
X101776627Y-72772037D01*
X101946466Y-72823557D01*
X102102991Y-72907222D01*
X102138729Y-72936552D01*
X102240186Y-73019814D01*
X102323448Y-73121271D01*
X102352778Y-73157009D01*
X102436443Y-73313534D01*
X102487963Y-73483373D01*
X102505359Y-73660000D01*
X102487963Y-73836627D01*
X102436443Y-74006466D01*
X102352778Y-74162991D01*
X102323448Y-74198729D01*
X102240186Y-74300186D01*
X102138729Y-74383448D01*
X102102991Y-74412778D01*
X101946466Y-74496443D01*
X101776627Y-74547963D01*
X101710442Y-74554482D01*
X101644260Y-74561000D01*
X101555740Y-74561000D01*
X101489558Y-74554482D01*
X101423373Y-74547963D01*
X101253534Y-74496443D01*
X101097009Y-74412778D01*
X101061271Y-74383448D01*
X100959814Y-74300186D01*
X100876552Y-74198729D01*
X100847222Y-74162991D01*
X100763557Y-74006466D01*
X100712037Y-73836627D01*
X100694641Y-73660000D01*
X100712037Y-73483373D01*
X100763557Y-73313534D01*
X100847222Y-73157009D01*
X100876552Y-73121271D01*
X100959814Y-73019814D01*
X101061271Y-72936552D01*
X101097009Y-72907222D01*
X101253534Y-72823557D01*
X101423373Y-72772037D01*
X101489558Y-72765518D01*
X101555740Y-72759000D01*
X101644260Y-72759000D01*
X101710442Y-72765518D01*
X101710442Y-72765518D01*
G37*
G36*
X94090442Y-72765518D02*
G01*
X94156627Y-72772037D01*
X94326466Y-72823557D01*
X94482991Y-72907222D01*
X94518729Y-72936552D01*
X94620186Y-73019814D01*
X94703448Y-73121271D01*
X94732778Y-73157009D01*
X94816443Y-73313534D01*
X94867963Y-73483373D01*
X94885359Y-73660000D01*
X94867963Y-73836627D01*
X94816443Y-74006466D01*
X94732778Y-74162991D01*
X94703448Y-74198729D01*
X94620186Y-74300186D01*
X94518729Y-74383448D01*
X94482991Y-74412778D01*
X94326466Y-74496443D01*
X94156627Y-74547963D01*
X94090442Y-74554482D01*
X94024260Y-74561000D01*
X93935740Y-74561000D01*
X93869558Y-74554482D01*
X93803373Y-74547963D01*
X93633534Y-74496443D01*
X93477009Y-74412778D01*
X93441271Y-74383448D01*
X93339814Y-74300186D01*
X93256552Y-74198729D01*
X93227222Y-74162991D01*
X93143557Y-74006466D01*
X93092037Y-73836627D01*
X93074641Y-73660000D01*
X93092037Y-73483373D01*
X93143557Y-73313534D01*
X93227222Y-73157009D01*
X93256552Y-73121271D01*
X93339814Y-73019814D01*
X93441271Y-72936552D01*
X93477009Y-72907222D01*
X93633534Y-72823557D01*
X93803373Y-72772037D01*
X93869558Y-72765518D01*
X93935740Y-72759000D01*
X94024260Y-72759000D01*
X94090442Y-72765518D01*
X94090442Y-72765518D01*
G37*
G36*
X89801000Y-74561000D02*
G01*
X87999000Y-74561000D01*
X87999000Y-72759000D01*
X89801000Y-72759000D01*
X89801000Y-74561000D01*
X89801000Y-74561000D01*
G37*
G36*
X91550442Y-72765518D02*
G01*
X91616627Y-72772037D01*
X91786466Y-72823557D01*
X91942991Y-72907222D01*
X91978729Y-72936552D01*
X92080186Y-73019814D01*
X92163448Y-73121271D01*
X92192778Y-73157009D01*
X92276443Y-73313534D01*
X92327963Y-73483373D01*
X92345359Y-73660000D01*
X92327963Y-73836627D01*
X92276443Y-74006466D01*
X92192778Y-74162991D01*
X92163448Y-74198729D01*
X92080186Y-74300186D01*
X91978729Y-74383448D01*
X91942991Y-74412778D01*
X91786466Y-74496443D01*
X91616627Y-74547963D01*
X91550442Y-74554482D01*
X91484260Y-74561000D01*
X91395740Y-74561000D01*
X91329558Y-74554482D01*
X91263373Y-74547963D01*
X91093534Y-74496443D01*
X90937009Y-74412778D01*
X90901271Y-74383448D01*
X90799814Y-74300186D01*
X90716552Y-74198729D01*
X90687222Y-74162991D01*
X90603557Y-74006466D01*
X90552037Y-73836627D01*
X90534641Y-73660000D01*
X90552037Y-73483373D01*
X90603557Y-73313534D01*
X90687222Y-73157009D01*
X90716552Y-73121271D01*
X90799814Y-73019814D01*
X90901271Y-72936552D01*
X90937009Y-72907222D01*
X91093534Y-72823557D01*
X91263373Y-72772037D01*
X91329558Y-72765518D01*
X91395740Y-72759000D01*
X91484260Y-72759000D01*
X91550442Y-72765518D01*
X91550442Y-72765518D01*
G37*
G36*
X96630442Y-72765518D02*
G01*
X96696627Y-72772037D01*
X96866466Y-72823557D01*
X97022991Y-72907222D01*
X97058729Y-72936552D01*
X97160186Y-73019814D01*
X97243448Y-73121271D01*
X97272778Y-73157009D01*
X97356443Y-73313534D01*
X97407963Y-73483373D01*
X97425359Y-73660000D01*
X97407963Y-73836627D01*
X97356443Y-74006466D01*
X97272778Y-74162991D01*
X97243448Y-74198729D01*
X97160186Y-74300186D01*
X97058729Y-74383448D01*
X97022991Y-74412778D01*
X96866466Y-74496443D01*
X96696627Y-74547963D01*
X96630442Y-74554482D01*
X96564260Y-74561000D01*
X96475740Y-74561000D01*
X96409558Y-74554482D01*
X96343373Y-74547963D01*
X96173534Y-74496443D01*
X96017009Y-74412778D01*
X95981271Y-74383448D01*
X95879814Y-74300186D01*
X95796552Y-74198729D01*
X95767222Y-74162991D01*
X95683557Y-74006466D01*
X95632037Y-73836627D01*
X95614641Y-73660000D01*
X95632037Y-73483373D01*
X95683557Y-73313534D01*
X95767222Y-73157009D01*
X95796552Y-73121271D01*
X95879814Y-73019814D01*
X95981271Y-72936552D01*
X96017009Y-72907222D01*
X96173534Y-72823557D01*
X96343373Y-72772037D01*
X96409558Y-72765518D01*
X96475740Y-72759000D01*
X96564260Y-72759000D01*
X96630442Y-72765518D01*
X96630442Y-72765518D01*
G37*
G36*
X104250442Y-72765518D02*
G01*
X104316627Y-72772037D01*
X104486466Y-72823557D01*
X104642991Y-72907222D01*
X104678729Y-72936552D01*
X104780186Y-73019814D01*
X104863448Y-73121271D01*
X104892778Y-73157009D01*
X104976443Y-73313534D01*
X105027963Y-73483373D01*
X105045359Y-73660000D01*
X105027963Y-73836627D01*
X104976443Y-74006466D01*
X104892778Y-74162991D01*
X104863448Y-74198729D01*
X104780186Y-74300186D01*
X104678729Y-74383448D01*
X104642991Y-74412778D01*
X104486466Y-74496443D01*
X104316627Y-74547963D01*
X104250442Y-74554482D01*
X104184260Y-74561000D01*
X104095740Y-74561000D01*
X104029558Y-74554482D01*
X103963373Y-74547963D01*
X103793534Y-74496443D01*
X103637009Y-74412778D01*
X103601271Y-74383448D01*
X103499814Y-74300186D01*
X103416552Y-74198729D01*
X103387222Y-74162991D01*
X103303557Y-74006466D01*
X103252037Y-73836627D01*
X103234641Y-73660000D01*
X103252037Y-73483373D01*
X103303557Y-73313534D01*
X103387222Y-73157009D01*
X103416552Y-73121271D01*
X103499814Y-73019814D01*
X103601271Y-72936552D01*
X103637009Y-72907222D01*
X103793534Y-72823557D01*
X103963373Y-72772037D01*
X104029558Y-72765518D01*
X104095740Y-72759000D01*
X104184260Y-72759000D01*
X104250442Y-72765518D01*
X104250442Y-72765518D01*
G37*
G36*
X106790442Y-72765518D02*
G01*
X106856627Y-72772037D01*
X107026466Y-72823557D01*
X107182991Y-72907222D01*
X107218729Y-72936552D01*
X107320186Y-73019814D01*
X107403448Y-73121271D01*
X107432778Y-73157009D01*
X107516443Y-73313534D01*
X107567963Y-73483373D01*
X107585359Y-73660000D01*
X107567963Y-73836627D01*
X107516443Y-74006466D01*
X107432778Y-74162991D01*
X107403448Y-74198729D01*
X107320186Y-74300186D01*
X107218729Y-74383448D01*
X107182991Y-74412778D01*
X107026466Y-74496443D01*
X106856627Y-74547963D01*
X106790442Y-74554482D01*
X106724260Y-74561000D01*
X106635740Y-74561000D01*
X106569558Y-74554482D01*
X106503373Y-74547963D01*
X106333534Y-74496443D01*
X106177009Y-74412778D01*
X106141271Y-74383448D01*
X106039814Y-74300186D01*
X105956552Y-74198729D01*
X105927222Y-74162991D01*
X105843557Y-74006466D01*
X105792037Y-73836627D01*
X105774641Y-73660000D01*
X105792037Y-73483373D01*
X105843557Y-73313534D01*
X105927222Y-73157009D01*
X105956552Y-73121271D01*
X106039814Y-73019814D01*
X106141271Y-72936552D01*
X106177009Y-72907222D01*
X106333534Y-72823557D01*
X106503373Y-72772037D01*
X106569558Y-72765518D01*
X106635740Y-72759000D01*
X106724260Y-72759000D01*
X106790442Y-72765518D01*
X106790442Y-72765518D01*
G37*
G36*
X111870442Y-72765518D02*
G01*
X111936627Y-72772037D01*
X112106466Y-72823557D01*
X112262991Y-72907222D01*
X112298729Y-72936552D01*
X112400186Y-73019814D01*
X112483448Y-73121271D01*
X112512778Y-73157009D01*
X112596443Y-73313534D01*
X112647963Y-73483373D01*
X112665359Y-73660000D01*
X112647963Y-73836627D01*
X112596443Y-74006466D01*
X112512778Y-74162991D01*
X112483448Y-74198729D01*
X112400186Y-74300186D01*
X112298729Y-74383448D01*
X112262991Y-74412778D01*
X112106466Y-74496443D01*
X111936627Y-74547963D01*
X111870442Y-74554482D01*
X111804260Y-74561000D01*
X111715740Y-74561000D01*
X111649558Y-74554482D01*
X111583373Y-74547963D01*
X111413534Y-74496443D01*
X111257009Y-74412778D01*
X111221271Y-74383448D01*
X111119814Y-74300186D01*
X111036552Y-74198729D01*
X111007222Y-74162991D01*
X110923557Y-74006466D01*
X110872037Y-73836627D01*
X110854641Y-73660000D01*
X110872037Y-73483373D01*
X110923557Y-73313534D01*
X111007222Y-73157009D01*
X111036552Y-73121271D01*
X111119814Y-73019814D01*
X111221271Y-72936552D01*
X111257009Y-72907222D01*
X111413534Y-72823557D01*
X111583373Y-72772037D01*
X111649558Y-72765518D01*
X111715740Y-72759000D01*
X111804260Y-72759000D01*
X111870442Y-72765518D01*
X111870442Y-72765518D01*
G37*
G36*
X109330442Y-72765518D02*
G01*
X109396627Y-72772037D01*
X109566466Y-72823557D01*
X109722991Y-72907222D01*
X109758729Y-72936552D01*
X109860186Y-73019814D01*
X109943448Y-73121271D01*
X109972778Y-73157009D01*
X110056443Y-73313534D01*
X110107963Y-73483373D01*
X110125359Y-73660000D01*
X110107963Y-73836627D01*
X110056443Y-74006466D01*
X109972778Y-74162991D01*
X109943448Y-74198729D01*
X109860186Y-74300186D01*
X109758729Y-74383448D01*
X109722991Y-74412778D01*
X109566466Y-74496443D01*
X109396627Y-74547963D01*
X109330442Y-74554482D01*
X109264260Y-74561000D01*
X109175740Y-74561000D01*
X109109558Y-74554482D01*
X109043373Y-74547963D01*
X108873534Y-74496443D01*
X108717009Y-74412778D01*
X108681271Y-74383448D01*
X108579814Y-74300186D01*
X108496552Y-74198729D01*
X108467222Y-74162991D01*
X108383557Y-74006466D01*
X108332037Y-73836627D01*
X108314641Y-73660000D01*
X108332037Y-73483373D01*
X108383557Y-73313534D01*
X108467222Y-73157009D01*
X108496552Y-73121271D01*
X108579814Y-73019814D01*
X108681271Y-72936552D01*
X108717009Y-72907222D01*
X108873534Y-72823557D01*
X109043373Y-72772037D01*
X109109558Y-72765518D01*
X109175740Y-72759000D01*
X109264260Y-72759000D01*
X109330442Y-72765518D01*
X109330442Y-72765518D01*
G37*
G36*
X99170442Y-72765518D02*
G01*
X99236627Y-72772037D01*
X99406466Y-72823557D01*
X99562991Y-72907222D01*
X99598729Y-72936552D01*
X99700186Y-73019814D01*
X99783448Y-73121271D01*
X99812778Y-73157009D01*
X99896443Y-73313534D01*
X99947963Y-73483373D01*
X99965359Y-73660000D01*
X99947963Y-73836627D01*
X99896443Y-74006466D01*
X99812778Y-74162991D01*
X99783448Y-74198729D01*
X99700186Y-74300186D01*
X99598729Y-74383448D01*
X99562991Y-74412778D01*
X99406466Y-74496443D01*
X99236627Y-74547963D01*
X99170442Y-74554482D01*
X99104260Y-74561000D01*
X99015740Y-74561000D01*
X98949558Y-74554482D01*
X98883373Y-74547963D01*
X98713534Y-74496443D01*
X98557009Y-74412778D01*
X98521271Y-74383448D01*
X98419814Y-74300186D01*
X98336552Y-74198729D01*
X98307222Y-74162991D01*
X98223557Y-74006466D01*
X98172037Y-73836627D01*
X98154641Y-73660000D01*
X98172037Y-73483373D01*
X98223557Y-73313534D01*
X98307222Y-73157009D01*
X98336552Y-73121271D01*
X98419814Y-73019814D01*
X98521271Y-72936552D01*
X98557009Y-72907222D01*
X98713534Y-72823557D01*
X98883373Y-72772037D01*
X98949558Y-72765518D01*
X99015740Y-72759000D01*
X99104260Y-72759000D01*
X99170442Y-72765518D01*
X99170442Y-72765518D01*
G37*
G36*
X94090442Y-70225518D02*
G01*
X94156627Y-70232037D01*
X94326466Y-70283557D01*
X94482991Y-70367222D01*
X94518729Y-70396552D01*
X94620186Y-70479814D01*
X94703448Y-70581271D01*
X94732778Y-70617009D01*
X94816443Y-70773534D01*
X94867963Y-70943373D01*
X94885359Y-71120000D01*
X94867963Y-71296627D01*
X94816443Y-71466466D01*
X94732778Y-71622991D01*
X94704423Y-71657541D01*
X94620186Y-71760186D01*
X94557902Y-71811300D01*
X94482991Y-71872778D01*
X94326466Y-71956443D01*
X94156627Y-72007963D01*
X94090443Y-72014481D01*
X94024260Y-72021000D01*
X93935740Y-72021000D01*
X93869557Y-72014481D01*
X93803373Y-72007963D01*
X93633534Y-71956443D01*
X93477009Y-71872778D01*
X93402098Y-71811300D01*
X93339814Y-71760186D01*
X93255577Y-71657541D01*
X93227222Y-71622991D01*
X93143557Y-71466466D01*
X93092037Y-71296627D01*
X93074641Y-71120000D01*
X93092037Y-70943373D01*
X93143557Y-70773534D01*
X93227222Y-70617009D01*
X93256552Y-70581271D01*
X93339814Y-70479814D01*
X93441271Y-70396552D01*
X93477009Y-70367222D01*
X93633534Y-70283557D01*
X93803373Y-70232037D01*
X93869558Y-70225518D01*
X93935740Y-70219000D01*
X94024260Y-70219000D01*
X94090442Y-70225518D01*
X94090442Y-70225518D01*
G37*
G36*
X104250442Y-70225518D02*
G01*
X104316627Y-70232037D01*
X104486466Y-70283557D01*
X104642991Y-70367222D01*
X104678729Y-70396552D01*
X104780186Y-70479814D01*
X104863448Y-70581271D01*
X104892778Y-70617009D01*
X104976443Y-70773534D01*
X105027963Y-70943373D01*
X105045359Y-71120000D01*
X105027963Y-71296627D01*
X104976443Y-71466466D01*
X104892778Y-71622991D01*
X104864423Y-71657541D01*
X104780186Y-71760186D01*
X104717902Y-71811300D01*
X104642991Y-71872778D01*
X104486466Y-71956443D01*
X104316627Y-72007963D01*
X104250443Y-72014481D01*
X104184260Y-72021000D01*
X104095740Y-72021000D01*
X104029557Y-72014481D01*
X103963373Y-72007963D01*
X103793534Y-71956443D01*
X103637009Y-71872778D01*
X103562098Y-71811300D01*
X103499814Y-71760186D01*
X103415577Y-71657541D01*
X103387222Y-71622991D01*
X103303557Y-71466466D01*
X103252037Y-71296627D01*
X103234641Y-71120000D01*
X103252037Y-70943373D01*
X103303557Y-70773534D01*
X103387222Y-70617009D01*
X103416552Y-70581271D01*
X103499814Y-70479814D01*
X103601271Y-70396552D01*
X103637009Y-70367222D01*
X103793534Y-70283557D01*
X103963373Y-70232037D01*
X104029558Y-70225518D01*
X104095740Y-70219000D01*
X104184260Y-70219000D01*
X104250442Y-70225518D01*
X104250442Y-70225518D01*
G37*
G36*
X109330442Y-70225518D02*
G01*
X109396627Y-70232037D01*
X109566466Y-70283557D01*
X109722991Y-70367222D01*
X109758729Y-70396552D01*
X109860186Y-70479814D01*
X109943448Y-70581271D01*
X109972778Y-70617009D01*
X110056443Y-70773534D01*
X110107963Y-70943373D01*
X110125359Y-71120000D01*
X110107963Y-71296627D01*
X110056443Y-71466466D01*
X109972778Y-71622991D01*
X109944423Y-71657541D01*
X109860186Y-71760186D01*
X109797902Y-71811300D01*
X109722991Y-71872778D01*
X109566466Y-71956443D01*
X109396627Y-72007963D01*
X109330443Y-72014481D01*
X109264260Y-72021000D01*
X109175740Y-72021000D01*
X109109557Y-72014481D01*
X109043373Y-72007963D01*
X108873534Y-71956443D01*
X108717009Y-71872778D01*
X108642098Y-71811300D01*
X108579814Y-71760186D01*
X108495577Y-71657541D01*
X108467222Y-71622991D01*
X108383557Y-71466466D01*
X108332037Y-71296627D01*
X108314641Y-71120000D01*
X108332037Y-70943373D01*
X108383557Y-70773534D01*
X108467222Y-70617009D01*
X108496552Y-70581271D01*
X108579814Y-70479814D01*
X108681271Y-70396552D01*
X108717009Y-70367222D01*
X108873534Y-70283557D01*
X109043373Y-70232037D01*
X109109558Y-70225518D01*
X109175740Y-70219000D01*
X109264260Y-70219000D01*
X109330442Y-70225518D01*
X109330442Y-70225518D01*
G37*
G36*
X106790442Y-70225518D02*
G01*
X106856627Y-70232037D01*
X107026466Y-70283557D01*
X107182991Y-70367222D01*
X107218729Y-70396552D01*
X107320186Y-70479814D01*
X107403448Y-70581271D01*
X107432778Y-70617009D01*
X107516443Y-70773534D01*
X107567963Y-70943373D01*
X107585359Y-71120000D01*
X107567963Y-71296627D01*
X107516443Y-71466466D01*
X107432778Y-71622991D01*
X107404423Y-71657541D01*
X107320186Y-71760186D01*
X107257902Y-71811300D01*
X107182991Y-71872778D01*
X107026466Y-71956443D01*
X106856627Y-72007963D01*
X106790443Y-72014481D01*
X106724260Y-72021000D01*
X106635740Y-72021000D01*
X106569557Y-72014481D01*
X106503373Y-72007963D01*
X106333534Y-71956443D01*
X106177009Y-71872778D01*
X106102098Y-71811300D01*
X106039814Y-71760186D01*
X105955577Y-71657541D01*
X105927222Y-71622991D01*
X105843557Y-71466466D01*
X105792037Y-71296627D01*
X105774641Y-71120000D01*
X105792037Y-70943373D01*
X105843557Y-70773534D01*
X105927222Y-70617009D01*
X105956552Y-70581271D01*
X106039814Y-70479814D01*
X106141271Y-70396552D01*
X106177009Y-70367222D01*
X106333534Y-70283557D01*
X106503373Y-70232037D01*
X106569558Y-70225518D01*
X106635740Y-70219000D01*
X106724260Y-70219000D01*
X106790442Y-70225518D01*
X106790442Y-70225518D01*
G37*
G36*
X89010442Y-70225518D02*
G01*
X89076627Y-70232037D01*
X89246466Y-70283557D01*
X89402991Y-70367222D01*
X89438729Y-70396552D01*
X89540186Y-70479814D01*
X89623448Y-70581271D01*
X89652778Y-70617009D01*
X89736443Y-70773534D01*
X89787963Y-70943373D01*
X89805359Y-71120000D01*
X89787963Y-71296627D01*
X89736443Y-71466466D01*
X89652778Y-71622991D01*
X89624423Y-71657541D01*
X89540186Y-71760186D01*
X89477902Y-71811300D01*
X89402991Y-71872778D01*
X89246466Y-71956443D01*
X89076627Y-72007963D01*
X89010443Y-72014481D01*
X88944260Y-72021000D01*
X88855740Y-72021000D01*
X88789557Y-72014481D01*
X88723373Y-72007963D01*
X88553534Y-71956443D01*
X88397009Y-71872778D01*
X88322098Y-71811300D01*
X88259814Y-71760186D01*
X88175577Y-71657541D01*
X88147222Y-71622991D01*
X88063557Y-71466466D01*
X88012037Y-71296627D01*
X87994641Y-71120000D01*
X88012037Y-70943373D01*
X88063557Y-70773534D01*
X88147222Y-70617009D01*
X88176552Y-70581271D01*
X88259814Y-70479814D01*
X88361271Y-70396552D01*
X88397009Y-70367222D01*
X88553534Y-70283557D01*
X88723373Y-70232037D01*
X88789558Y-70225518D01*
X88855740Y-70219000D01*
X88944260Y-70219000D01*
X89010442Y-70225518D01*
X89010442Y-70225518D01*
G37*
G36*
X91550442Y-70225518D02*
G01*
X91616627Y-70232037D01*
X91786466Y-70283557D01*
X91942991Y-70367222D01*
X91978729Y-70396552D01*
X92080186Y-70479814D01*
X92163448Y-70581271D01*
X92192778Y-70617009D01*
X92276443Y-70773534D01*
X92327963Y-70943373D01*
X92345359Y-71120000D01*
X92327963Y-71296627D01*
X92276443Y-71466466D01*
X92192778Y-71622991D01*
X92164423Y-71657541D01*
X92080186Y-71760186D01*
X92017902Y-71811300D01*
X91942991Y-71872778D01*
X91786466Y-71956443D01*
X91616627Y-72007963D01*
X91550443Y-72014481D01*
X91484260Y-72021000D01*
X91395740Y-72021000D01*
X91329557Y-72014481D01*
X91263373Y-72007963D01*
X91093534Y-71956443D01*
X90937009Y-71872778D01*
X90862098Y-71811300D01*
X90799814Y-71760186D01*
X90715577Y-71657541D01*
X90687222Y-71622991D01*
X90603557Y-71466466D01*
X90552037Y-71296627D01*
X90534641Y-71120000D01*
X90552037Y-70943373D01*
X90603557Y-70773534D01*
X90687222Y-70617009D01*
X90716552Y-70581271D01*
X90799814Y-70479814D01*
X90901271Y-70396552D01*
X90937009Y-70367222D01*
X91093534Y-70283557D01*
X91263373Y-70232037D01*
X91329558Y-70225518D01*
X91395740Y-70219000D01*
X91484260Y-70219000D01*
X91550442Y-70225518D01*
X91550442Y-70225518D01*
G37*
G36*
X96630442Y-70225518D02*
G01*
X96696627Y-70232037D01*
X96866466Y-70283557D01*
X97022991Y-70367222D01*
X97058729Y-70396552D01*
X97160186Y-70479814D01*
X97243448Y-70581271D01*
X97272778Y-70617009D01*
X97356443Y-70773534D01*
X97407963Y-70943373D01*
X97425359Y-71120000D01*
X97407963Y-71296627D01*
X97356443Y-71466466D01*
X97272778Y-71622991D01*
X97244423Y-71657541D01*
X97160186Y-71760186D01*
X97097902Y-71811300D01*
X97022991Y-71872778D01*
X96866466Y-71956443D01*
X96696627Y-72007963D01*
X96630443Y-72014481D01*
X96564260Y-72021000D01*
X96475740Y-72021000D01*
X96409557Y-72014481D01*
X96343373Y-72007963D01*
X96173534Y-71956443D01*
X96017009Y-71872778D01*
X95942098Y-71811300D01*
X95879814Y-71760186D01*
X95795577Y-71657541D01*
X95767222Y-71622991D01*
X95683557Y-71466466D01*
X95632037Y-71296627D01*
X95614641Y-71120000D01*
X95632037Y-70943373D01*
X95683557Y-70773534D01*
X95767222Y-70617009D01*
X95796552Y-70581271D01*
X95879814Y-70479814D01*
X95981271Y-70396552D01*
X96017009Y-70367222D01*
X96173534Y-70283557D01*
X96343373Y-70232037D01*
X96409558Y-70225518D01*
X96475740Y-70219000D01*
X96564260Y-70219000D01*
X96630442Y-70225518D01*
X96630442Y-70225518D01*
G37*
G36*
X99170442Y-70225518D02*
G01*
X99236627Y-70232037D01*
X99406466Y-70283557D01*
X99562991Y-70367222D01*
X99598729Y-70396552D01*
X99700186Y-70479814D01*
X99783448Y-70581271D01*
X99812778Y-70617009D01*
X99896443Y-70773534D01*
X99947963Y-70943373D01*
X99965359Y-71120000D01*
X99947963Y-71296627D01*
X99896443Y-71466466D01*
X99812778Y-71622991D01*
X99784423Y-71657541D01*
X99700186Y-71760186D01*
X99637902Y-71811300D01*
X99562991Y-71872778D01*
X99406466Y-71956443D01*
X99236627Y-72007963D01*
X99170443Y-72014481D01*
X99104260Y-72021000D01*
X99015740Y-72021000D01*
X98949557Y-72014481D01*
X98883373Y-72007963D01*
X98713534Y-71956443D01*
X98557009Y-71872778D01*
X98482098Y-71811300D01*
X98419814Y-71760186D01*
X98335577Y-71657541D01*
X98307222Y-71622991D01*
X98223557Y-71466466D01*
X98172037Y-71296627D01*
X98154641Y-71120000D01*
X98172037Y-70943373D01*
X98223557Y-70773534D01*
X98307222Y-70617009D01*
X98336552Y-70581271D01*
X98419814Y-70479814D01*
X98521271Y-70396552D01*
X98557009Y-70367222D01*
X98713534Y-70283557D01*
X98883373Y-70232037D01*
X98949558Y-70225518D01*
X99015740Y-70219000D01*
X99104260Y-70219000D01*
X99170442Y-70225518D01*
X99170442Y-70225518D01*
G37*
G36*
X111870442Y-70225518D02*
G01*
X111936627Y-70232037D01*
X112106466Y-70283557D01*
X112262991Y-70367222D01*
X112298729Y-70396552D01*
X112400186Y-70479814D01*
X112483448Y-70581271D01*
X112512778Y-70617009D01*
X112596443Y-70773534D01*
X112647963Y-70943373D01*
X112665359Y-71120000D01*
X112647963Y-71296627D01*
X112596443Y-71466466D01*
X112512778Y-71622991D01*
X112484423Y-71657541D01*
X112400186Y-71760186D01*
X112337902Y-71811300D01*
X112262991Y-71872778D01*
X112106466Y-71956443D01*
X111936627Y-72007963D01*
X111870443Y-72014481D01*
X111804260Y-72021000D01*
X111715740Y-72021000D01*
X111649557Y-72014481D01*
X111583373Y-72007963D01*
X111413534Y-71956443D01*
X111257009Y-71872778D01*
X111182098Y-71811300D01*
X111119814Y-71760186D01*
X111035577Y-71657541D01*
X111007222Y-71622991D01*
X110923557Y-71466466D01*
X110872037Y-71296627D01*
X110854641Y-71120000D01*
X110872037Y-70943373D01*
X110923557Y-70773534D01*
X111007222Y-70617009D01*
X111036552Y-70581271D01*
X111119814Y-70479814D01*
X111221271Y-70396552D01*
X111257009Y-70367222D01*
X111413534Y-70283557D01*
X111583373Y-70232037D01*
X111649558Y-70225518D01*
X111715740Y-70219000D01*
X111804260Y-70219000D01*
X111870442Y-70225518D01*
X111870442Y-70225518D01*
G37*
G36*
X101710442Y-70225518D02*
G01*
X101776627Y-70232037D01*
X101946466Y-70283557D01*
X102102991Y-70367222D01*
X102138729Y-70396552D01*
X102240186Y-70479814D01*
X102323448Y-70581271D01*
X102352778Y-70617009D01*
X102436443Y-70773534D01*
X102487963Y-70943373D01*
X102505359Y-71120000D01*
X102487963Y-71296627D01*
X102436443Y-71466466D01*
X102352778Y-71622991D01*
X102324423Y-71657541D01*
X102240186Y-71760186D01*
X102177902Y-71811300D01*
X102102991Y-71872778D01*
X101946466Y-71956443D01*
X101776627Y-72007963D01*
X101710443Y-72014481D01*
X101644260Y-72021000D01*
X101555740Y-72021000D01*
X101489557Y-72014481D01*
X101423373Y-72007963D01*
X101253534Y-71956443D01*
X101097009Y-71872778D01*
X101022098Y-71811300D01*
X100959814Y-71760186D01*
X100875577Y-71657541D01*
X100847222Y-71622991D01*
X100763557Y-71466466D01*
X100712037Y-71296627D01*
X100694641Y-71120000D01*
X100712037Y-70943373D01*
X100763557Y-70773534D01*
X100847222Y-70617009D01*
X100876552Y-70581271D01*
X100959814Y-70479814D01*
X101061271Y-70396552D01*
X101097009Y-70367222D01*
X101253534Y-70283557D01*
X101423373Y-70232037D01*
X101489558Y-70225518D01*
X101555740Y-70219000D01*
X101644260Y-70219000D01*
X101710442Y-70225518D01*
X101710442Y-70225518D01*
G37*
G36*
X158176272Y-69161218D02*
G01*
X158422139Y-69263059D01*
X158526480Y-69332778D01*
X158643411Y-69410909D01*
X158831591Y-69599089D01*
X158979442Y-69820363D01*
X159081282Y-70066228D01*
X159133200Y-70327237D01*
X159133200Y-70593363D01*
X159128496Y-70617011D01*
X159081282Y-70854372D01*
X158979441Y-71100239D01*
X158831590Y-71321512D01*
X158643412Y-71509690D01*
X158422139Y-71657541D01*
X158422138Y-71657542D01*
X158422137Y-71657542D01*
X158176272Y-71759382D01*
X157915263Y-71811300D01*
X157649137Y-71811300D01*
X157388128Y-71759382D01*
X157142263Y-71657542D01*
X157142262Y-71657542D01*
X157142261Y-71657541D01*
X156920988Y-71509690D01*
X156732810Y-71321512D01*
X156584959Y-71100239D01*
X156483118Y-70854372D01*
X156435904Y-70617011D01*
X156431200Y-70593363D01*
X156431200Y-70327237D01*
X156483118Y-70066228D01*
X156584958Y-69820363D01*
X156732809Y-69599089D01*
X156920989Y-69410909D01*
X157037920Y-69332778D01*
X157142261Y-69263059D01*
X157388128Y-69161218D01*
X157649137Y-69109300D01*
X157915263Y-69109300D01*
X158176272Y-69161218D01*
X158176272Y-69161218D01*
G37*
G36*
X173726272Y-69161218D02*
G01*
X173972139Y-69263059D01*
X174076480Y-69332778D01*
X174193411Y-69410909D01*
X174381591Y-69599089D01*
X174529442Y-69820363D01*
X174631282Y-70066228D01*
X174683200Y-70327237D01*
X174683200Y-70593363D01*
X174678496Y-70617011D01*
X174631282Y-70854372D01*
X174529441Y-71100239D01*
X174381590Y-71321512D01*
X174193412Y-71509690D01*
X173972139Y-71657541D01*
X173972138Y-71657542D01*
X173972137Y-71657542D01*
X173726272Y-71759382D01*
X173465263Y-71811300D01*
X173199137Y-71811300D01*
X172938128Y-71759382D01*
X172692263Y-71657542D01*
X172692262Y-71657542D01*
X172692261Y-71657541D01*
X172470988Y-71509690D01*
X172282810Y-71321512D01*
X172134959Y-71100239D01*
X172033118Y-70854372D01*
X171985904Y-70617011D01*
X171981200Y-70593363D01*
X171981200Y-70327237D01*
X172033118Y-70066228D01*
X172134958Y-69820363D01*
X172282809Y-69599089D01*
X172470989Y-69410909D01*
X172587920Y-69332778D01*
X172692261Y-69263059D01*
X172938128Y-69161218D01*
X173199137Y-69109300D01*
X173465263Y-69109300D01*
X173726272Y-69161218D01*
X173726272Y-69161218D01*
G37*
G36*
X188070443Y-67685519D02*
G01*
X188136627Y-67692037D01*
X188306466Y-67743557D01*
X188462991Y-67827222D01*
X188498729Y-67856552D01*
X188600186Y-67939814D01*
X188683448Y-68041271D01*
X188712778Y-68077009D01*
X188796443Y-68233534D01*
X188847963Y-68403373D01*
X188865359Y-68580000D01*
X188847963Y-68756627D01*
X188796443Y-68926466D01*
X188712778Y-69082991D01*
X188683448Y-69118729D01*
X188600186Y-69220186D01*
X188498729Y-69303448D01*
X188462991Y-69332778D01*
X188462989Y-69332779D01*
X188316818Y-69410910D01*
X188306466Y-69416443D01*
X188136627Y-69467963D01*
X188070442Y-69474482D01*
X188004260Y-69481000D01*
X187915740Y-69481000D01*
X187849558Y-69474482D01*
X187783373Y-69467963D01*
X187613534Y-69416443D01*
X187603183Y-69410910D01*
X187457011Y-69332779D01*
X187457009Y-69332778D01*
X187421271Y-69303448D01*
X187319814Y-69220186D01*
X187236552Y-69118729D01*
X187207222Y-69082991D01*
X187123557Y-68926466D01*
X187072037Y-68756627D01*
X187054641Y-68580000D01*
X187072037Y-68403373D01*
X187123557Y-68233534D01*
X187207222Y-68077009D01*
X187236552Y-68041271D01*
X187319814Y-67939814D01*
X187421271Y-67856552D01*
X187457009Y-67827222D01*
X187613534Y-67743557D01*
X187783373Y-67692037D01*
X187849557Y-67685519D01*
X187915740Y-67679000D01*
X188004260Y-67679000D01*
X188070443Y-67685519D01*
X188070443Y-67685519D01*
G37*
G36*
X185530443Y-67685519D02*
G01*
X185596627Y-67692037D01*
X185766466Y-67743557D01*
X185922991Y-67827222D01*
X185958729Y-67856552D01*
X186060186Y-67939814D01*
X186143448Y-68041271D01*
X186172778Y-68077009D01*
X186256443Y-68233534D01*
X186307963Y-68403373D01*
X186325359Y-68580000D01*
X186307963Y-68756627D01*
X186256443Y-68926466D01*
X186172778Y-69082991D01*
X186143448Y-69118729D01*
X186060186Y-69220186D01*
X185958729Y-69303448D01*
X185922991Y-69332778D01*
X185922989Y-69332779D01*
X185776818Y-69410910D01*
X185766466Y-69416443D01*
X185596627Y-69467963D01*
X185530442Y-69474482D01*
X185464260Y-69481000D01*
X185375740Y-69481000D01*
X185309558Y-69474482D01*
X185243373Y-69467963D01*
X185073534Y-69416443D01*
X185063183Y-69410910D01*
X184917011Y-69332779D01*
X184917009Y-69332778D01*
X184881271Y-69303448D01*
X184779814Y-69220186D01*
X184696552Y-69118729D01*
X184667222Y-69082991D01*
X184583557Y-68926466D01*
X184532037Y-68756627D01*
X184514641Y-68580000D01*
X184532037Y-68403373D01*
X184583557Y-68233534D01*
X184667222Y-68077009D01*
X184696552Y-68041271D01*
X184779814Y-67939814D01*
X184881271Y-67856552D01*
X184917009Y-67827222D01*
X185073534Y-67743557D01*
X185243373Y-67692037D01*
X185309557Y-67685519D01*
X185375740Y-67679000D01*
X185464260Y-67679000D01*
X185530443Y-67685519D01*
X185530443Y-67685519D01*
G37*
G36*
X163944181Y-66207768D02*
G01*
X164126351Y-66283226D01*
X164290300Y-66392773D01*
X164429727Y-66532200D01*
X164539274Y-66696149D01*
X164614732Y-66878319D01*
X164653200Y-67071710D01*
X164653200Y-67268890D01*
X164614732Y-67462281D01*
X164539274Y-67644451D01*
X164429727Y-67808400D01*
X164290300Y-67947827D01*
X164126351Y-68057374D01*
X163944181Y-68132832D01*
X163847485Y-68152066D01*
X163750791Y-68171300D01*
X163553609Y-68171300D01*
X163456915Y-68152066D01*
X163360219Y-68132832D01*
X163178049Y-68057374D01*
X163014100Y-67947827D01*
X162874673Y-67808400D01*
X162765126Y-67644451D01*
X162689668Y-67462281D01*
X162651200Y-67268890D01*
X162651200Y-67071710D01*
X162689668Y-66878319D01*
X162765126Y-66696149D01*
X162874673Y-66532200D01*
X163014100Y-66392773D01*
X163178049Y-66283226D01*
X163360219Y-66207768D01*
X163553609Y-66169300D01*
X163750791Y-66169300D01*
X163944181Y-66207768D01*
X163944181Y-66207768D01*
G37*
G36*
X169024181Y-66207768D02*
G01*
X169206351Y-66283226D01*
X169370300Y-66392773D01*
X169509727Y-66532200D01*
X169619274Y-66696149D01*
X169694732Y-66878319D01*
X169733200Y-67071710D01*
X169733200Y-67268890D01*
X169694732Y-67462281D01*
X169619274Y-67644451D01*
X169509727Y-67808400D01*
X169370300Y-67947827D01*
X169206351Y-68057374D01*
X169024181Y-68132832D01*
X168927485Y-68152066D01*
X168830791Y-68171300D01*
X168633609Y-68171300D01*
X168536915Y-68152066D01*
X168440219Y-68132832D01*
X168258049Y-68057374D01*
X168094100Y-67947827D01*
X167954673Y-67808400D01*
X167845126Y-67644451D01*
X167769668Y-67462281D01*
X167731200Y-67268890D01*
X167731200Y-67071710D01*
X167769668Y-66878319D01*
X167845126Y-66696149D01*
X167954673Y-66532200D01*
X168094100Y-66392773D01*
X168258049Y-66283226D01*
X168440219Y-66207768D01*
X168633609Y-66169300D01*
X168830791Y-66169300D01*
X169024181Y-66207768D01*
X169024181Y-66207768D01*
G37*
G36*
X162113200Y-68171300D02*
G01*
X160111200Y-68171300D01*
X160111200Y-66169300D01*
X162113200Y-66169300D01*
X162113200Y-68171300D01*
X162113200Y-68171300D01*
G37*
G36*
X166484181Y-66207768D02*
G01*
X166666351Y-66283226D01*
X166830300Y-66392773D01*
X166969727Y-66532200D01*
X167079274Y-66696149D01*
X167154732Y-66878319D01*
X167193200Y-67071710D01*
X167193200Y-67268890D01*
X167154732Y-67462281D01*
X167079274Y-67644451D01*
X166969727Y-67808400D01*
X166830300Y-67947827D01*
X166666351Y-68057374D01*
X166484181Y-68132832D01*
X166387485Y-68152066D01*
X166290791Y-68171300D01*
X166093609Y-68171300D01*
X165996915Y-68152066D01*
X165900219Y-68132832D01*
X165718049Y-68057374D01*
X165554100Y-67947827D01*
X165414673Y-67808400D01*
X165305126Y-67644451D01*
X165229668Y-67462281D01*
X165191200Y-67268890D01*
X165191200Y-67071710D01*
X165229668Y-66878319D01*
X165305126Y-66696149D01*
X165414673Y-66532200D01*
X165554100Y-66392773D01*
X165718049Y-66283226D01*
X165900219Y-66207768D01*
X166093609Y-66169300D01*
X166290791Y-66169300D01*
X166484181Y-66207768D01*
X166484181Y-66207768D01*
G37*
G36*
X185530442Y-65145518D02*
G01*
X185596627Y-65152037D01*
X185766466Y-65203557D01*
X185922991Y-65287222D01*
X185958729Y-65316552D01*
X186060186Y-65399814D01*
X186143448Y-65501271D01*
X186172778Y-65537009D01*
X186256443Y-65693534D01*
X186307963Y-65863373D01*
X186325359Y-66040000D01*
X186307963Y-66216627D01*
X186256443Y-66386466D01*
X186172778Y-66542991D01*
X186143448Y-66578729D01*
X186060186Y-66680186D01*
X185958729Y-66763448D01*
X185922991Y-66792778D01*
X185766466Y-66876443D01*
X185596627Y-66927963D01*
X185530442Y-66934482D01*
X185464260Y-66941000D01*
X185375740Y-66941000D01*
X185309558Y-66934482D01*
X185243373Y-66927963D01*
X185073534Y-66876443D01*
X184917009Y-66792778D01*
X184881271Y-66763448D01*
X184779814Y-66680186D01*
X184696552Y-66578729D01*
X184667222Y-66542991D01*
X184583557Y-66386466D01*
X184532037Y-66216627D01*
X184514641Y-66040000D01*
X184532037Y-65863373D01*
X184583557Y-65693534D01*
X184667222Y-65537009D01*
X184696552Y-65501271D01*
X184779814Y-65399814D01*
X184881271Y-65316552D01*
X184917009Y-65287222D01*
X185073534Y-65203557D01*
X185243373Y-65152037D01*
X185309558Y-65145518D01*
X185375740Y-65139000D01*
X185464260Y-65139000D01*
X185530442Y-65145518D01*
X185530442Y-65145518D01*
G37*
G36*
X188070442Y-65145518D02*
G01*
X188136627Y-65152037D01*
X188306466Y-65203557D01*
X188462991Y-65287222D01*
X188498729Y-65316552D01*
X188600186Y-65399814D01*
X188683448Y-65501271D01*
X188712778Y-65537009D01*
X188796443Y-65693534D01*
X188847963Y-65863373D01*
X188865359Y-66040000D01*
X188847963Y-66216627D01*
X188796443Y-66386466D01*
X188712778Y-66542991D01*
X188683448Y-66578729D01*
X188600186Y-66680186D01*
X188498729Y-66763448D01*
X188462991Y-66792778D01*
X188306466Y-66876443D01*
X188136627Y-66927963D01*
X188070442Y-66934482D01*
X188004260Y-66941000D01*
X187915740Y-66941000D01*
X187849558Y-66934482D01*
X187783373Y-66927963D01*
X187613534Y-66876443D01*
X187457009Y-66792778D01*
X187421271Y-66763448D01*
X187319814Y-66680186D01*
X187236552Y-66578729D01*
X187207222Y-66542991D01*
X187123557Y-66386466D01*
X187072037Y-66216627D01*
X187054641Y-66040000D01*
X187072037Y-65863373D01*
X187123557Y-65693534D01*
X187207222Y-65537009D01*
X187236552Y-65501271D01*
X187319814Y-65399814D01*
X187421271Y-65316552D01*
X187457009Y-65287222D01*
X187613534Y-65203557D01*
X187783373Y-65152037D01*
X187849558Y-65145518D01*
X187915740Y-65139000D01*
X188004260Y-65139000D01*
X188070442Y-65145518D01*
X188070442Y-65145518D01*
G37*
G36*
X165214181Y-63667768D02*
G01*
X165396351Y-63743226D01*
X165560300Y-63852773D01*
X165699727Y-63992200D01*
X165809274Y-64156149D01*
X165884732Y-64338319D01*
X165923200Y-64531710D01*
X165923200Y-64728890D01*
X165884732Y-64922281D01*
X165809274Y-65104451D01*
X165699727Y-65268400D01*
X165560300Y-65407827D01*
X165396351Y-65517374D01*
X165214181Y-65592832D01*
X165020791Y-65631300D01*
X164823609Y-65631300D01*
X164630219Y-65592832D01*
X164448049Y-65517374D01*
X164284100Y-65407827D01*
X164144673Y-65268400D01*
X164035126Y-65104451D01*
X163959668Y-64922281D01*
X163921200Y-64728890D01*
X163921200Y-64531710D01*
X163959668Y-64338319D01*
X164035126Y-64156149D01*
X164144673Y-63992200D01*
X164284100Y-63852773D01*
X164448049Y-63743226D01*
X164630219Y-63667768D01*
X164823609Y-63629300D01*
X165020791Y-63629300D01*
X165214181Y-63667768D01*
X165214181Y-63667768D01*
G37*
G36*
X162674181Y-63667768D02*
G01*
X162856351Y-63743226D01*
X163020300Y-63852773D01*
X163159727Y-63992200D01*
X163269274Y-64156149D01*
X163344732Y-64338319D01*
X163383200Y-64531710D01*
X163383200Y-64728890D01*
X163344732Y-64922281D01*
X163269274Y-65104451D01*
X163159727Y-65268400D01*
X163020300Y-65407827D01*
X162856351Y-65517374D01*
X162674181Y-65592832D01*
X162480791Y-65631300D01*
X162283609Y-65631300D01*
X162090219Y-65592832D01*
X161908049Y-65517374D01*
X161744100Y-65407827D01*
X161604673Y-65268400D01*
X161495126Y-65104451D01*
X161419668Y-64922281D01*
X161381200Y-64728890D01*
X161381200Y-64531710D01*
X161419668Y-64338319D01*
X161495126Y-64156149D01*
X161604673Y-63992200D01*
X161744100Y-63852773D01*
X161908049Y-63743226D01*
X162090219Y-63667768D01*
X162283609Y-63629300D01*
X162480791Y-63629300D01*
X162674181Y-63667768D01*
X162674181Y-63667768D01*
G37*
G36*
X167754181Y-63667768D02*
G01*
X167936351Y-63743226D01*
X168100300Y-63852773D01*
X168239727Y-63992200D01*
X168349274Y-64156149D01*
X168424732Y-64338319D01*
X168463200Y-64531710D01*
X168463200Y-64728890D01*
X168424732Y-64922281D01*
X168349274Y-65104451D01*
X168239727Y-65268400D01*
X168100300Y-65407827D01*
X167936351Y-65517374D01*
X167754181Y-65592832D01*
X167560791Y-65631300D01*
X167363609Y-65631300D01*
X167170219Y-65592832D01*
X166988049Y-65517374D01*
X166824100Y-65407827D01*
X166684673Y-65268400D01*
X166575126Y-65104451D01*
X166499668Y-64922281D01*
X166461200Y-64728890D01*
X166461200Y-64531710D01*
X166499668Y-64338319D01*
X166575126Y-64156149D01*
X166684673Y-63992200D01*
X166824100Y-63852773D01*
X166988049Y-63743226D01*
X167170219Y-63667768D01*
X167363609Y-63629300D01*
X167560791Y-63629300D01*
X167754181Y-63667768D01*
X167754181Y-63667768D01*
G37*
G36*
X170294181Y-63667768D02*
G01*
X170476351Y-63743226D01*
X170640300Y-63852773D01*
X170779727Y-63992200D01*
X170889274Y-64156149D01*
X170964732Y-64338319D01*
X171003200Y-64531710D01*
X171003200Y-64728890D01*
X170964732Y-64922281D01*
X170889274Y-65104451D01*
X170779727Y-65268400D01*
X170640300Y-65407827D01*
X170476351Y-65517374D01*
X170294181Y-65592832D01*
X170100791Y-65631300D01*
X169903609Y-65631300D01*
X169710219Y-65592832D01*
X169528049Y-65517374D01*
X169364100Y-65407827D01*
X169224673Y-65268400D01*
X169115126Y-65104451D01*
X169039668Y-64922281D01*
X169001200Y-64728890D01*
X169001200Y-64531710D01*
X169039668Y-64338319D01*
X169115126Y-64156149D01*
X169224673Y-63992200D01*
X169364100Y-63852773D01*
X169528049Y-63743226D01*
X169710219Y-63667768D01*
X169903609Y-63629300D01*
X170100791Y-63629300D01*
X170294181Y-63667768D01*
X170294181Y-63667768D01*
G37*
G36*
X185530442Y-62605518D02*
G01*
X185596627Y-62612037D01*
X185766466Y-62663557D01*
X185922991Y-62747222D01*
X185958729Y-62776552D01*
X186060186Y-62859814D01*
X186143448Y-62961271D01*
X186172778Y-62997009D01*
X186256443Y-63153534D01*
X186307963Y-63323373D01*
X186325359Y-63500000D01*
X186307963Y-63676627D01*
X186256443Y-63846466D01*
X186172778Y-64002991D01*
X186143448Y-64038729D01*
X186060186Y-64140186D01*
X185958729Y-64223448D01*
X185922991Y-64252778D01*
X185766466Y-64336443D01*
X185596627Y-64387963D01*
X185530442Y-64394482D01*
X185464260Y-64401000D01*
X185375740Y-64401000D01*
X185309558Y-64394482D01*
X185243373Y-64387963D01*
X185073534Y-64336443D01*
X184917009Y-64252778D01*
X184881271Y-64223448D01*
X184779814Y-64140186D01*
X184696552Y-64038729D01*
X184667222Y-64002991D01*
X184583557Y-63846466D01*
X184532037Y-63676627D01*
X184514641Y-63500000D01*
X184532037Y-63323373D01*
X184583557Y-63153534D01*
X184667222Y-62997009D01*
X184696552Y-62961271D01*
X184779814Y-62859814D01*
X184881271Y-62776552D01*
X184917009Y-62747222D01*
X185073534Y-62663557D01*
X185243373Y-62612037D01*
X185309558Y-62605518D01*
X185375740Y-62599000D01*
X185464260Y-62599000D01*
X185530442Y-62605518D01*
X185530442Y-62605518D01*
G37*
G36*
X188070442Y-62605518D02*
G01*
X188136627Y-62612037D01*
X188306466Y-62663557D01*
X188462991Y-62747222D01*
X188498729Y-62776552D01*
X188600186Y-62859814D01*
X188683448Y-62961271D01*
X188712778Y-62997009D01*
X188796443Y-63153534D01*
X188847963Y-63323373D01*
X188865359Y-63500000D01*
X188847963Y-63676627D01*
X188796443Y-63846466D01*
X188712778Y-64002991D01*
X188683448Y-64038729D01*
X188600186Y-64140186D01*
X188498729Y-64223448D01*
X188462991Y-64252778D01*
X188306466Y-64336443D01*
X188136627Y-64387963D01*
X188070442Y-64394482D01*
X188004260Y-64401000D01*
X187915740Y-64401000D01*
X187849558Y-64394482D01*
X187783373Y-64387963D01*
X187613534Y-64336443D01*
X187457009Y-64252778D01*
X187421271Y-64223448D01*
X187319814Y-64140186D01*
X187236552Y-64038729D01*
X187207222Y-64002991D01*
X187123557Y-63846466D01*
X187072037Y-63676627D01*
X187054641Y-63500000D01*
X187072037Y-63323373D01*
X187123557Y-63153534D01*
X187207222Y-62997009D01*
X187236552Y-62961271D01*
X187319814Y-62859814D01*
X187421271Y-62776552D01*
X187457009Y-62747222D01*
X187613534Y-62663557D01*
X187783373Y-62612037D01*
X187849558Y-62605518D01*
X187915740Y-62599000D01*
X188004260Y-62599000D01*
X188070442Y-62605518D01*
X188070442Y-62605518D01*
G37*
G36*
X188070442Y-60065518D02*
G01*
X188136627Y-60072037D01*
X188306466Y-60123557D01*
X188462991Y-60207222D01*
X188498729Y-60236552D01*
X188600186Y-60319814D01*
X188683448Y-60421271D01*
X188712778Y-60457009D01*
X188796443Y-60613534D01*
X188847963Y-60783373D01*
X188865359Y-60960000D01*
X188847963Y-61136627D01*
X188796443Y-61306466D01*
X188712778Y-61462991D01*
X188683448Y-61498729D01*
X188600186Y-61600186D01*
X188498729Y-61683448D01*
X188462991Y-61712778D01*
X188306466Y-61796443D01*
X188136627Y-61847963D01*
X188070443Y-61854481D01*
X188004260Y-61861000D01*
X187915740Y-61861000D01*
X187849557Y-61854481D01*
X187783373Y-61847963D01*
X187613534Y-61796443D01*
X187457009Y-61712778D01*
X187421271Y-61683448D01*
X187319814Y-61600186D01*
X187236552Y-61498729D01*
X187207222Y-61462991D01*
X187123557Y-61306466D01*
X187072037Y-61136627D01*
X187054641Y-60960000D01*
X187072037Y-60783373D01*
X187123557Y-60613534D01*
X187207222Y-60457009D01*
X187236552Y-60421271D01*
X187319814Y-60319814D01*
X187421271Y-60236552D01*
X187457009Y-60207222D01*
X187613534Y-60123557D01*
X187783373Y-60072037D01*
X187849558Y-60065518D01*
X187915740Y-60059000D01*
X188004260Y-60059000D01*
X188070442Y-60065518D01*
X188070442Y-60065518D01*
G37*
G36*
X185530442Y-60065518D02*
G01*
X185596627Y-60072037D01*
X185766466Y-60123557D01*
X185922991Y-60207222D01*
X185958729Y-60236552D01*
X186060186Y-60319814D01*
X186143448Y-60421271D01*
X186172778Y-60457009D01*
X186256443Y-60613534D01*
X186307963Y-60783373D01*
X186325359Y-60960000D01*
X186307963Y-61136627D01*
X186256443Y-61306466D01*
X186172778Y-61462991D01*
X186143448Y-61498729D01*
X186060186Y-61600186D01*
X185958729Y-61683448D01*
X185922991Y-61712778D01*
X185766466Y-61796443D01*
X185596627Y-61847963D01*
X185530443Y-61854481D01*
X185464260Y-61861000D01*
X185375740Y-61861000D01*
X185309557Y-61854481D01*
X185243373Y-61847963D01*
X185073534Y-61796443D01*
X184917009Y-61712778D01*
X184881271Y-61683448D01*
X184779814Y-61600186D01*
X184696552Y-61498729D01*
X184667222Y-61462991D01*
X184583557Y-61306466D01*
X184532037Y-61136627D01*
X184514641Y-60960000D01*
X184532037Y-60783373D01*
X184583557Y-60613534D01*
X184667222Y-60457009D01*
X184696552Y-60421271D01*
X184779814Y-60319814D01*
X184881271Y-60236552D01*
X184917009Y-60207222D01*
X185073534Y-60123557D01*
X185243373Y-60072037D01*
X185309558Y-60065518D01*
X185375740Y-60059000D01*
X185464260Y-60059000D01*
X185530442Y-60065518D01*
X185530442Y-60065518D01*
G37*
G36*
X114019824Y-58057089D02*
G01*
X114211093Y-58136315D01*
X114211095Y-58136316D01*
X114371317Y-58243373D01*
X114383233Y-58251335D01*
X114529625Y-58397727D01*
X114644645Y-58569867D01*
X114723871Y-58761136D01*
X114764260Y-58964184D01*
X114764260Y-59171216D01*
X114723871Y-59374264D01*
X114644645Y-59565533D01*
X114644644Y-59565535D01*
X114529625Y-59737673D01*
X114383233Y-59884065D01*
X114211095Y-59999084D01*
X114211094Y-59999085D01*
X114211093Y-59999085D01*
X114019824Y-60078311D01*
X113816776Y-60118700D01*
X113609744Y-60118700D01*
X113406696Y-60078311D01*
X113215427Y-59999085D01*
X113215426Y-59999085D01*
X113215425Y-59999084D01*
X113043287Y-59884065D01*
X112896895Y-59737673D01*
X112781876Y-59565535D01*
X112781875Y-59565533D01*
X112702649Y-59374264D01*
X112662260Y-59171216D01*
X112662260Y-58964184D01*
X112702649Y-58761136D01*
X112781875Y-58569867D01*
X112896895Y-58397727D01*
X113043287Y-58251335D01*
X113055203Y-58243373D01*
X113215425Y-58136316D01*
X113215427Y-58136315D01*
X113406696Y-58057089D01*
X113609744Y-58016700D01*
X113816776Y-58016700D01*
X114019824Y-58057089D01*
X114019824Y-58057089D01*
G37*
G36*
X185530443Y-57525519D02*
G01*
X185596627Y-57532037D01*
X185766466Y-57583557D01*
X185922991Y-57667222D01*
X185958729Y-57696552D01*
X186060186Y-57779814D01*
X186143448Y-57881271D01*
X186172778Y-57917009D01*
X186256443Y-58073534D01*
X186307963Y-58243373D01*
X186325359Y-58420000D01*
X186307963Y-58596627D01*
X186256443Y-58766466D01*
X186172778Y-58922991D01*
X186143448Y-58958729D01*
X186060186Y-59060186D01*
X185958729Y-59143448D01*
X185922991Y-59172778D01*
X185766466Y-59256443D01*
X185596627Y-59307963D01*
X185530442Y-59314482D01*
X185464260Y-59321000D01*
X185375740Y-59321000D01*
X185309558Y-59314482D01*
X185243373Y-59307963D01*
X185073534Y-59256443D01*
X184917009Y-59172778D01*
X184881271Y-59143448D01*
X184779814Y-59060186D01*
X184696552Y-58958729D01*
X184667222Y-58922991D01*
X184583557Y-58766466D01*
X184532037Y-58596627D01*
X184514641Y-58420000D01*
X184532037Y-58243373D01*
X184583557Y-58073534D01*
X184667222Y-57917009D01*
X184696552Y-57881271D01*
X184779814Y-57779814D01*
X184881271Y-57696552D01*
X184917009Y-57667222D01*
X185073534Y-57583557D01*
X185243373Y-57532037D01*
X185309557Y-57525519D01*
X185375740Y-57519000D01*
X185464260Y-57519000D01*
X185530443Y-57525519D01*
X185530443Y-57525519D01*
G37*
G36*
X188070443Y-57525519D02*
G01*
X188136627Y-57532037D01*
X188306466Y-57583557D01*
X188462991Y-57667222D01*
X188498729Y-57696552D01*
X188600186Y-57779814D01*
X188683448Y-57881271D01*
X188712778Y-57917009D01*
X188796443Y-58073534D01*
X188847963Y-58243373D01*
X188865359Y-58420000D01*
X188847963Y-58596627D01*
X188796443Y-58766466D01*
X188712778Y-58922991D01*
X188683448Y-58958729D01*
X188600186Y-59060186D01*
X188498729Y-59143448D01*
X188462991Y-59172778D01*
X188306466Y-59256443D01*
X188136627Y-59307963D01*
X188070442Y-59314482D01*
X188004260Y-59321000D01*
X187915740Y-59321000D01*
X187849558Y-59314482D01*
X187783373Y-59307963D01*
X187613534Y-59256443D01*
X187457009Y-59172778D01*
X187421271Y-59143448D01*
X187319814Y-59060186D01*
X187236552Y-58958729D01*
X187207222Y-58922991D01*
X187123557Y-58766466D01*
X187072037Y-58596627D01*
X187054641Y-58420000D01*
X187072037Y-58243373D01*
X187123557Y-58073534D01*
X187207222Y-57917009D01*
X187236552Y-57881271D01*
X187319814Y-57779814D01*
X187421271Y-57696552D01*
X187457009Y-57667222D01*
X187613534Y-57583557D01*
X187783373Y-57532037D01*
X187849557Y-57525519D01*
X187915740Y-57519000D01*
X188004260Y-57519000D01*
X188070443Y-57525519D01*
X188070443Y-57525519D01*
G37*
G36*
X185530443Y-54985519D02*
G01*
X185596627Y-54992037D01*
X185766466Y-55043557D01*
X185922991Y-55127222D01*
X185958729Y-55156552D01*
X186060186Y-55239814D01*
X186143448Y-55341271D01*
X186172778Y-55377009D01*
X186256443Y-55533534D01*
X186307963Y-55703373D01*
X186325359Y-55880000D01*
X186307963Y-56056627D01*
X186256443Y-56226466D01*
X186172778Y-56382991D01*
X186143448Y-56418729D01*
X186060186Y-56520186D01*
X185958729Y-56603448D01*
X185922991Y-56632778D01*
X185766466Y-56716443D01*
X185596627Y-56767963D01*
X185530443Y-56774481D01*
X185464260Y-56781000D01*
X185375740Y-56781000D01*
X185309557Y-56774481D01*
X185243373Y-56767963D01*
X185073534Y-56716443D01*
X184917009Y-56632778D01*
X184881271Y-56603448D01*
X184779814Y-56520186D01*
X184696552Y-56418729D01*
X184667222Y-56382991D01*
X184583557Y-56226466D01*
X184532037Y-56056627D01*
X184514641Y-55880000D01*
X184532037Y-55703373D01*
X184583557Y-55533534D01*
X184667222Y-55377009D01*
X184696552Y-55341271D01*
X184779814Y-55239814D01*
X184881271Y-55156552D01*
X184917009Y-55127222D01*
X185073534Y-55043557D01*
X185243373Y-54992037D01*
X185309557Y-54985519D01*
X185375740Y-54979000D01*
X185464260Y-54979000D01*
X185530443Y-54985519D01*
X185530443Y-54985519D01*
G37*
G36*
X188070443Y-54985519D02*
G01*
X188136627Y-54992037D01*
X188306466Y-55043557D01*
X188462991Y-55127222D01*
X188498729Y-55156552D01*
X188600186Y-55239814D01*
X188683448Y-55341271D01*
X188712778Y-55377009D01*
X188796443Y-55533534D01*
X188847963Y-55703373D01*
X188865359Y-55880000D01*
X188847963Y-56056627D01*
X188796443Y-56226466D01*
X188712778Y-56382991D01*
X188683448Y-56418729D01*
X188600186Y-56520186D01*
X188498729Y-56603448D01*
X188462991Y-56632778D01*
X188306466Y-56716443D01*
X188136627Y-56767963D01*
X188070443Y-56774481D01*
X188004260Y-56781000D01*
X187915740Y-56781000D01*
X187849557Y-56774481D01*
X187783373Y-56767963D01*
X187613534Y-56716443D01*
X187457009Y-56632778D01*
X187421271Y-56603448D01*
X187319814Y-56520186D01*
X187236552Y-56418729D01*
X187207222Y-56382991D01*
X187123557Y-56226466D01*
X187072037Y-56056627D01*
X187054641Y-55880000D01*
X187072037Y-55703373D01*
X187123557Y-55533534D01*
X187207222Y-55377009D01*
X187236552Y-55341271D01*
X187319814Y-55239814D01*
X187421271Y-55156552D01*
X187457009Y-55127222D01*
X187613534Y-55043557D01*
X187783373Y-54992037D01*
X187849557Y-54985519D01*
X187915740Y-54979000D01*
X188004260Y-54979000D01*
X188070443Y-54985519D01*
X188070443Y-54985519D01*
G37*
G36*
X185530443Y-52445519D02*
G01*
X185596627Y-52452037D01*
X185766466Y-52503557D01*
X185922991Y-52587222D01*
X185958729Y-52616552D01*
X186060186Y-52699814D01*
X186143448Y-52801271D01*
X186172778Y-52837009D01*
X186256443Y-52993534D01*
X186307963Y-53163373D01*
X186325359Y-53340000D01*
X186307963Y-53516627D01*
X186256443Y-53686466D01*
X186172778Y-53842991D01*
X186143448Y-53878729D01*
X186060186Y-53980186D01*
X185958729Y-54063448D01*
X185922991Y-54092778D01*
X185766466Y-54176443D01*
X185596627Y-54227963D01*
X185530442Y-54234482D01*
X185464260Y-54241000D01*
X185375740Y-54241000D01*
X185309558Y-54234482D01*
X185243373Y-54227963D01*
X185073534Y-54176443D01*
X184917009Y-54092778D01*
X184881271Y-54063448D01*
X184779814Y-53980186D01*
X184696552Y-53878729D01*
X184667222Y-53842991D01*
X184583557Y-53686466D01*
X184532037Y-53516627D01*
X184514641Y-53340000D01*
X184532037Y-53163373D01*
X184583557Y-52993534D01*
X184667222Y-52837009D01*
X184696552Y-52801271D01*
X184779814Y-52699814D01*
X184881271Y-52616552D01*
X184917009Y-52587222D01*
X185073534Y-52503557D01*
X185243373Y-52452037D01*
X185309558Y-52445518D01*
X185375740Y-52439000D01*
X185464260Y-52439000D01*
X185530443Y-52445519D01*
X185530443Y-52445519D01*
G37*
G36*
X188070443Y-52445519D02*
G01*
X188136627Y-52452037D01*
X188306466Y-52503557D01*
X188462991Y-52587222D01*
X188498729Y-52616552D01*
X188600186Y-52699814D01*
X188683448Y-52801271D01*
X188712778Y-52837009D01*
X188796443Y-52993534D01*
X188847963Y-53163373D01*
X188865359Y-53340000D01*
X188847963Y-53516627D01*
X188796443Y-53686466D01*
X188712778Y-53842991D01*
X188683448Y-53878729D01*
X188600186Y-53980186D01*
X188498729Y-54063448D01*
X188462991Y-54092778D01*
X188306466Y-54176443D01*
X188136627Y-54227963D01*
X188070442Y-54234482D01*
X188004260Y-54241000D01*
X187915740Y-54241000D01*
X187849558Y-54234482D01*
X187783373Y-54227963D01*
X187613534Y-54176443D01*
X187457009Y-54092778D01*
X187421271Y-54063448D01*
X187319814Y-53980186D01*
X187236552Y-53878729D01*
X187207222Y-53842991D01*
X187123557Y-53686466D01*
X187072037Y-53516627D01*
X187054641Y-53340000D01*
X187072037Y-53163373D01*
X187123557Y-52993534D01*
X187207222Y-52837009D01*
X187236552Y-52801271D01*
X187319814Y-52699814D01*
X187421271Y-52616552D01*
X187457009Y-52587222D01*
X187613534Y-52503557D01*
X187783373Y-52452037D01*
X187849558Y-52445518D01*
X187915740Y-52439000D01*
X188004260Y-52439000D01*
X188070443Y-52445519D01*
X188070443Y-52445519D01*
G37*
G36*
X188070442Y-49905518D02*
G01*
X188136627Y-49912037D01*
X188306466Y-49963557D01*
X188462991Y-50047222D01*
X188498729Y-50076552D01*
X188600186Y-50159814D01*
X188683448Y-50261271D01*
X188712778Y-50297009D01*
X188796443Y-50453534D01*
X188847963Y-50623373D01*
X188865359Y-50800000D01*
X188847963Y-50976627D01*
X188796443Y-51146466D01*
X188712778Y-51302991D01*
X188683448Y-51338729D01*
X188600186Y-51440186D01*
X188498729Y-51523448D01*
X188462991Y-51552778D01*
X188306466Y-51636443D01*
X188136627Y-51687963D01*
X188070442Y-51694482D01*
X188004260Y-51701000D01*
X187915740Y-51701000D01*
X187849558Y-51694482D01*
X187783373Y-51687963D01*
X187613534Y-51636443D01*
X187457009Y-51552778D01*
X187421271Y-51523448D01*
X187319814Y-51440186D01*
X187236552Y-51338729D01*
X187207222Y-51302991D01*
X187123557Y-51146466D01*
X187072037Y-50976627D01*
X187054641Y-50800000D01*
X187072037Y-50623373D01*
X187123557Y-50453534D01*
X187207222Y-50297009D01*
X187236552Y-50261271D01*
X187319814Y-50159814D01*
X187421271Y-50076552D01*
X187457009Y-50047222D01*
X187613534Y-49963557D01*
X187783373Y-49912037D01*
X187849557Y-49905519D01*
X187915740Y-49899000D01*
X188004260Y-49899000D01*
X188070442Y-49905518D01*
X188070442Y-49905518D01*
G37*
G36*
X185530442Y-49905518D02*
G01*
X185596627Y-49912037D01*
X185766466Y-49963557D01*
X185922991Y-50047222D01*
X185958729Y-50076552D01*
X186060186Y-50159814D01*
X186143448Y-50261271D01*
X186172778Y-50297009D01*
X186256443Y-50453534D01*
X186307963Y-50623373D01*
X186325359Y-50800000D01*
X186307963Y-50976627D01*
X186256443Y-51146466D01*
X186172778Y-51302991D01*
X186143448Y-51338729D01*
X186060186Y-51440186D01*
X185958729Y-51523448D01*
X185922991Y-51552778D01*
X185766466Y-51636443D01*
X185596627Y-51687963D01*
X185530442Y-51694482D01*
X185464260Y-51701000D01*
X185375740Y-51701000D01*
X185309558Y-51694482D01*
X185243373Y-51687963D01*
X185073534Y-51636443D01*
X184917009Y-51552778D01*
X184881271Y-51523448D01*
X184779814Y-51440186D01*
X184696552Y-51338729D01*
X184667222Y-51302991D01*
X184583557Y-51146466D01*
X184532037Y-50976627D01*
X184514641Y-50800000D01*
X184532037Y-50623373D01*
X184583557Y-50453534D01*
X184667222Y-50297009D01*
X184696552Y-50261271D01*
X184779814Y-50159814D01*
X184881271Y-50076552D01*
X184917009Y-50047222D01*
X185073534Y-49963557D01*
X185243373Y-49912037D01*
X185309557Y-49905519D01*
X185375740Y-49899000D01*
X185464260Y-49899000D01*
X185530442Y-49905518D01*
X185530442Y-49905518D01*
G37*
G36*
X185530443Y-47365519D02*
G01*
X185596627Y-47372037D01*
X185766466Y-47423557D01*
X185922991Y-47507222D01*
X185958729Y-47536552D01*
X186060186Y-47619814D01*
X186143448Y-47721271D01*
X186172778Y-47757009D01*
X186256443Y-47913534D01*
X186307963Y-48083373D01*
X186325359Y-48260000D01*
X186307963Y-48436627D01*
X186256443Y-48606466D01*
X186172778Y-48762991D01*
X186143448Y-48798729D01*
X186060186Y-48900186D01*
X185958729Y-48983448D01*
X185922991Y-49012778D01*
X185766466Y-49096443D01*
X185596627Y-49147963D01*
X185530443Y-49154481D01*
X185464260Y-49161000D01*
X185375740Y-49161000D01*
X185309557Y-49154481D01*
X185243373Y-49147963D01*
X185073534Y-49096443D01*
X184917009Y-49012778D01*
X184881271Y-48983448D01*
X184779814Y-48900186D01*
X184696552Y-48798729D01*
X184667222Y-48762991D01*
X184583557Y-48606466D01*
X184532037Y-48436627D01*
X184514641Y-48260000D01*
X184532037Y-48083373D01*
X184583557Y-47913534D01*
X184667222Y-47757009D01*
X184696552Y-47721271D01*
X184779814Y-47619814D01*
X184881271Y-47536552D01*
X184917009Y-47507222D01*
X185073534Y-47423557D01*
X185243373Y-47372037D01*
X185309557Y-47365519D01*
X185375740Y-47359000D01*
X185464260Y-47359000D01*
X185530443Y-47365519D01*
X185530443Y-47365519D01*
G37*
G36*
X188070443Y-47365519D02*
G01*
X188136627Y-47372037D01*
X188306466Y-47423557D01*
X188462991Y-47507222D01*
X188498729Y-47536552D01*
X188600186Y-47619814D01*
X188683448Y-47721271D01*
X188712778Y-47757009D01*
X188796443Y-47913534D01*
X188847963Y-48083373D01*
X188865359Y-48260000D01*
X188847963Y-48436627D01*
X188796443Y-48606466D01*
X188712778Y-48762991D01*
X188683448Y-48798729D01*
X188600186Y-48900186D01*
X188498729Y-48983448D01*
X188462991Y-49012778D01*
X188306466Y-49096443D01*
X188136627Y-49147963D01*
X188070443Y-49154481D01*
X188004260Y-49161000D01*
X187915740Y-49161000D01*
X187849557Y-49154481D01*
X187783373Y-49147963D01*
X187613534Y-49096443D01*
X187457009Y-49012778D01*
X187421271Y-48983448D01*
X187319814Y-48900186D01*
X187236552Y-48798729D01*
X187207222Y-48762991D01*
X187123557Y-48606466D01*
X187072037Y-48436627D01*
X187054641Y-48260000D01*
X187072037Y-48083373D01*
X187123557Y-47913534D01*
X187207222Y-47757009D01*
X187236552Y-47721271D01*
X187319814Y-47619814D01*
X187421271Y-47536552D01*
X187457009Y-47507222D01*
X187613534Y-47423557D01*
X187783373Y-47372037D01*
X187849557Y-47365519D01*
X187915740Y-47359000D01*
X188004260Y-47359000D01*
X188070443Y-47365519D01*
X188070443Y-47365519D01*
G37*
G36*
X188070442Y-44825518D02*
G01*
X188136627Y-44832037D01*
X188306466Y-44883557D01*
X188462991Y-44967222D01*
X188498729Y-44996552D01*
X188600186Y-45079814D01*
X188683448Y-45181271D01*
X188712778Y-45217009D01*
X188796443Y-45373534D01*
X188847963Y-45543373D01*
X188865359Y-45720000D01*
X188847963Y-45896627D01*
X188796443Y-46066466D01*
X188712778Y-46222991D01*
X188683448Y-46258729D01*
X188600186Y-46360186D01*
X188498729Y-46443448D01*
X188462991Y-46472778D01*
X188306466Y-46556443D01*
X188136627Y-46607963D01*
X188070443Y-46614481D01*
X188004260Y-46621000D01*
X187915740Y-46621000D01*
X187849558Y-46614482D01*
X187783373Y-46607963D01*
X187613534Y-46556443D01*
X187457009Y-46472778D01*
X187421271Y-46443448D01*
X187319814Y-46360186D01*
X187236552Y-46258729D01*
X187207222Y-46222991D01*
X187123557Y-46066466D01*
X187072037Y-45896627D01*
X187054641Y-45720000D01*
X187072037Y-45543373D01*
X187123557Y-45373534D01*
X187207222Y-45217009D01*
X187236552Y-45181271D01*
X187319814Y-45079814D01*
X187421271Y-44996552D01*
X187457009Y-44967222D01*
X187613534Y-44883557D01*
X187783373Y-44832037D01*
X187849558Y-44825518D01*
X187915740Y-44819000D01*
X188004260Y-44819000D01*
X188070442Y-44825518D01*
X188070442Y-44825518D01*
G37*
G36*
X185530442Y-44825518D02*
G01*
X185596627Y-44832037D01*
X185766466Y-44883557D01*
X185922991Y-44967222D01*
X185958729Y-44996552D01*
X186060186Y-45079814D01*
X186143448Y-45181271D01*
X186172778Y-45217009D01*
X186256443Y-45373534D01*
X186307963Y-45543373D01*
X186325359Y-45720000D01*
X186307963Y-45896627D01*
X186256443Y-46066466D01*
X186172778Y-46222991D01*
X186143448Y-46258729D01*
X186060186Y-46360186D01*
X185958729Y-46443448D01*
X185922991Y-46472778D01*
X185766466Y-46556443D01*
X185596627Y-46607963D01*
X185530443Y-46614481D01*
X185464260Y-46621000D01*
X185375740Y-46621000D01*
X185309558Y-46614482D01*
X185243373Y-46607963D01*
X185073534Y-46556443D01*
X184917009Y-46472778D01*
X184881271Y-46443448D01*
X184779814Y-46360186D01*
X184696552Y-46258729D01*
X184667222Y-46222991D01*
X184583557Y-46066466D01*
X184532037Y-45896627D01*
X184514641Y-45720000D01*
X184532037Y-45543373D01*
X184583557Y-45373534D01*
X184667222Y-45217009D01*
X184696552Y-45181271D01*
X184779814Y-45079814D01*
X184881271Y-44996552D01*
X184917009Y-44967222D01*
X185073534Y-44883557D01*
X185243373Y-44832037D01*
X185309558Y-44825518D01*
X185375740Y-44819000D01*
X185464260Y-44819000D01*
X185530442Y-44825518D01*
X185530442Y-44825518D01*
G37*
G36*
X185530442Y-42285518D02*
G01*
X185596627Y-42292037D01*
X185766466Y-42343557D01*
X185922991Y-42427222D01*
X185958729Y-42456552D01*
X186060186Y-42539814D01*
X186143448Y-42641271D01*
X186172778Y-42677009D01*
X186256443Y-42833534D01*
X186307963Y-43003373D01*
X186325359Y-43180000D01*
X186307963Y-43356627D01*
X186256443Y-43526466D01*
X186172778Y-43682991D01*
X186143448Y-43718729D01*
X186060186Y-43820186D01*
X185958729Y-43903448D01*
X185922991Y-43932778D01*
X185766466Y-44016443D01*
X185596627Y-44067963D01*
X185530443Y-44074481D01*
X185464260Y-44081000D01*
X185375740Y-44081000D01*
X185309557Y-44074481D01*
X185243373Y-44067963D01*
X185073534Y-44016443D01*
X184917009Y-43932778D01*
X184881271Y-43903448D01*
X184779814Y-43820186D01*
X184696552Y-43718729D01*
X184667222Y-43682991D01*
X184583557Y-43526466D01*
X184532037Y-43356627D01*
X184514641Y-43180000D01*
X184532037Y-43003373D01*
X184583557Y-42833534D01*
X184667222Y-42677009D01*
X184696552Y-42641271D01*
X184779814Y-42539814D01*
X184881271Y-42456552D01*
X184917009Y-42427222D01*
X185073534Y-42343557D01*
X185243373Y-42292037D01*
X185309557Y-42285519D01*
X185375740Y-42279000D01*
X185464260Y-42279000D01*
X185530442Y-42285518D01*
X185530442Y-42285518D01*
G37*
G36*
X188070442Y-42285518D02*
G01*
X188136627Y-42292037D01*
X188306466Y-42343557D01*
X188462991Y-42427222D01*
X188498729Y-42456552D01*
X188600186Y-42539814D01*
X188683448Y-42641271D01*
X188712778Y-42677009D01*
X188796443Y-42833534D01*
X188847963Y-43003373D01*
X188865359Y-43180000D01*
X188847963Y-43356627D01*
X188796443Y-43526466D01*
X188712778Y-43682991D01*
X188683448Y-43718729D01*
X188600186Y-43820186D01*
X188498729Y-43903448D01*
X188462991Y-43932778D01*
X188306466Y-44016443D01*
X188136627Y-44067963D01*
X188070443Y-44074481D01*
X188004260Y-44081000D01*
X187915740Y-44081000D01*
X187849557Y-44074481D01*
X187783373Y-44067963D01*
X187613534Y-44016443D01*
X187457009Y-43932778D01*
X187421271Y-43903448D01*
X187319814Y-43820186D01*
X187236552Y-43718729D01*
X187207222Y-43682991D01*
X187123557Y-43526466D01*
X187072037Y-43356627D01*
X187054641Y-43180000D01*
X187072037Y-43003373D01*
X187123557Y-42833534D01*
X187207222Y-42677009D01*
X187236552Y-42641271D01*
X187319814Y-42539814D01*
X187421271Y-42456552D01*
X187457009Y-42427222D01*
X187613534Y-42343557D01*
X187783373Y-42292037D01*
X187849557Y-42285519D01*
X187915740Y-42279000D01*
X188004260Y-42279000D01*
X188070442Y-42285518D01*
X188070442Y-42285518D01*
G37*
G36*
X117611384Y-41214349D02*
G01*
X117802653Y-41293575D01*
X117802655Y-41293576D01*
X117951121Y-41392778D01*
X117974793Y-41408595D01*
X118121185Y-41554987D01*
X118236205Y-41727127D01*
X118315431Y-41918396D01*
X118355820Y-42121444D01*
X118355820Y-42328476D01*
X118315431Y-42531524D01*
X118255169Y-42677009D01*
X118236204Y-42722795D01*
X118121185Y-42894933D01*
X117974793Y-43041325D01*
X117802655Y-43156344D01*
X117802654Y-43156345D01*
X117802653Y-43156345D01*
X117611384Y-43235571D01*
X117408336Y-43275960D01*
X117201304Y-43275960D01*
X116998256Y-43235571D01*
X116806987Y-43156345D01*
X116806986Y-43156345D01*
X116806985Y-43156344D01*
X116634847Y-43041325D01*
X116488455Y-42894933D01*
X116373436Y-42722795D01*
X116354471Y-42677009D01*
X116294209Y-42531524D01*
X116253820Y-42328476D01*
X116253820Y-42121444D01*
X116294209Y-41918396D01*
X116373435Y-41727127D01*
X116488455Y-41554987D01*
X116634847Y-41408595D01*
X116658519Y-41392778D01*
X116806985Y-41293576D01*
X116806987Y-41293575D01*
X116998256Y-41214349D01*
X117201304Y-41173960D01*
X117408336Y-41173960D01*
X117611384Y-41214349D01*
X117611384Y-41214349D01*
G37*
G36*
X188070442Y-39745518D02*
G01*
X188136627Y-39752037D01*
X188306466Y-39803557D01*
X188462991Y-39887222D01*
X188498729Y-39916552D01*
X188600186Y-39999814D01*
X188682947Y-40100660D01*
X188712778Y-40137009D01*
X188796443Y-40293534D01*
X188847963Y-40463373D01*
X188865359Y-40640000D01*
X188847963Y-40816627D01*
X188796443Y-40986466D01*
X188712778Y-41142991D01*
X188687362Y-41173960D01*
X188600186Y-41280186D01*
X188498729Y-41363448D01*
X188462991Y-41392778D01*
X188306466Y-41476443D01*
X188136627Y-41527963D01*
X188070442Y-41534482D01*
X188004260Y-41541000D01*
X187915740Y-41541000D01*
X187849558Y-41534482D01*
X187783373Y-41527963D01*
X187613534Y-41476443D01*
X187457009Y-41392778D01*
X187421271Y-41363448D01*
X187319814Y-41280186D01*
X187232638Y-41173960D01*
X187207222Y-41142991D01*
X187123557Y-40986466D01*
X187072037Y-40816627D01*
X187054641Y-40640000D01*
X187072037Y-40463373D01*
X187123557Y-40293534D01*
X187207222Y-40137009D01*
X187237053Y-40100660D01*
X187319814Y-39999814D01*
X187421271Y-39916552D01*
X187457009Y-39887222D01*
X187613534Y-39803557D01*
X187783373Y-39752037D01*
X187849557Y-39745519D01*
X187915740Y-39739000D01*
X188004260Y-39739000D01*
X188070442Y-39745518D01*
X188070442Y-39745518D01*
G37*
G36*
X186321000Y-41541000D02*
G01*
X184519000Y-41541000D01*
X184519000Y-39739000D01*
X186321000Y-39739000D01*
X186321000Y-41541000D01*
X186321000Y-41541000D01*
G37*
G36*
X116953999Y-38569737D02*
G01*
X116963608Y-38572652D01*
X116972472Y-38577390D01*
X116980237Y-38583763D01*
X116990448Y-38596206D01*
X116997378Y-38606575D01*
X117014705Y-38623902D01*
X117035080Y-38637515D01*
X117057720Y-38646891D01*
X117081753Y-38651671D01*
X117106257Y-38651670D01*
X117130290Y-38646888D01*
X117152929Y-38637510D01*
X117173302Y-38623895D01*
X117190629Y-38606568D01*
X117197558Y-38596198D01*
X117207763Y-38583763D01*
X117215528Y-38577390D01*
X117224392Y-38572652D01*
X117234001Y-38569737D01*
X117250140Y-38568148D01*
X117737861Y-38568148D01*
X117756199Y-38569954D01*
X117768450Y-38570556D01*
X117786869Y-38570556D01*
X117809149Y-38572750D01*
X117893233Y-38589476D01*
X117914660Y-38595976D01*
X117993858Y-38628780D01*
X117999303Y-38631691D01*
X117999309Y-38631693D01*
X118008169Y-38636429D01*
X118008173Y-38636432D01*
X118013614Y-38639340D01*
X118084899Y-38686971D01*
X118102204Y-38701172D01*
X118162828Y-38761796D01*
X118177029Y-38779101D01*
X118224660Y-38850386D01*
X118227568Y-38855827D01*
X118227571Y-38855831D01*
X118232307Y-38864691D01*
X118232309Y-38864697D01*
X118235220Y-38870142D01*
X118268024Y-38949340D01*
X118274524Y-38970767D01*
X118291250Y-39054851D01*
X118293444Y-39077131D01*
X118293444Y-39095550D01*
X118294046Y-39107801D01*
X118295852Y-39126139D01*
X118295852Y-39613862D01*
X118294046Y-39632199D01*
X118293444Y-39644450D01*
X118293444Y-39662869D01*
X118291250Y-39685149D01*
X118274524Y-39769233D01*
X118268024Y-39790660D01*
X118235220Y-39869858D01*
X118232309Y-39875303D01*
X118232307Y-39875309D01*
X118227571Y-39884169D01*
X118227568Y-39884173D01*
X118224660Y-39889614D01*
X118177029Y-39960899D01*
X118162828Y-39978204D01*
X118102204Y-40038828D01*
X118084899Y-40053029D01*
X118013614Y-40100660D01*
X118008173Y-40103568D01*
X118008169Y-40103571D01*
X117999309Y-40108307D01*
X117999303Y-40108309D01*
X117993858Y-40111220D01*
X117914660Y-40144024D01*
X117893233Y-40150524D01*
X117809149Y-40167250D01*
X117786869Y-40169444D01*
X117768450Y-40169444D01*
X117756199Y-40170046D01*
X117737862Y-40171852D01*
X117250140Y-40171852D01*
X117234001Y-40170263D01*
X117224392Y-40167348D01*
X117215528Y-40162610D01*
X117207763Y-40156237D01*
X117197552Y-40143794D01*
X117190622Y-40133425D01*
X117173295Y-40116098D01*
X117152920Y-40102485D01*
X117130280Y-40093109D01*
X117106247Y-40088329D01*
X117081743Y-40088330D01*
X117057710Y-40093112D01*
X117035071Y-40102490D01*
X117014698Y-40116105D01*
X116997371Y-40133432D01*
X116990442Y-40143802D01*
X116980237Y-40156237D01*
X116972472Y-40162610D01*
X116963608Y-40167348D01*
X116953999Y-40170263D01*
X116937860Y-40171852D01*
X116450138Y-40171852D01*
X116431801Y-40170046D01*
X116419550Y-40169444D01*
X116401131Y-40169444D01*
X116378851Y-40167250D01*
X116294767Y-40150524D01*
X116273340Y-40144024D01*
X116194142Y-40111220D01*
X116188697Y-40108309D01*
X116188691Y-40108307D01*
X116179831Y-40103571D01*
X116179827Y-40103568D01*
X116174386Y-40100660D01*
X116103101Y-40053029D01*
X116085796Y-40038828D01*
X116025172Y-39978204D01*
X116010971Y-39960899D01*
X115963340Y-39889614D01*
X115960432Y-39884173D01*
X115960429Y-39884169D01*
X115955693Y-39875309D01*
X115955691Y-39875303D01*
X115952780Y-39869858D01*
X115919976Y-39790660D01*
X115913476Y-39769233D01*
X115896750Y-39685149D01*
X115894556Y-39662869D01*
X115894556Y-39644450D01*
X115893954Y-39632199D01*
X115892148Y-39613862D01*
X115892148Y-39126139D01*
X115893954Y-39107801D01*
X115894556Y-39095550D01*
X115894556Y-39077131D01*
X115896750Y-39054851D01*
X115913476Y-38970767D01*
X115919976Y-38949340D01*
X115952780Y-38870142D01*
X115955691Y-38864697D01*
X115955693Y-38864691D01*
X115960429Y-38855831D01*
X115960432Y-38855827D01*
X115963340Y-38850386D01*
X116010971Y-38779101D01*
X116025172Y-38761796D01*
X116085796Y-38701172D01*
X116103101Y-38686971D01*
X116174386Y-38639340D01*
X116179827Y-38636432D01*
X116179831Y-38636429D01*
X116188691Y-38631693D01*
X116188697Y-38631691D01*
X116194142Y-38628780D01*
X116273340Y-38595976D01*
X116294767Y-38589476D01*
X116378851Y-38572750D01*
X116401131Y-38570556D01*
X116419550Y-38570556D01*
X116431801Y-38569954D01*
X116450139Y-38568148D01*
X116937860Y-38568148D01*
X116953999Y-38569737D01*
X116953999Y-38569737D01*
G37*
G36*
X177412602Y-38340898D02*
G01*
X177478787Y-38347417D01*
X177648626Y-38398937D01*
X177805151Y-38482602D01*
X177840889Y-38511932D01*
X177942346Y-38595194D01*
X177994545Y-38658800D01*
X178054938Y-38732389D01*
X178138603Y-38888914D01*
X178190123Y-39058753D01*
X178207519Y-39235380D01*
X178190123Y-39412007D01*
X178138603Y-39581846D01*
X178054938Y-39738371D01*
X178029610Y-39769233D01*
X177942346Y-39875566D01*
X177840889Y-39958828D01*
X177805151Y-39988158D01*
X177648626Y-40071823D01*
X177478787Y-40123343D01*
X177412603Y-40129861D01*
X177346420Y-40136380D01*
X177257900Y-40136380D01*
X177191718Y-40129862D01*
X177125533Y-40123343D01*
X176955694Y-40071823D01*
X176799169Y-39988158D01*
X176763431Y-39958828D01*
X176661974Y-39875566D01*
X176574710Y-39769233D01*
X176549382Y-39738371D01*
X176465717Y-39581846D01*
X176414197Y-39412007D01*
X176396801Y-39235380D01*
X176414197Y-39058753D01*
X176465717Y-38888914D01*
X176549382Y-38732389D01*
X176609775Y-38658800D01*
X176661974Y-38595194D01*
X176763431Y-38511932D01*
X176799169Y-38482602D01*
X176955694Y-38398937D01*
X177125533Y-38347417D01*
X177191718Y-38340898D01*
X177257900Y-38334380D01*
X177346420Y-38334380D01*
X177412602Y-38340898D01*
X177412602Y-38340898D01*
G37*
G36*
X174872602Y-38340898D02*
G01*
X174938787Y-38347417D01*
X175108626Y-38398937D01*
X175265151Y-38482602D01*
X175300889Y-38511932D01*
X175402346Y-38595194D01*
X175454545Y-38658800D01*
X175514938Y-38732389D01*
X175598603Y-38888914D01*
X175650123Y-39058753D01*
X175667519Y-39235380D01*
X175650123Y-39412007D01*
X175598603Y-39581846D01*
X175514938Y-39738371D01*
X175489610Y-39769233D01*
X175402346Y-39875566D01*
X175300889Y-39958828D01*
X175265151Y-39988158D01*
X175108626Y-40071823D01*
X174938787Y-40123343D01*
X174872603Y-40129861D01*
X174806420Y-40136380D01*
X174717900Y-40136380D01*
X174651718Y-40129862D01*
X174585533Y-40123343D01*
X174415694Y-40071823D01*
X174259169Y-39988158D01*
X174223431Y-39958828D01*
X174121974Y-39875566D01*
X174034710Y-39769233D01*
X174009382Y-39738371D01*
X173925717Y-39581846D01*
X173874197Y-39412007D01*
X173856801Y-39235380D01*
X173874197Y-39058753D01*
X173925717Y-38888914D01*
X174009382Y-38732389D01*
X174069775Y-38658800D01*
X174121974Y-38595194D01*
X174223431Y-38511932D01*
X174259169Y-38482602D01*
X174415694Y-38398937D01*
X174585533Y-38347417D01*
X174651718Y-38340898D01*
X174717900Y-38334380D01*
X174806420Y-38334380D01*
X174872602Y-38340898D01*
X174872602Y-38340898D01*
G37*
G36*
X104593342Y-37764318D02*
G01*
X104659527Y-37770837D01*
X104829366Y-37822357D01*
X104985891Y-37906022D01*
X105021629Y-37935352D01*
X105123086Y-38018614D01*
X105206348Y-38120071D01*
X105235678Y-38155809D01*
X105319343Y-38312334D01*
X105370863Y-38482173D01*
X105388259Y-38658800D01*
X105370863Y-38835427D01*
X105319343Y-39005266D01*
X105235678Y-39161791D01*
X105206348Y-39197529D01*
X105123086Y-39298986D01*
X105021629Y-39382248D01*
X104985891Y-39411578D01*
X104829366Y-39495243D01*
X104659527Y-39546763D01*
X104593342Y-39553282D01*
X104527160Y-39559800D01*
X104438640Y-39559800D01*
X104372458Y-39553282D01*
X104306273Y-39546763D01*
X104136434Y-39495243D01*
X103979909Y-39411578D01*
X103944171Y-39382248D01*
X103842714Y-39298986D01*
X103759452Y-39197529D01*
X103730122Y-39161791D01*
X103646457Y-39005266D01*
X103594937Y-38835427D01*
X103577541Y-38658800D01*
X103594937Y-38482173D01*
X103646457Y-38312334D01*
X103730122Y-38155809D01*
X103759452Y-38120071D01*
X103842714Y-38018614D01*
X103944171Y-37935352D01*
X103979909Y-37906022D01*
X104136434Y-37822357D01*
X104306273Y-37770837D01*
X104372458Y-37764318D01*
X104438640Y-37757800D01*
X104527160Y-37757800D01*
X104593342Y-37764318D01*
X104593342Y-37764318D01*
G37*
G36*
X102843900Y-39559800D02*
G01*
X101041900Y-39559800D01*
X101041900Y-37757800D01*
X102843900Y-37757800D01*
X102843900Y-39559800D01*
X102843900Y-39559800D01*
G37*
G36*
X75972405Y-34182500D02*
G01*
X75972408Y-34182501D01*
X75972409Y-34182501D01*
X76151673Y-34236880D01*
X76151676Y-34236882D01*
X76151677Y-34236882D01*
X76316883Y-34325186D01*
X76461692Y-34444028D01*
X76580534Y-34588837D01*
X76641245Y-34702420D01*
X76668840Y-34754047D01*
X76679610Y-34789552D01*
X76723220Y-34933315D01*
X76736980Y-35073022D01*
X76736980Y-36966458D01*
X76723220Y-37106165D01*
X76723219Y-37106168D01*
X76723219Y-37106169D01*
X76668840Y-37285433D01*
X76668838Y-37285436D01*
X76668838Y-37285437D01*
X76580534Y-37450643D01*
X76461692Y-37595452D01*
X76316883Y-37714294D01*
X76151676Y-37802598D01*
X76151672Y-37802600D01*
X75972408Y-37856979D01*
X75972407Y-37856979D01*
X75972404Y-37856980D01*
X75785980Y-37875341D01*
X75599555Y-37856980D01*
X75599552Y-37856979D01*
X75599551Y-37856979D01*
X75420287Y-37802600D01*
X75420283Y-37802598D01*
X75255077Y-37714294D01*
X75110268Y-37595452D01*
X74991426Y-37450643D01*
X74903122Y-37285436D01*
X74903121Y-37285433D01*
X74903120Y-37285432D01*
X74848741Y-37106168D01*
X74848741Y-37106167D01*
X74848740Y-37106164D01*
X74834980Y-36966457D01*
X74834980Y-35073023D01*
X74848741Y-34933315D01*
X74892351Y-34789552D01*
X74903121Y-34754047D01*
X74930716Y-34702420D01*
X74991427Y-34588837D01*
X75110269Y-34444028D01*
X75255078Y-34325186D01*
X75420284Y-34236882D01*
X75420285Y-34236882D01*
X75420288Y-34236880D01*
X75599552Y-34182501D01*
X75599553Y-34182501D01*
X75599556Y-34182500D01*
X75785980Y-34164139D01*
X75972405Y-34182500D01*
X75972405Y-34182500D01*
G37*
G36*
X81052405Y-34182500D02*
G01*
X81052408Y-34182501D01*
X81052409Y-34182501D01*
X81231673Y-34236880D01*
X81231676Y-34236882D01*
X81231677Y-34236882D01*
X81396883Y-34325186D01*
X81541692Y-34444028D01*
X81660534Y-34588837D01*
X81721245Y-34702420D01*
X81748840Y-34754047D01*
X81759610Y-34789552D01*
X81803220Y-34933315D01*
X81816980Y-35073022D01*
X81816980Y-36966458D01*
X81803220Y-37106165D01*
X81803219Y-37106168D01*
X81803219Y-37106169D01*
X81748840Y-37285433D01*
X81748838Y-37285436D01*
X81748838Y-37285437D01*
X81660534Y-37450643D01*
X81541692Y-37595452D01*
X81396883Y-37714294D01*
X81231676Y-37802598D01*
X81231672Y-37802600D01*
X81052408Y-37856979D01*
X81052407Y-37856979D01*
X81052404Y-37856980D01*
X80865980Y-37875341D01*
X80679555Y-37856980D01*
X80679552Y-37856979D01*
X80679551Y-37856979D01*
X80500287Y-37802600D01*
X80500283Y-37802598D01*
X80335077Y-37714294D01*
X80190268Y-37595452D01*
X80071426Y-37450643D01*
X79983122Y-37285436D01*
X79983121Y-37285433D01*
X79983120Y-37285432D01*
X79928741Y-37106168D01*
X79928741Y-37106167D01*
X79928740Y-37106164D01*
X79914980Y-36966457D01*
X79914980Y-35073023D01*
X79928741Y-34933315D01*
X79972351Y-34789552D01*
X79983121Y-34754047D01*
X80010716Y-34702420D01*
X80071427Y-34588837D01*
X80190269Y-34444028D01*
X80335078Y-34325186D01*
X80500284Y-34236882D01*
X80500285Y-34236882D01*
X80500288Y-34236880D01*
X80679552Y-34182501D01*
X80679553Y-34182501D01*
X80679556Y-34182500D01*
X80865980Y-34164139D01*
X81052405Y-34182500D01*
X81052405Y-34182500D01*
G37*
G36*
X91212405Y-34182500D02*
G01*
X91212408Y-34182501D01*
X91212409Y-34182501D01*
X91391673Y-34236880D01*
X91391676Y-34236882D01*
X91391677Y-34236882D01*
X91556883Y-34325186D01*
X91701692Y-34444028D01*
X91820534Y-34588837D01*
X91881245Y-34702420D01*
X91908840Y-34754047D01*
X91919610Y-34789552D01*
X91963220Y-34933315D01*
X91976980Y-35073022D01*
X91976980Y-36966458D01*
X91963220Y-37106165D01*
X91963219Y-37106168D01*
X91963219Y-37106169D01*
X91908840Y-37285433D01*
X91908838Y-37285436D01*
X91908838Y-37285437D01*
X91820534Y-37450643D01*
X91701692Y-37595452D01*
X91556883Y-37714294D01*
X91391676Y-37802598D01*
X91391672Y-37802600D01*
X91212408Y-37856979D01*
X91212407Y-37856979D01*
X91212404Y-37856980D01*
X91025980Y-37875341D01*
X90839555Y-37856980D01*
X90839552Y-37856979D01*
X90839551Y-37856979D01*
X90660287Y-37802600D01*
X90660283Y-37802598D01*
X90495077Y-37714294D01*
X90350268Y-37595452D01*
X90231426Y-37450643D01*
X90143122Y-37285436D01*
X90143121Y-37285433D01*
X90143120Y-37285432D01*
X90088741Y-37106168D01*
X90088741Y-37106167D01*
X90088740Y-37106164D01*
X90074980Y-36966457D01*
X90074980Y-35073023D01*
X90088741Y-34933315D01*
X90132351Y-34789552D01*
X90143121Y-34754047D01*
X90170716Y-34702420D01*
X90231427Y-34588837D01*
X90350269Y-34444028D01*
X90495078Y-34325186D01*
X90660284Y-34236882D01*
X90660285Y-34236882D01*
X90660288Y-34236880D01*
X90839552Y-34182501D01*
X90839553Y-34182501D01*
X90839556Y-34182500D01*
X91025980Y-34164139D01*
X91212405Y-34182500D01*
X91212405Y-34182500D01*
G37*
G36*
X86132405Y-34182500D02*
G01*
X86132408Y-34182501D01*
X86132409Y-34182501D01*
X86311673Y-34236880D01*
X86311676Y-34236882D01*
X86311677Y-34236882D01*
X86476883Y-34325186D01*
X86621692Y-34444028D01*
X86740534Y-34588837D01*
X86801245Y-34702420D01*
X86828840Y-34754047D01*
X86839610Y-34789552D01*
X86883220Y-34933315D01*
X86896980Y-35073022D01*
X86896980Y-36966458D01*
X86883220Y-37106165D01*
X86883219Y-37106168D01*
X86883219Y-37106169D01*
X86828840Y-37285433D01*
X86828838Y-37285436D01*
X86828838Y-37285437D01*
X86740534Y-37450643D01*
X86621692Y-37595452D01*
X86476883Y-37714294D01*
X86311676Y-37802598D01*
X86311672Y-37802600D01*
X86132408Y-37856979D01*
X86132407Y-37856979D01*
X86132404Y-37856980D01*
X85945980Y-37875341D01*
X85759555Y-37856980D01*
X85759552Y-37856979D01*
X85759551Y-37856979D01*
X85580287Y-37802600D01*
X85580283Y-37802598D01*
X85415077Y-37714294D01*
X85270268Y-37595452D01*
X85151426Y-37450643D01*
X85063122Y-37285436D01*
X85063121Y-37285433D01*
X85063120Y-37285432D01*
X85008741Y-37106168D01*
X85008741Y-37106167D01*
X85008740Y-37106164D01*
X84994980Y-36966457D01*
X84994980Y-35073023D01*
X85008741Y-34933315D01*
X85052351Y-34789552D01*
X85063121Y-34754047D01*
X85090716Y-34702420D01*
X85151427Y-34588837D01*
X85270269Y-34444028D01*
X85415078Y-34325186D01*
X85580284Y-34236882D01*
X85580285Y-34236882D01*
X85580288Y-34236880D01*
X85759552Y-34182501D01*
X85759553Y-34182501D01*
X85759556Y-34182500D01*
X85945980Y-34164139D01*
X86132405Y-34182500D01*
X86132405Y-34182500D01*
G37*
G36*
X70892405Y-34182500D02*
G01*
X70892408Y-34182501D01*
X70892409Y-34182501D01*
X71071673Y-34236880D01*
X71071676Y-34236882D01*
X71071677Y-34236882D01*
X71236883Y-34325186D01*
X71381692Y-34444028D01*
X71500534Y-34588837D01*
X71561245Y-34702420D01*
X71588840Y-34754047D01*
X71599610Y-34789552D01*
X71643220Y-34933315D01*
X71656980Y-35073022D01*
X71656980Y-36966458D01*
X71643220Y-37106165D01*
X71643219Y-37106168D01*
X71643219Y-37106169D01*
X71588840Y-37285433D01*
X71588838Y-37285436D01*
X71588838Y-37285437D01*
X71500534Y-37450643D01*
X71381692Y-37595452D01*
X71236883Y-37714294D01*
X71071676Y-37802598D01*
X71071672Y-37802600D01*
X70892408Y-37856979D01*
X70892407Y-37856979D01*
X70892404Y-37856980D01*
X70705980Y-37875341D01*
X70519555Y-37856980D01*
X70519552Y-37856979D01*
X70519551Y-37856979D01*
X70340287Y-37802600D01*
X70340283Y-37802598D01*
X70175077Y-37714294D01*
X70030268Y-37595452D01*
X69911426Y-37450643D01*
X69823122Y-37285436D01*
X69823121Y-37285433D01*
X69823120Y-37285432D01*
X69768741Y-37106168D01*
X69768741Y-37106167D01*
X69768740Y-37106164D01*
X69754980Y-36966457D01*
X69754980Y-35073023D01*
X69768741Y-34933315D01*
X69812351Y-34789552D01*
X69823121Y-34754047D01*
X69850716Y-34702420D01*
X69911427Y-34588837D01*
X70030269Y-34444028D01*
X70175078Y-34325186D01*
X70340284Y-34236882D01*
X70340285Y-34236882D01*
X70340288Y-34236880D01*
X70519552Y-34182501D01*
X70519553Y-34182501D01*
X70519556Y-34182500D01*
X70705980Y-34164139D01*
X70892405Y-34182500D01*
X70892405Y-34182500D01*
G37*
G36*
X97056980Y-37870740D02*
G01*
X95154980Y-37870740D01*
X95154980Y-34168740D01*
X97056980Y-34168740D01*
X97056980Y-37870740D01*
X97056980Y-37870740D01*
G37*
G36*
X178203160Y-37596380D02*
G01*
X176401160Y-37596380D01*
X176401160Y-35794380D01*
X178203160Y-35794380D01*
X178203160Y-37596380D01*
X178203160Y-37596380D01*
G37*
G36*
X174872603Y-35800899D02*
G01*
X174938787Y-35807417D01*
X175108626Y-35858937D01*
X175265151Y-35942602D01*
X175300889Y-35971932D01*
X175402346Y-36055194D01*
X175485608Y-36156651D01*
X175514938Y-36192389D01*
X175598603Y-36348914D01*
X175650123Y-36518753D01*
X175667519Y-36695380D01*
X175650123Y-36872007D01*
X175598603Y-37041846D01*
X175514938Y-37198371D01*
X175485608Y-37234109D01*
X175402346Y-37335566D01*
X175300889Y-37418828D01*
X175265151Y-37448158D01*
X175108626Y-37531823D01*
X174938787Y-37583343D01*
X174872603Y-37589861D01*
X174806420Y-37596380D01*
X174717900Y-37596380D01*
X174651717Y-37589861D01*
X174585533Y-37583343D01*
X174415694Y-37531823D01*
X174259169Y-37448158D01*
X174223431Y-37418828D01*
X174121974Y-37335566D01*
X174038712Y-37234109D01*
X174009382Y-37198371D01*
X173925717Y-37041846D01*
X173874197Y-36872007D01*
X173856801Y-36695380D01*
X173874197Y-36518753D01*
X173925717Y-36348914D01*
X174009382Y-36192389D01*
X174038712Y-36156651D01*
X174121974Y-36055194D01*
X174223431Y-35971932D01*
X174259169Y-35942602D01*
X174415694Y-35858937D01*
X174585533Y-35807417D01*
X174651718Y-35800898D01*
X174717900Y-35794380D01*
X174806420Y-35794380D01*
X174872603Y-35800899D01*
X174872603Y-35800899D01*
G37*
G36*
X190626239Y-29069467D02*
G01*
X190940282Y-29131934D01*
X191531926Y-29377001D01*
X191930856Y-29643558D01*
X192056067Y-29727221D01*
X192064392Y-29732784D01*
X192517216Y-30185608D01*
X192872999Y-30718074D01*
X193118066Y-31309718D01*
X193167446Y-31557970D01*
X193243000Y-31937803D01*
X193243000Y-32578197D01*
X193200591Y-32791400D01*
X193118066Y-33206282D01*
X192872999Y-33797926D01*
X192616034Y-34182500D01*
X192579698Y-34236882D01*
X192517216Y-34330392D01*
X192064392Y-34783216D01*
X191531926Y-35138999D01*
X190940282Y-35384066D01*
X190626239Y-35446533D01*
X190312197Y-35509000D01*
X189671803Y-35509000D01*
X189357761Y-35446533D01*
X189043718Y-35384066D01*
X188452074Y-35138999D01*
X187919608Y-34783216D01*
X187466784Y-34330392D01*
X187404303Y-34236882D01*
X187367966Y-34182500D01*
X187111001Y-33797926D01*
X186865934Y-33206282D01*
X186783409Y-32791400D01*
X186741000Y-32578197D01*
X186741000Y-31937803D01*
X186816554Y-31557970D01*
X186865934Y-31309718D01*
X187111001Y-30718074D01*
X187466784Y-30185608D01*
X187919608Y-29732784D01*
X187927934Y-29727221D01*
X188053144Y-29643558D01*
X188452074Y-29377001D01*
X189043718Y-29131934D01*
X189357761Y-29069467D01*
X189671803Y-29007000D01*
X190312197Y-29007000D01*
X190626239Y-29069467D01*
X190626239Y-29069467D01*
G37*
G36*
X63626239Y-29069467D02*
G01*
X63940282Y-29131934D01*
X64531926Y-29377001D01*
X64930856Y-29643558D01*
X65056067Y-29727221D01*
X65064392Y-29732784D01*
X65517216Y-30185608D01*
X65872999Y-30718074D01*
X66118066Y-31309718D01*
X66167446Y-31557970D01*
X66243000Y-31937803D01*
X66243000Y-32578197D01*
X66200591Y-32791400D01*
X66118066Y-33206282D01*
X65872999Y-33797926D01*
X65616034Y-34182500D01*
X65579698Y-34236882D01*
X65517216Y-34330392D01*
X65064392Y-34783216D01*
X64531926Y-35138999D01*
X63940282Y-35384066D01*
X63626239Y-35446533D01*
X63312197Y-35509000D01*
X62671803Y-35509000D01*
X62357761Y-35446533D01*
X62043718Y-35384066D01*
X61452074Y-35138999D01*
X60919608Y-34783216D01*
X60466784Y-34330392D01*
X60404303Y-34236882D01*
X60367966Y-34182500D01*
X60111001Y-33797926D01*
X59865934Y-33206282D01*
X59783409Y-32791400D01*
X59741000Y-32578197D01*
X59741000Y-31937803D01*
X59816554Y-31557970D01*
X59865934Y-31309718D01*
X60111001Y-30718074D01*
X60466784Y-30185608D01*
X60919608Y-29732784D01*
X60927934Y-29727221D01*
X61053144Y-29643558D01*
X61452074Y-29377001D01*
X62043718Y-29131934D01*
X62357761Y-29069467D01*
X62671803Y-29007000D01*
X63312197Y-29007000D01*
X63626239Y-29069467D01*
X63626239Y-29069467D01*
G37*
G36*
X114315955Y-32377836D02*
G01*
X114422310Y-32398991D01*
X114622680Y-32481987D01*
X114803004Y-32602475D01*
X114956365Y-32755836D01*
X115076853Y-32936160D01*
X115118351Y-33036346D01*
X115159849Y-33136530D01*
X115171803Y-33196625D01*
X115202160Y-33349240D01*
X115202160Y-33566120D01*
X115183449Y-33660185D01*
X115161053Y-33772779D01*
X115159849Y-33778829D01*
X115076853Y-33979200D01*
X114956365Y-34159524D01*
X114803004Y-34312885D01*
X114622680Y-34433373D01*
X114596956Y-34444028D01*
X114422310Y-34516369D01*
X114315954Y-34537525D01*
X114209600Y-34558680D01*
X113992720Y-34558680D01*
X113886366Y-34537525D01*
X113780010Y-34516369D01*
X113605364Y-34444028D01*
X113579640Y-34433373D01*
X113399316Y-34312885D01*
X113245955Y-34159524D01*
X113125467Y-33979200D01*
X113042471Y-33778829D01*
X113041268Y-33772779D01*
X113018871Y-33660185D01*
X113000160Y-33566120D01*
X113000160Y-33349240D01*
X113030517Y-33196625D01*
X113042471Y-33136530D01*
X113083969Y-33036346D01*
X113125467Y-32936160D01*
X113245955Y-32755836D01*
X113399316Y-32602475D01*
X113579640Y-32481987D01*
X113780010Y-32398991D01*
X113886365Y-32377836D01*
X113992720Y-32356680D01*
X114209600Y-32356680D01*
X114315955Y-32377836D01*
X114315955Y-32377836D01*
G37*
G36*
X107305955Y-32377836D02*
G01*
X107412310Y-32398991D01*
X107612680Y-32481987D01*
X107793004Y-32602475D01*
X107946365Y-32755836D01*
X108066853Y-32936160D01*
X108108351Y-33036346D01*
X108149849Y-33136530D01*
X108161803Y-33196625D01*
X108192160Y-33349240D01*
X108192160Y-33566120D01*
X108173449Y-33660185D01*
X108151053Y-33772779D01*
X108149849Y-33778829D01*
X108066853Y-33979200D01*
X107946365Y-34159524D01*
X107793004Y-34312885D01*
X107612680Y-34433373D01*
X107586956Y-34444028D01*
X107412310Y-34516369D01*
X107305954Y-34537525D01*
X107199600Y-34558680D01*
X106982720Y-34558680D01*
X106876366Y-34537525D01*
X106770010Y-34516369D01*
X106595364Y-34444028D01*
X106569640Y-34433373D01*
X106389316Y-34312885D01*
X106235955Y-34159524D01*
X106115467Y-33979200D01*
X106032471Y-33778829D01*
X106031268Y-33772779D01*
X106008871Y-33660185D01*
X105990160Y-33566120D01*
X105990160Y-33349240D01*
X106020517Y-33196625D01*
X106032471Y-33136530D01*
X106073969Y-33036346D01*
X106115467Y-32936160D01*
X106235955Y-32755836D01*
X106389316Y-32602475D01*
X106569640Y-32481987D01*
X106770010Y-32398991D01*
X106876365Y-32377836D01*
X106982720Y-32356680D01*
X107199600Y-32356680D01*
X107305955Y-32377836D01*
X107305955Y-32377836D01*
G37*
G36*
X119490443Y-32125519D02*
G01*
X119556627Y-32132037D01*
X119726466Y-32183557D01*
X119882991Y-32267222D01*
X119918729Y-32296552D01*
X120020186Y-32379814D01*
X120096132Y-32472356D01*
X120132778Y-32517009D01*
X120132779Y-32517011D01*
X120210752Y-32662886D01*
X120216443Y-32673534D01*
X120267963Y-32843373D01*
X120285359Y-33020000D01*
X120267963Y-33196627D01*
X120216443Y-33366466D01*
X120132778Y-33522991D01*
X120106193Y-33555385D01*
X120020186Y-33660186D01*
X119921192Y-33741427D01*
X119882991Y-33772778D01*
X119726466Y-33856443D01*
X119556627Y-33907963D01*
X119490443Y-33914481D01*
X119424260Y-33921000D01*
X119335740Y-33921000D01*
X119269557Y-33914481D01*
X119203373Y-33907963D01*
X119033534Y-33856443D01*
X118877009Y-33772778D01*
X118838808Y-33741427D01*
X118739814Y-33660186D01*
X118653807Y-33555385D01*
X118627222Y-33522991D01*
X118543557Y-33366466D01*
X118492037Y-33196627D01*
X118474641Y-33020000D01*
X118492037Y-32843373D01*
X118543557Y-32673534D01*
X118549249Y-32662886D01*
X118627221Y-32517011D01*
X118627222Y-32517009D01*
X118663868Y-32472356D01*
X118739814Y-32379814D01*
X118841271Y-32296552D01*
X118877009Y-32267222D01*
X119033534Y-32183557D01*
X119203373Y-32132037D01*
X119269557Y-32125519D01*
X119335740Y-32119000D01*
X119424260Y-32119000D01*
X119490443Y-32125519D01*
X119490443Y-32125519D01*
G37*
G36*
X144890443Y-32125519D02*
G01*
X144956627Y-32132037D01*
X145126466Y-32183557D01*
X145282991Y-32267222D01*
X145318729Y-32296552D01*
X145420186Y-32379814D01*
X145496132Y-32472356D01*
X145532778Y-32517009D01*
X145532779Y-32517011D01*
X145610752Y-32662886D01*
X145616443Y-32673534D01*
X145667963Y-32843373D01*
X145685359Y-33020000D01*
X145667963Y-33196627D01*
X145616443Y-33366466D01*
X145532778Y-33522991D01*
X145506193Y-33555385D01*
X145420186Y-33660186D01*
X145321192Y-33741427D01*
X145282991Y-33772778D01*
X145126466Y-33856443D01*
X144956627Y-33907963D01*
X144890443Y-33914481D01*
X144824260Y-33921000D01*
X144735740Y-33921000D01*
X144669557Y-33914481D01*
X144603373Y-33907963D01*
X144433534Y-33856443D01*
X144277009Y-33772778D01*
X144238808Y-33741427D01*
X144139814Y-33660186D01*
X144053807Y-33555385D01*
X144027222Y-33522991D01*
X143943557Y-33366466D01*
X143892037Y-33196627D01*
X143874641Y-33020000D01*
X143892037Y-32843373D01*
X143943557Y-32673534D01*
X143949249Y-32662886D01*
X144027221Y-32517011D01*
X144027222Y-32517009D01*
X144063868Y-32472356D01*
X144139814Y-32379814D01*
X144241271Y-32296552D01*
X144277009Y-32267222D01*
X144433534Y-32183557D01*
X144603373Y-32132037D01*
X144669557Y-32125519D01*
X144735740Y-32119000D01*
X144824260Y-32119000D01*
X144890443Y-32125519D01*
X144890443Y-32125519D01*
G37*
G36*
X142350443Y-32125519D02*
G01*
X142416627Y-32132037D01*
X142586466Y-32183557D01*
X142742991Y-32267222D01*
X142778729Y-32296552D01*
X142880186Y-32379814D01*
X142956132Y-32472356D01*
X142992778Y-32517009D01*
X142992779Y-32517011D01*
X143070752Y-32662886D01*
X143076443Y-32673534D01*
X143127963Y-32843373D01*
X143145359Y-33020000D01*
X143127963Y-33196627D01*
X143076443Y-33366466D01*
X142992778Y-33522991D01*
X142966193Y-33555385D01*
X142880186Y-33660186D01*
X142781192Y-33741427D01*
X142742991Y-33772778D01*
X142586466Y-33856443D01*
X142416627Y-33907963D01*
X142350443Y-33914481D01*
X142284260Y-33921000D01*
X142195740Y-33921000D01*
X142129557Y-33914481D01*
X142063373Y-33907963D01*
X141893534Y-33856443D01*
X141737009Y-33772778D01*
X141698808Y-33741427D01*
X141599814Y-33660186D01*
X141513807Y-33555385D01*
X141487222Y-33522991D01*
X141403557Y-33366466D01*
X141352037Y-33196627D01*
X141334641Y-33020000D01*
X141352037Y-32843373D01*
X141403557Y-32673534D01*
X141409249Y-32662886D01*
X141487221Y-32517011D01*
X141487222Y-32517009D01*
X141523868Y-32472356D01*
X141599814Y-32379814D01*
X141701271Y-32296552D01*
X141737009Y-32267222D01*
X141893534Y-32183557D01*
X142063373Y-32132037D01*
X142129557Y-32125519D01*
X142195740Y-32119000D01*
X142284260Y-32119000D01*
X142350443Y-32125519D01*
X142350443Y-32125519D01*
G37*
G36*
X139810443Y-32125519D02*
G01*
X139876627Y-32132037D01*
X140046466Y-32183557D01*
X140202991Y-32267222D01*
X140238729Y-32296552D01*
X140340186Y-32379814D01*
X140416132Y-32472356D01*
X140452778Y-32517009D01*
X140452779Y-32517011D01*
X140530752Y-32662886D01*
X140536443Y-32673534D01*
X140587963Y-32843373D01*
X140605359Y-33020000D01*
X140587963Y-33196627D01*
X140536443Y-33366466D01*
X140452778Y-33522991D01*
X140426193Y-33555385D01*
X140340186Y-33660186D01*
X140241192Y-33741427D01*
X140202991Y-33772778D01*
X140046466Y-33856443D01*
X139876627Y-33907963D01*
X139810443Y-33914481D01*
X139744260Y-33921000D01*
X139655740Y-33921000D01*
X139589557Y-33914481D01*
X139523373Y-33907963D01*
X139353534Y-33856443D01*
X139197009Y-33772778D01*
X139158808Y-33741427D01*
X139059814Y-33660186D01*
X138973807Y-33555385D01*
X138947222Y-33522991D01*
X138863557Y-33366466D01*
X138812037Y-33196627D01*
X138794641Y-33020000D01*
X138812037Y-32843373D01*
X138863557Y-32673534D01*
X138869249Y-32662886D01*
X138947221Y-32517011D01*
X138947222Y-32517009D01*
X138983868Y-32472356D01*
X139059814Y-32379814D01*
X139161271Y-32296552D01*
X139197009Y-32267222D01*
X139353534Y-32183557D01*
X139523373Y-32132037D01*
X139589557Y-32125519D01*
X139655740Y-32119000D01*
X139744260Y-32119000D01*
X139810443Y-32125519D01*
X139810443Y-32125519D01*
G37*
G36*
X137270443Y-32125519D02*
G01*
X137336627Y-32132037D01*
X137506466Y-32183557D01*
X137662991Y-32267222D01*
X137698729Y-32296552D01*
X137800186Y-32379814D01*
X137876132Y-32472356D01*
X137912778Y-32517009D01*
X137912779Y-32517011D01*
X137990752Y-32662886D01*
X137996443Y-32673534D01*
X138047963Y-32843373D01*
X138065359Y-33020000D01*
X138047963Y-33196627D01*
X137996443Y-33366466D01*
X137912778Y-33522991D01*
X137886193Y-33555385D01*
X137800186Y-33660186D01*
X137701192Y-33741427D01*
X137662991Y-33772778D01*
X137506466Y-33856443D01*
X137336627Y-33907963D01*
X137270443Y-33914481D01*
X137204260Y-33921000D01*
X137115740Y-33921000D01*
X137049557Y-33914481D01*
X136983373Y-33907963D01*
X136813534Y-33856443D01*
X136657009Y-33772778D01*
X136618808Y-33741427D01*
X136519814Y-33660186D01*
X136433807Y-33555385D01*
X136407222Y-33522991D01*
X136323557Y-33366466D01*
X136272037Y-33196627D01*
X136254641Y-33020000D01*
X136272037Y-32843373D01*
X136323557Y-32673534D01*
X136329249Y-32662886D01*
X136407221Y-32517011D01*
X136407222Y-32517009D01*
X136443868Y-32472356D01*
X136519814Y-32379814D01*
X136621271Y-32296552D01*
X136657009Y-32267222D01*
X136813534Y-32183557D01*
X136983373Y-32132037D01*
X137049557Y-32125519D01*
X137115740Y-32119000D01*
X137204260Y-32119000D01*
X137270443Y-32125519D01*
X137270443Y-32125519D01*
G37*
G36*
X134730443Y-32125519D02*
G01*
X134796627Y-32132037D01*
X134966466Y-32183557D01*
X135122991Y-32267222D01*
X135158729Y-32296552D01*
X135260186Y-32379814D01*
X135336132Y-32472356D01*
X135372778Y-32517009D01*
X135372779Y-32517011D01*
X135450752Y-32662886D01*
X135456443Y-32673534D01*
X135507963Y-32843373D01*
X135525359Y-33020000D01*
X135507963Y-33196627D01*
X135456443Y-33366466D01*
X135372778Y-33522991D01*
X135346193Y-33555385D01*
X135260186Y-33660186D01*
X135161192Y-33741427D01*
X135122991Y-33772778D01*
X134966466Y-33856443D01*
X134796627Y-33907963D01*
X134730443Y-33914481D01*
X134664260Y-33921000D01*
X134575740Y-33921000D01*
X134509557Y-33914481D01*
X134443373Y-33907963D01*
X134273534Y-33856443D01*
X134117009Y-33772778D01*
X134078808Y-33741427D01*
X133979814Y-33660186D01*
X133893807Y-33555385D01*
X133867222Y-33522991D01*
X133783557Y-33366466D01*
X133732037Y-33196627D01*
X133714641Y-33020000D01*
X133732037Y-32843373D01*
X133783557Y-32673534D01*
X133789249Y-32662886D01*
X133867221Y-32517011D01*
X133867222Y-32517009D01*
X133903868Y-32472356D01*
X133979814Y-32379814D01*
X134081271Y-32296552D01*
X134117009Y-32267222D01*
X134273534Y-32183557D01*
X134443373Y-32132037D01*
X134509557Y-32125519D01*
X134575740Y-32119000D01*
X134664260Y-32119000D01*
X134730443Y-32125519D01*
X134730443Y-32125519D01*
G37*
G36*
X132190443Y-32125519D02*
G01*
X132256627Y-32132037D01*
X132426466Y-32183557D01*
X132582991Y-32267222D01*
X132618729Y-32296552D01*
X132720186Y-32379814D01*
X132796132Y-32472356D01*
X132832778Y-32517009D01*
X132832779Y-32517011D01*
X132910752Y-32662886D01*
X132916443Y-32673534D01*
X132967963Y-32843373D01*
X132985359Y-33020000D01*
X132967963Y-33196627D01*
X132916443Y-33366466D01*
X132832778Y-33522991D01*
X132806193Y-33555385D01*
X132720186Y-33660186D01*
X132621192Y-33741427D01*
X132582991Y-33772778D01*
X132426466Y-33856443D01*
X132256627Y-33907963D01*
X132190443Y-33914481D01*
X132124260Y-33921000D01*
X132035740Y-33921000D01*
X131969557Y-33914481D01*
X131903373Y-33907963D01*
X131733534Y-33856443D01*
X131577009Y-33772778D01*
X131538808Y-33741427D01*
X131439814Y-33660186D01*
X131353807Y-33555385D01*
X131327222Y-33522991D01*
X131243557Y-33366466D01*
X131192037Y-33196627D01*
X131174641Y-33020000D01*
X131192037Y-32843373D01*
X131243557Y-32673534D01*
X131249249Y-32662886D01*
X131327221Y-32517011D01*
X131327222Y-32517009D01*
X131363868Y-32472356D01*
X131439814Y-32379814D01*
X131541271Y-32296552D01*
X131577009Y-32267222D01*
X131733534Y-32183557D01*
X131903373Y-32132037D01*
X131969557Y-32125519D01*
X132035740Y-32119000D01*
X132124260Y-32119000D01*
X132190443Y-32125519D01*
X132190443Y-32125519D01*
G37*
G36*
X124570443Y-32125519D02*
G01*
X124636627Y-32132037D01*
X124806466Y-32183557D01*
X124962991Y-32267222D01*
X124998729Y-32296552D01*
X125100186Y-32379814D01*
X125176132Y-32472356D01*
X125212778Y-32517009D01*
X125212779Y-32517011D01*
X125290752Y-32662886D01*
X125296443Y-32673534D01*
X125347963Y-32843373D01*
X125365359Y-33020000D01*
X125347963Y-33196627D01*
X125296443Y-33366466D01*
X125212778Y-33522991D01*
X125186193Y-33555385D01*
X125100186Y-33660186D01*
X125001192Y-33741427D01*
X124962991Y-33772778D01*
X124806466Y-33856443D01*
X124636627Y-33907963D01*
X124570443Y-33914481D01*
X124504260Y-33921000D01*
X124415740Y-33921000D01*
X124349557Y-33914481D01*
X124283373Y-33907963D01*
X124113534Y-33856443D01*
X123957009Y-33772778D01*
X123918808Y-33741427D01*
X123819814Y-33660186D01*
X123733807Y-33555385D01*
X123707222Y-33522991D01*
X123623557Y-33366466D01*
X123572037Y-33196627D01*
X123554641Y-33020000D01*
X123572037Y-32843373D01*
X123623557Y-32673534D01*
X123629249Y-32662886D01*
X123707221Y-32517011D01*
X123707222Y-32517009D01*
X123743868Y-32472356D01*
X123819814Y-32379814D01*
X123921271Y-32296552D01*
X123957009Y-32267222D01*
X124113534Y-32183557D01*
X124283373Y-32132037D01*
X124349557Y-32125519D01*
X124415740Y-32119000D01*
X124504260Y-32119000D01*
X124570443Y-32125519D01*
X124570443Y-32125519D01*
G37*
G36*
X122030443Y-32125519D02*
G01*
X122096627Y-32132037D01*
X122266466Y-32183557D01*
X122422991Y-32267222D01*
X122458729Y-32296552D01*
X122560186Y-32379814D01*
X122636132Y-32472356D01*
X122672778Y-32517009D01*
X122672779Y-32517011D01*
X122750752Y-32662886D01*
X122756443Y-32673534D01*
X122807963Y-32843373D01*
X122825359Y-33020000D01*
X122807963Y-33196627D01*
X122756443Y-33366466D01*
X122672778Y-33522991D01*
X122646193Y-33555385D01*
X122560186Y-33660186D01*
X122461192Y-33741427D01*
X122422991Y-33772778D01*
X122266466Y-33856443D01*
X122096627Y-33907963D01*
X122030443Y-33914481D01*
X121964260Y-33921000D01*
X121875740Y-33921000D01*
X121809557Y-33914481D01*
X121743373Y-33907963D01*
X121573534Y-33856443D01*
X121417009Y-33772778D01*
X121378808Y-33741427D01*
X121279814Y-33660186D01*
X121193807Y-33555385D01*
X121167222Y-33522991D01*
X121083557Y-33366466D01*
X121032037Y-33196627D01*
X121014641Y-33020000D01*
X121032037Y-32843373D01*
X121083557Y-32673534D01*
X121089249Y-32662886D01*
X121167221Y-32517011D01*
X121167222Y-32517009D01*
X121203868Y-32472356D01*
X121279814Y-32379814D01*
X121381271Y-32296552D01*
X121417009Y-32267222D01*
X121573534Y-32183557D01*
X121743373Y-32132037D01*
X121809557Y-32125519D01*
X121875740Y-32119000D01*
X121964260Y-32119000D01*
X122030443Y-32125519D01*
X122030443Y-32125519D01*
G37*
G36*
X129650443Y-32125519D02*
G01*
X129716627Y-32132037D01*
X129886466Y-32183557D01*
X130042991Y-32267222D01*
X130078729Y-32296552D01*
X130180186Y-32379814D01*
X130256132Y-32472356D01*
X130292778Y-32517009D01*
X130292779Y-32517011D01*
X130370752Y-32662886D01*
X130376443Y-32673534D01*
X130427963Y-32843373D01*
X130445359Y-33020000D01*
X130427963Y-33196627D01*
X130376443Y-33366466D01*
X130292778Y-33522991D01*
X130266193Y-33555385D01*
X130180186Y-33660186D01*
X130081192Y-33741427D01*
X130042991Y-33772778D01*
X129886466Y-33856443D01*
X129716627Y-33907963D01*
X129650443Y-33914481D01*
X129584260Y-33921000D01*
X129495740Y-33921000D01*
X129429557Y-33914481D01*
X129363373Y-33907963D01*
X129193534Y-33856443D01*
X129037009Y-33772778D01*
X128998808Y-33741427D01*
X128899814Y-33660186D01*
X128813807Y-33555385D01*
X128787222Y-33522991D01*
X128703557Y-33366466D01*
X128652037Y-33196627D01*
X128634641Y-33020000D01*
X128652037Y-32843373D01*
X128703557Y-32673534D01*
X128709249Y-32662886D01*
X128787221Y-32517011D01*
X128787222Y-32517009D01*
X128823868Y-32472356D01*
X128899814Y-32379814D01*
X129001271Y-32296552D01*
X129037009Y-32267222D01*
X129193534Y-32183557D01*
X129363373Y-32132037D01*
X129429557Y-32125519D01*
X129495740Y-32119000D01*
X129584260Y-32119000D01*
X129650443Y-32125519D01*
X129650443Y-32125519D01*
G37*
G36*
X117741000Y-33921000D02*
G01*
X115939000Y-33921000D01*
X115939000Y-32119000D01*
X117741000Y-32119000D01*
X117741000Y-33921000D01*
X117741000Y-33921000D01*
G37*
G36*
X127110443Y-32125519D02*
G01*
X127176627Y-32132037D01*
X127346466Y-32183557D01*
X127502991Y-32267222D01*
X127538729Y-32296552D01*
X127640186Y-32379814D01*
X127716132Y-32472356D01*
X127752778Y-32517009D01*
X127752779Y-32517011D01*
X127830752Y-32662886D01*
X127836443Y-32673534D01*
X127887963Y-32843373D01*
X127905359Y-33020000D01*
X127887963Y-33196627D01*
X127836443Y-33366466D01*
X127752778Y-33522991D01*
X127726193Y-33555385D01*
X127640186Y-33660186D01*
X127541192Y-33741427D01*
X127502991Y-33772778D01*
X127346466Y-33856443D01*
X127176627Y-33907963D01*
X127110443Y-33914481D01*
X127044260Y-33921000D01*
X126955740Y-33921000D01*
X126889557Y-33914481D01*
X126823373Y-33907963D01*
X126653534Y-33856443D01*
X126497009Y-33772778D01*
X126458808Y-33741427D01*
X126359814Y-33660186D01*
X126273807Y-33555385D01*
X126247222Y-33522991D01*
X126163557Y-33366466D01*
X126112037Y-33196627D01*
X126094641Y-33020000D01*
X126112037Y-32843373D01*
X126163557Y-32673534D01*
X126169249Y-32662886D01*
X126247221Y-32517011D01*
X126247222Y-32517009D01*
X126283868Y-32472356D01*
X126359814Y-32379814D01*
X126461271Y-32296552D01*
X126497009Y-32267222D01*
X126653534Y-32183557D01*
X126823373Y-32132037D01*
X126889557Y-32125519D01*
X126955740Y-32119000D01*
X127044260Y-32119000D01*
X127110443Y-32125519D01*
X127110443Y-32125519D01*
G37*
G36*
X180756314Y-32273011D02*
G01*
X180855465Y-32303088D01*
X180946844Y-32351931D01*
X181026938Y-32417662D01*
X181092669Y-32497756D01*
X181141512Y-32589135D01*
X181171589Y-32688286D01*
X181181745Y-32791400D01*
X181171589Y-32894514D01*
X181141512Y-32993665D01*
X181092669Y-33085044D01*
X181026938Y-33165138D01*
X180946844Y-33230869D01*
X180855465Y-33279712D01*
X180756314Y-33309789D01*
X180679039Y-33317400D01*
X180327361Y-33317400D01*
X180250086Y-33309789D01*
X180150935Y-33279712D01*
X180059556Y-33230869D01*
X179979462Y-33165138D01*
X179913731Y-33085044D01*
X179864888Y-32993665D01*
X179834811Y-32894514D01*
X179824655Y-32791400D01*
X179834811Y-32688286D01*
X179864888Y-32589135D01*
X179913731Y-32497756D01*
X179979462Y-32417662D01*
X180059556Y-32351931D01*
X180150935Y-32303088D01*
X180250086Y-32273011D01*
X180327361Y-32265400D01*
X180679039Y-32265400D01*
X180756314Y-32273011D01*
X180756314Y-32273011D01*
G37*
G36*
X175756314Y-32273011D02*
G01*
X175855465Y-32303088D01*
X175946844Y-32351931D01*
X176026938Y-32417662D01*
X176092669Y-32497756D01*
X176141512Y-32589135D01*
X176171589Y-32688286D01*
X176181745Y-32791400D01*
X176171589Y-32894514D01*
X176141512Y-32993665D01*
X176092669Y-33085044D01*
X176026938Y-33165138D01*
X175946844Y-33230869D01*
X175855465Y-33279712D01*
X175756314Y-33309789D01*
X175679039Y-33317400D01*
X175327361Y-33317400D01*
X175250086Y-33309789D01*
X175150935Y-33279712D01*
X175059556Y-33230869D01*
X174979462Y-33165138D01*
X174913731Y-33085044D01*
X174864888Y-32993665D01*
X174834811Y-32894514D01*
X174824655Y-32791400D01*
X174834811Y-32688286D01*
X174864888Y-32589135D01*
X174913731Y-32497756D01*
X174979462Y-32417662D01*
X175059556Y-32351931D01*
X175150935Y-32303088D01*
X175250086Y-32273011D01*
X175327361Y-32265400D01*
X175679039Y-32265400D01*
X175756314Y-32273011D01*
X175756314Y-32273011D01*
G37*
G36*
X162599114Y-32247611D02*
G01*
X162698265Y-32277688D01*
X162789644Y-32326531D01*
X162869738Y-32392262D01*
X162935469Y-32472356D01*
X162984312Y-32563735D01*
X163014389Y-32662886D01*
X163024545Y-32766000D01*
X163014389Y-32869114D01*
X162984312Y-32968265D01*
X162935469Y-33059644D01*
X162869738Y-33139738D01*
X162789644Y-33205469D01*
X162698265Y-33254312D01*
X162599114Y-33284389D01*
X162521839Y-33292000D01*
X162170161Y-33292000D01*
X162092886Y-33284389D01*
X161993735Y-33254312D01*
X161902356Y-33205469D01*
X161822262Y-33139738D01*
X161756531Y-33059644D01*
X161707688Y-32968265D01*
X161677611Y-32869114D01*
X161667455Y-32766000D01*
X161677611Y-32662886D01*
X161707688Y-32563735D01*
X161756531Y-32472356D01*
X161822262Y-32392262D01*
X161902356Y-32326531D01*
X161993735Y-32277688D01*
X162092886Y-32247611D01*
X162170161Y-32240000D01*
X162521839Y-32240000D01*
X162599114Y-32247611D01*
X162599114Y-32247611D01*
G37*
G36*
X167599114Y-32247611D02*
G01*
X167698265Y-32277688D01*
X167789644Y-32326531D01*
X167869738Y-32392262D01*
X167935469Y-32472356D01*
X167984312Y-32563735D01*
X168014389Y-32662886D01*
X168024545Y-32766000D01*
X168014389Y-32869114D01*
X167984312Y-32968265D01*
X167935469Y-33059644D01*
X167869738Y-33139738D01*
X167789644Y-33205469D01*
X167698265Y-33254312D01*
X167599114Y-33284389D01*
X167521839Y-33292000D01*
X167170161Y-33292000D01*
X167092886Y-33284389D01*
X166993735Y-33254312D01*
X166902356Y-33205469D01*
X166822262Y-33139738D01*
X166756531Y-33059644D01*
X166707688Y-32968265D01*
X166677611Y-32869114D01*
X166667455Y-32766000D01*
X166677611Y-32662886D01*
X166707688Y-32563735D01*
X166756531Y-32472356D01*
X166822262Y-32392262D01*
X166902356Y-32326531D01*
X166993735Y-32277688D01*
X167092886Y-32247611D01*
X167170161Y-32240000D01*
X167521839Y-32240000D01*
X167599114Y-32247611D01*
X167599114Y-32247611D01*
G37*
G36*
X113111264Y-30077265D02*
G01*
X113279786Y-30147069D01*
X113431451Y-30248408D01*
X113560432Y-30377389D01*
X113661771Y-30529054D01*
X113731575Y-30697576D01*
X113767160Y-30876477D01*
X113767160Y-31058883D01*
X113731575Y-31237784D01*
X113661771Y-31406306D01*
X113560432Y-31557971D01*
X113431451Y-31686952D01*
X113279786Y-31788291D01*
X113111264Y-31858095D01*
X112932363Y-31893680D01*
X112749957Y-31893680D01*
X112571056Y-31858095D01*
X112402534Y-31788291D01*
X112250869Y-31686952D01*
X112121888Y-31557971D01*
X112020549Y-31406306D01*
X111950745Y-31237784D01*
X111915160Y-31058883D01*
X111915160Y-30876477D01*
X111950745Y-30697576D01*
X112020549Y-30529054D01*
X112121888Y-30377389D01*
X112250869Y-30248408D01*
X112402534Y-30147069D01*
X112571056Y-30077265D01*
X112749957Y-30041680D01*
X112932363Y-30041680D01*
X113111264Y-30077265D01*
X113111264Y-30077265D01*
G37*
G36*
X108611264Y-30077265D02*
G01*
X108779786Y-30147069D01*
X108931451Y-30248408D01*
X109060432Y-30377389D01*
X109161771Y-30529054D01*
X109231575Y-30697576D01*
X109267160Y-30876477D01*
X109267160Y-31058883D01*
X109231575Y-31237784D01*
X109161771Y-31406306D01*
X109060432Y-31557971D01*
X108931451Y-31686952D01*
X108779786Y-31788291D01*
X108611264Y-31858095D01*
X108432363Y-31893680D01*
X108249957Y-31893680D01*
X108071056Y-31858095D01*
X107902534Y-31788291D01*
X107750869Y-31686952D01*
X107621888Y-31557971D01*
X107520549Y-31406306D01*
X107450745Y-31237784D01*
X107415160Y-31058883D01*
X107415160Y-30876477D01*
X107450745Y-30697576D01*
X107520549Y-30529054D01*
X107621888Y-30377389D01*
X107750869Y-30248408D01*
X107902534Y-30147069D01*
X108071056Y-30077265D01*
X108249957Y-30041680D01*
X108432363Y-30041680D01*
X108611264Y-30077265D01*
X108611264Y-30077265D01*
G37*
G36*
X122030443Y-29585519D02*
G01*
X122096627Y-29592037D01*
X122266466Y-29643557D01*
X122422991Y-29727222D01*
X122429768Y-29732784D01*
X122560186Y-29839814D01*
X122643448Y-29941271D01*
X122672778Y-29977009D01*
X122756443Y-30133534D01*
X122807963Y-30303373D01*
X122825359Y-30480000D01*
X122807963Y-30656627D01*
X122756443Y-30826466D01*
X122756442Y-30826468D01*
X122744698Y-30848440D01*
X122672778Y-30982991D01*
X122649017Y-31011944D01*
X122560186Y-31120186D01*
X122458729Y-31203448D01*
X122422991Y-31232778D01*
X122344729Y-31274610D01*
X122279048Y-31309718D01*
X122266466Y-31316443D01*
X122096627Y-31367963D01*
X122030443Y-31374481D01*
X121964260Y-31381000D01*
X121875740Y-31381000D01*
X121809557Y-31374481D01*
X121743373Y-31367963D01*
X121573534Y-31316443D01*
X121560953Y-31309718D01*
X121495272Y-31274611D01*
X121417009Y-31232778D01*
X121381271Y-31203448D01*
X121279814Y-31120186D01*
X121190983Y-31011944D01*
X121167222Y-30982991D01*
X121095302Y-30848440D01*
X121083558Y-30826468D01*
X121083557Y-30826466D01*
X121032037Y-30656627D01*
X121014641Y-30480000D01*
X121032037Y-30303373D01*
X121083557Y-30133534D01*
X121167222Y-29977009D01*
X121196552Y-29941271D01*
X121279814Y-29839814D01*
X121410232Y-29732784D01*
X121417009Y-29727222D01*
X121573534Y-29643557D01*
X121743373Y-29592037D01*
X121809557Y-29585519D01*
X121875740Y-29579000D01*
X121964260Y-29579000D01*
X122030443Y-29585519D01*
X122030443Y-29585519D01*
G37*
G36*
X144890443Y-29585519D02*
G01*
X144956627Y-29592037D01*
X145126466Y-29643557D01*
X145282991Y-29727222D01*
X145289768Y-29732784D01*
X145420186Y-29839814D01*
X145503448Y-29941271D01*
X145532778Y-29977009D01*
X145616443Y-30133534D01*
X145667963Y-30303373D01*
X145685359Y-30480000D01*
X145667963Y-30656627D01*
X145616443Y-30826466D01*
X145616442Y-30826468D01*
X145604698Y-30848440D01*
X145532778Y-30982991D01*
X145509017Y-31011944D01*
X145420186Y-31120186D01*
X145318729Y-31203448D01*
X145282991Y-31232778D01*
X145204729Y-31274610D01*
X145139048Y-31309718D01*
X145126466Y-31316443D01*
X144956627Y-31367963D01*
X144890443Y-31374481D01*
X144824260Y-31381000D01*
X144735740Y-31381000D01*
X144669557Y-31374481D01*
X144603373Y-31367963D01*
X144433534Y-31316443D01*
X144420953Y-31309718D01*
X144355271Y-31274610D01*
X144277009Y-31232778D01*
X144241271Y-31203448D01*
X144139814Y-31120186D01*
X144050983Y-31011944D01*
X144027222Y-30982991D01*
X143955302Y-30848440D01*
X143943558Y-30826468D01*
X143943557Y-30826466D01*
X143892037Y-30656627D01*
X143874641Y-30480000D01*
X143892037Y-30303373D01*
X143943557Y-30133534D01*
X144027222Y-29977009D01*
X144056552Y-29941271D01*
X144139814Y-29839814D01*
X144270232Y-29732784D01*
X144277009Y-29727222D01*
X144433534Y-29643557D01*
X144603373Y-29592037D01*
X144669557Y-29585519D01*
X144735740Y-29579000D01*
X144824260Y-29579000D01*
X144890443Y-29585519D01*
X144890443Y-29585519D01*
G37*
G36*
X142350443Y-29585519D02*
G01*
X142416627Y-29592037D01*
X142586466Y-29643557D01*
X142742991Y-29727222D01*
X142749768Y-29732784D01*
X142880186Y-29839814D01*
X142963448Y-29941271D01*
X142992778Y-29977009D01*
X143076443Y-30133534D01*
X143127963Y-30303373D01*
X143145359Y-30480000D01*
X143127963Y-30656627D01*
X143076443Y-30826466D01*
X143076442Y-30826468D01*
X143064698Y-30848440D01*
X142992778Y-30982991D01*
X142969017Y-31011944D01*
X142880186Y-31120186D01*
X142778729Y-31203448D01*
X142742991Y-31232778D01*
X142664729Y-31274610D01*
X142599048Y-31309718D01*
X142586466Y-31316443D01*
X142416627Y-31367963D01*
X142350443Y-31374481D01*
X142284260Y-31381000D01*
X142195740Y-31381000D01*
X142129557Y-31374481D01*
X142063373Y-31367963D01*
X141893534Y-31316443D01*
X141880953Y-31309718D01*
X141815271Y-31274610D01*
X141737009Y-31232778D01*
X141701271Y-31203448D01*
X141599814Y-31120186D01*
X141510983Y-31011944D01*
X141487222Y-30982991D01*
X141415302Y-30848440D01*
X141403558Y-30826468D01*
X141403557Y-30826466D01*
X141352037Y-30656627D01*
X141334641Y-30480000D01*
X141352037Y-30303373D01*
X141403557Y-30133534D01*
X141487222Y-29977009D01*
X141516552Y-29941271D01*
X141599814Y-29839814D01*
X141730232Y-29732784D01*
X141737009Y-29727222D01*
X141893534Y-29643557D01*
X142063373Y-29592037D01*
X142129557Y-29585519D01*
X142195740Y-29579000D01*
X142284260Y-29579000D01*
X142350443Y-29585519D01*
X142350443Y-29585519D01*
G37*
G36*
X129650443Y-29585519D02*
G01*
X129716627Y-29592037D01*
X129886466Y-29643557D01*
X130042991Y-29727222D01*
X130049768Y-29732784D01*
X130180186Y-29839814D01*
X130263448Y-29941271D01*
X130292778Y-29977009D01*
X130376443Y-30133534D01*
X130427963Y-30303373D01*
X130445359Y-30480000D01*
X130427963Y-30656627D01*
X130376443Y-30826466D01*
X130376442Y-30826468D01*
X130364698Y-30848440D01*
X130292778Y-30982991D01*
X130269017Y-31011944D01*
X130180186Y-31120186D01*
X130078729Y-31203448D01*
X130042991Y-31232778D01*
X129964729Y-31274610D01*
X129899048Y-31309718D01*
X129886466Y-31316443D01*
X129716627Y-31367963D01*
X129650443Y-31374481D01*
X129584260Y-31381000D01*
X129495740Y-31381000D01*
X129429557Y-31374481D01*
X129363373Y-31367963D01*
X129193534Y-31316443D01*
X129180953Y-31309718D01*
X129115271Y-31274610D01*
X129037009Y-31232778D01*
X129001271Y-31203448D01*
X128899814Y-31120186D01*
X128810983Y-31011944D01*
X128787222Y-30982991D01*
X128715302Y-30848440D01*
X128703558Y-30826468D01*
X128703557Y-30826466D01*
X128652037Y-30656627D01*
X128634641Y-30480000D01*
X128652037Y-30303373D01*
X128703557Y-30133534D01*
X128787222Y-29977009D01*
X128816552Y-29941271D01*
X128899814Y-29839814D01*
X129030232Y-29732784D01*
X129037009Y-29727222D01*
X129193534Y-29643557D01*
X129363373Y-29592037D01*
X129429557Y-29585519D01*
X129495740Y-29579000D01*
X129584260Y-29579000D01*
X129650443Y-29585519D01*
X129650443Y-29585519D01*
G37*
G36*
X127110443Y-29585519D02*
G01*
X127176627Y-29592037D01*
X127346466Y-29643557D01*
X127502991Y-29727222D01*
X127509768Y-29732784D01*
X127640186Y-29839814D01*
X127723448Y-29941271D01*
X127752778Y-29977009D01*
X127836443Y-30133534D01*
X127887963Y-30303373D01*
X127905359Y-30480000D01*
X127887963Y-30656627D01*
X127836443Y-30826466D01*
X127836442Y-30826468D01*
X127824698Y-30848440D01*
X127752778Y-30982991D01*
X127729017Y-31011944D01*
X127640186Y-31120186D01*
X127538729Y-31203448D01*
X127502991Y-31232778D01*
X127424729Y-31274610D01*
X127359048Y-31309718D01*
X127346466Y-31316443D01*
X127176627Y-31367963D01*
X127110443Y-31374481D01*
X127044260Y-31381000D01*
X126955740Y-31381000D01*
X126889557Y-31374481D01*
X126823373Y-31367963D01*
X126653534Y-31316443D01*
X126640953Y-31309718D01*
X126575271Y-31274610D01*
X126497009Y-31232778D01*
X126461271Y-31203448D01*
X126359814Y-31120186D01*
X126270983Y-31011944D01*
X126247222Y-30982991D01*
X126175302Y-30848440D01*
X126163558Y-30826468D01*
X126163557Y-30826466D01*
X126112037Y-30656627D01*
X126094641Y-30480000D01*
X126112037Y-30303373D01*
X126163557Y-30133534D01*
X126247222Y-29977009D01*
X126276552Y-29941271D01*
X126359814Y-29839814D01*
X126490232Y-29732784D01*
X126497009Y-29727222D01*
X126653534Y-29643557D01*
X126823373Y-29592037D01*
X126889557Y-29585519D01*
X126955740Y-29579000D01*
X127044260Y-29579000D01*
X127110443Y-29585519D01*
X127110443Y-29585519D01*
G37*
G36*
X139810443Y-29585519D02*
G01*
X139876627Y-29592037D01*
X140046466Y-29643557D01*
X140202991Y-29727222D01*
X140209768Y-29732784D01*
X140340186Y-29839814D01*
X140423448Y-29941271D01*
X140452778Y-29977009D01*
X140536443Y-30133534D01*
X140587963Y-30303373D01*
X140605359Y-30480000D01*
X140587963Y-30656627D01*
X140536443Y-30826466D01*
X140536442Y-30826468D01*
X140524698Y-30848440D01*
X140452778Y-30982991D01*
X140429017Y-31011944D01*
X140340186Y-31120186D01*
X140238729Y-31203448D01*
X140202991Y-31232778D01*
X140124729Y-31274610D01*
X140059048Y-31309718D01*
X140046466Y-31316443D01*
X139876627Y-31367963D01*
X139810443Y-31374481D01*
X139744260Y-31381000D01*
X139655740Y-31381000D01*
X139589557Y-31374481D01*
X139523373Y-31367963D01*
X139353534Y-31316443D01*
X139340953Y-31309718D01*
X139275271Y-31274610D01*
X139197009Y-31232778D01*
X139161271Y-31203448D01*
X139059814Y-31120186D01*
X138970983Y-31011944D01*
X138947222Y-30982991D01*
X138875302Y-30848440D01*
X138863558Y-30826468D01*
X138863557Y-30826466D01*
X138812037Y-30656627D01*
X138794641Y-30480000D01*
X138812037Y-30303373D01*
X138863557Y-30133534D01*
X138947222Y-29977009D01*
X138976552Y-29941271D01*
X139059814Y-29839814D01*
X139190232Y-29732784D01*
X139197009Y-29727222D01*
X139353534Y-29643557D01*
X139523373Y-29592037D01*
X139589557Y-29585519D01*
X139655740Y-29579000D01*
X139744260Y-29579000D01*
X139810443Y-29585519D01*
X139810443Y-29585519D01*
G37*
G36*
X124570443Y-29585519D02*
G01*
X124636627Y-29592037D01*
X124806466Y-29643557D01*
X124962991Y-29727222D01*
X124969768Y-29732784D01*
X125100186Y-29839814D01*
X125183448Y-29941271D01*
X125212778Y-29977009D01*
X125296443Y-30133534D01*
X125347963Y-30303373D01*
X125365359Y-30480000D01*
X125347963Y-30656627D01*
X125296443Y-30826466D01*
X125296442Y-30826468D01*
X125284698Y-30848440D01*
X125212778Y-30982991D01*
X125189017Y-31011944D01*
X125100186Y-31120186D01*
X124998729Y-31203448D01*
X124962991Y-31232778D01*
X124884729Y-31274610D01*
X124819048Y-31309718D01*
X124806466Y-31316443D01*
X124636627Y-31367963D01*
X124570443Y-31374481D01*
X124504260Y-31381000D01*
X124415740Y-31381000D01*
X124349557Y-31374481D01*
X124283373Y-31367963D01*
X124113534Y-31316443D01*
X124100953Y-31309718D01*
X124035272Y-31274611D01*
X123957009Y-31232778D01*
X123921271Y-31203448D01*
X123819814Y-31120186D01*
X123730983Y-31011944D01*
X123707222Y-30982991D01*
X123635302Y-30848440D01*
X123623558Y-30826468D01*
X123623557Y-30826466D01*
X123572037Y-30656627D01*
X123554641Y-30480000D01*
X123572037Y-30303373D01*
X123623557Y-30133534D01*
X123707222Y-29977009D01*
X123736552Y-29941271D01*
X123819814Y-29839814D01*
X123950232Y-29732784D01*
X123957009Y-29727222D01*
X124113534Y-29643557D01*
X124283373Y-29592037D01*
X124349557Y-29585519D01*
X124415740Y-29579000D01*
X124504260Y-29579000D01*
X124570443Y-29585519D01*
X124570443Y-29585519D01*
G37*
G36*
X119490443Y-29585519D02*
G01*
X119556627Y-29592037D01*
X119726466Y-29643557D01*
X119882991Y-29727222D01*
X119889768Y-29732784D01*
X120020186Y-29839814D01*
X120103448Y-29941271D01*
X120132778Y-29977009D01*
X120216443Y-30133534D01*
X120267963Y-30303373D01*
X120285359Y-30480000D01*
X120267963Y-30656627D01*
X120216443Y-30826466D01*
X120216442Y-30826468D01*
X120204698Y-30848440D01*
X120132778Y-30982991D01*
X120109017Y-31011944D01*
X120020186Y-31120186D01*
X119918729Y-31203448D01*
X119882991Y-31232778D01*
X119804729Y-31274610D01*
X119739048Y-31309718D01*
X119726466Y-31316443D01*
X119556627Y-31367963D01*
X119490443Y-31374481D01*
X119424260Y-31381000D01*
X119335740Y-31381000D01*
X119269557Y-31374481D01*
X119203373Y-31367963D01*
X119033534Y-31316443D01*
X119020953Y-31309718D01*
X118955272Y-31274611D01*
X118877009Y-31232778D01*
X118841271Y-31203448D01*
X118739814Y-31120186D01*
X118650983Y-31011944D01*
X118627222Y-30982991D01*
X118555302Y-30848440D01*
X118543558Y-30826468D01*
X118543557Y-30826466D01*
X118492037Y-30656627D01*
X118474641Y-30480000D01*
X118492037Y-30303373D01*
X118543557Y-30133534D01*
X118627222Y-29977009D01*
X118656552Y-29941271D01*
X118739814Y-29839814D01*
X118870232Y-29732784D01*
X118877009Y-29727222D01*
X119033534Y-29643557D01*
X119203373Y-29592037D01*
X119269557Y-29585519D01*
X119335740Y-29579000D01*
X119424260Y-29579000D01*
X119490443Y-29585519D01*
X119490443Y-29585519D01*
G37*
G36*
X132190443Y-29585519D02*
G01*
X132256627Y-29592037D01*
X132426466Y-29643557D01*
X132582991Y-29727222D01*
X132589768Y-29732784D01*
X132720186Y-29839814D01*
X132803448Y-29941271D01*
X132832778Y-29977009D01*
X132916443Y-30133534D01*
X132967963Y-30303373D01*
X132985359Y-30480000D01*
X132967963Y-30656627D01*
X132916443Y-30826466D01*
X132916442Y-30826468D01*
X132904698Y-30848440D01*
X132832778Y-30982991D01*
X132809017Y-31011944D01*
X132720186Y-31120186D01*
X132618729Y-31203448D01*
X132582991Y-31232778D01*
X132504729Y-31274610D01*
X132439048Y-31309718D01*
X132426466Y-31316443D01*
X132256627Y-31367963D01*
X132190443Y-31374481D01*
X132124260Y-31381000D01*
X132035740Y-31381000D01*
X131969557Y-31374481D01*
X131903373Y-31367963D01*
X131733534Y-31316443D01*
X131720953Y-31309718D01*
X131655271Y-31274610D01*
X131577009Y-31232778D01*
X131541271Y-31203448D01*
X131439814Y-31120186D01*
X131350983Y-31011944D01*
X131327222Y-30982991D01*
X131255302Y-30848440D01*
X131243558Y-30826468D01*
X131243557Y-30826466D01*
X131192037Y-30656627D01*
X131174641Y-30480000D01*
X131192037Y-30303373D01*
X131243557Y-30133534D01*
X131327222Y-29977009D01*
X131356552Y-29941271D01*
X131439814Y-29839814D01*
X131570232Y-29732784D01*
X131577009Y-29727222D01*
X131733534Y-29643557D01*
X131903373Y-29592037D01*
X131969557Y-29585519D01*
X132035740Y-29579000D01*
X132124260Y-29579000D01*
X132190443Y-29585519D01*
X132190443Y-29585519D01*
G37*
G36*
X137270443Y-29585519D02*
G01*
X137336627Y-29592037D01*
X137506466Y-29643557D01*
X137662991Y-29727222D01*
X137669768Y-29732784D01*
X137800186Y-29839814D01*
X137883448Y-29941271D01*
X137912778Y-29977009D01*
X137996443Y-30133534D01*
X138047963Y-30303373D01*
X138065359Y-30480000D01*
X138047963Y-30656627D01*
X137996443Y-30826466D01*
X137996442Y-30826468D01*
X137984698Y-30848440D01*
X137912778Y-30982991D01*
X137889017Y-31011944D01*
X137800186Y-31120186D01*
X137698729Y-31203448D01*
X137662991Y-31232778D01*
X137584729Y-31274610D01*
X137519048Y-31309718D01*
X137506466Y-31316443D01*
X137336627Y-31367963D01*
X137270443Y-31374481D01*
X137204260Y-31381000D01*
X137115740Y-31381000D01*
X137049557Y-31374481D01*
X136983373Y-31367963D01*
X136813534Y-31316443D01*
X136800953Y-31309718D01*
X136735271Y-31274610D01*
X136657009Y-31232778D01*
X136621271Y-31203448D01*
X136519814Y-31120186D01*
X136430983Y-31011944D01*
X136407222Y-30982991D01*
X136335302Y-30848440D01*
X136323558Y-30826468D01*
X136323557Y-30826466D01*
X136272037Y-30656627D01*
X136254641Y-30480000D01*
X136272037Y-30303373D01*
X136323557Y-30133534D01*
X136407222Y-29977009D01*
X136436552Y-29941271D01*
X136519814Y-29839814D01*
X136650232Y-29732784D01*
X136657009Y-29727222D01*
X136813534Y-29643557D01*
X136983373Y-29592037D01*
X137049557Y-29585519D01*
X137115740Y-29579000D01*
X137204260Y-29579000D01*
X137270443Y-29585519D01*
X137270443Y-29585519D01*
G37*
G36*
X134730443Y-29585519D02*
G01*
X134796627Y-29592037D01*
X134966466Y-29643557D01*
X135122991Y-29727222D01*
X135129768Y-29732784D01*
X135260186Y-29839814D01*
X135343448Y-29941271D01*
X135372778Y-29977009D01*
X135456443Y-30133534D01*
X135507963Y-30303373D01*
X135525359Y-30480000D01*
X135507963Y-30656627D01*
X135456443Y-30826466D01*
X135456442Y-30826468D01*
X135444698Y-30848440D01*
X135372778Y-30982991D01*
X135349017Y-31011944D01*
X135260186Y-31120186D01*
X135158729Y-31203448D01*
X135122991Y-31232778D01*
X135044729Y-31274610D01*
X134979048Y-31309718D01*
X134966466Y-31316443D01*
X134796627Y-31367963D01*
X134730443Y-31374481D01*
X134664260Y-31381000D01*
X134575740Y-31381000D01*
X134509557Y-31374481D01*
X134443373Y-31367963D01*
X134273534Y-31316443D01*
X134260953Y-31309718D01*
X134195271Y-31274610D01*
X134117009Y-31232778D01*
X134081271Y-31203448D01*
X133979814Y-31120186D01*
X133890983Y-31011944D01*
X133867222Y-30982991D01*
X133795302Y-30848440D01*
X133783558Y-30826468D01*
X133783557Y-30826466D01*
X133732037Y-30656627D01*
X133714641Y-30480000D01*
X133732037Y-30303373D01*
X133783557Y-30133534D01*
X133867222Y-29977009D01*
X133896552Y-29941271D01*
X133979814Y-29839814D01*
X134110232Y-29732784D01*
X134117009Y-29727222D01*
X134273534Y-29643557D01*
X134443373Y-29592037D01*
X134509557Y-29585519D01*
X134575740Y-29579000D01*
X134664260Y-29579000D01*
X134730443Y-29585519D01*
X134730443Y-29585519D01*
G37*
G36*
X116950443Y-29585519D02*
G01*
X117016627Y-29592037D01*
X117186466Y-29643557D01*
X117342991Y-29727222D01*
X117349768Y-29732784D01*
X117480186Y-29839814D01*
X117563448Y-29941271D01*
X117592778Y-29977009D01*
X117676443Y-30133534D01*
X117727963Y-30303373D01*
X117745359Y-30480000D01*
X117727963Y-30656627D01*
X117676443Y-30826466D01*
X117676442Y-30826468D01*
X117664698Y-30848440D01*
X117592778Y-30982991D01*
X117569017Y-31011944D01*
X117480186Y-31120186D01*
X117378729Y-31203448D01*
X117342991Y-31232778D01*
X117264729Y-31274610D01*
X117199048Y-31309718D01*
X117186466Y-31316443D01*
X117016627Y-31367963D01*
X116950443Y-31374481D01*
X116884260Y-31381000D01*
X116795740Y-31381000D01*
X116729557Y-31374481D01*
X116663373Y-31367963D01*
X116493534Y-31316443D01*
X116480953Y-31309718D01*
X116415272Y-31274611D01*
X116337009Y-31232778D01*
X116301271Y-31203448D01*
X116199814Y-31120186D01*
X116110983Y-31011944D01*
X116087222Y-30982991D01*
X116015302Y-30848440D01*
X116003558Y-30826468D01*
X116003557Y-30826466D01*
X115952037Y-30656627D01*
X115934641Y-30480000D01*
X115952037Y-30303373D01*
X116003557Y-30133534D01*
X116087222Y-29977009D01*
X116116552Y-29941271D01*
X116199814Y-29839814D01*
X116330232Y-29732784D01*
X116337009Y-29727222D01*
X116493534Y-29643557D01*
X116663373Y-29592037D01*
X116729557Y-29585519D01*
X116795740Y-29579000D01*
X116884260Y-29579000D01*
X116950443Y-29585519D01*
X116950443Y-29585519D01*
G37*
G36*
X181611215Y-29273373D02*
G01*
X181715079Y-29304879D01*
X181742255Y-29319405D01*
X181810800Y-29356043D01*
X181894701Y-29424899D01*
X181963557Y-29508800D01*
X181996538Y-29570504D01*
X182014721Y-29604521D01*
X182046227Y-29708385D01*
X182054200Y-29789333D01*
X182054200Y-30393467D01*
X182046227Y-30474415D01*
X182014721Y-30578279D01*
X182014719Y-30578282D01*
X181972843Y-30656627D01*
X181963556Y-30674000D01*
X181894701Y-30757901D01*
X181841750Y-30801356D01*
X181810799Y-30826757D01*
X181770233Y-30848440D01*
X181715078Y-30877921D01*
X181611214Y-30909427D01*
X181503200Y-30920066D01*
X181395185Y-30909427D01*
X181291321Y-30877921D01*
X181236167Y-30848440D01*
X181195601Y-30826757D01*
X181164650Y-30801356D01*
X181111699Y-30757901D01*
X181042844Y-30674000D01*
X181033557Y-30656625D01*
X181006157Y-30605364D01*
X180991679Y-30578278D01*
X180960173Y-30474414D01*
X180952200Y-30393466D01*
X180952200Y-29789333D01*
X180960173Y-29708385D01*
X180991680Y-29604521D01*
X180991681Y-29604518D01*
X181042843Y-29508801D01*
X181111700Y-29424899D01*
X181195601Y-29356043D01*
X181264146Y-29319405D01*
X181291322Y-29304879D01*
X181395186Y-29273373D01*
X181503200Y-29262734D01*
X181611215Y-29273373D01*
X181611215Y-29273373D01*
G37*
G36*
X174611215Y-29273373D02*
G01*
X174715079Y-29304879D01*
X174742255Y-29319405D01*
X174810800Y-29356043D01*
X174894701Y-29424899D01*
X174963557Y-29508800D01*
X174996538Y-29570504D01*
X175014721Y-29604521D01*
X175046227Y-29708385D01*
X175054200Y-29789333D01*
X175054200Y-30393467D01*
X175046227Y-30474415D01*
X175014721Y-30578279D01*
X175014719Y-30578282D01*
X174972843Y-30656627D01*
X174963556Y-30674000D01*
X174894701Y-30757901D01*
X174841750Y-30801356D01*
X174810799Y-30826757D01*
X174770233Y-30848440D01*
X174715078Y-30877921D01*
X174611214Y-30909427D01*
X174503200Y-30920066D01*
X174395185Y-30909427D01*
X174291321Y-30877921D01*
X174236167Y-30848440D01*
X174195601Y-30826757D01*
X174164650Y-30801356D01*
X174111699Y-30757901D01*
X174042844Y-30674000D01*
X174033557Y-30656625D01*
X174006157Y-30605364D01*
X173991679Y-30578278D01*
X173960173Y-30474414D01*
X173952200Y-30393466D01*
X173952200Y-29789333D01*
X173960173Y-29708385D01*
X173991680Y-29604521D01*
X173991681Y-29604518D01*
X174042843Y-29508801D01*
X174111700Y-29424899D01*
X174195601Y-29356043D01*
X174264146Y-29319405D01*
X174291322Y-29304879D01*
X174395186Y-29273373D01*
X174503200Y-29262734D01*
X174611215Y-29273373D01*
X174611215Y-29273373D01*
G37*
G36*
X161454015Y-29247973D02*
G01*
X161557879Y-29279479D01*
X161585055Y-29294005D01*
X161653600Y-29330643D01*
X161737501Y-29399499D01*
X161806357Y-29483400D01*
X161842995Y-29551945D01*
X161857521Y-29579121D01*
X161889027Y-29682985D01*
X161897000Y-29763933D01*
X161897000Y-30368067D01*
X161889027Y-30449015D01*
X161857521Y-30552879D01*
X161833987Y-30596907D01*
X161806357Y-30648599D01*
X161795887Y-30661357D01*
X161737501Y-30732501D01*
X161668645Y-30789009D01*
X161653599Y-30801357D01*
X161606079Y-30826757D01*
X161557878Y-30852521D01*
X161454014Y-30884027D01*
X161346000Y-30894666D01*
X161237985Y-30884027D01*
X161134121Y-30852521D01*
X161085380Y-30826468D01*
X161038401Y-30801357D01*
X161025643Y-30790887D01*
X160954499Y-30732501D01*
X160897991Y-30663645D01*
X160885643Y-30648599D01*
X160848056Y-30578278D01*
X160834479Y-30552878D01*
X160802973Y-30449014D01*
X160795000Y-30368066D01*
X160795000Y-29763933D01*
X160802973Y-29682985D01*
X160834480Y-29579121D01*
X160834481Y-29579118D01*
X160885643Y-29483401D01*
X160954500Y-29399499D01*
X161038401Y-29330643D01*
X161106946Y-29294005D01*
X161134122Y-29279479D01*
X161237986Y-29247973D01*
X161346000Y-29237334D01*
X161454015Y-29247973D01*
X161454015Y-29247973D01*
G37*
G36*
X168454015Y-29247973D02*
G01*
X168557879Y-29279479D01*
X168585055Y-29294005D01*
X168653600Y-29330643D01*
X168737501Y-29399499D01*
X168806357Y-29483400D01*
X168842995Y-29551945D01*
X168857521Y-29579121D01*
X168889027Y-29682985D01*
X168897000Y-29763933D01*
X168897000Y-30368067D01*
X168889027Y-30449015D01*
X168857521Y-30552879D01*
X168833987Y-30596907D01*
X168806357Y-30648599D01*
X168795887Y-30661357D01*
X168737501Y-30732501D01*
X168668645Y-30789009D01*
X168653599Y-30801357D01*
X168606079Y-30826757D01*
X168557878Y-30852521D01*
X168454014Y-30884027D01*
X168346000Y-30894666D01*
X168237985Y-30884027D01*
X168134121Y-30852521D01*
X168085380Y-30826468D01*
X168038401Y-30801357D01*
X168025643Y-30790887D01*
X167954499Y-30732501D01*
X167897991Y-30663645D01*
X167885643Y-30648599D01*
X167848056Y-30578278D01*
X167834479Y-30552878D01*
X167802973Y-30449014D01*
X167795000Y-30368066D01*
X167795000Y-29763933D01*
X167802973Y-29682985D01*
X167834480Y-29579121D01*
X167834481Y-29579118D01*
X167885643Y-29483401D01*
X167954500Y-29399499D01*
X168038401Y-29330643D01*
X168106946Y-29294005D01*
X168134122Y-29279479D01*
X168237986Y-29247973D01*
X168346000Y-29237334D01*
X168454015Y-29247973D01*
X168454015Y-29247973D01*
G37*
M02*
