G04 #@! TF.GenerationSoftware,KiCad,Pcbnew,(5.1.2)-1*
G04 #@! TF.CreationDate,2019-05-21T13:02:40-03:00*
G04 #@! TF.ProjectId,trololo,74726f6c-6f6c-46f2-9e6b-696361645f70,rev?*
G04 #@! TF.SameCoordinates,Original*
G04 #@! TF.FileFunction,Copper,L4,Bot*
G04 #@! TF.FilePolarity,Positive*
%FSLAX46Y46*%
G04 Gerber Fmt 4.6, Leading zero omitted, Abs format (unit mm)*
G04 Created by KiCad (PCBNEW (5.1.2)-1) date 2019-05-21 13:02:40*
%MOMM*%
%LPD*%
G04 APERTURE LIST*
%ADD10C,0.100000*%
%ADD11C,2.100000*%
%ADD12C,1.750000*%
%ADD13C,2.000000*%
%ADD14C,0.500000*%
%ADD15R,1.700000X1.700000*%
%ADD16O,1.700000X1.700000*%
%ADD17O,1.000000X1.550000*%
%ADD18O,1.250000X0.950000*%
%ADD19R,1.900000X1.900000*%
%ADD20C,1.900000*%
%ADD21C,1.890000*%
%ADD22C,2.600000*%
%ADD23C,1.800000*%
%ADD24O,1.800000X3.600000*%
%ADD25C,0.800000*%
%ADD26C,6.400000*%
%ADD27C,0.250000*%
%ADD28C,2.000000*%
%ADD29C,0.200000*%
%ADD30C,0.254000*%
G04 APERTURE END LIST*
D10*
G36*
X116844000Y-39070000D02*
G01*
X117344000Y-39070000D01*
X117344000Y-39670000D01*
X116844000Y-39670000D01*
X116844000Y-39070000D01*
G37*
D11*
X147810940Y-77657160D03*
D12*
X149070940Y-80147160D03*
X153570940Y-80147160D03*
D11*
X154820940Y-77657160D03*
X114101160Y-33457680D03*
D12*
X112841160Y-30967680D03*
X108341160Y-30967680D03*
D11*
X107091160Y-33457680D03*
D13*
X113713260Y-59067700D03*
D14*
X117744000Y-39370000D03*
D10*
G36*
X117244000Y-38620000D02*
G01*
X117744000Y-38620000D01*
X117744000Y-38620602D01*
X117768534Y-38620602D01*
X117817365Y-38625412D01*
X117865490Y-38634984D01*
X117912445Y-38649228D01*
X117957778Y-38668005D01*
X118001051Y-38691136D01*
X118041850Y-38718396D01*
X118079779Y-38749524D01*
X118114476Y-38784221D01*
X118145604Y-38822150D01*
X118172864Y-38862949D01*
X118195995Y-38906222D01*
X118214772Y-38951555D01*
X118229016Y-38998510D01*
X118238588Y-39046635D01*
X118243398Y-39095466D01*
X118243398Y-39120000D01*
X118244000Y-39120000D01*
X118244000Y-39620000D01*
X118243398Y-39620000D01*
X118243398Y-39644534D01*
X118238588Y-39693365D01*
X118229016Y-39741490D01*
X118214772Y-39788445D01*
X118195995Y-39833778D01*
X118172864Y-39877051D01*
X118145604Y-39917850D01*
X118114476Y-39955779D01*
X118079779Y-39990476D01*
X118041850Y-40021604D01*
X118001051Y-40048864D01*
X117957778Y-40071995D01*
X117912445Y-40090772D01*
X117865490Y-40105016D01*
X117817365Y-40114588D01*
X117768534Y-40119398D01*
X117744000Y-40119398D01*
X117744000Y-40120000D01*
X117244000Y-40120000D01*
X117244000Y-38620000D01*
X117244000Y-38620000D01*
G37*
D14*
X116444000Y-39370000D03*
D10*
G36*
X116444000Y-40119398D02*
G01*
X116419466Y-40119398D01*
X116370635Y-40114588D01*
X116322510Y-40105016D01*
X116275555Y-40090772D01*
X116230222Y-40071995D01*
X116186949Y-40048864D01*
X116146150Y-40021604D01*
X116108221Y-39990476D01*
X116073524Y-39955779D01*
X116042396Y-39917850D01*
X116015136Y-39877051D01*
X115992005Y-39833778D01*
X115973228Y-39788445D01*
X115958984Y-39741490D01*
X115949412Y-39693365D01*
X115944602Y-39644534D01*
X115944602Y-39620000D01*
X115944000Y-39620000D01*
X115944000Y-39120000D01*
X115944602Y-39120000D01*
X115944602Y-39095466D01*
X115949412Y-39046635D01*
X115958984Y-38998510D01*
X115973228Y-38951555D01*
X115992005Y-38906222D01*
X116015136Y-38862949D01*
X116042396Y-38822150D01*
X116073524Y-38784221D01*
X116108221Y-38749524D01*
X116146150Y-38718396D01*
X116186949Y-38691136D01*
X116230222Y-38668005D01*
X116275555Y-38649228D01*
X116322510Y-38634984D01*
X116370635Y-38625412D01*
X116419466Y-38620602D01*
X116444000Y-38620602D01*
X116444000Y-38620000D01*
X116944000Y-38620000D01*
X116944000Y-40120000D01*
X116444000Y-40120000D01*
X116444000Y-40119398D01*
X116444000Y-40119398D01*
G37*
D13*
X117304820Y-42224960D03*
D15*
X116840000Y-33020000D03*
D16*
X116840000Y-30480000D03*
X119380000Y-33020000D03*
X119380000Y-30480000D03*
X121920000Y-33020000D03*
X121920000Y-30480000D03*
X124460000Y-33020000D03*
X124460000Y-30480000D03*
X127000000Y-33020000D03*
X127000000Y-30480000D03*
X129540000Y-33020000D03*
X129540000Y-30480000D03*
X132080000Y-33020000D03*
X132080000Y-30480000D03*
X134620000Y-33020000D03*
X134620000Y-30480000D03*
X137160000Y-33020000D03*
X137160000Y-30480000D03*
X139700000Y-33020000D03*
X139700000Y-30480000D03*
X142240000Y-33020000D03*
X142240000Y-30480000D03*
X144780000Y-33020000D03*
X144780000Y-30480000D03*
D17*
X174503200Y-30091400D03*
X181503200Y-30091400D03*
D18*
X180503200Y-32791400D03*
X175503200Y-32791400D03*
D17*
X185491000Y-80424000D03*
X178491000Y-80424000D03*
D18*
X179491000Y-77724000D03*
X184491000Y-77724000D03*
D17*
X161346000Y-30066000D03*
X168346000Y-30066000D03*
D18*
X167346000Y-32766000D03*
X162346000Y-32766000D03*
D19*
X161112200Y-67170300D03*
D20*
X162382200Y-64630300D03*
X163652200Y-67170300D03*
X164922200Y-64630300D03*
X166192200Y-67170300D03*
X167462200Y-64630300D03*
X168732200Y-67170300D03*
X170002200Y-64630300D03*
D21*
X171882200Y-76890300D03*
X169342200Y-78410300D03*
X161772200Y-76890300D03*
X159232200Y-78410300D03*
D22*
X157782200Y-70460300D03*
X173332200Y-70460300D03*
D15*
X88900000Y-78740000D03*
D16*
X88900000Y-76200000D03*
X91440000Y-78740000D03*
X91440000Y-76200000D03*
X93980000Y-78740000D03*
X93980000Y-76200000D03*
X96520000Y-78740000D03*
X96520000Y-76200000D03*
X99060000Y-78740000D03*
X99060000Y-76200000D03*
X101600000Y-78740000D03*
X101600000Y-76200000D03*
X104140000Y-78740000D03*
X104140000Y-76200000D03*
X106680000Y-78740000D03*
X106680000Y-76200000D03*
X109220000Y-78740000D03*
X109220000Y-76200000D03*
X111760000Y-78740000D03*
X111760000Y-76200000D03*
D15*
X88900000Y-73660000D03*
D16*
X88900000Y-71120000D03*
X91440000Y-73660000D03*
X91440000Y-71120000D03*
X93980000Y-73660000D03*
X93980000Y-71120000D03*
X96520000Y-73660000D03*
X96520000Y-71120000D03*
X99060000Y-73660000D03*
X99060000Y-71120000D03*
X101600000Y-73660000D03*
X101600000Y-71120000D03*
X104140000Y-73660000D03*
X104140000Y-71120000D03*
X106680000Y-73660000D03*
X106680000Y-71120000D03*
X109220000Y-73660000D03*
X109220000Y-71120000D03*
X111760000Y-73660000D03*
X111760000Y-71120000D03*
D15*
X101942900Y-38658800D03*
D16*
X104482900Y-38658800D03*
D15*
X177302160Y-36695380D03*
D16*
X177302160Y-39235380D03*
X174762160Y-36695380D03*
X174762160Y-39235380D03*
D10*
G36*
X76874504Y-71861204D02*
G01*
X76898773Y-71864804D01*
X76922571Y-71870765D01*
X76945671Y-71879030D01*
X76967849Y-71889520D01*
X76988893Y-71902133D01*
X77008598Y-71916747D01*
X77026777Y-71933223D01*
X77043253Y-71951402D01*
X77057867Y-71971107D01*
X77070480Y-71992151D01*
X77080970Y-72014329D01*
X77089235Y-72037429D01*
X77095196Y-72061227D01*
X77098796Y-72085496D01*
X77100000Y-72110000D01*
X77100000Y-75210000D01*
X77098796Y-75234504D01*
X77095196Y-75258773D01*
X77089235Y-75282571D01*
X77080970Y-75305671D01*
X77070480Y-75327849D01*
X77057867Y-75348893D01*
X77043253Y-75368598D01*
X77026777Y-75386777D01*
X77008598Y-75403253D01*
X76988893Y-75417867D01*
X76967849Y-75430480D01*
X76945671Y-75440970D01*
X76922571Y-75449235D01*
X76898773Y-75455196D01*
X76874504Y-75458796D01*
X76850000Y-75460000D01*
X75550000Y-75460000D01*
X75525496Y-75458796D01*
X75501227Y-75455196D01*
X75477429Y-75449235D01*
X75454329Y-75440970D01*
X75432151Y-75430480D01*
X75411107Y-75417867D01*
X75391402Y-75403253D01*
X75373223Y-75386777D01*
X75356747Y-75368598D01*
X75342133Y-75348893D01*
X75329520Y-75327849D01*
X75319030Y-75305671D01*
X75310765Y-75282571D01*
X75304804Y-75258773D01*
X75301204Y-75234504D01*
X75300000Y-75210000D01*
X75300000Y-72110000D01*
X75301204Y-72085496D01*
X75304804Y-72061227D01*
X75310765Y-72037429D01*
X75319030Y-72014329D01*
X75329520Y-71992151D01*
X75342133Y-71971107D01*
X75356747Y-71951402D01*
X75373223Y-71933223D01*
X75391402Y-71916747D01*
X75411107Y-71902133D01*
X75432151Y-71889520D01*
X75454329Y-71879030D01*
X75477429Y-71870765D01*
X75501227Y-71864804D01*
X75525496Y-71861204D01*
X75550000Y-71860000D01*
X76850000Y-71860000D01*
X76874504Y-71861204D01*
X76874504Y-71861204D01*
G37*
D23*
X76200000Y-73660000D03*
D24*
X79700000Y-73660000D03*
D15*
X116840000Y-78740000D03*
D16*
X116840000Y-76200000D03*
X119380000Y-78740000D03*
X119380000Y-76200000D03*
X121920000Y-78740000D03*
X121920000Y-76200000D03*
X124460000Y-78740000D03*
X124460000Y-76200000D03*
X127000000Y-78740000D03*
X127000000Y-76200000D03*
X129540000Y-78740000D03*
X129540000Y-76200000D03*
X132080000Y-78740000D03*
X132080000Y-76200000D03*
X134620000Y-78740000D03*
X134620000Y-76200000D03*
X137160000Y-78740000D03*
X137160000Y-76200000D03*
X139700000Y-78740000D03*
X139700000Y-76200000D03*
X142240000Y-78740000D03*
X142240000Y-76200000D03*
X144780000Y-78740000D03*
X144780000Y-76200000D03*
X187960000Y-68580000D03*
X185420000Y-68580000D03*
X187960000Y-66040000D03*
X185420000Y-66040000D03*
X187960000Y-63500000D03*
X185420000Y-63500000D03*
X187960000Y-60960000D03*
X185420000Y-60960000D03*
X187960000Y-58420000D03*
X185420000Y-58420000D03*
X187960000Y-55880000D03*
X185420000Y-55880000D03*
X187960000Y-53340000D03*
X185420000Y-53340000D03*
X187960000Y-50800000D03*
X185420000Y-50800000D03*
X187960000Y-48260000D03*
X185420000Y-48260000D03*
X187960000Y-45720000D03*
X185420000Y-45720000D03*
X187960000Y-43180000D03*
X185420000Y-43180000D03*
X187960000Y-40640000D03*
D15*
X185420000Y-40640000D03*
D10*
G36*
X94034504Y-33761204D02*
G01*
X94058773Y-33764804D01*
X94082571Y-33770765D01*
X94105671Y-33779030D01*
X94127849Y-33789520D01*
X94148893Y-33802133D01*
X94168598Y-33816747D01*
X94186777Y-33833223D01*
X94203253Y-33851402D01*
X94217867Y-33871107D01*
X94230480Y-33892151D01*
X94240970Y-33914329D01*
X94249235Y-33937429D01*
X94255196Y-33961227D01*
X94258796Y-33985496D01*
X94260000Y-34010000D01*
X94260000Y-37110000D01*
X94258796Y-37134504D01*
X94255196Y-37158773D01*
X94249235Y-37182571D01*
X94240970Y-37205671D01*
X94230480Y-37227849D01*
X94217867Y-37248893D01*
X94203253Y-37268598D01*
X94186777Y-37286777D01*
X94168598Y-37303253D01*
X94148893Y-37317867D01*
X94127849Y-37330480D01*
X94105671Y-37340970D01*
X94082571Y-37349235D01*
X94058773Y-37355196D01*
X94034504Y-37358796D01*
X94010000Y-37360000D01*
X92710000Y-37360000D01*
X92685496Y-37358796D01*
X92661227Y-37355196D01*
X92637429Y-37349235D01*
X92614329Y-37340970D01*
X92592151Y-37330480D01*
X92571107Y-37317867D01*
X92551402Y-37303253D01*
X92533223Y-37286777D01*
X92516747Y-37268598D01*
X92502133Y-37248893D01*
X92489520Y-37227849D01*
X92479030Y-37205671D01*
X92470765Y-37182571D01*
X92464804Y-37158773D01*
X92461204Y-37134504D01*
X92460000Y-37110000D01*
X92460000Y-34010000D01*
X92461204Y-33985496D01*
X92464804Y-33961227D01*
X92470765Y-33937429D01*
X92479030Y-33914329D01*
X92489520Y-33892151D01*
X92502133Y-33871107D01*
X92516747Y-33851402D01*
X92533223Y-33833223D01*
X92551402Y-33816747D01*
X92571107Y-33802133D01*
X92592151Y-33789520D01*
X92614329Y-33779030D01*
X92637429Y-33770765D01*
X92661227Y-33764804D01*
X92685496Y-33761204D01*
X92710000Y-33760000D01*
X94010000Y-33760000D01*
X94034504Y-33761204D01*
X94034504Y-33761204D01*
G37*
D23*
X93360000Y-35560000D03*
D24*
X89860000Y-35560000D03*
X86360000Y-35560000D03*
X82860000Y-35560000D03*
X79360000Y-35560000D03*
X75860000Y-35560000D03*
D25*
X61294944Y-33955056D03*
X62992000Y-34658000D03*
X64689056Y-33955056D03*
X65392000Y-32258000D03*
X64689056Y-30560944D03*
X62992000Y-29858000D03*
X61294944Y-30560944D03*
X60592000Y-32258000D03*
D26*
X62992000Y-32258000D03*
X62992000Y-78232000D03*
D25*
X65392000Y-78232000D03*
X64689056Y-79929056D03*
X62992000Y-80632000D03*
X61294944Y-79929056D03*
X60592000Y-78232000D03*
X61294944Y-76534944D03*
X62992000Y-75832000D03*
X64689056Y-76534944D03*
X188294944Y-33955056D03*
X189992000Y-34658000D03*
X191689056Y-33955056D03*
X192392000Y-32258000D03*
X191689056Y-30560944D03*
X189992000Y-29858000D03*
X188294944Y-30560944D03*
X187592000Y-32258000D03*
D26*
X189992000Y-32258000D03*
X189992000Y-78232000D03*
D25*
X192392000Y-78232000D03*
X191689056Y-79929056D03*
X189992000Y-80632000D03*
X188294944Y-79929056D03*
X187592000Y-78232000D03*
X188294944Y-76534944D03*
X189992000Y-75832000D03*
X191689056Y-76534944D03*
X146080480Y-70073280D03*
X137967720Y-56436260D03*
X139629611Y-41456185D03*
X106293920Y-61153040D03*
X124741940Y-53964840D03*
X131993640Y-69565520D03*
X109166660Y-36558220D03*
X68684140Y-57914540D03*
X70520560Y-57914540D03*
X72425560Y-57937400D03*
X74442320Y-57942480D03*
X71120000Y-66116200D03*
X69761100Y-64693800D03*
X71132700Y-63271400D03*
X69697600Y-61620400D03*
X74422000Y-53340000D03*
X74422000Y-63500000D03*
X74422000Y-61976000D03*
X61976000Y-53340000D03*
X59436000Y-53340000D03*
X68326000Y-53340000D03*
X71374000Y-53340000D03*
X65278000Y-53340000D03*
X59349000Y-72898000D03*
X59436000Y-61976000D03*
X59436000Y-57658000D03*
X59436000Y-67056000D03*
X59436000Y-64516000D03*
X59436000Y-69850000D03*
X59436000Y-59690000D03*
X59436000Y-55626000D03*
X63246000Y-72898000D03*
X63497420Y-69085420D03*
X63497420Y-71117420D03*
X60960000Y-72898000D03*
X62230000Y-67564000D03*
X106845098Y-52438300D03*
X137831260Y-68569140D03*
X135582420Y-68582300D03*
X153451560Y-31074360D03*
X152527000Y-42273220D03*
X181086760Y-45511720D03*
X111770160Y-55316120D03*
X122547620Y-39024800D03*
X121513360Y-39024800D03*
X119220220Y-39032420D03*
X123766080Y-57190140D03*
X69761100Y-67386200D03*
X115189000Y-39370000D03*
X124124720Y-46682662D03*
X120629440Y-51516040D03*
X101473000Y-55397400D03*
X167111680Y-41084501D03*
X174086398Y-45151160D03*
X117302280Y-46548040D03*
X135590280Y-53901340D03*
X124035820Y-45587920D03*
X148778200Y-71015860D03*
X148778200Y-73019920D03*
X141183360Y-69319140D03*
X137021094Y-42568970D03*
X141607540Y-39616140D03*
X143809720Y-39601140D03*
X137190480Y-59174620D03*
X119265700Y-54477920D03*
X103359504Y-42679482D03*
X109052360Y-59773820D03*
X106375200Y-53540660D03*
X130136900Y-69598540D03*
X181838600Y-64231520D03*
X141043660Y-61882020D03*
X69446140Y-56007000D03*
X67688460Y-55039260D03*
X67818000Y-61976000D03*
X67830700Y-67297300D03*
X65405000Y-63982600D03*
X67840620Y-64747380D03*
X68732400Y-64744600D03*
X66506720Y-65065280D03*
X123451620Y-55694580D03*
X134414260Y-71645780D03*
X135600200Y-70457300D03*
X136624060Y-71513700D03*
X141433360Y-72728900D03*
X150746460Y-65173860D03*
X149563060Y-63200520D03*
X155646120Y-31074360D03*
X156646880Y-42311320D03*
X160378140Y-38580060D03*
X160957260Y-39540180D03*
X167640000Y-60764420D03*
X168750692Y-60811968D03*
X179049680Y-40147240D03*
X110454440Y-48780700D03*
X111749840Y-53022500D03*
X122512060Y-37149800D03*
X121531620Y-37149800D03*
X119204980Y-37157420D03*
X69189600Y-68707000D03*
X66522600Y-64058800D03*
X66522600Y-63042800D03*
X65405000Y-63093600D03*
X106849760Y-48378960D03*
X101269800Y-44729400D03*
X104835960Y-41221660D03*
X175921722Y-46134673D03*
X124180600Y-50990500D03*
X101473000Y-59232800D03*
X109743000Y-42911000D03*
X109093000Y-45085000D03*
X119413020Y-41744900D03*
X128135380Y-62501780D03*
X121074180Y-59108340D03*
X150749000Y-61386720D03*
X67256660Y-50591720D03*
X166032180Y-44404280D03*
X179664360Y-48531780D03*
X192529260Y-57061100D03*
X138653520Y-66146680D03*
X121024921Y-66174665D03*
X138709400Y-64160400D03*
X123058389Y-64231059D03*
X137937670Y-73484310D03*
X126329440Y-73553320D03*
X139174913Y-72377796D03*
X135041640Y-60078620D03*
X139788900Y-74254360D03*
X138176000Y-62611000D03*
X141287492Y-73787000D03*
X139776198Y-62382400D03*
X107010200Y-59410600D03*
X106941620Y-56073040D03*
X126139367Y-35760233D03*
X127381000Y-37084000D03*
X136144000Y-47134780D03*
X125737620Y-48107600D03*
X141038580Y-45633640D03*
X172935900Y-48315880D03*
X153723340Y-62478920D03*
X165806118Y-48295560D03*
X162441798Y-46859280D03*
X164362373Y-46054823D03*
X160294320Y-42092880D03*
X160294320Y-45209460D03*
X145806160Y-37203380D03*
X165308280Y-41236900D03*
X176735740Y-66438780D03*
X176735740Y-69347080D03*
X176735740Y-67497960D03*
X176735740Y-68473320D03*
X182753000Y-32131000D03*
X184658000Y-31115000D03*
X184658000Y-29337000D03*
X182880000Y-31115000D03*
X182880000Y-29337000D03*
X183769000Y-30226000D03*
X186055000Y-31115000D03*
X186055000Y-29337000D03*
X185293000Y-30226000D03*
X171173140Y-31635700D03*
X172509180Y-31635700D03*
X169857420Y-31658560D03*
X169903140Y-28829000D03*
X172509180Y-28806140D03*
X171084240Y-28829000D03*
X171173140Y-30299660D03*
X172486320Y-30276800D03*
X169857420Y-30276800D03*
X107155979Y-44450000D03*
X106056186Y-46084941D03*
X153055320Y-71264000D03*
X153055320Y-70214000D03*
X155755732Y-66182632D03*
X155013268Y-65440168D03*
X174876460Y-64190880D03*
X130822700Y-43402511D03*
X129443480Y-44127511D03*
X127835660Y-44594780D03*
X126682500Y-46073060D03*
X127370840Y-47645320D03*
X119171720Y-44091860D03*
X116476780Y-53784500D03*
X124218700Y-49055020D03*
X127351370Y-53952990D03*
X129313938Y-53662580D03*
X131307840Y-53710840D03*
X131135120Y-51925220D03*
X132341620Y-50787300D03*
X132417820Y-49095660D03*
X134495540Y-48280320D03*
X136032240Y-49096228D03*
X137388600Y-38227000D03*
X135518740Y-38210376D03*
X132483860Y-41502490D03*
X130900010Y-41471680D03*
X97403920Y-53540660D03*
X96921320Y-42821860D03*
X93957180Y-42882820D03*
X93451680Y-48534320D03*
X84879180Y-57967880D03*
X81922620Y-57937400D03*
X83365340Y-57937400D03*
X83898740Y-50322480D03*
X81904840Y-50441860D03*
X89916000Y-61087000D03*
X97309940Y-61153040D03*
X93451680Y-52392580D03*
X80601820Y-53266340D03*
X82931240Y-53284360D03*
X85298520Y-53276740D03*
X86144100Y-54122320D03*
X87049360Y-55027580D03*
X87039200Y-57629040D03*
X87039200Y-58497720D03*
X88767920Y-56164480D03*
X87068660Y-61188600D03*
X152976580Y-77896720D03*
D27*
X116444000Y-39370000D02*
X115189000Y-39370000D01*
X138653520Y-66146680D02*
X121052906Y-66146680D01*
X121052906Y-66146680D02*
X121024921Y-66174665D01*
X138709400Y-64160400D02*
X123129048Y-64160400D01*
X123129048Y-64160400D02*
X123058389Y-64231059D01*
X126398450Y-73484310D02*
X126329440Y-73553320D01*
X137937670Y-73484310D02*
X126398450Y-73484310D01*
X137821135Y-63423800D02*
X135041640Y-60644305D01*
X139115800Y-63423800D02*
X137821135Y-63423800D01*
X135041640Y-60644305D02*
X135041640Y-60078620D01*
X139467934Y-71519090D02*
X139467934Y-63775934D01*
X139174913Y-71812111D02*
X139467934Y-71519090D01*
X139467934Y-63775934D02*
X139115800Y-63423800D01*
X139174913Y-72377796D02*
X139174913Y-71812111D01*
X138939411Y-62611000D02*
X138741685Y-62611000D01*
X138741685Y-62611000D02*
X138176000Y-62611000D01*
X139918871Y-63590460D02*
X138939411Y-62611000D01*
X139918871Y-73558704D02*
X139918871Y-63590460D01*
X139788900Y-73688675D02*
X139918871Y-73558704D01*
X139788900Y-74254360D02*
X139788900Y-73688675D01*
X140383260Y-62989462D02*
X140176197Y-62782399D01*
X140176197Y-62782399D02*
X139776198Y-62382400D01*
X140383260Y-72882768D02*
X140383260Y-62989462D01*
X141287492Y-73787000D02*
X140383260Y-72882768D01*
X107010200Y-59410600D02*
X107010200Y-56141620D01*
X107010200Y-56141620D02*
X106941620Y-56073040D01*
X127381000Y-37001866D02*
X126139367Y-35760233D01*
X127381000Y-37084000D02*
X127381000Y-37001866D01*
X125053421Y-36153421D02*
X125053421Y-47423401D01*
X125337621Y-47707601D02*
X125737620Y-48107600D01*
X121920000Y-33020000D02*
X125053421Y-36153421D01*
X125053421Y-47423401D02*
X125337621Y-47707601D01*
X140638581Y-46033639D02*
X141038580Y-45633640D01*
X139537440Y-47134780D02*
X140638581Y-46033639D01*
X136144000Y-47134780D02*
X139537440Y-47134780D01*
X125737620Y-48107600D02*
X130309620Y-52679600D01*
X146514820Y-55270400D02*
X153323341Y-62078921D01*
X130309620Y-54477920D02*
X131102100Y-55270400D01*
X131102100Y-55270400D02*
X146514820Y-55270400D01*
X130309620Y-52679600D02*
X130309620Y-54477920D01*
X153323341Y-62078921D02*
X153723340Y-62478920D01*
X172935900Y-48315880D02*
X165826438Y-48315880D01*
X165826438Y-48315880D02*
X165806118Y-48295560D01*
X189135001Y-62324999D02*
X187960000Y-63500000D01*
X189135001Y-52775999D02*
X189135001Y-62324999D01*
X188334003Y-51975001D02*
X189135001Y-52775999D01*
X179540513Y-51975001D02*
X188334003Y-51975001D01*
X174424792Y-46859280D02*
X179540513Y-51975001D01*
X162441798Y-46859280D02*
X174424792Y-46859280D01*
X186269999Y-64349999D02*
X185420000Y-63500000D01*
X186595001Y-64675001D02*
X186269999Y-64349999D01*
X188524001Y-64675001D02*
X186595001Y-64675001D01*
X174256745Y-46054823D02*
X177826921Y-49624999D01*
X164362373Y-46054823D02*
X174256745Y-46054823D01*
X177826921Y-49624999D02*
X188524001Y-49624999D01*
X188524001Y-49624999D02*
X189598300Y-50699298D01*
X189598300Y-50699298D02*
X189598300Y-63600702D01*
X189598300Y-63600702D02*
X188524001Y-64675001D01*
X160294320Y-42092880D02*
X160294320Y-45209460D01*
X164742595Y-41236900D02*
X165308280Y-41236900D01*
X149839680Y-41236900D02*
X164742595Y-41236900D01*
X145806160Y-37203380D02*
X149839680Y-41236900D01*
X184658000Y-31115000D02*
X182880000Y-31115000D01*
X182880000Y-31115000D02*
X183769000Y-30226000D01*
X184658000Y-31115000D02*
X186055000Y-31115000D01*
X184658000Y-31115000D02*
X184658000Y-30861000D01*
X184658000Y-30861000D02*
X185293000Y-30226000D01*
X171173140Y-31635700D02*
X172509180Y-31635700D01*
X169857420Y-28874720D02*
X169903140Y-28829000D01*
X172509180Y-31635700D02*
X172509180Y-30299660D01*
X172509180Y-30299660D02*
X172486320Y-30276800D01*
X169857420Y-31658560D02*
X169857420Y-30276800D01*
X169857420Y-30276800D02*
X169857420Y-28874720D01*
D28*
X88900000Y-71120000D02*
X112712500Y-71120000D01*
X114305080Y-79890620D02*
X115534440Y-81119980D01*
X114305080Y-72712580D02*
X114305080Y-79890620D01*
X112712500Y-71120000D02*
X114305080Y-72712580D01*
X171610020Y-81119980D02*
X180340000Y-72390000D01*
X145434022Y-81119980D02*
X145461962Y-81147920D01*
X115534440Y-81119980D02*
X145434022Y-81119980D01*
X145461962Y-81147920D02*
X146679920Y-81147920D01*
X183769000Y-31958280D02*
X183769000Y-30226000D01*
X183769000Y-36522660D02*
X183769000Y-31958280D01*
X185127900Y-37881560D02*
X183769000Y-36522660D01*
X189969140Y-37881560D02*
X185127900Y-37881560D01*
X190929260Y-38841680D02*
X189969140Y-37881560D01*
X184774840Y-72293480D02*
X189293500Y-72293480D01*
X189293500Y-72293480D02*
X190929260Y-70657720D01*
X190929260Y-70657720D02*
X190929260Y-38841680D01*
D27*
X106056186Y-45549793D02*
X106056186Y-46084941D01*
X107155979Y-44450000D02*
X106056186Y-45549793D01*
D29*
X151854960Y-70063640D02*
X151854960Y-65664860D01*
X153055320Y-71264000D02*
X151854960Y-70063640D01*
X151854960Y-65664860D02*
X155344640Y-62175180D01*
X167462200Y-63792100D02*
X167462200Y-64630300D01*
X155344640Y-62175180D02*
X161515279Y-62175180D01*
X166339520Y-62669420D02*
X167462200Y-63792100D01*
X161515279Y-62175180D02*
X162009519Y-62669420D01*
X162009519Y-62669420D02*
X166339520Y-62669420D01*
X163652200Y-64948499D02*
X163652200Y-67170300D01*
X163632201Y-64928500D02*
X163652200Y-64948499D01*
X163632201Y-63678121D02*
X163632201Y-64928500D01*
X152641717Y-70214000D02*
X152304960Y-69877243D01*
X152304960Y-69877243D02*
X152304960Y-65851260D01*
X163052760Y-63098680D02*
X163632201Y-63678121D01*
X153055320Y-70214000D02*
X152641717Y-70214000D01*
X161328881Y-62625180D02*
X161802381Y-63098680D01*
X152304960Y-65851260D02*
X155531040Y-62625180D01*
X161802381Y-63098680D02*
X163052760Y-63098680D01*
X155531040Y-62625180D02*
X161328881Y-62625180D01*
X160657540Y-64630300D02*
X162382200Y-64630300D01*
X158977540Y-66310300D02*
X160657540Y-64630300D01*
X155463268Y-66475096D02*
X155463268Y-66928328D01*
X155755732Y-66182632D02*
X155463268Y-66475096D01*
X155463268Y-66928328D02*
X156125400Y-67590460D01*
X156125400Y-67590460D02*
X156645120Y-67590460D01*
X156645120Y-67590460D02*
X157925280Y-66310300D01*
X157925280Y-66310300D02*
X158977540Y-66310300D01*
X155013268Y-67114728D02*
X155939000Y-68040460D01*
X155013268Y-65440168D02*
X155013268Y-67114728D01*
X155939000Y-68040460D02*
X156831520Y-68040460D01*
X160702200Y-66760300D02*
X161112200Y-67170300D01*
X158111680Y-66760300D02*
X160702200Y-66760300D01*
X156831520Y-68040460D02*
X158111680Y-66760300D01*
D27*
X169396141Y-65947239D02*
X173120101Y-65947239D01*
X169173942Y-65725040D02*
X169396141Y-65947239D01*
X168254462Y-65725040D02*
X169173942Y-65725040D01*
X174476461Y-64590879D02*
X174876460Y-64190880D01*
X167759201Y-66220301D02*
X168254462Y-65725040D01*
X167142199Y-66220301D02*
X167759201Y-66220301D01*
X173120101Y-65947239D02*
X174476461Y-64590879D01*
X166192200Y-67170300D02*
X167142199Y-66220301D01*
X129540000Y-34222081D02*
X129540000Y-33020000D01*
X129599081Y-34222081D02*
X129540000Y-34222081D01*
X130175000Y-34798000D02*
X129599081Y-34222081D01*
X130822700Y-43402511D02*
X130175000Y-42754811D01*
X130175000Y-42754811D02*
X130175000Y-34798000D01*
X127849999Y-31329999D02*
X127000000Y-30480000D01*
X129443480Y-43350180D02*
X129667000Y-43126660D01*
X129667000Y-43126660D02*
X129667000Y-35643820D01*
X129443480Y-44127511D02*
X129443480Y-43350180D01*
X129667000Y-35643820D02*
X128259840Y-34236660D01*
X128259840Y-31739840D02*
X127849999Y-31329999D01*
X128259840Y-34236660D02*
X128259840Y-31739840D01*
X127835660Y-44594780D02*
X127835660Y-43573982D01*
X127835660Y-43573982D02*
X129170022Y-42239620D01*
X127000000Y-34222081D02*
X127000000Y-33020000D01*
X129170022Y-36392103D02*
X127000000Y-34222081D01*
X129170022Y-42239620D02*
X129170022Y-36392103D01*
X126682500Y-44090731D02*
X126682500Y-45507375D01*
X128720011Y-42053220D02*
X126682500Y-44090731D01*
X126682500Y-45507375D02*
X126682500Y-46073060D01*
X125760010Y-33683600D02*
X128720011Y-36643600D01*
X125760010Y-31780010D02*
X125760010Y-33683600D01*
X128720011Y-36643600D02*
X128720011Y-42053220D01*
X124460000Y-30480000D02*
X125760010Y-31780010D01*
X126805155Y-47645320D02*
X127370840Y-47645320D01*
X125835672Y-46675837D02*
X126805155Y-47645320D01*
X128270000Y-41866820D02*
X125835672Y-44301148D01*
X124460000Y-33020000D02*
X128270000Y-36830000D01*
X125835672Y-44301148D02*
X125835672Y-46675837D01*
X128270000Y-36830000D02*
X128270000Y-41866820D01*
X112841160Y-30967680D02*
X111966161Y-31842679D01*
X115846860Y-44091860D02*
X118606035Y-44091860D01*
X118606035Y-44091860D02*
X119171720Y-44091860D01*
X111966161Y-40211161D02*
X115846860Y-44091860D01*
X111966161Y-31842679D02*
X111966161Y-40211161D01*
X121206260Y-49055020D02*
X123653015Y-49055020D01*
X123653015Y-49055020D02*
X124218700Y-49055020D01*
X116476780Y-53784500D02*
X121206260Y-49055020D01*
X139407795Y-75024999D02*
X138776855Y-74394059D01*
X125088789Y-74394059D02*
X120299911Y-69605181D01*
X138776855Y-74394059D02*
X125088789Y-74394059D01*
X120299911Y-69605181D02*
X120299911Y-62417529D01*
X142240000Y-76200000D02*
X141064999Y-75024999D01*
X127351370Y-55366070D02*
X127351370Y-54518675D01*
X120299911Y-62417529D02*
X127351370Y-55366070D01*
X127351370Y-54518675D02*
X127351370Y-53952990D01*
X141064999Y-75024999D02*
X139407795Y-75024999D01*
X119849900Y-69791581D02*
X119849900Y-62231130D01*
X139700000Y-76200000D02*
X138344070Y-74844070D01*
X126606300Y-53672740D02*
X127081280Y-53197760D01*
X138344070Y-74844070D02*
X124902389Y-74844070D01*
X128849118Y-53197760D02*
X128913939Y-53262581D01*
X128913939Y-53262581D02*
X129313938Y-53662580D01*
X127081280Y-53197760D02*
X128849118Y-53197760D01*
X126606300Y-55474730D02*
X126606300Y-53672740D01*
X119849900Y-62231130D02*
X126606300Y-55474730D01*
X124902389Y-74844070D02*
X119849900Y-69791581D01*
X131307840Y-53710840D02*
X132514725Y-52503955D01*
X169924030Y-60960000D02*
X184217919Y-60960000D01*
X184217919Y-60960000D02*
X185420000Y-60960000D01*
X165603104Y-56639075D02*
X169924030Y-60960000D01*
X157259200Y-56639075D02*
X165603104Y-56639075D01*
X153124085Y-52503955D02*
X157259200Y-56639075D01*
X132514725Y-52503955D02*
X153124085Y-52503955D01*
X131135120Y-51925220D02*
X134782560Y-51925220D01*
X134782560Y-51925220D02*
X134911284Y-52053944D01*
X134911284Y-52053944D02*
X153310484Y-52053944D01*
X153310484Y-52053944D02*
X157445600Y-56189064D01*
X157445600Y-56189064D02*
X165789503Y-56189064D01*
X165789503Y-56189064D02*
X169385438Y-59784999D01*
X169385438Y-59784999D02*
X186784999Y-59784999D01*
X186784999Y-59784999D02*
X187110001Y-60110001D01*
X187110001Y-60110001D02*
X187960000Y-60960000D01*
X184217919Y-58420000D02*
X185420000Y-58420000D01*
X168656849Y-58420000D02*
X184217919Y-58420000D01*
X165975902Y-55739053D02*
X168656849Y-58420000D01*
X157632000Y-55739053D02*
X165975902Y-55739053D01*
X153496883Y-51603933D02*
X157632000Y-55739053D01*
X135294393Y-51603933D02*
X153496883Y-51603933D01*
X134477760Y-50787300D02*
X135294393Y-51603933D01*
X132341620Y-50787300D02*
X134477760Y-50787300D01*
X187110001Y-57570001D02*
X187960000Y-58420000D01*
X186595001Y-57055001D02*
X187110001Y-57570001D01*
X167928261Y-57055001D02*
X186595001Y-57055001D01*
X166162302Y-55289042D02*
X167928261Y-57055001D01*
X157818400Y-55289042D02*
X166162302Y-55289042D01*
X153683282Y-51153922D02*
X157818400Y-55289042D01*
X135652102Y-51153922D02*
X153683282Y-51153922D01*
X133593840Y-49095660D02*
X135652102Y-51153922D01*
X132417820Y-49095660D02*
X133593840Y-49095660D01*
X136353446Y-50703911D02*
X153869681Y-50703911D01*
X134495540Y-48280320D02*
X134495540Y-48846005D01*
X134495540Y-48846005D02*
X136353446Y-50703911D01*
X153869681Y-50703911D02*
X158004800Y-54839031D01*
X158004800Y-54839031D02*
X166348701Y-54839031D01*
X184217919Y-55880000D02*
X185420000Y-55880000D01*
X167389670Y-55880000D02*
X184217919Y-55880000D01*
X166348701Y-54839031D02*
X167389670Y-55880000D01*
X136432239Y-49496227D02*
X136032240Y-49096228D01*
X137161972Y-50225960D02*
X136432239Y-49496227D01*
X154028140Y-50225960D02*
X137161972Y-50225960D01*
X158191200Y-54389020D02*
X154028140Y-50225960D01*
X178970940Y-54389020D02*
X158191200Y-54389020D01*
X179096921Y-54515001D02*
X178970940Y-54389020D01*
X186595001Y-54515001D02*
X179096921Y-54515001D01*
X187960000Y-55880000D02*
X186595001Y-54515001D01*
X146103340Y-34129980D02*
X142006320Y-38227000D01*
X142006320Y-38227000D02*
X137954285Y-38227000D01*
X144780000Y-30480000D02*
X146103340Y-31803340D01*
X137954285Y-38227000D02*
X137388600Y-38227000D01*
X146103340Y-31803340D02*
X146103340Y-34129980D01*
X135481060Y-37373560D02*
X135481060Y-38172696D01*
X136481820Y-36372800D02*
X135481060Y-37373560D01*
X142902940Y-36372800D02*
X136481820Y-36372800D01*
X135481060Y-38172696D02*
X135518740Y-38210376D01*
X144780000Y-33020000D02*
X144780000Y-34495740D01*
X144780000Y-34495740D02*
X142902940Y-36372800D01*
X133339391Y-31760609D02*
X134620000Y-30480000D01*
X133339391Y-36039611D02*
X133339391Y-31760609D01*
X132483860Y-36895142D02*
X133339391Y-36039611D01*
X132483860Y-41502490D02*
X132483860Y-36895142D01*
X130900010Y-31659990D02*
X130900010Y-40905995D01*
X132080000Y-30480000D02*
X130900010Y-31659990D01*
X130900010Y-40905995D02*
X130900010Y-41471680D01*
X170771240Y-76890300D02*
X170157140Y-76276200D01*
X166938960Y-76276200D02*
X164338000Y-78877160D01*
X171882200Y-76890300D02*
X170771240Y-76890300D01*
X164338000Y-78877160D02*
X160723580Y-78877160D01*
X170157140Y-76276200D02*
X166938960Y-76276200D01*
X160256720Y-78410300D02*
X159232200Y-78410300D01*
X160723580Y-78877160D02*
X160256720Y-78410300D01*
X155480941Y-76282159D02*
X156329380Y-77130598D01*
X154025456Y-76282159D02*
X155480941Y-76282159D01*
X152976580Y-77896720D02*
X152976580Y-77331035D01*
X152976580Y-77331035D02*
X154025456Y-76282159D01*
X156329380Y-77130598D02*
X156329380Y-78056740D01*
X156682940Y-78410300D02*
X159232200Y-78410300D01*
X156329380Y-78056740D02*
X156682940Y-78410300D01*
X117729000Y-39385000D02*
X117744000Y-39370000D01*
X117744000Y-39370000D02*
X117744000Y-36180000D01*
X119380000Y-34544000D02*
X119380000Y-33020000D01*
X117744000Y-36180000D02*
X119380000Y-34544000D01*
X117744000Y-40371567D02*
X117744000Y-40157160D01*
X117304820Y-42224960D02*
X117304820Y-40810747D01*
X117304820Y-40810747D02*
X117744000Y-40371567D01*
X117744000Y-39370000D02*
X117744000Y-40157160D01*
D30*
G36*
X186021980Y-71454558D02*
G01*
X186021980Y-79445066D01*
X185982824Y-79412932D01*
X185829774Y-79331125D01*
X185663705Y-79280748D01*
X185491000Y-79263738D01*
X185318294Y-79280748D01*
X185152225Y-79331125D01*
X184999175Y-79412932D01*
X184865025Y-79523025D01*
X184754932Y-79657176D01*
X184673125Y-79810226D01*
X184622748Y-79976295D01*
X184610000Y-80105728D01*
X184610000Y-80742273D01*
X184622748Y-80871706D01*
X184673125Y-81037775D01*
X184754933Y-81190825D01*
X184865026Y-81324975D01*
X184999176Y-81435068D01*
X185152226Y-81516875D01*
X185318295Y-81567252D01*
X185491000Y-81584262D01*
X185663706Y-81567252D01*
X185829775Y-81516875D01*
X185982825Y-81435068D01*
X186021980Y-81402935D01*
X186021980Y-82094000D01*
X145972791Y-82094000D01*
X145971571Y-80023455D01*
X147814940Y-80023455D01*
X147814940Y-80270865D01*
X147863208Y-80513522D01*
X147957887Y-80742099D01*
X148095341Y-80947813D01*
X148270287Y-81122759D01*
X148476001Y-81260213D01*
X148704578Y-81354892D01*
X148947235Y-81403160D01*
X149194645Y-81403160D01*
X149437302Y-81354892D01*
X149665879Y-81260213D01*
X149871593Y-81122759D01*
X150046539Y-80947813D01*
X150183993Y-80742099D01*
X150278672Y-80513522D01*
X150326940Y-80270865D01*
X150326940Y-80023455D01*
X152314940Y-80023455D01*
X152314940Y-80270865D01*
X152363208Y-80513522D01*
X152457887Y-80742099D01*
X152595341Y-80947813D01*
X152770287Y-81122759D01*
X152976001Y-81260213D01*
X153204578Y-81354892D01*
X153447235Y-81403160D01*
X153694645Y-81403160D01*
X153937302Y-81354892D01*
X154165879Y-81260213D01*
X154371593Y-81122759D01*
X154546539Y-80947813D01*
X154683993Y-80742099D01*
X154778672Y-80513522D01*
X154826940Y-80270865D01*
X154826940Y-80105728D01*
X177610000Y-80105728D01*
X177610000Y-80742273D01*
X177622748Y-80871706D01*
X177673125Y-81037775D01*
X177754933Y-81190825D01*
X177865026Y-81324975D01*
X177999176Y-81435068D01*
X178152226Y-81516875D01*
X178318295Y-81567252D01*
X178491000Y-81584262D01*
X178663706Y-81567252D01*
X178829775Y-81516875D01*
X178982825Y-81435068D01*
X179116975Y-81324975D01*
X179227068Y-81190825D01*
X179308875Y-81037775D01*
X179359252Y-80871706D01*
X179372000Y-80742273D01*
X179372000Y-80105727D01*
X179359252Y-79976294D01*
X179308875Y-79810225D01*
X179227068Y-79657175D01*
X179116975Y-79523025D01*
X178982824Y-79412932D01*
X178829774Y-79331125D01*
X178663705Y-79280748D01*
X178491000Y-79263738D01*
X178318294Y-79280748D01*
X178152225Y-79331125D01*
X177999175Y-79412932D01*
X177865025Y-79523025D01*
X177754932Y-79657176D01*
X177673125Y-79810226D01*
X177622748Y-79976295D01*
X177610000Y-80105728D01*
X154826940Y-80105728D01*
X154826940Y-80023455D01*
X154778672Y-79780798D01*
X154683993Y-79552221D01*
X154546539Y-79346507D01*
X154371593Y-79171561D01*
X154165879Y-79034107D01*
X153937302Y-78939428D01*
X153694645Y-78891160D01*
X153447235Y-78891160D01*
X153204578Y-78939428D01*
X152976001Y-79034107D01*
X152770287Y-79171561D01*
X152595341Y-79346507D01*
X152457887Y-79552221D01*
X152363208Y-79780798D01*
X152314940Y-80023455D01*
X150326940Y-80023455D01*
X150278672Y-79780798D01*
X150183993Y-79552221D01*
X150046539Y-79346507D01*
X149871593Y-79171561D01*
X149665879Y-79034107D01*
X149437302Y-78939428D01*
X149194645Y-78891160D01*
X148947235Y-78891160D01*
X148704578Y-78939428D01*
X148476001Y-79034107D01*
X148270287Y-79171561D01*
X148095341Y-79346507D01*
X147957887Y-79552221D01*
X147863208Y-79780798D01*
X147814940Y-80023455D01*
X145971571Y-80023455D01*
X145970999Y-79054464D01*
X145993188Y-78981318D01*
X146016956Y-78740000D01*
X145993188Y-78498682D01*
X145970628Y-78424311D01*
X145970093Y-77516219D01*
X146379940Y-77516219D01*
X146379940Y-77798101D01*
X146434933Y-78074567D01*
X146542804Y-78334993D01*
X146699410Y-78569369D01*
X146898731Y-78768690D01*
X147133107Y-78925296D01*
X147393533Y-79033167D01*
X147669999Y-79088160D01*
X147951881Y-79088160D01*
X148228347Y-79033167D01*
X148488773Y-78925296D01*
X148723149Y-78768690D01*
X148922470Y-78569369D01*
X149079076Y-78334993D01*
X149186947Y-78074567D01*
X149237624Y-77819798D01*
X152195580Y-77819798D01*
X152195580Y-77973642D01*
X152225593Y-78124529D01*
X152284467Y-78266662D01*
X152369938Y-78394579D01*
X152478721Y-78503362D01*
X152606638Y-78588833D01*
X152748771Y-78647707D01*
X152899658Y-78677720D01*
X153053502Y-78677720D01*
X153204389Y-78647707D01*
X153346522Y-78588833D01*
X153474439Y-78503362D01*
X153583222Y-78394579D01*
X153587920Y-78387548D01*
X153709410Y-78569369D01*
X153908731Y-78768690D01*
X154143107Y-78925296D01*
X154403533Y-79033167D01*
X154679999Y-79088160D01*
X154961881Y-79088160D01*
X155238347Y-79033167D01*
X155498773Y-78925296D01*
X155733149Y-78768690D01*
X155932470Y-78569369D01*
X156010155Y-78453106D01*
X156307568Y-78750520D01*
X156323413Y-78769827D01*
X156400461Y-78833059D01*
X156488365Y-78880045D01*
X156561547Y-78902244D01*
X156583746Y-78908978D01*
X156593634Y-78909952D01*
X156658086Y-78916300D01*
X156658093Y-78916300D01*
X156682939Y-78918747D01*
X156707785Y-78916300D01*
X158006540Y-78916300D01*
X158057114Y-79038397D01*
X158202229Y-79255576D01*
X158386924Y-79440271D01*
X158604103Y-79585386D01*
X158845420Y-79685343D01*
X159101600Y-79736300D01*
X159362800Y-79736300D01*
X159618980Y-79685343D01*
X159860297Y-79585386D01*
X160077476Y-79440271D01*
X160262171Y-79255576D01*
X160311932Y-79181104D01*
X160348208Y-79217380D01*
X160364053Y-79236687D01*
X160441101Y-79299919D01*
X160528260Y-79346507D01*
X160529005Y-79346905D01*
X160624387Y-79375838D01*
X160723580Y-79385608D01*
X160748434Y-79383160D01*
X164313154Y-79383160D01*
X164338000Y-79385607D01*
X164362846Y-79383160D01*
X164362854Y-79383160D01*
X164437193Y-79375838D01*
X164532575Y-79346905D01*
X164620479Y-79299919D01*
X164697527Y-79236687D01*
X164713376Y-79217375D01*
X165651051Y-78279700D01*
X168016200Y-78279700D01*
X168016200Y-78540900D01*
X168067157Y-78797080D01*
X168167114Y-79038397D01*
X168312229Y-79255576D01*
X168496924Y-79440271D01*
X168714103Y-79585386D01*
X168955420Y-79685343D01*
X169211600Y-79736300D01*
X169472800Y-79736300D01*
X169728980Y-79685343D01*
X169970297Y-79585386D01*
X170187476Y-79440271D01*
X170372171Y-79255576D01*
X170517286Y-79038397D01*
X170617243Y-78797080D01*
X170668200Y-78540900D01*
X170668200Y-78279700D01*
X170617243Y-78023520D01*
X170517286Y-77782203D01*
X170372171Y-77565024D01*
X170187476Y-77380329D01*
X169970297Y-77235214D01*
X169728980Y-77135257D01*
X169472800Y-77084300D01*
X169211600Y-77084300D01*
X168955420Y-77135257D01*
X168714103Y-77235214D01*
X168496924Y-77380329D01*
X168312229Y-77565024D01*
X168167114Y-77782203D01*
X168067157Y-78023520D01*
X168016200Y-78279700D01*
X165651051Y-78279700D01*
X167148552Y-76782200D01*
X169947549Y-76782200D01*
X170395868Y-77230520D01*
X170411713Y-77249827D01*
X170488761Y-77313059D01*
X170576665Y-77360045D01*
X170650842Y-77382546D01*
X170707114Y-77518397D01*
X170852229Y-77735576D01*
X171036924Y-77920271D01*
X171254103Y-78065386D01*
X171495420Y-78165343D01*
X171751600Y-78216300D01*
X172012800Y-78216300D01*
X172268980Y-78165343D01*
X172510297Y-78065386D01*
X172727476Y-77920271D01*
X172912171Y-77735576D01*
X172919905Y-77724000D01*
X178480859Y-77724000D01*
X178497386Y-77891805D01*
X178546333Y-78053162D01*
X178625819Y-78201869D01*
X178732788Y-78332212D01*
X178863131Y-78439181D01*
X179011838Y-78518667D01*
X179173195Y-78567614D01*
X179298955Y-78580000D01*
X179683045Y-78580000D01*
X179808805Y-78567614D01*
X179970162Y-78518667D01*
X180118869Y-78439181D01*
X180249212Y-78332212D01*
X180356181Y-78201869D01*
X180435667Y-78053162D01*
X180484614Y-77891805D01*
X180501141Y-77724000D01*
X183480859Y-77724000D01*
X183497386Y-77891805D01*
X183546333Y-78053162D01*
X183625819Y-78201869D01*
X183732788Y-78332212D01*
X183863131Y-78439181D01*
X184011838Y-78518667D01*
X184173195Y-78567614D01*
X184298955Y-78580000D01*
X184683045Y-78580000D01*
X184808805Y-78567614D01*
X184970162Y-78518667D01*
X185118869Y-78439181D01*
X185249212Y-78332212D01*
X185356181Y-78201869D01*
X185435667Y-78053162D01*
X185484614Y-77891805D01*
X185501141Y-77724000D01*
X185484614Y-77556195D01*
X185435667Y-77394838D01*
X185356181Y-77246131D01*
X185249212Y-77115788D01*
X185118869Y-77008819D01*
X184970162Y-76929333D01*
X184808805Y-76880386D01*
X184683045Y-76868000D01*
X184298955Y-76868000D01*
X184173195Y-76880386D01*
X184011838Y-76929333D01*
X183863131Y-77008819D01*
X183732788Y-77115788D01*
X183625819Y-77246131D01*
X183546333Y-77394838D01*
X183497386Y-77556195D01*
X183480859Y-77724000D01*
X180501141Y-77724000D01*
X180484614Y-77556195D01*
X180435667Y-77394838D01*
X180356181Y-77246131D01*
X180249212Y-77115788D01*
X180118869Y-77008819D01*
X179970162Y-76929333D01*
X179808805Y-76880386D01*
X179683045Y-76868000D01*
X179298955Y-76868000D01*
X179173195Y-76880386D01*
X179011838Y-76929333D01*
X178863131Y-77008819D01*
X178732788Y-77115788D01*
X178625819Y-77246131D01*
X178546333Y-77394838D01*
X178497386Y-77556195D01*
X178480859Y-77724000D01*
X172919905Y-77724000D01*
X173057286Y-77518397D01*
X173157243Y-77277080D01*
X173208200Y-77020900D01*
X173208200Y-76759700D01*
X173157243Y-76503520D01*
X173057286Y-76262203D01*
X172912171Y-76045024D01*
X172727476Y-75860329D01*
X172510297Y-75715214D01*
X172268980Y-75615257D01*
X172012800Y-75564300D01*
X171751600Y-75564300D01*
X171495420Y-75615257D01*
X171254103Y-75715214D01*
X171036924Y-75860329D01*
X170852229Y-76045024D01*
X170767845Y-76171313D01*
X170532516Y-75935985D01*
X170516667Y-75916673D01*
X170439619Y-75853441D01*
X170351715Y-75806455D01*
X170256333Y-75777522D01*
X170181994Y-75770200D01*
X170181986Y-75770200D01*
X170157140Y-75767753D01*
X170132294Y-75770200D01*
X166963814Y-75770200D01*
X166938960Y-75767752D01*
X166914106Y-75770200D01*
X166839767Y-75777522D01*
X166744385Y-75806455D01*
X166656481Y-75853441D01*
X166579433Y-75916673D01*
X166563588Y-75935980D01*
X164128409Y-78371160D01*
X160933172Y-78371160D01*
X160632096Y-78070085D01*
X160616247Y-78050773D01*
X160539199Y-77987541D01*
X160479015Y-77955372D01*
X160407286Y-77782203D01*
X160262171Y-77565024D01*
X160077476Y-77380329D01*
X159860297Y-77235214D01*
X159618980Y-77135257D01*
X159362800Y-77084300D01*
X159101600Y-77084300D01*
X158845420Y-77135257D01*
X158604103Y-77235214D01*
X158386924Y-77380329D01*
X158202229Y-77565024D01*
X158057114Y-77782203D01*
X158006540Y-77904300D01*
X156892532Y-77904300D01*
X156835380Y-77847149D01*
X156835380Y-77155452D01*
X156837828Y-77130598D01*
X156828058Y-77031405D01*
X156799125Y-76936023D01*
X156795549Y-76929333D01*
X156752139Y-76848119D01*
X156688907Y-76771071D01*
X156675052Y-76759700D01*
X160446200Y-76759700D01*
X160446200Y-77020900D01*
X160497157Y-77277080D01*
X160597114Y-77518397D01*
X160742229Y-77735576D01*
X160926924Y-77920271D01*
X161144103Y-78065386D01*
X161385420Y-78165343D01*
X161641600Y-78216300D01*
X161902800Y-78216300D01*
X162158980Y-78165343D01*
X162400297Y-78065386D01*
X162617476Y-77920271D01*
X162802171Y-77735576D01*
X162947286Y-77518397D01*
X163047243Y-77277080D01*
X163098200Y-77020900D01*
X163098200Y-76759700D01*
X163047243Y-76503520D01*
X162947286Y-76262203D01*
X162802171Y-76045024D01*
X162617476Y-75860329D01*
X162400297Y-75715214D01*
X162158980Y-75615257D01*
X161902800Y-75564300D01*
X161641600Y-75564300D01*
X161385420Y-75615257D01*
X161144103Y-75715214D01*
X160926924Y-75860329D01*
X160742229Y-76045024D01*
X160597114Y-76262203D01*
X160497157Y-76503520D01*
X160446200Y-76759700D01*
X156675052Y-76759700D01*
X156669600Y-76755226D01*
X155856317Y-75941944D01*
X155840468Y-75922632D01*
X155763420Y-75859400D01*
X155675516Y-75812414D01*
X155580134Y-75783481D01*
X155505795Y-75776159D01*
X155505787Y-75776159D01*
X155480941Y-75773712D01*
X155456095Y-75776159D01*
X154050310Y-75776159D01*
X154025456Y-75773711D01*
X154000602Y-75776159D01*
X153926263Y-75783481D01*
X153830881Y-75812414D01*
X153742977Y-75859400D01*
X153665929Y-75922632D01*
X153650084Y-75941939D01*
X152636360Y-76955664D01*
X152617054Y-76971508D01*
X152553822Y-77048556D01*
X152534409Y-77084875D01*
X152506835Y-77136461D01*
X152477902Y-77231843D01*
X152471451Y-77297348D01*
X152369938Y-77398861D01*
X152284467Y-77526778D01*
X152225593Y-77668911D01*
X152195580Y-77819798D01*
X149237624Y-77819798D01*
X149241940Y-77798101D01*
X149241940Y-77516219D01*
X149186947Y-77239753D01*
X149079076Y-76979327D01*
X148922470Y-76744951D01*
X148723149Y-76545630D01*
X148488773Y-76389024D01*
X148228347Y-76281153D01*
X147951881Y-76226160D01*
X147669999Y-76226160D01*
X147393533Y-76281153D01*
X147133107Y-76389024D01*
X146898731Y-76545630D01*
X146699410Y-76744951D01*
X146542804Y-76979327D01*
X146434933Y-77239753D01*
X146379940Y-77516219D01*
X145970093Y-77516219D01*
X145969505Y-76519390D01*
X145993188Y-76441318D01*
X146016956Y-76200000D01*
X145993188Y-75958682D01*
X145969128Y-75879367D01*
X145968793Y-75311000D01*
X158947544Y-75311000D01*
X159257071Y-75439210D01*
X159644626Y-75516300D01*
X160039774Y-75516300D01*
X160427329Y-75439210D01*
X160736856Y-75311000D01*
X170377544Y-75311000D01*
X170687071Y-75439210D01*
X171074626Y-75516300D01*
X171469774Y-75516300D01*
X171857329Y-75439210D01*
X172166856Y-75311000D01*
X174981934Y-75311000D01*
X175006710Y-75308560D01*
X175030535Y-75301333D01*
X175052491Y-75289597D01*
X175071737Y-75273803D01*
X175087531Y-75254557D01*
X175099267Y-75232601D01*
X175106494Y-75208776D01*
X175108934Y-75184019D01*
X175110323Y-65761394D01*
X180325521Y-65759872D01*
X186021980Y-71454558D01*
X186021980Y-71454558D01*
G37*
X186021980Y-71454558D02*
X186021980Y-79445066D01*
X185982824Y-79412932D01*
X185829774Y-79331125D01*
X185663705Y-79280748D01*
X185491000Y-79263738D01*
X185318294Y-79280748D01*
X185152225Y-79331125D01*
X184999175Y-79412932D01*
X184865025Y-79523025D01*
X184754932Y-79657176D01*
X184673125Y-79810226D01*
X184622748Y-79976295D01*
X184610000Y-80105728D01*
X184610000Y-80742273D01*
X184622748Y-80871706D01*
X184673125Y-81037775D01*
X184754933Y-81190825D01*
X184865026Y-81324975D01*
X184999176Y-81435068D01*
X185152226Y-81516875D01*
X185318295Y-81567252D01*
X185491000Y-81584262D01*
X185663706Y-81567252D01*
X185829775Y-81516875D01*
X185982825Y-81435068D01*
X186021980Y-81402935D01*
X186021980Y-82094000D01*
X145972791Y-82094000D01*
X145971571Y-80023455D01*
X147814940Y-80023455D01*
X147814940Y-80270865D01*
X147863208Y-80513522D01*
X147957887Y-80742099D01*
X148095341Y-80947813D01*
X148270287Y-81122759D01*
X148476001Y-81260213D01*
X148704578Y-81354892D01*
X148947235Y-81403160D01*
X149194645Y-81403160D01*
X149437302Y-81354892D01*
X149665879Y-81260213D01*
X149871593Y-81122759D01*
X150046539Y-80947813D01*
X150183993Y-80742099D01*
X150278672Y-80513522D01*
X150326940Y-80270865D01*
X150326940Y-80023455D01*
X152314940Y-80023455D01*
X152314940Y-80270865D01*
X152363208Y-80513522D01*
X152457887Y-80742099D01*
X152595341Y-80947813D01*
X152770287Y-81122759D01*
X152976001Y-81260213D01*
X153204578Y-81354892D01*
X153447235Y-81403160D01*
X153694645Y-81403160D01*
X153937302Y-81354892D01*
X154165879Y-81260213D01*
X154371593Y-81122759D01*
X154546539Y-80947813D01*
X154683993Y-80742099D01*
X154778672Y-80513522D01*
X154826940Y-80270865D01*
X154826940Y-80105728D01*
X177610000Y-80105728D01*
X177610000Y-80742273D01*
X177622748Y-80871706D01*
X177673125Y-81037775D01*
X177754933Y-81190825D01*
X177865026Y-81324975D01*
X177999176Y-81435068D01*
X178152226Y-81516875D01*
X178318295Y-81567252D01*
X178491000Y-81584262D01*
X178663706Y-81567252D01*
X178829775Y-81516875D01*
X178982825Y-81435068D01*
X179116975Y-81324975D01*
X179227068Y-81190825D01*
X179308875Y-81037775D01*
X179359252Y-80871706D01*
X179372000Y-80742273D01*
X179372000Y-80105727D01*
X179359252Y-79976294D01*
X179308875Y-79810225D01*
X179227068Y-79657175D01*
X179116975Y-79523025D01*
X178982824Y-79412932D01*
X178829774Y-79331125D01*
X178663705Y-79280748D01*
X178491000Y-79263738D01*
X178318294Y-79280748D01*
X178152225Y-79331125D01*
X177999175Y-79412932D01*
X177865025Y-79523025D01*
X177754932Y-79657176D01*
X177673125Y-79810226D01*
X177622748Y-79976295D01*
X177610000Y-80105728D01*
X154826940Y-80105728D01*
X154826940Y-80023455D01*
X154778672Y-79780798D01*
X154683993Y-79552221D01*
X154546539Y-79346507D01*
X154371593Y-79171561D01*
X154165879Y-79034107D01*
X153937302Y-78939428D01*
X153694645Y-78891160D01*
X153447235Y-78891160D01*
X153204578Y-78939428D01*
X152976001Y-79034107D01*
X152770287Y-79171561D01*
X152595341Y-79346507D01*
X152457887Y-79552221D01*
X152363208Y-79780798D01*
X152314940Y-80023455D01*
X150326940Y-80023455D01*
X150278672Y-79780798D01*
X150183993Y-79552221D01*
X150046539Y-79346507D01*
X149871593Y-79171561D01*
X149665879Y-79034107D01*
X149437302Y-78939428D01*
X149194645Y-78891160D01*
X148947235Y-78891160D01*
X148704578Y-78939428D01*
X148476001Y-79034107D01*
X148270287Y-79171561D01*
X148095341Y-79346507D01*
X147957887Y-79552221D01*
X147863208Y-79780798D01*
X147814940Y-80023455D01*
X145971571Y-80023455D01*
X145970999Y-79054464D01*
X145993188Y-78981318D01*
X146016956Y-78740000D01*
X145993188Y-78498682D01*
X145970628Y-78424311D01*
X145970093Y-77516219D01*
X146379940Y-77516219D01*
X146379940Y-77798101D01*
X146434933Y-78074567D01*
X146542804Y-78334993D01*
X146699410Y-78569369D01*
X146898731Y-78768690D01*
X147133107Y-78925296D01*
X147393533Y-79033167D01*
X147669999Y-79088160D01*
X147951881Y-79088160D01*
X148228347Y-79033167D01*
X148488773Y-78925296D01*
X148723149Y-78768690D01*
X148922470Y-78569369D01*
X149079076Y-78334993D01*
X149186947Y-78074567D01*
X149237624Y-77819798D01*
X152195580Y-77819798D01*
X152195580Y-77973642D01*
X152225593Y-78124529D01*
X152284467Y-78266662D01*
X152369938Y-78394579D01*
X152478721Y-78503362D01*
X152606638Y-78588833D01*
X152748771Y-78647707D01*
X152899658Y-78677720D01*
X153053502Y-78677720D01*
X153204389Y-78647707D01*
X153346522Y-78588833D01*
X153474439Y-78503362D01*
X153583222Y-78394579D01*
X153587920Y-78387548D01*
X153709410Y-78569369D01*
X153908731Y-78768690D01*
X154143107Y-78925296D01*
X154403533Y-79033167D01*
X154679999Y-79088160D01*
X154961881Y-79088160D01*
X155238347Y-79033167D01*
X155498773Y-78925296D01*
X155733149Y-78768690D01*
X155932470Y-78569369D01*
X156010155Y-78453106D01*
X156307568Y-78750520D01*
X156323413Y-78769827D01*
X156400461Y-78833059D01*
X156488365Y-78880045D01*
X156561547Y-78902244D01*
X156583746Y-78908978D01*
X156593634Y-78909952D01*
X156658086Y-78916300D01*
X156658093Y-78916300D01*
X156682939Y-78918747D01*
X156707785Y-78916300D01*
X158006540Y-78916300D01*
X158057114Y-79038397D01*
X158202229Y-79255576D01*
X158386924Y-79440271D01*
X158604103Y-79585386D01*
X158845420Y-79685343D01*
X159101600Y-79736300D01*
X159362800Y-79736300D01*
X159618980Y-79685343D01*
X159860297Y-79585386D01*
X160077476Y-79440271D01*
X160262171Y-79255576D01*
X160311932Y-79181104D01*
X160348208Y-79217380D01*
X160364053Y-79236687D01*
X160441101Y-79299919D01*
X160528260Y-79346507D01*
X160529005Y-79346905D01*
X160624387Y-79375838D01*
X160723580Y-79385608D01*
X160748434Y-79383160D01*
X164313154Y-79383160D01*
X164338000Y-79385607D01*
X164362846Y-79383160D01*
X164362854Y-79383160D01*
X164437193Y-79375838D01*
X164532575Y-79346905D01*
X164620479Y-79299919D01*
X164697527Y-79236687D01*
X164713376Y-79217375D01*
X165651051Y-78279700D01*
X168016200Y-78279700D01*
X168016200Y-78540900D01*
X168067157Y-78797080D01*
X168167114Y-79038397D01*
X168312229Y-79255576D01*
X168496924Y-79440271D01*
X168714103Y-79585386D01*
X168955420Y-79685343D01*
X169211600Y-79736300D01*
X169472800Y-79736300D01*
X169728980Y-79685343D01*
X169970297Y-79585386D01*
X170187476Y-79440271D01*
X170372171Y-79255576D01*
X170517286Y-79038397D01*
X170617243Y-78797080D01*
X170668200Y-78540900D01*
X170668200Y-78279700D01*
X170617243Y-78023520D01*
X170517286Y-77782203D01*
X170372171Y-77565024D01*
X170187476Y-77380329D01*
X169970297Y-77235214D01*
X169728980Y-77135257D01*
X169472800Y-77084300D01*
X169211600Y-77084300D01*
X168955420Y-77135257D01*
X168714103Y-77235214D01*
X168496924Y-77380329D01*
X168312229Y-77565024D01*
X168167114Y-77782203D01*
X168067157Y-78023520D01*
X168016200Y-78279700D01*
X165651051Y-78279700D01*
X167148552Y-76782200D01*
X169947549Y-76782200D01*
X170395868Y-77230520D01*
X170411713Y-77249827D01*
X170488761Y-77313059D01*
X170576665Y-77360045D01*
X170650842Y-77382546D01*
X170707114Y-77518397D01*
X170852229Y-77735576D01*
X171036924Y-77920271D01*
X171254103Y-78065386D01*
X171495420Y-78165343D01*
X171751600Y-78216300D01*
X172012800Y-78216300D01*
X172268980Y-78165343D01*
X172510297Y-78065386D01*
X172727476Y-77920271D01*
X172912171Y-77735576D01*
X172919905Y-77724000D01*
X178480859Y-77724000D01*
X178497386Y-77891805D01*
X178546333Y-78053162D01*
X178625819Y-78201869D01*
X178732788Y-78332212D01*
X178863131Y-78439181D01*
X179011838Y-78518667D01*
X179173195Y-78567614D01*
X179298955Y-78580000D01*
X179683045Y-78580000D01*
X179808805Y-78567614D01*
X179970162Y-78518667D01*
X180118869Y-78439181D01*
X180249212Y-78332212D01*
X180356181Y-78201869D01*
X180435667Y-78053162D01*
X180484614Y-77891805D01*
X180501141Y-77724000D01*
X183480859Y-77724000D01*
X183497386Y-77891805D01*
X183546333Y-78053162D01*
X183625819Y-78201869D01*
X183732788Y-78332212D01*
X183863131Y-78439181D01*
X184011838Y-78518667D01*
X184173195Y-78567614D01*
X184298955Y-78580000D01*
X184683045Y-78580000D01*
X184808805Y-78567614D01*
X184970162Y-78518667D01*
X185118869Y-78439181D01*
X185249212Y-78332212D01*
X185356181Y-78201869D01*
X185435667Y-78053162D01*
X185484614Y-77891805D01*
X185501141Y-77724000D01*
X185484614Y-77556195D01*
X185435667Y-77394838D01*
X185356181Y-77246131D01*
X185249212Y-77115788D01*
X185118869Y-77008819D01*
X184970162Y-76929333D01*
X184808805Y-76880386D01*
X184683045Y-76868000D01*
X184298955Y-76868000D01*
X184173195Y-76880386D01*
X184011838Y-76929333D01*
X183863131Y-77008819D01*
X183732788Y-77115788D01*
X183625819Y-77246131D01*
X183546333Y-77394838D01*
X183497386Y-77556195D01*
X183480859Y-77724000D01*
X180501141Y-77724000D01*
X180484614Y-77556195D01*
X180435667Y-77394838D01*
X180356181Y-77246131D01*
X180249212Y-77115788D01*
X180118869Y-77008819D01*
X179970162Y-76929333D01*
X179808805Y-76880386D01*
X179683045Y-76868000D01*
X179298955Y-76868000D01*
X179173195Y-76880386D01*
X179011838Y-76929333D01*
X178863131Y-77008819D01*
X178732788Y-77115788D01*
X178625819Y-77246131D01*
X178546333Y-77394838D01*
X178497386Y-77556195D01*
X178480859Y-77724000D01*
X172919905Y-77724000D01*
X173057286Y-77518397D01*
X173157243Y-77277080D01*
X173208200Y-77020900D01*
X173208200Y-76759700D01*
X173157243Y-76503520D01*
X173057286Y-76262203D01*
X172912171Y-76045024D01*
X172727476Y-75860329D01*
X172510297Y-75715214D01*
X172268980Y-75615257D01*
X172012800Y-75564300D01*
X171751600Y-75564300D01*
X171495420Y-75615257D01*
X171254103Y-75715214D01*
X171036924Y-75860329D01*
X170852229Y-76045024D01*
X170767845Y-76171313D01*
X170532516Y-75935985D01*
X170516667Y-75916673D01*
X170439619Y-75853441D01*
X170351715Y-75806455D01*
X170256333Y-75777522D01*
X170181994Y-75770200D01*
X170181986Y-75770200D01*
X170157140Y-75767753D01*
X170132294Y-75770200D01*
X166963814Y-75770200D01*
X166938960Y-75767752D01*
X166914106Y-75770200D01*
X166839767Y-75777522D01*
X166744385Y-75806455D01*
X166656481Y-75853441D01*
X166579433Y-75916673D01*
X166563588Y-75935980D01*
X164128409Y-78371160D01*
X160933172Y-78371160D01*
X160632096Y-78070085D01*
X160616247Y-78050773D01*
X160539199Y-77987541D01*
X160479015Y-77955372D01*
X160407286Y-77782203D01*
X160262171Y-77565024D01*
X160077476Y-77380329D01*
X159860297Y-77235214D01*
X159618980Y-77135257D01*
X159362800Y-77084300D01*
X159101600Y-77084300D01*
X158845420Y-77135257D01*
X158604103Y-77235214D01*
X158386924Y-77380329D01*
X158202229Y-77565024D01*
X158057114Y-77782203D01*
X158006540Y-77904300D01*
X156892532Y-77904300D01*
X156835380Y-77847149D01*
X156835380Y-77155452D01*
X156837828Y-77130598D01*
X156828058Y-77031405D01*
X156799125Y-76936023D01*
X156795549Y-76929333D01*
X156752139Y-76848119D01*
X156688907Y-76771071D01*
X156675052Y-76759700D01*
X160446200Y-76759700D01*
X160446200Y-77020900D01*
X160497157Y-77277080D01*
X160597114Y-77518397D01*
X160742229Y-77735576D01*
X160926924Y-77920271D01*
X161144103Y-78065386D01*
X161385420Y-78165343D01*
X161641600Y-78216300D01*
X161902800Y-78216300D01*
X162158980Y-78165343D01*
X162400297Y-78065386D01*
X162617476Y-77920271D01*
X162802171Y-77735576D01*
X162947286Y-77518397D01*
X163047243Y-77277080D01*
X163098200Y-77020900D01*
X163098200Y-76759700D01*
X163047243Y-76503520D01*
X162947286Y-76262203D01*
X162802171Y-76045024D01*
X162617476Y-75860329D01*
X162400297Y-75715214D01*
X162158980Y-75615257D01*
X161902800Y-75564300D01*
X161641600Y-75564300D01*
X161385420Y-75615257D01*
X161144103Y-75715214D01*
X160926924Y-75860329D01*
X160742229Y-76045024D01*
X160597114Y-76262203D01*
X160497157Y-76503520D01*
X160446200Y-76759700D01*
X156675052Y-76759700D01*
X156669600Y-76755226D01*
X155856317Y-75941944D01*
X155840468Y-75922632D01*
X155763420Y-75859400D01*
X155675516Y-75812414D01*
X155580134Y-75783481D01*
X155505795Y-75776159D01*
X155505787Y-75776159D01*
X155480941Y-75773712D01*
X155456095Y-75776159D01*
X154050310Y-75776159D01*
X154025456Y-75773711D01*
X154000602Y-75776159D01*
X153926263Y-75783481D01*
X153830881Y-75812414D01*
X153742977Y-75859400D01*
X153665929Y-75922632D01*
X153650084Y-75941939D01*
X152636360Y-76955664D01*
X152617054Y-76971508D01*
X152553822Y-77048556D01*
X152534409Y-77084875D01*
X152506835Y-77136461D01*
X152477902Y-77231843D01*
X152471451Y-77297348D01*
X152369938Y-77398861D01*
X152284467Y-77526778D01*
X152225593Y-77668911D01*
X152195580Y-77819798D01*
X149237624Y-77819798D01*
X149241940Y-77798101D01*
X149241940Y-77516219D01*
X149186947Y-77239753D01*
X149079076Y-76979327D01*
X148922470Y-76744951D01*
X148723149Y-76545630D01*
X148488773Y-76389024D01*
X148228347Y-76281153D01*
X147951881Y-76226160D01*
X147669999Y-76226160D01*
X147393533Y-76281153D01*
X147133107Y-76389024D01*
X146898731Y-76545630D01*
X146699410Y-76744951D01*
X146542804Y-76979327D01*
X146434933Y-77239753D01*
X146379940Y-77516219D01*
X145970093Y-77516219D01*
X145969505Y-76519390D01*
X145993188Y-76441318D01*
X146016956Y-76200000D01*
X145993188Y-75958682D01*
X145969128Y-75879367D01*
X145968793Y-75311000D01*
X158947544Y-75311000D01*
X159257071Y-75439210D01*
X159644626Y-75516300D01*
X160039774Y-75516300D01*
X160427329Y-75439210D01*
X160736856Y-75311000D01*
X170377544Y-75311000D01*
X170687071Y-75439210D01*
X171074626Y-75516300D01*
X171469774Y-75516300D01*
X171857329Y-75439210D01*
X172166856Y-75311000D01*
X174981934Y-75311000D01*
X175006710Y-75308560D01*
X175030535Y-75301333D01*
X175052491Y-75289597D01*
X175071737Y-75273803D01*
X175087531Y-75254557D01*
X175099267Y-75232601D01*
X175106494Y-75208776D01*
X175108934Y-75184019D01*
X175110323Y-65761394D01*
X180325521Y-65759872D01*
X186021980Y-71454558D01*
G36*
X186436000Y-31543829D02*
G01*
X186365000Y-31900772D01*
X186365000Y-32615228D01*
X186436000Y-32972171D01*
X186436000Y-34671000D01*
X171756606Y-34671000D01*
X169877006Y-32791400D01*
X174446836Y-32791400D01*
X174464252Y-32968223D01*
X174515829Y-33138250D01*
X174599586Y-33294949D01*
X174712304Y-33432296D01*
X174849651Y-33545014D01*
X175006350Y-33628771D01*
X175176377Y-33680348D01*
X175308893Y-33693400D01*
X175697507Y-33693400D01*
X175830023Y-33680348D01*
X176000050Y-33628771D01*
X176156749Y-33545014D01*
X176294096Y-33432296D01*
X176406814Y-33294949D01*
X176490571Y-33138250D01*
X176542148Y-32968223D01*
X176559564Y-32791400D01*
X179446836Y-32791400D01*
X179464252Y-32968223D01*
X179515829Y-33138250D01*
X179599586Y-33294949D01*
X179712304Y-33432296D01*
X179849651Y-33545014D01*
X180006350Y-33628771D01*
X180176377Y-33680348D01*
X180308893Y-33693400D01*
X180697507Y-33693400D01*
X180830023Y-33680348D01*
X181000050Y-33628771D01*
X181156749Y-33545014D01*
X181294096Y-33432296D01*
X181406814Y-33294949D01*
X181490571Y-33138250D01*
X181542148Y-32968223D01*
X181559564Y-32791400D01*
X181542148Y-32614577D01*
X181490571Y-32444550D01*
X181406814Y-32287851D01*
X181294096Y-32150504D01*
X181156749Y-32037786D01*
X181000050Y-31954029D01*
X180830023Y-31902452D01*
X180697507Y-31889400D01*
X180308893Y-31889400D01*
X180176377Y-31902452D01*
X180006350Y-31954029D01*
X179849651Y-32037786D01*
X179712304Y-32150504D01*
X179599586Y-32287851D01*
X179515829Y-32444550D01*
X179464252Y-32614577D01*
X179446836Y-32791400D01*
X176559564Y-32791400D01*
X176542148Y-32614577D01*
X176490571Y-32444550D01*
X176406814Y-32287851D01*
X176294096Y-32150504D01*
X176156749Y-32037786D01*
X176000050Y-31954029D01*
X175830023Y-31902452D01*
X175697507Y-31889400D01*
X175308893Y-31889400D01*
X175176377Y-31902452D01*
X175006350Y-31954029D01*
X174849651Y-32037786D01*
X174712304Y-32150504D01*
X174599586Y-32287851D01*
X174515829Y-32444550D01*
X174464252Y-32614577D01*
X174446836Y-32791400D01*
X169877006Y-32791400D01*
X169545000Y-32459394D01*
X169545000Y-29770862D01*
X173576200Y-29770862D01*
X173576200Y-30411937D01*
X173589613Y-30548123D01*
X173642620Y-30722863D01*
X173728699Y-30883904D01*
X173844541Y-31025059D01*
X173985695Y-31140901D01*
X174146736Y-31226980D01*
X174321476Y-31279987D01*
X174503200Y-31297885D01*
X174684923Y-31279987D01*
X174859663Y-31226980D01*
X175020704Y-31140901D01*
X175161859Y-31025059D01*
X175277701Y-30883905D01*
X175363780Y-30722864D01*
X175416787Y-30548124D01*
X175430200Y-30411938D01*
X175430200Y-29770862D01*
X180576200Y-29770862D01*
X180576200Y-30411937D01*
X180589613Y-30548123D01*
X180642620Y-30722863D01*
X180728699Y-30883904D01*
X180844541Y-31025059D01*
X180985695Y-31140901D01*
X181146736Y-31226980D01*
X181321476Y-31279987D01*
X181503200Y-31297885D01*
X181684923Y-31279987D01*
X181859663Y-31226980D01*
X182020704Y-31140901D01*
X182161859Y-31025059D01*
X182277701Y-30883905D01*
X182363780Y-30722864D01*
X182416787Y-30548124D01*
X182430200Y-30411938D01*
X182430200Y-29770862D01*
X182416787Y-29634676D01*
X182363780Y-29459936D01*
X182277701Y-29298895D01*
X182161859Y-29157741D01*
X182020705Y-29041899D01*
X181859664Y-28955820D01*
X181684924Y-28902813D01*
X181503200Y-28884915D01*
X181321477Y-28902813D01*
X181146737Y-28955820D01*
X180985696Y-29041899D01*
X180844542Y-29157741D01*
X180728700Y-29298895D01*
X180642620Y-29459936D01*
X180589613Y-29634676D01*
X180576200Y-29770862D01*
X175430200Y-29770862D01*
X175416787Y-29634676D01*
X175363780Y-29459936D01*
X175277701Y-29298895D01*
X175161859Y-29157741D01*
X175020705Y-29041899D01*
X174859664Y-28955820D01*
X174684924Y-28902813D01*
X174503200Y-28884915D01*
X174321477Y-28902813D01*
X174146737Y-28955820D01*
X173985696Y-29041899D01*
X173844542Y-29157741D01*
X173728700Y-29298895D01*
X173642620Y-29459936D01*
X173589613Y-29634676D01*
X173576200Y-29770862D01*
X169545000Y-29770862D01*
X169545000Y-28442000D01*
X186436000Y-28442000D01*
X186436000Y-31543829D01*
X186436000Y-31543829D01*
G37*
X186436000Y-31543829D02*
X186365000Y-31900772D01*
X186365000Y-32615228D01*
X186436000Y-32972171D01*
X186436000Y-34671000D01*
X171756606Y-34671000D01*
X169877006Y-32791400D01*
X174446836Y-32791400D01*
X174464252Y-32968223D01*
X174515829Y-33138250D01*
X174599586Y-33294949D01*
X174712304Y-33432296D01*
X174849651Y-33545014D01*
X175006350Y-33628771D01*
X175176377Y-33680348D01*
X175308893Y-33693400D01*
X175697507Y-33693400D01*
X175830023Y-33680348D01*
X176000050Y-33628771D01*
X176156749Y-33545014D01*
X176294096Y-33432296D01*
X176406814Y-33294949D01*
X176490571Y-33138250D01*
X176542148Y-32968223D01*
X176559564Y-32791400D01*
X179446836Y-32791400D01*
X179464252Y-32968223D01*
X179515829Y-33138250D01*
X179599586Y-33294949D01*
X179712304Y-33432296D01*
X179849651Y-33545014D01*
X180006350Y-33628771D01*
X180176377Y-33680348D01*
X180308893Y-33693400D01*
X180697507Y-33693400D01*
X180830023Y-33680348D01*
X181000050Y-33628771D01*
X181156749Y-33545014D01*
X181294096Y-33432296D01*
X181406814Y-33294949D01*
X181490571Y-33138250D01*
X181542148Y-32968223D01*
X181559564Y-32791400D01*
X181542148Y-32614577D01*
X181490571Y-32444550D01*
X181406814Y-32287851D01*
X181294096Y-32150504D01*
X181156749Y-32037786D01*
X181000050Y-31954029D01*
X180830023Y-31902452D01*
X180697507Y-31889400D01*
X180308893Y-31889400D01*
X180176377Y-31902452D01*
X180006350Y-31954029D01*
X179849651Y-32037786D01*
X179712304Y-32150504D01*
X179599586Y-32287851D01*
X179515829Y-32444550D01*
X179464252Y-32614577D01*
X179446836Y-32791400D01*
X176559564Y-32791400D01*
X176542148Y-32614577D01*
X176490571Y-32444550D01*
X176406814Y-32287851D01*
X176294096Y-32150504D01*
X176156749Y-32037786D01*
X176000050Y-31954029D01*
X175830023Y-31902452D01*
X175697507Y-31889400D01*
X175308893Y-31889400D01*
X175176377Y-31902452D01*
X175006350Y-31954029D01*
X174849651Y-32037786D01*
X174712304Y-32150504D01*
X174599586Y-32287851D01*
X174515829Y-32444550D01*
X174464252Y-32614577D01*
X174446836Y-32791400D01*
X169877006Y-32791400D01*
X169545000Y-32459394D01*
X169545000Y-29770862D01*
X173576200Y-29770862D01*
X173576200Y-30411937D01*
X173589613Y-30548123D01*
X173642620Y-30722863D01*
X173728699Y-30883904D01*
X173844541Y-31025059D01*
X173985695Y-31140901D01*
X174146736Y-31226980D01*
X174321476Y-31279987D01*
X174503200Y-31297885D01*
X174684923Y-31279987D01*
X174859663Y-31226980D01*
X175020704Y-31140901D01*
X175161859Y-31025059D01*
X175277701Y-30883905D01*
X175363780Y-30722864D01*
X175416787Y-30548124D01*
X175430200Y-30411938D01*
X175430200Y-29770862D01*
X180576200Y-29770862D01*
X180576200Y-30411937D01*
X180589613Y-30548123D01*
X180642620Y-30722863D01*
X180728699Y-30883904D01*
X180844541Y-31025059D01*
X180985695Y-31140901D01*
X181146736Y-31226980D01*
X181321476Y-31279987D01*
X181503200Y-31297885D01*
X181684923Y-31279987D01*
X181859663Y-31226980D01*
X182020704Y-31140901D01*
X182161859Y-31025059D01*
X182277701Y-30883905D01*
X182363780Y-30722864D01*
X182416787Y-30548124D01*
X182430200Y-30411938D01*
X182430200Y-29770862D01*
X182416787Y-29634676D01*
X182363780Y-29459936D01*
X182277701Y-29298895D01*
X182161859Y-29157741D01*
X182020705Y-29041899D01*
X181859664Y-28955820D01*
X181684924Y-28902813D01*
X181503200Y-28884915D01*
X181321477Y-28902813D01*
X181146737Y-28955820D01*
X180985696Y-29041899D01*
X180844542Y-29157741D01*
X180728700Y-29298895D01*
X180642620Y-29459936D01*
X180589613Y-29634676D01*
X180576200Y-29770862D01*
X175430200Y-29770862D01*
X175416787Y-29634676D01*
X175363780Y-29459936D01*
X175277701Y-29298895D01*
X175161859Y-29157741D01*
X175020705Y-29041899D01*
X174859664Y-28955820D01*
X174684924Y-28902813D01*
X174503200Y-28884915D01*
X174321477Y-28902813D01*
X174146737Y-28955820D01*
X173985696Y-29041899D01*
X173844542Y-29157741D01*
X173728700Y-29298895D01*
X173642620Y-29459936D01*
X173589613Y-29634676D01*
X173576200Y-29770862D01*
X169545000Y-29770862D01*
X169545000Y-28442000D01*
X186436000Y-28442000D01*
X186436000Y-31543829D01*
M02*
